<svg xmlns="http://www.w3.org/2000/svg" viewBox="0 0 1232.83 793.55"><defs><style>.cls-1,.cls-2{fill:#00b9da;}.cls-2{font-size:585.65px;font-family:Sarabun-ExtraLight, Sarabun;}</style></defs><title>Ace Logo No IP</title><g id="Layer_2" data-name="Layer 2"><g id="Layer_1-2" data-name="Layer 1"><path class="cls-1" d="M250.43,450.24a11.38,11.38,0,0,0,18.91-12.65L260,423.66c-.11-.16-.22-.33-.33-.48L177.81,300.86a11.39,11.39,0,0,0-9.45-5.05H168a11.39,11.39,0,0,0-9.46,5.05L67,437.59a11.37,11.37,0,0,0,18.56,13.14L96,436.86a165.61,165.61,0,0,1,46.46-16.63c36.44-7.19,70-1.21,99.84,17.79ZM137.12,398.08c-4.83,1-9.41,2.12-13.74,3.34-2,.21-4.08-.25-2.28-3.72l44.75-66.86c1-1.11,2.77-2.13,4.73.12l44.32,66.21c1,2.4,0,3.14-1.48,3.21C189.3,393.57,163.53,392.73,137.12,398.08Z"/><path class="cls-1" d="M304.09,375.05,177.61,198.21a11.36,11.36,0,0,0-9.25-4.76h-2.27a11.39,11.39,0,0,0-9.26,4.76L30.36,375.05c-13.81,19.32-55.85,78.09-8.29,122.24,13.13,12.19,31.8,18.89,50.48,18.89A75.44,75.44,0,0,0,89,514.38c12.5-2.45,32.34-7.12,49.65-19.76,6.73-4.91,10.36-15.78,8.1-24.24a16.14,16.14,0,0,0-14.08-12.17c-10.68-1.17-18.37,8.66-22.51,13.94l-.5.64c-7.64,9.64-13,15.7-22.31,18.52-.94.28-1.89.53-2.85.76l-3.49.68-.28.05c-15.48,2.4-32.47-2.21-43.21-12.18C14.81,459.5,18.3,431,48.87,388.29l116.3-162.62a2.67,2.67,0,0,1,4.1,0L285.58,388.29c30.57,42.74,34.06,71.21,11.32,92.32-11,10.17-28.4,14.78-44.12,12l-.43-.09-1.35-.25c-1.33-.28-2.65-.61-3.94-1-9.35-2.82-14.66-8.88-22.3-18.52l-.5-.64c-4.14-5.28-11.83-15.11-22.51-13.94-7,.75-12.36,5.38-14.46,12.38-2.25,7.52-.44,18.7,6.47,24.4,15.64,12.9,36.53,16.69,50.35,19.19l2.49.46c23.29,4.81,49-1.81,65.78-17.35C359.93,453.14,317.9,394.37,304.09,375.05Z"/><text class="cls-2" transform="translate(371.36 497.79)">ace</text></g></g></svg>