<svg xmlns="http://www.w3.org/2000/svg" viewBox="0 0 1029.66 598.59"><defs><style>.cls-1,.cls-10,.cls-11,.cls-2{fill:#00b9da;}.cls-2{font-size:441.76px;font-family:Sarabun-ExtraLight, Sarabun;}.cls-3{font-size:90.27px;fill:#353535;font-family:Montserrat-Light, Montserrat;}.cls-4{letter-spacing:-0.02em;}.cls-11,.cls-5{letter-spacing:0em;}.cls-6{letter-spacing:0.02em;}.cls-7{letter-spacing:0em;}.cls-8{letter-spacing:-0.01em;}.cls-9{fill:#01d3ff;}.cls-10{letter-spacing:-0.01em;}</style></defs><title>Ace Logo IP</title><g id="Layer_2" data-name="Layer 2"><g id="Layer_1-2" data-name="Layer 1"><path class="cls-1" d="M250.43,398.2a11.38,11.38,0,0,0,18.91-12.66L260,371.61l-.33-.48L177.81,248.82a11.36,11.36,0,0,0-9.45-5H168a11.37,11.37,0,0,0-9.46,5L67,385.54a11.37,11.37,0,0,0,18.56,13.14L96,384.81a166.28,166.28,0,0,1,46.46-16.63c36.44-7.19,70-1.2,99.84,17.8ZM137.12,346c-4.83,1-9.41,2.12-13.74,3.34-2,.22-4.08-.25-2.28-3.71l44.75-66.86c1-1.12,2.77-2.14,4.73.12l44.32,66.2c1,2.41,0,3.14-1.48,3.22C189.3,341.52,163.53,340.69,137.12,346Z"/><path class="cls-1" d="M304.09,323,177.61,146.16a11.37,11.37,0,0,0-9.25-4.75h-2.27a11.41,11.41,0,0,0-9.26,4.75L30.36,323c-13.81,19.31-55.85,78.09-8.29,122.24,13.13,12.19,31.8,18.89,50.48,18.89A75.44,75.44,0,0,0,89,462.34c12.5-2.46,32.34-7.12,49.65-19.76,6.73-4.91,10.36-15.79,8.1-24.25a16.17,16.17,0,0,0-14.08-12.17c-10.68-1.16-18.37,8.67-22.51,13.95l-.5.63c-7.64,9.65-13,15.71-22.31,18.52-.94.28-1.89.54-2.85.76-1.18.24-2.34.46-3.49.68l-.28.06c-15.48,2.4-32.47-2.22-43.21-12.19C14.81,407.46,18.3,379,48.87,336.25l116.3-162.63a2.67,2.67,0,0,1,4.1,0L285.58,336.25c30.57,42.74,34.06,71.21,11.32,92.32-11,10.17-28.4,14.77-44.12,12l-.43-.09-1.35-.25c-1.33-.28-2.65-.62-3.94-1-9.35-2.81-14.66-8.87-22.3-18.52l-.5-.63c-4.14-5.28-11.83-15.11-22.51-13.95-7,.75-12.36,5.38-14.46,12.38-2.25,7.52-.44,18.71,6.47,24.41,15.64,12.9,36.53,16.68,50.35,19.19l2.49.45c23.29,4.82,49-1.8,65.78-17.35C359.93,401.1,317.9,342.32,304.09,323Z"/><text class="cls-2" transform="translate(379.83 375.49)">ace</text><text class="cls-3" transform="translate(399.36 452.35) scale(0.94 1)">in<tspan class="cls-4" x="84.31" y="0">t</tspan><tspan class="cls-5" x="118.53" y="0">e</tspan><tspan class="cls-6" x="172.42" y="0">r</tspan><tspan class="cls-7" x="209.34" y="0">vi</tspan><tspan class="cls-8" x="280.57" y="0">e</tspan><tspan class="cls-7" x="333.56" y="0">w</tspan><tspan class="cls-9" x="411.38" y="0"> </tspan><tspan class="cls-1" x="434.58" y="0">p</tspan><tspan class="cls-10" x="495.51" y="0">r</tspan><tspan class="cls-11" x="529.81" y="0">ep</tspan></text></g></g></svg>