<svg width="30" height="30" viewBox="0 0 30 30" fill="none" xmlns="http://www.w3.org/2000/svg">
<path d="M7.3047 8.31864C6.23347 7.30243 1.94992 6.97497 0.662492 6.89868C0.488769 6.89868 0.321256 6.94995 0.196281 7.06742C0.0712471 7.18496 0 7.34995 0 7.52244V20.0232C0 20.3682 0.280008 20.6482 0.624994 20.6482H4.37484C4.64483 20.6482 4.88482 20.4745 4.96855 20.217C5.05977 19.937 7.21347 12.076 7.49717 8.82616C7.51346 8.63615 7.44344 8.44866 7.3047 8.31864Z" fill="#00B9DA"/>
<path d="M26.2483 15.0336L21.8735 16.901C20.6623 16.9598 18.1436 16.881 17.4986 16.8897C16.8637 16.8985 13.6175 15.8573 14.1263 15.6511C14.2325 15.6073 14.5038 15.5986 14.9988 15.6398C17.8536 15.8773 22.4985 16.4523 22.4985 14.3899C22.4985 12.3275 17.4649 11.89 16.2487 11.89C15.0325 11.89 12.9938 10.7987 11.2489 10.64C10.6927 10.59 9.96771 10.5188 9.20403 10.4612C8.88277 10.4375 8.60153 10.6587 8.54657 10.9762C8.13034 13.3823 7.23289 16.5047 6.65788 18.3871C6.56665 18.6871 6.7129 19.0083 6.99912 19.1371L13.1251 21.9082C15.605 22.8457 17.2912 24.0431 22.4998 21.9082C22.4998 21.9082 29.9995 18.7246 29.9995 16.9084C29.9982 15.4048 28.2795 14.3298 26.2483 15.0336Z" fill="#00B9DA"/>
</svg>
