<svg width="193" height="126" viewBox="0 0 193 126" fill="none" xmlns="http://www.w3.org/2000/svg">
<g clip-path="url(#clip0)">
<path d="M133.11 0.0758057H0.0585938V85.0542H133.11V0.0758057Z" fill="#E6E6E6"/>
<path d="M129.301 10.7336H3.85938V80.0263H129.301V10.7336Z" fill="white"/>
<path d="M133.051 0H0V5.63701H133.051V0Z" fill="#100E7B"/>
<path d="M4.19999 3.92671C4.77859 3.92671 5.24764 3.45895 5.24764 2.88193C5.24764 2.30492 4.77859 1.83716 4.19999 1.83716C3.62139 1.83716 3.15234 2.30492 3.15234 2.88193C3.15234 3.45895 3.62139 3.92671 4.19999 3.92671Z" fill="white"/>
<path d="M8.17655 3.92671C8.75515 3.92671 9.2242 3.45895 9.2242 2.88193C9.2242 2.30492 8.75515 1.83716 8.17655 1.83716C7.59795 1.83716 7.12891 2.30492 7.12891 2.88193C7.12891 3.45895 7.59795 3.92671 8.17655 3.92671Z" fill="white"/>
<path d="M12.1531 3.92671C12.7317 3.92671 13.2008 3.45895 13.2008 2.88193C13.2008 2.30492 12.7317 1.83716 12.1531 1.83716C11.5745 1.83716 11.1055 2.30492 11.1055 2.88193C11.1055 3.45895 11.5745 3.92671 12.1531 3.92671Z" fill="white"/>
<path d="M85.5261 21.3721H14.5352V61.195H85.5261V21.3721Z" fill="#100E7B"/>
<path d="M122.464 21.3721H95.4297V36.5372H122.464V21.3721Z" fill="#E6E6E6"/>
<path d="M122.464 41.3351H95.4297V56.5002H122.464V41.3351Z" fill="#E6E6E6"/>
<path d="M122.464 61.298H95.4297V76.4631H122.464V61.298Z" fill="#E6E6E6"/>
<path d="M63.4446 67.8837H14.5352V71.1765H63.4446V67.8837Z" fill="#E6E6E6"/>
<path d="M59.3177 41.2837L43.8398 32.3721V50.195L59.3177 41.2837L43.8398 32.3721V50.195L59.3177 41.2837Z" fill="white"/>
<path d="M158.946 117.279L159.581 120.449L156.402 121.084L156.879 117.12L158.946 117.279Z" fill="#FFB8B8"/>
<path d="M171.963 116.702L171.243 120.292L168.281 120.364L169.227 115.984L171.963 116.702Z" fill="#FFB8B8"/>
<path d="M176.683 79.8204L177.509 85.3771C177.509 85.3771 176.683 97.7253 176.477 98.3427C176.271 98.9601 175.651 102.047 175.651 102.047L172.143 116.865C172.143 116.865 169.106 117.277 168.487 115.63L168.635 106.781L168.429 96.6963L165.952 85.1713L161.618 100.812C161.618 100.812 161.412 105.957 160.793 107.81C160.174 109.662 159.348 117.688 159.348 117.688C159.348 117.688 156.724 118.306 156.518 117.688C156.311 117.071 155.221 102.459 155.221 100.195C155.221 97.9311 154.008 76.2246 154.008 76.2246L176.683 79.8204Z" fill="#2F2E41"/>
<path d="M169.23 120.087C169.57 120.157 169.921 120.157 170.261 120.087C170.648 119.959 170.261 119.188 170.261 119.188H171.679C171.679 119.188 173.225 122.658 173.87 122.915C174.514 123.172 176.577 126 174.128 126C172.617 125.981 171.142 125.535 169.874 124.715C169.874 124.715 169.617 123.558 168.457 123.429C167.297 123.301 166.523 121.887 166.523 121.887L167.782 119.569C167.818 119.504 167.871 119.449 167.935 119.411C167.999 119.373 168.073 119.353 168.148 119.352C168.222 119.352 168.296 119.372 168.36 119.41C168.424 119.448 168.477 119.502 168.514 119.568C168.689 119.876 168.932 120.147 169.23 120.087Z" fill="#2F2E41"/>
<path d="M158.445 119.689C158.445 119.689 158.157 120.263 157.87 119.976C157.63 119.672 157.436 119.334 157.295 118.973C157.295 118.973 156.433 118.543 156.289 118.973C156.145 119.403 155.57 121.696 155.283 121.983C154.995 122.27 151.977 125.28 154.995 125.853C158.014 126.426 158.589 125.136 158.589 125.136C158.589 125.136 158.157 124.42 159.02 124.133C159.882 123.846 160.026 122.843 160.026 122.843L159.593 119.603C159.583 119.534 159.554 119.469 159.507 119.417C159.461 119.365 159.4 119.328 159.332 119.311C159.264 119.293 159.193 119.296 159.127 119.319C159.061 119.343 159.004 119.385 158.962 119.441C158.795 119.657 158.61 119.799 158.445 119.689Z" fill="#2F2E41"/>
<path d="M181.427 65.4141L182.046 76.1158C182.046 76.1158 184.935 82.9074 181.014 82.7016C177.093 82.4958 179.569 75.91 179.569 75.91L175.73 66.3588L181.427 65.4141Z" fill="#FFB8B8"/>
<path d="M149.648 62.327L149.029 73.0288C149.029 73.0288 146.14 79.8203 150.061 79.6145C153.982 79.4087 151.506 72.823 151.506 72.823L155.345 63.2718L149.648 62.327Z" fill="#FFB8B8"/>
<path d="M166.159 39.0713C169.122 39.0713 171.524 36.6756 171.524 33.7204C171.524 30.7652 169.122 28.3695 166.159 28.3695C163.195 28.3695 160.793 30.7652 160.793 33.7204C160.793 36.6756 163.195 39.0713 166.159 39.0713Z" fill="#FFB8B8"/>
<path d="M170.387 35.8812C170.387 35.8812 168.942 41.6437 171.832 43.0843C174.721 44.525 162.751 46.583 161.926 43.0843L162.339 41.4379C162.339 41.4379 163.989 39.3799 163.577 37.5277L170.387 35.8812Z" fill="#FFB8B8"/>
<path d="M167.191 43.1873C167.191 43.1873 163.63 43.5189 162.521 41.1921C162.521 41.1921 154.189 41.7466 152.332 49.3614C154.488 49.4229 157.161 73.8837 153.629 76.3216C150.761 78.3006 158.577 81.3487 169.461 81.4667L177.715 81.0551C176.176 79.7328 172.493 62.5231 174.826 62.7386C174.826 62.7386 181.017 53.0658 180.398 51.6252C179.779 50.1846 178.788 44.5042 170.822 42.1993C170.822 42.1993 170.699 43.3931 167.191 43.1873Z" fill="#E6E6E6"/>
<path d="M177.713 48.1266L180.396 51.6252C180.396 51.6252 183.079 66.2373 182.253 66.4431C181.428 66.6489 176.475 68.2953 175.65 67.6779C174.824 67.0605 171.109 54.9181 171.109 54.9181L177.713 48.1266Z" fill="#E6E6E6"/>
<path d="M155.837 47.0975L152.329 49.3614C152.329 49.3614 147.17 63.7676 148.615 64.385C150.059 65.0024 158.108 64.5908 158.108 64.5908L155.837 47.0975Z" fill="#E6E6E6"/>
<path d="M172.021 28.9317C172.021 28.9317 170.162 24.916 166.6 25.8427C163.038 26.7694 161.025 28.1594 160.87 29.5495C160.715 30.9395 160.947 33.0246 160.947 33.0246C160.947 33.0246 161.334 30.1673 163.812 30.7851C166.29 31.4029 170.162 30.9395 170.162 30.9395L170.782 36.4997C170.782 36.4997 171.478 35.4958 172.253 36.1136C173.027 36.7314 174.499 30.1673 172.021 28.9317Z" fill="#2F2E41"/>
<path d="M192.92 125.886H139.73V125.453H192.998L192.92 125.886Z" fill="#3F3D56"/>
</g>
<defs>
<clipPath id="clip0">
<rect width="193" height="126" fill="white"/>
</clipPath>
</defs>
</svg>
