<svg width="33" height="33" viewBox="0 0 33 33" fill="none" xmlns="http://www.w3.org/2000/svg">
<g clip-path="url(#clip0)">
<path d="M29.4969 6.94196H22.8303V5.60858C22.8303 4.1379 21.6343 2.94189 20.1636 2.94189H12.1636C10.6929 2.94189 9.49689 4.13783 9.49689 5.60858V6.9419H2.83026C1.35951 6.94196 0.163574 8.1379 0.163574 9.60859V13.6086C0.163574 15.0793 1.35951 16.2753 2.83026 16.2753H13.4969V15.6086C13.4969 15.2401 13.7951 14.9419 14.1636 14.9419H18.1636C18.5321 14.9419 18.8303 15.2401 18.8303 15.6086V16.2753H29.497C30.9676 16.2753 32.1636 15.0793 32.1636 13.6086V9.60859C32.1636 8.1379 30.9676 6.94196 29.4969 6.94196ZM20.1636 6.94196H12.1636V5.60858H20.1636V6.94196Z" fill="#00B9DA"/>
<path d="M31.7938 16.9947C31.5666 16.8821 31.2951 16.9082 31.0945 17.0605C30.6206 17.4192 30.0684 17.6087 29.4968 17.6087H18.8303V19.6087C18.8303 19.9772 18.5321 20.2754 18.1636 20.2754H14.1636C13.7951 20.2754 13.4969 19.9772 13.4969 19.6087V17.6087H2.83026C2.25864 17.6087 1.70657 17.4192 1.23257 17.0605C1.03139 16.9068 0.760574 16.8808 0.533324 16.9947C0.306824 17.1074 0.163574 17.3385 0.163574 17.5918V26.942C0.163574 28.4127 1.35951 29.6087 2.83026 29.6087H29.497C30.9676 29.6087 32.1636 28.4128 32.1636 26.942V17.5918C32.1636 17.3385 32.0203 17.1074 31.7938 16.9947Z" fill="#00B9DA"/>
</g>
<defs>
<clipPath id="clip0">
<rect width="32" height="32" fill="white" transform="translate(0.163574 0.275391)"/>
</clipPath>
</defs>
</svg>
