<svg width="4249" height="3062" viewBox="0 0 4249 3062" fill="none" xmlns="http://www.w3.org/2000/svg">
<path d="M4242.85 3038.52H6.14018C4.51169 3038.52 2.94992 3037.88 1.79841 3036.73C0.646904 3035.58 0 3034.02 0 3032.4C0 3030.77 0.646904 3029.21 1.79841 3028.07C2.94992 3026.92 4.51169 3026.27 6.14018 3026.27H4242.85C4244.5 3026.27 4246.06 3026.92 4247.19 3028.07C4248.34 3029.21 4249 3030.77 4249 3032.4C4249 3034.02 4248.34 3035.58 4247.19 3036.73C4246.06 3037.88 4244.5 3038.52 4242.85 3038.52Z" fill="#CCCCCC"/>
<path d="M3823.54 1970.22H1330.62C1320.04 1970.22 1309.89 1974.41 1302.4 1981.88C1294.92 1989.35 1290.71 1999.48 1290.71 2010.04C1290.71 2020.59 1294.92 2030.72 1302.4 2038.19C1309.89 2045.66 1320.04 2049.85 1330.62 2049.85H1401.23V3002.37C1401.23 3012.93 1405.44 3023.06 1412.93 3030.52C1420.41 3037.99 1430.56 3042.18 1441.15 3042.18C1451.73 3042.18 1461.88 3037.99 1469.37 3030.52C1476.85 3023.06 1481.06 3012.93 1481.06 3002.37L1481.66 2049.85H3666.95V3002.37C3666.95 3012.93 3671.17 3023.06 3678.63 3030.52C3686.13 3037.99 3696.29 3042.18 3706.88 3042.18C3717.47 3042.18 3727.62 3037.99 3735.09 3030.52C3742.59 3023.06 3746.77 3012.93 3746.77 3002.37V2070.85L3758.4 2049.85H3823.54C3834.13 2049.85 3844.28 2045.66 3851.75 2038.19C3859.25 2030.72 3863.43 2020.59 3863.43 2010.04C3863.43 1999.48 3859.25 1989.35 3851.75 1981.88C3844.28 1974.41 3834.13 1970.22 3823.54 1970.22Z" fill="#CCCCCC"/>
<path d="M2712.66 1991.06H1957.54C1942.91 1991.04 1928.9 1985.24 1918.56 1974.93C1908.22 1964.61 1902.4 1950.63 1902.39 1936.04V1521.29C1902.4 1506.7 1908.22 1492.72 1918.56 1482.4C1928.9 1472.09 1942.91 1466.29 1957.54 1466.27H2712.66C2727.29 1466.29 2741.31 1472.09 2751.65 1482.4C2761.98 1492.72 2767.8 1506.7 2767.82 1521.29V1936.04C2767.8 1950.63 2761.98 1964.61 2751.65 1974.93C2741.31 1985.24 2727.29 1991.04 2712.66 1991.06Z" fill="#3F3D56"/>
<path d="M2712.69 1508.6H1957.56C1954.2 1508.61 1950.97 1509.95 1948.59 1512.33C1946.2 1514.7 1944.86 1517.92 1944.86 1521.28V1936.04C1944.86 1939.4 1946.21 1942.62 1948.59 1945C1950.97 1947.38 1954.2 1948.72 1957.56 1948.72H2712.69C2716.06 1948.72 2719.28 1947.38 2721.67 1945C2724.05 1942.62 2725.39 1939.4 2725.39 1936.04V1521.28C2725.39 1517.92 2724.05 1514.7 2721.67 1512.33C2719.28 1509.95 2716.06 1508.61 2712.69 1508.6Z" fill="white"/>
<path d="M2399.54 1802.26C2399.54 1802.26 2309.14 1781.48 2259.42 1819.58C2209.71 1857.67 2322.7 1944.26 2322.7 1944.26L2399.54 1802.26Z" fill="#2F2E41"/>
<path d="M2339.62 1763C2386.71 1763 2424.89 1724.91 2424.89 1677.93C2424.89 1630.95 2386.71 1592.86 2339.62 1592.86C2292.53 1592.86 2254.35 1630.95 2254.35 1677.93C2254.35 1724.91 2292.53 1763 2339.62 1763Z" fill="#A0616A"/>
<path d="M2273.63 1558.51C2279.32 1548.88 2287.56 1541.01 2297.45 1535.76C2307.34 1530.52 2318.49 1528.09 2329.67 1528.77C2341.37 1530.23 2352.78 1533.42 2363.54 1538.23L2419.28 1559.92C2433.7 1565.53 2449.5 1572.41 2455.76 1586.53C2461.57 1599.65 2457.23 1614.79 2452.85 1628.44L2431.99 1693.33C2429.68 1678.64 2425.71 1664.27 2420.17 1650.46C2414.54 1636.57 2404.36 1624.99 2391.28 1617.61C2376.81 1610.2 2359.74 1610.35 2343.49 1611.13C2320.47 1612.24 2295.44 1615.16 2279.08 1631.36C2270.4 1640.56 2264.51 1652.03 2262.11 1664.43C2259.74 1676.77 2258.54 1689.31 2258.55 1701.87C2249.11 1685.68 2241.15 1668.67 2234.79 1651.06C2229.55 1637.94 2226.57 1624.03 2225.96 1609.92C2225.41 1595.7 2230.14 1581.76 2239.25 1570.8C2243.87 1565.44 2249.91 1561.48 2256.66 1559.35C2263.42 1557.23 2270.64 1557.04 2277.51 1558.79L2273.63 1558.51Z" fill="#2F2E41"/>
<path d="M2543.19 1876.02C2542.39 1873.14 2540.76 1870.57 2538.5 1868.62C2536.23 1866.67 2533.45 1865.43 2530.48 1865.05C2530.29 1864.92 2530.08 1864.79 2529.87 1864.69L2402.57 1793.52C2398.94 1791.48 2394.66 1790.93 2390.62 1791.97C2386.59 1793 2383.11 1795.55 2380.91 1799.08L2346.09 1855.31L2293.66 1803L2292.82 1802.17C2290.13 1799.48 2286.58 1797.83 2282.79 1797.5C2278.99 1797.17 2275.21 1798.18 2272.09 1800.36L2167.47 1873.44C2167.29 1873.44 2167.11 1873.51 2166.92 1873.51C2161.92 1874.34 2157.34 1876.85 2153.96 1880.63C2150.57 1884.4 2148.58 1889.22 2148.32 1894.27L2145.61 1948.73H2563.39L2543.19 1876.02Z" fill="#00B9DA"/>
<path d="M2776.27 1940.27H2695.67C2695.67 1938.02 2694.77 1935.87 2693.18 1934.28C2691.59 1932.7 2689.43 1931.81 2687.18 1931.81H2661.73C2659.48 1931.81 2657.32 1932.7 2655.73 1934.28C2654.14 1935.87 2653.24 1938.02 2653.24 1940.27H2627.79C2627.79 1938.02 2626.9 1935.87 2625.3 1934.28C2623.71 1932.7 2621.55 1931.81 2619.31 1931.81H2593.85C2591.6 1931.81 2589.44 1932.7 2587.85 1934.28C2586.26 1935.87 2585.37 1938.02 2585.37 1940.27H2559.91C2559.91 1938.02 2559.02 1935.87 2557.43 1934.28C2555.84 1932.7 2553.68 1931.81 2551.43 1931.81H2525.97C2523.72 1931.81 2521.57 1932.7 2519.98 1934.28C2518.39 1935.87 2517.49 1938.02 2517.49 1940.27H2492.04C2492.04 1938.02 2491.14 1935.87 2489.55 1934.28C2487.96 1932.7 2485.8 1931.81 2483.55 1931.81H2458.1C2455.85 1931.81 2453.69 1932.7 2452.1 1934.28C2450.51 1935.87 2449.61 1938.02 2449.61 1940.27H2424.16C2424.16 1938.02 2423.27 1935.87 2421.67 1934.28C2420.08 1932.7 2417.92 1931.81 2415.68 1931.81H2390.22C2387.97 1931.81 2385.81 1932.7 2384.22 1934.28C2382.63 1935.87 2381.74 1938.02 2381.74 1940.27H2356.28C2356.28 1938.02 2355.39 1935.87 2353.8 1934.28C2352.21 1932.7 2350.05 1931.81 2347.8 1931.81H2322.34C2320.09 1931.81 2317.94 1932.7 2316.35 1934.28C2314.76 1935.87 2313.86 1938.02 2313.86 1940.27H2288.41C2288.41 1938.02 2287.51 1935.87 2285.92 1934.28C2284.33 1932.7 2282.17 1931.81 2279.92 1931.81H2254.47C2252.22 1931.81 2250.06 1932.7 2248.47 1934.28C2246.88 1935.87 2245.98 1938.02 2245.98 1940.27H2220.53C2220.53 1938.02 2219.64 1935.87 2218.04 1934.28C2216.45 1932.7 2214.29 1931.81 2212.04 1931.81H2186.59C2184.34 1931.81 2182.18 1932.7 2180.59 1934.28C2179 1935.87 2178.11 1938.02 2178.11 1940.27H2152.65C2152.65 1938.02 2151.76 1935.87 2150.17 1934.28C2148.58 1932.7 2146.42 1931.81 2144.17 1931.81H2118.71C2116.46 1931.81 2114.31 1932.7 2112.72 1934.28C2111.13 1935.87 2110.23 1938.02 2110.23 1940.27H2084.77C2084.77 1938.02 2083.88 1935.87 2082.29 1934.28C2080.7 1932.7 2078.54 1931.81 2076.29 1931.81H2050.84C2048.59 1931.81 2046.43 1932.7 2044.84 1934.28C2043.25 1935.87 2042.35 1938.02 2042.35 1940.27H2016.9C2016.9 1938.02 2016.01 1935.87 2014.41 1934.28C2012.82 1932.7 2010.66 1931.81 2008.41 1931.81H1982.96C1980.71 1931.81 1978.55 1932.7 1976.96 1934.28C1975.37 1935.87 1974.48 1938.02 1974.48 1940.27H1893.87C1887.13 1940.28 1880.66 1942.96 1875.9 1947.72C1871.13 1952.48 1868.46 1958.94 1868.46 1965.66C1868.46 1972.39 1871.13 1978.84 1875.9 1983.6C1880.66 1988.37 1887.13 1991.05 1893.87 1991.06H2776.27C2783.02 1991.06 2789.5 1988.38 2794.27 1983.62C2799.04 1978.86 2801.72 1972.4 2801.72 1965.66C2801.72 1958.93 2799.04 1952.47 2794.27 1947.71C2789.5 1942.94 2783.02 1940.27 2776.27 1940.27Z" fill="#3F3D56"/>
<path d="M1762.72 1792.8V1961.41H1339.28C1327.94 1961.81 1316.63 1959.92 1306.03 1955.86C1295.43 1951.8 1285.76 1945.65 1277.6 1937.78C1269.43 1929.92 1262.94 1920.49 1258.5 1910.07C1254.07 1899.64 1251.78 1888.43 1251.78 1877.11C1251.78 1865.78 1254.07 1854.57 1258.5 1844.15C1262.94 1833.72 1269.43 1824.3 1277.6 1816.43C1285.76 1808.56 1295.43 1802.42 1306.03 1798.36C1316.63 1794.3 1327.94 1792.41 1339.28 1792.8H1762.72Z" fill="#F2F2F2"/>
<path d="M1773.19 1960.12C1773.18 1961.84 1772.5 1963.49 1771.28 1964.71C1770.06 1965.92 1768.41 1966.61 1766.69 1966.61H1331.8C1308.18 1966.61 1285.53 1957.24 1268.83 1940.58C1252.13 1923.92 1242.75 1901.32 1242.75 1877.76C1242.75 1854.2 1252.13 1831.6 1268.83 1814.94C1285.53 1798.28 1308.18 1788.92 1331.8 1788.92H1766.69C1768.41 1788.92 1770.06 1789.6 1771.28 1790.82C1772.5 1792.03 1773.19 1793.68 1773.19 1795.4C1773.19 1797.12 1772.5 1798.77 1771.28 1799.99C1770.06 1801.2 1768.41 1801.89 1766.69 1801.89H1331.8C1311.64 1801.9 1292.32 1809.91 1278.07 1824.13C1263.82 1838.36 1255.81 1857.65 1255.81 1877.76C1255.81 1897.87 1263.82 1917.16 1278.07 1931.39C1292.32 1945.61 1311.64 1953.62 1331.8 1953.64H1766.69C1768.41 1953.64 1770.06 1954.32 1771.28 1955.54C1772.5 1956.75 1773.18 1958.4 1773.19 1960.12Z" fill="#00B9DA"/>
<path d="M1762.68 1831.72H1307.65C1307.47 1831.72 1307.3 1831.69 1307.15 1831.62C1306.99 1831.56 1306.84 1831.46 1306.72 1831.34C1306.6 1831.22 1306.5 1831.08 1306.44 1830.92C1306.37 1830.76 1306.34 1830.59 1306.34 1830.42C1306.34 1830.25 1306.37 1830.08 1306.44 1829.92C1306.5 1829.76 1306.6 1829.62 1306.72 1829.5C1306.84 1829.38 1306.99 1829.28 1307.15 1829.22C1307.3 1829.15 1307.47 1829.12 1307.65 1829.12H1762.68C1763.02 1829.13 1763.35 1829.26 1763.59 1829.5C1763.83 1829.75 1763.97 1830.08 1763.97 1830.42C1763.97 1830.76 1763.83 1831.09 1763.59 1831.34C1763.35 1831.58 1763.02 1831.71 1762.68 1831.72Z" fill="#CCCCCC"/>
<path d="M1762.68 1862.84H1307.65C1307.47 1862.84 1307.3 1862.81 1307.15 1862.74C1306.99 1862.68 1306.84 1862.58 1306.72 1862.46C1306.6 1862.34 1306.5 1862.2 1306.44 1862.04C1306.37 1861.88 1306.34 1861.71 1306.34 1861.54C1306.34 1861.37 1306.37 1861.2 1306.44 1861.05C1306.5 1860.89 1306.6 1860.74 1306.72 1860.62C1306.84 1860.5 1306.99 1860.41 1307.15 1860.34C1307.3 1860.28 1307.47 1860.25 1307.65 1860.25H1762.68C1763.02 1860.25 1763.35 1860.39 1763.59 1860.63C1763.83 1860.87 1763.97 1861.2 1763.97 1861.54C1763.97 1861.89 1763.83 1862.21 1763.59 1862.46C1763.35 1862.7 1763.02 1862.84 1762.68 1862.84Z" fill="#CCCCCC"/>
<path d="M1762.68 1893.97H1307.65C1307.47 1893.97 1307.3 1893.94 1307.15 1893.88C1306.99 1893.81 1306.84 1893.72 1306.72 1893.6C1306.6 1893.48 1306.5 1893.33 1306.44 1893.17C1306.37 1893.02 1306.34 1892.85 1306.34 1892.68C1306.34 1892.5 1306.37 1892.34 1306.44 1892.18C1306.5 1892.02 1306.6 1891.88 1306.72 1891.76C1306.84 1891.63 1306.99 1891.54 1307.15 1891.47C1307.3 1891.41 1307.47 1891.38 1307.65 1891.38H1762.68C1763.02 1891.38 1763.35 1891.52 1763.59 1891.76C1763.83 1892 1763.97 1892.33 1763.97 1892.68C1763.97 1893.02 1763.83 1893.35 1763.59 1893.59C1763.35 1893.83 1763.02 1893.97 1762.68 1893.97Z" fill="#CCCCCC"/>
<path d="M1762.68 1925.1H1307.65C1307.47 1925.1 1307.3 1925.07 1307.15 1925C1306.99 1924.94 1306.84 1924.84 1306.72 1924.72C1306.6 1924.6 1306.5 1924.46 1306.44 1924.3C1306.37 1924.14 1306.34 1923.97 1306.34 1923.8C1306.34 1923.63 1306.37 1923.46 1306.44 1923.3C1306.5 1923.15 1306.6 1923 1306.72 1922.88C1306.84 1922.76 1306.99 1922.67 1307.15 1922.6C1307.3 1922.54 1307.47 1922.5 1307.65 1922.51H1762.68C1763.02 1922.51 1763.35 1922.64 1763.59 1922.89C1763.83 1923.13 1763.97 1923.46 1763.97 1923.8C1763.97 1924.14 1763.83 1924.47 1763.59 1924.72C1763.35 1924.96 1763.02 1925.1 1762.68 1925.1Z" fill="#CCCCCC"/>
<path d="M1682.9 1615.17V1783.77H1259.46C1248.12 1784.17 1236.81 1782.28 1226.21 1778.22C1215.62 1774.16 1205.95 1768.01 1197.78 1760.15C1189.61 1752.28 1183.12 1742.85 1178.69 1732.43C1174.25 1722 1171.96 1710.79 1171.96 1699.47C1171.96 1688.15 1174.25 1676.94 1178.69 1666.51C1183.12 1656.09 1189.61 1646.66 1197.78 1638.79C1205.95 1630.93 1215.62 1624.78 1226.21 1620.72C1236.81 1616.66 1248.12 1614.77 1259.46 1615.17H1682.9Z" fill="#F2F2F2"/>
<path d="M1693.25 1782.47C1693.25 1784.19 1692.57 1785.84 1691.35 1787.06C1690.13 1788.28 1688.48 1788.96 1686.75 1788.96H1251.87C1240.18 1788.96 1228.59 1786.66 1217.79 1782.2C1206.98 1777.73 1197.17 1771.19 1188.9 1762.94C1180.63 1754.69 1174.07 1744.89 1169.59 1734.11C1165.12 1723.34 1162.81 1711.78 1162.81 1700.12C1162.81 1688.45 1165.12 1676.89 1169.59 1666.12C1174.07 1655.34 1180.63 1645.54 1188.9 1637.29C1197.17 1629.04 1206.98 1622.5 1217.79 1618.04C1228.59 1613.57 1240.18 1611.27 1251.87 1611.27H1686.75C1688.48 1611.27 1690.13 1611.96 1691.35 1613.17C1692.57 1614.39 1693.25 1616.04 1693.25 1617.76C1693.25 1619.48 1692.57 1621.13 1691.35 1622.34C1690.13 1623.56 1688.48 1624.24 1686.75 1624.24H1251.87C1231.71 1624.26 1212.38 1632.26 1198.14 1646.49C1183.89 1660.72 1175.88 1680 1175.88 1700.12C1175.88 1720.23 1183.89 1739.52 1198.14 1753.74C1212.38 1767.97 1231.71 1775.97 1251.87 1775.99H1686.75C1688.48 1775.99 1690.13 1776.68 1691.35 1777.89C1692.57 1779.11 1693.25 1780.76 1693.25 1782.47Z" fill="#3F3D56"/>
<path d="M1682.86 1654.07H1227.83C1227.66 1654.07 1227.49 1654.04 1227.33 1653.98C1227.17 1653.91 1227.03 1653.82 1226.9 1653.69C1226.78 1653.57 1226.69 1653.43 1226.62 1653.27C1226.55 1653.12 1226.52 1652.94 1226.52 1652.78C1226.52 1652.6 1226.55 1652.44 1226.62 1652.28C1226.69 1652.12 1226.78 1651.98 1226.9 1651.85C1227.03 1651.74 1227.17 1651.64 1227.33 1651.57C1227.49 1651.51 1227.66 1651.48 1227.83 1651.48H1682.86C1683.21 1651.48 1683.53 1651.62 1683.78 1651.86C1684.02 1652.1 1684.16 1652.43 1684.16 1652.78C1684.16 1653.12 1684.02 1653.44 1683.78 1653.69C1683.53 1653.93 1683.21 1654.07 1682.86 1654.07Z" fill="#CCCCCC"/>
<path d="M1682.86 1685.2H1227.83C1227.66 1685.21 1227.49 1685.17 1227.33 1685.11C1227.17 1685.04 1227.03 1684.95 1226.9 1684.83C1226.78 1684.71 1226.69 1684.56 1226.62 1684.41C1226.55 1684.25 1226.52 1684.08 1226.52 1683.91C1226.52 1683.73 1226.55 1683.57 1226.62 1683.41C1226.69 1683.25 1226.78 1683.11 1226.9 1682.99C1227.03 1682.87 1227.17 1682.77 1227.33 1682.71C1227.49 1682.64 1227.66 1682.61 1227.83 1682.61H1682.86C1683.21 1682.61 1683.53 1682.75 1683.78 1682.99C1684.02 1683.23 1684.16 1683.57 1684.16 1683.91C1684.16 1684.25 1684.02 1684.58 1683.78 1684.82C1683.53 1685.06 1683.21 1685.2 1682.86 1685.2Z" fill="#CCCCCC"/>
<path d="M1682.86 1716.33H1227.83C1227.66 1716.33 1227.49 1716.29 1227.33 1716.23C1227.17 1716.17 1227.03 1716.07 1226.9 1715.95C1226.78 1715.83 1226.69 1715.69 1226.62 1715.53C1226.55 1715.37 1226.52 1715.2 1226.52 1715.03C1226.52 1714.86 1226.55 1714.69 1226.62 1714.53C1226.69 1714.37 1226.78 1714.23 1226.9 1714.11C1227.03 1713.99 1227.17 1713.89 1227.33 1713.83C1227.49 1713.76 1227.66 1713.73 1227.83 1713.73H1682.86C1683.21 1713.74 1683.53 1713.87 1683.78 1714.12C1684.02 1714.36 1684.16 1714.69 1684.16 1715.03C1684.16 1715.37 1684.02 1715.7 1683.78 1715.94C1683.53 1716.19 1683.21 1716.32 1682.86 1716.33Z" fill="#CCCCCC"/>
<path d="M1682.86 1747.46H1227.83C1227.66 1747.46 1227.49 1747.43 1227.33 1747.36C1227.17 1747.3 1227.03 1747.2 1226.9 1747.08C1226.78 1746.96 1226.69 1746.82 1226.62 1746.66C1226.55 1746.5 1226.52 1746.33 1226.52 1746.16C1226.52 1745.99 1226.55 1745.82 1226.62 1745.66C1226.69 1745.51 1226.78 1745.36 1226.9 1745.24C1227.03 1745.12 1227.17 1745.03 1227.33 1744.96C1227.49 1744.9 1227.66 1744.86 1227.83 1744.86H1682.86C1683.21 1744.87 1683.53 1745 1683.78 1745.25C1684.02 1745.49 1684.16 1745.82 1684.16 1746.16C1684.16 1746.5 1684.02 1746.83 1683.78 1747.08C1683.53 1747.32 1683.21 1747.46 1682.86 1747.46Z" fill="#CCCCCC"/>
<path d="M2175.5 2560.73V2413.72C2175.5 2407.22 2172.91 2400.99 2168.31 2396.39C2163.7 2391.79 2157.45 2389.21 2150.94 2389.21H1592.18C1585.67 2389.21 1579.43 2391.79 1574.82 2396.39C1570.21 2400.99 1567.62 2407.22 1567.62 2413.72V2560.73H2175.5Z" fill="#CCCCCC"/>
<path d="M2175.5 2615.86H1567.62V2805.75H2175.5V2615.86Z" fill="#CCCCCC"/>
<path d="M1567.62 2860.88V3007.89C1567.62 3014.39 1570.21 3020.62 1574.82 3025.21C1579.43 3029.81 1585.67 3032.39 1592.18 3032.39H2150.94C2157.45 3032.39 2163.7 3029.81 2168.31 3025.21C2172.91 3020.62 2175.5 3014.39 2175.5 3007.89V2860.88H1567.62Z" fill="#CCCCCC"/>
<path d="M1868.45 2499.48C1878.62 2499.48 1886.87 2491.25 1886.87 2481.1C1886.87 2470.95 1878.62 2462.73 1868.45 2462.73C1858.28 2462.73 1850.03 2470.95 1850.03 2481.1C1850.03 2491.25 1858.28 2499.48 1868.45 2499.48Z" fill="white"/>
<path d="M1868.45 2744.49C1878.62 2744.49 1886.87 2736.27 1886.87 2726.12C1886.87 2715.97 1878.62 2707.74 1868.45 2707.74C1858.28 2707.74 1850.03 2715.97 1850.03 2726.12C1850.03 2736.27 1858.28 2744.49 1868.45 2744.49Z" fill="white"/>
<path d="M1869.42 2984.32C1879.6 2984.32 1887.85 2976.1 1887.85 2965.95C1887.85 2955.8 1879.6 2947.57 1869.42 2947.57C1859.25 2947.57 1851 2955.8 1851 2965.95C1851 2976.1 1859.25 2984.32 1869.42 2984.32Z" fill="white"/>
<path d="M2106.63 2221.6V2390.21H1683.19C1671.84 2390.6 1660.54 2388.71 1649.94 2384.65C1639.34 2380.59 1629.67 2374.44 1621.5 2366.58C1613.34 2358.71 1606.85 2349.28 1602.41 2338.86C1597.98 2328.44 1595.69 2317.23 1595.69 2305.9C1595.69 2294.58 1597.98 2283.37 1602.41 2272.94C1606.85 2262.52 1613.34 2253.09 1621.5 2245.22C1629.67 2237.36 1639.34 2231.21 1649.94 2227.15C1660.54 2223.09 1671.84 2221.2 1683.19 2221.6H2106.63Z" fill="#F2F2F2"/>
<path d="M2116.93 2388.9C2116.93 2390.62 2116.25 2392.27 2115.03 2393.49C2113.81 2394.71 2112.16 2395.39 2110.43 2395.39H1675.55C1663.85 2395.4 1652.26 2393.11 1641.45 2388.65C1630.63 2384.19 1620.81 2377.64 1612.53 2369.4C1604.25 2361.14 1597.68 2351.35 1593.2 2340.56C1588.72 2329.78 1586.42 2318.22 1586.42 2306.55C1586.42 2294.87 1588.72 2283.31 1593.2 2272.53C1597.68 2261.75 1604.25 2251.95 1612.53 2243.7C1620.81 2235.45 1630.63 2228.91 1641.45 2224.44C1652.26 2219.98 1663.85 2217.69 1675.55 2217.7H2110.43C2112.16 2217.7 2113.81 2218.39 2115.03 2219.6C2116.25 2220.82 2116.93 2222.47 2116.93 2224.19C2116.93 2225.91 2116.25 2227.56 2115.03 2228.77C2113.81 2229.99 2112.16 2230.67 2110.43 2230.67H1675.55C1655.39 2230.69 1636.06 2238.69 1621.81 2252.92C1607.57 2267.15 1599.56 2286.43 1599.56 2306.55C1599.56 2326.66 1607.57 2345.95 1621.81 2360.17C1636.06 2374.4 1655.39 2382.4 1675.55 2382.42H2110.43C2112.16 2382.42 2113.81 2383.1 2115.03 2384.32C2116.25 2385.54 2116.93 2387.19 2116.93 2388.9Z" fill="#3F3D56"/>
<path d="M2106.59 2260.5H1651.56C1651.38 2260.5 1651.21 2260.47 1651.06 2260.41C1650.9 2260.34 1650.75 2260.25 1650.63 2260.12C1650.51 2260.01 1650.41 2259.86 1650.35 2259.7C1650.28 2259.55 1650.25 2259.37 1650.25 2259.21C1650.25 2259.03 1650.28 2258.87 1650.35 2258.71C1650.41 2258.55 1650.51 2258.41 1650.63 2258.28C1650.75 2258.17 1650.9 2258.07 1651.06 2258C1651.21 2257.94 1651.38 2257.91 1651.56 2257.91H2106.59C2106.93 2257.91 2107.26 2258.05 2107.5 2258.29C2107.74 2258.53 2107.88 2258.86 2107.88 2259.21C2107.88 2259.55 2107.74 2259.87 2107.5 2260.12C2107.26 2260.36 2106.93 2260.5 2106.59 2260.5Z" fill="#CCCCCC"/>
<path d="M2106.59 2291.63H1651.56C1651.38 2291.63 1651.21 2291.59 1651.06 2291.53C1650.9 2291.47 1650.75 2291.37 1650.63 2291.25C1650.51 2291.13 1650.41 2290.99 1650.35 2290.83C1650.28 2290.67 1650.25 2290.5 1650.25 2290.33C1650.25 2290.16 1650.28 2289.99 1650.35 2289.83C1650.41 2289.67 1650.51 2289.53 1650.63 2289.41C1650.75 2289.29 1650.9 2289.19 1651.06 2289.13C1651.21 2289.06 1651.38 2289.03 1651.56 2289.03H2106.59C2106.93 2289.04 2107.26 2289.17 2107.5 2289.42C2107.74 2289.66 2107.88 2289.99 2107.88 2290.33C2107.88 2290.67 2107.74 2291 2107.5 2291.24C2107.26 2291.48 2106.93 2291.63 2106.59 2291.63Z" fill="#CCCCCC"/>
<path d="M2106.59 2322.76H1651.56C1651.38 2322.76 1651.21 2322.72 1651.06 2322.66C1650.9 2322.6 1650.75 2322.5 1650.63 2322.38C1650.51 2322.26 1650.41 2322.12 1650.35 2321.96C1650.28 2321.8 1650.25 2321.63 1650.25 2321.46C1650.25 2321.29 1650.28 2321.12 1650.35 2320.96C1650.41 2320.8 1650.51 2320.66 1650.63 2320.54C1650.75 2320.42 1650.9 2320.32 1651.06 2320.26C1651.21 2320.19 1651.38 2320.16 1651.56 2320.16H2106.59C2106.93 2320.17 2107.26 2320.3 2107.5 2320.55C2107.74 2320.79 2107.88 2321.12 2107.88 2321.46C2107.88 2321.8 2107.74 2322.13 2107.5 2322.37C2107.26 2322.62 2106.93 2322.75 2106.59 2322.76Z" fill="#CCCCCC"/>
<path d="M2106.59 2353.88H1651.56C1651.38 2353.88 1651.21 2353.85 1651.06 2353.78C1650.9 2353.72 1650.75 2353.63 1650.63 2353.5C1650.51 2353.38 1650.41 2353.24 1650.35 2353.08C1650.28 2352.93 1650.25 2352.75 1650.25 2352.58C1650.25 2352.41 1650.28 2352.24 1650.35 2352.08C1650.41 2351.93 1650.51 2351.79 1650.63 2351.66C1650.75 2351.54 1650.9 2351.45 1651.06 2351.38C1651.21 2351.32 1651.38 2351.29 1651.56 2351.29H2106.59C2106.93 2351.29 2107.26 2351.43 2107.5 2351.67C2107.74 2351.91 2107.88 2352.24 2107.88 2352.58C2107.88 2352.93 2107.74 2353.25 2107.5 2353.5C2107.26 2353.74 2106.93 2353.88 2106.59 2353.88Z" fill="#CCCCCC"/>
<path d="M1535.77 1121.1V46.0728C1535.78 33.8576 1540.65 22.147 1549.31 13.5098C1557.97 4.87249 1569.71 0.0138941 1581.95 0H2433.77C2446.01 0.013975 2457.75 4.87258 2466.41 13.5099C2475.07 22.1471 2479.94 33.8576 2479.95 46.0728V1121.1C2479.94 1133.31 2475.07 1145.03 2466.41 1153.66C2457.75 1162.3 2446.01 1167.16 2433.77 1167.17H1581.95C1569.71 1167.16 1557.97 1162.3 1549.31 1153.66C1540.65 1145.03 1535.78 1133.31 1535.77 1121.1ZM1581.95 10.2384C1572.43 10.249 1563.3 14.0278 1556.56 20.7458C1549.83 27.4637 1546.04 36.5722 1546.03 46.0728V1121.1C1546.04 1130.6 1549.83 1139.71 1556.56 1146.43C1563.3 1153.15 1572.43 1156.92 1581.95 1156.93H2433.77C2443.29 1156.92 2452.42 1153.15 2459.16 1146.43C2465.89 1139.71 2469.68 1130.6 2469.69 1121.1V46.0728C2469.68 36.5722 2465.89 27.4637 2459.16 20.7458C2452.42 14.0278 2443.29 10.249 2433.77 10.2384H1581.95Z" fill="#E6E6E6"/>
<path d="M2055.55 493.701V272.965C2055.56 266.858 2057.99 261.002 2062.32 256.684C2066.65 252.365 2072.52 249.936 2078.64 249.929H2266.14C2272.26 249.936 2278.13 252.365 2282.46 256.684C2286.79 261.002 2289.23 266.858 2289.23 272.965V493.701C2289.23 499.809 2286.79 505.664 2282.46 509.982C2278.13 514.304 2272.26 516.731 2266.14 516.738H2078.64C2072.52 516.731 2066.65 514.304 2062.32 509.982C2057.99 505.664 2055.56 499.809 2055.55 493.701Z" fill="#00B9DA"/>
<path d="M1691.25 596.086V375.351C1691.26 369.242 1693.7 363.387 1698.02 359.069C1702.35 354.748 1708.22 352.32 1714.35 352.314H1901.85C1907.97 352.32 1913.84 354.748 1918.17 359.069C1922.5 363.387 1924.93 369.242 1924.94 375.351V596.086C1924.93 602.195 1922.5 608.05 1918.17 612.368C1913.84 616.686 1907.97 619.117 1901.85 619.123H1714.35C1708.22 619.117 1702.35 616.686 1698.02 612.368C1693.7 608.05 1691.26 602.195 1691.25 596.086Z" fill="#CCCCCC"/>
<path d="M1983.66 908.355V687.616C1983.67 681.511 1986.11 675.653 1990.44 671.335C1994.76 667.017 2000.64 664.589 2006.76 664.58H2194.26C2200.38 664.589 2206.25 667.017 2210.58 671.335C2214.91 675.653 2217.34 681.511 2217.35 687.616V908.355C2217.34 914.461 2214.91 920.316 2210.58 924.637C2206.25 928.955 2200.38 931.383 2194.26 931.389H2006.76C2000.64 931.383 1994.76 928.955 1990.44 924.637C1986.11 920.316 1983.67 914.461 1983.66 908.355Z" fill="#F4B2D2"/>
<path d="M3104.28 1917.55H2911.36C2909.53 1917.55 2907.73 1917.97 2906.08 1918.78L2857.39 1943.1C2855.79 1943.77 2854.42 1944.91 2853.46 1946.36C2852.5 1947.8 2851.99 1949.5 2851.99 1951.24C2851.99 1952.98 2852.5 1954.68 2853.46 1956.13C2854.42 1957.58 2855.79 1958.71 2857.39 1959.39L2906.08 1983.71C2907.73 1984.51 2909.53 1984.93 2911.36 1984.93H3104.28C3106.94 1985.09 3109.56 1984.19 3111.56 1982.43C3113.56 1980.68 3114.78 1978.21 3114.97 1975.56V1926.92C3114.78 1924.27 3113.56 1921.8 3111.56 1920.05C3109.56 1918.29 3106.94 1917.4 3104.28 1917.55Z" fill="#3F3D56"/>
<path d="M3114.93 1926.92V1975.56C3114.74 1978.21 3113.52 1980.68 3111.51 1982.43C3109.51 1984.19 3106.9 1985.09 3104.24 1984.93H3065.81V1917.55H3104.24C3106.9 1917.4 3109.51 1918.3 3111.51 1920.05C3113.52 1921.8 3114.74 1924.27 3114.93 1926.92Z" fill="#00B9DA"/>
<path d="M3102.81 1553.69C3111.55 1549.93 3120.98 1548.05 3130.51 1548.18C3140.01 1548.31 3149.38 1550.45 3158.04 1554.45C3166.66 1558.45 3174.35 1564.22 3180.59 1571.39C3186.84 1578.56 3191.47 1586.96 3194.25 1596.05C3195.09 1598.93 3195.75 1601.87 3196.22 1604.84L3466 1738.3L3528.42 1697.03L3606.12 1786.25L3510.77 1863.49C3499.3 1872.7 3485.18 1877.99 3470.46 1878.55C3455.75 1879.12 3441.25 1874.94 3429.1 1866.63L3155.38 1677.79C3153.35 1678.65 3151.26 1679.41 3149.16 1680.06C3140.04 1682.81 3130.45 1683.61 3121.01 1682.4C3111.57 1681.19 3102.49 1678.01 3094.36 1673.06C3086.24 1668.11 3079.26 1661.5 3073.88 1653.67C3068.49 1645.84 3064.83 1636.96 3063.12 1627.62C3062.62 1624.91 3062.28 1622.17 3062.13 1619.41C3061.37 1605.63 3064.86 1591.94 3072.13 1580.19C3079.4 1568.44 3090.11 1559.19 3102.81 1553.69Z" fill="#FFB8B8"/>
<path d="M3664.67 2375.42H3369.87C3369.87 2383.87 3066.06 2390.73 3066.06 2390.73C3061.29 2394.32 3056.95 2398.43 3053.11 2402.99C3041.57 2416.72 3035.26 2434.07 3035.3 2451.99V2464.24C3035.31 2484.55 3043.4 2504.02 3057.79 2518.38C3072.18 2532.73 3091.7 2540.8 3112.05 2540.81H3664.67C3685.01 2540.79 3704.54 2532.72 3718.91 2518.36C3733.31 2504.01 3741.4 2484.54 3741.4 2464.24V2451.99C3741.4 2431.69 3733.28 2412.23 3718.91 2397.88C3704.51 2383.53 3685.01 2375.45 3664.67 2375.42Z" fill="#3F3D56"/>
<path d="M3344.06 3052.31H3423.89V2537.76H3344.06V3052.31Z" fill="#3F3D56"/>
<path d="M3116.82 3049.51C3116.82 3058.12 3237.77 3052.84 3386.98 3052.84C3536.2 3052.84 3657.14 3058.12 3657.14 3049.51C3657.14 3040.91 3536.2 2972.68 3386.98 2972.68C3237.77 2972.68 3116.82 3040.91 3116.82 3049.51Z" fill="#3F3D56"/>
<path d="M3188.96 2989.21L3113.7 2989.2L3077.89 2794.43L3188.99 2794.43L3188.96 2989.21Z" fill="#FFB8B8"/>
<path d="M3208.09 3062L2965.37 3061.99V3058.93C2965.37 3046.55 2967.81 3034.29 2972.56 3022.86C2977.31 3011.43 2984.27 3001.03 2993.04 2992.28C3001.81 2983.53 3012.23 2976.59 3023.69 2971.85C3035.15 2967.12 3047.44 2964.68 3059.85 2964.68H3059.85L3208.09 2964.68V3062Z" fill="#2F2E41"/>
<path d="M3076.28 2868.43L2926.21 2532.71C2913.68 2504.41 2912.3 2472.44 2922.33 2443.17C2932.37 2413.9 2953.08 2389.48 2980.36 2374.76L3305.88 2200.63L3454.41 2188.02L3591.44 2175.6L3592.41 2177.27C3593.69 2179.4 3623.15 2230.16 3603.22 2285.82C3588.13 2328.05 3548.82 2361.02 3486.43 2383.85C3340.84 2437.11 3172.63 2482.63 3107.07 2499.73C3104.17 2500.47 3101.46 2501.81 3099.12 2503.67C3096.78 2505.53 3094.86 2507.86 3093.49 2510.51C3092.11 2513.13 3091.3 2516 3091.09 2518.95C3090.88 2521.9 3091.29 2524.87 3092.28 2527.65L3231.71 2840.14C3233.15 2844.1 3233.68 2848.35 3233.24 2852.55C3232.8 2856.74 3231.4 2860.78 3229.12 2864.35C3226.87 2867.92 3223.8 2870.92 3220.21 2873.13C3216.59 2875.33 3212.53 2876.68 3208.31 2877.07L3104.14 2884.64C3103.25 2884.73 3102.37 2884.77 3101.5 2884.77C3096.16 2884.76 3090.94 2883.22 3086.47 2880.32C3081.99 2877.42 3078.45 2873.29 3076.28 2868.43Z" fill="#2F2E41"/>
<path d="M3225.83 2989.21L3150.56 2989.2L3114.74 2794.43L3225.83 2794.43V2989.21Z" fill="#FFB8B8"/>
<path d="M3244.95 3062L3002.22 3061.99V3058.93C3002.22 3046.55 3004.67 3034.29 3009.41 3022.86C3014.16 3011.43 3021.12 3001.03 3029.89 2992.28C3038.66 2983.53 3049.08 2976.59 3060.54 2971.85C3072.01 2967.12 3084.29 2964.68 3096.7 2964.68H3096.7L3244.95 2964.68V3062Z" fill="#2F2E41"/>
<path d="M3119.36 2886.8L2969.29 2551.07C2956.76 2522.78 2955.37 2490.81 2965.41 2461.54C2975.44 2432.27 2996.16 2407.85 3023.44 2393.13L3348.96 2219L3497.48 2206.4L3634.51 2193.97L3635.48 2195.64C3636.76 2197.77 3666.23 2248.53 3646.29 2304.19C3631.2 2346.41 3591.9 2379.39 3529.51 2402.21C3383.92 2455.48 3215.71 2501 3150.13 2518.1C3147.25 2518.84 3144.54 2520.18 3142.19 2522.04C3139.85 2523.89 3137.94 2526.23 3136.57 2528.88C3135.19 2531.5 3134.38 2534.37 3134.16 2537.32C3133.95 2540.27 3134.35 2543.23 3135.35 2546.02L3274.79 2858.51C3276.22 2862.47 3276.76 2866.72 3276.32 2870.92C3275.88 2875.11 3274.47 2879.15 3272.19 2882.72C3269.94 2886.29 3266.88 2889.29 3263.29 2891.5C3259.67 2893.7 3255.6 2895.06 3251.39 2895.44L3147.22 2903.01C3146.32 2903.09 3145.44 2903.14 3144.57 2903.14C3139.23 2903.14 3134.01 2901.59 3129.54 2898.69C3125.07 2895.79 3121.53 2891.66 3119.36 2886.8Z" fill="#2F2E41"/>
<path d="M3044.44 1861.2C2981.38 1777.52 2931.53 1684.7 2896.61 1585.97C2894.59 1580.07 2894.74 1573.64 2897.02 1567.83C2899.31 1562.02 2903.58 1557.21 2909.09 1554.25L3124.89 1438.89C3128.39 1437.01 3132.27 1435.95 3136.2 1435.79C3140.17 1435.63 3144.14 1436.38 3147.76 1437.97C3151.45 1439.57 3154.76 1442 3157.35 1445.06C3159.98 1448.12 3161.85 1451.74 3162.88 1455.64C3188 1550.77 3235.21 1638.68 3300.7 1712.24C3303.38 1715.23 3305.38 1718.8 3306.48 1722.67C3307.57 1726.54 3307.79 1730.61 3307.07 1734.57C3306.38 1738.47 3304.82 1742.16 3302.48 1745.37C3300.17 1748.57 3297.13 1751.2 3293.64 1753.06L3077.83 1868.41C3072.31 1871.35 3065.92 1872.24 3059.81 1870.92C3053.69 1869.6 3048.25 1866.16 3044.44 1861.2Z" fill="#CCCCCC"/>
<path d="M3059.3 1850.16C3060.46 1851.61 3062.09 1852.6 3063.91 1852.98C3065.73 1853.35 3067.62 1853.08 3069.26 1852.22L3285.07 1736.86C3286.1 1736.32 3287.01 1735.54 3287.72 1734.58C3288.41 1733.63 3288.88 1732.53 3289.07 1731.36C3289.29 1730.14 3289.22 1728.88 3288.88 1727.68C3288.54 1726.48 3287.91 1725.37 3287.07 1724.46C3219.65 1648.73 3171.06 1558.24 3145.19 1460.29C3144.88 1459.08 3144.32 1457.96 3143.51 1457.01C3142.7 1456.06 3141.7 1455.31 3140.54 1454.81C3139.45 1454.33 3138.29 1454.1 3137.1 1454.15C3135.92 1454.2 3134.76 1454.52 3133.73 1455.09L2917.92 1570.44C2916.29 1571.32 2915.01 1572.75 2914.32 1574.47C2913.62 1576.19 2913.56 1578.1 2914.12 1579.86C2948.41 1676.82 2997.37 1767.98 3059.3 1850.16Z" fill="white"/>
<path d="M3761.45 1830.43L3592.46 1894.5L3551.19 1780.16C3545.72 1764.97 3545.78 1748.35 3551.41 1733.22C3557.03 1718.08 3567.84 1705.42 3581.9 1697.47C3596.15 1689.42 3612.8 1686.71 3628.86 1689.84C3644.92 1692.97 3659.32 1701.72 3669.47 1714.52L3761.45 1830.43Z" fill="#6C63FF"/>
<path d="M3331.61 2283.47C3328.05 2280.96 3325.08 2277.73 3322.86 2273.98C3320.67 2270.23 3319.27 2266.06 3318.83 2261.73C3297.18 2060.15 3312.24 1902.39 3364.91 1779.44C3374.19 1758.24 3388.16 1739.41 3405.78 1724.36C3423.4 1709.32 3444.21 1698.45 3466.64 1692.59L3603.23 1685.71L3603.95 1686.05C3634.79 1701.11 3659.91 1725.68 3675.65 1756.13C3691.37 1786.57 3696.84 1821.25 3691.28 1855.04C3647.32 1970.59 3610.51 2090.89 3638.6 2187.94C3639.76 2192 3640.1 2196.25 3639.6 2200.44C3639.1 2204.63 3637.72 2208.68 3635.6 2212.34C3633.57 2215.88 3630.82 2218.95 3627.51 2221.38C3624.23 2223.82 3620.48 2225.55 3616.48 2226.48L3356.26 2288.23C3352.07 2289.23 3347.67 2289.33 3343.42 2288.5C3339.17 2287.69 3335.14 2285.97 3331.61 2283.47Z" fill="#00B9DA"/>
<path d="M3557.6 1634.8C3640.89 1634.8 3708.41 1567.44 3708.41 1484.35C3708.41 1401.26 3640.89 1333.9 3557.6 1333.9C3474.3 1333.9 3406.79 1401.26 3406.79 1484.35C3406.79 1567.44 3474.3 1634.8 3557.6 1634.8Z" fill="#FFB8B8"/>
<path d="M3139.1 1603.52L3021.58 1655.27C3017.11 1657.24 3012.04 1657.35 3007.49 1655.59C3002.94 1653.83 2999.27 1650.34 2997.29 1645.88L2994.39 1639.31C2992.42 1634.85 2992.31 1629.8 2994.07 1625.26C2995.83 1620.71 2999.33 1617.05 3003.8 1615.08L3121.33 1563.32C3125.79 1561.36 3130.85 1561.25 3135.42 1563.01C3139.98 1564.77 3143.63 1568.26 3145.63 1572.71L3148.54 1579.28C3150.51 1583.74 3150.6 1588.8 3148.85 1593.34C3147.07 1597.88 3143.57 1601.54 3139.1 1603.52Z" fill="#CCCCCC"/>
<path d="M3182.07 1683.15L3064.55 1734.9C3060.08 1736.87 3055.01 1736.98 3050.45 1735.22C3045.9 1733.46 3042.23 1729.97 3040.25 1725.51L3037.35 1718.94C3035.38 1714.49 3035.27 1709.43 3037.03 1704.88C3038.8 1700.34 3042.3 1696.68 3046.76 1694.71L3164.29 1642.95C3168.76 1640.99 3173.82 1640.88 3178.38 1642.64C3182.94 1644.4 3186.6 1647.89 3188.59 1652.34L3191.5 1658.91C3193.47 1663.37 3193.56 1668.43 3191.81 1672.97C3190.03 1677.51 3186.53 1681.17 3182.07 1683.15Z" fill="#CCCCCC"/>
<path d="M3272.7 1994.18L3010.68 1787.96C3008.59 1788.69 3006.46 1789.31 3004.31 1789.83C2995.06 1791.99 2985.46 1792.18 2976.14 1790.39C2966.81 1788.61 2957.96 1784.89 2950.17 1779.47C2942.33 1774.05 2935.73 1767.01 2930.84 1758.84C2925.94 1750.68 2922.84 1741.56 2921.76 1732.1C2920.01 1716.98 2923.42 1701.71 2931.46 1688.77C2939.49 1675.83 2951.67 1665.97 2966.03 1660.81C2974.98 1657.6 2984.52 1656.32 2994.01 1657.05C3003.5 1657.77 3012.73 1660.49 3021.09 1665.02C3029.46 1669.56 3036.76 1675.8 3042.54 1683.35C3048.31 1690.9 3052.43 1699.57 3054.61 1708.81C3055.28 1711.75 3055.75 1714.72 3056.01 1717.71L3316.85 1867.83L3381.77 1830.55L3453.69 1924.46L3352.9 1996.13C3341.09 2004.45 3326.91 2008.75 3312.47 2008.4C3298.04 2008.05 3284.07 2003.06 3272.7 1994.18Z" fill="#FFB8B8"/>
<path d="M3485.62 1953.71L3336.13 1852.29L3406.39 1753.01C3415.74 1739.83 3429.42 1730.36 3445.07 1726.28C3460.72 1722.2 3477.31 1723.78 3491.94 1730.72C3506.68 1737.74 3518.46 1749.8 3525.08 1764.72C3531.74 1779.64 3532.8 1796.44 3528.11 1812.08L3485.62 1953.71Z" fill="#6C63FF"/>
<path d="M3502.27 1461.95C3463.5 1488.41 3412.6 1515.62 3373.02 1487.43C3347.03 1468.93 3338.84 1434.66 3349.4 1404.59C3368.33 1350.51 3420.42 1326.7 3470.22 1308.45C3534.98 1284.73 3605.47 1265.85 3672.29 1282.84C3739.15 1299.83 3798.23 1364.39 3786.14 1432.14C3776.46 1486.62 3724.94 1531.95 3732.25 1586.8C3739.62 1642.01 3801.83 1671.07 3856.78 1680.93C3911.71 1690.8 3973.19 1693.97 4012.68 1733.34C4063.04 1783.56 4050.49 1873.33 4003.09 1926.35C3955.7 1979.37 3884.15 2003.41 3814.85 2019.75C3723.03 2041.4 3623.71 2052.77 3536.51 2016.85C3449.31 1980.92 3381.42 1884.2 3406.7 1793.51C3417.38 1755.2 3442.5 1722.83 3466.81 1691.31C3491.09 1659.79 3515.71 1626.83 3524.95 1588.16C3532.7 1555.94 3526.98 1518.52 3505.55 1494.35C3501.65 1490.12 3499.21 1484.77 3498.55 1479.06C3497.9 1473.35 3499.05 1467.58 3501.9 1462.58L3502.27 1461.95Z" fill="#2F2E41"/>
<path d="M669.66 2192.93C630.8 2206.55 589.075 2209.97 548.51 2202.84C507.941 2195.71 469.9 2178.28 438.045 2152.23C356.921 2084.3 331.486 1972.39 310.791 1868.77C290.387 1766.6 269.983 1664.44 249.578 1562.28L377.735 1650.31C469.894 1713.61 564.134 1778.95 627.947 1870.65C691.757 1962.35 719.613 2087.52 668.341 2186.75" fill="#E6E6E6"/>
<path d="M658.795 2564C671.764 2469.74 685.102 2374.28 676.004 2279.01C667.924 2194.4 642.049 2111.77 589.374 2044.01C561.412 2008.11 527.392 1977.36 488.835 1953.12C478.781 1946.79 469.527 1962.69 479.538 1968.99C546.25 2011.05 597.847 2073.16 626.897 2146.36C658.977 2227.77 664.128 2316.51 658.602 2402.98C655.259 2455.28 648.173 2507.23 641.031 2559.11C640.468 2561.46 640.818 2563.93 642.015 2566.03C643.208 2568.13 645.155 2569.7 647.464 2570.42C649.819 2571.05 652.328 2570.73 654.45 2569.53C656.571 2568.33 658.133 2566.34 658.795 2564Z" fill="#F2F2F2"/>
<path d="M533.811 2397.21C517.143 2422.48 494.236 2443.04 467.289 2456.91C440.345 2470.79 410.274 2477.5 379.972 2476.42C302.094 2472.73 237.169 2418.51 178.725 2367.03L5.85938 2214.77L120.268 2209.3C202.544 2205.37 286.943 2201.71 365.307 2227.02C443.673 2252.34 515.946 2313.25 530.274 2394.17" fill="#E6E6E6"/>
<path d="M695.446 2618.18C633.014 2507.98 560.6 2385.5 431.205 2346.35C395.226 2335.5 357.504 2331.62 320.063 2334.9C308.262 2335.92 311.208 2354.06 322.987 2353.05C385.747 2347.85 448.383 2364.39 500.355 2399.86C550.365 2433.82 589.306 2481.04 622.264 2531.1C642.449 2561.77 660.533 2593.74 678.619 2625.67C684.399 2635.87 701.295 2628.51 695.446 2618.18Z" fill="#F2F2F2"/>
<path d="M795.479 2734.18C793.376 2709.87 784.625 2686.59 770.179 2666.9C755.735 2647.2 736.146 2631.83 713.555 2622.47V2558.76H606.439V2624.48C584.957 2634.3 566.47 2649.63 552.861 2668.9C539.252 2688.17 531.01 2710.7 528.973 2734.18L503.785 3026.27H820.667L795.479 2734.18Z" fill="#F2F2F2"/>
</svg>
