<svg width="24" height="24" viewBox="0 0 24 24" fill="none" xmlns="http://www.w3.org/2000/svg">
<path d="M23.5617 3.68635L21.4725 0.0665454C21.4477 0.0252392 21.4037 0 21.358 0C21.3094 0 21.2658 0.0252392 21.2427 0.0665454L19.1535 3.68635C19.1394 3.7074 19.1353 3.73011 19.1353 3.75289V7.42625H17.1928V3.7532C17.1928 3.73048 17.186 3.7074 17.1739 3.68665L15.0844 0.0668532C15.0599 0.0256086 15.016 0.000307796 14.9699 0.000307796C14.9214 0.000307796 14.8777 0.025547 14.8547 0.0668532L12.7636 3.68665C12.7541 3.70771 12.7473 3.73042 12.7473 3.7532V7.42625H10.9434V3.7532C10.9434 3.73048 10.9361 3.7074 10.9244 3.68665L8.83296 0.0668532C8.81025 0.0256086 8.76642 0.000307796 8.71779 0.000307796C8.67192 0.000307796 8.62809 0.025547 8.60526 0.0668532L6.51354 3.68665C6.50227 3.70771 6.49538 3.73042 6.49538 3.7532V7.42625H4.86554V3.7532C4.86554 3.73048 4.86135 3.7074 4.84732 3.68665L2.758 0.0668532C2.73239 0.0256086 2.69145 0.000307796 2.64282 0.000307796C2.59481 0.000307796 2.55301 0.025547 2.52832 0.0668532L0.439005 3.68665C0.424785 3.70771 0.419922 3.73048 0.419922 3.7532V7.42625V9.17736V16.9301V18.6814V23.8689C0.419922 23.9403 0.480127 24 0.551535 24H4.73448C4.80589 24 4.86523 23.9403 4.86523 23.8689V18.6814H6.49513V23.8689C6.49513 23.9403 6.55509 24 6.62853 24H10.8094C10.8829 24 10.943 23.9403 10.943 23.8689V18.6814H12.747V23.8689C12.747 23.9403 12.8043 24 12.8777 24H17.0606C17.1322 24 17.1921 23.9403 17.1921 23.8689V18.6814H19.1348V23.8689C19.1348 23.9403 19.194 24 19.2655 24H23.4485C23.5198 24 23.5798 23.9403 23.5798 23.8689V18.6814V16.9301V9.17736V7.42625V3.7532C23.5805 3.73011 23.5731 3.7074 23.5617 3.68635ZM2.52204 18.1758C2.26479 18.1758 2.05567 17.9667 2.05567 17.7089C2.05567 17.4492 2.26436 17.2401 2.52204 17.2401C2.78016 17.2401 2.98909 17.4492 2.98909 17.7089C2.98878 17.9666 2.78016 18.1758 2.52204 18.1758ZM2.52204 8.4903C2.26479 8.4903 2.05567 8.28112 2.05567 8.02362C2.05567 7.76372 2.26436 7.55472 2.52204 7.55472C2.78016 7.55472 2.98909 7.76378 2.98909 8.02362C2.98878 8.28112 2.78016 8.4903 2.52204 8.4903ZM6.49606 16.9301H4.86628V9.17736H6.49606V16.9301ZM8.8385 18.1758C8.58057 18.1758 8.37145 17.9667 8.37145 17.7089C8.37145 17.4492 8.58014 17.2401 8.8385 17.2401C9.09594 17.2401 9.30728 17.4492 9.30728 17.7089C9.30728 17.9666 9.09594 18.1758 8.8385 18.1758ZM8.8385 8.4903C8.58057 8.4903 8.37145 8.28112 8.37145 8.02362C8.37145 7.76372 8.58014 7.55472 8.8385 7.55472C9.09594 7.55472 9.30728 7.76378 9.30728 8.02362C9.30728 8.28112 9.09594 8.4903 8.8385 8.4903ZM12.7481 16.9301H10.9441V9.17736H12.7481V16.9301ZM15.0944 18.1758C14.8345 18.1758 14.6256 17.9667 14.6256 17.7089C14.6256 17.4492 14.8346 17.2401 15.0944 17.2401C15.3519 17.2401 15.5617 17.4492 15.5617 17.7089C15.5614 17.9666 15.3519 18.1758 15.0944 18.1758ZM15.0944 8.4903C14.8345 8.4903 14.6256 8.28112 14.6256 8.02362C14.6256 7.76372 14.8346 7.55472 15.0944 7.55472C15.3519 7.55472 15.5617 7.76378 15.5617 8.02362C15.5614 8.28112 15.3519 8.4903 15.0944 8.4903ZM19.1354 16.9301H17.1932V9.17736H19.1354V16.9301ZM21.4106 18.1758C21.1511 18.1758 20.9416 17.9667 20.9416 17.7089C20.9416 17.4492 21.1511 17.2401 21.4106 17.2401C21.6679 17.2401 21.8774 17.4492 21.8774 17.7089C21.8774 17.9666 21.6678 18.1758 21.4106 18.1758ZM21.4106 8.4903C21.1511 8.4903 20.9416 8.28112 20.9416 8.02362C20.9416 7.76372 21.1511 7.55472 21.4106 7.55472C21.6679 7.55472 21.8774 7.76378 21.8774 8.02362C21.8774 8.28112 21.6678 8.4903 21.4106 8.4903Z" fill="#00B9DA"/>
</svg>
