<svg width="28" height="28" viewBox="0 0 28 28" fill="none" xmlns="http://www.w3.org/2000/svg">
<path d="M27.1294 10.3694C26.1099 9.51224 24.5499 9.61434 23.6648 10.6698L23.1328 11.2992L26.9032 14.4628L27.4112 13.8357C28.2848 12.7967 28.1743 11.2449 27.1294 10.3694Z" fill="#00B9DA"/>
<path d="M16.4809 19.1699L16.2003 19.502C15.9568 19.7936 15.7813 20.142 15.6932 20.5114L14.9306 23.7029C14.8585 24.0049 14.9635 24.3221 15.2014 24.5216C15.4329 24.7162 15.7595 24.7727 16.0545 24.6466L19.0658 23.3408C19.4143 23.1894 19.7267 22.9563 19.9702 22.6671L20.2518 22.3339L16.4809 19.1699Z" fill="#00B9DA"/>
<path d="M22.0759 12.5518L17.541 17.9174L21.3117 21.0814L25.8463 15.7154L22.0759 12.5518Z" fill="#00B9DA"/>
<path d="M20.5634 3.63697L17.4472 0.676137C17.1526 0.396848 16.7902 0.232348 16.4082 0.125488V4.92191H21.2782C21.1765 4.43464 20.9282 3.98325 20.5634 3.63697Z" fill="#00B9DA"/>
<path d="M14.0998 20.13C14.2464 19.5163 14.5388 18.9355 14.9441 18.4501L21.332 10.8915V6.5625H15.5898C15.1364 6.5625 14.7695 6.1956 14.7695 5.74219V0H2.46484C1.10783 0 0.00390625 1.10392 0.00390625 2.46094V25.5391C0.00390625 26.8961 1.10783 28 2.46484 28H18.8711C20.2281 28 21.332 26.8961 21.332 25.5391V23.5999L21.2255 23.726C20.8226 24.2058 20.3026 24.5928 19.7235 24.8451L16.7098 26.1517C15.8604 26.5185 14.8772 26.3886 14.1495 25.7792C13.4309 25.176 13.1193 24.2347 13.3372 23.3215L14.0998 20.13ZM4.10547 4.92188H12.3086C12.762 4.92188 13.1289 5.28877 13.1289 5.74219C13.1289 6.1956 12.762 6.5625 12.3086 6.5625H4.10547C3.65205 6.5625 3.28516 6.1956 3.28516 5.74219C3.28516 5.28877 3.65205 4.92188 4.10547 4.92188ZM4.10547 9.89844H17.2305C17.6839 9.89844 18.0508 10.2653 18.0508 10.7188C18.0508 11.1722 17.6839 11.5391 17.2305 11.5391H4.10547C3.65205 11.5391 3.28516 11.1722 3.28516 10.7188C3.28516 10.2653 3.65205 9.89844 4.10547 9.89844ZM10.668 21.3828H4.10547C3.65205 21.3828 3.28516 21.0159 3.28516 20.5625C3.28516 20.1091 3.65205 19.7422 4.10547 19.7422H10.668C11.1214 19.7422 11.4883 20.1091 11.4883 20.5625C11.4883 21.0159 11.1214 21.3828 10.668 21.3828ZM4.10547 16.4609C3.65205 16.4609 3.28516 16.094 3.28516 15.6406C3.28516 15.1872 3.65205 14.8203 4.10547 14.8203H13.9492C14.4026 14.8203 14.7695 15.1872 14.7695 15.6406C14.7695 16.094 14.4026 16.4609 13.9492 16.4609H4.10547Z" fill="#00B9DA"/>
</svg>
