<svg width="525" height="405" viewBox="0 0 525 405" fill="none" xmlns="http://www.w3.org/2000/svg">
<g clip-path="url(#clip0_4871_75)">
<path d="M380.509 263.619L312.534 228.593C311.509 228.063 310.736 227.149 310.385 226.051C310.033 224.952 310.132 223.76 310.66 222.734L314.865 214.583C315.395 213.559 316.309 212.786 317.408 212.435C318.507 212.084 319.701 212.183 320.727 212.71L388.702 247.736C389.727 248.266 390.5 249.18 390.851 250.279C391.202 251.377 391.103 252.57 390.576 253.595L386.371 261.746C386.11 262.255 385.751 262.706 385.314 263.075C384.878 263.444 384.372 263.722 383.827 263.894C383.396 264.032 382.947 264.103 382.494 264.103C381.803 264.103 381.122 263.937 380.509 263.619V263.619Z" fill="#2D3B5A"/>
<path d="M359.786 230.854C360.322 230.645 360.895 230.545 361.471 230.56C362.047 230.575 362.614 230.704 363.139 230.941L385.415 243.251C387.853 244.597 389.68 246.827 390.52 249.481C391.359 252.136 391.146 255.01 389.925 257.512L389.646 257.376L389.925 257.512C388.758 259.903 386.755 261.782 384.294 262.795C381.833 263.808 379.086 263.883 376.573 263.006L352.414 254.567C351.891 254.336 351.419 254.005 351.024 253.591C350.629 253.178 350.32 252.691 350.113 252.158C349.907 251.625 349.808 251.056 349.822 250.485C349.835 249.913 349.961 249.35 350.193 248.828L357.376 233.151C357.501 232.867 357.656 232.597 357.838 232.347C358.329 231.671 359.006 231.153 359.786 230.854V230.854Z" fill="white"/>
<path d="M411.04 227.093C429.416 227.093 444.313 212.205 444.313 193.839C444.313 175.474 429.416 160.585 411.04 160.585C392.664 160.585 377.768 175.474 377.768 193.839C377.768 212.205 392.664 227.093 411.04 227.093Z" fill="#2D3B5A"/>
<path d="M406.957 400.65V324.217C406.958 323.063 407.417 321.958 408.233 321.143C409.049 320.327 410.155 319.868 411.309 319.867H420.485C421.639 319.868 422.745 320.327 423.561 321.143C424.376 321.958 424.835 323.063 424.837 324.217V400.65C424.835 401.803 424.376 402.909 423.561 403.724C422.745 404.54 421.639 404.998 420.485 405H411.309C410.155 404.998 409.049 404.54 408.233 403.724C407.417 402.909 406.958 401.803 406.957 400.65V400.65Z" fill="#2D3B5A"/>
<path d="M387.062 400.65V324.217C387.064 323.063 387.523 321.958 388.339 321.143C389.154 320.327 390.261 319.868 391.414 319.867H400.59C401.744 319.868 402.85 320.327 403.666 321.143C404.482 321.958 404.941 323.063 404.942 324.217V400.65C404.941 401.803 404.482 402.909 403.666 403.724C402.85 404.54 401.744 404.998 400.59 405H391.414C390.261 404.998 389.154 404.54 388.339 403.724C387.523 402.909 387.064 401.803 387.062 400.65V400.65Z" fill="#2D3B5A"/>
<mask id="path-6-inside-1_4871_75" fill="white">
<path d="M411.739 206.164L411.774 204.921C409.461 204.857 407.421 204.712 405.889 203.593C405.455 203.258 405.097 202.833 404.842 202.348C404.587 201.862 404.439 201.327 404.409 200.78C404.382 200.445 404.432 200.108 404.557 199.797C404.681 199.485 404.875 199.206 405.125 198.981C406.142 198.122 407.779 198.4 408.972 198.947L410.001 199.418L408.028 185.009L406.796 185.178L408.474 197.435C406.853 196.959 405.351 197.164 404.323 198.032C403.928 198.377 403.618 198.808 403.417 199.292C403.216 199.776 403.13 200.3 403.166 200.823C403.202 201.559 403.399 202.278 403.743 202.93C404.087 203.582 404.569 204.151 405.156 204.597C407.124 206.035 409.683 206.106 411.739 206.164Z"/>
</mask>
<path d="M411.739 206.164L411.774 204.921C409.461 204.857 407.421 204.712 405.889 203.593C405.455 203.258 405.097 202.833 404.842 202.348C404.587 201.862 404.439 201.327 404.409 200.78C404.382 200.445 404.432 200.108 404.557 199.797C404.681 199.485 404.875 199.206 405.125 198.981C406.142 198.122 407.779 198.4 408.972 198.947L410.001 199.418L408.028 185.009L406.796 185.178L408.474 197.435C406.853 196.959 405.351 197.164 404.323 198.032C403.928 198.377 403.618 198.808 403.417 199.292C403.216 199.776 403.13 200.3 403.166 200.823C403.202 201.559 403.399 202.278 403.743 202.93C404.087 203.582 404.569 204.151 405.156 204.597C407.124 206.035 409.683 206.106 411.739 206.164Z" fill="white"/>
<path d="M411.739 206.164L411.599 211.162L416.598 211.302L416.737 206.303L411.739 206.164ZM411.774 204.921L416.772 205.061L416.911 200.062L411.913 199.923L411.774 204.921ZM405.889 203.593L402.834 207.552L402.887 207.592L402.94 207.631L405.889 203.593ZM404.409 200.78L409.401 200.505L409.397 200.441L409.392 200.379L404.409 200.78ZM405.125 198.981L401.9 195.16L401.841 195.21L401.783 195.263L405.125 198.981ZM408.972 198.947L411.055 194.402L411.055 194.402L408.972 198.947ZM410.001 199.418L407.918 203.964L416.189 207.754L414.955 198.74L410.001 199.418ZM408.028 185.009L412.982 184.331L412.304 179.377L407.35 180.056L408.028 185.009ZM406.796 185.178L406.118 180.224L401.164 180.903L401.843 185.856L406.796 185.178ZM408.474 197.435L407.065 202.232L414.476 204.41L413.428 196.757L408.474 197.435ZM404.323 198.032L401.098 194.211L401.066 194.238L401.035 194.265L404.323 198.032ZM403.166 200.823L408.16 200.577L408.158 200.53L408.155 200.484L403.166 200.823ZM405.156 204.597L402.13 208.578L402.168 208.606L402.207 208.634L405.156 204.597ZM416.737 206.303L416.772 205.061L406.776 204.782L406.741 206.025L416.737 206.303ZM411.913 199.923C410.762 199.891 410.021 199.843 409.453 199.737C408.929 199.64 408.813 199.537 408.838 199.555L402.94 207.631C405.916 209.804 409.558 209.862 411.635 209.919L411.913 199.923ZM408.944 199.635C409.078 199.738 409.188 199.869 409.267 200.019L400.417 204.676C401.007 205.797 401.832 206.778 402.834 207.552L408.944 199.635ZM409.267 200.019C409.346 200.169 409.392 200.335 409.401 200.505L399.416 201.054C399.486 202.32 399.827 203.555 400.417 204.676L409.267 200.019ZM409.392 200.379C409.427 200.811 409.362 201.245 409.201 201.648L399.912 197.946C399.503 198.972 399.336 200.079 399.425 201.18L409.392 200.379ZM409.201 201.648C409.041 202.05 408.79 202.41 408.468 202.699L401.783 195.263C400.961 196.001 400.321 196.919 399.912 197.946L409.201 201.648ZM408.35 202.802C407.589 203.445 406.857 203.436 406.761 203.432C406.659 203.428 406.732 203.42 406.889 203.492L411.055 194.402C410.02 193.927 408.678 193.507 407.205 193.442C405.737 193.377 403.679 193.659 401.9 195.16L408.35 202.802ZM406.889 203.492L407.918 203.964L412.084 194.873L411.055 194.402L406.889 203.492ZM414.955 198.74L412.982 184.331L403.074 185.688L405.047 200.097L414.955 198.74ZM407.35 180.056L406.118 180.224L407.475 190.132L408.707 189.963L407.35 180.056ZM401.843 185.856L403.521 198.113L413.428 196.757L411.75 184.5L401.843 185.856ZM409.884 192.638C407.166 191.839 403.771 191.955 401.098 194.211L407.548 201.853C407.27 202.087 407.002 202.162 406.879 202.18C406.774 202.195 406.83 202.163 407.065 202.232L409.884 192.638ZM401.035 194.265C400.06 195.116 399.294 196.182 398.798 197.378L408.036 201.206C407.942 201.434 407.796 201.637 407.61 201.8L401.035 194.265ZM398.798 197.378C398.302 198.575 398.09 199.87 398.178 201.162L408.155 200.484C408.171 200.731 408.131 200.978 408.036 201.206L398.798 197.378ZM398.172 201.07C398.244 202.534 398.636 203.965 399.32 205.262L408.166 200.598C408.162 200.591 408.16 200.584 408.16 200.577L398.172 201.07ZM399.32 205.262C400.004 206.559 400.963 207.691 402.13 208.578L408.181 200.616C408.175 200.611 408.169 200.605 408.166 200.598L399.32 205.262ZM402.207 208.634C405.638 211.141 409.847 211.113 411.599 211.162L411.879 201.166C410.8 201.136 410.014 201.105 409.297 200.977C408.617 200.855 408.279 200.687 408.105 200.559L402.207 208.634Z" fill="white" mask="url(#path-6-inside-1_4871_75)"/>
<mask id="path-8-inside-2_4871_75" fill="white">
<path d="M400.702 186.235H394.006V187.478H400.702V186.235Z"/>
</mask>
<path d="M400.702 186.235H394.006V187.478H400.702V186.235Z" fill="white"/>
<path d="M394.006 186.235V181.235H389.006V186.235H394.006ZM400.702 186.235H405.702V181.235H400.702V186.235ZM400.702 187.478V192.478H405.702V187.478H400.702ZM394.006 187.478H389.006V192.478H394.006V187.478ZM394.006 191.235H400.702V181.235H394.006V191.235ZM395.702 186.235V187.478H405.702V186.235H395.702ZM400.702 182.478H394.006V192.478H400.702V182.478ZM399.006 187.478V186.235H389.006V187.478H399.006Z" fill="white" mask="url(#path-8-inside-2_4871_75)"/>
<mask id="path-10-inside-3_4871_75" fill="white">
<path d="M421.841 186.235H415.145V187.478H421.841V186.235Z"/>
</mask>
<path d="M421.841 186.235H415.145V187.478H421.841V186.235Z" fill="white"/>
<path d="M415.145 186.235V181.235H410.145V186.235H415.145ZM421.841 186.235H426.841V181.235H421.841V186.235ZM421.841 187.478V192.478H426.841V187.478H421.841ZM415.145 187.478H410.145V192.478H415.145V187.478ZM415.145 191.235H421.841V181.235H415.145V191.235ZM416.841 186.235V187.478H426.841V186.235H416.841ZM421.841 182.478H415.145V192.478H421.841V182.478ZM420.145 187.478V186.235H410.145V187.478H420.145Z" fill="white" mask="url(#path-10-inside-3_4871_75)"/>
<path d="M442.879 336.865L431.371 261.301C431.199 260.161 431.486 258.999 432.17 258.07C432.854 257.141 433.878 256.522 435.019 256.347L444.09 254.967C445.231 254.795 446.394 255.082 447.323 255.765C448.252 256.449 448.872 257.473 449.047 258.612L460.555 334.176C460.727 335.316 460.44 336.478 459.756 337.407C459.073 338.335 458.048 338.955 456.908 339.13L447.836 340.51C447.271 340.596 446.695 340.571 446.14 340.434C445.585 340.298 445.062 340.053 444.601 339.715C444.141 339.376 443.752 338.95 443.456 338.461C443.161 337.972 442.965 337.429 442.879 336.865V336.865Z" fill="#2D3B5A"/>
<path d="M433.985 288.364C433.501 288.053 433.083 287.648 432.757 287.174C432.431 286.699 432.202 286.164 432.086 285.6L428.965 260.352C428.623 257.59 429.355 254.802 431.011 252.564C432.667 250.326 435.12 248.809 437.863 248.327L437.917 248.632L437.863 248.327C440.484 247.866 443.183 248.382 445.449 249.777C447.714 251.172 449.389 253.35 450.155 255.897L457.516 280.393C457.637 280.952 457.646 281.529 457.543 282.091C457.44 282.653 457.227 283.19 456.917 283.67C456.607 284.15 456.205 284.564 455.734 284.889C455.263 285.213 454.733 285.442 454.174 285.562L437.261 288.963C436.958 289.029 436.648 289.062 436.338 289.062C435.503 289.061 434.686 288.819 433.985 288.364V288.364Z" fill="white"/>
<path d="M434.879 342.981H345.962C345.06 342.981 344.174 342.751 343.386 342.311C342.599 341.872 341.937 341.239 341.464 340.471C340.991 339.704 340.722 338.829 340.683 337.928C340.644 337.028 340.836 336.132 341.241 335.327L384.231 249.885C387.218 243.949 392.122 239.192 398.149 236.386C404.175 233.58 410.973 232.888 417.443 234.423C423.912 235.957 429.674 239.627 433.797 244.84C437.921 250.053 440.164 256.504 440.164 263.149V337.7C440.162 339.1 439.605 340.443 438.614 341.433C437.624 342.423 436.28 342.98 434.879 342.981V342.981Z" fill="white"/>
<path d="M432.893 219.113C432.662 219.185 432.469 219.344 432.353 219.557C432.237 219.769 432.208 220.018 432.273 220.251C432.337 220.484 432.489 220.683 432.698 220.806C432.903 220.927 433.146 220.965 433.378 220.913L433.145 220.048L433.136 220.013L433.126 219.979L432.893 219.113ZM432.893 219.113L432.934 219.244L432.893 219.113ZM433.451 220.893L433.175 220.011L433.173 220.004L433.173 220.003L433.172 220.002L432.956 219.096C433.261 219.013 433.564 218.924 433.865 218.829C433.948 218.803 434.031 218.777 434.113 218.75L433.451 220.893Z" fill="white" stroke="white" stroke-width="5"/>
<mask id="path-16-inside-4_4871_75" fill="white">
<path d="M430.933 153.23C428.258 143.222 435.239 132.806 444.725 129.68C450.168 127.986 456.007 128.051 461.411 129.866C466.679 131.648 471.41 134.735 475.162 138.839C483.477 147.68 487.16 159.612 488.884 171.376C490.663 183.523 489.659 196.826 495.878 207.864C498.456 212.441 502.283 216.448 507.228 218.418C511.841 220.257 517.368 220.265 521.788 217.876C522.852 217.294 523.835 216.576 524.713 215.74C525.588 214.915 524.267 213.599 523.394 214.422C519.693 217.913 514.177 218.571 509.421 217.201C504.232 215.707 500.239 211.722 497.607 207.133C494.564 201.827 493.297 195.761 492.606 189.743C491.852 183.173 491.561 176.567 490.553 170.024C488.736 158.223 484.81 146.377 476.481 137.521C472.671 133.385 467.921 130.226 462.632 128.312C457.187 126.364 451.288 126.066 445.674 127.456C440.572 128.777 436.074 131.8 432.925 136.025C429.865 140.034 428.309 144.989 428.528 150.027C428.608 151.277 428.811 152.516 429.134 153.726C429.207 153.956 429.366 154.15 429.578 154.266C429.791 154.382 430.04 154.41 430.273 154.346C430.506 154.282 430.706 154.129 430.829 153.921C430.952 153.713 430.989 153.465 430.933 153.23L430.933 153.23Z"/>
</mask>
<path d="M430.933 153.23C428.258 143.222 435.239 132.806 444.725 129.68C450.168 127.986 456.007 128.051 461.411 129.866C466.679 131.648 471.41 134.735 475.162 138.839C483.477 147.68 487.16 159.612 488.884 171.376C490.663 183.523 489.659 196.826 495.878 207.864C498.456 212.441 502.283 216.448 507.228 218.418C511.841 220.257 517.368 220.265 521.788 217.876C522.852 217.294 523.835 216.576 524.713 215.74C525.588 214.915 524.267 213.599 523.394 214.422C519.693 217.913 514.177 218.571 509.421 217.201C504.232 215.707 500.239 211.722 497.607 207.133C494.564 201.827 493.297 195.761 492.606 189.743C491.852 183.173 491.561 176.567 490.553 170.024C488.736 158.223 484.81 146.377 476.481 137.521C472.671 133.385 467.921 130.226 462.632 128.312C457.187 126.364 451.288 126.066 445.674 127.456C440.572 128.777 436.074 131.8 432.925 136.025C429.865 140.034 428.309 144.989 428.528 150.027C428.608 151.277 428.811 152.516 429.134 153.726C429.207 153.956 429.366 154.15 429.578 154.266C429.791 154.382 430.04 154.41 430.273 154.346C430.506 154.282 430.706 154.129 430.829 153.921C430.952 153.713 430.989 153.465 430.933 153.23L430.933 153.23Z" fill="white"/>
<path d="M430.933 153.23L427.398 156.767L440.573 169.934L435.763 151.939L430.933 153.23ZM444.725 129.68L443.239 124.906L443.199 124.918L443.16 124.931L444.725 129.68ZM461.411 129.866L463.013 125.13L463.003 125.126L461.411 129.866ZM475.162 138.839L471.471 142.212L471.495 142.239L471.52 142.264L475.162 138.839ZM488.884 171.376L483.936 172.101L483.936 172.101L488.884 171.376ZM495.878 207.864L491.522 210.319L491.522 210.319L495.878 207.864ZM507.228 218.418L505.377 223.063L505.377 223.063L507.228 218.418ZM521.788 217.876L524.166 222.274L524.176 222.269L524.187 222.263L521.788 217.876ZM524.713 215.74L521.283 212.103L521.274 212.111L521.266 212.119L524.713 215.74ZM523.394 214.422L526.825 218.06L526.825 218.06L523.394 214.422ZM509.421 217.201L508.037 222.006L508.037 222.006L509.421 217.201ZM497.607 207.133L501.945 204.646L501.945 204.646L497.607 207.133ZM492.606 189.743L497.573 189.172L497.573 189.172L492.606 189.743ZM490.553 170.024L485.612 170.785L490.553 170.024ZM476.481 137.521L472.803 140.908L472.821 140.927L472.839 140.946L476.481 137.521ZM462.632 128.312L464.334 123.611L464.326 123.607L464.317 123.604L462.632 128.312ZM445.674 127.456L444.472 122.603L444.446 122.609L444.421 122.616L445.674 127.456ZM432.925 136.025L436.9 139.058L436.917 139.035L436.934 139.013L432.925 136.025ZM428.528 150.027L423.533 150.244L423.535 150.295L423.538 150.346L428.528 150.027ZM429.134 153.726L424.304 155.017L424.332 155.12L424.363 155.221L429.134 153.726ZM430.933 153.23L434.467 149.694L421.961 137.195L426.07 154.392L430.933 153.23ZM435.763 151.939C433.895 144.95 438.845 136.882 446.289 134.429L443.16 124.931C431.633 128.729 422.621 141.494 426.103 154.521L435.763 151.939ZM446.21 134.454C450.65 133.073 455.412 133.126 459.819 134.606L463.003 125.126C456.602 122.977 449.686 122.9 443.239 124.906L446.21 134.454ZM459.809 134.603C464.278 136.114 468.29 138.732 471.471 142.212L478.852 135.465C474.531 130.738 469.081 127.182 463.013 125.13L459.809 134.603ZM471.52 142.264C478.81 150.016 482.274 160.752 483.936 172.101L493.831 170.651C492.046 158.472 488.143 145.343 478.804 135.413L471.52 142.264ZM483.936 172.101C484.355 174.961 484.616 177.926 484.869 181.053C485.118 184.132 485.363 187.4 485.752 190.633C486.531 197.111 487.938 203.958 491.522 210.319L500.234 205.41C497.599 200.733 496.398 195.409 495.68 189.439C495.32 186.448 495.093 183.422 494.836 180.246C494.583 177.118 494.302 173.864 493.831 170.651L483.936 172.101ZM491.522 210.319C494.49 215.587 499.088 220.557 505.377 223.063L509.079 213.774C505.479 212.339 502.423 209.295 500.234 205.41L491.522 210.319ZM505.377 223.063C511.143 225.361 518.245 225.475 524.166 222.274L519.41 213.478C516.492 215.055 512.539 215.152 509.079 213.774L505.377 223.063ZM524.187 222.263C525.632 221.473 526.967 220.498 528.16 219.362L521.266 212.119C520.703 212.655 520.071 213.116 519.388 213.489L524.187 222.263ZM528.144 219.378C529.394 218.198 530.102 216.532 529.989 214.753C529.885 213.124 529.126 211.807 528.241 210.924C527.353 210.038 526.074 209.32 524.531 209.184C522.862 209.037 521.211 209.609 519.964 210.785L526.825 218.06C526.014 218.825 524.856 219.252 523.653 219.146C522.575 219.051 521.735 218.559 521.177 218.002C520.622 217.449 520.084 216.564 520.009 215.388C519.925 214.063 520.469 212.87 521.283 212.103L528.144 219.378ZM519.964 210.785C517.882 212.748 514.355 213.419 510.804 212.396L508.037 222.006C514 223.723 521.505 223.077 526.825 218.06L519.964 210.785ZM510.804 212.396C507.257 211.375 504.167 208.521 501.945 204.646L493.27 209.621C496.311 214.924 501.208 220.04 508.037 222.006L510.804 212.396ZM501.945 204.646C499.404 200.216 498.237 194.948 497.573 189.172L487.639 190.313C488.358 196.573 489.724 203.437 493.27 209.621L501.945 204.646ZM497.573 189.172C496.885 183.18 496.505 175.821 495.495 169.263L485.612 170.785C486.617 177.314 486.818 183.165 487.639 190.313L497.573 189.172ZM495.495 169.263C493.605 156.985 489.435 143.996 480.123 134.095L472.839 140.946C480.185 148.757 483.868 159.461 485.612 170.785L495.495 169.263ZM480.158 134.133C475.805 129.407 470.377 125.798 464.334 123.611L460.931 133.014C465.465 134.655 469.537 137.363 472.803 140.908L480.158 134.133ZM464.317 123.604C457.945 121.324 451.041 120.976 444.472 122.603L446.876 132.31C451.534 131.156 456.43 131.403 460.948 133.02L464.317 123.604ZM444.421 122.616C438.216 124.222 432.746 127.898 428.916 133.037L436.934 139.013C439.402 135.702 442.927 133.332 446.927 132.297L444.421 122.616ZM428.95 132.991C425.18 137.931 423.263 144.036 423.533 150.244L433.523 149.81C433.355 145.942 434.55 142.137 436.9 139.058L428.95 132.991ZM423.538 150.346C423.639 151.924 423.896 153.489 424.304 155.017L433.965 152.434C433.726 151.543 433.577 150.63 433.518 149.708L423.538 150.346ZM424.363 155.221C424.824 156.689 425.836 157.921 427.186 158.656L431.97 149.875C432.896 150.379 433.59 151.223 433.905 152.23L424.363 155.221ZM427.186 158.656C428.537 159.392 430.119 159.575 431.601 159.166L428.945 149.526C429.96 149.246 431.045 149.371 431.97 149.875L427.186 158.656ZM431.601 159.166C433.083 158.758 434.35 157.79 435.133 156.466L426.525 151.377C427.061 150.469 427.929 149.805 428.945 149.526L431.601 159.166ZM435.133 156.466C435.916 155.142 436.154 153.565 435.796 152.068L426.07 154.392C425.825 153.366 425.988 152.285 426.525 151.377L435.133 156.466ZM427.398 156.767L427.398 156.767L434.467 149.694L434.467 149.694L427.398 156.767Z" fill="white" mask="url(#path-16-inside-4_4871_75)"/>
<path d="M64.8182 237.974H10.5689C7.76681 237.971 5.08041 236.857 3.09904 234.877C1.11767 232.897 0.00315442 230.212 0 227.412V10.5628C0.00315442 7.76237 1.11767 5.0775 3.09904 3.09727C5.08041 1.11704 7.76681 0.00315261 10.5689 0H157.713L184.645 24.0324V67.7264H183.401V24.5889L157.239 1.24269H10.5689C8.09647 1.24548 5.72612 2.22832 3.97786 3.97558C2.22959 5.72284 1.2462 8.09184 1.2434 10.5628V227.412C1.2462 229.883 2.22959 232.252 3.97786 233.999C5.72612 235.746 8.09647 236.729 10.5689 236.732H64.8182V237.974Z" fill="#2D3B5A"/>
<path d="M184.023 24.8537H167.237C164.435 24.8506 161.748 23.7367 159.767 21.7565C157.786 19.7762 156.671 17.0914 156.668 14.2909V0.621343C156.668 0.456553 156.733 0.298511 156.85 0.181987C156.967 0.0654623 157.125 0 157.29 0C157.455 0 157.613 0.0654623 157.729 0.181987C157.846 0.298511 157.911 0.456553 157.911 0.621343V14.2909C157.914 16.7619 158.898 19.1309 160.646 20.8781C162.394 22.6254 164.764 23.6083 167.237 23.611H184.023C184.188 23.611 184.346 23.6765 184.462 23.793C184.579 23.9096 184.644 24.0676 184.644 24.2324C184.644 24.3972 184.579 24.5552 184.462 24.6717C184.346 24.7883 184.188 24.8537 184.023 24.8537Z" fill="#2D3B5A"/>
<path d="M163.221 56.2314H21.4736C20.1545 56.2314 18.8895 56.7551 17.9567 57.6873C17.024 58.6195 16.5 59.8839 16.5 61.2022C16.5 62.5205 17.024 63.7848 17.9567 64.717C18.8895 65.6492 20.1545 66.1729 21.4736 66.1729H163.221C164.54 66.1729 165.805 65.6492 166.738 64.717C167.671 63.7848 168.195 62.5205 168.195 61.2022C168.195 59.8839 167.671 58.6195 166.738 57.6873C165.805 56.7551 164.54 56.2314 163.221 56.2314Z" fill="white"/>
<path d="M91.7256 35.106H21.4736C20.1545 35.106 18.8895 35.6297 17.9567 36.5619C17.024 37.494 16.5 38.7584 16.5 40.0767C16.5 41.395 17.024 42.6593 17.9567 43.5915C18.8895 44.5237 20.1545 45.0474 21.4736 45.0474H91.7256C93.0447 45.0474 94.3098 44.5237 95.2425 43.5915C96.1752 42.6593 96.6992 41.395 96.6992 40.0767C96.6992 38.7584 96.1752 37.494 95.2425 36.5619C94.3098 35.6297 93.0447 35.106 91.7256 35.106Z" fill="white"/>
<path d="M21.4736 97.8613C20.1545 97.8613 18.8895 98.385 17.9567 99.3172C17.024 100.249 16.5 101.514 16.5 102.832C16.5 104.15 17.024 105.415 17.9567 106.347C18.8895 107.279 20.1545 107.803 21.4736 107.803H65.9002V97.8613H21.4736Z" fill="white"/>
<path d="M21.4736 76.7358C20.8205 76.7358 20.1737 76.8644 19.5703 77.1142C18.9669 77.364 18.4186 77.7302 17.9567 78.1917C17.4949 78.6533 17.1285 79.2013 16.8786 79.8044C16.6286 80.4074 16.5 81.0538 16.5 81.7066C16.5 82.3594 16.6286 83.0057 16.8786 83.6088C17.1285 84.2119 17.4949 84.7599 17.9567 85.2214C18.4186 85.683 18.9669 86.0492 19.5703 86.299C20.1737 86.5488 20.8205 86.6773 21.4736 86.6773H65.9002V76.7358H21.4736Z" fill="white"/>
<path d="M66.2103 203.179H26.3967C23.6771 203.176 21.0697 202.095 19.1466 200.173C17.2235 198.251 16.1417 195.645 16.1387 192.927V140.734C16.1417 138.016 17.2235 135.41 19.1466 133.488C21.0697 131.566 23.6771 130.485 26.3967 130.482H66.2103V203.179Z" fill="#2D3B5A"/>
<path d="M130.408 304.769H76.1587C73.3567 304.766 70.6702 303.652 68.6889 301.672C66.7075 299.691 65.593 297.007 65.5898 294.206V77.3573C65.593 74.5568 66.7075 71.8719 68.6889 69.8917C70.6702 67.9115 73.3567 66.7976 76.1587 66.7944H223.303L250.235 90.8269V132.035H248.991V91.3833L222.829 68.0371H76.1587C73.6863 68.0399 71.316 69.0228 69.5677 70.77C67.8194 72.5173 66.836 74.8863 66.8332 77.3573V294.206C66.836 296.677 67.8194 299.046 69.5677 300.793C71.316 302.541 73.6863 303.523 76.1587 303.526H130.408V304.769Z" fill="#2D3B5A"/>
<path d="M249.613 91.6482H232.827C230.025 91.645 227.338 90.5311 225.357 88.5509C223.375 86.5707 222.261 83.8858 222.258 81.0853V67.4158C222.258 67.251 222.323 67.0929 222.44 66.9764C222.557 66.8599 222.715 66.7944 222.88 66.7944C223.044 66.7944 223.203 66.8599 223.319 66.9764C223.436 67.0929 223.501 67.251 223.501 67.4158V81.0853C223.504 83.5563 224.487 85.9253 226.236 87.6726C227.984 89.4198 230.354 90.4027 232.827 90.4055H249.613C249.777 90.4055 249.936 90.4709 250.052 90.5875C250.169 90.704 250.234 90.862 250.234 91.0268C250.234 91.1916 250.169 91.3497 250.052 91.4662C249.936 91.5827 249.777 91.6482 249.613 91.6482Z" fill="#2D3B5A"/>
<path d="M228.811 123.026H87.0634C85.7444 123.026 84.4793 123.55 83.5466 124.482C82.6138 125.414 82.0898 126.678 82.0898 127.997C82.0898 129.315 82.6138 130.579 83.5466 131.511C84.4793 132.444 85.7444 132.967 87.0634 132.967H228.811C230.13 132.967 231.395 132.444 232.328 131.511C233.26 130.579 233.784 129.315 233.784 127.997C233.784 126.678 233.26 125.414 232.328 124.482C231.395 123.55 230.13 123.026 228.811 123.026Z" fill="#E6E6E6"/>
<path d="M157.315 101.9H87.0634C85.7444 101.9 84.4793 102.424 83.5466 103.356C82.6138 104.288 82.0898 105.553 82.0898 106.871C82.0898 108.189 82.6138 109.454 83.5466 110.386C84.4793 111.318 85.7444 111.842 87.0634 111.842H157.315C158.635 111.842 159.9 111.318 160.832 110.386C161.765 109.454 162.289 108.189 162.289 106.871C162.289 105.553 161.765 104.288 160.832 103.356C159.9 102.424 158.635 101.9 157.315 101.9Z" fill="#E6E6E6"/>
<path d="M228.811 123.026H87.0634C85.7444 123.026 84.4793 123.55 83.5466 124.482C82.6138 125.414 82.0898 126.678 82.0898 127.997C82.0898 129.315 82.6138 130.579 83.5466 131.511C84.4793 132.444 85.7444 132.967 87.0634 132.967H228.811C230.13 132.967 231.395 132.444 232.328 131.511C233.26 130.579 233.784 129.315 233.784 127.997C233.784 126.678 233.26 125.414 232.328 124.482C231.395 123.55 230.13 123.026 228.811 123.026Z" fill="white"/>
<path d="M157.315 101.9H87.0634C85.7444 101.9 84.4793 102.424 83.5466 103.356C82.6138 104.288 82.0898 105.553 82.0898 106.871C82.0898 108.189 82.6138 109.454 83.5466 110.386C84.4793 111.318 85.7444 111.842 87.0634 111.842H157.315C158.635 111.842 159.9 111.318 160.832 110.386C161.765 109.454 162.289 108.189 162.289 106.871C162.289 105.553 161.765 104.288 160.832 103.356C159.9 102.424 158.635 101.9 157.315 101.9Z" fill="white"/>
<path d="M87.0634 164.656C85.7444 164.656 84.4793 165.179 83.5466 166.112C82.6138 167.044 82.0898 168.308 82.0898 169.627C82.0898 170.945 82.6138 172.209 83.5466 173.141C84.4793 174.074 85.7444 174.597 87.0634 174.597H131.49V164.656H87.0634Z" fill="#E6E6E6"/>
<path d="M87.0634 143.53C85.7444 143.53 84.4793 144.054 83.5466 144.986C82.6138 145.918 82.0898 147.183 82.0898 148.501C82.0898 149.819 82.6138 151.084 83.5466 152.016C84.4793 152.948 85.7444 153.472 87.0634 153.472H131.49V143.53H87.0634Z" fill="#E6E6E6"/>
<path d="M87.0634 164.656C85.7444 164.656 84.4793 165.179 83.5466 166.112C82.6138 167.044 82.0898 168.308 82.0898 169.627C82.0898 170.945 82.6138 172.209 83.5466 173.141C84.4793 174.074 85.7444 174.597 87.0634 174.597H131.49V164.656H87.0634Z" fill="white"/>
<path d="M87.0634 143.53C85.7444 143.53 84.4793 144.054 83.5466 144.986C82.6138 145.918 82.0898 147.183 82.0898 148.501C82.0898 149.819 82.6138 151.084 83.5466 152.016C84.4793 152.948 85.7444 153.472 87.0634 153.472H131.49V143.53H87.0634Z" fill="white"/>
<path d="M131.8 269.974H91.9866C89.2669 269.97 86.6595 268.889 84.7364 266.967C82.8133 265.045 81.7316 262.439 81.7285 259.721V207.529C81.7316 204.81 82.8133 202.205 84.7364 200.283C86.6595 198.361 89.2669 197.279 91.9866 197.276H131.8V269.974Z" fill="#2D3B5A"/>
<mask id="path-36-inside-5_4871_75" fill="white">
<path d="M135.307 134.21C133.762 135.153 132.485 136.476 131.599 138.054C130.712 139.632 130.247 141.41 130.246 143.22V144.773H131.49V143.22C131.492 141.165 132.173 139.168 133.426 137.539C134.679 135.91 136.435 134.74 138.421 134.21H135.307ZM287.959 132.657H140.815C138.013 132.66 135.327 133.774 133.345 135.754C131.364 137.734 130.249 140.419 130.246 143.22V360.068C130.25 362.869 131.365 365.553 133.346 367.533C135.327 369.513 138.013 370.627 140.815 370.631H304.322C307.124 370.627 309.81 369.513 311.791 367.533C313.772 365.553 314.887 362.869 314.891 360.068V156.69L287.959 132.657ZM313.647 360.068C313.644 362.539 312.661 364.908 310.913 366.655C309.164 368.403 306.794 369.386 304.322 369.389H140.815C138.343 369.386 135.972 368.403 134.224 366.655C132.476 364.908 131.492 362.539 131.489 360.068V143.22C131.492 141.165 132.173 139.168 133.426 137.539C134.679 135.91 136.435 134.74 138.421 134.21C139.202 134.002 140.007 133.898 140.815 133.899H287.486L313.647 157.243V360.068ZM135.307 134.21C133.762 135.153 132.485 136.476 131.599 138.054C130.712 139.632 130.247 141.41 130.246 143.22V144.773H131.489V143.22C131.492 141.165 132.173 139.168 133.426 137.539C134.679 135.91 136.435 134.74 138.421 134.21H135.307Z"/>
</mask>
<path d="M135.307 134.21C133.762 135.153 132.485 136.476 131.599 138.054C130.712 139.632 130.247 141.41 130.246 143.22V144.773H131.49V143.22C131.492 141.165 132.173 139.168 133.426 137.539C134.679 135.91 136.435 134.74 138.421 134.21H135.307ZM287.959 132.657H140.815C138.013 132.66 135.327 133.774 133.345 135.754C131.364 137.734 130.249 140.419 130.246 143.22V360.068C130.25 362.869 131.365 365.553 133.346 367.533C135.327 369.513 138.013 370.627 140.815 370.631H304.322C307.124 370.627 309.81 369.513 311.791 367.533C313.772 365.553 314.887 362.869 314.891 360.068V156.69L287.959 132.657ZM313.647 360.068C313.644 362.539 312.661 364.908 310.913 366.655C309.164 368.403 306.794 369.386 304.322 369.389H140.815C138.343 369.386 135.972 368.403 134.224 366.655C132.476 364.908 131.492 362.539 131.489 360.068V143.22C131.492 141.165 132.173 139.168 133.426 137.539C134.679 135.91 136.435 134.74 138.421 134.21C139.202 134.002 140.007 133.898 140.815 133.899H287.486L313.647 157.243V360.068ZM135.307 134.21C133.762 135.153 132.485 136.476 131.599 138.054C130.712 139.632 130.247 141.41 130.246 143.22V144.773H131.489V143.22C131.492 141.165 132.173 139.168 133.426 137.539C134.679 135.91 136.435 134.74 138.421 134.21H135.307Z" fill="white"/>
<path d="M135.307 134.21V131.21H134.464L133.744 131.649L135.307 134.21ZM130.246 143.22L127.246 143.219V143.22H130.246ZM130.246 144.773H127.246V147.773H130.246V144.773ZM131.49 144.773V147.773H134.49V144.773H131.49ZM131.49 143.22L128.49 143.216V143.22H131.49ZM138.421 134.21L139.195 137.109L138.421 131.21V134.21ZM287.959 132.657L289.956 130.418L289.103 129.657H287.959V132.657ZM140.815 132.657L140.815 129.657L140.811 129.657L140.815 132.657ZM130.246 143.22L127.246 143.216V143.22H130.246ZM130.246 360.068H127.246L127.246 360.073L130.246 360.068ZM140.815 370.631L140.811 373.631H140.815V370.631ZM304.322 370.631L304.322 373.631L304.326 373.631L304.322 370.631ZM314.891 360.068L317.891 360.073V360.068H314.891ZM314.891 156.69H317.891V155.347L316.888 154.452L314.891 156.69ZM313.647 360.068L316.647 360.072V360.068H313.647ZM304.322 369.389L304.322 372.389L304.326 372.389L304.322 369.389ZM140.815 369.389L140.811 372.389H140.815V369.389ZM131.489 360.068H128.489L128.489 360.072L131.489 360.068ZM131.489 143.22L128.489 143.216V143.22H131.489ZM138.421 134.21L137.649 131.311L137.648 131.312L138.421 134.21ZM140.815 133.899L140.809 136.899H140.815V133.899ZM287.486 133.899L289.484 131.661L288.63 130.899H287.486V133.899ZM313.647 157.243H316.647V155.9L315.645 155.005L313.647 157.243ZM135.307 134.21V131.21H134.464L133.744 131.649L135.307 134.21ZM130.246 143.22L127.246 143.219V143.22H130.246ZM130.246 144.773H127.246V147.773H130.246V144.773ZM131.489 144.773V147.773H134.489V144.773H131.489ZM131.489 143.22L128.489 143.216V143.22H131.489ZM138.421 134.21L139.195 137.109L138.421 131.21V134.21ZM133.744 131.649C131.761 132.859 130.121 134.559 128.983 136.585L134.214 139.523C134.849 138.394 135.763 137.446 136.869 136.771L133.744 131.649ZM128.983 136.585C127.845 138.611 127.247 140.895 127.246 143.219L133.246 143.221C133.247 141.926 133.58 140.652 134.214 139.523L128.983 136.585ZM127.246 143.22V144.773H133.246V143.22H127.246ZM130.246 147.773H131.49V141.773H130.246V147.773ZM134.49 144.773V143.22H128.49V144.773H134.49ZM134.49 143.223C134.491 141.829 134.953 140.474 135.804 139.369L131.048 135.71C129.392 137.862 128.493 140.5 128.49 143.216L134.49 143.223ZM135.804 139.369C136.654 138.263 137.846 137.469 139.195 137.109L137.648 131.312C135.024 132.012 132.704 133.558 131.048 135.71L135.804 139.369ZM138.421 131.21H135.307V137.21H138.421V131.21ZM287.959 129.657H140.815V135.657H287.959V129.657ZM140.811 129.657C137.216 129.661 133.768 131.09 131.225 133.632L135.466 137.876C136.885 136.457 138.81 135.659 140.819 135.657L140.811 129.657ZM131.225 133.632C128.681 136.174 127.25 139.621 127.246 143.216L133.246 143.223C133.248 141.218 134.047 139.295 135.466 137.876L131.225 133.632ZM127.246 143.22V360.068H133.246V143.22H127.246ZM127.246 360.073C127.251 363.668 128.682 367.113 131.225 369.655L135.467 365.411C134.047 363.992 133.249 362.07 133.246 360.064L127.246 360.073ZM131.225 369.655C133.768 372.196 137.215 373.626 140.811 373.631L140.819 367.631C138.811 367.628 136.886 366.83 135.467 365.411L131.225 369.655ZM140.815 373.631H304.322V367.631H140.815V373.631ZM304.326 373.631C307.922 373.626 311.369 372.196 313.912 369.655L309.67 365.411C308.251 366.83 306.326 367.628 304.318 367.631L304.326 373.631ZM313.912 369.655C316.455 367.113 317.886 363.668 317.891 360.073L311.891 360.064C311.888 362.07 311.09 363.992 309.67 365.411L313.912 369.655ZM317.891 360.068V156.69H311.891V360.068H317.891ZM316.888 154.452L289.956 130.418L285.961 134.895L312.893 158.929L316.888 154.452ZM310.647 360.065C310.645 361.741 309.978 363.348 308.792 364.533L313.033 368.777C315.344 366.469 316.643 363.338 316.647 360.072L310.647 360.065ZM308.792 364.533C307.606 365.719 305.997 366.386 304.318 366.389L304.326 372.389C307.592 372.385 310.723 371.086 313.033 368.777L308.792 364.533ZM304.322 366.389H140.815V372.389H304.322V366.389ZM140.819 366.389C139.14 366.386 137.531 365.719 136.345 364.533L132.103 368.777C134.414 371.086 137.545 372.385 140.811 372.389L140.819 366.389ZM136.345 364.533C135.159 363.348 134.492 361.741 134.489 360.065L128.489 360.072C128.493 363.338 129.793 366.469 132.103 368.777L136.345 364.533ZM134.489 360.068V143.22H128.489V360.068H134.489ZM134.489 143.223C134.491 141.829 134.953 140.474 135.804 139.369L131.048 135.71C129.392 137.862 128.493 140.501 128.489 143.216L134.489 143.223ZM135.804 139.369C136.654 138.263 137.846 137.469 139.195 137.109L137.648 131.312C135.024 132.012 132.704 133.558 131.048 135.71L135.804 139.369ZM139.193 137.109C139.72 136.969 140.263 136.898 140.809 136.899L140.821 130.899C139.751 130.897 138.684 131.036 137.649 131.311L139.193 137.109ZM140.815 136.899H287.486V130.899H140.815V136.899ZM285.489 136.138L311.65 159.482L315.645 155.005L289.484 131.661L285.489 136.138ZM310.647 157.243V360.068H316.647V157.243H310.647ZM133.744 131.649C131.761 132.859 130.121 134.559 128.983 136.585L134.214 139.523C134.849 138.394 135.763 137.446 136.869 136.771L133.744 131.649ZM128.983 136.585C127.845 138.611 127.247 140.895 127.246 143.219L133.246 143.221C133.247 141.926 133.58 140.652 134.214 139.523L128.983 136.585ZM127.246 143.22V144.773H133.246V143.22H127.246ZM130.246 147.773H131.489V141.773H130.246V147.773ZM134.489 144.773V143.22H128.489V144.773H134.489ZM134.489 143.223C134.491 141.829 134.953 140.474 135.804 139.369L131.048 135.71C129.392 137.862 128.493 140.501 128.489 143.216L134.489 143.223ZM135.804 139.369C136.654 138.263 137.846 137.469 139.195 137.109L137.648 131.312C135.024 132.012 132.704 133.558 131.048 135.71L135.804 139.369ZM138.421 131.21H135.307V137.21H138.421V131.21Z" fill="#2D3B5A" mask="url(#path-36-inside-5_4871_75)"/>
<path d="M286.915 133.9C286.915 133.899 286.914 133.899 286.914 133.899L297.483 156.268C295.011 156.265 292.64 155.282 290.892 153.535C290.892 153.535 290.892 153.535 290.891 153.534C289.143 151.787 288.16 149.418 288.157 146.948H286.914L288.157 146.946V133.899C288.157 133.899 288.157 133.899 288.157 133.9C287.992 134.064 287.769 134.157 287.536 134.157C287.303 134.157 287.08 134.064 286.915 133.9Z" fill="white" stroke="#2D3B5A" stroke-width="3"/>
<path d="M293.467 198.83H151.72C150.401 198.83 149.136 198.306 148.203 197.374C147.27 196.442 146.746 195.177 146.746 193.859C146.746 192.541 147.27 191.276 148.203 190.344C149.136 189.412 150.401 188.888 151.72 188.888H293.467C294.786 188.888 296.051 189.412 296.984 190.344C297.917 191.276 298.441 192.541 298.441 193.859C298.441 195.177 297.917 196.442 296.984 197.374C296.051 198.306 294.786 198.83 293.467 198.83Z" fill="white"/>
<path d="M221.972 177.704H151.72C150.401 177.704 149.136 177.18 148.203 176.248C147.27 175.316 146.746 174.052 146.746 172.733C146.746 171.415 147.27 170.151 148.203 169.219C149.136 168.286 150.401 167.763 151.72 167.763H221.972C223.291 167.763 224.556 168.286 225.489 169.219C226.421 170.151 226.945 171.415 226.945 172.733C226.945 174.052 226.421 175.316 225.489 176.248C224.556 177.18 223.291 177.704 221.972 177.704Z" fill="white"/>
<path d="M293.467 240.46H151.72C150.401 240.46 149.136 239.936 148.203 239.004C147.27 238.072 146.746 236.808 146.746 235.489C146.746 234.171 147.27 232.907 148.203 231.974C149.136 231.042 150.401 230.519 151.72 230.519H293.467C294.786 230.519 296.051 231.042 296.984 231.974C297.917 232.907 298.441 234.171 298.441 235.489C298.441 236.808 297.917 238.072 296.984 239.004C296.051 239.936 294.786 240.46 293.467 240.46Z" fill="white"/>
<path d="M221.972 219.334H151.72C150.401 219.334 149.136 218.81 148.203 217.878C147.27 216.946 146.746 215.682 146.746 214.363C146.746 213.045 147.27 211.781 148.203 210.848C149.136 209.916 150.401 209.393 151.72 209.393H221.972C223.291 209.393 224.556 209.916 225.489 210.848C226.421 211.781 226.945 213.045 226.945 214.363C226.945 215.682 226.421 216.946 225.489 217.878C224.556 218.81 223.291 219.334 221.972 219.334Z" fill="white"/>
<path d="M288.443 335.836H156.643C153.923 335.833 151.316 334.752 149.393 332.83C147.47 330.908 146.388 328.302 146.385 325.584V273.391C146.388 270.673 147.47 268.067 149.393 266.145C151.316 264.223 153.923 263.142 156.643 263.139H288.443C291.163 263.142 293.77 264.223 295.693 266.145C297.616 268.067 298.698 270.673 298.701 273.391V325.584C298.698 328.302 297.616 330.908 295.693 332.83C293.77 334.752 291.163 335.833 288.443 335.836Z" fill="#2D3B5A"/>
</g>
<defs>
<clipPath id="clip0_4871_75">
<rect width="525" height="405" fill="white"/>
</clipPath>
</defs>
</svg>
