<svg width="227" height="203" viewBox="0 0 227 203" fill="none" xmlns="http://www.w3.org/2000/svg">
<g clip-path="url(#clip0)">
<path d="M49.0721 62.5063C48.4631 62.5063 47.8791 62.7488 47.4484 63.1804C47.0178 63.612 46.7759 64.1974 46.7759 64.8078C46.7759 65.4182 47.0178 66.0036 47.4484 66.4352C47.8791 66.8668 48.4631 67.1093 49.0721 67.1093H77.936V66.1053C77.9359 65.3917 78.1126 64.6894 78.4503 64.0612C78.7879 63.4331 79.2759 62.8988 79.8705 62.5063H49.0721Z" fill="#E6E6E6"/>
<path d="M75.3366 57.3283H65.5775C64.9685 57.3283 64.3844 57.0858 63.9538 56.6542C63.5232 56.2226 63.2812 55.6372 63.2812 55.0268C63.2812 54.4164 63.5232 53.831 63.9538 53.3994C64.3844 52.9678 64.9685 52.7253 65.5775 52.7253H75.3366C75.9456 52.7253 76.5296 52.9678 76.9602 53.3994C77.3909 53.831 77.6328 54.4164 77.6328 55.0268C77.6328 55.6372 77.3909 56.2226 76.9602 56.6542C76.5296 57.0858 75.9456 57.3283 75.3366 57.3283Z" fill="#E6E6E6"/>
<path d="M53.449 40.9303H15.5609C14.9519 40.9303 14.3678 40.6878 13.9372 40.2562C13.5066 39.8246 13.2646 39.2392 13.2646 38.6289C13.2646 38.0185 13.5066 37.4331 13.9372 37.0015C14.3678 36.5699 14.9519 36.3274 15.5609 36.3274H53.449C54.058 36.3274 54.642 36.5699 55.0727 37.0015C55.5033 37.4331 55.7452 38.0185 55.7452 38.6289C55.7452 39.2392 55.5033 39.8246 55.0727 40.2562C54.642 40.6878 54.058 40.9303 53.449 40.9303Z" fill="#E6E6E6"/>
<path d="M36.9448 31.1491H32.0653C31.4563 31.1491 30.8722 30.9066 30.4416 30.475C30.011 30.0434 29.769 29.458 29.769 28.8476C29.769 28.2372 30.011 27.6518 30.4416 27.2202C30.8722 26.7886 31.4563 26.5461 32.0653 26.5461H36.9448C37.5538 26.5461 38.1379 26.7886 38.5685 27.2202C38.9991 27.6518 39.2411 28.2372 39.2411 28.8476C39.2411 29.458 38.9991 30.0434 38.5685 30.475C38.1379 30.9066 37.5538 31.1491 36.9448 31.1491Z" fill="#E6E6E6"/>
<path d="M77.6479 108.793H41.9303C40.6366 108.792 39.3963 108.276 38.4816 107.359C37.5668 106.442 37.0522 105.199 37.0508 103.902V47.2749C37.0522 45.9783 37.5668 44.7352 38.4816 43.8183C39.3963 42.9015 40.6366 42.3857 41.9303 42.3843H98.9845C100.278 42.3857 101.518 42.9015 102.433 43.8183C103.348 44.7352 103.863 45.9783 103.864 47.2749V61.3103H103.29V47.2749C103.289 46.1308 102.835 45.034 102.028 44.225C101.22 43.416 100.126 42.9609 98.9845 42.9596H41.9303C40.7888 42.9609 39.6945 43.416 38.8873 44.225C38.0802 45.034 37.6261 46.1308 37.6249 47.2749V103.902C37.6261 105.046 38.0802 106.143 38.8873 106.952C39.6945 107.761 40.7888 108.216 41.9303 108.218H77.6479V108.793Z" fill="#CCCCCC"/>
<path d="M37.3373 74.8938H11.3009C10.0072 74.8923 8.76695 74.3766 7.85218 73.4597C6.93741 72.5429 6.42284 71.2998 6.42139 70.0032V23.957C6.42284 22.6604 6.93741 21.4173 7.85218 20.5004C8.76695 19.5836 10.0072 19.0679 11.3009 19.0664H57.7085C59.0022 19.0679 60.2424 19.5836 61.1572 20.5004C62.072 21.4173 62.5865 22.6604 62.588 23.957V42.6722H62.0139V23.957C62.0126 22.8129 61.5586 21.7161 60.7515 20.9071C59.9443 20.0981 58.85 19.6431 57.7085 19.6418H11.3009C10.1594 19.6431 9.06507 20.0981 8.25792 20.9071C7.45077 21.7161 6.99674 22.8129 6.99545 23.957V70.0032C6.99674 71.1472 7.45077 72.2441 8.25792 73.0531C9.06507 73.8621 10.1594 74.3171 11.3009 74.3184H37.3373V74.8938Z" fill="#CCCCCC"/>
<path d="M153.551 62.5063C154.146 62.8988 154.634 63.4331 154.972 64.0612C155.309 64.6894 155.486 65.3917 155.486 66.1053V67.1093H184.35C184.959 67.1093 185.543 66.8668 185.973 66.4352C186.404 66.0036 186.646 65.4182 186.646 64.8078C186.646 64.1974 186.404 63.612 185.973 63.1804C185.543 62.7488 184.959 62.5063 184.35 62.5063H153.551Z" fill="#E6E6E6"/>
<path d="M155.789 55.0268C155.789 54.4166 156.031 53.8317 156.462 53.4002C156.892 52.9687 157.476 52.726 158.085 52.7253H167.844C168.453 52.7253 169.037 52.9678 169.468 53.3994C169.898 53.831 170.14 54.4164 170.14 55.0268C170.14 55.6372 169.898 56.2226 169.468 56.6542C169.037 57.0858 168.453 57.3283 167.844 57.3283H158.085C157.476 57.3276 156.892 57.0849 156.462 56.6534C156.031 56.222 155.789 55.637 155.789 55.0268Z" fill="#E6E6E6"/>
<path d="M177.676 38.6289C177.677 38.0187 177.919 37.4337 178.35 37.0022C178.78 36.5708 179.364 36.3281 179.973 36.3274H217.861C218.47 36.3274 219.054 36.5699 219.484 37.0015C219.915 37.4331 220.157 38.0185 220.157 38.6289C220.157 39.2392 219.915 39.8246 219.484 40.2562C219.054 40.6878 218.47 40.9303 217.861 40.9303H179.973C179.364 40.9296 178.78 40.6869 178.35 40.2555C177.919 39.824 177.677 39.239 177.676 38.6289Z" fill="#E6E6E6"/>
<path d="M194.181 28.8476C194.181 28.2374 194.424 27.6525 194.854 27.221C195.284 26.7895 195.868 26.5468 196.477 26.5461H201.356C201.965 26.5461 202.549 26.7886 202.98 27.2202C203.411 27.6518 203.653 28.2372 203.653 28.8476C203.653 29.458 203.411 30.0434 202.98 30.475C202.549 30.9066 201.965 31.1491 201.356 31.1491H196.477C195.868 31.1484 195.284 30.9057 194.854 30.4742C194.424 30.0428 194.181 29.4578 194.181 28.8476Z" fill="#E6E6E6"/>
<path d="M155.774 108.793H191.491C192.785 108.792 194.025 108.276 194.94 107.359C195.855 106.442 196.369 105.199 196.371 103.902V47.2749C196.369 45.9783 195.855 44.7352 194.94 43.8183C194.025 42.9015 192.785 42.3857 191.491 42.3843H134.437C133.143 42.3857 131.903 42.9015 130.988 43.8183C130.074 44.7352 129.559 45.9783 129.558 47.2749V61.3103H130.132V47.2749C130.133 46.1308 130.587 45.034 131.394 44.225C132.201 43.416 133.296 42.9609 134.437 42.9596H191.491C192.633 42.9609 193.727 43.416 194.534 44.225C195.341 45.034 195.795 46.1308 195.797 47.2749V103.902C195.795 105.046 195.341 106.143 194.534 106.952C193.727 107.761 192.633 108.216 191.491 108.218H155.774V108.793Z" fill="#CCCCCC"/>
<path d="M196.084 74.8938H222.121C223.414 74.8923 224.655 74.3766 225.569 73.4597C226.484 72.5429 226.999 71.2998 227 70.0032V23.957C226.999 22.6604 226.484 21.4173 225.569 20.5004C224.655 19.5836 223.414 19.0679 222.121 19.0664H175.713C174.419 19.0679 173.179 19.5836 172.264 20.5004C171.35 21.4173 170.835 22.6604 170.833 23.957V42.6722H171.408V23.957C171.409 22.8129 171.863 21.7161 172.67 20.9071C173.477 20.0981 174.572 19.6431 175.713 19.6418H222.121C223.262 19.6431 224.356 20.0981 225.164 20.9071C225.971 21.7161 226.425 22.8129 226.426 23.957V70.0032C226.425 71.1472 225.971 72.2441 225.164 73.0531C224.356 73.8621 223.262 74.3171 222.121 74.3184H196.084V74.8938Z" fill="#CCCCCC"/>
<path d="M151.06 61.2148H82.2413C80.948 61.2174 79.7084 61.7335 78.7938 62.6501C77.8793 63.5667 77.3644 64.8092 77.3618 66.1055V134.427C77.3632 135.724 77.8777 136.967 78.7925 137.884C79.7073 138.801 80.9476 139.317 82.2413 139.318H151.06C152.354 139.317 153.594 138.801 154.509 137.884C155.423 136.967 155.938 135.724 155.939 134.427V66.1055C155.938 64.8088 155.423 63.5656 154.509 62.6488C153.594 61.7319 152.354 61.2162 151.06 61.2148ZM155.365 134.427C155.364 135.571 154.91 136.668 154.103 137.477C153.296 138.286 152.201 138.741 151.06 138.743H82.2413C81.0999 138.741 80.0056 138.286 79.1985 137.477C78.3913 136.668 77.9373 135.571 77.9359 134.427V66.1055C77.9376 64.9615 78.3918 63.8649 79.1989 63.0561C80.0059 62.2472 81.1 61.792 82.2413 61.7902H151.06C152.201 61.7916 153.296 62.2467 154.103 63.0557C154.91 63.8646 155.364 64.9614 155.365 66.1055V134.427Z" fill="#3F3D56"/>
<path d="M145.64 87.8227H87.66C87.051 87.8227 86.467 87.5802 86.0363 87.1486C85.6057 86.717 85.3638 86.1316 85.3638 85.5212C85.3638 84.9108 85.6057 84.3254 86.0363 83.8938C86.467 83.4622 87.051 83.2197 87.66 83.2197H145.64C146.249 83.2197 146.833 83.4622 147.264 83.8938C147.695 84.3254 147.936 84.9108 147.936 85.5212C147.936 86.1316 147.695 86.717 147.264 87.1486C146.833 87.5802 146.249 87.8227 145.64 87.8227Z" fill="#CCCCCC"/>
<path d="M129.136 78.0414H104.164C103.555 78.0414 102.971 77.7989 102.541 77.3673C102.11 76.9357 101.868 76.3503 101.868 75.7399C101.868 75.1296 102.11 74.5442 102.541 74.1126C102.971 73.681 103.555 73.4385 104.164 73.4385H129.136C129.745 73.4385 130.329 73.681 130.76 74.1126C131.19 74.5442 131.432 75.1296 131.432 75.7399C131.432 76.3503 131.19 76.9357 130.76 77.3673C130.329 77.7989 129.745 78.0414 129.136 78.0414Z" fill="#5F2AA2"/>
<path d="M112.489 101.631H87.517C86.9079 101.631 86.3239 101.389 85.8933 100.957C85.4626 100.526 85.2207 99.9402 85.2207 99.3298C85.2207 98.7194 85.4626 98.134 85.8933 97.7024C86.3239 97.2708 86.9079 97.0283 87.517 97.0283H112.489C113.098 97.0283 113.682 97.2708 114.112 97.7024C114.543 98.134 114.785 98.7194 114.785 99.3298C114.785 99.9402 114.543 100.526 114.112 100.957C113.682 101.389 113.098 101.631 112.489 101.631Z" fill="#CCCCCC"/>
<path d="M112.489 111.7H87.517C86.9079 111.7 86.3239 111.458 85.8933 111.026C85.4626 110.594 85.2207 110.009 85.2207 109.399C85.2207 108.788 85.4626 108.203 85.8933 107.771C86.3239 107.34 86.9079 107.097 87.517 107.097H112.489C113.098 107.097 113.682 107.34 114.112 107.771C114.543 108.203 114.785 108.788 114.785 109.399C114.785 110.009 114.543 110.594 114.112 111.026C113.682 111.458 113.098 111.7 112.489 111.7Z" fill="#CCCCCC"/>
<path d="M112.489 121.769H87.517C86.9079 121.769 86.3239 121.527 85.8933 121.095C85.4626 120.663 85.2207 120.078 85.2207 119.468C85.2207 118.857 85.4626 118.272 85.8933 117.84C86.3239 117.409 86.9079 117.166 87.517 117.166H112.489C113.098 117.166 113.682 117.409 114.112 117.84C114.543 118.272 114.785 118.857 114.785 119.468C114.785 120.078 114.543 120.663 114.112 121.095C113.682 121.527 113.098 121.769 112.489 121.769Z" fill="#CCCCCC"/>
<path d="M143.633 103.604C145.999 103.604 147.918 101.681 147.918 99.3095C147.918 96.9375 145.999 95.0146 143.633 95.0146C141.266 95.0146 139.348 96.9375 139.348 99.3095C139.348 101.681 141.266 103.604 143.633 103.604Z" fill="#5F2AA2"/>
<path d="M143.208 100.948C143.112 100.948 143.018 100.917 142.941 100.859L142.936 100.855L141.929 100.083C141.835 100.01 141.773 99.9035 141.758 99.7856C141.742 99.6677 141.774 99.5484 141.846 99.4539C141.918 99.3595 142.025 99.2977 142.143 99.2822C142.261 99.2666 142.38 99.2985 142.474 99.3709L143.126 99.8722L144.667 97.8567C144.703 97.81 144.748 97.7708 144.799 97.7413C144.849 97.7119 144.906 97.6927 144.964 97.685C145.022 97.6773 145.081 97.6812 145.138 97.6964C145.195 97.7116 145.248 97.7379 145.295 97.7737L145.295 97.7738L145.285 97.7871L145.295 97.7738C145.389 97.8462 145.451 97.9531 145.466 98.071C145.482 98.1889 145.45 98.3081 145.378 98.4025L143.565 100.772C143.523 100.827 143.469 100.871 143.407 100.901C143.345 100.932 143.278 100.947 143.209 100.947L143.208 100.948Z" fill="white"/>
<path d="M34.5046 13.3511C33.1873 13.3511 31.8996 12.9596 30.8043 12.2261C29.709 11.4926 28.8553 10.45 28.3512 9.23018C27.8471 8.01037 27.7152 6.66814 27.9722 5.37321C28.2292 4.07828 28.8636 2.88881 29.7951 1.95522C30.7265 1.02163 31.9133 0.385846 33.2053 0.12827C34.4973 -0.129305 35.8365 0.00289325 37.0535 0.508152C38.2706 1.01341 39.3108 1.86904 40.0426 2.96683C40.7745 4.06462 41.1651 5.35527 41.1651 6.67557C41.1631 8.44543 40.4607 10.1422 39.2121 11.3937C37.9634 12.6452 36.2705 13.3491 34.5046 13.3511ZM34.5046 0.575369C33.3009 0.575376 32.1241 0.933153 31.1232 1.60346C30.1224 2.27376 29.3423 3.22648 28.8816 4.34115C28.4209 5.45581 28.3004 6.68236 28.5353 7.86568C28.7701 9.049 29.3498 10.1359 30.201 10.9891C31.0522 11.8422 32.1367 12.4232 33.3173 12.6586C34.4979 12.8939 35.7217 12.7731 36.8338 12.3114C37.946 11.8497 38.8965 11.0678 39.5653 10.0647C40.2341 9.06148 40.5911 7.88207 40.5911 6.67557C40.5892 5.05825 39.9474 3.5077 38.8064 2.36408C37.6653 1.22047 36.1183 0.57719 34.5046 0.575369Z" fill="#CCCCCC"/>
<path d="M33.8732 9.11248C33.7299 9.11272 33.5903 9.06623 33.4756 8.98002L33.4685 8.97467L31.9706 7.82626C31.9012 7.77296 31.843 7.70648 31.7993 7.63063C31.7555 7.55477 31.7271 7.47103 31.7157 7.38417C31.7042 7.29732 31.71 7.20905 31.7326 7.12442C31.7552 7.03978 31.7942 6.96043 31.8473 6.8909C31.9005 6.82138 31.9668 6.76303 32.0425 6.71919C32.1182 6.67535 32.2018 6.64688 32.2884 6.63541C32.3751 6.62394 32.4631 6.62968 32.5476 6.65232C32.632 6.67496 32.7112 6.71405 32.7806 6.76735L33.7508 7.51303L36.0434 4.51529C36.0965 4.44579 36.1628 4.38746 36.2385 4.34364C36.3141 4.29982 36.3976 4.27136 36.4843 4.25989C36.5709 4.24842 36.6589 4.25417 36.7433 4.2768C36.8277 4.29943 36.9069 4.33851 36.9762 4.39179L36.9764 4.39194L36.9622 4.41174L36.9768 4.39194C37.1167 4.4997 37.2082 4.65868 37.2313 4.83401C37.2544 5.00933 37.2071 5.18666 37.0999 5.32709L34.4033 8.85152C34.3409 8.93272 34.2607 8.99843 34.1689 9.04355C34.077 9.08867 33.9761 9.11199 33.8738 9.11169L33.8732 9.11248Z" fill="#CCCCCC"/>
<path d="M76.7546 36.6534C75.4373 36.6534 74.1496 36.2619 73.0543 35.5283C71.959 34.7948 71.1053 33.7522 70.6012 32.5324C70.0971 31.3126 69.9652 29.9704 70.2222 28.6754C70.4792 27.3805 71.1136 26.191 72.0451 25.2575C72.9765 24.3239 74.1633 23.6881 75.4553 23.4305C76.7473 23.1729 78.0865 23.3051 79.3035 23.8104C80.5206 24.3157 81.5608 25.1713 82.2926 26.2691C83.0245 27.3669 83.4151 28.6575 83.4151 29.9778C83.4131 31.7477 82.7107 33.4445 81.4621 34.696C80.2134 35.9475 78.5205 36.6514 76.7546 36.6534ZM76.7546 23.8776C75.5508 23.8776 74.3741 24.2354 73.3732 24.9057C72.3723 25.576 71.5922 26.5288 71.1316 27.6434C70.6709 28.7581 70.5504 29.9846 70.7853 31.168C71.0201 32.3513 71.5998 33.4382 72.451 34.2913C73.3022 35.1445 74.3867 35.7254 75.5673 35.9608C76.7479 36.1962 77.9717 36.0754 79.0838 35.6137C80.196 35.152 81.1465 34.3701 81.8153 33.3669C82.4841 32.3637 82.841 31.1843 82.841 29.9778C82.8392 28.3605 82.1974 26.8099 81.0563 25.6663C79.9153 24.5227 78.3683 23.8794 76.7546 23.8776Z" fill="#CCCCCC"/>
<path d="M76.1232 32.4147C75.9799 32.415 75.8403 32.3685 75.7256 32.2823L75.7185 32.2769L74.2206 31.1285C74.0805 31.0209 73.9888 30.8618 73.9657 30.6864C73.9426 30.511 73.9899 30.3336 74.0973 30.1932C74.2047 30.0527 74.3634 29.9608 74.5384 29.9377C74.7134 29.9145 74.8905 29.9619 75.0306 30.0696L76.0008 30.8153L78.2934 27.8175C78.3465 27.748 78.4128 27.6897 78.4885 27.6459C78.5641 27.6021 78.6476 27.5736 78.7343 27.5621C78.8209 27.5507 78.9089 27.5564 78.9933 27.579C79.0777 27.6017 79.1569 27.6408 79.2262 27.694L79.2264 27.6942L79.2122 27.714L79.2268 27.6942C79.3667 27.8019 79.4582 27.9609 79.4813 28.1362C79.5044 28.3116 79.4571 28.4889 79.3499 28.6293L76.6533 32.1538C76.5909 32.235 76.5107 32.3007 76.4189 32.3458C76.327 32.3909 76.2261 32.4142 76.1238 32.4139L76.1232 32.4147Z" fill="#CCCCCC"/>
<path d="M143.633 113.673C145.999 113.673 147.918 111.75 147.918 109.378C147.918 107.006 145.999 105.083 143.633 105.083C141.266 105.083 139.348 107.006 139.348 109.378C139.348 111.75 141.266 113.673 143.633 113.673Z" fill="#5F2AA2"/>
<path d="M143.208 111.017C143.112 111.017 143.018 110.986 142.941 110.928L142.936 110.924L141.929 110.152C141.883 110.116 141.843 110.071 141.814 110.02C141.785 109.969 141.765 109.913 141.758 109.855C141.75 109.796 141.754 109.737 141.769 109.68C141.784 109.623 141.811 109.57 141.846 109.523C141.882 109.476 141.927 109.437 141.978 109.408C142.028 109.378 142.085 109.359 142.143 109.351C142.201 109.344 142.26 109.347 142.317 109.363C142.374 109.378 142.427 109.404 142.474 109.44L143.126 109.941L144.667 107.926C144.703 107.879 144.748 107.84 144.799 107.81C144.849 107.781 144.906 107.762 144.964 107.754C145.022 107.746 145.081 107.75 145.138 107.765C145.195 107.781 145.248 107.807 145.295 107.843L145.295 107.843L145.285 107.856L145.295 107.843C145.389 107.915 145.451 108.022 145.466 108.14C145.482 108.258 145.45 108.377 145.378 108.472L143.565 110.841C143.523 110.896 143.469 110.94 143.407 110.97C143.345 111.001 143.278 111.016 143.209 111.016L143.208 111.017Z" fill="white"/>
<path d="M143.633 123.763C145.999 123.763 147.918 121.84 147.918 119.468C147.918 117.096 145.999 115.173 143.633 115.173C141.266 115.173 139.348 117.096 139.348 119.468C139.348 121.84 141.266 123.763 143.633 123.763Z" fill="#5F2AA2"/>
<path d="M143.208 121.106C143.112 121.106 143.018 121.075 142.941 121.017L142.936 121.013L141.929 120.241C141.835 120.169 141.774 120.062 141.758 119.944C141.743 119.826 141.775 119.707 141.847 119.613C141.919 119.518 142.026 119.457 142.143 119.441C142.261 119.425 142.38 119.457 142.474 119.529L143.126 120.031L144.668 118.015C144.703 117.968 144.748 117.929 144.799 117.9C144.85 117.87 144.906 117.851 144.964 117.843C145.022 117.836 145.081 117.84 145.138 117.855C145.195 117.87 145.248 117.896 145.295 117.932L145.295 117.932L145.285 117.946L145.295 117.932C145.389 118.005 145.451 118.112 145.466 118.229C145.482 118.347 145.45 118.467 145.378 118.561L143.565 120.931C143.523 120.985 143.469 121.029 143.407 121.06C143.346 121.09 143.278 121.106 143.209 121.106L143.208 121.106Z" fill="white"/>
<path d="M116.657 55.3528C112.136 55.2756 110.082 51.838 110.082 48.6767C110.082 45.5154 112.137 42.0783 116.647 42.0017H116.657C121.168 42.0788 123.222 45.5164 123.222 48.6777C123.222 51.839 121.167 55.2763 116.657 55.3528ZM116.652 42.5771C112.533 42.6493 110.656 45.7891 110.656 48.6767C110.656 51.5656 112.534 54.707 116.657 54.7775C120.77 54.7075 122.648 51.5665 122.648 48.6777C122.648 45.79 120.772 42.6503 116.652 42.5771Z" fill="#5F2AA2"/>
<path d="M118.147 49.0398C119.299 51.046 116.136 51.8294 114.926 50.621L115.229 49.9718C117.197 51.675 118.93 48.7249 115.925 49.0053V48.2941C118.677 48.5165 117.131 45.7404 115.298 47.3827L115.002 46.7337C116.496 45.1798 119.85 47.0588 117.482 48.6117C117.746 48.6736 117.981 48.8248 118.147 49.0398Z" fill="#5F2AA2"/>
<path d="M157.123 36.6534C155.806 36.6534 154.518 36.2619 153.423 35.5283C152.328 34.7948 151.474 33.7522 150.97 32.5324C150.466 31.3126 150.334 29.9704 150.591 28.6754C150.848 27.3805 151.482 26.191 152.414 25.2575C153.345 24.3239 154.532 23.6881 155.824 23.4305C157.116 23.1729 158.455 23.3051 159.672 23.8104C160.889 24.3157 161.929 25.1713 162.661 26.2691C163.393 27.3669 163.784 28.6575 163.784 29.9778C163.782 31.7477 163.079 33.4445 161.831 34.696C160.582 35.9475 158.889 36.6514 157.123 36.6534ZM157.123 23.8776C155.919 23.8776 154.743 24.2354 153.742 24.9057C152.741 25.576 151.961 26.5288 151.5 27.6434C151.04 28.7581 150.919 29.9846 151.154 31.168C151.389 32.3513 151.968 33.4382 152.82 34.2913C153.671 35.1445 154.755 35.7254 155.936 35.9608C157.117 36.1962 158.34 36.0754 159.453 35.6137C160.565 35.152 161.515 34.3701 162.184 33.3669C162.853 32.3637 163.21 31.1843 163.21 29.9778C163.208 28.3605 162.566 26.8099 161.425 25.6663C160.284 24.5227 158.737 23.8794 157.123 23.8776Z" fill="#CCCCCC"/>
<path d="M158.973 31.4762H158.277V32.4359H157.409V31.4762H155.274V30.8133L157.568 27.52H158.277V30.7789H158.973V31.4762ZM157.409 30.7789V28.9077L156.114 30.7789H157.409Z" fill="#CCCCCC"/>
<path d="M198.917 13.3511C197.599 13.3511 196.312 12.9596 195.216 12.2261C194.121 11.4925 193.267 10.45 192.763 9.23015C192.259 8.01035 192.127 6.66812 192.384 5.37319C192.641 4.07826 193.276 2.88879 194.207 1.95521C195.139 1.02162 196.325 0.385839 197.617 0.128267C198.909 -0.129306 200.249 0.00289754 201.466 0.508157C202.683 1.01342 203.723 1.86904 204.455 2.96683C205.187 4.06462 205.577 5.35527 205.577 6.67557C205.575 8.44543 204.873 10.1422 203.624 11.3937C202.376 12.6452 200.683 13.3491 198.917 13.3511ZM198.917 0.57537C197.713 0.575384 196.536 0.933167 195.535 1.60347C194.534 2.27378 193.754 3.22651 193.294 4.34118C192.833 5.45584 192.713 6.68239 192.947 7.8657C193.182 9.04902 193.762 10.136 194.613 10.9891C195.464 11.8422 196.549 12.4232 197.729 12.6586C198.91 12.8939 200.134 12.7731 201.246 12.3114C202.358 11.8497 203.309 11.0678 203.977 10.0647C204.646 9.06148 205.003 7.88207 205.003 6.67557C205.001 5.05825 204.359 3.50769 203.218 2.36407C202.077 1.22046 200.53 0.577182 198.917 0.57537Z" fill="#CCCCCC"/>
<path d="M199.909 6.16141C200.139 6.28912 200.328 6.48092 200.453 6.71374C200.585 6.96575 200.651 7.24719 200.646 7.53183C200.652 7.831 200.575 8.12605 200.425 8.38463C200.275 8.634 200.054 8.83333 199.791 8.95761C199.492 9.0986 199.164 9.16831 198.834 9.16128C198.524 9.16101 198.217 9.10849 197.925 9.00594C197.653 8.91803 197.403 8.77596 197.188 8.58832L197.484 7.9392C197.869 8.2577 198.349 8.43764 198.848 8.45023C199.104 8.46783 199.357 8.38487 199.554 8.21888C199.713 8.03708 199.8 7.80331 199.798 7.56165C199.797 7.31999 199.708 7.08715 199.547 6.90703C199.457 6.82344 199.351 6.75871 199.236 6.71663C199.12 6.67454 198.998 6.65594 198.875 6.66192C198.688 6.6607 198.503 6.6971 198.331 6.76896C198.161 6.84031 198.008 6.94742 197.883 7.08305H197.346V4.19019H200.418V4.8806H198.214V6.21998C198.475 6.046 198.783 5.95682 199.096 5.96461C199.379 5.95863 199.659 6.02644 199.909 6.16141Z" fill="#CCCCCC"/>
<path d="M42.5363 149.84C42.3621 149.455 42.2743 149.036 42.279 148.613C42.2837 148.19 42.3809 147.773 42.5637 147.392C42.7465 147.011 43.0105 146.675 43.337 146.407C43.6636 146.139 44.0447 145.946 44.4537 145.842L45.3238 135.599L49.5085 138.907L48.0406 148.127C48.1698 148.827 48.0383 149.551 47.6709 150.16C47.3036 150.77 46.7259 151.223 46.0474 151.434C45.3689 151.645 44.6368 151.599 43.9896 151.306C43.3425 151.012 42.8254 150.49 42.5363 149.84H42.5363Z" fill="#FFB8B8"/>
<path d="M45.2278 144.766C44.9266 144.726 44.6492 144.581 44.4443 144.357C44.2393 144.132 44.12 143.842 44.1074 143.538L43.6229 131.913C43.4487 127.735 44.2972 123.578 46.0941 119.804L50.3904 110.781C50.6782 110.238 51.091 109.772 51.5945 109.422C52.0981 109.071 52.6779 108.846 53.2857 108.765C53.8757 108.681 54.477 108.742 55.0385 108.942C55.6 109.142 56.1049 109.475 56.5104 109.912C56.7161 110.132 56.9009 110.371 57.0624 110.626C57.3865 111.153 57.5742 111.753 57.6084 112.371C57.6426 112.989 57.5222 113.606 57.2582 114.166L50.6704 132.203L50.1636 143.955C50.1559 144.133 50.1116 144.307 50.0335 144.467C49.9554 144.627 49.8451 144.77 49.7096 144.885C49.5741 145 49.4163 145.087 49.2461 145.138C49.0758 145.19 48.8968 145.205 48.7203 145.184L45.2449 144.769L45.2278 144.766Z" fill="#5F2AA2"/>
<path d="M32.9023 195.556L36.1246 196.974L43.1132 185.191L38.3577 183.099L32.9023 195.556Z" fill="#FFB8B8"/>
<path d="M32.5422 194.14L38.8879 196.932L38.8881 196.932C39.4192 197.166 39.8991 197.502 40.3005 197.921C40.702 198.341 41.017 198.836 41.2277 199.377C41.4383 199.919 41.5405 200.497 41.5284 201.078C41.5162 201.659 41.3899 202.232 41.1568 202.764L41.0991 202.896L30.7095 198.325L32.5422 194.14Z" fill="#2F2E41"/>
<path d="M76.1612 199.477H79.6802L81.3542 185.873L76.1606 185.873L76.1612 199.477Z" fill="#FFB8B8"/>
<path d="M75.2637 198.325L82.1937 198.325H82.194C82.7739 198.325 83.3482 198.44 83.8841 198.662C84.4199 198.885 84.9067 199.211 85.3169 199.622C85.727 200.033 86.0523 200.521 86.2742 201.058C86.4961 201.595 86.6104 202.17 86.6104 202.752V202.895L75.2639 202.896L75.2637 198.325Z" fill="#2F2E41"/>
<path d="M40.7184 195.609C40.583 195.609 40.4486 195.588 40.3198 195.546L34.3531 193.624C34.0309 193.518 33.7625 193.291 33.6055 192.99C33.4486 192.689 33.4154 192.338 33.5131 192.013L53.2997 128.862L68.1204 125.949L68.1726 126.034C77.9709 142.014 81.2416 166.425 83.3164 192.29C83.3418 192.627 83.235 192.962 83.0185 193.222C82.802 193.482 82.4929 193.647 82.1568 193.683L75.6337 194.336C75.3293 194.368 75.0235 194.29 74.7714 194.116C74.5193 193.942 74.3375 193.684 74.2588 193.388L62.3149 151.039C62.2914 150.952 62.2418 150.875 62.1728 150.819C62.1038 150.762 62.0189 150.728 61.9298 150.721C61.8407 150.715 61.7519 150.737 61.6756 150.783C61.5993 150.83 61.5393 150.899 61.504 150.981L41.9011 194.826C41.8021 195.058 41.6373 195.256 41.427 195.395C41.2167 195.535 40.9703 195.609 40.7184 195.609Z" fill="#2F2E41"/>
<path d="M60.957 103.575C64.8505 103.575 68.0068 100.411 68.0068 96.5089C68.0068 92.6066 64.8505 89.4431 60.957 89.4431C57.0635 89.4431 53.9072 92.6066 53.9072 96.5089C53.9072 100.411 57.0635 103.575 60.957 103.575Z" fill="#FFB8B8"/>
<path d="M52.0385 130.732L51.9901 130.631C51.9573 130.562 48.7093 123.656 49.0116 115.69C49.1116 113.075 50.2048 110.598 52.0674 108.764C53.93 106.931 56.4212 105.88 59.0313 105.827C61.4368 105.78 63.7817 106.585 65.6531 108.101C67.5245 109.616 68.8023 111.745 69.2615 114.112C70.1666 118.743 70.144 123.13 69.1941 127.149L69.173 127.239L69.083 127.257L52.0385 130.732Z" fill="#5F2AA2"/>
<path d="M87.9816 140.7C87.5642 140.638 87.1654 140.485 86.8133 140.252C86.4612 140.019 86.1643 139.711 85.9436 139.351C85.7229 138.991 85.5838 138.586 85.536 138.166C85.4881 137.746 85.5328 137.32 85.6669 136.919L77.5469 130.638L82.5885 128.904L89.5264 135.135C90.1836 135.405 90.7191 135.908 91.0313 136.547C91.3435 137.187 91.4107 137.919 91.2203 138.605C91.0299 139.291 90.595 139.883 89.9981 140.269C89.4012 140.655 88.6837 140.808 87.9816 140.7H87.9816Z" fill="#FFB8B8"/>
<path d="M68.0551 126.853L68.0364 126.823L59.4762 112.928C59.1769 112.392 59.0096 111.792 58.9882 111.178C58.9668 110.563 59.0919 109.953 59.353 109.397C59.6026 108.855 59.9793 108.381 60.451 108.016C60.9228 107.651 61.4755 107.406 62.0622 107.301C62.3582 107.247 62.6587 107.221 62.9596 107.223C63.5772 107.235 64.1819 107.402 64.7189 107.708C65.256 108.014 65.7082 108.449 66.0347 108.975L77.5953 124.295L87.1768 131.086C87.322 131.189 87.4445 131.321 87.5365 131.474C87.6285 131.626 87.688 131.796 87.7115 131.973C87.7349 132.15 87.7217 132.329 87.6726 132.5C87.6236 132.672 87.5397 132.831 87.4264 132.968L85.1958 135.672C85.0008 135.909 84.7274 136.069 84.425 136.123C84.1226 136.176 83.811 136.12 83.5467 135.963L68.0551 126.853Z" fill="#5F2AA2"/>
<path d="M59.6961 96.0705C60.2157 95.2139 61.3623 94.9719 62.3578 95.0696C63.3533 95.1673 64.3214 95.518 65.3216 95.5102C68.099 95.4887 70.2428 92.096 69.0751 89.5702C68.1175 87.4988 65.7258 86.5892 63.5622 85.8753C59.0259 84.3786 53.8151 82.9405 49.6987 85.3673C48.3869 86.1636 47.311 87.2964 46.5821 88.6488C45.8533 90.0012 45.4979 91.5242 45.5526 93.0603C45.6452 94.9702 46.375 96.9321 45.7578 98.7415C45.0457 100.829 42.788 101.949 40.6543 102.491C36.9141 103.44 32.9706 103.287 29.207 104.139C25.4434 104.991 21.5868 107.253 20.5723 110.984C19.9059 113.434 20.6012 116.073 21.7528 118.335C22.9276 120.644 24.5603 122.688 26.5508 124.342C28.5413 125.996 30.8477 127.225 33.3289 127.955C35.81 128.684 38.4136 128.898 40.9802 128.584C43.5467 128.27 46.0223 127.433 48.2551 126.127C52.8051 123.464 56.0899 118.963 58.0483 114.061C59.1587 111.201 59.9404 108.224 60.3783 105.187C60.8169 102.344 60.4448 99.471 59.6503 96.7066C59.6128 96.6033 59.5974 96.4933 59.6053 96.3837C59.6132 96.274 59.6441 96.1673 59.6961 96.0705Z" fill="#2F2E41"/>
<path d="M109.646 203H0.287031C0.210906 203 0.137898 202.97 0.0840692 202.916C0.0302405 202.862 0 202.789 0 202.712C0 202.636 0.0302405 202.563 0.0840692 202.509C0.137898 202.455 0.210906 202.425 0.287031 202.425H109.646C109.722 202.425 109.795 202.455 109.849 202.509C109.903 202.563 109.933 202.636 109.933 202.712C109.933 202.789 109.903 202.862 109.849 202.916C109.795 202.97 109.722 203 109.646 203Z" fill="#3F3D56"/>
</g>
<defs>
<clipPath id="clip0">
<rect width="227" height="203" fill="white"/>
</clipPath>
</defs>
</svg>
