<svg width="168" height="117" viewBox="0 0 168 117" fill="none" xmlns="http://www.w3.org/2000/svg">
<path d="M161.019 116.161H7.07879C5.22792 116.159 3.45346 115.423 2.14469 114.114C0.835929 112.805 0.0997481 111.031 0.0976562 109.18V10.9556C0.0991646 9.59967 0.638478 8.29967 1.59728 7.34083C2.55608 6.38199 3.85606 5.84263 5.21203 5.84106H162.797C164.176 5.84264 165.499 6.39131 166.474 7.36673C167.45 8.34214 167.998 9.66464 168 11.0441V109.18C167.998 111.031 167.261 112.805 165.953 114.114C164.644 115.423 162.869 116.159 161.019 116.161Z" fill="#F2F2F2"/>
<path d="M154.249 17.1375H13.8477C12.0524 17.1377 10.3306 17.851 9.06113 19.1205C7.79163 20.39 7.07834 22.1117 7.07812 23.907V102.409C7.07835 104.204 7.79164 105.926 9.06114 107.195C10.3306 108.465 12.0524 109.178 13.8477 109.178H154.249C155.138 109.179 156.018 109.004 156.84 108.664C157.661 108.324 158.408 107.825 159.036 107.196C159.665 106.568 160.164 105.821 160.504 105C160.844 104.178 161.019 103.298 161.018 102.409V23.907C161.019 23.018 160.844 22.1376 160.504 21.3161C160.164 20.4947 159.665 19.7483 159.036 19.1197C158.408 18.491 157.661 17.9924 156.84 17.6523C156.018 17.3121 155.138 17.1372 154.249 17.1375Z" fill="white"/>
<path d="M167.903 10.5564H0V7.00221C0.00268287 5.14518 0.741871 3.36505 2.05539 2.05234C3.36891 0.739625 5.1495 0.00153982 7.00652 0H160.896C162.753 0.00152528 164.534 0.73961 165.847 2.05232C167.161 3.36504 167.9 5.14518 167.903 7.00221V10.5564Z" fill="#CCCCCC"/>
<path d="M12.7342 7.10094C13.7351 7.10094 14.5465 6.28954 14.5465 5.28863C14.5465 4.28772 13.7351 3.47632 12.7342 3.47632C11.7333 3.47632 10.9219 4.28772 10.9219 5.28863C10.9219 6.28954 11.7333 7.10094 12.7342 7.10094Z" fill="white"/>
<path d="M19.6131 7.10094C20.614 7.10094 21.4254 6.28954 21.4254 5.28863C21.4254 4.28772 20.614 3.47632 19.6131 3.47632C18.6122 3.47632 17.8008 4.28772 17.8008 5.28863C17.8008 6.28954 18.6122 7.10094 19.6131 7.10094Z" fill="white"/>
<path d="M26.492 7.10094C27.4929 7.10094 28.3043 6.28954 28.3043 5.28863C28.3043 4.28772 27.4929 3.47632 26.492 3.47632C25.4911 3.47632 24.6797 4.28772 24.6797 5.28863C24.6797 6.28954 25.4911 7.10094 26.492 7.10094Z" fill="white"/>
<path d="M101.403 67.5065C100.895 97.2719 56.6192 97.2672 56.1152 67.5055C56.6235 37.7411 100.899 37.7458 101.403 67.5065Z" fill="#00B9DA"/>
<path d="M77.8595 76.7453L77.8359 75.8991C83.6681 76.6778 84.9242 69.4496 79.0424 72.1519L80.3851 62.3401L81.2234 62.455L80.0814 70.8012C86.2744 69.8794 83.9837 77.591 77.8595 76.7453Z" fill="#2F2E41"/>
<path d="M89.9265 63.1748H85.3691V64.021H89.9265V63.1748Z" fill="#2F2E41"/>
<path d="M75.5418 63.1748H70.9844V64.021H75.5418V63.1748Z" fill="#2F2E41"/>
<path d="M96.4072 105.937C93.6764 102.757 90.1041 100.411 86.1004 99.1679C86.989 93.1726 79.9698 94.3572 76.2551 94.298C75.6561 94.2999 75.0651 94.4353 74.5251 94.6944C73.9851 94.9536 73.5096 95.3299 73.1335 95.7961C72.7573 96.2622 72.4899 96.8064 72.3506 97.3889C72.2114 97.9715 72.2039 98.5778 72.3286 99.1637C68.0652 100.499 64.2951 103.072 61.4972 106.555C60.8207 107.386 60.203 108.262 59.6484 109.178H98.7723C98.0784 108.032 97.2871 106.948 96.4072 105.937Z" fill="#2F2E41"/>
<path d="M68.1131 56.7967C72.3096 54.3714 77.3987 56.232 81.7335 57.2493C89.9578 59.7775 101.491 56.6116 102.491 46.8146C103.532 37.7032 91.0677 32.6251 87.0839 41.6935L88.2438 41.5419C75.3238 22.3408 52.8496 23.069 52.9974 49.4672C52.9495 50.2827 54.219 50.28 54.2665 49.4667C53.7908 33.9107 64.086 23.277 78.6391 33.274C81.9696 35.704 84.6646 38.9225 87.1478 42.1826C88.6635 43.8811 88.9928 36.5662 96.2469 38.4822C104.23 41.575 101.625 53.0065 94.4897 55.5161C85.6729 60.0205 76.1241 51.287 67.4724 55.7001C67.3332 55.788 67.2335 55.9267 67.1944 56.0867C67.1554 56.2467 67.18 56.4156 67.2631 56.5579C67.3462 56.7001 67.4813 56.8045 67.6399 56.8491C67.7984 56.8936 67.9681 56.8748 68.1131 56.7967Z" fill="#2F2E41"/>
<path d="M69.3887 79.5427C69.3887 79.5427 79.3315 88.4278 87.7935 79.5427" stroke="#2F2E41"/>
</svg>
