<svg width="34" height="34" viewBox="0 0 34 34" fill="none" xmlns="http://www.w3.org/2000/svg">
<g clip-path="url(#clip0)">
<path d="M32.8042 10.5268C32.8042 9.12172 32.528 7.76008 31.9872 6.47344C31.4623 5.23415 30.7124 4.12116 29.7573 3.16605C28.8022 2.21093 27.6892 1.46104 26.4499 0.936122C25.1672 0.391468 23.8017 0.119141 22.3966 0.119141C20.9916 0.119141 19.6299 0.395414 18.3433 0.936122C17.104 1.46104 15.991 2.21093 15.0359 3.16605C14.0808 4.12116 13.3309 5.23415 12.806 6.47344C12.2613 7.75614 11.989 9.12172 11.989 10.5268C11.989 12.2831 12.431 14.0039 13.2717 15.5352L0.811725 27.9833C0.523611 28.2714 0.432835 28.7095 0.61044 29.1239C0.645961 29.2108 0.705162 29.2897 0.772257 29.3568L3.56262 32.1471C3.62972 32.2142 3.70865 32.2695 3.79548 32.309C4.20989 32.4866 4.64798 32.3998 4.9361 32.1077L6.66084 30.3829L9.14335 32.8654C9.21045 32.9325 9.28938 32.9878 9.37617 33.0273C9.79058 33.2049 10.2287 33.1181 10.5168 32.826L13.2677 30.0751C13.3348 30.008 13.39 29.929 13.4295 29.8423C13.6071 29.4278 13.5203 28.9897 13.2282 28.7016L10.7852 26.2586L17.3842 19.6556C18.9116 20.4963 20.6363 20.9383 22.3926 20.9383C23.7977 20.9383 25.1593 20.6621 26.4459 20.1214C27.6852 19.5964 28.7982 18.8466 29.7533 17.8914C30.7084 16.9364 31.4583 15.8234 31.9833 14.584C32.528 13.2935 32.8042 11.9318 32.8042 10.5268ZM26.0435 14.1775C25.0686 15.1524 23.7701 15.6891 22.3927 15.6891C21.0153 15.6891 19.7167 15.1524 18.7419 14.1775C17.7671 13.2027 17.2264 11.9042 17.2264 10.5268C17.2264 9.1454 17.7631 7.85086 18.738 6.87601C19.7128 5.90116 21.0114 5.3644 22.3887 5.3644C23.7662 5.3644 25.0647 5.90116 26.0395 6.87601C27.0144 7.85086 27.5511 9.14935 27.5511 10.5268C27.559 11.9042 27.0222 13.2027 26.0435 14.1775Z" fill="#00B9DA"/>
</g>
<defs>
<clipPath id="clip0">
<rect width="33" height="33" fill="white" transform="translate(0.161621 0.119141)"/>
</clipPath>
</defs>
</svg>
