<svg width="116" height="82" viewBox="0 0 116 82" fill="none" xmlns="http://www.w3.org/2000/svg">
<g clip-path="url(#clip0_5299_981)">
<path d="M59.244 81.8258C62.7329 81.8258 65.5612 78.9887 65.5612 75.4891C65.5612 71.9894 62.7329 69.1523 59.244 69.1523C55.7551 69.1523 52.9268 71.9894 52.9268 75.4891C52.9268 78.9887 55.7551 81.8258 59.244 81.8258Z" fill="#2E3A59"/>
<path d="M71.6036 20.663C73.4239 20.663 74.8995 19.1828 74.8995 17.3569C74.8995 15.531 73.4239 14.0508 71.6036 14.0508C69.7833 14.0508 68.3076 15.531 68.3076 17.3569C68.3076 19.1828 69.7833 20.663 71.6036 20.663Z" fill="#F2F2F2"/>
<path d="M80.1182 63.9179C81.9385 63.9179 83.4141 62.4377 83.4141 60.6118C83.4141 58.7859 81.9385 57.3057 80.1182 57.3057C78.2979 57.3057 76.8223 58.7859 76.8223 60.6118C76.8223 62.4377 78.2979 63.9179 80.1182 63.9179Z" fill="#F2F2F2"/>
<path d="M58.5667 9.36766C48.6937 9.43762 40.6098 17.4855 40.4696 27.3882C40.4683 27.4796 40.4677 28.1225 40.4678 28.9633C40.4678 30.1962 40.9561 31.3785 41.8251 32.2503C42.6942 33.122 43.8728 33.6119 45.1019 33.612H45.1019C45.7111 33.6119 46.3144 33.4913 46.8772 33.2572C47.4399 33.0231 47.9512 32.6801 48.3818 32.2477C48.8124 31.8154 49.1538 31.3021 49.3866 30.7374C49.6193 30.1726 49.7388 29.5673 49.7383 28.9562C49.7378 28.3842 49.7376 27.9884 49.7376 27.9641C49.7372 26.4336 50.1341 24.9294 50.8891 23.5995C51.6441 22.2696 52.7312 21.1597 54.0436 20.379C55.3559 19.5984 56.8482 19.1739 58.3737 19.1472C59.8992 19.1206 61.4054 19.4927 62.744 20.2271C64.0827 20.9614 65.2077 22.0326 66.0084 23.3354C66.8091 24.6381 67.2579 26.1275 67.3107 27.6571C67.3636 29.1866 67.0185 30.7036 66.3096 32.0588C65.6006 33.414 64.5522 34.5607 63.2674 35.3862L63.269 35.3882C63.269 35.3882 56.6733 39.6475 54.6624 45.4904L54.6641 45.4909C54.3105 46.6878 54.1313 47.9298 54.1321 49.1783C54.1321 49.6915 54.1622 54.1817 54.2204 57.8262C54.2407 59.0837 54.7531 60.2827 55.6469 61.1647C56.5407 62.0466 57.7444 62.5408 58.9981 62.5405H58.9982C59.6282 62.5404 60.2519 62.4154 60.8336 62.1727C61.4152 61.9299 61.9433 61.5742 62.3874 61.126C62.8315 60.6778 63.1828 60.1459 63.4212 59.5609C63.6596 58.976 63.7803 58.3495 63.7764 57.7176C63.7562 54.3799 63.7453 50.4935 63.7453 50.2114C63.7453 46.6236 67.1958 43.0489 70.0301 40.7177C73.2939 38.0333 75.6425 34.3751 76.5858 30.2485C76.7946 29.3989 76.9097 28.5289 76.9291 27.6541C76.9291 25.2415 76.4531 22.8528 75.5287 20.6255C74.6043 18.3982 73.2496 16.3765 71.5428 14.6767C69.8359 12.9769 67.8107 11.6327 65.5836 10.7215C63.3566 9.81036 60.9718 9.35024 58.5667 9.36766Z" fill="#2E3A59"/>
<path d="M115.836 81.9999H0.163045C0.119759 81.9998 0.0782904 81.9825 0.0477272 81.9517C0.0171639 81.921 0 81.8793 0 81.8359C0 81.7925 0.0171639 81.7508 0.0477272 81.7201C0.0782904 81.6893 0.119759 81.672 0.163045 81.6719H115.836C115.879 81.6719 115.921 81.6892 115.952 81.7199C115.982 81.7507 116 81.7924 116 81.8359C116 81.8794 115.982 81.9211 115.952 81.9519C115.921 81.9826 115.879 81.9999 115.836 81.9999Z" fill="#3F3D56"/>
<path d="M86.3055 37.6071C88.5808 37.6071 90.4254 35.7568 90.4254 33.4744C90.4254 31.192 88.5808 29.3418 86.3055 29.3418C84.0301 29.3418 82.1855 31.192 82.1855 33.4744C82.1855 35.7568 84.0301 37.6071 86.3055 37.6071Z" fill="#2F2E41"/>
<path d="M78.6916 80.1909H77.0081L76.207 73.6768H78.692L78.6916 80.1909Z" fill="#A0616A"/>
<path d="M75.8061 79.709H79.0532V81.7597H73.7617C73.7617 81.4904 73.8146 81.2237 73.9173 80.9749C74.0201 80.7261 74.1707 80.5001 74.3605 80.3096C74.5504 80.1192 74.7757 79.9681 75.0238 79.8651C75.2718 79.762 75.5377 79.709 75.8061 79.709Z" fill="#2E3A59"/>
<path d="M91.7385 80.1909H90.055L89.2539 73.6768H91.7389L91.7385 80.1909Z" fill="#A0616A"/>
<path d="M88.852 79.709H92.0991V81.7597H86.8076C86.8076 81.4904 86.8605 81.2237 86.9632 80.9749C87.066 80.7261 87.2166 80.5001 87.4064 80.3096C87.5963 80.1192 87.8216 79.9681 88.0697 79.8651C88.3177 79.762 88.5836 79.709 88.852 79.709Z" fill="#2E3A59"/>
<path d="M85.6787 37.631C87.5415 37.631 89.0516 36.1162 89.0516 34.2477C89.0516 32.3791 87.5415 30.8643 85.6787 30.8643C83.8158 30.8643 82.3057 32.3791 82.3057 34.2477C82.3057 36.1162 83.8158 37.631 85.6787 37.631Z" fill="#A0616A"/>
<path d="M87.6896 48.5458L89.1989 45.0675C89.5654 44.2516 89.6705 43.3416 89.4995 42.4632C89.3286 41.5848 88.89 40.7813 88.2445 40.1635C88.1119 40.032 87.971 39.9091 87.8228 39.7957C87.0781 39.2113 86.1604 38.8928 85.2149 38.8906C84.5792 38.8931 83.9515 39.0331 83.3747 39.3011C83.3252 39.3232 83.2772 39.3466 83.2277 39.37C83.133 39.4155 83.0396 39.4651 82.949 39.516C82.3578 39.8565 81.8546 40.3317 81.4801 40.9031C81.1055 41.4745 80.8701 42.1262 80.7928 42.8056L80.1268 48.404C79.9593 48.8434 73.9826 64.7127 76.0728 76.8282C76.0951 76.9576 76.158 77.0765 76.2524 77.1674C76.3467 77.2584 76.4676 77.3167 76.5974 77.3338L78.7165 77.6231C78.8712 77.6443 79.0282 77.6059 79.1558 77.5157C79.2835 77.4255 79.3723 77.2901 79.4044 77.1368L82.96 60.1365C82.9821 60.0309 83.0389 59.9358 83.1213 59.8663C83.2037 59.7969 83.3069 59.7572 83.4145 59.7536C83.522 59.7499 83.6277 59.7825 83.7146 59.8462C83.8015 59.9099 83.8646 60.0009 83.8938 60.1048L88.9174 77.9826C88.9532 78.1125 89.0304 78.2271 89.1373 78.3087C89.2443 78.3903 89.3749 78.4345 89.5093 78.4345C89.5493 78.4342 89.5893 78.4305 89.6288 78.4234L92.2174 77.9234C92.3679 77.8952 92.5024 77.8116 92.5947 77.689C92.6869 77.5664 92.7302 77.4137 92.716 77.2608C92.3355 73.0055 90.314 51.6908 87.6896 48.5458Z" fill="#2E3A59"/>
<path d="M72.5708 37.0635C72.5474 37.2646 72.5683 37.4685 72.6319 37.6606C72.6955 37.8528 72.8004 38.0287 72.9391 38.1758C73.0778 38.323 73.247 38.4378 73.4348 38.5123C73.6225 38.5867 73.8242 38.619 74.0258 38.6068L75.9112 43.1516L77.3374 41.031L75.3283 37.0402C75.2854 36.702 75.1203 36.3913 74.8643 36.167C74.6083 35.9427 74.2792 35.8204 73.9393 35.8233C73.5994 35.8262 73.2724 35.954 73.0201 36.1825C72.7679 36.4111 72.6081 36.7245 72.5708 37.0635L72.5708 37.0635Z" fill="#A0616A"/>
<path d="M85.4918 53.1219C85.6923 53.0979 85.8851 53.0301 86.0566 52.9232C86.2281 52.8164 86.3741 52.6731 86.4845 52.5035C86.5948 52.3339 86.6667 52.1421 86.6951 51.9416C86.7236 51.7411 86.7079 51.5368 86.6491 51.3431L90.6159 48.4449L88.2277 47.5479L84.8268 50.4375C84.5089 50.5582 84.2462 50.7916 84.0884 51.0936C83.9306 51.3956 83.8887 51.7451 83.9707 52.076C84.0526 52.4069 84.2528 52.6961 84.5331 52.8889C84.8135 53.0817 85.1546 53.1646 85.4918 53.1219Z" fill="#A0616A"/>
<path d="M79.0257 46.1816C78.8737 46.1815 78.722 46.1665 78.5728 46.1368C78.212 46.068 77.8736 45.9111 77.5874 45.6801C77.3013 45.4491 77.0762 45.151 76.932 44.8122L74.2905 41.5814C74.2347 41.5131 74.1941 41.4336 74.1713 41.3482C74.1486 41.2629 74.1443 41.1737 74.1588 41.0865C74.1732 40.9994 74.2061 40.9164 74.2551 40.843C74.3041 40.7696 74.3682 40.7076 74.4431 40.6611L76.3224 39.4942C76.3918 39.4511 76.469 39.4222 76.5496 39.4092C76.6301 39.3962 76.7125 39.3994 76.7918 39.4185C76.8712 39.4375 76.946 39.4722 77.0119 39.5204C77.0779 39.5687 77.1336 39.6295 77.176 39.6995L79.0377 42.7761L82.603 40.1331C82.8869 39.9838 83.2148 39.9419 83.5269 40.0151C83.839 40.0883 84.1144 40.2717 84.3029 40.5318C84.4913 40.7919 84.5802 41.1113 84.5533 41.4317C84.5263 41.752 84.3854 42.052 84.1562 42.2767L80.5977 45.5328C80.1795 45.9486 79.6145 46.1818 79.0257 46.1816Z" fill="#2E3A59"/>
<path d="M88.6589 51.0401C88.6541 51.0401 88.6492 51.0401 88.6444 51.04C88.5577 51.0379 88.4725 51.0175 88.3942 50.9803C88.3158 50.943 88.2462 50.8897 88.1897 50.8237L86.5189 48.8685C86.462 48.8019 86.4198 48.724 86.3952 48.6398C86.3705 48.5557 86.364 48.4672 86.3759 48.3803C86.3879 48.2935 86.4181 48.2101 86.4645 48.1358C86.5109 48.0615 86.5726 47.9979 86.6453 47.9493L89.7739 45.8571L86.9396 42.4391C86.7748 42.1634 86.7143 41.8374 86.7692 41.5206C86.8242 41.2039 86.9909 40.9175 87.239 40.7139C87.487 40.5103 87.7999 40.403 88.1203 40.4116C88.4407 40.4202 88.7473 40.5442 88.9841 40.7609L92.4288 44.1376C92.7 44.386 92.9069 44.6968 93.032 45.0431C93.157 45.3894 93.1964 45.761 93.1468 46.126C93.0971 46.4909 92.96 46.8384 92.747 47.1384C92.534 47.4385 92.2517 47.6823 91.9241 47.8488L89.1087 50.8455C89.0508 50.9069 88.9811 50.9559 88.9038 50.9893C88.8265 51.0228 88.7431 51.0401 88.6589 51.0401Z" fill="#2E3A59"/>
<path d="M84.8219 43.8355C84.795 43.8355 84.7683 43.8338 84.7417 43.8304C84.6253 43.8162 84.5155 43.7688 84.4251 43.6939C84.3348 43.6189 84.2678 43.5196 84.2321 43.4076L82.9766 39.5464C82.9451 39.4488 82.95 39.3431 82.9902 39.2488C83.0304 39.1544 83.1034 39.0779 83.1955 39.0334L83.2362 39.0141C83.2732 38.9964 83.3097 38.979 83.3471 38.9623C83.9326 38.69 84.5698 38.5479 85.2152 38.5459C86.053 38.5474 86.8721 38.7943 87.572 39.2563C87.6658 39.3189 87.7314 39.416 87.7545 39.5267C87.7777 39.6373 87.7566 39.7526 87.6958 39.8478L85.3405 43.549C85.2853 43.6369 85.2088 43.7093 85.118 43.7594C85.0273 43.8095 84.9254 43.8357 84.8219 43.8355Z" fill="#E6E6E6"/>
<path d="M89.5532 31.6294C90.2978 31.6294 90.9013 31.0239 90.9013 30.2771C90.9013 29.5302 90.2978 28.9248 89.5532 28.9248C88.8087 28.9248 88.2051 29.5302 88.2051 30.2771C88.2051 31.0239 88.8087 31.6294 89.5532 31.6294Z" fill="#2F2E41"/>
<path d="M84.9319 28.791C83.9849 28.791 83.0768 29.1684 82.4071 29.84C81.7375 30.5117 81.3613 31.4227 81.3613 32.3726V33.8879H83.2193L84.1079 32.3726L84.3746 33.8879H90.0132L88.5025 32.3726C88.5025 31.4227 88.1263 30.5117 87.4567 29.84C86.7871 29.1684 85.8789 28.791 84.9319 28.791Z" fill="#2F2E41"/>
<path d="M90.2461 29.3507C90.3952 28.8831 90.7038 28.4831 91.1178 28.2212C91.5317 27.9593 92.0245 27.8522 92.5094 27.9186C93.3686 28.0627 94.0478 28.7554 94.4526 29.5291C94.8573 30.3028 95.0442 31.1688 95.3163 31.9988C95.5884 32.8288 95.9743 33.6634 96.6612 34.2007C97.3481 34.7379 98.4022 34.8837 99.0768 34.331C98.9997 34.907 98.7441 35.4442 98.346 35.8664C97.9479 36.2887 97.4275 36.5748 96.8584 36.6842C96.2894 36.7936 95.7005 36.7207 95.1749 36.4759C94.6494 36.2312 94.2139 35.8269 93.93 35.3202C93.5741 34.6849 93.4822 33.9404 93.3766 33.2193C93.271 32.4983 93.1339 31.7523 92.7089 31.1612C92.2839 30.5702 91.4883 30.1841 90.8132 30.4533L90.2461 29.3507Z" fill="#2F2E41"/>
<path d="M46.4107 31.413C45.1817 31.4129 44.003 30.923 43.134 30.0513C42.265 29.1795 41.7767 27.9972 41.7766 26.7643C41.7766 25.9235 41.7772 25.2807 41.7784 25.1892C41.8175 22.3092 42.5406 19.4801 43.8877 16.9365C41.6744 19.9758 40.4574 23.6299 40.4051 27.3933C40.4039 27.4847 40.4033 28.1276 40.4033 28.9684C40.4034 30.2013 40.8917 31.3836 41.7607 32.2553C42.6297 33.1271 43.8084 33.6169 45.0374 33.6171C46.0474 33.6167 47.0296 33.2857 47.8348 32.6743C48.6401 32.0629 49.2244 31.2045 49.499 30.2296C48.6505 30.9929 47.5505 31.4144 46.4107 31.413Z" fill="#3F3D56"/>
<path d="M58.8806 19.1634C60.3015 19.2315 61.6846 19.6445 62.9113 20.3668C64.138 21.0892 65.1716 22.0995 65.9234 23.3108C66.6751 24.5221 67.1225 25.8984 67.2272 27.3214C67.3319 28.7444 67.0907 30.1716 66.5244 31.4805C67.3435 30.5155 67.9456 29.3846 68.2896 28.165C68.6336 26.9454 68.7113 25.6658 68.5176 24.4133C68.3238 23.1608 67.8631 21.965 67.1668 20.9073C66.4706 19.8497 65.5552 18.955 64.483 18.2844C63.4108 17.6138 62.207 17.1829 60.9538 17.0212C59.7006 16.8596 58.4273 16.9709 57.2208 17.3475C56.0144 17.7242 54.9031 18.3574 53.9627 19.2039C53.0223 20.0504 52.2749 21.0904 51.7715 22.253C52.6415 21.2263 53.735 20.4138 54.9676 19.8782C56.2002 19.3425 57.5389 19.098 58.8806 19.1634Z" fill="#3F3D56"/>
<path d="M60.3067 60.3416C59.0529 60.3419 57.8493 59.8478 56.9554 58.9658C56.0616 58.0839 55.5493 56.8848 55.5289 55.6273C55.4708 51.9828 55.4407 47.4926 55.4407 46.9794C55.4399 45.731 55.6191 44.489 55.9727 43.292L55.971 43.2916C56.1798 42.6908 56.4319 42.106 56.7255 41.542C55.8244 42.7466 55.1072 44.0791 54.5977 45.4957L54.5993 45.4961C54.2457 46.6931 54.0666 47.9351 54.0674 49.1835C54.0674 49.6967 54.0975 54.1869 54.1556 57.8314C54.176 59.0889 54.6883 60.2879 55.5821 61.1699C56.476 62.0518 57.6796 62.546 58.9334 62.5457C59.9671 62.5455 60.973 62.2091 61.8 61.587C62.6271 60.9649 63.2307 60.0905 63.5205 59.0951C62.642 59.8986 61.4955 60.3433 60.3067 60.3416Z" fill="white"/>
<path d="M17.3783 80.2535L19.0619 80.2534L19.8629 73.7393L17.3779 73.7394L17.3783 80.2535Z" fill="#FFB8B8"/>
<path d="M22.3086 81.8213L17.0171 81.8215L17.017 79.7708L20.2641 79.7706C20.8063 79.7706 21.3263 79.9867 21.7097 80.3712C22.0932 80.7558 22.3086 81.2774 22.3086 81.8213L22.3086 81.8213Z" fill="#2E3A59"/>
<path d="M11.3354 80.2535L13.0189 80.2534L13.82 73.7393L11.335 73.7394L11.3354 80.2535Z" fill="#FFB8B8"/>
<path d="M16.2656 81.8213L10.9742 81.8215L10.9741 79.7708L14.2211 79.7706C14.7633 79.7706 15.2833 79.9867 15.6668 80.3712C16.0502 80.7558 16.2656 81.2774 16.2656 81.8213L16.2656 81.8213Z" fill="#2E3A59"/>
<path d="M12.8064 78.2508L11.1618 78.164C11.077 78.1596 10.994 78.1383 10.9174 78.1013C10.8409 78.0644 10.7724 78.0127 10.716 77.949C10.6596 77.8854 10.6163 77.8111 10.5886 77.7306C10.561 77.65 10.5496 77.5648 10.555 77.4798L12.5206 55.6504L21.5722 58.1004L22.4443 57.8618L19.7171 77.1867C19.6939 77.332 19.6219 77.4651 19.5131 77.5639C19.4043 77.6627 19.2651 77.7213 19.1186 77.7301L17.3458 77.8129C17.2572 77.8178 17.1685 77.8043 17.0853 77.7731C17.0022 77.7419 16.9264 77.6937 16.8628 77.6316C16.7991 77.5695 16.749 77.4949 16.7156 77.4124C16.6821 77.3299 16.6662 77.2413 16.6686 77.1523L16.9898 65.5539C16.9913 65.5002 16.9727 65.448 16.9377 65.4074C16.9027 65.3668 16.8539 65.3409 16.8007 65.3346C16.7476 65.3284 16.6941 65.3424 16.6507 65.3738C16.6073 65.4052 16.5773 65.4517 16.5664 65.5042L13.4686 77.7386C13.4394 77.8837 13.3609 78.0142 13.2464 78.1078C13.132 78.2014 12.9888 78.2523 12.8412 78.2518C12.8296 78.2518 12.818 78.2515 12.8064 78.2508Z" fill="#2E3A59"/>
<path d="M17.6806 37.7893C19.5435 37.7893 21.0536 36.2745 21.0536 34.4059C21.0536 32.5373 19.5435 31.0225 17.6806 31.0225C15.8178 31.0225 14.3076 32.5373 14.3076 34.4059C14.3076 36.2745 15.8178 37.7893 17.6806 37.7893Z" fill="#FFB8B8"/>
<path d="M12.0645 44.3458L12.4354 52.3725L12.5694 55.2926C12.5748 55.4198 12.6178 55.5424 12.693 55.6449C12.7682 55.7473 12.8722 55.825 12.9916 55.8678L21.6896 59.0284C21.7599 59.0546 21.8343 59.0677 21.9093 59.067C21.995 59.0674 22.0798 59.0505 22.1589 59.0173C22.2379 58.9841 22.3094 58.9352 22.3692 58.8737C22.429 58.8121 22.4758 58.7391 22.5068 58.659C22.5378 58.5789 22.5524 58.4933 22.5498 58.4074L22.1932 43.9753C22.1698 42.7912 21.7352 41.6524 20.9645 40.7552C20.1938 39.8581 19.1351 39.2588 17.9711 39.0606C17.887 39.0477 17.8014 39.0348 17.7158 39.0234C16.994 38.9335 16.2613 39.0034 15.5694 39.2281C14.8774 39.4528 14.2429 39.8268 13.7105 40.324C13.1593 40.8325 12.7261 41.4563 12.4417 42.1513C12.1573 42.8463 12.0285 43.5954 12.0645 44.3458L12.0645 44.3458Z" fill="white"/>
<path d="M25.8441 57.4261C25.6384 57.3621 25.4504 57.2507 25.2953 57.1009C25.1401 56.951 25.022 56.7669 24.9503 56.5631C24.8787 56.3593 24.8555 56.1416 24.8827 55.9273C24.9099 55.7129 24.9866 55.5079 25.1068 55.3286L22.1572 51.3943L24.7026 51.2363L27.1133 54.9966C27.3714 55.1968 27.551 55.4817 27.6206 55.8014C27.6902 56.1211 27.6453 56.4551 27.4939 56.745C27.3425 57.0348 27.0942 57.262 26.7925 57.3865C26.4908 57.5111 26.1551 57.5251 25.8441 57.4261H25.8441Z" fill="#FFB8B8"/>
<path d="M23.7704 54.6172C23.6923 54.5854 23.6212 54.5383 23.5613 54.4788C23.5014 54.4192 23.4538 54.3483 23.4214 54.2703L18.9776 43.6502C18.8904 43.4422 18.845 43.2191 18.8438 42.9935C18.8426 42.7679 18.8857 42.5443 18.9707 42.3355C19.0557 42.1267 19.1809 41.9367 19.3392 41.7764C19.4974 41.6161 19.6856 41.4887 19.893 41.4014C20.1003 41.3141 20.3228 41.2686 20.5477 41.2676C20.7726 41.2666 20.9954 41.31 21.2036 41.3955C21.4117 41.4809 21.601 41.6066 21.7607 41.7655C21.9203 41.9243 22.0472 42.1132 22.1341 42.3212L26.5779 52.9415C26.6436 53.0989 26.6443 53.2761 26.5799 53.4341C26.5155 53.5921 26.3913 53.718 26.2345 53.7843L24.2617 54.6148C24.184 54.6478 24.1006 54.665 24.0163 54.6654C23.9319 54.6658 23.8484 54.6494 23.7704 54.6172L23.7704 54.6172Z" fill="white"/>
<path d="M16.5963 54.2424L20.8644 46.0448C20.9467 45.8872 21.088 45.7687 21.2573 45.7154C21.4266 45.6621 21.61 45.6784 21.7673 45.7606L27.9626 49.0061C28.1197 49.0886 28.2378 49.2304 28.2909 49.4002C28.3441 49.57 28.3279 49.754 28.2459 49.9118L23.9778 58.1094C23.8955 58.2671 23.7542 58.3855 23.5849 58.4388C23.4156 58.4921 23.2322 58.4759 23.0748 58.3937L16.8796 55.1482C16.7225 55.0656 16.6044 54.9239 16.5512 54.7541C16.4981 54.5843 16.5143 54.4003 16.5963 54.2424Z" fill="#3F3D56"/>
<path d="M19.4579 50.4968C19.382 50.2946 19.2601 50.1129 19.1018 49.9664C18.9435 49.8198 18.7532 49.7124 18.5462 49.6528C18.3392 49.5931 18.1212 49.5827 17.9095 49.6226C17.6977 49.6625 17.4983 49.7514 17.3269 49.8823L13.2374 47.1611L13.2305 49.7192L17.115 51.9111C17.3294 52.1577 17.6236 52.3207 17.9458 52.3716C18.2681 52.4224 18.5979 52.3577 18.8774 52.189C19.1569 52.0203 19.3683 51.7582 19.4744 51.4488C19.5806 51.1393 19.5747 50.8023 19.4579 50.4968Z" fill="#FFB8B8"/>
<path d="M14.2878 51.0726L10.9456 48.417C10.5841 48.2952 10.2574 48.0872 9.99358 47.8109C9.72979 47.5346 9.53678 47.1982 9.43112 46.8306C9.32546 46.463 9.31031 46.0752 9.38697 45.7004C9.46363 45.3257 9.62981 44.9751 9.87124 44.679L12.9059 40.6897C13.1167 40.4312 13.4133 40.2575 13.7414 40.2002C14.0694 40.143 14.4071 40.2062 14.6925 40.3781C14.978 40.55 15.1923 40.8193 15.2962 41.1366C15.4 41.4539 15.3866 41.7982 15.2583 42.1064L12.8572 46.0462L16.3858 47.725C16.4678 47.764 16.5407 47.8201 16.5996 47.8894C16.6584 47.9588 16.7019 48.0399 16.7272 48.1274C16.7525 48.2149 16.759 48.3068 16.7463 48.397C16.7335 48.4872 16.7018 48.5736 16.6533 48.6506L15.229 50.9117C15.1808 50.988 15.1172 51.0534 15.0423 51.1035C14.9674 51.1536 14.8828 51.1873 14.7941 51.2025C14.7906 51.2032 14.787 51.2037 14.7835 51.2042C14.6963 51.2175 14.6073 51.2126 14.522 51.1899C14.4368 51.1673 14.3571 51.1274 14.2878 51.0726Z" fill="white"/>
<path d="M15.1319 36.671C15.1175 36.6285 15.1129 36.5833 15.1185 36.5387C15.1242 36.4942 15.1399 36.4516 15.1645 36.4141C15.1891 36.3766 15.2219 36.3453 15.2605 36.3225C15.299 36.2997 15.3423 36.2861 15.3869 36.2826C15.4782 36.2876 15.5676 36.3111 15.6497 36.3517C15.7317 36.3923 15.8047 36.4492 15.8642 36.5189C15.9863 36.66 16.1284 36.7825 16.286 36.8821C16.4492 36.9646 16.6705 36.9529 16.7635 36.7956C16.8508 36.6479 16.791 36.4501 16.7381 36.2785C16.6035 35.842 16.5283 35.3894 16.5143 34.9327C16.499 34.4229 16.5707 33.891 16.8521 33.4934C17.2151 32.9803 17.8644 32.7855 18.4788 32.7996C19.0932 32.8138 19.6977 33.004 20.3063 33.1243C20.5164 33.1658 20.7634 33.187 20.9039 33.0237C21.0533 32.85 20.9984 32.5689 20.9349 32.3344C20.7699 31.7259 20.595 31.0967 20.2118 30.6053C19.7975 30.0946 19.2056 29.7604 18.5555 29.6699C17.9313 29.5923 17.2976 29.6645 16.7067 29.8804C15.7438 30.1848 14.8966 30.7769 14.2783 31.5774C13.6409 32.4287 13.3655 33.4985 13.5122 34.5529C13.6556 35.4713 14.1408 36.3009 14.8698 36.8747L15.1319 36.671Z" fill="#2F2E41"/>
<path d="M57.8522 80.2805C56.9548 79.8885 56.1605 79.2926 55.532 78.5399C54.9036 77.7872 54.4581 76.8982 54.2307 75.9432C54.0034 74.9882 54.0004 73.9933 54.2221 73.037C54.4437 72.0807 54.8839 71.1891 55.5079 70.4326C54.7844 70.9625 54.1816 71.6406 53.7394 72.4221C53.2972 73.2035 53.0257 74.0703 52.943 74.9651C52.8603 75.8598 52.9682 76.7619 53.2597 77.6116C53.5511 78.4612 54.0194 79.239 54.6334 79.8933C55.2474 80.5475 55.9932 81.0633 56.8211 81.4064C57.649 81.7494 58.5403 81.912 59.4356 81.8831C60.3309 81.8543 61.2099 81.6348 62.0142 81.2391C62.8185 80.8435 63.5297 80.2808 64.1006 79.5883C63.2101 80.2412 62.1647 80.6486 61.0684 80.7701C59.9721 80.8915 58.8632 80.7227 57.8522 80.2805Z" fill="white"/>
</g>
<defs>
<clipPath id="clip0_5299_981">
<rect width="116" height="82" fill="white"/>
</clipPath>
</defs>
</svg>
