<svg width="136" height="90" viewBox="0 0 136 90" fill="none" xmlns="http://www.w3.org/2000/svg">
<g clip-path="url(#clip0)">
<path opacity="0.1" d="M79.2726 17.95C71.2717 17.6672 63.6515 15.0987 56.3799 12.2941C49.1084 9.48955 41.8961 6.36897 34.0868 4.87999C29.064 3.92218 23.3191 3.78693 19.2729 6.46487C15.3775 9.04691 14.119 13.4917 13.4428 17.6205C12.9335 20.7263 12.6343 23.9944 14.0288 26.9023C14.998 28.9212 16.7164 30.618 17.9057 32.5521C22.0433 39.2801 19.1184 47.5771 14.6358 54.1465C12.5342 57.229 10.0926 60.1713 8.46943 63.4492C6.84624 66.7272 6.09585 70.4883 7.51629 73.8352C8.92313 77.1549 12.277 79.6435 15.9104 81.3956C23.2895 84.9539 31.9815 85.9732 40.4633 86.5498C59.2332 87.8273 78.1019 87.274 96.9212 86.7208C103.886 86.5154 110.881 86.3076 117.732 85.2367C121.537 84.6416 125.465 83.6973 128.228 81.419C131.734 78.5259 132.603 73.6261 130.253 69.999C126.312 63.914 115.418 62.4029 112.66 55.8715C111.144 52.2776 112.701 48.273 114.905 44.9397C119.632 37.7887 127.555 31.5143 127.972 23.3391C128.259 17.725 124.45 12.1023 118.56 9.44528C112.388 6.66037 103.827 7.01079 99.275 11.6203C94.5797 16.3615 86.3377 18.1873 79.2726 17.95Z" fill="#218FF4"/>
<path d="M21.1718 90C26.1703 90 30.2224 89.2249 30.2224 88.2688C30.2224 87.3127 26.1703 86.5376 21.1718 86.5376C16.1734 86.5376 12.1213 87.3127 12.1213 88.2688C12.1213 89.2249 16.1734 90 21.1718 90Z" fill="#218FF4"/>
<path d="M21.0198 88.9057C21.6015 88.9057 22.0731 88.2914 22.0731 87.5335C22.0731 86.7757 21.6015 86.1614 21.0198 86.1614C20.4381 86.1614 19.9666 86.7757 19.9666 87.5335C19.9666 88.2914 20.4381 88.9057 21.0198 88.9057Z" fill="#3F3D56"/>
<path d="M21.0198 87.2287C21.6015 87.2287 22.0731 86.6144 22.0731 85.8565C22.0731 85.0987 21.6015 84.4844 21.0198 84.4844C20.4381 84.4844 19.9666 85.0987 19.9666 85.8565C19.9666 86.6144 20.4381 87.2287 21.0198 87.2287Z" fill="#3F3D56"/>
<path d="M21.0198 85.5515C21.6015 85.5515 22.0731 84.9371 22.0731 84.1793C22.0731 83.4215 21.6015 82.8071 21.0198 82.8071C20.4381 82.8071 19.9666 83.4215 19.9666 84.1793C19.9666 84.9371 20.4381 85.5515 21.0198 85.5515Z" fill="#3F3D56"/>
<path d="M21.0198 83.8757C21.6015 83.8757 22.0731 83.2613 22.0731 82.5035C22.0731 81.7457 21.6015 81.1313 21.0198 81.1313C20.4381 81.1313 19.9666 81.7457 19.9666 82.5035C19.9666 83.2613 20.4381 83.8757 21.0198 83.8757Z" fill="#3F3D56"/>
<path d="M21.0198 82.1984C21.6015 82.1984 22.0731 81.5841 22.0731 80.8263C22.0731 80.0684 21.6015 79.4541 21.0198 79.4541C20.4381 79.4541 19.9666 80.0684 19.9666 80.8263C19.9666 81.5841 20.4381 82.1984 21.0198 82.1984Z" fill="#3F3D56"/>
<path d="M21.0198 80.5214C21.6015 80.5214 22.0731 79.9071 22.0731 79.1493C22.0731 78.3914 21.6015 77.7771 21.0198 77.7771C20.4381 77.7771 19.9666 78.3914 19.9666 79.1493C19.9666 79.9071 20.4381 80.5214 21.0198 80.5214Z" fill="#3F3D56"/>
<path d="M21.0198 78.8444C21.6015 78.8444 22.0731 78.2301 22.0731 77.4723C22.0731 76.7144 21.6015 76.1001 21.0198 76.1001C20.4381 76.1001 19.9666 76.7144 19.9666 77.4723C19.9666 78.2301 20.4381 78.8444 21.0198 78.8444Z" fill="#3F3D56"/>
<path d="M24.9646 65.997C25.1089 65.815 25.2403 65.6231 25.3577 65.4228L22.5885 64.9703L25.5827 64.9925C25.8702 64.3709 26.027 63.6975 26.0436 63.0136C26.0602 62.3296 25.9362 61.6495 25.6791 61.0149L21.6626 63.0879L25.3713 60.3829C25.0239 59.787 24.5569 59.2686 23.9994 58.8599C23.4418 58.4512 22.8057 58.161 22.1305 58.0073C21.4554 57.8537 20.7557 57.8399 20.0749 57.9668C19.3942 58.0936 18.747 58.3585 18.1736 58.7449C17.6002 59.1313 17.1128 59.6309 16.7419 60.2126C16.371 60.7943 16.1245 61.4458 16.0176 62.1264C15.9107 62.807 15.9458 63.5022 16.1207 64.1687C16.2956 64.8352 16.6065 65.4588 17.0341 66.0007C16.8098 66.2847 16.6167 66.5918 16.458 66.9167L20.053 68.7733L16.2207 67.4946C15.9511 68.2856 15.8843 69.131 16.0263 69.9542C16.1684 70.7774 16.5148 71.5523 17.0341 72.2086C16.4484 72.9491 16.084 73.8386 15.9826 74.7753C15.8812 75.7121 16.0469 76.6583 16.4608 77.5058C16.8746 78.3533 17.5199 79.0679 18.3228 79.5678C19.1257 80.0677 20.0539 80.3329 21.0012 80.3329C21.9485 80.3329 22.8767 80.0677 23.6796 79.5678C24.4825 79.0679 25.1278 78.3533 25.5416 77.5058C25.9555 76.6583 26.1212 75.7121 26.0198 74.7753C25.9184 73.8386 25.554 72.9491 24.9683 72.2086C25.6682 71.3238 26.0488 70.2306 26.0488 69.1047C26.0488 67.9788 25.6682 66.8856 24.9683 66.0007L24.9646 65.997Z" fill="#218FF4"/>
<path opacity="0.1" d="M15.9548 69.099C15.9533 70.2249 16.3341 71.3184 17.0353 72.2023C16.4496 72.9428 16.0852 73.8323 15.9838 74.769C15.8824 75.7058 16.0481 76.652 16.462 77.4995C16.8758 78.347 17.5211 79.0616 18.324 79.5615C19.1269 80.0614 20.0551 80.3266 21.0024 80.3266C21.9497 80.3266 22.8779 80.0614 23.6808 79.5615C24.4837 79.0616 25.129 78.347 25.5428 77.4995C25.9567 76.652 26.1224 75.7058 26.021 74.769C25.9196 73.8323 25.5552 72.9428 24.9695 72.2023C25.642 71.3503 15.9548 68.5371 15.9548 69.099Z" fill="black"/>
<path d="M65.02 67.3776C65.0966 68.3612 65.4774 69.3793 66.2785 69.9596C67.0795 70.54 68.3541 70.5289 68.966 69.7494C69.1715 69.4567 69.3227 69.1298 69.4123 68.7842C69.9278 67.1636 70.2938 65.3906 69.7288 63.7861C68.4542 63.7037 66.9769 63.1074 66.0201 64.1549C65.2474 65.0082 64.9309 66.2402 65.02 67.3776Z" fill="#3F3D56"/>
<path d="M70.9368 57.4639C70.7674 58.8939 70.4794 60.3177 70.5091 61.7575C70.5202 62.3132 70.5795 62.8641 70.5808 63.4223C70.5829 64.8717 70.199 66.2959 69.4682 67.5498C69.3912 67.6973 69.2882 67.8297 69.164 67.9408C68.871 68.1769 68.4297 68.1572 68.1009 67.9765C67.7796 67.7777 67.5186 67.496 67.3455 67.1613C66.4245 65.5924 66.3986 63.6854 66.0339 61.9062C65.7545 60.5451 65.2649 59.2258 65.0882 57.8488C64.9732 56.9623 64.9905 56.0586 64.8075 55.1831C64.7519 54.9188 64.5961 54.5216 64.4935 54.1319C64.3996 53.7839 64.3477 53.4421 64.4441 53.2072C64.6406 52.7265 65.2847 52.9134 65.7038 52.9429C67.1796 53.0517 68.6617 53.048 70.137 52.9318C70.2828 52.9208 70.4485 52.9146 70.5511 53.0179C70.5959 53.0701 70.6295 53.1307 70.65 53.1962C70.7675 53.5158 70.8572 53.8449 70.9183 54.1798C71.1222 55.2507 71.0654 56.3733 70.9368 57.4639Z" fill="#FABDBD"/>
<g opacity="0.1">
<path opacity="0.1" d="M70.3682 52.9315C70.2922 52.9235 70.2155 52.9235 70.1395 52.9315C69.4323 52.9881 68.724 53.0164 68.0168 53.0201C68.8006 53.0217 69.5844 52.9922 70.3682 52.9315Z" fill="black"/>
<path opacity="0.1" d="M68.3506 67.9763C68.0293 67.7775 67.7682 67.4958 67.5952 67.1611C66.6742 65.5922 66.6483 63.6852 66.2836 61.9061C66.0042 60.545 65.5146 59.2257 65.3379 57.8486C65.2229 56.9621 65.2402 56.0584 65.0572 55.1829C65.0016 54.9186 64.8458 54.5214 64.7432 54.1317C64.6493 53.7837 64.5973 53.4419 64.6938 53.2071C64.7347 53.1108 64.8037 53.0289 64.8918 52.9719C64.9799 52.9149 65.0832 52.8855 65.1883 52.8874C64.8755 52.8665 64.5701 52.9034 64.4465 53.2071C64.3501 53.4419 64.402 53.7837 64.496 54.1317C64.5986 54.5214 64.7543 54.9186 64.81 55.1829C64.9929 56.0584 64.9756 56.9621 65.0906 57.8486C65.2674 59.2269 65.7569 60.5462 66.0363 61.9061C66.401 63.6852 66.427 65.5947 67.348 67.1611C67.521 67.4958 67.782 67.7775 68.1033 67.9763C68.3007 68.0849 68.5268 68.1304 68.7511 68.1066C68.6106 68.0883 68.4748 68.0441 68.3506 67.9763Z" fill="black"/>
</g>
<path d="M75.6109 65.0046C74.8692 66.48 74.9928 68.5703 74.9928 68.5703C75.1164 73.4884 73.1384 83.8166 73.1384 83.8166H71.4077C71.4077 83.8166 71.1604 72.3818 71.4077 71.3982C71.6549 70.4146 71.2841 66.9719 70.9132 62.1766C70.6375 58.611 71.3879 55.3797 71.7909 53.9621C71.9294 53.4703 72.0258 53.201 72.0258 53.201C72.0258 53.201 74.8692 49.0205 76.4763 50.9878C76.8471 51.4452 77.0437 52.3686 77.1117 53.5342C77.3318 57.3802 76.1796 63.8722 75.6109 65.0046Z" fill="#FABDBD"/>
<path opacity="0.1" d="M77.1117 53.5343C77.0437 52.3687 76.8496 51.4441 76.4763 50.9879C76.1178 50.5502 75.6975 50.4174 75.2623 50.4752C75.5996 50.5308 75.9019 50.7147 76.1054 50.9879C76.4763 51.4453 76.6729 52.3687 76.7408 53.5343C76.9609 57.3803 75.8087 63.8723 75.2401 65.0047C74.4983 66.4801 74.6219 68.5703 74.6219 68.5703C74.7456 73.4885 72.7676 83.8167 72.7676 83.8167H73.1384C73.1384 83.8167 75.1164 73.4885 74.9928 68.5703C74.9928 68.5703 74.8692 66.4801 75.6109 65.0047C76.1796 63.8723 77.3318 57.3803 77.1117 53.5343Z" fill="black"/>
<path d="M70.5076 83.3678C70.3695 83.4756 70.2501 83.6052 70.1541 83.7514C69.9328 84.167 70.2468 84.6638 70.583 84.9945C70.9193 85.3253 71.3248 85.6794 71.3248 86.1503C71.3248 86.529 71.0367 86.8536 70.7141 87.0552C70.541 87.1634 70.3234 87.3011 70.3593 87.5052C70.3719 87.5569 70.3941 87.6057 70.4248 87.6491C70.7017 88.0708 71.1925 88.318 71.6895 88.4114C72.1864 88.5049 72.6995 88.4643 73.2051 88.4237C73.2808 88.4264 73.3549 88.401 73.4128 88.3524C73.4494 88.3034 73.4689 88.2438 73.4684 88.1827C73.4931 87.9221 73.4771 87.6466 73.592 87.4118C73.7527 87.0909 74.1224 86.9273 74.3338 86.6396C74.6305 86.2462 74.5897 85.699 74.4772 85.2207C74.2299 84.1793 73.6798 82.9916 72.854 82.2699C71.8972 81.4411 71.1468 82.769 70.5076 83.3678Z" fill="#3F3D56"/>
<path d="M74.2536 21.3928C74.9434 20.3674 74.7642 18.9337 74.0595 17.9132C73.3549 16.8927 72.2225 16.2509 71.0542 15.8365C69.4792 15.2783 67.7423 15.0877 66.1241 15.507C64.8359 15.8402 63.6788 16.5373 62.4648 17.0759C60.3171 18.029 57.9819 18.4911 55.6309 18.4284C53.0212 18.3558 50.1618 17.6906 47.9724 19.1095C43.9645 21.7026 45.7471 28.7602 41.9556 31.6509C40.9332 32.4304 39.6463 32.771 38.509 33.3722C37.3716 33.9735 36.2936 35.0198 36.3208 36.301C36.3332 36.9158 36.6052 37.5022 36.9389 38.0223C38.3606 40.2638 41.0185 41.6507 43.6802 41.6249C46.3418 41.5991 48.9391 40.1913 50.4733 38.0248C50.8578 37.4826 51.1965 36.8789 51.754 36.5174C52.8666 35.792 54.3328 36.2998 55.6606 36.408C58.6164 36.6477 61.5735 34.4407 62.1619 31.5451C62.4092 30.3094 62.3659 28.8328 63.366 28.0569C64.1733 27.4311 65.3094 27.5651 66.333 27.4581C68.2047 27.2651 69.682 26.1056 70.6982 24.5908C71.1642 23.8961 71.2186 23.0662 71.8541 22.5191C72.5389 21.9178 73.5984 22.3617 74.2536 21.3928Z" fill="#3F3D56"/>
<g opacity="0.1">
<path opacity="0.1" d="M53.1585 18.6657C54.2426 18.6953 55.3268 18.6129 56.3937 18.4198C56.0995 18.4284 55.8028 18.4284 55.5074 18.4198C53.4589 18.3633 51.2572 17.9428 49.3459 18.4493C50.6069 18.4616 51.9111 18.6313 53.1585 18.6657Z" fill="black"/>
<path opacity="0.1" d="M49.2791 36.7621C48.7215 37.1236 48.3828 37.7273 47.9983 38.2696C46.8166 39.9193 45.0895 41.1035 43.1189 41.6151C43.2635 41.6213 43.4082 41.625 43.5541 41.6238C46.2181 41.5979 48.813 40.1901 50.3472 38.0237C50.7317 37.4814 51.0704 36.8777 51.6279 36.5162L51.7244 36.4572C50.8516 36.338 49.9949 36.2962 49.2791 36.7621Z" fill="black"/>
<path opacity="0.1" d="M73.9346 17.9095C73.2311 16.8939 72.0975 16.2472 70.9293 15.8328C69.3543 15.2746 67.6174 15.084 65.9991 15.5033C65.962 15.5119 65.9262 15.523 65.8903 15.5328C66.8089 15.5838 67.7152 15.7677 68.5804 16.0787C69.7486 16.4931 70.8823 17.1398 71.5857 18.1554C72.2891 19.171 72.4696 20.6145 71.7798 21.635C71.1246 22.6076 70.0651 22.1638 69.3716 22.7625C68.7362 23.3097 68.6818 24.1396 68.2157 24.8343C67.3417 26.1339 66.1252 27.1704 64.6108 27.5639C65.1313 27.5024 65.6802 27.5098 66.1994 27.4557C68.0711 27.2627 69.5484 26.1032 70.5646 24.5884C71.0306 23.8937 71.085 23.0638 71.7205 22.5166C72.414 21.9178 73.4734 22.3617 74.1286 21.3891C74.8197 20.3637 74.6404 18.9251 73.9346 17.9095Z" fill="black"/>
<path opacity="0.1" d="M63.8519 27.7015C62.8345 27.8073 61.6984 27.6745 60.885 28.3003C59.8848 29.0761 59.9331 30.5528 59.6809 31.7885C59.2469 33.9488 57.4841 35.7304 55.3911 36.3932L55.5382 36.4067C58.4941 36.6464 61.4512 34.4394 62.0396 31.5438C62.2869 30.3082 62.2436 28.8315 63.2437 28.0556C63.4734 27.8848 63.7341 27.7595 64.0114 27.6868C63.9558 27.688 63.9051 27.6966 63.8519 27.7015Z" fill="black"/>
</g>
<path d="M93.7219 16.991C93.7219 16.991 90.7549 22.8928 89.7659 25.106C88.7769 27.3192 79.7523 30.6389 78.5161 30.7619C78.1845 30.8071 77.8756 30.9551 77.6334 31.1849C76.935 31.7996 76.5381 32.8521 76.5381 32.8521C76.5381 32.8521 77.0326 36.1719 76.4145 41.7048C76.4021 41.8118 76.391 41.9188 76.3811 42.022C75.8421 47.2869 76.9708 48.5288 76.9708 48.5288C76.9708 48.5288 64.9793 53.0781 65.3502 47.1763C65.4664 45.3184 65.4491 43.961 65.3341 42.8262C65.2083 41.6644 64.9706 40.5173 64.6245 39.4006C64.3315 38.3814 63.9816 37.2637 63.6194 35.7415C63.4451 34.9821 63.2153 34.2362 62.9321 33.5099C62.9234 33.4878 62.9148 33.4657 62.9073 33.4447C62.2892 31.9189 61.6711 31.4258 61.3175 31.266C60.9837 31.1216 60.6656 30.9436 60.3681 30.7348C59.2258 29.9147 56.7744 28.0766 54.5912 25.9052C51.6242 22.9543 48.6572 15.9459 48.6572 15.9459C48.6572 15.9459 47.7918 11.8884 49.7698 8.56866C51.7478 5.2489 50.8824 15.0852 50.8824 15.0852C50.8824 15.0852 54.4675 19.8804 55.3329 22.0936C55.7779 23.2322 56.4851 23.815 57.0636 24.1174C58.0195 24.6123 58.9347 25.1813 59.8007 25.8191C60.386 26.259 61.001 26.6584 61.6414 27.0142C63.0236 27.752 64.6789 28.5844 66.0585 28.8032C66.2739 28.8386 66.4917 28.8571 66.71 28.8586C66.8136 28.8618 66.9165 28.8414 67.0108 28.7987C67.1052 28.7561 67.1884 28.6924 67.254 28.6127C67.6248 28.1786 67.6162 27.2442 67.5309 26.4757C67.4853 26.0776 67.4176 25.6823 67.3281 25.2917C67.3281 25.2917 71.3459 22.7711 71.2223 25.845C71.2031 26.1846 71.2348 26.5252 71.3162 26.8556C71.382 27.1589 71.5276 27.4394 71.7381 27.6684C71.9485 27.8973 72.2164 28.0666 72.5142 28.159C72.9966 28.2997 73.5071 28.3162 73.9977 28.2069C74.1506 28.1809 74.2983 28.1307 74.4353 28.0581C74.8062 27.8122 78.5149 26.7056 79.6275 26.5827C80.7401 26.4597 86.3032 23.7547 86.3032 23.7547L92.3608 15.3938C92.3608 15.3938 92.2371 10.4757 94.7096 8.50841C97.1821 6.54115 93.7219 16.991 93.7219 16.991Z" fill="#FABDBD"/>
<g opacity="0.1">
<path opacity="0.1" d="M76.3812 41.2843C76.2732 42.2724 76.2257 43.266 76.239 44.2598C76.2514 43.6106 76.2946 42.8692 76.3812 42.022C76.3911 41.9188 76.4022 41.8118 76.4145 41.7048C76.6308 39.8113 76.734 37.9067 76.7236 36.001C76.7045 37.6605 76.6014 39.3179 76.4145 40.9671C76.4071 41.0741 76.3911 41.181 76.3812 41.2843Z" fill="black"/>
<path opacity="0.1" d="M67.4566 25.2129C67.3738 25.2608 67.333 25.2904 67.333 25.2904C67.4532 25.8163 67.5325 26.3507 67.5704 26.8888C67.5953 26.3277 67.5572 25.7656 67.4566 25.2129Z" fill="black"/>
<path opacity="0.1" d="M50.9406 14.4178C51.0012 13.5571 51.0914 12.014 51.0741 10.6418C51.0531 12.4763 50.8887 14.3477 50.8887 14.3477L50.9406 14.4178Z" fill="black"/>
<path opacity="0.1" d="M65.3589 47.0325C65.3589 47.0804 65.3589 47.1284 65.3502 47.1763C64.9794 53.0781 76.9709 48.5288 76.9709 48.5288C76.8307 48.3404 76.7248 48.129 76.6581 47.9042C74.852 48.5436 65.7755 51.5166 65.3589 47.0325Z" fill="black"/>
<path opacity="0.1" d="M93.7218 16.2534C93.7218 16.2534 90.7549 22.1552 89.7659 24.3683C88.7769 26.5815 79.7523 29.9013 78.5161 30.0242C78.1845 30.0694 77.8756 30.2174 77.6334 30.4472C76.9349 31.062 76.5381 32.1144 76.5381 32.1144C76.5381 32.1144 76.5678 32.3149 76.6036 32.696C76.7421 32.38 77.0981 31.6546 77.6334 31.1849C77.8756 30.9552 78.1845 30.8072 78.5161 30.762C79.7523 30.639 88.7769 27.3192 89.7659 25.1061C90.7549 22.8929 93.7218 16.9911 93.7218 16.9911C93.7218 16.9911 95.8123 10.6774 95.5824 8.78882C95.392 11.2086 93.7218 16.2534 93.7218 16.2534Z" fill="black"/>
<path opacity="0.1" d="M65.3341 42.0884C65.2083 40.9267 64.9707 39.7796 64.6245 38.6629C64.3315 37.6437 63.9817 36.526 63.6194 35.0038C63.4451 34.2444 63.2154 33.4985 62.9321 32.7722C62.9234 32.7501 62.9148 32.7279 62.9074 32.707C62.2893 31.1812 61.6711 30.6881 61.3176 30.5283C60.9837 30.3839 60.6656 30.2059 60.3681 29.9971C59.2259 29.177 56.7744 27.3389 54.5912 25.1675C51.6242 22.2166 48.6572 15.2082 48.6572 15.2082C48.5476 14.6166 48.4864 14.017 48.4743 13.4155C48.4441 14.2631 48.5054 15.1114 48.6572 15.9459C48.6572 15.9459 51.6242 22.9543 54.5912 25.9052C56.7744 28.0766 59.2259 29.9148 60.3681 30.7349C60.6679 30.9441 60.9886 31.122 61.325 31.266C61.6773 31.4259 62.2942 31.9189 62.9148 33.4448C62.9222 33.4657 62.9309 33.4878 62.9395 33.5099C63.2215 34.2363 63.45 34.9822 63.6232 35.7416C63.9854 37.2637 64.3352 38.3814 64.6282 39.4007C64.9744 40.5173 65.212 41.6644 65.3378 42.8262C65.3897 43.3401 65.4206 43.8996 65.4293 44.5291C65.4443 43.7144 65.4125 42.8995 65.3341 42.0884Z" fill="black"/>
</g>
<path d="M77.5778 36.7475C77.3891 37.0578 77.2238 37.3817 77.0833 37.7163C76.8967 38.2328 76.8954 38.7947 76.8608 39.3418C76.8115 40.1096 76.694 40.8717 76.5097 41.6189C76.4799 41.7565 76.4386 41.8914 76.3861 42.0222C76.3492 42.1102 76.3005 42.1929 76.2415 42.2681C76.1755 42.3483 76.0981 42.4183 76.0115 42.4759C75.8789 42.5639 75.7386 42.64 75.5924 42.7034C73.8716 43.5026 71.995 44.2083 70.1171 43.9329C69.3233 43.7949 68.5551 43.5378 67.8387 43.1706C67.1588 42.8423 66.3899 42.4525 65.6852 42.7255C65.5771 42.7801 65.4605 42.8162 65.3403 42.8325C65.3171 42.8329 65.2939 42.8308 65.2711 42.8263C65.0387 42.7821 65.0387 42.0025 64.9855 41.7726C64.7828 40.8898 64.7518 40.1742 64.6307 39.407C64.5663 38.9827 64.4667 38.5644 64.3328 38.1565C63.8383 36.6688 63.6887 35.0827 63.6887 33.5236C63.6887 33.4461 63.1324 33.5236 62.9469 33.5162C62.9 33.5162 62.874 33.5089 62.8851 33.4929C62.8959 33.4776 62.9083 33.4636 62.9222 33.4511C62.987 33.3988 63.0625 33.3614 63.1435 33.3416L63.2894 33.2986C64.0534 33.0834 64.8965 32.9937 65.4676 32.4588C66.061 31.9068 66.2094 31.0252 66.1834 30.2186C66.176 29.9592 66.0487 29.3296 66.0697 28.8071C66.2851 28.8425 66.5029 28.861 66.7212 28.8624C66.8247 28.8657 66.9277 28.8452 67.022 28.8026C67.1163 28.7599 67.1995 28.6963 67.2651 28.6165C67.4714 29.0136 67.6498 29.4245 67.7992 29.846C68.0093 30.36 68.1701 30.901 68.4779 31.3658C68.9724 32.1232 69.8847 32.6211 70.7921 32.5449C71.6995 32.4687 72.5439 31.7752 72.7058 30.885C72.848 30.1042 72.5179 28.9804 72.5253 28.1689C73.0077 28.3097 73.5182 28.3262 74.0088 28.2169C74.0297 28.267 74.0474 28.3183 74.062 28.3706C74.3401 29.3198 74.711 30.4092 75.6444 30.7461C76.2476 30.9625 76.9609 30.8002 77.5185 31.1149C77.5613 31.1394 77.6026 31.1665 77.6421 31.1961C77.7708 31.2913 77.8817 31.4082 77.9697 31.5416C78.1988 31.9176 78.3348 32.3424 78.3666 32.781C78.5093 34.1519 78.2345 35.5338 77.5778 36.7475Z" fill="#218FF4"/>
<path opacity="0.1" d="M71.3162 26.8545C70.6995 27.091 70.0356 27.1798 69.378 27.1138C68.7204 27.0478 68.0876 26.8288 67.5309 26.4746C67.4853 26.0765 67.4176 25.6812 67.3281 25.2906C67.3281 25.2906 71.3459 22.77 71.2223 25.8439C71.2031 26.1835 71.2348 26.5241 71.3162 26.8545Z" fill="black"/>
<path d="M69.7994 26.889C72.1208 26.889 74.0026 25.0173 74.0026 22.7085C74.0026 20.3997 72.1208 18.5281 69.7994 18.5281C67.478 18.5281 65.5962 20.3997 65.5962 22.7085C65.5962 25.0173 67.478 26.889 69.7994 26.889Z" fill="#FABDBD"/>
<path d="M62.4451 33.0981C62.4451 33.0981 70.6043 27.934 95.9472 33.4669C121.29 38.9999 136.001 34.5735 136.001 34.5735V40.3524C136.001 40.3524 107.568 43.4262 96.6889 40.3524C85.81 37.2785 70.3236 35.5055 64.9002 40.2651L62.4451 33.0981Z" fill="#F86D70"/>
<path opacity="0.1" d="M62.4451 33.0981C62.4451 33.0981 70.6043 27.934 95.9472 33.4669C121.29 38.9999 136.001 34.5735 136.001 34.5735V40.3524C136.001 40.3524 107.568 43.4262 96.6889 40.3524C85.81 37.2785 70.3236 35.5055 64.9002 40.2651L62.4451 33.0981Z" fill="black"/>
<path d="M62.6921 33.3439C62.6921 33.3439 70.6041 28.1799 95.947 33.7128C121.29 39.2457 135.754 34.8194 135.754 34.8194L135.878 40.1064C135.878 40.1064 107.691 43.1803 96.8124 40.1064C85.9335 37.0326 70.5707 34.8907 65.1473 39.6503L62.6921 33.3439Z" fill="#F86D70"/>
<path d="M59.329 41.4267C59.329 41.4267 52.4786 46.6381 31.201 41.0545C9.92339 35.4708 10.9613 39.9377 10.9613 39.9377V34.106C10.9613 34.106 21.4444 31.004 30.5782 34.106C39.712 37.208 52.7142 38.9972 57.2676 34.1941L59.329 41.4267Z" fill="#F86D70"/>
<path opacity="0.1" d="M59.329 41.4267C59.329 41.4267 52.4786 46.6381 31.201 41.0545C9.92339 35.4708 10.9613 39.9377 10.9613 39.9377V34.106C10.9613 34.106 21.4444 31.004 30.5782 34.106C39.712 37.208 52.7142 38.9972 57.2676 34.1941L59.329 41.4267Z" fill="black"/>
<path d="M59.3288 41.3214C59.3288 41.3214 52.768 46.7811 31.7531 40.9314C10.7381 35.0816 11.9682 39.7614 11.9682 39.7614L11.8657 34.1717C11.8657 34.1717 22.0144 30.9218 31.0355 34.1717C40.0565 37.4215 52.7957 39.686 57.2929 34.654L59.3288 41.3214Z" fill="#F86D70"/>
<path d="M66.1845 23.4006C66.0608 22.6334 65.8705 21.667 66.5158 21.228C66.7459 21.0892 67.012 21.0208 67.281 21.0313C68.6174 21.0178 69.8944 21.9436 71.2048 21.6731C71.6219 21.5862 72.0048 21.3813 72.3075 21.0831C72.6103 20.7849 72.8199 20.4061 72.9114 19.9921C73.0028 19.5782 72.972 19.1468 72.8228 18.7499C72.6736 18.353 72.4122 18.0073 72.0702 17.7546C71.5547 17.3734 70.9032 17.2357 70.2727 17.1066C68.6149 16.7673 66.8842 16.4291 65.2474 16.8607C63.6106 17.2923 62.1148 18.7517 62.2458 20.4264C62.3076 21.228 62.718 21.9559 63.147 22.6396C63.4734 23.1584 64.7442 25.5905 65.3611 25.6273C66.2314 25.6778 66.2698 23.9023 66.1845 23.4006Z" fill="#3F3D56"/>
<path d="M76.5999 46.4385C76.5999 46.4385 68.0699 48.5287 65.2265 46.4385C65.2265 46.4385 63.9903 51.2337 64.3612 53.6928C64.3612 53.6928 70.4187 54.0617 71.0368 54.4305C71.0368 54.4305 71.1605 53.4469 71.7786 53.9387C71.7786 53.9387 73.8802 51.4796 77.7125 53.6928C77.7125 53.6928 78.4543 47.9139 76.5999 46.4385Z" fill="#218FF4"/>
<path opacity="0.1" d="M72.0727 17.7547C71.9848 17.6913 71.8927 17.6338 71.7971 17.5825C72.0522 17.871 72.2267 18.2209 72.3032 18.5975C72.3796 18.974 72.3554 19.3639 72.2329 19.7282C72.1104 20.0926 71.8939 20.4185 71.605 20.6735C71.3161 20.9285 70.965 21.1036 70.5868 21.1814C69.2764 21.4519 67.9993 20.526 66.663 20.5396C66.394 20.5291 66.1279 20.5975 65.8977 20.7363C65.2524 21.1752 65.4416 22.1417 65.5652 22.9089C65.6468 23.4105 65.6134 25.186 64.7455 25.1381H64.7307C64.9693 25.427 65.1918 25.6225 65.3637 25.6299C66.229 25.6778 66.2649 23.9085 66.1833 23.4007C66.0597 22.6335 65.8705 21.6671 66.5158 21.2281C66.746 21.0893 67.0121 21.0209 67.2811 21.0314C68.6175 21.0179 69.8945 21.9437 71.2049 21.6732C71.6219 21.5863 72.0048 21.3814 72.3076 21.0832C72.6103 20.785 72.82 20.4061 72.9114 19.9922C73.0028 19.5783 72.9721 19.1469 72.8229 18.75C72.6736 18.353 72.4123 18.0074 72.0703 17.7547H72.0727Z" fill="black"/>
<g opacity="0.1">
<path opacity="0.1" d="M10.6763 11.9144C10.6763 11.9144 1.43292 8.04867 0.221408 15.0202C0.221408 15.0202 -0.410311 16.1059 0.468656 17.0034C0.468656 17.0034 0.657801 16.5227 1.5516 17.0206C1.87067 17.1951 2.20925 17.3317 2.56037 17.4276C3.03486 17.5578 3.53903 17.531 3.99689 17.3514C3.99689 17.3514 7.0368 17.1879 9.59334 13.2324C9.59334 13.2324 10.6887 12.5586 10.7443 12.3066L8.91218 12.4295C8.91218 12.4295 9.05187 13.7636 8.29406 14.564C8.29406 14.564 8.96781 12.4947 8.64391 12.4357C8.57839 12.4234 7.67594 12.5426 7.67594 12.5426C7.67594 12.5426 7.90959 14.8616 6.68694 16.0616C6.68694 16.0616 7.82181 13.7021 7.32732 12.5845L5.97611 12.8439C5.97611 12.8439 6.34698 15.2833 5.00937 16.7034C5.00937 16.7034 6.10838 14.1952 5.68435 12.9201L4.38877 13.3529C4.38877 13.3529 4.70154 15.7407 3.58274 16.9186C3.58274 16.9186 4.55937 13.8927 4.09949 13.4759C4.09949 13.4759 2.93496 13.9456 2.68524 14.2136C2.68524 14.2136 2.87067 15.935 2.1586 16.5497C2.1586 16.5497 2.59623 14.4595 2.37988 14.3734C2.37988 14.3734 1.0262 15.3866 0.614533 16.2608C0.614533 16.2608 1.12881 14.9255 2.20928 14.1706C2.20928 14.1706 1.30188 14.0181 0.60217 14.3956C0.60217 14.3956 1.07071 13.5091 2.53689 13.9296C2.53689 13.9296 3.62354 13.182 3.84112 13.1918C3.84112 13.1918 2.45406 12.5771 1.45147 12.6521C1.45147 12.6521 2.52576 12.0373 4.18109 13.0652L5.47172 12.6004C5.47172 12.6004 3.68041 11.6869 2.78166 11.6906C2.78166 11.6906 3.97587 11.232 5.80798 12.5107L7.12952 12.2414C7.12952 12.2414 5.64603 11.3377 4.64591 11.1274C4.64591 11.1274 5.8463 10.9393 7.51152 12.1799L8.41644 12.1037C8.41644 12.1037 7.32114 11.4631 6.98982 11.307C6.65851 11.1508 6.67335 11.0488 6.67335 11.0488C7.4619 11.1849 8.19684 11.5366 8.79597 12.0644C8.79597 12.0644 10.6676 12.0287 10.6763 11.9144Z" fill="#218FF4"/>
</g>
<g opacity="0.1">
<path opacity="0.1" d="M10.3351 4.98453C10.3351 4.98453 7.05409 -2.54888 2.34525 0.906135C2.34525 0.906135 1.3476 1.19385 1.35626 2.22175C1.35626 2.22175 1.74444 2.04346 1.98921 2.84512C2.08073 3.12981 2.20519 3.40296 2.36008 3.65908C2.56495 4.00357 2.87693 4.27244 3.24894 4.42508C3.24894 4.42508 5.14781 6.05054 8.93565 5.14928C8.93565 5.14928 9.97285 5.3706 10.1509 5.25134L8.99251 4.28492C8.99251 4.28492 8.31258 5.15666 7.40024 5.1997C7.40024 5.1997 8.98633 4.35131 8.82686 4.13245C8.79471 4.08819 8.19143 3.64801 8.19143 3.64801C8.19143 3.64801 7.00093 5.15789 5.59532 5.18125C5.59532 5.18125 7.62152 4.4214 7.96767 3.47834L7.017 2.86357C7.017 2.86357 5.83763 4.52222 4.23175 4.60828C4.23175 4.60828 6.321 3.74761 6.79942 2.7443L5.782 2.26724C5.782 2.26724 4.60015 3.86564 3.26378 3.92589C3.26378 3.92589 5.57678 2.68159 5.54093 2.17379C5.54093 2.17379 4.58037 1.79263 4.27626 1.81477C4.27626 1.81477 3.40223 2.9398 2.62217 2.90783C2.62217 2.90783 4.07969 1.91313 3.99934 1.73976C3.99934 1.73976 2.61475 1.57501 1.8693 1.86272C1.8693 1.86272 2.93988 1.36107 4.01417 1.52582C4.01417 1.52582 3.56295 0.91966 2.9337 0.751213C2.9337 0.751213 3.71995 0.48932 4.35043 1.57009C4.35043 1.57009 5.42349 1.74099 5.54835 1.86887C5.54835 1.86887 5.07858 0.714326 4.43573 0.19423C4.43573 0.19423 5.42472 0.440139 5.82032 1.98567L6.85258 2.44183C6.85258 2.44183 6.31234 0.884003 5.76963 0.378661C5.76963 0.378661 6.74256 0.781951 7.09859 2.57954L8.0369 3.16849C8.0369 3.16849 7.67221 1.79141 7.19996 1.10532C7.19996 1.10532 8.02083 1.67214 8.30022 3.35292L8.88125 3.82015C8.88125 3.82015 8.59692 2.8193 8.48936 2.53897C8.38181 2.25863 8.4498 2.20699 8.4498 2.20699C8.83961 2.73506 9.07454 3.36029 9.1285 4.01319C9.1285 4.01319 10.2683 5.04846 10.3351 4.98453Z" fill="#218FF4"/>
</g>
</g>
<defs>
<clipPath id="clip0">
<rect width="136" height="90" fill="white"/>
</clipPath>
</defs>
</svg>
