<svg width="31" height="26" viewBox="0 0 31 26" fill="none" xmlns="http://www.w3.org/2000/svg">
<circle cx="15.2393" cy="11.6397" r="11.2296" fill="#00B9DA"/>
<path d="M15.0034 16.0191C14.2934 16.0191 13.6234 15.8691 12.9934 15.5691C12.3634 15.2691 11.8834 14.8741 11.5534 14.3841L12.4834 13.0191C12.8434 13.4391 13.2334 13.7591 13.6534 13.9791C14.0734 14.1991 14.5034 14.3091 14.9434 14.3091C15.5034 14.3091 15.9434 14.1291 16.2634 13.7691C16.5934 13.3991 16.7584 12.8941 16.7584 12.2541C16.7584 11.6641 16.6134 11.1991 16.3234 10.8591C16.0434 10.5191 15.6534 10.3491 15.1534 10.3491C14.8534 10.3491 14.5634 10.4391 14.2834 10.6191C14.0134 10.7891 13.8084 11.0191 13.6684 11.3091H11.8834L12.3934 5.36914H18.5884V7.07914H14.2984L14.1034 9.35914C14.2434 9.18914 14.4684 9.04914 14.7784 8.93914C15.0984 8.81914 15.4134 8.75914 15.7234 8.75914C16.3534 8.75914 16.9084 8.90414 17.3884 9.19414C17.8784 9.47414 18.2534 9.87914 18.5134 10.4091C18.7834 10.9291 18.9184 11.5341 18.9184 12.2241C18.9184 12.9841 18.7534 13.6491 18.4234 14.2191C18.1034 14.7891 17.6484 15.2341 17.0584 15.5541C16.4684 15.8641 15.7834 16.0191 15.0034 16.0191Z" fill="white"/>
</svg>
