<svg width="218" height="125" viewBox="0 0 218 125" fill="none" xmlns="http://www.w3.org/2000/svg">
<g clip-path="url(#clip0)">
<path d="M112.536 3.56804C113.524 3.56804 114.325 2.76931 114.325 1.78402C114.325 0.798733 113.524 0 112.536 0C111.547 0 110.746 0.798733 110.746 1.78402C110.746 2.76931 111.547 3.56804 112.536 3.56804Z" fill="#F2F2F2"/>
<path d="M112.536 10.6781C113.524 10.6781 114.325 9.87942 114.325 8.89413C114.325 7.90884 113.524 7.11011 112.536 7.11011C111.547 7.11011 110.746 7.90884 110.746 8.89413C110.746 9.87942 111.547 10.6781 112.536 10.6781Z" fill="#F2F2F2"/>
<path d="M120.008 3.56804C120.996 3.56804 121.798 2.76931 121.798 1.78402C121.798 0.798733 120.996 0 120.008 0C119.02 0 118.219 0.798733 118.219 1.78402C118.219 2.76931 119.02 3.56804 120.008 3.56804Z" fill="#F2F2F2"/>
<path d="M120.008 10.6781C120.996 10.6781 121.798 9.87942 121.798 8.89413C121.798 7.90884 120.996 7.11011 120.008 7.11011C119.02 7.11011 118.219 7.90884 118.219 8.89413C118.219 9.87942 119.02 10.6781 120.008 10.6781Z" fill="#F2F2F2"/>
<path d="M127.477 3.56804C128.465 3.56804 129.266 2.76931 129.266 1.78402C129.266 0.798733 128.465 0 127.477 0C126.489 0 125.688 0.798733 125.688 1.78402C125.688 2.76931 126.489 3.56804 127.477 3.56804Z" fill="#F2F2F2"/>
<path d="M127.477 10.6781C128.465 10.6781 129.266 9.87942 129.266 8.89413C129.266 7.90884 128.465 7.11011 127.477 7.11011C126.489 7.11011 125.688 7.90884 125.688 8.89413C125.688 9.87942 126.489 10.6781 127.477 10.6781Z" fill="#F2F2F2"/>
<path d="M127.477 17.7883C128.465 17.7883 129.266 16.9895 129.266 16.0042C129.266 15.0189 128.465 14.2202 127.477 14.2202C126.489 14.2202 125.688 15.0189 125.688 16.0042C125.688 16.9895 126.489 17.7883 127.477 17.7883Z" fill="#F2F2F2"/>
<path d="M127.477 24.8982C128.465 24.8982 129.266 24.0995 129.266 23.1142C129.266 22.1289 128.465 21.3302 127.477 21.3302C126.489 21.3302 125.688 22.1289 125.688 23.1142C125.688 24.0995 126.489 24.8982 127.477 24.8982Z" fill="#F2F2F2"/>
<path d="M134.95 3.56804C135.938 3.56804 136.739 2.76931 136.739 1.78402C136.739 0.798733 135.938 0 134.95 0C133.961 0 133.16 0.798733 133.16 1.78402C133.16 2.76931 133.961 3.56804 134.95 3.56804Z" fill="#F2F2F2"/>
<path d="M134.95 10.6781C135.938 10.6781 136.739 9.87942 136.739 8.89413C136.739 7.90884 135.938 7.11011 134.95 7.11011C133.961 7.11011 133.16 7.90884 133.16 8.89413C133.16 9.87942 133.961 10.6781 134.95 10.6781Z" fill="#F2F2F2"/>
<path d="M134.95 17.7883C135.938 17.7883 136.739 16.9895 136.739 16.0042C136.739 15.0189 135.938 14.2202 134.95 14.2202C133.961 14.2202 133.16 15.0189 133.16 16.0042C133.16 16.9895 133.961 17.7883 134.95 17.7883Z" fill="#F2F2F2"/>
<path d="M134.95 24.8982C135.938 24.8982 136.739 24.0995 136.739 23.1142C136.739 22.1289 135.938 21.3302 134.95 21.3302C133.961 21.3302 133.16 22.1289 133.16 23.1142C133.16 24.0995 133.961 24.8982 134.95 24.8982Z" fill="#F2F2F2"/>
<path d="M142.418 3.56804C143.407 3.56804 144.208 2.76931 144.208 1.78402C144.208 0.798733 143.407 0 142.418 0C141.43 0 140.629 0.798733 140.629 1.78402C140.629 2.76931 141.43 3.56804 142.418 3.56804Z" fill="#F2F2F2"/>
<path d="M142.418 10.6781C143.407 10.6781 144.208 9.87942 144.208 8.89413C144.208 7.90884 143.407 7.11011 142.418 7.11011C141.43 7.11011 140.629 7.90884 140.629 8.89413C140.629 9.87942 141.43 10.6781 142.418 10.6781Z" fill="#F2F2F2"/>
<path d="M149.891 3.56804C150.879 3.56804 151.68 2.76931 151.68 1.78402C151.68 0.798733 150.879 0 149.891 0C148.903 0 148.102 0.798733 148.102 1.78402C148.102 2.76931 148.903 3.56804 149.891 3.56804Z" fill="#F2F2F2"/>
<path d="M149.891 10.6781C150.879 10.6781 151.68 9.87942 151.68 8.89413C151.68 7.90884 150.879 7.11011 149.891 7.11011C148.903 7.11011 148.102 7.90884 148.102 8.89413C148.102 9.87942 148.903 10.6781 149.891 10.6781Z" fill="#F2F2F2"/>
<path d="M204.519 94.1429H191.234C191.234 94.5236 177.543 94.8326 177.543 94.8326C177.328 94.9939 177.132 95.179 176.959 95.3844C176.439 96.0027 176.155 96.7844 176.156 97.5913V98.1431C176.157 99.0575 176.521 99.9344 177.17 100.581C177.818 101.228 178.698 101.591 179.615 101.591H204.519C205.436 101.591 206.316 101.227 206.964 100.581C207.613 99.934 207.977 99.0574 207.978 98.1431V97.5913C207.977 96.6771 207.612 95.8008 206.963 95.1544C206.315 94.5079 205.436 94.1442 204.519 94.1429Z" fill="#3F3D56"/>
<path d="M194.003 101.454H190.406V124.628H194.003V101.454Z" fill="#3F3D56"/>
<path d="M204.241 124.502C204.241 124.889 198.79 124.651 192.066 124.651C185.342 124.651 179.891 124.889 179.891 124.502C179.891 124.114 185.342 121.041 192.066 121.041C198.79 121.041 204.241 124.114 204.241 124.502Z" fill="#3F3D56"/>
<path d="M174.077 121.454L170.684 121.453L169.07 108.408L174.077 108.408L174.077 121.454Z" fill="#FFB8B8"/>
<path d="M168.264 120.487H174.806V124.594H164.145C164.145 123.505 164.579 122.46 165.351 121.69C166.124 120.92 167.171 120.487 168.264 120.487Z" fill="#2F2E41"/>
<path d="M168.784 119.566L165.547 118.553L167.924 105.625L172.701 107.119L168.784 119.566Z" fill="#FFB8B8"/>
<path d="M163.524 116.908L169.766 118.861L168.533 122.779L158.36 119.597C158.522 119.082 158.784 118.604 159.132 118.191C159.479 117.777 159.904 117.436 160.384 117.186C160.863 116.937 161.387 116.783 161.926 116.736C162.465 116.688 163.008 116.747 163.524 116.908Z" fill="#2F2E41"/>
<path d="M195.436 91.8815C195.358 91.2242 195.217 90.5757 195.015 89.9449L194.382 89.1504L192.732 87.0869L192.661 87.0897C192.539 87.0952 192.032 87.1228 191.249 87.1835H191.241C190.757 87.2221 190.164 87.2718 189.492 87.3352C189.315 87.3545 189.13 87.3711 188.939 87.3904V90.2704H192.398C192.566 90.2707 192.728 90.3318 192.854 90.4424C192.98 90.5531 193.062 90.7057 193.084 90.8719C193.087 90.9022 193.089 90.9298 193.089 90.9601C193.089 91.143 193.016 91.3184 192.887 91.4477C192.757 91.5771 192.581 91.6497 192.398 91.6498H172.308C172.052 91.8192 171.807 92.0034 171.572 92.2015C170.865 92.7477 170.355 93.5089 170.12 94.3699C168.946 99.5121 166.807 109.101 166.176 111.918C166.131 112.13 166.141 112.351 166.207 112.558C166.272 112.765 166.39 112.951 166.55 113.099C166.668 113.208 166.806 113.293 166.957 113.35L169.453 114.282C169.555 114.32 169.662 114.345 169.771 114.357C169.785 114.357 169.796 114.359 169.81 114.359C169.836 114.362 169.861 114.363 169.887 114.362C170.14 114.361 170.386 114.284 170.594 114.142C170.801 113.999 170.961 113.797 171.052 113.562L173.022 108.409L176.058 100.464L177.259 97.3217C178.651 97.6472 190.328 100.224 194.238 96.072C194.623 95.663 194.928 95.1846 195.134 94.6623C195.463 93.7744 195.567 92.8191 195.436 91.8815Z" fill="#2F2E41"/>
<path d="M198.822 92.632C198.762 92.3864 198.692 92.1326 198.612 91.8761L196.329 89.0181L196.257 89.0208C196.113 89.0291 195.43 89.065 194.381 89.1505C193.191 89.2498 191.528 89.4098 189.66 89.6608C189.605 89.6663 189.547 89.6746 189.492 89.6829C189.309 89.7077 189.124 89.7326 188.938 89.7602V90.2705H192.397C192.565 90.2707 192.728 90.3319 192.854 90.4425C192.98 90.5531 193.062 90.7057 193.083 90.8719C193.086 90.9023 193.089 90.9298 193.089 90.9602C193.089 91.1431 193.016 91.3185 192.886 91.4478C192.757 91.5771 192.581 91.6498 192.397 91.6499H180.172C179.638 91.8237 179.123 92.0057 178.631 92.2016C176.046 93.2223 174.112 94.5603 173.716 96.301C173.584 96.8859 173.437 97.5287 173.282 98.2128C172.706 100.756 172.006 103.871 171.373 106.701V106.704C171.243 107.289 171.113 107.857 170.988 108.409C170.459 110.781 170.011 112.793 169.773 113.849C169.768 113.879 169.762 113.907 169.757 113.937V113.943C169.729 114.157 169.756 114.374 169.834 114.575L169.837 114.577V114.58C169.913 114.772 170.037 114.942 170.197 115.074C170.304 115.162 170.424 115.232 170.554 115.281L173.05 116.213C173.189 116.265 173.336 116.292 173.484 116.293C173.692 116.294 173.897 116.242 174.079 116.142C174.34 116 174.543 115.77 174.649 115.493L180.023 101.435L180.856 99.2528C182.247 99.5784 193.925 102.152 197.834 98.0031C198.607 97.1696 199.048 96.0838 199.074 94.9493C199.101 94.1688 199.017 93.3885 198.822 92.632Z" fill="#2F2E41"/>
<path d="M198.516 68.2947C198.472 68.2423 198.425 68.1898 198.375 68.1402C197.638 67.3677 196.728 66.7803 195.719 66.4259C194.711 66.0716 193.632 65.9604 192.572 66.1015C191.648 66.2226 190.732 66.4023 189.83 66.6395C188.666 66.938 187.599 67.5342 186.737 68.3692C186.065 69.0188 185.535 69.8005 185.182 70.6648C184.829 71.5291 184.66 72.4571 184.686 73.39C184.697 73.7679 184.7 74.1541 184.695 74.5459C184.695 74.7279 184.692 74.9128 184.689 75.0976H187.417C187.536 75.0973 187.654 75.1112 187.769 75.139C188.102 75.2183 188.398 75.407 188.611 75.6748C188.823 75.9425 188.939 76.2736 188.939 76.6149V89.4484C189.125 89.5008 189.31 89.5532 189.493 89.6084C189.551 89.6277 189.606 89.6442 189.661 89.6608C189.725 89.6801 189.789 89.6994 189.85 89.7187C190.411 89.8925 190.96 90.0764 191.496 90.2704H192.398C192.566 90.2707 192.728 90.3318 192.855 90.4424C192.981 90.5531 193.063 90.7057 193.084 90.8718C193.273 90.9463 193.455 91.0208 193.635 91.0953C194.274 91.3601 194.88 91.625 195.436 91.8815C196.186 92.2236 196.853 92.5491 197.412 92.8333C197.588 92.9226 197.782 92.9698 197.979 92.9712C198.238 92.9704 198.49 92.8873 198.699 92.734C198.742 92.7021 198.784 92.6681 198.823 92.6319C198.971 92.4935 199.083 92.3211 199.149 92.1298C199.215 91.9384 199.234 91.7339 199.202 91.5339C198.917 89.3669 198.833 87.1782 198.953 84.9958C199.031 83.1613 199.197 81.2798 199.413 79.4619C199.529 78.477 199.659 77.5115 199.795 76.5818C199.925 75.6935 200.063 74.841 200.199 74.0355C200.376 73.014 200.317 71.9655 200.026 70.9704C199.734 69.9753 199.218 69.06 198.516 68.2947Z" fill="#00B9DA"/>
<path d="M187.174 68.5209C187.032 68.4601 186.886 68.4094 186.737 68.3691C186 68.1712 185.216 68.2442 184.528 68.5749C183.84 68.9057 183.294 69.472 182.991 70.1706L181.089 74.5459L180.852 75.0976H187.418C187.536 75.0973 187.654 75.1112 187.769 75.139L187.991 74.6286L188.832 72.692C189.166 71.9197 189.179 71.0467 188.868 70.2647C188.558 69.4827 187.948 68.8556 187.174 68.5209Z" fill="#00B9DA"/>
<path d="M193.078 63.9474C196.831 63.9474 199.874 60.9138 199.874 57.1718C199.874 53.4297 196.831 50.3961 193.078 50.3961C189.324 50.3961 186.281 53.4297 186.281 57.1718C186.281 60.9138 189.324 63.9474 193.078 63.9474Z" fill="#FFB8B8"/>
<path d="M199.793 76.5818L195.913 76.6867L195.631 79.404L195.567 80.033L189.491 82.7531L188.938 83.0013V87.8373L189.491 87.6801L191.24 87.1835H191.248L198.952 84.9959L199.04 84.971C199.663 84.7918 200.21 84.4172 200.602 83.9028C200.994 83.3884 201.209 82.7617 201.215 82.1158L201.234 78.9074L201.251 76.5432L199.793 76.5818Z" fill="#FFB8B8"/>
<path d="M201.055 71.2078C201.029 70.792 200.921 70.3852 200.738 70.0107C200.555 69.6362 200.299 69.3014 199.986 69.0254C199.354 68.468 198.525 68.1838 197.683 68.2353C196.84 68.2869 196.053 68.6701 195.494 69.3005C194.935 69.9309 194.65 70.7569 194.701 71.5968L195.125 78.4826C195.136 78.6638 195.187 78.8403 195.275 78.9995C195.362 79.1587 195.484 79.2968 195.631 79.404C195.865 79.5778 196.153 79.6629 196.445 79.644L199.411 79.4619L200.31 79.4067C200.474 79.3987 200.634 79.3576 200.782 79.286C200.929 79.2144 201.061 79.1138 201.168 78.9902C201.192 78.9639 201.214 78.9363 201.234 78.9074C201.41 78.6727 201.497 78.3832 201.478 78.0908L201.055 71.2078Z" fill="#6C63FF"/>
<path d="M189.85 89.7188H189.493V89.6829C189.31 89.7077 189.125 89.7326 188.939 89.7602V90.2705H191.496C190.959 90.0774 190.41 89.8935 189.85 89.7188ZM189.85 89.7188H189.493V89.6829C189.31 89.7077 189.125 89.7326 188.939 89.7602V90.2705H191.496C190.959 90.0774 190.41 89.8935 189.85 89.7188ZM192.398 89.7188H189.493V76.6149C189.492 76.1663 189.345 75.7301 189.074 75.372C188.803 75.0138 188.423 74.753 187.99 74.6287C187.804 74.5729 187.611 74.545 187.417 74.5459H162.79C162.24 74.5466 161.712 74.7648 161.323 75.1527C160.934 75.5405 160.716 76.0664 160.715 76.6149V90.1326C160.715 90.6813 160.934 91.2074 161.323 91.5954C161.712 91.9834 162.24 92.2014 162.79 92.2016H192.398C192.705 92.2011 193 92.088 193.228 91.8839C193.457 91.6798 193.601 91.3991 193.635 91.0954C193.641 91.0505 193.643 91.0054 193.643 90.9602C193.643 90.6311 193.512 90.3156 193.278 90.0829C193.045 89.8502 192.728 89.7193 192.398 89.7188H192.398ZM193.09 90.9602C193.09 91.1431 193.017 91.3184 192.887 91.4478C192.758 91.5771 192.582 91.6498 192.398 91.6499H162.79C162.387 91.6496 162 91.4897 161.714 91.2052C161.429 90.9207 161.269 90.5349 161.268 90.1326V76.6149C161.269 76.2126 161.429 75.8268 161.714 75.5423C162 75.2578 162.387 75.0979 162.79 75.0977H187.417C187.536 75.0973 187.654 75.1112 187.769 75.139C188.102 75.2184 188.398 75.4071 188.611 75.6748C188.823 75.9425 188.939 76.2737 188.939 76.6149V90.2705H192.398C192.566 90.2707 192.729 90.3319 192.855 90.4425C192.981 90.5531 193.063 90.7057 193.084 90.8719C193.087 90.9022 193.09 90.9298 193.09 90.9602H193.09ZM189.85 89.7188H189.493V89.6829C189.31 89.7077 189.125 89.7326 188.939 89.7602V90.2705H191.496C190.959 90.0774 190.41 89.8935 189.85 89.7188Z" fill="#3F3D56"/>
<path d="M175.102 85.0293C176.019 85.0293 176.762 84.2883 176.762 83.3741C176.762 82.4599 176.019 81.7189 175.102 81.7189C174.185 81.7189 173.441 82.4599 173.441 83.3741C173.441 84.2883 174.185 85.0293 175.102 85.0293Z" fill="#00B9DA"/>
<path d="M191.626 54.484C190.047 55.89 187.931 57.399 185.998 56.369C184.729 55.6926 184.164 54.2094 184.46 52.8054C184.993 50.2806 187.183 48.9164 189.302 47.8136C192.058 46.38 195.099 45.1298 198.185 45.5025C201.271 45.8752 204.285 48.4172 204.14 51.5127C204.023 54.0021 201.984 56.3244 202.629 58.7319C203.279 61.155 206.229 62.0932 208.741 62.2165C211.254 62.3398 214.02 62.1262 216.013 63.6564C218.556 65.6084 218.515 69.6902 216.705 72.3322C214.895 74.9742 211.838 76.4609 208.836 77.591C204.858 79.0884 200.485 80.1702 196.379 79.0694C192.273 77.9685 188.678 74.0411 189.281 69.8447C189.535 68.0721 190.47 66.4809 191.373 64.9329C192.276 63.3849 193.184 61.7707 193.373 59.9901C193.531 58.5063 193.059 56.8683 191.961 55.9124C191.762 55.746 191.621 55.521 191.559 55.2699C191.496 55.0187 191.515 54.7543 191.613 54.5146L191.626 54.484Z" fill="#2F2E41"/>
<path d="M0.33043 125H214.309C214.396 125 214.48 124.965 214.542 124.904C214.604 124.842 214.638 124.759 214.638 124.671C214.638 124.584 214.604 124.501 214.542 124.439C214.48 124.378 214.396 124.343 214.309 124.343H0.33043C0.287083 124.343 0.244138 124.351 0.204054 124.368C0.16397 124.384 0.127538 124.408 0.0968419 124.439C0.066146 124.469 0.0417906 124.506 0.0251731 124.546C0.00855566 124.585 0 124.628 0 124.671C0 124.715 0.00855566 124.758 0.0251731 124.797C0.0417906 124.837 0.066146 124.874 0.0968419 124.904C0.127538 124.935 0.16397 124.959 0.204054 124.975C0.244138 124.992 0.287083 125 0.33043 125Z" fill="#3F3D56"/>
<path d="M11.1875 97.5913V98.1431C11.1883 99.0574 11.553 99.934 12.2015 100.581C12.85 101.227 13.7293 101.591 14.6464 101.591H39.5503C40.4676 101.591 41.3471 101.228 41.9957 100.581C42.6443 99.9344 43.0089 99.0575 43.0092 98.1431V97.5913C43.0109 96.7844 42.7267 96.0027 42.2066 95.3844C42.0336 95.179 41.8377 94.9939 41.6228 94.8326C41.6228 94.8326 27.9312 94.5236 27.9312 94.1429H14.6464C13.7294 94.1442 12.8504 94.5079 12.202 95.1544C11.5536 95.8008 11.1888 96.6771 11.1875 97.5913Z" fill="#3F3D56"/>
<path d="M25.1645 124.628H28.7617L28.7617 101.454H25.1645L25.1645 124.628Z" fill="#3F3D56"/>
<path d="M14.9258 124.502C14.9258 124.889 20.3768 124.651 27.101 124.651C33.8252 124.651 39.2763 124.889 39.2763 124.502C39.2763 124.114 33.8252 121.041 27.101 121.041C20.3768 121.041 14.9258 124.114 14.9258 124.502Z" fill="#3F3D56"/>
<path d="M45.2506 121.664H48.643L50.2568 108.618L45.25 108.619L45.2506 121.664Z" fill="#A0616A"/>
<path d="M55.1875 124.804L44.5257 124.804L44.5255 120.697L51.068 120.697C52.1605 120.697 53.2083 121.13 53.9808 121.9C54.7534 122.67 55.1875 123.715 55.1875 124.804L55.1875 124.804Z" fill="#2F2E41"/>
<path d="M50.5468 119.776L53.7835 118.763L51.406 105.835L46.6289 107.33L50.5468 119.776Z" fill="#A0616A"/>
<path d="M60.9687 119.807L50.7961 122.99L49.5626 119.071L55.805 117.118C56.8474 116.792 57.977 116.892 58.9454 117.396C59.9138 117.901 60.6416 118.768 60.9688 119.807L60.9687 119.807Z" fill="#2F2E41"/>
<path d="M48.2752 113.772L42.0693 97.5311C40.6771 97.8571 29.0012 100.433 25.0907 96.2819C23.7505 94.8591 23.4891 92.7979 24.3138 90.1553L26.596 87.2961L26.6669 87.2999C27.5298 87.3452 47.8173 88.4788 49.2081 94.5798C50.3806 99.7232 52.5221 109.313 53.1504 112.129C53.2141 112.421 53.1705 112.726 53.0276 112.989C52.8847 113.251 52.6519 113.454 52.3718 113.559L49.876 114.492C49.737 114.544 49.5896 114.571 49.4411 114.571C49.1884 114.571 48.9418 114.495 48.7336 114.352C48.5255 114.209 48.3656 114.007 48.2752 113.772Z" fill="#2F2E41"/>
<path d="M44.6775 115.703L38.4717 99.4621C37.0793 99.7881 25.4036 102.364 21.493 98.2129C20.1528 96.7902 19.8915 94.7289 20.7161 92.0864L22.9983 89.2272L23.0693 89.2309C23.9321 89.2762 44.2197 90.4099 45.6104 96.5108C46.783 101.654 48.9244 111.244 49.5528 114.06C49.6165 114.352 49.5729 114.657 49.43 114.92C49.2871 115.182 49.0543 115.385 48.7741 115.49L46.2784 116.423C46.1393 116.475 45.992 116.502 45.8434 116.502C45.5908 116.502 45.3441 116.426 45.136 116.283C44.9278 116.14 44.768 115.938 44.6775 115.703Z" fill="#2F2E41"/>
<path d="M39.0987 84.1936C38.179 84.1933 37.275 83.9549 36.4755 83.5017C35.6759 83.0485 35.008 82.3961 34.5373 81.6083L32.5664 78.2797L37.2509 75.7271L39.24 78.446L52.7362 77.0284C52.8019 76.91 52.8758 76.7962 52.9573 76.688C53.2163 76.3483 53.5441 76.0667 53.9195 75.8617C54.2949 75.6566 54.7093 75.5327 55.1359 75.4979C55.5644 75.4613 55.9958 75.5165 56.4012 75.6598C56.8065 75.8031 57.1764 76.0313 57.4859 76.3289C57.9823 76.8034 58.3032 77.4313 58.3966 78.1105C58.49 78.7897 58.3505 79.4805 58.0006 80.0707C57.7817 80.4384 57.4873 80.7559 57.1368 81.0023C56.7862 81.2488 56.3874 81.4186 55.9665 81.5007C55.5455 81.5827 55.1119 81.5752 54.6941 81.4786C54.2762 81.3819 53.8836 81.1984 53.5419 80.9399C53.4626 80.8795 53.3867 80.815 53.3142 80.7468L40.3877 84.0325C39.9665 84.1396 39.5335 84.1937 39.0987 84.1936Z" fill="#A0616A"/>
<path d="M20.6305 92.9439C20.4437 92.8097 20.2978 92.6266 20.209 92.4149C20.1202 92.2031 20.0919 91.971 20.1272 91.7442C20.8972 86.684 20.0113 79.4351 19.1325 74.2451C18.9527 73.192 19.0227 72.1116 19.3369 71.0904C19.6512 70.0691 20.201 69.1355 20.9423 68.3642C21.6836 67.5929 22.5958 67.0054 23.6058 66.6488C24.6158 66.2922 25.6955 66.1763 26.7585 66.3106C27.6833 66.4324 28.5995 66.6124 29.5015 66.8496C30.9998 67.2258 32.3251 68.099 33.2596 69.3258C34.194 70.5525 34.682 72.0597 34.6433 73.5996C34.5119 78.6078 35.5319 84.8566 35.9766 87.3106C36.0069 87.4792 36.0021 87.6522 35.9624 87.8189C35.9227 87.9855 35.849 88.1422 35.7459 88.2791C35.6448 88.4147 35.5163 88.5277 35.3688 88.6108C35.2213 88.694 35.058 88.7454 34.8894 88.7619C29.9617 89.2633 24.6477 91.6591 21.9187 93.0425C21.7433 93.1327 21.5489 93.1801 21.3516 93.1807C21.0921 93.1798 20.8396 93.0969 20.6305 92.9439Z" fill="#CCCCCC"/>
<path d="M33.9298 79.892C33.7775 79.8324 33.6386 79.7432 33.5211 79.6297C33.4036 79.5162 33.3099 79.3805 33.2454 79.2306L30.4972 72.9015C30.3308 72.5191 30.2417 72.1078 30.2348 71.691C30.2279 71.2743 30.3035 70.8602 30.4573 70.4726C30.611 70.0849 30.8398 69.7313 31.1307 69.4319C31.4216 69.1325 31.7688 68.8931 32.1525 68.7276C32.5362 68.562 32.9489 68.4734 33.3669 68.4669C33.785 68.4604 34.2002 68.5362 34.5889 68.6897C34.9776 68.8433 35.3321 69.0717 35.6322 69.362C35.9323 69.6522 36.1721 69.9986 36.3378 70.3813L39.086 76.7104C39.2167 77.0126 39.2219 77.3541 39.1004 77.6601C38.979 77.9661 38.7407 78.2116 38.4379 78.3427L34.8828 79.877C34.7329 79.9422 34.5714 79.9771 34.4078 79.9797C34.2443 79.9823 34.0818 79.9525 33.9299 79.892H33.9298Z" fill="#CCCCCC"/>
<path d="M26.2533 64.1575C30.0068 64.1575 33.0496 61.124 33.0496 57.3819C33.0496 53.6398 30.0068 50.6062 26.2533 50.6062C22.4998 50.6062 19.457 53.6398 19.457 57.3819C19.457 61.124 22.4998 64.1575 26.2533 64.1575Z" fill="#A0616A"/>
<path d="M22.1457 63.4016C22.0494 63.5124 21.9319 63.6028 21.7999 63.6675C21.668 63.7322 21.5244 63.7699 21.3776 63.7783C21.2308 63.7867 21.0838 63.7657 20.9453 63.7164C20.8068 63.6672 20.6796 63.5908 20.5712 63.4917C19.0557 62.2687 17.8538 60.7039 17.0646 58.9264C16.1811 56.8268 16.0516 54.2645 17.0572 52.2964C17.9072 50.6327 19.4332 49.5737 20.9566 48.7081C21.5406 48.3413 22.1805 48.0716 22.8514 47.9097C23.1903 47.833 23.5415 47.8279 23.8824 47.8948C24.2234 47.9616 24.5465 48.0989 24.831 48.2978C25.1329 48.5266 25.3665 48.8332 25.5068 49.1844C25.6471 49.5357 25.6888 49.9184 25.6274 50.2915C26.3242 49.3764 27.2636 48.6735 28.3397 48.2621C29 47.9788 29.7377 47.9295 30.4299 48.1225C31.4082 48.4481 32.1324 49.433 32.5353 50.4912C32.8612 51.3013 32.9806 52.1794 32.8827 53.0467C32.8401 53.4609 32.7134 53.8621 32.5103 54.2259C32.3072 54.5898 32.032 54.9086 31.7014 55.1631C30.9034 55.712 29.8754 55.6563 28.9473 55.4133C28.0193 55.1703 27.1186 54.7584 26.1743 54.6436C25.2301 54.5287 24.1836 54.7777 23.621 55.6174C23.2249 56.2086 23.1314 56.9876 23.0506 57.73L22.6302 61.5918C22.6005 62.1444 22.4811 62.6884 22.2766 63.2028C22.242 63.2746 22.198 63.3414 22.1457 63.4016Z" fill="#2F2E41"/>
<path d="M46.727 105.132H35.6939C35.5151 105.133 35.3385 105.093 35.1776 105.015C35.0167 104.937 34.8757 104.824 34.7654 104.684C34.6527 104.542 34.5739 104.376 34.5352 104.199C34.4965 104.021 34.4989 103.838 34.5421 103.662C35.5741 99.3521 35.5741 94.8607 34.542 90.5511C34.4988 90.375 34.4965 90.1914 34.5352 90.0143C34.5739 89.8372 34.6527 89.6713 34.7654 89.5291C34.8757 89.3888 35.0167 89.2755 35.1776 89.1977C35.3385 89.12 35.5151 89.0799 35.6939 89.0805H46.727C47.0089 89.081 47.2815 89.1813 47.4962 89.3635C47.7109 89.5456 47.8538 89.7978 47.8994 90.0752C48.6191 94.7352 48.6191 99.4776 47.8994 104.138C47.8538 104.415 47.7109 104.667 47.4962 104.849C47.2815 105.032 47.0089 105.132 46.727 105.132Z" fill="#CCCCCC"/>
<path d="M38.2578 95.0604V94.7372C38.2581 94.5177 38.3456 94.3074 38.5012 94.1522C38.6568 93.9971 38.8679 93.9098 39.0879 93.9095H44.8777C45.0978 93.9098 45.3088 93.9971 45.4644 94.1522C45.6201 94.3074 45.7076 94.5177 45.7078 94.7372V95.0604C45.7076 95.2799 45.6201 95.4902 45.4644 95.6454C45.3088 95.8005 45.0978 95.8878 44.8777 95.888H39.0879C38.8679 95.8878 38.6568 95.8005 38.5012 95.6454C38.3456 95.4902 38.2581 95.2799 38.2578 95.0604Z" fill="white"/>
<path d="M38.2578 98.466V98.1426C38.2581 97.9231 38.3456 97.7128 38.5012 97.5576C38.6568 97.4025 38.8679 97.3152 39.0879 97.3149H44.8777C45.0978 97.3152 45.3088 97.4025 45.4644 97.5576C45.6201 97.7128 45.7076 97.9231 45.7078 98.1426V98.466C45.7076 98.6854 45.6201 98.8958 45.4644 99.0509C45.3088 99.2061 45.0978 99.2933 44.8777 99.2936H39.0879C38.8679 99.2933 38.6568 99.2061 38.5012 99.0509C38.3456 98.8958 38.2581 98.6854 38.2578 98.466Z" fill="white"/>
<path d="M41.8205 85.2001C41.7059 85.0555 41.6258 84.8868 41.5865 84.7068C41.5471 84.5268 41.5495 84.3401 41.5934 84.1611C42.6425 79.7806 42.6424 75.2155 41.5933 70.835C41.5495 70.656 41.5471 70.4694 41.5865 70.2893C41.6258 70.1093 41.7059 69.9406 41.8205 69.7961C41.9327 69.6535 42.076 69.5384 42.2395 69.4594C42.403 69.3804 42.5825 69.3396 42.7642 69.3402H53.9785C54.2651 69.3408 54.5421 69.4427 54.7604 69.6278C54.9786 69.813 55.1238 70.0693 55.1702 70.3513C55.9017 75.0879 55.9017 79.9082 55.1702 84.6449C55.1238 84.9268 54.9786 85.1832 54.7604 85.3683C54.5421 85.5535 54.2651 85.6554 53.9785 85.6559H42.7642C42.5825 85.6565 42.403 85.6157 42.2395 85.5367C42.076 85.4577 41.9327 85.3426 41.8205 85.2001Z" fill="#00B9DA"/>
<path d="M51.8119 75.3602H45.9043C45.6843 75.3599 45.4733 75.2727 45.3176 75.1175C45.162 74.9624 45.0745 74.752 45.0742 74.5326V74.1811C45.0745 73.9617 45.162 73.7513 45.3176 73.5962C45.4733 73.441 45.6843 73.3538 45.9043 73.3535H51.8119C52.032 73.3538 52.243 73.441 52.3987 73.5962C52.5543 73.7513 52.6418 73.9617 52.6421 74.1811V74.5326C52.6418 74.752 52.5543 74.9624 52.3987 75.1175C52.243 75.2727 52.032 75.3599 51.8119 75.3602Z" fill="white"/>
<path d="M51.8119 78.8216H45.9043C45.6843 78.8214 45.4733 78.7341 45.3176 78.579C45.162 78.4238 45.0745 78.2134 45.0742 77.994V77.6426C45.0745 77.4231 45.162 77.2128 45.3176 77.0576C45.4733 76.9025 45.6843 76.8152 45.9043 76.8149H51.8119C52.032 76.8152 52.243 76.9025 52.3987 77.0576C52.5543 77.2128 52.6418 77.4231 52.6421 77.6426V77.994C52.6418 78.2134 52.5543 78.4238 52.3987 78.579C52.243 78.7341 52.032 78.8214 51.8119 78.8216Z" fill="white"/>
<path d="M36.6741 91.2686C36.27 91.1278 35.9002 90.9038 35.5887 90.6112C35.2772 90.3185 35.031 89.9637 34.8661 89.5699C34.8281 89.478 34.7949 89.3841 34.7667 89.2888L20.2887 85.1802C19.6665 85.0011 19.1189 84.6268 18.727 84.1128C18.3352 83.5988 18.12 82.9725 18.1135 82.327L18.0781 76.7539L23.4147 76.8963L23.7625 80.2438L36.1427 85.7851C36.2593 85.7157 36.3805 85.6544 36.5056 85.6018H36.5057C36.9617 85.4112 37.4575 85.3341 37.9501 85.3772C38.4427 85.4203 38.9173 85.5823 39.3331 85.8492C39.7488 86.1161 40.0932 86.4799 40.3364 86.9091C40.5796 87.3383 40.7143 87.8202 40.729 88.3129C40.7436 88.8057 40.6377 89.2946 40.4205 89.7375C40.2032 90.1803 39.881 90.5638 39.4819 90.8548C39.0827 91.1457 38.6185 91.3355 38.1293 91.4076C37.6401 91.4797 37.1407 91.432 36.6741 91.2686Z" fill="#A0616A"/>
<path d="M18.1601 79.2005C18.0514 79.0786 17.968 78.9364 17.9149 78.7821C17.8617 78.6279 17.8397 78.4646 17.8502 78.3018L18.2747 71.4182C18.2997 71.0018 18.4068 70.5945 18.5898 70.2195C18.7728 69.8445 19.0283 69.5091 19.3414 69.2326C19.6546 68.9561 20.0194 68.7439 20.4149 68.6081C20.8105 68.4723 21.229 68.4156 21.6465 68.4412C22.0641 68.4668 22.4724 68.5742 22.8483 68.7573C23.2241 68.9405 23.5601 69.1957 23.8369 69.5084C24.1137 69.8211 24.326 70.1851 24.4615 70.5797C24.5971 70.9742 24.6533 71.3916 24.6269 71.8078L24.2025 78.6915C24.1818 79.0199 24.0313 79.3268 23.784 79.5448C23.5367 79.7628 23.2127 79.8741 22.8832 79.8543L19.0166 79.6173C18.8533 79.6078 18.6935 79.566 18.5465 79.4945C18.3994 79.423 18.2681 79.323 18.1601 79.2005H18.1601Z" fill="#CCCCCC"/>
<path d="M80.3916 42.2257H57.7013C57.0411 42.225 56.4081 41.9632 55.9412 41.4977C55.4743 41.0322 55.2117 40.4012 55.2109 39.7429V15.1905C55.2117 14.5322 55.4743 13.9011 55.9412 13.4357C56.4081 12.9702 57.0411 12.7084 57.7013 12.7076H80.3916C81.0518 12.7084 81.6848 12.9702 82.1517 13.4357C82.6186 13.9011 82.8812 14.5322 82.882 15.1905V39.7429C82.8812 40.4012 82.6186 41.0322 82.1517 41.4977C81.6848 41.9632 81.0518 42.225 80.3916 42.2257ZM57.7013 13.2594C57.1878 13.26 56.6954 13.4636 56.3323 13.8256C55.9692 14.1876 55.7649 14.6785 55.7644 15.1905V39.7429C55.7649 40.2549 55.9692 40.7457 56.3323 41.1078C56.6954 41.4698 57.1878 41.6734 57.7013 41.674H80.3916C80.9051 41.6734 81.3974 41.4698 81.7606 41.1078C82.1237 40.7457 82.328 40.2549 82.3285 39.7429V15.1905C82.328 14.6785 82.1237 14.1876 81.7606 13.8256C81.3974 13.4636 80.9051 13.26 80.3916 13.2594H57.7013Z" fill="#3F3D56"/>
<path d="M121.895 42.2257H99.2052C98.545 42.225 97.912 41.9632 97.4451 41.4977C96.9782 41.0322 96.7156 40.4012 96.7148 39.7429V15.1905C96.7156 14.5322 96.9782 13.9011 97.4451 13.4357C97.912 12.9702 98.545 12.7084 99.2052 12.7076H121.895C122.556 12.7084 123.189 12.9702 123.656 13.4357C124.122 13.9011 124.385 14.5322 124.386 15.1905V39.7429C124.385 40.4012 124.122 41.0322 123.656 41.4977C123.189 41.9632 122.556 42.225 121.895 42.2257ZM99.2052 13.2594C98.6917 13.26 98.1994 13.4636 97.8362 13.8256C97.4731 14.1876 97.2688 14.6785 97.2683 15.1905V39.7429C97.2688 40.2549 97.4731 40.7457 97.8362 41.1078C98.1994 41.4698 98.6917 41.6734 99.2052 41.674H121.895C122.409 41.6734 122.901 41.4698 123.264 41.1078C123.628 40.7457 123.832 40.2549 123.832 39.7429V15.1905C123.832 14.6785 123.628 14.1876 123.264 13.8256C122.901 13.4636 122.409 13.26 121.895 13.2594H99.2052Z" fill="#3F3D56"/>
<path d="M62.2714 22.9149H60.0577C59.7276 22.9145 59.411 22.7836 59.1776 22.5509C58.9442 22.3181 58.8129 22.0026 58.8125 21.6735V19.4665C58.8129 19.1374 58.9442 18.8218 59.1776 18.5891C59.411 18.3564 59.7276 18.2255 60.0577 18.2251H62.2714C62.6015 18.2255 62.918 18.3564 63.1514 18.5891C63.3849 18.8218 63.5162 19.1374 63.5166 19.4665V21.6735C63.5162 22.0026 63.3849 22.3181 63.1514 22.5509C62.918 22.7836 62.6015 22.9145 62.2714 22.9149Z" fill="#00B9DA"/>
<path d="M62.2714 29.8116H60.0577C59.7276 29.8113 59.411 29.6803 59.1776 29.4476C58.9442 29.2149 58.8129 28.8993 58.8125 28.5702V26.3632C58.8129 26.0341 58.9442 25.7186 59.1776 25.4858C59.411 25.2531 59.7276 25.1222 60.0577 25.1218H62.2714C62.6015 25.1222 62.918 25.2531 63.1514 25.4858C63.3849 25.7186 63.5162 26.0341 63.5166 26.3632V28.5702C63.5162 28.8993 63.3849 29.2149 63.1514 29.4476C62.918 29.6803 62.6015 29.8113 62.2714 29.8116Z" fill="#CCCCCC"/>
<path d="M78.4503 21.5733H68.1153C67.8952 21.5731 67.6842 21.4858 67.5286 21.3306C67.3729 21.1755 67.2854 20.9651 67.2852 20.7457V20.3943C67.2854 20.1748 67.3729 19.9645 67.5286 19.8093C67.6842 19.6542 67.8952 19.5669 68.1153 19.5667H78.4503C78.6703 19.5669 78.8814 19.6542 79.037 19.8093C79.1926 19.9645 79.2801 20.1748 79.2804 20.3943V20.7457C79.2801 20.9651 79.1926 21.1755 79.037 21.3306C78.8814 21.4858 78.6703 21.5731 78.4503 21.5733Z" fill="#00B9DA"/>
<path d="M103.967 22.4821H101.753C101.423 22.4818 101.106 22.3509 100.873 22.1181C100.639 21.8854 100.508 21.5699 100.508 21.2407V19.0338C100.508 18.7046 100.639 18.3891 100.873 18.1564C101.106 17.9236 101.423 17.7927 101.753 17.7924H103.967C104.297 17.7927 104.613 17.9236 104.847 18.1564C105.08 18.3891 105.212 18.7046 105.212 19.0338V21.2407C105.212 21.5699 105.08 21.8854 104.847 22.1181C104.613 22.3509 104.297 22.4818 103.967 22.4821Z" fill="#CCCCCC"/>
<path d="M120.146 21.1406H109.811C109.591 21.1403 109.38 21.0531 109.224 20.8979C109.068 20.7427 108.981 20.5324 108.98 20.313V19.9615C108.981 19.7421 109.068 19.5317 109.224 19.3766C109.38 19.2214 109.591 19.1342 109.811 19.1339H120.146C120.366 19.1342 120.577 19.2214 120.732 19.3766C120.888 19.5317 120.975 19.7421 120.976 19.9615V20.313C120.975 20.5324 120.888 20.7427 120.732 20.8979C120.577 21.0531 120.366 21.1403 120.146 21.1406Z" fill="#CCCCCC"/>
<path d="M120.145 27.7614H100.955C100.735 27.7612 100.524 27.6739 100.368 27.5188C100.213 27.3636 100.125 27.1532 100.125 26.9338V26.5824C100.125 26.3629 100.213 26.1526 100.368 25.9974C100.524 25.8423 100.735 25.755 100.955 25.7548H120.145C120.365 25.755 120.576 25.8423 120.732 25.9974C120.887 26.1526 120.975 26.3629 120.975 26.5824V26.9338C120.975 27.1532 120.887 27.3636 120.732 27.5188C120.576 27.6739 120.365 27.7612 120.145 27.7614Z" fill="#00B9DA"/>
<path d="M120.145 32.4512H100.955C100.735 32.451 100.524 32.3637 100.368 32.2086C100.213 32.0534 100.125 31.843 100.125 31.6236V31.2722C100.125 31.0528 100.213 30.8424 100.368 30.6872C100.524 30.5321 100.735 30.4448 100.955 30.4446H120.145C120.365 30.4448 120.576 30.5321 120.732 30.6872C120.887 30.8424 120.975 31.0528 120.975 31.2722V31.6236C120.975 31.843 120.887 32.0534 120.732 32.2086C120.576 32.3637 120.365 32.451 120.145 32.4512Z" fill="#CCCCCC"/>
<path d="M120.145 37.1411H100.955C100.735 37.1408 100.524 37.0535 100.368 36.8984C100.213 36.7432 100.125 36.5329 100.125 36.3134V35.962C100.125 35.7426 100.213 35.5322 100.368 35.3771C100.524 35.2219 100.735 35.1346 100.955 35.1344H120.145C120.365 35.1346 120.576 35.2219 120.732 35.3771C120.887 35.5322 120.975 35.7426 120.975 35.962V36.3134C120.975 36.5329 120.887 36.7432 120.732 36.8984C120.576 37.0535 120.365 37.1408 120.145 37.1411Z" fill="#CCCCCC"/>
<path d="M163.403 42.2257H140.713C140.053 42.225 139.42 41.9632 138.953 41.4977C138.486 41.0322 138.223 40.4012 138.223 39.7429V15.1905C138.223 14.5322 138.486 13.9011 138.953 13.4357C139.42 12.9702 140.053 12.7084 140.713 12.7076H163.403C164.064 12.7084 164.697 12.9702 165.163 13.4357C165.63 13.9011 165.893 14.5322 165.894 15.1905V39.7429C165.893 40.4012 165.63 41.0322 165.163 41.4977C164.697 41.9632 164.064 42.225 163.403 42.2257ZM140.713 13.2594C140.2 13.26 139.707 13.4636 139.344 13.8256C138.981 14.1876 138.777 14.6785 138.776 15.1905V39.7429C138.777 40.2549 138.981 40.7457 139.344 41.1078C139.707 41.4698 140.2 41.6734 140.713 41.674H163.403C163.917 41.6734 164.409 41.4698 164.772 41.1078C165.135 40.7457 165.34 40.2549 165.34 39.7429V15.1905C165.34 14.6785 165.135 14.1876 164.772 13.8256C164.409 13.4636 163.917 13.26 163.403 13.2594H140.713Z" fill="#3F3D56"/>
<path d="M161.653 21.1406H151.318C151.098 21.1403 150.887 21.0531 150.732 20.8979C150.576 20.7427 150.489 20.5324 150.488 20.313V19.9615C150.489 19.7421 150.576 19.5317 150.732 19.3766C150.887 19.2214 151.098 19.1342 151.318 19.1339H161.653C161.873 19.1342 162.084 19.2214 162.24 19.3766C162.396 19.5317 162.483 19.7421 162.483 19.9615V20.313C162.483 20.5324 162.396 20.7427 162.24 20.8979C162.084 21.0531 161.873 21.1403 161.653 21.1406Z" fill="#CCCCCC"/>
<path d="M161.653 27.7614H142.463C142.243 27.7612 142.032 27.6739 141.876 27.5188C141.721 27.3636 141.633 27.1532 141.633 26.9338V26.5824C141.633 26.3629 141.721 26.1526 141.876 25.9974C142.032 25.8423 142.243 25.755 142.463 25.7548H161.653C161.873 25.755 162.084 25.8423 162.239 25.9974C162.395 26.1526 162.483 26.3629 162.483 26.5824V26.9338C162.483 27.1532 162.395 27.3636 162.239 27.5188C162.084 27.6739 161.873 27.7612 161.653 27.7614Z" fill="#CCCCCC"/>
<path d="M161.653 32.4512H142.463C142.243 32.451 142.032 32.3637 141.876 32.2086C141.721 32.0534 141.633 31.843 141.633 31.6236V31.2722C141.633 31.0528 141.721 30.8424 141.876 30.6872C142.032 30.5321 142.243 30.4448 142.463 30.4446H161.653C161.873 30.4448 162.084 30.5321 162.239 30.6872C162.395 30.8424 162.483 31.0528 162.483 31.2722V31.6236C162.483 31.843 162.395 32.0534 162.239 32.2086C162.084 32.3637 161.873 32.451 161.653 32.4512Z" fill="#CCCCCC"/>
<path d="M161.653 37.1411H142.463C142.243 37.1408 142.032 37.0535 141.876 36.8984C141.721 36.7432 141.633 36.5329 141.633 36.3134V35.962C141.633 35.7426 141.721 35.5322 141.876 35.3771C142.032 35.2219 142.243 35.1346 142.463 35.1344H161.653C161.873 35.1346 162.084 35.2219 162.239 35.3771C162.395 35.5322 162.483 35.7426 162.483 35.962V36.3134C162.483 36.5329 162.395 36.7432 162.239 36.8984C162.084 37.0535 161.873 37.1408 161.653 37.1411Z" fill="#CCCCCC"/>
<path d="M78.4503 28.47H68.1153C67.8952 28.4698 67.6842 28.3825 67.5286 28.2274C67.3729 28.0722 67.2854 27.8618 67.2852 27.6424V27.291C67.2854 27.0716 67.3729 26.8612 67.5286 26.706C67.6842 26.5509 67.8952 26.4636 68.1153 26.4634H78.4503C78.6703 26.4636 78.8814 26.5509 79.037 26.706C79.1926 26.8612 79.2801 27.0716 79.2804 27.291V27.6424C79.2801 27.8619 79.1926 28.0722 79.037 28.2274C78.8814 28.3825 78.6703 28.4698 78.4503 28.47Z" fill="#CCCCCC"/>
<path d="M62.2714 36.7083H60.0577C59.7276 36.708 59.411 36.5771 59.1776 36.3443C58.9442 36.1116 58.8129 35.7961 58.8125 35.4669V33.26C58.8129 32.9308 58.9442 32.6153 59.1776 32.3826C59.411 32.1498 59.7276 32.0189 60.0577 32.0186H62.2714C62.6015 32.0189 62.918 32.1498 63.1514 32.3826C63.3849 32.6153 63.5162 32.9308 63.5166 33.26V35.4669C63.5162 35.7961 63.3849 36.1116 63.1514 36.3443C62.918 36.5771 62.6015 36.708 62.2714 36.7083Z" fill="#CCCCCC"/>
<path d="M78.4503 35.3668H68.1153C67.8952 35.3665 67.6842 35.2792 67.5286 35.1241C67.3729 34.9689 67.2854 34.7586 67.2852 34.5392V34.1877C67.2854 33.9683 67.3729 33.7579 67.5286 33.6028C67.6842 33.4476 67.8952 33.3603 68.1153 33.3601H78.4503C78.6703 33.3603 78.8814 33.4476 79.037 33.6028C79.1926 33.7579 79.2801 33.9683 79.2804 34.1877V34.5392C79.2801 34.7586 79.1926 34.9689 79.037 35.1241C78.8814 35.2792 78.6703 35.3665 78.4503 35.3668Z" fill="#CCCCCC"/>
<path d="M146.802 19.8803C146.802 19.8739 146.803 19.8677 146.803 19.8614C146.803 19.5353 146.738 19.2125 146.613 18.9112C146.488 18.61 146.305 18.3363 146.073 18.1057C145.842 17.8752 145.568 17.6923 145.266 17.5675C144.963 17.4428 144.64 17.3785 144.312 17.3785V19.8803H146.802Z" fill="#00B9DA"/>
<path d="M144.034 20.1561V17.6544C143.542 17.6542 143.062 17.7992 142.652 18.0711C142.243 18.343 141.924 18.7296 141.735 19.1822C141.545 19.6347 141.495 20.133 141.589 20.6141C141.684 21.0953 141.919 21.5378 142.265 21.8859C142.612 22.2339 143.054 22.472 143.536 22.57C144.017 22.668 144.518 22.6216 144.973 22.4366C145.428 22.2516 145.819 21.9363 146.095 21.5304C146.371 21.1246 146.52 20.6464 146.524 20.1561H144.034Z" fill="#CCCCCC"/>
</g>
<defs>
<clipPath id="clip0">
<rect width="218" height="125" fill="white"/>
</clipPath>
</defs>
</svg>
