<svg width="26" height="24" viewBox="0 0 26 24" fill="none" xmlns="http://www.w3.org/2000/svg">
<path d="M11.1491 0.856934C17.3086 0.856934 22.2857 5.84644 22.2857 11.9998H26L21.1776 16.8222L21.091 17.0017L16.0952 11.9998H19.8095C19.8095 7.21457 15.9281 3.33314 11.1429 3.33314C6.35764 3.33314 2.47621 7.21457 2.47621 11.9998C2.47621 16.785 6.35764 20.6664 11.1429 20.6664C13.5386 20.6664 15.6991 19.6884 17.2652 18.1222L19.0171 19.8741C17.0052 21.8922 14.2257 23.1426 11.1491 23.1426C4.9895 23.1426 0 18.1531 0 11.9998C0 5.84644 4.9895 0.856934 11.1491 0.856934Z" fill="#00B9DA"/>
<path d="M11 7C8.24289 7 6 9.24289 6 12C6 14.7571 8.24289 17 11 17C13.7571 17 16 14.7571 16 12C16 9.24289 13.7571 7 11 7ZM13.3779 14.5862C13.2967 14.6675 13.19 14.7084 13.0834 14.7084C12.9767 14.7084 12.87 14.6675 12.7888 14.5862L10.7054 12.5029C10.6271 12.425 10.5834 12.3191 10.5834 12.2084V9.5C10.5834 9.26959 10.77 9.08336 11 9.08336C11.23 9.08336 11.4166 9.26959 11.4166 9.5V12.0359L13.3779 13.9971C13.5408 14.16 13.5408 14.4233 13.3779 14.5862Z" fill="#00B9DA"/>
</svg>
