<svg width="562" height="124" viewBox="0 0 562 124" fill="none" xmlns="http://www.w3.org/2000/svg">
<path d="M13.476 91.8733L31.7594 118.62L26.9076 121.923L8.62415 95.1758L13.476 91.8733Z" fill="#2E3A59"/>
<path d="M35.3887 99.337L42.9013 111.431L38.031 114.444L25.2094 93.8028L29.8645 90.9235L32.0432 94.4308L32.2853 94.281C32.0428 92.8313 32.2303 91.4442 32.8479 90.1198C33.4743 88.7898 34.5589 87.6477 36.1017 86.6935C37.5278 85.8114 38.9593 85.3476 40.3961 85.3021C41.8418 85.2511 43.2152 85.6232 44.516 86.4182C45.8259 87.2078 46.9883 88.4295 48.0033 90.0835L56.167 103.226L51.2966 106.239L43.6004 93.8485C42.7434 92.4689 41.714 91.6113 40.5123 91.2757C39.3196 90.9345 38.0954 91.1523 36.8397 91.929C35.9876 92.4561 35.3465 93.113 34.9165 93.8998C34.4899 94.6721 34.3053 95.5242 34.3627 96.456C34.429 97.3823 34.771 98.3426 35.3887 99.337Z" fill="#2E3A59"/>
<path d="M58.6355 74.209L60.7925 78.0779L48.5797 84.8583L46.4226 80.9895L58.6355 74.209ZM46.6028 74.2307L51.6097 71.451L62.7185 91.3755C63.0934 92.0479 63.4825 92.5074 63.8856 92.7541C64.2928 92.9864 64.703 93.0723 65.1161 93.0118C65.5291 92.9514 65.9431 92.806 66.3581 92.5756C66.6716 92.4015 66.9446 92.2198 67.1771 92.0304C67.4188 91.8359 67.5985 91.6818 67.7163 91.5682L70.7402 95.0101C70.5241 95.2506 70.198 95.5644 69.7617 95.9514C69.3346 96.3333 68.7712 96.7305 68.0715 97.1431C66.838 97.8762 65.6032 98.3144 64.367 98.4579C63.1257 98.5922 61.9635 98.381 60.8803 97.8243C59.8064 97.2625 58.9042 96.3158 58.1739 94.9843L46.6028 74.2307Z" fill="#2E3A59"/>
<path d="M84.4459 88.927C82.2635 90.0098 80.153 90.4918 78.1143 90.3731C76.0803 90.2403 74.2219 89.5494 72.5391 88.3004C70.8517 87.042 69.4412 85.2754 68.3076 83.0004C67.1929 80.7632 66.6398 78.5888 66.6482 76.4772C66.6613 74.3516 67.2027 72.4347 68.2723 70.7267C69.3372 69.0092 70.9089 67.6349 72.9874 66.6037C74.3289 65.938 75.7031 65.527 77.1098 65.3706C78.5213 65.2001 79.9087 65.3359 81.2719 65.778C82.6446 66.2154 83.9412 66.9967 85.1616 68.1218C86.3774 69.2375 87.4603 70.7488 88.4104 72.6556L89.1935 74.2273L71.3517 83.0795L69.6303 79.6245L82.5546 73.2122C82.056 72.2351 81.4084 71.4674 80.6117 70.909C79.8103 70.3412 78.9259 70.0207 77.9585 69.9473C77.0006 69.8693 76.0303 70.074 75.0477 70.5615C73.9991 71.0818 73.2049 71.7937 72.6653 72.6972C72.121 73.5912 71.8314 74.559 71.7966 75.6006C71.7665 76.628 71.9889 77.6302 72.4639 78.6072L73.9666 81.6231C74.5969 82.8881 75.3692 83.8588 76.2837 84.5353C77.1934 85.2024 78.1839 85.5704 79.2552 85.6393C80.3218 85.6988 81.4124 85.452 82.5273 84.8989C83.2736 84.5286 83.8974 84.0896 84.3986 83.5819C84.895 83.0648 85.2618 82.4884 85.4989 81.8528C85.736 81.2171 85.815 80.5363 85.7361 79.8102L90.7941 77.9717C91.122 79.3866 91.096 80.777 90.7161 82.1428C90.3408 83.4945 89.626 84.7558 88.5715 85.9265C87.5122 87.0878 86.137 88.088 84.4459 88.927Z" fill="#2E3A59"/>
<path d="M96.8422 82.5864L87.0446 60.35L92.1295 58.1191L93.7624 61.8251L93.9942 61.7234C93.8343 60.2619 94.0938 58.9675 94.7727 57.8404C95.457 56.6994 96.4366 55.8493 97.7114 55.29C98.0012 55.1628 98.3311 55.0354 98.7012 54.9075C99.0767 54.7658 99.3958 54.6661 99.6585 54.6084L101.783 59.4292C101.526 59.4495 101.144 59.5366 100.636 59.6905C100.133 59.8306 99.6591 59.9981 99.2148 60.193C98.2587 60.6125 97.4906 61.1971 96.9105 61.9469C96.3358 62.6828 95.9906 63.508 95.8749 64.4225C95.7592 65.337 95.9098 66.2672 96.3265 67.213L102.086 80.2855L96.8422 82.5864Z" fill="#2E3A59"/>
<path d="M124.5 45.1954L125.18 70.9688L119.274 73.2406L102.441 53.6806L108.14 51.4883L119.857 66.3212L120.093 66.2303L118.815 47.382L124.5 45.1954Z" fill="#2E3A59"/>
<path d="M135.482 67.3347L127.668 44.3263L133.093 42.4917L140.907 65.5001L135.482 67.3347ZM129.286 40.1384C128.427 40.429 127.591 40.3944 126.778 40.0347C125.962 39.6649 125.417 39.0756 125.142 38.2668C124.864 37.4479 124.938 36.6491 125.364 35.8704C125.787 35.0817 126.428 34.5421 127.287 34.2515C128.156 33.9576 128.994 33.9971 129.8 34.3702C130.613 34.73 131.158 35.3193 131.436 36.1382C131.711 36.947 131.637 37.7458 131.214 38.5345C130.798 39.3098 130.156 39.8445 129.286 40.1384Z" fill="#2E3A59"/>
<path d="M158.179 60.7123C155.841 61.3953 153.679 61.4994 151.693 61.0246C149.714 60.5367 148.007 59.5302 146.57 58.005C145.131 56.4697 144.053 54.4826 143.338 52.0437C142.634 49.6452 142.473 47.4071 142.852 45.3295C143.239 43.2388 144.109 41.4465 145.463 39.9525C146.813 38.4484 148.602 37.3711 150.829 36.7206C152.267 36.3008 153.691 36.1373 155.103 36.2303C156.523 36.3102 157.864 36.6875 159.128 37.3621C160.402 38.0337 161.541 39.0306 162.544 40.3527C163.545 41.6647 164.345 43.3428 164.944 45.387L165.438 47.0721L146.32 52.6559L145.234 48.9519L159.083 44.9071C158.764 43.8575 158.262 42.9879 157.576 42.2983C156.887 41.5985 156.073 41.1276 155.134 40.8856C154.204 40.6406 153.213 40.6718 152.161 40.9793C151.037 41.3075 150.13 41.869 149.44 42.6639C148.747 43.4486 148.291 44.3507 148.074 45.3701C147.863 46.3765 147.906 47.4023 148.202 48.4476L149.15 51.681C149.548 53.0371 150.137 54.1285 150.918 54.9552C151.696 55.7717 152.606 56.3079 153.649 56.5639C154.688 56.8097 155.805 56.7582 157 56.4093C157.799 56.1757 158.49 55.8529 159.073 55.4411C159.653 55.0191 160.115 54.5159 160.46 53.9317C160.806 53.3474 161.003 52.6909 161.053 51.9621L166.355 51.0399C166.429 52.4906 166.159 53.8551 165.544 55.1332C164.937 56.3982 164.012 57.5146 162.768 58.4822C161.521 59.4396 159.991 60.183 158.179 60.7123Z" fill="#2E3A59"/>
<path d="M176.144 55.4646L164.12 33.2538L169.817 31.9801L177.728 47.7184L177.944 47.6701L178.462 30.0471L184.097 28.7872L192.081 44.4123L192.312 44.3605L192.697 26.8646L198.409 25.5875L197.016 50.7979L191.196 52.0992L183.152 37.0712L182.828 37.1437L181.979 54.1599L176.144 55.4646Z" fill="#2E3A59"/>
<path d="M221.454 47.0185L211.781 23.6907L217.579 23.0079L223.828 39.4753L224.048 39.4493L226.377 21.9715L232.112 21.2961L238.444 37.6581L238.679 37.6303L240.863 20.2653L246.676 19.5805L242.696 44.5165L236.773 45.2141L230.319 29.4399L229.989 29.4788L227.393 46.319L221.454 47.0185Z" fill="#2E3A59"/>
<path d="M249.634 44.2028L248.027 19.9569L253.742 19.5798L255.348 43.8257L249.634 44.2028ZM250.672 16.3261C249.767 16.3858 248.968 16.1373 248.276 15.5805C247.583 15.0132 247.209 14.3034 247.152 13.451C247.095 12.5881 247.373 11.8352 247.985 11.1923C248.597 10.5389 249.356 10.1823 250.261 10.1226C251.177 10.0621 251.976 10.3159 252.658 10.8839C253.35 11.4407 253.725 12.1505 253.782 13.0135C253.839 13.8659 253.561 14.6188 252.949 15.2722C252.347 15.9144 251.588 16.2657 250.672 16.3261Z" fill="#2E3A59"/>
<path d="M273.955 18.7895L274.1 23.2167L260.138 23.6709L259.994 19.2437L273.955 18.7895ZM263.251 13.313L268.974 13.1268L269.719 35.9268C269.744 36.6962 269.88 37.2828 270.125 37.6863C270.38 38.079 270.706 38.3427 271.1 38.4776C271.495 38.6125 271.93 38.6722 272.404 38.6568C272.763 38.6451 273.089 38.6082 273.382 38.5459C273.686 38.4832 273.916 38.4282 274.073 38.3809L275.184 42.8242C274.881 42.9395 274.448 43.0697 273.883 43.2147C273.328 43.3594 272.645 43.4554 271.834 43.5029C270.402 43.5917 269.104 43.4176 267.939 42.9807C266.775 42.5332 265.838 41.8144 265.131 40.8245C264.434 39.8341 264.066 38.5799 264.026 37.0616L263.251 13.313Z" fill="#2E3A59"/>
<path d="M285.337 28.8871L285.131 43.1234L279.405 43.0394L279.874 10.6439L285.474 10.726L285.297 22.9534L285.582 22.9576C286.171 21.5951 287.067 20.5271 288.27 19.7536C289.484 18.9698 291.019 18.5915 292.875 18.6188C294.562 18.6435 296.028 19.0183 297.273 19.7433C298.517 20.4682 299.473 21.5159 300.138 22.8863C300.815 24.2569 301.138 25.9229 301.11 27.8843L300.886 43.3544L295.16 43.2705L295.371 28.6862C295.395 27.0516 294.991 25.7747 294.161 24.8554C293.341 23.9258 292.177 23.4499 290.669 23.4278C289.657 23.4129 288.747 23.6211 287.939 24.0522C287.142 24.473 286.51 25.0913 286.045 25.9072C285.59 26.7232 285.354 27.7165 285.337 28.8871Z" fill="#2E3A59"/>
<path d="M328.312 46.074C325.898 45.8357 323.877 45.101 322.251 43.87C320.635 42.64 319.452 41.0449 318.703 39.0845C317.966 37.1147 317.718 34.9072 317.961 32.4618C318.204 30.006 318.892 27.8854 320.022 26.1C321.154 24.3042 322.633 22.9665 324.458 22.087C326.295 21.198 328.394 20.87 330.756 21.1032C332.719 21.297 334.42 21.8306 335.859 22.704C337.31 23.5679 338.422 24.7004 339.195 26.1014C339.968 27.4919 340.332 29.0644 340.285 30.8191L334.838 30.2812C334.733 29.0945 334.304 28.0719 333.552 27.2134C332.811 26.3454 331.754 25.8436 330.379 25.7078C329.214 25.5928 328.159 25.8066 327.215 26.3492C326.272 26.8814 325.496 27.7056 324.887 28.8218C324.289 29.9391 323.909 31.3111 323.748 32.9379C323.585 34.5856 323.686 36.0262 324.051 37.2598C324.417 38.483 325.004 39.4576 325.812 40.1838C326.631 40.9006 327.633 41.3175 328.819 41.4346C329.659 41.5175 330.425 41.4342 331.117 41.1846C331.821 40.9256 332.429 40.514 332.941 39.9499C333.453 39.3857 333.836 38.6764 334.09 37.8219L339.537 38.3597C339.231 40.057 338.577 41.5238 337.574 42.7601C336.573 43.986 335.285 44.8974 333.711 45.4943C332.137 46.0808 330.337 46.274 328.312 46.074Z" fill="#00B9DA"/>
<path d="M351.876 49.211C349.531 48.8489 347.578 48.0191 346.018 46.7218C344.459 45.4245 343.348 43.7751 342.687 41.7735C342.037 39.7735 341.904 37.5334 342.289 35.0529C342.673 32.5725 343.479 30.4719 344.707 28.7513C345.944 27.0322 347.503 25.7895 349.383 25.0233C351.263 24.2571 353.375 24.055 355.72 24.4171C358.066 24.7792 360.018 25.609 361.578 26.9063C363.138 28.2036 364.242 29.8574 364.891 31.8678C365.55 33.8798 365.687 36.126 365.303 38.6064C364.918 41.0869 364.108 43.1814 362.871 44.8901C361.646 46.6003 360.093 47.8386 358.213 48.6048C356.333 49.371 354.221 49.5731 351.876 49.211ZM352.61 44.6822C353.882 44.8786 354.999 44.6936 355.962 44.1273C356.926 43.5506 357.709 42.7004 358.31 41.5766C358.922 40.4545 359.341 39.1639 359.567 37.7048C359.795 36.2353 359.787 34.8736 359.544 33.6195C359.313 32.3566 358.825 31.3048 358.081 30.4641C357.336 29.6235 356.328 29.105 355.056 28.9086C353.753 28.7074 352.614 28.8944 351.639 29.4695C350.675 30.0463 349.886 30.9009 349.272 32.0334C348.671 33.1572 348.257 34.4538 348.029 35.9233C347.803 37.3823 347.806 38.7381 348.039 39.9906C348.282 41.2447 348.776 42.2921 349.52 43.1327C350.277 43.9646 351.307 44.4811 352.61 44.6822Z" fill="#00B9DA"/>
<path d="M375.073 38.5151L372.097 52.4384L366.496 51.2464L371.575 27.4838L376.928 28.6232L376.065 32.661L376.344 32.7203C377.175 31.5061 378.272 30.6345 379.637 30.1053C381.011 29.5784 382.585 29.5037 384.36 29.8812C386 30.2303 387.354 30.885 388.421 31.8454C389.499 32.808 390.23 34.0258 390.617 35.499C391.013 36.9743 391.003 38.6597 390.588 40.5552L387.354 55.6853L381.753 54.4932L384.801 40.2295C385.141 38.6412 384.993 37.3106 384.36 36.2377C383.737 35.167 382.703 34.478 381.259 34.1706C380.279 33.9621 379.361 33.9932 378.505 34.2639C377.662 34.5265 376.937 35.0139 376.332 35.7262C375.737 36.4406 375.318 37.3703 375.073 38.5151Z" fill="#00B9DA"/>
<path d="M409.45 36.4901L408.321 40.7733L394.427 37.1253L395.557 32.8422L409.45 36.4901ZM392.835 57.2503L399.615 31.5361C400.032 29.9554 400.705 28.7256 401.635 27.8466C402.575 26.9703 403.669 26.4181 404.918 26.19C406.168 25.9618 407.47 26.0258 408.827 26.3821C409.786 26.6338 410.618 26.934 411.322 27.2825C412.026 27.6309 412.541 27.9132 412.865 28.1294L410.634 32.1232C410.419 31.9902 410.142 31.8412 409.803 31.6761C409.468 31.5007 409.081 31.3555 408.642 31.2403C407.612 30.9698 406.817 31.0282 406.256 31.4154C405.709 31.795 405.315 32.4438 405.073 33.3616L398.389 58.7086L392.835 57.2503Z" fill="#00B9DA"/>
<path d="M407.706 61.3497L414.685 38.0743L420.173 39.7128L413.194 62.9881L407.706 61.3497ZM418.435 35.5947C417.566 35.3352 416.904 34.824 416.45 34.0611C415.999 33.2881 415.897 32.4924 416.142 31.6742C416.39 30.8458 416.914 30.2372 417.713 29.8485C418.516 29.4496 419.351 29.38 420.22 29.6395C421.1 29.902 421.76 30.4182 422.2 31.1882C422.654 31.9511 422.757 32.7467 422.509 33.5751C422.263 34.3934 421.739 35.002 420.937 35.4008C420.148 35.7926 419.314 35.8572 418.435 35.5947Z" fill="#00B9DA"/>
<path d="M428.404 68.4413C426.601 67.8158 425.148 66.7929 424.045 65.3724C422.943 63.952 422.285 62.217 422.072 60.1673C421.859 58.1176 422.192 55.8328 423.069 53.313C423.957 50.7633 425.125 48.7571 426.572 47.2945C428.033 45.8253 429.637 44.8914 431.384 44.4926C433.135 44.0839 434.892 44.1853 436.656 44.797C438.001 45.2635 439.027 45.8761 439.734 46.6349C440.445 47.3838 440.944 48.165 441.23 48.9787C441.52 49.7824 441.707 50.5115 441.791 51.166L442.016 51.2437L446.001 39.8L451.427 41.6815L440.771 72.2779L435.45 70.4326L436.709 66.8172L436.38 66.7032C435.907 67.1642 435.297 67.6169 434.55 68.0612C433.807 68.4955 432.926 68.7815 431.906 68.9191C430.887 69.0567 429.72 68.8974 428.404 68.4413ZM431.459 64.5277C432.605 64.9251 433.689 64.955 434.711 64.6174C435.737 64.2699 436.653 63.6109 437.46 62.6405C438.267 61.6702 438.929 60.443 439.446 58.959C439.963 57.475 440.203 56.1126 440.166 54.8719C440.139 53.6347 439.828 52.5723 439.232 51.6849C438.646 50.8009 437.771 50.1567 436.605 49.7524C435.399 49.3343 434.284 49.299 433.258 49.6465C432.232 49.9941 431.323 50.6498 430.529 51.6137C429.736 52.5775 429.091 53.7716 428.595 55.1958C428.095 56.63 427.854 57.9807 427.87 59.2478C427.9 60.5085 428.206 61.6024 428.788 62.5297C429.383 63.4505 430.273 64.1165 431.459 64.5277Z" fill="#00B9DA"/>
<path d="M454.403 78.4424C452.15 77.5154 450.398 76.2469 449.146 74.637C447.908 73.0214 447.206 71.1704 447.041 69.0839C446.881 66.9878 447.285 64.7652 448.256 62.4161C449.211 60.106 450.487 58.2591 452.086 56.8756C453.698 55.4862 455.501 54.6313 457.493 54.3106C459.49 53.9803 461.561 54.2565 463.707 55.1394C465.092 55.7092 466.306 56.4711 467.35 57.4251C468.407 58.3734 469.218 59.5051 469.781 60.8204C470.354 62.1396 470.618 63.628 470.572 65.2856C470.53 66.9334 470.102 68.7418 469.289 70.7107L468.618 72.3337L450.199 64.7552L451.673 61.1878L465.016 66.6774C465.425 65.6597 465.578 64.6678 465.475 63.7017C465.376 62.7259 465.036 61.8504 464.455 61.0753C463.884 60.3041 463.091 59.7099 462.076 59.2925C460.994 58.8471 459.934 58.719 458.897 58.9083C457.865 59.0878 456.944 59.5073 456.135 60.1667C455.34 60.8203 454.73 61.6471 454.306 62.6471L453.019 65.7613C452.479 67.0674 452.255 68.2867 452.346 69.4191C452.441 70.5417 452.816 71.5281 453.468 72.3784C454.125 73.2189 455.029 73.8759 456.18 74.3494C456.951 74.6664 457.692 74.8461 458.405 74.8885C459.122 74.9212 459.798 74.8173 460.434 74.5771C461.069 74.3368 461.635 73.948 462.131 73.4108L466.846 76.0009C465.995 77.1786 464.928 78.0743 463.648 78.6878C462.381 79.2956 460.959 79.5887 459.382 79.567C457.809 79.5356 456.149 79.1607 454.403 78.4424Z" fill="#00B9DA"/>
<path d="M478.6 73.1167L472.437 85.9516L467.271 83.4813L477.788 61.5764L482.727 63.9375L480.939 67.6597L481.196 67.7825C482.29 66.7972 483.561 66.2071 485.012 66.0123C486.472 65.822 488.021 66.1181 489.657 66.9006C491.17 67.6239 492.333 68.5773 493.145 69.7606C493.967 70.9484 494.393 72.3035 494.422 73.8256C494.461 75.3523 494.056 76.9881 493.207 78.7329L486.51 92.6801L481.343 90.2098L487.657 77.0612C488.36 75.597 488.529 74.2694 488.165 73.0783C487.81 71.8918 486.967 70.9801 485.635 70.3432C484.731 69.911 483.831 69.7262 482.936 69.7889C482.054 69.8466 481.235 70.1507 480.479 70.7012C479.733 71.2562 479.107 72.0614 478.6 73.1167Z" fill="#00B9DA"/>
<path d="M499.115 100.173C496.987 99.0081 495.416 97.5413 494.403 95.7723C493.399 94.0083 492.937 92.0785 493.018 89.9827C493.114 87.8827 493.753 85.756 494.937 83.6026C496.126 81.4399 497.591 79.7592 499.333 78.5606C501.08 77.3528 502.966 76.702 504.992 76.6082C507.031 76.5103 509.092 77.031 511.173 78.1704C512.903 79.1174 514.259 80.2743 515.241 81.6412C516.237 83.0039 516.815 84.4807 516.976 86.0714C517.141 87.653 516.858 89.2412 516.125 90.8362L511.324 88.208C511.694 87.0758 511.701 85.9677 511.346 84.8838C511.006 83.7956 510.229 82.9198 509.017 82.2565C507.991 81.6944 506.936 81.4779 505.854 81.6071C504.777 81.727 503.74 82.1809 502.741 82.9688C501.751 83.7617 500.863 84.8745 500.075 86.307C499.278 87.7581 498.805 89.1222 498.656 90.3995C498.513 91.6676 498.67 92.7937 499.128 93.7778C499.6 94.7577 500.359 95.5337 501.405 96.1059C502.145 96.511 502.882 96.7345 503.618 96.7762C504.367 96.8138 505.088 96.6735 505.781 96.3551C506.473 96.0368 507.104 95.5347 507.674 94.8486L512.475 97.4767C511.527 98.9174 510.349 100.01 508.941 100.754C507.538 101.489 505.995 101.823 504.311 101.755C502.632 101.677 500.9 101.15 499.115 100.173Z" fill="#00B9DA"/>
<path d="M519.706 112.368C517.635 111.085 516.114 109.547 515.143 107.754C514.187 105.957 513.798 104.017 513.978 101.932C514.163 99.8381 514.927 97.7122 516.27 95.5543C517.59 93.4322 519.153 91.8197 520.957 90.717C522.776 89.6108 524.695 89.0628 526.713 89.0729C528.737 89.0742 530.736 89.6859 532.708 90.9081C533.981 91.697 535.054 92.6474 535.927 93.7593C536.815 94.8678 537.429 96.1168 537.769 97.5063C538.118 98.9014 538.134 100.413 537.817 102.04C537.505 103.658 536.787 105.372 535.661 107.181L534.733 108.672L517.803 98.1798L519.843 94.9026L532.107 102.503C532.677 101.566 532.991 100.613 533.048 99.6429C533.11 98.6642 532.919 97.745 532.472 96.8853C532.035 96.0311 531.35 95.3151 530.418 94.7373C529.423 94.1207 528.398 93.8207 527.344 93.8376C526.296 93.8455 525.319 94.1084 524.412 94.6263C523.521 95.1408 522.784 95.8564 522.201 96.7731L520.42 99.6339C519.673 100.834 519.252 102 519.156 103.131C519.066 104.254 519.274 105.288 519.778 106.234C520.289 107.171 521.073 107.967 522.13 108.622C522.839 109.061 523.541 109.36 524.237 109.518C524.939 109.668 525.623 109.676 526.29 109.544C526.956 109.411 527.578 109.12 528.156 108.671L532.383 111.998C531.35 113.02 530.151 113.729 528.787 114.124C527.437 114.516 525.986 114.573 524.433 114.293C522.886 114.004 521.311 113.363 519.706 112.368Z" fill="#00B9DA"/>
<path d="M534.39 121.866C533.597 121.326 533.107 120.585 532.922 119.642C532.736 118.699 532.921 117.83 533.477 117.035C534.004 116.245 534.741 115.764 535.689 115.593C536.637 115.422 537.507 115.606 538.301 116.146C539.068 116.668 539.544 117.401 539.73 118.344C539.925 119.293 539.758 120.162 539.231 120.951C538.86 121.476 538.39 121.865 537.822 122.116C537.263 122.373 536.676 122.484 536.062 122.449C535.462 122.41 534.905 122.216 534.39 121.866Z" fill="#00B9DA"/>
</svg>
