<svg width="867" height="455" viewBox="0 0 867 455" fill="none" xmlns="http://www.w3.org/2000/svg">
<g clip-path="url(#clip0)">
<path d="M797.062 450.227C795.146 448.643 793.645 446.616 792.69 444.32C791.735 442.025 791.354 439.532 791.581 437.056C792.184 432.137 795.918 427.615 800.763 426.571C805.607 425.526 811.13 428.418 812.601 433.15C813.411 424.026 814.344 414.52 819.195 406.751C821.392 403.219 824.349 400.222 827.852 397.978C831.354 395.735 835.312 394.301 839.439 393.781C843.576 393.334 847.759 393.924 851.611 395.497C855.463 397.069 858.864 399.575 861.506 402.789C864.071 406.067 865.688 409.985 866.181 414.117C866.675 418.25 866.026 422.438 864.306 426.228C861.653 431.732 856.765 435.828 851.644 439.16C835.097 449.837 815.25 454.179 795.755 451.387" fill="#F2F2F2"/>
<path d="M853.354 396.47C846.551 402.011 840.31 408.208 834.721 414.972C825.975 425.521 818.897 437.349 813.735 450.043C813.357 450.969 814.861 451.372 815.234 450.456C823.681 429.826 837.165 411.643 854.453 397.57C855.23 396.938 854.124 395.843 853.354 396.47H853.354Z" fill="white"/>
<path d="M626.88 224.196L632.625 210.6C633.244 209.134 634.421 207.974 635.895 207.376C637.37 206.777 639.021 206.789 640.487 207.408L747.003 252.416C750.272 253.797 752.858 256.42 754.193 259.708C755.527 262.996 755.501 266.68 754.12 269.948C752.739 273.217 750.116 275.803 746.828 277.138C743.54 278.473 739.856 278.447 736.588 277.065L630.072 232.058C628.606 231.438 627.446 230.262 626.848 228.788C626.249 227.313 626.261 225.661 626.88 224.196Z" fill="#00B9DA"/>
<path d="M683.364 211.883C681.51 209.002 677.052 208.931 674.196 210.822C671.339 212.713 669.701 215.929 668.186 219.002C665.495 224.461 662.771 230.02 661.784 236.026C660.797 242.031 661.785 248.659 665.808 253.225C669.638 257.571 675.501 259.401 681.057 261.04L733.169 276.414C738.682 278.041 744.716 279.649 750.031 277.46C753.468 275.877 756.289 273.205 758.056 269.858C760.772 264.865 761.822 259.133 761.051 253.501C760.281 247.869 757.731 242.63 753.773 238.549C744.405 229.309 729.941 228.556 717.101 225.68C704.382 222.822 692.369 217.431 681.78 209.828" fill="#2F2E41"/>
<path d="M779.302 453.953H764.542C762.819 453.951 761.167 453.266 759.948 452.047C758.73 450.829 758.044 449.177 758.042 447.453V324.44C758.044 322.717 758.73 321.064 759.948 319.846C761.167 318.627 762.819 317.942 764.542 317.94H779.302C781.026 317.942 782.678 318.627 783.896 319.846C785.115 321.064 785.8 322.717 785.802 324.44V447.453C785.8 449.177 785.115 450.829 783.896 452.047C782.678 453.266 781.026 453.951 779.302 453.953Z" fill="#00B9DA"/>
<path d="M750.11 453.953H735.35C733.627 453.951 731.975 453.266 730.756 452.047C729.538 450.829 728.852 449.177 728.85 447.453V324.44C728.852 322.717 729.538 321.064 730.756 319.846C731.975 318.627 733.627 317.942 735.35 317.94H750.11C751.833 317.942 753.485 318.627 754.704 319.846C755.922 321.064 756.608 322.717 756.61 324.44V447.453C756.608 449.177 755.922 450.829 754.704 452.047C753.485 453.266 751.833 453.951 750.11 453.953Z" fill="#00B9DA"/>
<path d="M756.885 189.561C785.052 189.561 807.885 166.728 807.885 138.561C807.885 110.395 785.052 87.561 756.885 87.561C728.719 87.561 705.885 110.395 705.885 138.561C705.885 166.728 728.719 189.561 756.885 189.561Z" fill="#00B9DA"/>
<path d="M712.848 150.97C709.542 150.878 705.427 150.763 702.258 148.448C701.314 147.73 700.538 146.815 699.986 145.766C699.433 144.717 699.116 143.56 699.058 142.375C699 141.534 699.138 140.69 699.461 139.911C699.784 139.131 700.282 138.437 700.918 137.882C702.573 136.483 704.991 136.155 707.596 136.921L704.897 117.195L706.878 116.924L710.052 140.114L708.397 139.354C706.479 138.474 703.845 138.027 702.209 139.409C701.807 139.771 701.494 140.22 701.294 140.722C701.094 141.225 701.013 141.766 701.056 142.305C701.105 143.186 701.343 144.047 701.753 144.828C702.164 145.61 702.739 146.293 703.437 146.833C705.904 148.635 709.184 148.867 712.903 148.971L712.848 150.97Z" fill="#2F2E41"/>
<path d="M729.098 118.896H718.326V120.896H729.098V118.896Z" fill="#2F2E41"/>
<path d="M748.732 132.598C751.057 131.632 753.078 130.058 754.583 128.039C756.087 126.021 757.018 123.634 757.279 121.13C757.476 118.561 757.02 115.983 755.951 113.638C754.883 111.293 753.239 109.256 751.171 107.719C742.471 101.153 730.476 105.308 721.367 99.8959C719.255 98.6446 717.611 96.7352 716.688 94.4604C715.765 92.1856 715.613 89.6708 716.256 87.3016C717.509 81.9198 721.583 77.9907 726.219 75.2936C735.385 69.9606 746.543 67.9718 757.044 68.3599C778.635 69.1579 798.526 80.3687 811.423 97.5217C817.72 105.947 822.47 115.423 825.452 125.51C828.537 135.865 830.246 147.203 828.29 157.935C827.501 162.975 825.634 167.785 822.816 172.038C819.999 176.291 816.298 179.886 811.965 182.579C803.684 187.972 793.971 190.737 784.385 192.741C781.995 193.241 779.594 193.688 777.188 194.11C775.29 194.443 776.095 197.335 777.986 197.003C797.297 193.617 820.037 187.63 828.487 167.773C833.035 157.087 832.71 144.988 830.559 133.777C828.533 123.18 824.686 113.014 819.187 103.731C807.965 84.8694 789.697 70.7517 767.941 66.6066C757.088 64.4505 745.872 64.9925 735.277 68.1849C725.272 71.3072 713.909 77.5267 712.948 89.1948C712.717 91.7788 713.214 94.376 714.381 96.6928C715.549 99.0097 717.341 100.954 719.555 102.306C723.894 105.003 729.125 105.662 734.11 106.098C739.483 106.568 745.643 106.889 749.951 110.56C753.964 113.978 755.647 119.902 753.162 124.705C752.056 126.93 750.207 128.698 747.935 129.705C747.559 129.822 747.241 130.078 747.046 130.42C746.852 130.763 746.795 131.167 746.887 131.55C746.995 131.932 747.249 132.257 747.594 132.453C747.94 132.649 748.349 132.701 748.732 132.597V132.598Z" fill="#2F2E41"/>
<path d="M800.451 217.62L800.243 217.244C799.734 216.328 798.994 215.562 798.097 215.02C797.2 214.479 796.176 214.182 795.129 214.159L768.812 213.583V210.102C768.812 209.314 768.657 208.534 768.355 207.806C768.054 207.078 767.612 206.417 767.055 205.859C766.497 205.302 765.836 204.86 765.108 204.559C764.38 204.257 763.6 204.102 762.812 204.102H746.812C745.221 204.102 743.694 204.734 742.569 205.859C741.444 206.985 740.812 208.511 740.812 210.102V212.969L716.955 212.446C715.899 212.423 714.856 212.679 713.931 213.188C713.006 213.697 712.231 214.441 711.686 215.345V215.346C698.934 236.484 691.987 260.613 691.545 285.296C691.104 309.979 697.185 334.341 709.173 355.922L709.382 356.297C709.89 357.213 710.63 357.98 711.527 358.521C712.424 359.062 713.448 359.359 714.495 359.382L792.669 361.095C793.725 361.119 794.768 360.863 795.693 360.354C796.618 359.844 797.392 359.1 797.938 358.196V358.196C810.69 337.058 817.638 312.928 818.079 288.245C818.52 263.562 812.439 239.2 800.451 217.62Z" fill="#2F2E41"/>
<path d="M734.693 359.109L720.281 355.924C718.727 355.58 717.374 354.634 716.518 353.292C715.662 351.951 715.374 350.324 715.717 348.771L740.668 235.86C741.434 232.395 743.545 229.376 746.536 227.468C749.528 225.559 753.155 224.917 756.62 225.682C760.085 226.448 763.104 228.559 765.012 231.55C766.921 234.542 767.563 238.169 766.797 241.634L741.846 354.545C741.503 356.098 740.556 357.452 739.215 358.308C737.873 359.164 736.247 359.452 734.693 359.109Z" fill="#00B9DA"/>
<path d="M718.165 302.697C715.609 304.978 716.237 309.393 718.552 311.918C720.867 314.443 724.301 315.557 727.573 316.572C733.386 318.374 739.303 320.194 745.389 320.228C751.475 320.263 757.866 318.249 761.746 313.56C765.438 309.097 766.327 303.019 767.075 297.276L774.098 243.399C774.841 237.699 775.483 231.487 772.489 226.581C770.387 223.434 767.307 221.067 763.725 219.846C758.367 217.945 752.542 217.806 747.1 219.449C741.658 221.092 736.883 224.432 733.473 228.98C725.814 239.68 727.336 254.083 726.507 267.215C725.676 280.224 722.233 292.933 716.382 304.583" fill="#2F2E41"/>
<path d="M619.757 267.462H17.119C12.5803 267.457 8.22902 265.652 5.0197 262.443C1.81038 259.233 0.0051267 254.882 0 250.343V17.1191C0.00512669 12.5805 1.81038 8.22914 5.0197 5.01979C8.22902 1.81044 12.5803 0.00516646 17.119 0H619.757C624.296 0.00515053 628.647 1.81041 631.856 5.01976C635.066 8.22911 636.871 12.5804 636.876 17.1191V250.343C636.871 254.882 635.066 259.233 631.856 262.443C628.647 265.652 624.296 267.457 619.757 267.462Z" fill="#3F3D56"/>
<path d="M619.757 3.50003H17.1189C13.5084 3.50484 10.0472 4.94123 7.4942 7.49423C4.9412 10.0472 3.50481 13.5085 3.5 17.119V250.343C3.50481 253.954 4.9412 257.415 7.4942 259.968C10.0472 262.521 13.5084 263.957 17.1189 263.962H619.757C623.368 263.957 626.829 262.521 629.382 259.968C631.935 257.415 633.371 253.954 633.376 250.343V17.119C633.371 13.5085 631.935 10.0472 629.382 7.49423C626.829 4.94123 623.368 3.50484 619.757 3.50003Z" fill="white"/>
<path d="M633.376 41.4544V250.343C633.371 253.954 631.935 257.415 629.382 259.968C626.829 262.521 623.368 263.957 619.757 263.962H17.1189C13.5084 263.957 10.0472 262.521 7.4942 259.968C4.9412 257.415 3.50481 253.954 3.5 250.343V227.702C5.84907 218.049 15.1867 209.648 25.3669 207.273C39.0286 204.09 53.1837 208.542 66.53 212.883C79.8684 217.224 94.1 221.548 107.702 218.109C147.18 208.159 151.691 144.201 190.99 133.603C214.006 127.398 236.631 143.188 255.246 158.083C273.861 172.971 296.409 188.82 319.46 182.734C336.339 178.274 347.863 163.267 359.303 150.082C370.743 136.898 385.758 123.764 403.148 125.287C421.355 126.879 434.599 143.962 452.304 148.491C475.584 154.432 498.6 137.025 512.346 117.32C526.084 97.6154 535.218 74.2589 553.041 58.163C574.329 38.9348 605.449 34.1256 633.376 41.4544Z" fill="#E5F5FA"/>
<path d="M864.862 454.167H675.568C675.411 454.167 675.256 454.137 675.111 454.077C674.966 454.017 674.834 453.93 674.724 453.819C674.613 453.709 674.525 453.577 674.465 453.433C674.404 453.288 674.374 453.133 674.374 452.976C674.374 452.819 674.404 452.664 674.465 452.52C674.525 452.375 674.613 452.244 674.724 452.133C674.834 452.022 674.966 451.935 675.111 451.875C675.256 451.815 675.411 451.785 675.568 451.785H864.862C865.177 451.785 865.48 451.911 865.704 452.134C865.927 452.357 866.052 452.66 866.052 452.976C866.052 453.292 865.927 453.595 865.704 453.818C865.48 454.041 865.177 454.167 864.862 454.167Z" fill="#3F3D56"/>
</g>
<defs>
<clipPath id="clip0">
<rect width="866.36" height="454.167" fill="white"/>
</clipPath>
</defs>
</svg>
