<svg width="26" height="26" viewBox="0 0 26 26" fill="none" xmlns="http://www.w3.org/2000/svg">
<path d="M14.8509 1.85693C8.69143 1.85693 3.71429 6.84644 3.71429 12.9998H0L4.82236 17.8222L4.90901 18.0017L9.90478 12.9998H6.1905C6.1905 8.21457 10.0719 4.33314 14.8571 4.33314C19.6424 4.33314 23.5238 8.21457 23.5238 12.9998C23.5238 17.785 19.6424 21.6664 14.8571 21.6664C12.4614 21.6664 10.3009 20.6884 8.73478 19.1222L6.98286 20.8741C8.99478 22.8922 11.7743 24.1426 14.8509 24.1426C21.0105 24.1426 26 19.1531 26 12.9998C26 6.84644 21.0105 1.85693 14.8509 1.85693Z" fill="#00B9DA"/>
<path d="M15 8C12.2429 8 10 10.2429 10 13C10 15.7571 12.2429 18 15 18C17.7571 18 20 15.7571 20 13C20 10.2429 17.7571 8 15 8ZM17.3779 15.5862C17.2967 15.6675 17.19 15.7084 17.0834 15.7084C16.9767 15.7084 16.87 15.6675 16.7888 15.5862L14.7054 13.5029C14.6271 13.425 14.5834 13.3191 14.5834 13.2084V10.5C14.5834 10.2696 14.77 10.0834 15 10.0834C15.23 10.0834 15.4166 10.2696 15.4166 10.5V13.0359L17.3779 14.9971C17.5408 15.16 17.5408 15.4233 17.3779 15.5862Z" fill="#00B9DA"/>
</svg>
