<svg width="18" height="18" viewBox="0 0 18 18" fill="none" xmlns="http://www.w3.org/2000/svg">
<g clip-path="url(#clip0_1645_1091)">
<path d="M0.485794 7.82913C0.486206 7.82872 0.486618 7.82831 0.48703 7.8279L7.8296 0.485596C8.14258 0.172485 8.55868 0 9.0013 0C9.44391 0 9.86001 0.172348 10.1731 0.485458L17.5119 7.82405C17.5143 7.82652 17.5168 7.82913 17.5193 7.8316C18.162 8.47801 18.1609 9.52679 17.5161 10.1716C17.2215 10.4663 16.8325 10.637 16.4165 10.6548C16.3996 10.6565 16.3826 10.6573 16.3654 10.6573H16.0728V16.0608C16.0728 17.13 15.2028 18 14.1333 18H11.2606C10.9695 18 10.7333 17.7639 10.7333 17.4727V13.2363C10.7333 12.7484 10.3364 12.3515 9.84848 12.3515H8.15411C7.66618 12.3515 7.2693 12.7484 7.2693 13.2363V17.4727C7.2693 17.7639 7.03323 18 6.74196 18H3.86931C2.79979 18 1.92981 17.13 1.92981 16.0608V10.6573H1.65845C1.21597 10.6573 0.799866 10.4849 0.486618 10.1718C-0.158829 9.52597 -0.159103 8.4754 0.485794 7.82913Z" fill="#093B47"/>
</g>
<defs>
<clipPath id="clip0_1645_1091">
<rect width="18" height="18" fill="white" transform="matrix(-1 0 0 1 18 0)"/>
</clipPath>
</defs>
</svg>
