<svg width="272" height="143" viewBox="0 0 272 143" fill="none" xmlns="http://www.w3.org/2000/svg">
<g clip-path="url(#clip0)">
<path d="M250.243 141.759C249.641 141.261 249.17 140.622 248.87 139.9C248.57 139.177 248.451 138.392 248.522 137.613C248.711 136.064 249.884 134.64 251.405 134.311C252.926 133.982 254.659 134.893 255.121 136.383C255.376 133.51 255.669 130.517 257.192 128.07C257.881 126.959 258.81 126.015 259.909 125.308C261.009 124.602 262.252 124.15 263.547 123.987C264.846 123.846 266.159 124.032 267.369 124.527C268.578 125.022 269.646 125.811 270.476 126.823C271.281 127.855 271.788 129.089 271.943 130.39C272.098 131.691 271.895 133.01 271.355 134.203C270.522 135.936 268.987 137.226 267.379 138.275C262.184 141.637 255.953 143.004 249.833 142.125" fill="#F2F2F2"/>
<path d="M267.917 124.834C265.781 126.578 263.821 128.53 262.067 130.659C259.321 133.981 257.099 137.705 255.478 141.701C255.359 141.993 255.831 142.12 255.949 141.832C258.601 135.336 262.834 129.611 268.262 125.18C268.506 124.981 268.158 124.636 267.917 124.834H267.917Z" fill="white"/>
<path d="M196.813 70.5908L198.617 66.31C198.811 65.8485 199.181 65.4833 199.644 65.2948C200.106 65.1064 200.625 65.1101 201.085 65.3051L234.527 79.4763C235.553 79.9111 236.365 80.737 236.784 81.7723C237.203 82.8075 237.195 83.9673 236.761 84.9965C236.328 86.0257 235.504 86.84 234.472 87.2603C233.439 87.6805 232.283 87.6723 231.257 87.2374L197.815 73.0662C197.355 72.8712 196.991 72.5009 196.803 72.0366C196.615 71.5724 196.619 71.0523 196.813 70.5908Z" fill="#00B9DA"/>
<path d="M214.547 66.7141C213.965 65.8069 212.565 65.7844 211.668 66.3798C210.771 66.9752 210.257 67.988 209.782 68.9555C208.937 70.6743 208.082 72.4247 207.772 74.3156C207.462 76.2065 207.772 78.2932 209.035 79.731C210.237 81.0994 212.078 81.6755 213.822 82.1916L230.183 87.0324C231.914 87.5446 233.809 88.0508 235.477 87.3616C236.557 86.8632 237.442 86.022 237.997 84.9682C238.85 83.3959 239.179 81.5914 238.937 79.8179C238.695 78.0445 237.895 76.395 236.652 75.1102C233.711 72.2008 229.17 71.9638 225.139 71.0583C221.145 70.1584 217.374 68.4608 214.049 66.0669" fill="#2F2E41"/>
<path d="M244.667 142.933H240.033C239.492 142.932 238.973 142.716 238.591 142.333C238.208 141.949 237.993 141.429 237.992 140.886V102.154C237.993 101.611 238.208 101.091 238.591 100.707C238.973 100.324 239.492 100.108 240.033 100.107H244.667C245.208 100.108 245.727 100.324 246.109 100.707C246.492 101.091 246.707 101.611 246.708 102.154V140.886C246.707 141.429 246.492 141.949 246.109 142.333C245.727 142.716 245.208 142.932 244.667 142.933Z" fill="#00B9DA"/>
<path d="M235.503 142.933H230.869C230.328 142.932 229.809 142.716 229.427 142.333C229.044 141.949 228.829 141.429 228.828 140.886V102.154C228.829 101.611 229.044 101.091 229.427 100.707C229.809 100.324 230.328 100.108 230.869 100.107H235.503C236.044 100.108 236.563 100.324 236.945 100.707C237.328 101.091 237.543 101.611 237.544 102.154V140.886C237.543 141.429 237.328 141.949 236.945 142.333C236.563 142.716 236.044 142.932 235.503 142.933Z" fill="#00B9DA"/>
<path d="M237.629 59.6857C246.472 59.6857 253.641 52.4963 253.641 43.6277C253.641 34.7591 246.472 27.5697 237.629 27.5697C228.786 27.5697 221.617 34.7591 221.617 43.6277C221.617 52.4963 228.786 59.6857 237.629 59.6857Z" fill="#00B9DA"/>
<path d="M223.804 47.5348C222.766 47.5059 221.475 47.4697 220.479 46.7407C220.183 46.5147 219.94 46.2264 219.766 45.8961C219.592 45.5658 219.493 45.2015 219.475 44.8286C219.457 44.5636 219.5 44.298 219.601 44.0526C219.703 43.8071 219.859 43.5885 220.059 43.4139C220.579 42.9734 221.337 42.8701 222.155 43.1111L221.308 36.9003L221.93 36.8148L222.926 44.1165L222.407 43.8774C221.805 43.6004 220.978 43.4594 220.464 43.8948C220.338 44.0086 220.24 44.1501 220.177 44.3082C220.114 44.4663 220.089 44.6368 220.102 44.8065C220.117 45.084 220.192 45.355 220.321 45.601C220.45 45.847 220.63 46.0622 220.85 46.2321C221.624 46.7994 222.654 46.8726 223.822 46.9053L223.804 47.5348Z" fill="#2F2E41"/>
<path d="M228.905 37.4359H225.523V38.0656H228.905V37.4359Z" fill="#2F2E41"/>
<path d="M235.07 41.75C235.8 41.4461 236.435 40.9503 236.907 40.3148C237.379 39.6793 237.672 38.9277 237.754 38.1394C237.816 37.3304 237.672 36.5188 237.337 35.7804C237.002 35.042 236.485 34.4007 235.836 33.9166C233.105 31.8493 229.339 33.1575 226.479 31.4535C225.816 31.0595 225.3 30.4583 225.01 29.742C224.72 29.0258 224.672 28.234 224.874 27.488C225.267 25.7935 226.546 24.5564 228.002 23.7071C230.88 22.028 234.383 21.4018 237.68 21.524C244.458 21.7752 250.703 25.3051 254.753 30.7059C256.73 33.3586 258.221 36.3425 259.157 39.5184C260.126 42.7788 260.662 46.3487 260.048 49.7277C259.8 51.3146 259.214 52.8292 258.33 54.1683C257.445 55.5073 256.283 56.6394 254.923 57.4873C252.323 59.1852 249.273 60.056 246.264 60.687C245.513 60.8444 244.759 60.9852 244.004 61.118C243.408 61.2228 243.661 62.1333 244.255 62.0289C250.318 60.9626 257.457 59.0776 260.11 52.8256C261.538 49.461 261.436 45.6513 260.761 42.1213C260.124 38.7847 258.916 35.5839 257.19 32.6611C253.667 26.7222 247.932 22.2771 241.101 20.9719C237.694 20.2931 234.172 20.4637 230.846 21.4689C227.705 22.452 224.137 24.4102 223.836 28.0841C223.763 28.8977 223.919 29.7155 224.286 30.4449C224.652 31.1744 225.215 31.7866 225.91 32.2122C227.272 33.0614 228.915 33.2689 230.48 33.4062C232.167 33.5542 234.1 33.6555 235.453 34.8111C236.713 35.8875 237.241 37.7527 236.461 39.2649C236.114 39.9654 235.533 40.5222 234.82 40.8391C234.702 40.876 234.602 40.9566 234.541 41.0645C234.48 41.1723 234.462 41.2995 234.491 41.4201C234.525 41.5405 234.605 41.6427 234.713 41.7045C234.822 41.7662 234.95 41.7826 235.07 41.75V41.75Z" fill="#2F2E41"/>
<path d="M251.308 68.5202L251.243 68.402C251.083 68.1136 250.851 67.8722 250.569 67.7018C250.287 67.5314 249.966 67.4379 249.637 67.4307L241.375 67.2491V66.1532C241.375 65.9051 241.326 65.6595 241.231 65.4303C241.137 65.201 240.998 64.9928 240.823 64.8174C240.648 64.6419 240.44 64.5028 240.212 64.4078C239.983 64.3129 239.738 64.264 239.491 64.264H234.468C233.968 64.264 233.489 64.4631 233.136 64.8174C232.782 65.1717 232.584 65.6522 232.584 66.1532V67.0559L225.094 66.8913C224.762 66.884 224.435 66.9646 224.145 67.1249C223.854 67.2852 223.611 67.5195 223.44 67.8042V67.8042C219.436 74.4599 217.255 82.0573 217.116 89.829C216.978 97.6007 218.887 105.271 222.651 112.066L222.716 112.185C222.876 112.473 223.108 112.714 223.39 112.885C223.672 113.055 223.993 113.149 224.322 113.156L248.865 113.695C249.196 113.703 249.524 113.622 249.814 113.462C250.105 113.301 250.348 113.067 250.519 112.782V112.782C254.523 106.127 256.704 98.5293 256.843 90.7576C256.981 82.9859 255.072 75.3151 251.308 68.5202Z" fill="#2F2E41"/>
<path d="M230.663 113.07L226.138 112.067C225.65 111.959 225.225 111.661 224.956 111.238C224.688 110.816 224.597 110.304 224.705 109.815L232.538 74.2635C232.779 73.1725 233.442 72.222 234.381 71.621C235.32 71.02 236.459 70.8179 237.547 71.0589C238.634 71.3 239.582 71.9646 240.181 72.9066C240.781 73.8485 240.982 74.9905 240.742 76.0815L232.908 111.633C232.801 112.122 232.503 112.548 232.082 112.818C231.661 113.087 231.15 113.178 230.663 113.07Z" fill="#00B9DA"/>
<path d="M225.474 95.3077C224.671 96.0261 224.868 97.4161 225.595 98.2111C226.322 99.0061 227.4 99.357 228.427 99.6764C230.252 100.244 232.11 100.817 234.021 100.828C235.932 100.839 237.938 100.205 239.156 98.7281C240.315 97.323 240.595 95.4093 240.83 93.6008L243.034 76.637C243.267 74.8424 243.469 72.8866 242.529 71.3418C241.869 70.3508 240.902 69.6055 239.777 69.2211C238.095 68.6226 236.267 68.5788 234.558 69.0962C232.849 69.6136 231.35 70.665 230.28 72.0971C227.875 75.466 228.353 80.001 228.093 84.1358C227.832 88.232 226.751 92.2336 224.914 95.9015" fill="#2F2E41"/>
<path d="M194.577 84.2138H5.37463C3.94968 84.2122 2.58356 83.6438 1.57597 82.6333C0.568381 81.6228 0.00160956 80.2527 0 78.8237V5.39017C0.00160956 3.96111 0.568381 2.59105 1.57597 1.58054C2.58356 0.57004 3.94968 0.00162672 5.37463 0H194.577C196.002 0.00162171 197.368 0.570031 198.376 1.58053C199.383 2.59104 199.95 3.96111 199.952 5.39017V78.8237C199.95 80.2527 199.383 81.6228 198.376 82.6333C197.368 83.6438 196.002 84.2122 194.577 84.2138Z" fill="#3F3D56"/>
<path d="M194.578 1.10205H5.37537C4.24183 1.10356 3.15515 1.55583 2.35362 2.35967C1.55208 3.16352 1.10112 4.25333 1.09961 5.39014V78.8237C1.10112 79.9605 1.55208 81.0503 2.35362 81.8542C3.15515 82.658 4.24183 83.1103 5.37537 83.1118H194.578C195.711 83.1103 196.798 82.658 197.6 81.8542C198.401 81.0503 198.852 79.9605 198.854 78.8237V5.39014C198.852 4.25333 198.401 3.16352 197.6 2.35967C196.798 1.55583 195.711 1.10356 194.578 1.10205Z" fill="white"/>
<path d="M198.854 13.0525V78.8238C198.852 79.9606 198.401 81.0504 197.6 81.8542C196.798 82.6581 195.711 83.1103 194.578 83.1118H5.37537C4.24183 83.1103 3.15515 82.6581 2.35362 81.8542C1.55208 81.0504 1.10112 79.9606 1.09961 78.8237V71.6948C1.83712 68.6556 4.76874 66.0104 7.96486 65.2627C12.2541 64.2603 16.6982 65.662 20.8883 67.0288C25.076 68.3956 29.5441 69.7571 33.8145 68.6744C46.2089 65.5414 47.6253 45.4034 59.9635 42.0667C67.1896 40.113 74.2927 45.0845 80.137 49.7746C85.9815 54.462 93.0606 59.4523 100.297 57.5361C105.597 56.1317 109.215 51.4068 112.807 47.2554C116.398 43.1039 121.112 38.9686 126.572 39.4483C132.288 39.9495 136.446 45.3284 142.005 46.7542C149.314 48.6249 156.54 43.1441 160.856 36.9398C165.169 30.7355 168.036 23.3814 173.632 18.3134C180.316 12.2592 190.086 10.7449 198.854 13.0525Z" fill="#E5F5FA"/>
<path d="M271.53 143H212.1C212.05 143 212.002 142.991 211.956 142.972C211.911 142.953 211.869 142.925 211.834 142.891C211.8 142.856 211.772 142.814 211.753 142.769C211.734 142.723 211.725 142.674 211.725 142.625C211.725 142.576 211.734 142.527 211.753 142.481C211.772 142.436 211.8 142.395 211.834 142.36C211.869 142.325 211.911 142.297 211.956 142.278C212.002 142.26 212.05 142.25 212.1 142.25H271.53C271.629 142.25 271.724 142.29 271.794 142.36C271.864 142.43 271.904 142.526 271.904 142.625C271.904 142.725 271.864 142.82 271.794 142.89C271.724 142.961 271.629 143 271.53 143Z" fill="#3F3D56"/>
</g>
<defs>
<clipPath id="clip0">
<rect width="272" height="143" fill="white"/>
</clipPath>
</defs>
</svg>
