<svg width="34" height="34" viewBox="0 0 34 34" fill="none" xmlns="http://www.w3.org/2000/svg">
<circle cx="17.1616" cy="16.645" r="16.5258" fill="#00B9DA"/>
<path d="M17.1436 10.9421C16.5269 10.9421 16.0352 10.7754 15.6686 10.4421C15.3019 10.0921 15.1186 9.63376 15.1186 9.06709C15.1186 8.50042 15.3019 8.05042 15.6686 7.71709C16.0352 7.36709 16.5269 7.19209 17.1436 7.19209C17.7602 7.19209 18.2519 7.36709 18.6186 7.71709C19.0019 8.05042 19.1936 8.50042 19.1936 9.06709C19.1936 9.63376 19.0102 10.0921 18.6436 10.4421C18.2769 10.7754 17.7769 10.9421 17.1436 10.9421ZM15.5686 12.3921H18.7436V24.8921H15.5686V12.3921Z" fill="white"/>
</svg>
