<svg width="894" height="646" viewBox="0 0 894 646" fill="none" xmlns="http://www.w3.org/2000/svg">
<g clip-path="url(#clip0)">
<path d="M557.088 645.273C565.888 626.266 574.68 606.979 578.499 586.385C582.318 565.792 580.715 543.443 569.778 525.581C558.841 507.72 537.306 495.607 516.754 499.645C499.875 502.961 486.321 516.256 478.385 531.518C470.449 546.78 467.265 563.994 464.178 580.917C463.181 561.691 462.124 542.156 455.738 523.995C449.351 505.834 436.775 488.909 418.852 481.881C400.929 474.854 377.614 480.38 368.167 497.155C354.859 520.787 372.505 553.937 357.202 576.33C354.578 553.868 331.088 536.121 308.764 539.734C286.44 543.346 269.745 567.594 274.338 589.738C277.07 602.914 286.06 614.121 296.808 622.218C307.556 630.314 320.056 639.698 332.422 645.005L557.088 645.273Z" fill="#F2F2F2"/>
<path d="M286.059 555.603C303.792 561.802 321.689 568.07 337.878 577.761C352.388 586.446 365.308 598.14 373.469 613.115C377.94 621.149 380.594 630.065 381.245 639.236C381.363 641.154 384.364 641.168 384.245 639.236C383.196 622.158 374.873 606.529 363.348 594.168C350.712 580.616 334.337 571.361 317.431 564.179C307.406 559.921 297.133 556.302 286.857 552.71C285.03 552.072 284.245 554.969 286.059 555.603Z" fill="white"/>
<path d="M388.346 484.859C399.241 503.01 407.965 522.378 414.34 542.565C420.727 562.745 424.751 583.598 426.33 604.706C427.203 616.522 427.299 628.382 426.615 640.211C426.504 642.139 429.504 642.133 429.615 640.211C430.825 618.884 429.535 597.49 425.769 576.464C422.01 555.44 415.831 534.922 407.356 515.319C402.599 504.308 397.113 493.626 390.936 483.345C390.728 483.016 390.401 482.78 390.023 482.688C389.644 482.596 389.245 482.654 388.909 482.85C388.573 483.047 388.326 483.366 388.221 483.741C388.116 484.116 388.161 484.516 388.346 484.859Z" fill="white"/>
<path d="M535.177 502.091C519.766 536.717 508.921 573.198 502.915 610.619C501.228 621.13 499.923 631.692 498.998 642.307C498.831 644.23 501.832 644.218 501.998 642.307C505.265 604.969 513.335 568.209 526.008 532.937C529.568 523.02 533.488 513.243 537.768 503.606C538.544 501.857 535.96 500.329 535.177 502.091Z" fill="white"/>
<path d="M106.069 643.029C75.3337 635.029 48.1741 616.942 28.9441 591.666C9.71399 566.391 -0.472909 535.39 0.0163473 503.635C0.138237 495.723 0.970137 487.645 4.29612 480.465C7.6221 473.285 13.8001 467.074 21.528 465.373C29.9619 463.516 38.8615 467.312 45.1467 473.234C51.4319 479.156 55.5531 486.97 59.3447 494.729C82.1825 541.463 99.5342 591.609 106.031 643.217L106.069 643.029Z" fill="#F2F2F2"/>
<path d="M17.7019 466.932L33.708 503.299L49.714 539.667C54.7831 551.184 59.8426 562.707 65.0821 574.148C70.2756 585.489 75.6471 596.751 81.3774 607.832C87.0995 618.897 93.1811 629.781 99.7824 640.347C100.604 641.663 101.435 642.974 102.273 644.279C102.853 645.184 104.303 644.345 103.719 643.434C96.9909 632.946 90.7915 622.129 84.9772 611.11C79.1565 600.08 73.7163 588.853 68.477 577.536C63.2097 566.159 58.145 554.689 53.0937 543.215C47.7768 531.137 42.4608 519.059 37.1457 506.98L21.1397 470.613L19.1478 466.087C18.7146 465.103 17.2714 465.954 17.7018 466.932L17.7019 466.932Z" fill="white"/>
<path d="M99.3922 643.281C81.2754 647.426 62.2917 645.367 45.4843 637.436C28.6768 629.505 15.019 616.16 6.70023 599.541C4.62756 595.4 2.8787 590.981 2.66715 586.356C2.4556 581.73 3.98659 576.838 7.53951 573.869C11.417 570.628 17.0622 570.196 21.9242 571.574C26.7861 572.952 31.0352 575.896 35.0983 578.901C59.5718 596.999 82.1179 618.349 99.4231 643.39L99.3922 643.281Z" fill="#F2F2F2"/>
<path d="M5.97376 575.711L24.1016 590.271L42.2294 604.831C47.9705 609.443 53.708 614.059 59.517 618.585C65.275 623.071 71.1042 627.468 77.0706 631.674C83.0286 635.874 89.1244 639.883 95.4041 643.586C96.1861 644.048 96.9709 644.504 97.7586 644.955C98.3039 645.268 98.8303 644.441 98.2812 644.126C91.9569 640.498 85.8179 636.555 79.8246 632.404C73.8248 628.248 67.9694 623.888 62.1942 619.427C56.3881 614.942 50.6622 610.355 44.9421 605.761C38.921 600.926 32.9003 596.09 26.8801 591.254L8.75223 576.694L6.49633 574.882C6.00575 574.488 5.4862 575.319 5.97377 575.711H5.97376Z" fill="white"/>
<path d="M870.966 645.616H43.6722C43.5155 645.616 43.3603 645.586 43.2155 645.526C43.0706 645.467 42.9389 645.379 42.828 645.268C42.7171 645.158 42.629 645.026 42.569 644.882C42.5089 644.737 42.478 644.582 42.478 644.425C42.478 644.269 42.5089 644.113 42.569 643.969C42.629 643.824 42.7171 643.693 42.828 643.582C42.9389 643.471 43.0706 643.384 43.2155 643.324C43.3603 643.265 43.5155 643.234 43.6722 643.235H870.966C871.282 643.235 871.585 643.36 871.808 643.583C872.031 643.807 872.157 644.109 872.157 644.425C872.157 644.741 872.031 645.044 871.808 645.267C871.585 645.49 871.282 645.616 870.966 645.616Z" fill="#3F3D56"/>
<path d="M849.233 526.323H793.223C793.223 526.986 792.959 527.622 792.491 528.091C792.022 528.56 791.386 528.823 790.723 528.823H735.743C734.967 529.408 734.259 530.079 733.633 530.823C731.754 533.065 730.727 535.898 730.733 538.823V540.823C730.734 544.138 732.052 547.317 734.395 549.661C736.739 552.005 739.918 553.322 743.233 553.323H849.233C852.547 553.32 855.725 552.003 858.069 549.659C860.412 547.315 861.73 544.138 861.733 540.823V538.823C861.728 535.51 860.41 532.333 858.067 529.99C855.724 527.646 852.547 526.328 849.233 526.323Z" fill="#3F3D56"/>
<path d="M803.229 552.827H790.229V644.827H803.229V552.827Z" fill="#3F3D56"/>
<path d="M840.229 644.37C840.229 645.775 820.529 644.913 796.229 644.913C771.928 644.913 752.229 645.775 752.229 644.37C752.229 642.965 771.928 631.827 796.229 631.827C820.529 631.827 840.229 642.965 840.229 644.37Z" fill="#3F3D56"/>
<path d="M846.784 529.203L844.604 515.563C844.327 513.844 843.38 512.305 841.97 511.283C840.561 510.262 838.803 509.841 837.083 510.113L814.594 513.703L776.074 519.853L763.544 521.853H790.724C791.387 521.854 792.022 522.117 792.491 522.586C792.96 523.055 793.223 523.69 793.224 524.353V526.323C793.223 526.986 792.96 527.622 792.491 528.091C792.022 528.56 791.387 528.823 790.724 528.823H721.554C720.588 529.275 719.752 529.963 719.124 530.823C718.592 531.523 718.207 532.323 717.994 533.176C717.781 534.029 717.744 534.916 717.884 535.783L718.503 539.663L719.253 544.373L720.063 549.433C720.339 551.148 721.283 552.684 722.689 553.704C724.095 554.723 725.848 555.144 727.563 554.873L745.434 552.023L796.974 543.793L841.333 536.713C843.049 536.434 844.584 535.488 845.605 534.081C846.626 532.674 847.05 530.921 846.784 529.203Z" fill="#00B9DA"/>
<path d="M744.063 530.823C743.406 529.95 742.535 529.261 741.534 528.823H722.414C721.408 529.259 720.533 529.948 719.874 530.823C718.984 531.963 718.501 533.368 718.503 534.813V611.023C718.506 612.76 719.197 614.424 720.425 615.652C721.653 616.88 723.317 617.571 725.054 617.573H738.884C740.62 617.571 742.285 616.88 743.512 615.652C744.74 614.424 745.431 612.76 745.434 611.023V534.813C745.434 533.368 744.952 531.963 744.063 530.823Z" fill="#00B9DA"/>
<path d="M785.683 401.023L785.553 400.853L776.973 390.283C776.516 389.716 775.965 389.232 775.343 388.853C775.014 388.63 774.658 388.449 774.283 388.313C773.736 388.094 773.16 387.953 772.573 387.893C772.181 387.852 771.786 387.845 771.393 387.873C771.385 387.874 771.378 387.878 771.373 387.883C770.047 387.981 768.784 388.484 767.753 389.323L750.143 403.603L727.513 421.963L693.743 449.363L691.283 451.363H734.013L736.483 449.363L744.653 442.733L745.233 442.273L784.693 410.263L784.723 410.243C785.535 409.59 786.177 408.749 786.593 407.793C786.868 407.168 787.043 406.503 787.113 405.823C787.204 404.968 787.125 404.104 786.879 403.28C786.634 402.456 786.227 401.689 785.683 401.023Z" fill="#00B9DA"/>
<path d="M785.554 400.853C785.002 398.159 783.777 395.647 781.994 393.553C780.216 391.443 777.926 389.825 775.344 388.853C774.943 388.703 774.554 388.563 774.154 388.453C773.251 388.185 772.328 387.991 771.393 387.873C771.386 387.874 771.379 387.878 771.373 387.883C767.166 387.397 762.935 388.566 759.574 391.143L729.114 414.423C728.467 415.002 727.943 415.705 727.574 416.49C727.204 417.275 726.997 418.126 726.964 418.993C726.916 420.013 727.104 421.029 727.514 421.963C727.614 422.173 727.724 422.383 727.844 422.583C728.077 422.99 728.359 423.366 728.683 423.703L733.563 429.183L744.913 441.913L745.233 442.273L745.964 443.103C746.545 443.74 747.246 444.256 748.026 444.622C748.807 444.987 749.652 445.195 750.513 445.233C751.375 445.271 752.235 445.139 753.045 444.844C753.855 444.549 754.598 444.097 755.233 443.513L781.503 415.293C782.868 413.828 783.95 412.123 784.693 410.263C785.893 407.278 786.192 404.007 785.554 400.853Z" fill="#2F2E41"/>
<path d="M797.167 364.643C824.849 364.643 847.289 342.202 847.289 314.521C847.289 286.839 824.849 264.398 797.167 264.398C769.485 264.398 747.045 286.839 747.045 314.521C747.045 342.202 769.485 364.643 797.167 364.643Z" fill="#00B9DA"/>
<path d="M815.964 522.303L814.594 513.703L813.784 508.653C813.508 506.937 812.562 505.4 811.154 504.38C809.746 503.36 807.991 502.941 806.273 503.213L769.844 509.023L759.964 510.603L757.964 510.923V521.853H790.724C791.387 521.854 792.022 522.117 792.491 522.586C792.96 523.055 793.223 523.69 793.224 524.353V526.323C793.223 526.986 792.96 527.622 792.491 528.091C792.022 528.56 791.387 528.823 790.724 528.823H687.054C687.054 528.843 687.063 528.863 687.063 528.883L687.684 532.763L689.244 542.523C689.519 544.238 690.463 545.774 691.869 546.794C693.275 547.813 695.028 548.234 696.744 547.963L714.614 545.113L718.503 544.493L719.253 544.373L745.434 540.193L763.244 537.343L791.503 532.833L791.924 532.763L810.514 529.803C812.229 529.529 813.766 528.585 814.788 527.179C815.809 525.773 816.232 524.02 815.964 522.303Z" fill="#00B9DA"/>
<path d="M865.384 485.523C865.384 526.383 861.233 550.823 797.233 543.823C797.144 543.813 797.063 543.803 796.974 543.793C785.559 542.666 774.269 540.507 763.244 537.343C757.514 535.67 751.945 533.488 746.604 530.823C745.344 530.183 744.134 529.513 742.943 528.823H790.724C791.387 528.823 792.022 528.56 792.491 528.091C792.96 527.622 793.223 526.986 793.224 526.323V524.353C793.223 523.69 792.96 523.055 792.491 522.586C792.022 522.117 791.387 521.854 790.724 521.853H757.964V458.693C757.961 456.75 757.188 454.887 755.814 453.513C754.44 452.139 752.577 451.366 750.634 451.363H723.983C724.214 450.703 724.443 450.033 724.693 449.363C727.194 442.445 730.157 435.703 733.563 429.183C738.23 420.129 743.784 411.56 750.144 403.603C754.572 398.058 759.543 392.97 764.983 388.413C775.014 380.133 785.934 375.013 797.014 375.013C837.874 375.013 865.384 444.663 865.384 485.523Z" fill="#2F2E41"/>
<path d="M798.22 333.097L798.272 331.224C794.788 331.128 791.716 330.909 789.407 329.222C788.753 328.717 788.215 328.077 787.83 327.345C787.445 326.613 787.222 325.807 787.177 324.982C787.136 324.477 787.213 323.97 787.4 323.5C787.587 323.03 787.88 322.609 788.257 322.271C789.789 320.977 792.255 321.396 794.052 322.22L795.602 322.93L792.63 301.212L790.774 301.466L793.302 319.94C792.267 319.557 791.153 319.438 790.06 319.595C788.968 319.752 787.932 320.18 787.047 320.84C786.452 321.36 785.986 322.01 785.683 322.74C785.381 323.47 785.252 324.259 785.305 325.047C785.36 326.157 785.657 327.241 786.174 328.223C786.692 329.206 787.418 330.063 788.302 330.735C791.268 332.903 795.123 333.011 798.22 333.097Z" fill="#2F2E41"/>
<path d="M781.597 303.059H771.509V304.932H781.597V303.059Z" fill="#2F2E41"/>
<path d="M813.438 303.059H803.351V304.932H813.438V303.059Z" fill="#2F2E41"/>
<path d="M837.168 300.749C833.27 294.881 826.411 292.394 819.647 291.789C812.034 291.108 804.678 292.576 797.245 294.002C789.065 295.572 780.407 297.041 772.164 295.056C768.518 294.212 765.11 292.552 762.199 290.2C759.288 287.848 756.948 284.866 755.357 281.478C752.339 274.869 751.689 267.422 753.515 260.39C755.447 252.91 760.242 246.329 766.054 241.358C777.916 231.213 793.97 226.654 809.41 227.083C824.792 227.48 839.659 232.708 851.905 242.025C864.17 251.678 872.802 265.205 876.39 280.396C880.142 295.462 878.92 311.338 872.906 325.653C869.527 333.491 864.64 340.557 860.87 348.198C857.359 355.312 854.655 363.583 856.839 371.518C858.756 378.481 864.384 384.667 871.449 386.557C874.663 387.4 878.064 387.177 881.141 385.921C884.218 384.665 886.803 382.444 888.509 379.592C892.041 374.023 892.125 366.729 886.823 362.232C885.486 361.08 883.928 360.211 882.245 359.68C880.562 359.148 878.788 358.964 877.032 359.14C875.275 359.315 873.573 359.845 872.028 360.699C870.483 361.553 869.128 362.712 868.045 364.106C865.894 366.9 864.931 370.43 865.365 373.929C865.627 375.698 862.92 376.461 862.656 374.676C862.023 370.975 862.725 367.17 864.636 363.938C866.547 360.706 869.544 358.258 873.092 357.029C876.64 355.801 880.509 355.871 884.009 357.229C887.51 358.587 890.415 361.143 892.206 364.443C895.404 370.455 893.679 377.707 889.619 382.846C887.525 385.584 884.686 387.66 881.443 388.826C878.199 389.993 874.688 390.2 871.33 389.423C863.941 387.717 857.897 381.844 855.054 374.943C851.889 367.259 853.339 358.686 856.424 351.23C859.759 343.171 864.712 335.943 868.628 328.177C872.174 321.159 874.43 313.561 875.29 305.745C877.01 290.049 873.448 274.228 865.167 260.785C856.726 247.55 843.843 237.758 828.831 233.169C813.928 228.381 797.839 228.806 783.21 234.376C768.934 240.001 755.149 252.259 755.314 268.723C755.385 275.756 757.996 282.928 763.383 287.619C769.821 293.225 778.784 293.704 786.877 292.829C795.021 291.949 802.93 289.57 811.109 288.963C818.224 288.436 825.899 288.984 832.251 292.519C835.209 294.168 837.728 296.505 839.594 299.331C840.598 300.841 838.165 302.25 837.168 300.749V300.749Z" fill="#2F2E41"/>
<path d="M826.964 415.353L822.994 412.593L815.604 407.463C814.174 406.475 812.412 406.094 810.702 406.404C808.993 406.713 807.476 407.687 806.483 409.113L782.394 443.783L759.964 476.063L757.964 478.943V521.853H758.144C759.703 521.699 761.154 520.989 762.233 519.853C762.465 519.615 762.676 519.358 762.864 519.083L769.844 509.023L787.094 484.193L804.974 458.473L806.674 456.023L828.594 424.473C828.713 424.306 828.823 424.133 828.924 423.953C829.024 423.782 829.114 423.605 829.193 423.423C829.822 422.03 829.944 420.46 829.536 418.986C829.129 417.512 828.219 416.227 826.964 415.353Z" fill="#00B9DA"/>
<path d="M827.034 401.633C826.327 401.169 825.584 400.761 824.813 400.413C821.397 398.848 817.546 398.506 813.907 399.446C810.269 400.385 807.064 402.549 804.833 405.573L782.074 436.433C781.617 437.168 781.31 437.987 781.172 438.841C781.034 439.695 781.068 440.568 781.271 441.41C781.473 442.251 781.842 443.044 782.354 443.741C782.866 444.439 783.512 445.028 784.253 445.473L804.974 458.473L805.233 458.633L806.273 459.283C807.761 460.182 809.544 460.456 811.233 460.044C812.921 459.631 814.378 458.567 815.284 457.083L831.353 425.183L831.623 424.653L831.634 424.643L832.623 422.653C834.429 419.073 834.857 414.955 833.827 411.08C832.796 407.205 830.379 403.844 827.034 401.633Z" fill="#2F2E41"/>
<path d="M687.684 528.823V604.113C687.686 605.85 688.377 607.514 689.605 608.742C690.833 609.97 692.497 610.661 694.233 610.663H708.063C709.8 610.661 711.465 609.97 712.692 608.742C713.92 607.514 714.611 605.85 714.614 604.113V528.823H687.684Z" fill="#00B9DA"/>
<path d="M790.724 519.853H759.964V458.693C759.961 456.22 758.977 453.848 757.228 452.099C755.479 450.35 753.107 449.366 750.634 449.363H636.563C634.088 449.364 631.714 450.347 629.963 452.096C628.212 453.845 627.227 456.218 627.224 458.693V521.493C627.227 523.969 628.212 526.341 629.963 528.091C631.714 529.84 634.088 530.823 636.563 530.823H790.724C790.884 530.823 791.034 530.813 791.184 530.803C791.324 530.793 791.464 530.763 791.604 530.743C792.624 530.537 793.542 529.984 794.201 529.179C794.861 528.373 795.222 527.365 795.224 526.323V524.353C795.224 523.16 794.749 522.015 793.906 521.171C793.062 520.328 791.917 519.853 790.724 519.853ZM790.724 528.823H636.563C634.619 528.823 632.754 528.05 631.378 526.676C630.002 525.302 629.227 523.438 629.224 521.493V458.693C629.227 456.749 630.002 454.885 631.378 453.511C632.754 452.136 634.619 451.364 636.563 451.363H750.634C752.577 451.366 754.44 452.139 755.814 453.513C757.188 454.887 757.961 456.75 757.964 458.693V521.853H790.724C791.387 521.854 792.022 522.117 792.491 522.586C792.96 523.055 793.223 523.69 793.224 524.353V526.323C793.223 526.986 792.96 527.622 792.491 528.091C792.022 528.56 791.387 528.823 790.724 528.823Z" fill="#3F3D56"/>
<path d="M693.594 497.785C697.842 497.785 701.285 494.342 701.285 490.094C701.285 485.847 697.842 482.404 693.594 482.404C689.347 482.404 685.904 485.847 685.904 490.094C685.904 494.342 689.347 497.785 693.594 497.785Z" fill="#00B9DA"/>
<path d="M121.996 361.34C151.554 361.34 175.515 337.379 175.515 307.821C175.515 278.263 151.554 254.302 121.996 254.302C92.4384 254.302 68.4771 278.263 68.4771 307.821C68.4771 337.379 92.4384 361.34 121.996 361.34Z" fill="#00B9DA"/>
<path d="M111.563 509.153H96.8037C95.0803 509.155 93.428 509.84 92.2093 511.059C90.9907 512.278 90.3053 513.93 90.3037 515.653V638.663C90.3053 640.387 90.9907 642.039 92.2093 643.258C93.428 644.476 95.0803 645.162 96.8037 645.163H111.563C113.287 645.162 114.939 644.476 116.158 643.258C117.377 642.039 118.062 640.387 118.063 638.663V515.653C118.062 513.93 117.376 512.278 116.158 511.059C114.939 509.84 113.287 509.155 111.563 509.153Z" fill="#2F2E41"/>
<path d="M142.753 509.153H127.994C126.27 509.155 124.618 509.84 123.399 511.059C122.181 512.278 121.495 513.93 121.494 515.653V638.663C121.495 640.387 122.181 642.039 123.399 643.258C124.618 644.476 126.27 645.162 127.994 645.163H142.753C143.607 645.163 144.452 644.995 145.241 644.669C146.03 644.342 146.746 643.863 147.35 643.26C147.953 642.656 148.432 641.94 148.759 641.151C149.085 640.362 149.253 639.517 149.253 638.663V515.653C149.253 514.8 149.085 513.955 148.759 513.166C148.432 512.377 147.953 511.661 147.35 511.057C146.746 510.454 146.03 509.975 145.241 509.648C144.452 509.321 143.607 509.153 142.753 509.153Z" fill="#2F2E41"/>
<path d="M153.443 389.403C148.271 382.719 141.138 377.818 133.043 375.388C124.948 372.957 116.296 373.118 108.296 375.847C100.297 378.577 93.3513 383.739 88.4306 390.611C83.51 397.483 80.8607 405.721 80.8534 414.173V523.113C80.8494 523.445 80.8762 523.777 80.9335 524.103C81.1708 525.77 82.0012 527.295 83.2723 528.399C84.5434 529.503 86.1699 530.112 87.8534 530.113H154.924C156.779 530.11 158.557 529.371 159.869 528.059C161.181 526.747 161.92 524.969 161.924 523.113V414.173C161.936 405.202 158.951 396.484 153.443 389.403Z" fill="#2F2E41"/>
<path d="M167.192 331.479L167.136 329.479C170.857 329.376 174.137 329.142 176.602 327.342C177.301 326.802 177.875 326.118 178.286 325.337C178.697 324.556 178.935 323.695 178.983 322.813C179.027 322.275 178.945 321.733 178.745 321.231C178.545 320.729 178.232 320.28 177.831 319.919C176.194 318.537 173.562 318.984 171.643 319.864L169.988 320.623L173.161 297.432L175.143 297.704L172.443 317.431C175.051 316.664 177.467 316.994 179.122 318.391C179.757 318.946 180.255 319.64 180.578 320.42C180.901 321.199 181.039 322.042 180.982 322.884C180.924 324.068 180.607 325.225 180.054 326.274C179.501 327.324 178.726 328.239 177.782 328.957C174.615 331.271 170.499 331.387 167.192 331.479Z" fill="#2F2E41"/>
<path d="M161.713 299.405H150.942V301.405H161.713V299.405Z" fill="#2F2E41"/>
<path d="M106.304 390.943C105.726 390.313 105.029 389.803 104.253 389.445C103.477 389.086 102.638 388.885 101.784 388.853L90.1537 388.373L87.0434 388.243C85.3215 388.173 83.6419 388.788 82.3729 389.954C81.1038 391.12 80.3488 392.742 80.2734 394.463L78.4335 438.783L75.1835 517.373C75.1172 519.013 75.6728 520.618 76.7389 521.866C77.8051 523.114 79.3033 523.913 80.9335 524.103C81.0937 524.123 81.2436 524.133 81.4037 524.143L90.3037 524.513L96.1537 524.753C96.6223 524.774 97.0917 524.744 97.5537 524.663C98.7754 524.445 99.9096 523.883 100.824 523.043C101.454 522.466 101.964 521.769 102.322 520.993C102.681 520.217 102.882 519.378 102.913 518.523L103.304 509.153L106.174 439.843L108.014 395.613C108.085 393.892 107.47 392.212 106.304 390.943Z" fill="#00B9DA"/>
<path d="M97.7837 381.243C96.5408 380.981 95.2737 380.85 94.0034 380.853C89.0987 380.859 84.3966 382.81 80.9285 386.278C77.4603 389.747 75.5093 394.449 75.5034 399.353V433.353C75.5062 434.43 75.7752 435.489 76.2864 436.436C76.7977 437.384 77.5353 438.19 78.4336 438.783C79.166 439.266 79.9897 439.592 80.8535 439.743C81.2326 439.816 81.6175 439.852 82.0034 439.853H106.003C106.06 439.855 106.117 439.852 106.174 439.843C107.867 439.8 109.476 439.097 110.658 437.885C111.84 436.673 112.502 435.047 112.503 433.353V399.353C112.498 395.105 111.033 390.987 108.353 387.69C105.673 384.393 101.942 382.117 97.7837 381.243Z" fill="#2F2E41"/>
<path d="M225.964 478.073C224.395 477.263 223.163 475.925 222.486 474.294C221.809 472.664 221.73 470.846 222.263 469.163L227.953 451.053L226.293 449.673L182.623 413.543L153.443 389.403L149.893 386.463C148.566 385.364 146.856 384.837 145.14 384.999C143.424 385.16 141.843 385.996 140.743 387.323L131.333 398.703C130.788 399.36 130.377 400.118 130.125 400.934C129.873 401.749 129.784 402.607 129.864 403.457C129.944 404.307 130.191 405.133 130.59 405.887C130.99 406.642 131.535 407.31 132.193 407.853L161.924 432.453L165.304 435.243L226.973 486.263C228.114 487.211 229.545 487.74 231.027 487.761C232.51 487.783 233.955 487.297 235.123 486.383C235.445 486.131 235.74 485.846 236.003 485.533C236.046 485.493 236.086 485.449 236.123 485.403L237.313 483.963L225.964 478.073Z" fill="#00B9DA"/>
<path d="M180.523 406.603L154.214 385.073C152.334 383.534 150.169 382.381 147.843 381.678C145.518 380.975 143.076 380.738 140.659 380.979C138.241 381.22 135.895 381.934 133.753 383.082C131.612 384.23 129.718 385.788 128.179 387.668C126.639 389.548 125.486 391.713 124.783 394.038C124.081 396.364 123.843 398.806 124.084 401.223C124.571 406.106 126.977 410.595 130.773 413.703L157.083 435.233C158.242 436.183 159.694 436.702 161.192 436.704C162.69 436.706 164.142 436.19 165.304 435.243C165.65 434.976 165.962 434.667 166.233 434.323L181.433 415.753C181.972 415.102 182.376 414.351 182.623 413.543C182.998 412.309 182.998 410.99 182.624 409.755C182.25 408.52 181.519 407.424 180.523 406.603Z" fill="#2F2E41"/>
<path d="M108.578 316.882C105.792 312.227 103.611 307.097 104.646 301.58C105.57 296.654 109.115 292.818 114.213 292.315C117.282 292.011 120.337 292.831 123.335 293.365C125.793 293.796 128.291 293.958 130.783 293.847C135.799 293.619 140.716 292.372 145.234 290.183C149.821 288.037 153.895 284.933 157.181 281.081C160.468 277.23 162.893 272.718 164.291 267.852C167.333 256.778 165.074 244.203 157.851 235.189L160.358 234.527L157.093 245.251C157.03 245.471 156.917 245.674 156.764 245.844C156.611 246.014 156.421 246.147 156.209 246.234C155.997 246.32 155.768 246.357 155.539 246.342C155.311 246.327 155.089 246.261 154.89 246.148C148.974 242.41 142.36 239.912 135.449 238.808C128.539 237.703 121.476 238.013 114.689 239.721C110.854 240.684 107.15 242.109 103.658 243.963C101.954 244.869 100.437 242.281 102.144 241.373C108.703 237.951 115.888 235.896 123.264 235.331C130.641 234.766 138.055 235.703 145.059 238.085C149.047 239.445 152.857 241.282 156.404 243.557L154.2 244.454L157.465 233.73C157.538 233.479 157.674 233.251 157.861 233.069C158.048 232.886 158.279 232.756 158.531 232.689C158.783 232.622 159.049 232.622 159.301 232.689C159.554 232.755 159.785 232.886 159.972 233.068C163.332 237.33 165.794 242.227 167.21 247.466C168.627 252.705 168.968 258.176 168.213 263.551C167.484 268.847 165.643 273.93 162.812 278.466C159.981 283.002 156.223 286.888 151.784 289.869C147.351 292.862 142.367 294.946 137.123 296C131.878 297.055 126.477 297.058 121.231 296.011C118.295 295.447 114.965 294.639 112.085 295.868C111.04 296.372 110.119 297.1 109.387 298C108.655 298.9 108.131 299.95 107.851 301.076C106.218 306.607 108.996 311.86 111.833 316.459L108.578 316.882Z" fill="#2F2E41"/>
<path d="M303.823 427.683L254.353 399.053C253.121 398.341 251.745 397.915 250.326 397.806C248.907 397.696 247.481 397.907 246.155 398.423C244.828 398.938 243.635 399.745 242.662 400.784C241.689 401.822 240.961 403.066 240.533 404.423L226.293 449.673L220.353 468.563C219.68 470.695 219.782 472.995 220.64 475.059C221.498 477.123 223.057 478.817 225.043 479.843L236.003 485.533L271.763 504.083C273.116 504.787 274.618 505.154 276.143 505.153C277.269 505.151 278.386 504.951 279.443 504.563L279.513 504.533C280.763 504.056 281.898 503.322 282.845 502.378C283.793 501.433 284.531 500.301 285.013 499.053L307.933 439.303C308.75 437.195 308.785 434.864 308.031 432.732C307.277 430.6 305.784 428.809 303.823 427.683ZM306.063 438.593L283.143 498.343C282.762 499.328 282.177 500.222 281.428 500.966C280.678 501.711 279.781 502.289 278.793 502.663L278.743 502.683C277.763 503.046 276.718 503.2 275.674 503.136C274.631 503.072 273.612 502.792 272.683 502.313L237.313 483.963L225.963 478.073C224.395 477.263 223.163 475.925 222.486 474.294C221.809 472.664 221.73 470.846 222.263 469.163L227.953 451.053L242.433 405.023C242.773 403.953 243.349 402.973 244.117 402.155C244.886 401.336 245.828 400.701 246.874 400.294C247.921 399.887 249.045 399.72 250.164 399.805C251.284 399.89 252.37 400.224 253.343 400.783L302.813 429.413C304.363 430.302 305.543 431.717 306.14 433.401C306.736 435.085 306.709 436.927 306.063 438.593Z" fill="#3F3D56"/>
<path d="M287.226 446.827C286.724 446.827 286.231 446.701 285.792 446.461L252.792 428.461C252.096 428.078 251.58 427.435 251.357 426.673C251.135 425.911 251.223 425.092 251.603 424.395C251.983 423.698 252.624 423.18 253.386 422.955C254.147 422.729 254.966 422.815 255.665 423.193L288.665 441.193C289.25 441.512 289.713 442.018 289.979 442.629C290.245 443.241 290.3 443.923 290.135 444.569C289.97 445.216 289.594 445.788 289.067 446.197C288.54 446.606 287.892 446.828 287.225 446.827H287.226Z" fill="#00B9DA"/>
<path d="M281.226 459.827C280.724 459.827 280.231 459.701 279.792 459.461L246.792 441.461C246.096 441.078 245.58 440.435 245.357 439.673C245.135 438.911 245.223 438.092 245.603 437.395C245.983 436.698 246.624 436.18 247.386 435.955C248.147 435.729 248.966 435.815 249.665 436.193L282.665 454.193C283.25 454.512 283.713 455.018 283.979 455.629C284.245 456.241 284.3 456.923 284.135 457.569C283.97 458.216 283.594 458.788 283.067 459.197C282.54 459.606 281.892 459.828 281.225 459.827H281.226Z" fill="#00B9DA"/>
<path d="M276.226 473.827C275.724 473.827 275.231 473.701 274.792 473.461L241.792 455.461C241.096 455.078 240.58 454.435 240.357 453.673C240.135 452.911 240.223 452.092 240.603 451.395C240.983 450.698 241.624 450.18 242.386 449.955C243.147 449.729 243.966 449.815 244.665 450.193L277.665 468.193C278.25 468.512 278.713 469.018 278.979 469.629C279.245 470.241 279.3 470.923 279.135 471.569C278.97 472.216 278.594 472.788 278.067 473.197C277.54 473.606 276.892 473.828 276.225 473.827H276.226Z" fill="#00B9DA"/>
<path d="M625.199 190.543H486.47C484.476 190.541 482.564 189.747 481.154 188.337C479.744 186.927 478.951 185.016 478.949 183.021V7.52142C478.951 5.52731 479.744 3.61553 481.154 2.20547C482.564 0.795424 484.476 0.00226824 486.47 0H625.199C627.193 0.00228144 629.105 0.795443 630.515 2.20549C631.925 3.61554 632.718 5.52732 632.72 7.52142V183.021C632.718 185.016 631.925 186.927 630.515 188.337C629.105 189.747 627.193 190.541 625.199 190.543ZM486.47 1.67143C484.919 1.67317 483.432 2.29007 482.336 3.38678C481.239 4.48349 480.622 5.97044 480.62 7.52142V183.021C480.622 184.572 481.239 186.059 482.336 187.156C483.432 188.253 484.919 188.87 486.47 188.871H625.199C626.75 188.87 628.237 188.253 629.333 187.156C630.43 186.059 631.047 184.572 631.049 183.021V7.52142C631.047 5.97044 630.43 4.48349 629.333 3.38678C628.237 2.29007 626.75 1.67317 625.199 1.67143H486.47Z" fill="#3F3D56"/>
<path d="M544.295 84.3584H513.758C512.761 84.3573 511.805 83.9608 511.1 83.2557C510.395 82.5507 509.998 81.5948 509.997 80.5977V44.562C509.998 43.565 510.395 42.6091 511.1 41.904C511.805 41.199 512.761 40.8024 513.758 40.8013H544.295C545.292 40.8024 546.248 41.199 546.953 41.904C547.658 42.6091 548.054 43.565 548.055 44.562V80.5977C548.054 81.5948 547.658 82.5507 546.953 83.2557C546.248 83.9608 545.292 84.3573 544.295 84.3584Z" fill="#FBBB00"/>
<path d="M603.63 101.073H573.093C572.096 101.072 571.14 100.675 570.435 99.97C569.73 99.265 569.334 98.3091 569.333 97.312V61.2763C569.334 60.2793 569.73 59.3234 570.435 58.6183C571.14 57.9133 572.096 57.5167 573.093 57.5156H603.63C604.627 57.5167 605.583 57.9133 606.288 58.6183C606.993 59.3234 607.39 60.2793 607.391 61.2763V97.312C607.39 98.3091 606.993 99.265 606.288 99.97C605.583 100.675 604.627 101.072 603.63 101.073Z" fill="#CCCCCC"/>
<path d="M555.995 152.051H525.458C524.46 152.05 523.505 151.654 522.799 150.949C522.094 150.244 521.698 149.288 521.697 148.291V112.255C521.698 111.258 522.094 110.302 522.799 109.597C523.505 108.892 524.46 108.495 525.458 108.494H555.995C556.992 108.495 557.947 108.892 558.653 109.597C559.358 110.302 559.754 111.258 559.755 112.255V148.291C559.754 149.288 559.358 150.244 558.653 150.949C557.947 151.654 556.992 152.05 555.995 152.051Z" fill="#FF6584"/>
<path d="M444.238 143.107C443.661 141.737 442.695 140.567 441.46 139.74C440.225 138.914 438.775 138.468 437.289 138.457H298.559C296.564 138.458 294.652 139.251 293.242 140.661C291.832 142.071 291.04 143.983 291.039 145.977V321.477C291.04 323.471 291.832 325.383 293.242 326.793C294.652 328.203 296.564 328.996 298.559 328.997H437.289C439.282 328.994 441.193 328.201 442.603 326.791C444.013 325.381 444.806 323.47 444.809 321.477V145.977C444.812 144.992 444.618 144.016 444.238 143.107ZM443.139 321.477C443.137 323.028 442.52 324.515 441.423 325.611C440.326 326.708 438.839 327.325 437.289 327.327H298.559C297.007 327.326 295.519 326.71 294.422 325.613C293.325 324.516 292.709 323.028 292.708 321.477V145.977C292.71 144.426 293.327 142.939 294.424 141.842C295.521 140.746 297.008 140.129 298.559 140.127H437.289C438.457 140.131 439.597 140.484 440.565 141.139C441.532 141.795 442.282 142.723 442.719 143.807C442.804 144.023 442.877 144.243 442.939 144.467C443.071 144.959 443.139 145.467 443.139 145.977V321.477Z" fill="#3F3D56"/>
<path d="M415.283 179.893H373.497C372.611 179.893 371.76 179.541 371.133 178.914C370.507 178.287 370.154 177.436 370.154 176.55C370.154 175.663 370.507 174.813 371.133 174.186C371.76 173.559 372.611 173.207 373.497 173.207H415.283C416.169 173.207 417.02 173.559 417.647 174.186C418.274 174.813 418.626 175.663 418.626 176.55C418.626 177.436 418.274 178.287 417.647 178.914C417.02 179.541 416.169 179.893 415.283 179.893Z" fill="#3F3D56"/>
<path d="M415.283 197.443H373.497C372.611 197.443 371.76 197.091 371.133 196.464C370.507 195.837 370.154 194.986 370.154 194.1C370.154 193.213 370.507 192.363 371.133 191.736C371.76 191.109 372.611 190.757 373.497 190.757H415.283C416.169 190.757 417.02 191.109 417.647 191.736C418.274 192.363 418.626 193.213 418.626 194.1C418.626 194.986 418.274 195.837 417.647 196.464C417.02 197.091 416.169 197.443 415.283 197.443Z" fill="#3F3D56"/>
<path d="M352.057 207.436H321.52C320.523 207.435 319.567 207.038 318.862 206.333C318.157 205.628 317.76 204.672 317.759 203.675V167.639C317.76 166.642 318.157 165.686 318.862 164.981C319.567 164.276 320.523 163.88 321.52 163.879H352.057C353.054 163.88 354.01 164.276 354.715 164.981C355.42 165.686 355.817 166.642 355.818 167.639V203.675C355.817 204.672 355.42 205.628 354.715 206.333C354.01 207.038 353.054 207.435 352.057 207.436Z" fill="#FBBB00"/>
<path d="M414.993 233.378H320.558C320.118 233.379 319.683 233.293 319.277 233.126C318.87 232.958 318.501 232.712 318.19 232.401C317.879 232.091 317.632 231.722 317.464 231.316C317.296 230.91 317.209 230.475 317.209 230.036C317.209 229.596 317.296 229.161 317.464 228.755C317.632 228.349 317.879 227.98 318.19 227.67C318.501 227.359 318.87 227.113 319.277 226.946C319.683 226.778 320.118 226.692 320.558 226.693H414.993C415.879 226.694 416.728 227.047 417.353 227.674C417.979 228.301 418.33 229.15 418.33 230.036C418.33 230.921 417.979 231.771 417.353 232.397C416.728 233.024 415.879 233.377 414.993 233.378Z" fill="#CCCCCC"/>
<path d="M414.993 250.929H320.558C320.118 250.929 319.683 250.843 319.277 250.676C318.87 250.508 318.501 250.262 318.19 249.951C317.879 249.641 317.632 249.272 317.464 248.866C317.296 248.46 317.209 248.025 317.209 247.586C317.209 247.146 317.296 246.711 317.464 246.305C317.632 245.899 317.879 245.53 318.19 245.22C318.501 244.909 318.87 244.663 319.277 244.496C319.683 244.328 320.118 244.242 320.558 244.243H414.993C415.88 244.243 416.73 244.595 417.357 245.222C417.984 245.849 418.336 246.699 418.336 247.586C418.336 248.472 417.984 249.322 417.357 249.949C416.73 250.576 415.88 250.929 414.993 250.929Z" fill="#CCCCCC"/>
<path d="M414.993 268.478H320.558C320.118 268.479 319.683 268.393 319.277 268.226C318.87 268.058 318.501 267.812 318.19 267.501C317.879 267.191 317.632 266.822 317.464 266.416C317.296 266.01 317.209 265.575 317.209 265.136C317.209 264.696 317.296 264.261 317.464 263.855C317.632 263.449 317.879 263.08 318.19 262.77C318.501 262.459 318.87 262.213 319.277 262.046C319.683 261.878 320.118 261.792 320.558 261.793H414.993C415.88 261.793 416.73 262.145 417.357 262.772C417.984 263.399 418.336 264.249 418.336 265.136C418.336 266.022 417.984 266.872 417.357 267.499C416.73 268.126 415.88 268.478 414.993 268.478Z" fill="#CCCCCC"/>
<path d="M414.993 286.029H320.558C320.118 286.029 319.683 285.943 319.277 285.776C318.87 285.608 318.501 285.362 318.19 285.051C317.879 284.741 317.632 284.372 317.464 283.966C317.296 283.56 317.209 283.125 317.209 282.686C317.209 282.246 317.296 281.811 317.464 281.405C317.632 280.999 317.879 280.63 318.19 280.32C318.501 280.009 318.87 279.763 319.277 279.596C319.683 279.428 320.118 279.342 320.558 279.343H414.993C415.88 279.343 416.73 279.695 417.357 280.322C417.984 280.949 418.336 281.799 418.336 282.686C418.336 283.572 417.984 284.423 417.357 285.049C416.73 285.676 415.88 286.029 414.993 286.029Z" fill="#CCCCCC"/>
<path d="M414.993 303.578H320.558C320.118 303.579 319.683 303.493 319.277 303.326C318.87 303.158 318.501 302.912 318.19 302.601C317.879 302.291 317.632 301.922 317.464 301.516C317.296 301.11 317.209 300.675 317.209 300.236C317.209 299.796 317.296 299.361 317.464 298.955C317.632 298.549 317.879 298.18 318.19 297.87C318.501 297.559 318.87 297.313 319.277 297.146C319.683 296.978 320.118 296.892 320.558 296.893H414.993C415.879 296.894 416.728 297.247 417.353 297.874C417.979 298.501 418.33 299.35 418.33 300.236C418.33 301.121 417.979 301.971 417.353 302.597C416.728 303.224 415.879 303.577 414.993 303.578Z" fill="#CCCCCC"/>
<path d="M549.393 209.709L470.307 285.004L471.46 286.215L550.545 210.92L549.393 209.709Z" fill="#E6E6E6"/>
<path d="M469.569 286.858L479.607 286.74L479.589 285.067L471.347 285.166L471.851 276.94L470.181 276.839L469.569 286.858Z" fill="#E6E6E6"/>
<path d="M551.281 209.063L550.671 219.083L549.001 218.983L549.504 210.756L541.263 210.855L541.245 209.183L551.281 209.063Z" fill="#E6E6E6"/>
<path d="M510.426 257.155C515.503 257.155 519.619 253.039 519.619 247.962C519.619 242.885 515.503 238.769 510.426 238.769C505.349 238.769 501.233 242.885 501.233 247.962C501.233 253.039 505.349 257.155 510.426 257.155Z" fill="#E6E6E6"/>
<path d="M443.393 31.7095L364.307 107.004L365.46 108.215L444.545 32.9201L443.393 31.7095Z" fill="#E6E6E6"/>
<path d="M363.569 108.858L373.607 108.74L373.589 107.067L365.347 107.166L365.851 98.94L364.181 98.839L363.569 108.858Z" fill="#E6E6E6"/>
<path d="M445.281 31.063L444.671 41.083L443.001 40.983L443.504 32.756L435.263 32.855L435.245 31.183L445.281 31.063Z" fill="#E6E6E6"/>
<path d="M404.426 79.1549C409.503 79.1549 413.619 75.0391 413.619 69.962C413.619 64.8849 409.503 60.7692 404.426 60.7692C399.349 60.7692 395.233 64.8849 395.233 69.962C395.233 75.0391 399.349 79.1549 404.426 79.1549Z" fill="#E6E6E6"/>
<path d="M759.934 520.913H757.934V529.913H759.934V520.913Z" fill="#3F3D56"/>
</g>
<defs>
<clipPath id="clip0">
<rect width="893.867" height="645.616" fill="white"/>
</clipPath>
</defs>
</svg>
