<svg width="23" height="23" viewBox="0 0 23 23" fill="none" xmlns="http://www.w3.org/2000/svg">
<g clip-path="url(#clip0)">
<path d="M23 11.5011C23 5.1493 17.8513 0.000976562 11.5002 0.000976562C5.14878 0.000976562 0 5.1493 0 11.5011C0 17.852 5.14878 23.0007 11.5002 23.0007C17.8513 23.0007 23 17.852 23 11.5011Z" fill="#25B7D3"/>
<path d="M6.40723 8.04714C6.40723 7.40209 6.6143 6.74847 7.02854 6.08641C7.44264 5.42435 8.04712 4.87605 8.84158 4.44141C9.63607 4.00691 10.563 3.78955 11.6223 3.78955C12.6068 3.78955 13.476 3.97131 14.2298 4.33447C14.9835 4.69781 15.5657 5.19183 15.9766 5.81648C16.3874 6.44131 16.5928 7.12024 16.5928 7.8536C16.5928 8.43083 16.4757 8.9368 16.2414 9.37126C16.0071 9.80589 15.7286 10.1811 15.4062 10.4967C15.0836 10.8125 14.5047 11.3439 13.6695 12.0908C13.4386 12.3014 13.2535 12.4865 13.1144 12.646C12.9752 12.8056 12.8716 12.9516 12.8037 13.0839C12.7358 13.2164 12.6831 13.3488 12.6458 13.4812C12.6084 13.6135 12.5524 13.8463 12.4778 14.1789C12.3487 14.8852 11.9447 15.2382 11.2657 15.2382C10.9126 15.2382 10.6154 15.1229 10.3745 14.8919C10.1334 14.6611 10.0129 14.3182 10.0129 13.8632C10.0129 13.2928 10.1011 12.7987 10.2777 12.3812C10.4543 11.9635 10.6885 11.5968 10.9805 11.2811C11.2724 10.9654 11.6663 10.5902 12.1621 10.1556C12.5966 9.77539 12.9107 9.48844 13.1043 9.29491C13.2978 9.10137 13.4607 8.88591 13.5932 8.6481C13.7256 8.41048 13.7918 8.1525 13.7918 7.874C13.7918 7.33079 13.5897 6.87247 13.1858 6.49893C12.7817 6.12558 12.2604 5.93872 11.6223 5.93872C10.8752 5.93872 10.3252 6.12716 9.97216 6.50403C9.61902 6.88091 9.3203 7.43602 9.07581 8.16938C8.84491 8.9368 8.40689 9.32036 7.76185 9.32036C7.38145 9.32036 7.06062 9.18634 6.79931 8.91803C6.5379 8.64981 6.40723 8.35953 6.40723 8.04714ZM11.3778 19.2106C10.9635 19.2106 10.602 19.0764 10.293 18.8083C9.98398 18.5401 9.82957 18.165 9.82957 17.6828C9.82957 17.255 9.97883 16.8951 10.2777 16.6031C10.5765 16.3112 10.9431 16.1651 11.3778 16.1651C11.8056 16.1651 12.1654 16.3112 12.4575 16.6031C12.7493 16.8951 12.8954 17.255 12.8954 17.6828C12.8954 18.1582 12.7426 18.5317 12.4371 18.8032C12.1315 19.0748 11.7784 19.2106 11.3778 19.2106Z" fill="white"/>
</g>
<defs>
<clipPath id="clip0">
<rect width="23" height="23" fill="white"/>
</clipPath>
</defs>
</svg>
