<svg width="34" height="34" viewBox="0 0 34 34" fill="none" xmlns="http://www.w3.org/2000/svg">
<g clip-path="url(#clip0)">
<path d="M33.6036 9.87299C33.5263 8.11957 33.2427 6.91411 32.8365 5.86957C32.4175 4.76081 31.7729 3.76814 30.9283 2.94292C30.103 2.10487 29.1038 1.45367 28.0079 1.04119C26.9573 0.635001 25.7582 0.351453 24.0047 0.274144C22.2382 0.190289 21.6774 0.170898 17.1971 0.170898C12.7167 0.170898 12.1559 0.190289 10.3959 0.267597C8.64252 0.344906 7.43706 0.628706 6.39277 1.03464C5.28375 1.45367 4.29108 2.09832 3.46587 2.94292C2.62782 3.76814 1.97687 4.76735 1.56413 5.86327C1.15795 6.91411 0.874402 8.11302 0.797093 9.86644C0.713238 11.633 0.693848 12.1938 0.693848 16.6741C0.693848 21.1545 0.713238 21.7153 0.790546 23.4753C0.867855 25.2287 1.15165 26.4341 1.55784 27.4787C1.97687 28.5874 2.62782 29.5801 3.46587 30.4053C4.29108 31.2434 5.2903 31.8946 6.38622 32.3071C7.43706 32.7132 8.63597 32.9968 10.3896 33.0741C12.1494 33.1517 12.7104 33.1708 17.1908 33.1708C21.6711 33.1708 22.2319 33.1517 23.9919 33.0741C25.7453 32.9968 26.9508 32.7132 27.9951 32.3071C30.2128 31.4496 31.9663 29.6962 32.8237 27.4787C33.2296 26.4278 33.5134 25.2287 33.5907 23.4753C33.668 21.7153 33.6874 21.1545 33.6874 16.6741C33.6874 12.1938 33.6809 11.633 33.6036 9.87299ZM30.6319 23.3463C30.5609 24.958 30.2901 25.8283 30.0645 26.4084C29.51 27.8461 28.369 28.9871 26.9314 29.5416C26.3512 29.7672 25.4746 30.0379 23.8693 30.1087C22.1287 30.1862 21.6067 30.2054 17.2036 30.2054C12.8006 30.2054 12.272 30.1862 10.5377 30.1087C8.92607 30.0379 8.05578 29.7672 7.47559 29.5416C6.76017 29.2772 6.10897 28.8581 5.5804 28.3102C5.03244 27.7751 4.61341 27.1304 4.349 26.415C4.12337 25.8348 3.85267 24.958 3.78191 23.3529C3.70435 21.6123 3.68521 21.09 3.68521 16.687C3.68521 12.2839 3.70435 11.7553 3.78191 10.0213C3.85267 8.40967 4.12337 7.53938 4.349 6.95919C4.61341 6.24352 5.03244 5.59257 5.58695 5.06375C6.12181 4.51579 6.76647 4.09676 7.48214 3.8326C8.06233 3.60697 8.93916 3.33627 10.5443 3.26525C12.2848 3.18794 12.8071 3.16855 17.2099 3.16855C21.6195 3.16855 22.1415 3.18794 23.8758 3.26525C25.4875 3.33627 26.3577 3.60697 26.9379 3.8326C27.6534 4.09676 28.3046 4.51579 28.8331 5.06375C29.3811 5.59886 29.8001 6.24352 30.0645 6.95919C30.2901 7.53938 30.5609 8.41596 30.6319 10.0213C30.7092 11.7619 30.7286 12.2839 30.7286 16.687C30.7286 21.09 30.7092 21.6057 30.6319 23.3463Z" fill="#00B9DA"/>
<path d="M17.197 8.19678C12.5169 8.19678 8.71973 11.9937 8.71973 16.674C8.71973 21.3543 12.5169 25.1513 17.197 25.1513C21.8773 25.1513 25.6742 21.3543 25.6742 16.674C25.6742 11.9937 21.8773 8.19678 17.197 8.19678ZM17.197 22.173C14.1608 22.173 11.698 19.7105 11.698 16.674C11.698 13.6376 14.1608 11.175 17.197 11.175C20.2334 11.175 22.6959 13.6376 22.6959 16.674C22.6959 19.7105 20.2334 22.173 17.197 22.173Z" fill="#00B9DA"/>
<path d="M27.9886 7.86186C27.9886 8.95476 27.1025 9.84091 26.0093 9.84091C24.9164 9.84091 24.0303 8.95476 24.0303 7.86186C24.0303 6.76871 24.9164 5.88281 26.0093 5.88281C27.1025 5.88281 27.9886 6.76871 27.9886 7.86186Z" fill="#00B9DA"/>
</g>
<defs>
<clipPath id="clip0">
<rect width="33" height="33" fill="white" transform="translate(0.635742 0.170898)"/>
</clipPath>
</defs>
</svg>
