<svg width="475" height="274" viewBox="0 0 475 274" fill="none" xmlns="http://www.w3.org/2000/svg">
<path d="M333.844 143.341L303.555 157.696L330.362 137.623C326.005 130.814 321.11 124.364 315.725 118.337L184.365 151.032L303.02 105.707C297.598 100.916 291.84 96.521 285.79 92.5553L85.6281 124.84C64.3759 151.452 52.7908 184.509 52.7744 218.584H354.072C354.06 192.157 347.082 166.202 333.844 143.341Z" fill="#F2F2F2"/>
<path d="M269.409 83.2353C239.104 68.4759 204.735 64.3094 171.789 71.4011C138.843 78.4928 109.22 96.4337 87.6494 122.359C134.97 111.977 217.359 94.0037 269.409 83.2353Z" fill="#F2F2F2"/>
<path d="M242.099 86.1483C236.943 101.436 229.036 115.365 212.922 115.365C196.808 115.365 184.653 102.259 183.745 86.1483C182.585 65.5622 196.436 56.8459 212.922 56.9312C232.397 57.0319 248.218 68.0055 242.099 86.1483Z" fill="#2F2E41"/>
<path d="M236.574 82.2616H188.85V151.907H236.574V82.2616Z" fill="#2F2E41"/>
<path d="M205.593 122.25C205.593 122.25 207.119 144.16 203.558 147.726C199.996 151.293 235.105 154.35 234.596 150.274C234.087 146.198 227.472 119.703 229.508 114.098C231.543 108.493 205.593 122.25 205.593 122.25Z" fill="#FFB8B8"/>
<path opacity="0.1" d="M205.593 122.25C205.593 122.25 207.119 144.16 203.558 147.726C199.996 151.293 235.105 154.35 234.596 150.274C234.087 146.198 227.472 119.703 229.508 114.098C231.543 108.493 205.593 122.25 205.593 122.25Z" fill="black"/>
<path d="M172.015 178.3L153.732 240.207L152.999 242.7H122.234C134.476 204.756 164.738 148.801 164.738 148.801L169.463 147.729L172.015 178.3Z" fill="#A60F59"/>
<path opacity="0.1" d="M172.015 178.3L153.732 240.207L152.999 242.7H122.234C134.476 204.756 164.738 148.801 164.738 148.801L169.463 147.729L172.015 178.3Z" fill="black"/>
<path d="M211.699 129.893C224.345 129.893 234.596 119.628 234.596 106.965C234.596 94.3015 224.345 84.036 211.699 84.036C199.053 84.036 188.802 94.3015 188.802 106.965C188.802 119.628 199.053 129.893 211.699 129.893Z" fill="#FFB8B8"/>
<path d="M236.122 143.65C236.122 143.65 227.981 151.293 218.822 149.764C209.663 148.236 205.818 137.083 205.818 137.083L196.943 143.65C196.943 143.65 194.398 161.993 206.101 164.031C217.804 166.069 234.596 166.579 238.157 164.031C241.719 161.483 236.122 143.65 236.122 143.65Z" fill="#3F3D56"/>
<path d="M264.109 170.65L262.648 175.401L242.034 242.7H153.316C153.505 241.878 153.644 241.046 153.731 240.207C154.879 230.627 154.203 206.459 154.203 204.797C154.203 202.755 162.847 152.316 164.892 148.745C165.208 148.313 165.625 147.964 166.106 147.729C168.479 146.364 173.726 144.835 179.383 143.486C179.388 143.481 179.388 143.481 179.393 143.481C182.554 142.711 185.854 142.003 188.847 141.402H188.852C191.788 140.812 194.422 140.33 196.348 140.012C197.387 139.812 198.436 139.667 199.489 139.576C199.961 139.576 200.304 140.135 200.535 140.992C201.308 143.783 201.011 149.761 201.011 149.761C201.698 150.552 202.464 151.27 203.296 151.906C205.253 153.445 207.398 154.727 209.681 155.718C211.638 156.577 213.664 157.269 215.738 157.786H215.743C217.922 158.339 220.14 158.725 222.378 158.941C224.203 159.151 226.047 159.115 227.861 158.833H227.871C233.267 157.94 235.245 154.584 236.167 151.906C236.331 151.418 236.459 150.951 236.572 150.526C236.572 150.52 236.577 150.51 236.577 150.505C236.915 149.197 237.059 148.278 237.418 148.294H237.423C238.35 148.381 250.048 158.422 257.647 165.016C261.255 168.141 263.935 170.501 264.098 170.645L264.109 170.65Z" fill="#A60F59"/>
<path opacity="0.1" d="M262.649 175.401L242.035 242.7H233.678C234.429 241.598 234.755 240.259 234.595 238.934C234.329 237.056 240.134 217.922 245.724 200.117C250.807 183.939 255.711 168.874 255.711 168.874L260.543 171.163C260.543 171.163 261.409 172.8 262.649 175.401Z" fill="black"/>
<path d="M277.339 236.379C276.335 236.63 276.443 239.617 276.386 242.7H236.9C237.381 242.105 237.74 241.421 237.956 240.686C238.172 239.952 238.242 239.182 238.161 238.421C237.9 236.62 241.794 218.051 245.724 200.118C248.814 185.935 251.929 172.148 253.01 167.35C253.277 166.191 253.42 165.565 253.42 165.565L253.887 165.785L253.897 165.791L264.099 170.645L264.109 170.65C264.109 170.65 279.881 200.718 274.798 207.85C269.705 214.982 269.705 214.982 271.739 218.554C273.773 222.115 279.369 235.871 277.339 236.379Z" fill="#A60F59"/>
<path d="M212.922 63.0822C219.282 63.0822 224.439 57.9187 224.439 51.5492C224.439 45.1796 219.282 40.0161 212.922 40.0161C206.561 40.0161 201.404 45.1796 201.404 51.5492C201.404 57.9187 206.561 63.0822 212.922 63.0822Z" fill="#2F2E41"/>
<path d="M199.1 45.3982C199.101 42.5392 200.161 39.7822 202.076 37.662C203.992 35.5417 206.625 34.2094 209.466 33.9233C209.087 33.8857 208.703 33.8651 208.314 33.8651C205.26 33.8651 202.33 35.0802 200.17 37.2431C198.01 39.4059 196.797 42.3394 196.797 45.3982C196.797 48.4569 198.01 51.3904 200.17 53.5533C202.33 55.7162 205.26 56.9312 208.314 56.9312C208.703 56.9312 209.087 56.9107 209.466 56.873C206.625 56.587 203.992 55.2546 202.076 53.1344C200.161 51.0142 199.101 48.2571 199.1 45.3982Z" fill="#2F2E41"/>
<path d="M204.45 78.0764C204.45 78.0764 204.209 76.7358 194.804 80.2677C185.398 83.7996 179.76 109.864 184.463 125.169C186.358 131.337 184.817 135.784 182.3 138.895C172.858 150.571 176.575 168.109 190.329 174.113C190.717 174.283 191.113 174.45 191.517 174.616L197.396 178.148C197.396 178.148 189.902 168.274 193.652 155.643C196.909 144.882 197.311 133.457 194.819 122.492C194.389 120.642 193.9 118.736 193.345 116.79C188.642 100.308 190.929 102.211 207.389 85.7288C207.389 85.7288 216.795 92.7927 225.025 96.3246C233.255 99.8566 240.309 103.388 234.43 115.162C228.552 126.935 214.443 137.53 223.849 152.835C233.255 168.14 234.43 162.254 233.255 168.14L232.079 174.027L239.133 166.963L234.43 176.382C234.43 176.382 249.714 176.382 254.417 164.609L256.768 166.963C256.768 166.963 266.174 150.481 248.539 135.176C248.539 135.176 242.66 131.644 250.89 119.871C259.12 108.098 252.799 82.7856 242.218 78.0764C231.637 73.3672 204.45 78.0764 204.45 78.0764Z" fill="#2F2E41"/>
<path d="M211.699 152.218L192.109 186.195H196.689V190.781L218.953 152.218H211.699Z" fill="#3F3D56"/>
<path d="M467.313 220.124H387.891V251.423H467.313V220.124Z" fill="#F2F2F2"/>
<path d="M457.322 260.146H397.883V265.277H457.322V260.146Z" fill="#F2F2F2"/>
<path d="M457.322 269.382H397.883V273.487H457.322V269.382Z" fill="#F2F2F2"/>
<path d="M8.19806 8.20973C9.33003 8.20973 10.2477 7.29082 10.2477 6.15729C10.2477 5.02376 9.33003 4.10486 8.19806 4.10486C7.06608 4.10486 6.14844 5.02376 6.14844 6.15729C6.14844 7.29082 7.06608 8.20973 8.19806 8.20973Z" fill="#A60F59"/>
<path d="M13.8348 8.20973C14.9668 8.20973 15.8844 7.29082 15.8844 6.15729C15.8844 5.02376 14.9668 4.10486 13.8348 4.10486C12.7028 4.10486 11.7852 5.02376 11.7852 6.15729C11.7852 7.29082 12.7028 8.20973 13.8348 8.20973Z" fill="#A60F59"/>
<path d="M19.4715 8.20973C20.6035 8.20973 21.5211 7.29082 21.5211 6.15729C21.5211 5.02376 20.6035 4.10486 19.4715 4.10486C18.3395 4.10486 17.4219 5.02376 17.4219 6.15729C17.4219 7.29082 18.3395 8.20973 19.4715 8.20973Z" fill="#A60F59"/>
<path d="M475 274H0V0H475V274ZM1.02481 272.974H473.975V1.02622H1.02481V272.974Z" fill="#2F2E41"/>
<path d="M474.488 10.3065H0.512695V11.3327H474.488V10.3065Z" fill="#2F2E41"/>
<path d="M21.5206 18.985H6.14844V20.0112H21.5206V18.985Z" fill="#2F2E41"/>
<path d="M21.5206 23.0898H6.14844V24.1161H21.5206V23.0898Z" fill="#2F2E41"/>
<path d="M21.5206 27.1947H6.14844V28.2209H21.5206V27.1947Z" fill="#2F2E41"/>
<path d="M442.206 28.2209H431.958V18.985H442.206V28.2209ZM432.983 27.1947H441.181V20.0112H432.983V27.1947Z" fill="#2F2E41"/>
<path d="M455.016 28.2209H444.768V18.985H455.016V28.2209ZM445.792 27.1947H453.991V20.0112H445.792V27.1947Z" fill="#2F2E41"/>
<path d="M467.826 28.2209H457.578V18.985H467.826V28.2209ZM458.603 27.1947H466.801V20.0112H458.603V27.1947Z" fill="#2F2E41"/>
<path d="M349.973 248.858H340.75V257.067H349.973V248.858Z" fill="#FF6584"/>
<path d="M362.783 248.858H353.56V257.067H362.783V248.858Z" fill="#F2F2F2"/>
<path d="M375.593 248.858H366.37V257.067H375.593V248.858Z" fill="#F2F2F2"/>
<path d="M375.081 243.213H25.6201V44.1273H375.081V243.213ZM26.6449 242.187H374.056V45.1535H26.6449V242.187Z" fill="#2F2E41"/>
<path d="M171.144 249.884H26.1328V255.528H171.144V249.884Z" fill="#F2F2F2"/>
<path d="M57.902 262.712H26.1328V268.356H57.902V262.712Z" fill="#F2F2F2"/>
<path d="M467.313 54.9026H387.891V86.2022H467.313V54.9026Z" fill="#F2F2F2"/>
<path d="M457.322 94.925H397.883V100.056H457.322V94.925Z" fill="#F2F2F2"/>
<path d="M457.322 104.161H397.883V109.292H457.322V104.161Z" fill="#F2F2F2"/>
<path d="M457.322 113.397H397.883V118.528H457.322V113.397Z" fill="#F2F2F2"/>
<path d="M467.313 137.513H387.891V168.813H467.313V137.513Z" fill="#F2F2F2"/>
<path d="M457.322 177.536H397.883V182.667H457.322V177.536Z" fill="#F2F2F2"/>
<path d="M457.322 186.771H397.883V191.903H457.322V186.771Z" fill="#F2F2F2"/>
<path d="M457.322 196.007H397.883V201.139H457.322V196.007Z" fill="#F2F2F2"/>
</svg>
