<svg width="22" height="22" viewBox="0 0 22 22" fill="none" xmlns="http://www.w3.org/2000/svg">
<g clip-path="url(#clip0)">
<path d="M15.2236 13.0548C17.8644 9.32567 16.9812 4.16192 13.2521 1.52169C9.52294 -1.11854 4.35919 -0.235943 1.71895 3.49382C-0.921278 7.22295 -0.0386772 12.3861 3.69108 15.0263C6.35277 16.9107 9.87181 17.0558 12.6792 15.3979L18.7792 21.4613C19.4378 22.1546 20.5337 22.1824 21.227 21.5237C21.9204 20.8657 21.9481 19.7699 21.2901 19.0765C21.2693 19.0545 21.2491 19.0343 21.227 19.0135L15.2236 13.0548ZM8.46621 13.6201C5.51937 13.6207 3.13023 11.2334 3.12834 8.28661C3.12771 5.33977 5.51496 2.95063 8.46243 2.94937C11.4055 2.94811 13.7934 5.33157 13.799 8.27462C13.8041 11.2221 11.4181 13.615 8.47 13.6201C8.46874 13.6201 8.4681 13.6201 8.46621 13.6201Z" fill="#00B9DA"/>
</g>
<defs>
<clipPath id="clip0">
<rect width="22" height="22" fill="white"/>
</clipPath>
</defs>
</svg>
