<svg width="3257" height="2649" viewBox="0 0 3257 2649" fill="none" xmlns="http://www.w3.org/2000/svg">
<path d="M363.776 1463.18C389.635 1463.18 410.598 1442.86 410.598 1417.8C410.598 1392.74 389.635 1372.43 363.776 1372.43C337.916 1372.43 316.953 1392.74 316.953 1417.8C316.953 1442.86 337.916 1463.18 363.776 1463.18Z" fill="#00B9DA"/>
<path d="M569.077 1836.66C594.936 1836.66 615.899 1816.34 615.899 1791.28C615.899 1766.22 594.936 1745.91 569.077 1745.91C543.217 1745.91 522.254 1766.22 522.254 1791.28C522.254 1816.34 543.217 1836.66 569.077 1836.66Z" fill="#00B9DA"/>
<path d="M410.6 1742.42C436.459 1742.42 457.423 1722.1 457.423 1697.04C457.423 1671.98 436.459 1651.66 410.6 1651.66C384.741 1651.66 363.777 1671.98 363.777 1697.04C363.777 1722.1 384.741 1742.42 410.6 1742.42Z" fill="#00B9DA"/>
<path d="M2284.55 2548.71H1487.58C1487.58 2548.71 1471.43 2319.09 1567.01 2316.49C1662.59 2313.88 1651.82 2418.25 1771.64 2274.74C1891.45 2131.23 2036.85 2139.05 2055.69 2223.86C2074.54 2308.66 2019.35 2376.5 2120.31 2355.62C2221.28 2334.75 2366.67 2389.55 2284.55 2548.71Z" fill="#00B9DA"/>
<path d="M1872.62 2548.76L1869.93 2548.66C1876.2 2397.48 1908.87 2300.35 1935.17 2245.48C1963.73 2185.91 1991.25 2161.8 1991.53 2161.56L1993.32 2163.51C1993.05 2163.75 1965.85 2187.62 1937.52 2246.79C1911.36 2301.42 1878.87 2398.15 1872.62 2548.76Z" fill="#F2F2F2"/>
<path d="M2161.06 2549.08L2158.47 2548.35C2189.6 2444.82 2262.89 2379.45 2263.63 2378.81L2265.44 2380.74C2216.82 2427.62 2180.95 2485.46 2161.06 2549.08V2549.08Z" fill="#F2F2F2"/>
<path d="M1613.1 2548.89L1610.44 2548.53C1619.13 2491.85 1609.93 2433.95 1584.06 2382.43C1573.45 2360.82 1559.4 2340.95 1542.43 2323.56L1544.3 2321.68C1561.49 2339.28 1575.72 2359.39 1586.47 2381.27C1612.59 2433.27 1621.87 2491.69 1613.1 2548.89V2548.89Z" fill="#F2F2F2"/>
<path d="M2392.72 2552.2H1401.62L1401.39 2548.95C1400.82 2540.85 1388.18 2349.94 1452.01 2281.82C1458.34 2274.62 1466.16 2268.79 1474.96 2264.7C1483.76 2260.61 1493.34 2258.34 1503.1 2258.06C1544.71 2256.91 1570.86 2272.02 1591.95 2284.14C1631.7 2306.99 1657.96 2322.09 1753.44 2207.73C1856.87 2083.84 1968.47 2057.18 2032.63 2072C2074.08 2081.58 2102.65 2108.65 2111.01 2146.27C2118.93 2181.9 2116.41 2215.37 2114.38 2242.26C2112.21 2271.04 2110.5 2293.77 2122.7 2304.07C2132.88 2312.67 2153.2 2313.45 2186.64 2306.53C2254.67 2292.47 2349.6 2304.5 2397.24 2364.16C2422.88 2396.26 2443.07 2454.6 2393.71 2550.27L2392.72 2552.2ZM1408.38 2545.22H2388.26C2425.04 2472.9 2426.19 2411.81 2391.55 2368.43C2347.84 2313.71 2256.14 2299.3 2188.15 2313.36C2151.81 2320.87 2130.16 2319.63 2117.96 2309.34C2103.05 2296.75 2104.88 2272.48 2107.2 2241.76C2109.19 2215.31 2111.67 2182.39 2103.97 2147.74C2096.22 2112.85 2069.6 2087.72 2030.96 2078.79C1968.85 2064.43 1860.37 2090.75 1759.04 2212.12C1659.64 2331.17 1629.7 2313.96 1588.27 2290.14C1566.92 2277.87 1542.68 2263.96 1503.3 2265.04C1494.52 2265.31 1485.89 2267.36 1477.98 2271.06C1470.06 2274.76 1463.03 2280.02 1457.34 2286.51C1399.97 2347.73 1406.98 2519.41 1408.38 2545.22Z" fill="#CFCCE0"/>
<path d="M2587.48 2547.83H1165.73V2554.81H2587.48V2547.83Z" fill="#CFCCE0"/>
<path d="M1075.18 1806.57C1076.44 1815.05 1076.49 1823.67 1075.32 1832.17C1075.08 1834.1 1074.78 1835.99 1074.43 1837.86L1074.43 1837.88C1070.25 1857.99 1061.9 1877.07 1049.89 1893.96C1049.11 1895.06 1048.66 1895.63 1048.66 1895.63L1046.98 1894.38C1033.64 1884.06 1022.08 1871.76 1012.71 1857.93C1011.89 1856.68 1011.07 1855.41 1010.29 1854.11C1003.33 1843.1 998.639 1830.89 996.475 1818.15L996.446 1817.96C996.238 1816.61 996.057 1815.25 995.923 1813.89C994.827 1801.99 995.884 1789.99 999.045 1778.44C999.419 1777 999.812 1775.59 1000.24 1774.18C1005.03 1758.65 1012.28 1743.94 1021.73 1730.57C1022.52 1729.47 1022.96 1728.9 1022.96 1728.9C1022.96 1728.9 1023.56 1729.32 1024.65 1730.15C1037.61 1740.17 1048.9 1752.07 1058.12 1765.43C1058.93 1766.63 1059.73 1767.84 1060.52 1769.08C1065.91 1777.5 1070.08 1786.61 1072.88 1796.14C1073.36 1797.8 1073.79 1799.5 1074.16 1801.21C1074.56 1802.97 1074.9 1804.76 1075.18 1806.57Z" fill="#CFCCE0"/>
<path d="M1511.94 1983.18C1517.61 1989.76 1522.32 1997.07 1525.93 2004.9C1526.77 2006.67 1527.54 2008.43 1528.25 2010.2L1528.26 2010.21C1535.59 2029.46 1538.82 2049.95 1537.74 2070.43C1537.67 2071.77 1537.6 2072.48 1537.6 2072.48L1535.49 2072.28C1518.55 2070.27 1502.04 2065.68 1486.58 2058.67C1485.21 2058.02 1483.82 2057.36 1482.45 2056.65C1470.56 2050.82 1459.96 2042.81 1451.22 2033.06L1451.09 2032.92C1450.18 2031.87 1449.29 2030.8 1448.45 2029.72C1441.07 2020.15 1435.47 2009.4 1431.91 1997.96C1431.45 1996.54 1431.01 1995.14 1430.61 1993.72C1426.29 1978.07 1424.49 1961.86 1425.3 1945.67C1425.37 1944.33 1425.44 1943.62 1425.44 1943.62C1425.44 1943.62 1426.18 1943.67 1427.55 1943.82C1444.01 1945.77 1460.06 1950.16 1475.15 1956.84C1476.49 1957.44 1477.82 1958.07 1479.17 1958.73C1488.32 1963.15 1496.79 1968.78 1504.35 1975.47C1505.65 1976.64 1506.94 1977.87 1508.18 1979.14C1509.48 1980.43 1510.73 1981.78 1511.94 1983.18Z" fill="#CFCCE0"/>
<path d="M1577.08 1170.77L1559.01 1462.73C1559.01 1462.73 1498.75 1626.22 1577.08 1626.22C1655.41 1626.22 1607.21 1451.05 1607.21 1451.05L1679.51 1164.93L1577.08 1170.77Z" fill="#FFB9B9"/>
<path d="M2161.53 1135.74L2179.61 1427.69C2179.61 1427.69 2239.86 1591.19 2161.53 1591.19C2083.2 1591.19 2131.4 1416.01 2131.4 1416.01L2059.1 1129.9L2161.53 1135.74Z" fill="#FFB9B9"/>
<path d="M1800.02 2373.62L1812.07 2519.6C1812.07 2519.6 1763.87 2636.38 1842.19 2648.06C1842.98 2648.18 1843.75 2648.29 1844.52 2648.39C1854.23 2649.69 1864.12 2648.74 1873.38 2645.62C1882.64 2642.5 1891.01 2637.31 1897.8 2630.46C1904.59 2623.61 1909.62 2615.3 1912.46 2606.2C1915.31 2597.11 1915.89 2587.5 1914.17 2578.14L1902.45 2513.76C1902.45 2513.76 1908.47 2396.98 1872.32 2373.62C1836.17 2350.27 1800.02 2373.62 1800.02 2373.62Z" fill="#2F2E41"/>
<path d="M1914.5 2245.16C1914.5 2245.16 1902.45 2280.2 1908.47 2315.23C1914.5 2350.27 1920.52 2449.53 1920.52 2449.53C1920.52 2449.53 1920.52 2554.64 1962.7 2554.64C1977.76 2554.64 1990.52 2541.97 2000.7 2525.7C2011.23 2508.43 2018.03 2489.27 2020.7 2469.39C2023.36 2449.5 2021.84 2429.29 2016.21 2409.99L1992.83 2326.91V2262.68L1914.5 2245.16Z" fill="#2F2E41"/>
<path d="M1691.56 1176.61C1691.56 1176.61 1559 1345.94 1631.31 1597.03C1703.61 1848.11 1709.63 1918.18 1709.63 1918.18L1751.81 2396.98C1751.81 2396.98 1824.11 2420.34 1884.37 2385.3L1866.29 1924.01V1643.74L1902.44 1953.21V2262.68C1902.44 2262.68 1986.8 2344.43 2047.05 2268.52L2059.1 1924.01C2059.1 1924.01 2095.25 1445.21 2071.15 1398.5C2047.05 1351.78 1992.82 1188.29 1992.82 1188.29L1691.56 1176.61Z" fill="#2F2E41"/>
<path d="M1811.55 388.759C1811.55 388.759 1750.28 367.551 1710.89 452.383C1671.49 537.215 1610.22 630.53 1610.22 630.53L1645.23 639.014C1645.23 639.014 1653.99 579.631 1675.87 571.148L1667.12 647.497C1667.12 647.497 1929.73 736.57 2047.9 639.014L2043.52 609.322C2043.52 609.322 2061.03 613.564 2061.03 639.014L2074.16 626.289C2074.16 626.289 2061.03 600.839 2021.64 566.906C1995.79 544.634 1986.9 502.262 1983.85 475.77C1981.56 453.649 1972.43 432.715 1957.65 415.712C1931.47 386.311 1883.77 355.062 1811.55 388.759Z" fill="#2F2E41"/>
<path d="M1842.19 668.61C1905.42 668.61 1956.67 618.939 1956.67 557.667C1956.67 496.395 1905.42 446.725 1842.19 446.725C1778.97 446.725 1727.71 496.395 1727.71 557.667C1727.71 618.939 1778.97 668.61 1842.19 668.61Z" fill="#FFB9B9"/>
<path d="M1812.07 627.737L1775.91 767.875L1884.37 1071.51L1968.72 750.358C1968.72 750.358 1890.39 697.806 1908.47 627.737L1812.07 627.737Z" fill="#FFB9B9"/>
<path d="M2107.3 1427.69C2107.3 1427.69 1932.57 1491.92 1896.42 1392.66C1860.27 1293.39 1866.29 1217.48 1866.29 1217.48C1866.29 1217.48 1812.06 1421.85 1721.69 1421.85C1631.31 1421.85 1583.11 1392.66 1583.11 1392.66C1583.11 1392.66 1649.38 1188.29 1709.64 1153.25C1709.64 1153.25 1709.94 1152.55 1710.48 1151.27C1713.85 1143.09 1725.78 1110.69 1717.41 1082.19C1715.71 1076.33 1713.09 1070.76 1709.64 1065.67C1685.53 1030.63 1661.43 1018.96 1667.46 931.369L1619.26 767.875L1785.49 730.738L1872.32 995.599L1951.37 736.285L2095.25 756.197C2095.25 756.197 2107.3 966.404 2047.05 1042.31C2037.58 1054.27 2030.39 1067.78 2025.84 1082.19C2015.36 1114.42 2017.83 1148.35 2023.49 1175.44H2023.55C2027.33 1193.91 2033.19 1211.93 2041.02 1229.16L2107.3 1427.69Z" fill="#CFCCE0"/>
<path d="M2059.1 762.035L2095.25 756.196C2095.25 756.196 2110.32 753.277 2137.43 773.714C2172.05 799.812 2173.58 1153.25 2173.58 1153.25L2059.1 1159.09V762.035Z" fill="#CFCCE0"/>
<path d="M1649.38 779.553L1619.25 767.875C1619.25 767.875 1607.2 762.036 1601.18 797.07C1595.15 832.105 1565.03 1194.13 1565.03 1194.13L1691.56 1188.29V925.53L1649.38 779.553Z" fill="#CFCCE0"/>
<path d="M1709.78 573.82C1709.78 573.82 1744.79 527.162 1775.43 518.679C1806.07 510.196 1810.44 467.78 1810.44 467.78C1810.44 467.78 1889.23 552.612 1937.37 556.853C1985.52 561.095 1941.75 455.055 1941.75 455.055L1854.21 433.847L1771.05 442.33L1705.4 484.746L1709.78 573.82Z" fill="#2F2E41"/>
<path d="M1875.33 1150.34C1895.3 1150.34 1911.48 1134.65 1911.48 1115.3C1911.48 1095.95 1895.3 1080.27 1875.33 1080.27C1855.37 1080.27 1839.18 1095.95 1839.18 1115.3C1839.18 1134.65 1855.37 1150.34 1875.33 1150.34Z" fill="#2F2E41"/>
<path d="M2496.86 618.143C2465.65 532.953 2466.98 439.745 2500.6 355.422C2534.22 271.099 2597.91 201.244 2680.12 158.526C2762.33 115.808 2857.62 103.054 2948.7 122.579C3039.78 142.103 3120.62 192.613 3176.57 264.948C3232.52 337.282 3259.87 426.652 3253.65 516.851C3247.44 607.05 3208.08 692.105 3142.71 756.592C3077.34 821.078 2990.28 860.727 2897.33 868.347C2804.38 875.967 2711.69 851.054 2636.07 798.126C2625.63 815.629 2610.87 830.35 2593.11 840.971C2575.36 851.591 2555.17 857.78 2534.34 858.982C2513.51 860.185 2492.7 856.363 2473.78 847.861C2454.85 839.358 2438.39 826.439 2425.87 810.26C2413.36 794.082 2405.18 775.149 2402.07 755.156C2398.96 735.163 2401.01 714.734 2408.05 695.699C2415.08 676.664 2426.87 659.615 2442.37 646.081C2457.87 632.546 2476.59 622.947 2496.86 618.143V618.143Z" fill="#00B9DA"/>
<path d="M2717.75 519.874C2742.68 519.874 2762.89 500.288 2762.89 476.128C2762.89 451.968 2742.68 432.382 2717.75 432.382C2692.82 432.382 2672.61 451.968 2672.61 476.128C2672.61 500.288 2692.82 519.874 2717.75 519.874Z" fill="#CFCCE0"/>
<path d="M2871.75 519.874C2896.68 519.874 2916.89 500.288 2916.89 476.128C2916.89 451.968 2896.68 432.382 2871.75 432.382C2846.82 432.382 2826.61 451.968 2826.61 476.128C2826.61 500.288 2846.82 519.874 2871.75 519.874Z" fill="#CFCCE0"/>
<path d="M3025.77 519.874C3050.7 519.874 3070.91 500.288 3070.91 476.128C3070.91 451.968 3050.7 432.382 3025.77 432.382C3000.84 432.382 2980.62 451.968 2980.62 476.128C2980.62 500.288 3000.84 519.874 3025.77 519.874Z" fill="#CFCCE0"/>
<path d="M2458.27 782.973C2429.35 775.786 2403.7 759.544 2385.3 736.771C2366.9 713.998 2356.77 685.971 2356.5 657.046C2356.23 628.122 2365.83 599.922 2383.8 576.829C2401.78 553.737 2427.12 537.047 2455.9 529.354C2424 439.58 2426.23 341.717 2462.19 253.398C2498.16 165.079 2565.48 92.1099 2652.05 47.6392C2738.61 3.16852 2838.72 -9.88015 2934.33 10.8443C3029.94 31.5687 3114.77 84.7036 3173.54 160.675C3232.3 236.647 3261.14 330.46 3254.85 425.211C3248.56 519.963 3207.56 609.423 3139.24 677.472C3070.91 745.522 2979.76 787.687 2882.19 796.37C2784.63 805.053 2687.07 779.683 2607.1 724.832C2591.88 748.585 2569.25 767.024 2542.49 777.478C2515.73 787.931 2486.23 789.856 2458.27 782.973V782.973ZM2945.68 19.3185C2874.58 1.656 2799.86 3.06902 2729.52 23.4063C2659.18 43.7435 2595.88 82.2389 2546.39 134.77C2496.9 187.301 2463.09 251.888 2448.57 321.616C2434.05 391.343 2439.38 463.584 2463.99 530.601L2465.32 534.242L2461.45 535.164C2440.86 540.043 2421.83 549.795 2406.08 563.547C2390.33 577.299 2378.35 594.622 2371.2 613.964C2364.05 633.307 2361.96 654.065 2365.12 674.381C2368.28 694.697 2376.59 713.936 2389.31 730.376C2402.03 746.816 2418.75 759.944 2437.98 768.584C2457.22 777.224 2478.36 781.107 2499.53 779.885C2520.69 778.663 2541.21 772.374 2559.25 761.581C2577.29 750.788 2592.29 735.829 2602.9 718.042L2604.89 714.691L2608.13 716.957C2656.37 750.741 2711.71 773.795 2770.2 784.475C2828.69 795.155 2888.89 793.199 2946.51 778.744C3004.13 764.29 3057.75 737.694 3103.55 700.853C3149.35 664.012 3186.19 617.833 3211.46 565.608C3236.73 513.384 3249.8 456.4 3249.74 398.719C3249.67 341.038 3236.48 284.081 3211.1 231.908C3185.71 179.736 3148.77 133.633 3102.89 96.8862C3057.01 60.1395 3003.33 33.6542 2945.68 19.3185V19.3185Z" fill="#CFCCE0"/>
<path d="M425.534 2341.1C424.707 2339.8 405.218 2308.26 398.461 2242.77C392.263 2182.69 396.249 2081.42 450.444 1940.15C553.114 1672.54 426.783 1456.61 425.492 1454.46L431.724 1450.95C432.051 1451.5 464.65 1506.55 483.907 1594.22C509.352 1710.44 500.087 1831.29 457.197 1942.59C354.702 2209.75 430.901 2336.22 431.682 2337.47L425.534 2341.1Z" fill="#CFCCE0"/>
<path d="M385.385 1442.24C375.412 1442.24 365.663 1439.37 357.371 1434C349.079 1428.63 342.616 1421 338.799 1412.07C334.983 1403.14 333.984 1393.31 335.93 1383.84C337.875 1374.36 342.678 1365.65 349.73 1358.82C356.782 1351.98 365.767 1347.33 375.548 1345.44C385.329 1343.56 395.468 1344.52 404.682 1348.22C413.896 1351.92 421.771 1358.18 427.312 1366.22C432.852 1374.26 435.81 1383.7 435.81 1393.37C435.795 1406.32 430.477 1418.75 421.024 1427.91C411.571 1437.07 398.754 1442.22 385.385 1442.24V1442.24ZM385.385 1351.48C376.837 1351.48 368.481 1353.94 361.373 1358.54C354.265 1363.14 348.726 1369.69 345.454 1377.34C342.183 1384.99 341.327 1393.42 342.995 1401.54C344.663 1409.67 348.779 1417.13 354.824 1422.99C360.868 1428.84 368.569 1432.83 376.953 1434.45C385.337 1436.07 394.028 1435.24 401.925 1432.07C409.823 1428.9 416.573 1423.53 421.322 1416.64C426.071 1409.75 428.606 1401.65 428.606 1393.37C428.593 1382.26 424.035 1371.62 415.933 1363.77C407.83 1355.91 396.844 1351.5 385.385 1351.48Z" fill="#CFCCE0"/>
<path d="M533.057 1606.29C558.916 1606.29 579.88 1585.97 579.88 1560.91C579.88 1535.85 558.916 1515.54 533.057 1515.54C507.198 1515.54 486.234 1535.85 486.234 1560.91C486.234 1585.97 507.198 1606.29 533.057 1606.29Z" fill="#CFCCE0"/>
<path d="M432.21 1721.47C422.237 1721.47 412.488 1718.61 404.195 1713.24C395.903 1707.87 389.44 1700.24 385.623 1691.31C381.807 1682.38 380.808 1672.55 382.754 1663.07C384.7 1653.59 389.502 1644.89 396.554 1638.05C403.606 1631.22 412.591 1626.56 422.372 1624.68C432.154 1622.79 442.292 1623.76 451.506 1627.46C460.72 1631.16 468.595 1637.42 474.136 1645.46C479.677 1653.49 482.634 1662.94 482.634 1672.61C482.619 1685.56 477.302 1697.98 467.848 1707.14C458.395 1716.3 445.578 1721.46 432.21 1721.47V1721.47ZM432.21 1630.72C423.661 1630.72 415.305 1633.18 408.197 1637.78C401.09 1642.38 395.55 1648.92 392.279 1656.58C389.007 1664.23 388.151 1672.65 389.819 1680.78C391.487 1688.9 395.603 1696.37 401.648 1702.22C407.692 1708.08 415.394 1712.07 423.778 1713.69C432.162 1715.3 440.852 1714.47 448.749 1711.3C456.647 1708.13 463.397 1702.76 468.146 1695.88C472.896 1688.99 475.43 1680.89 475.43 1672.61C475.418 1661.5 470.86 1650.85 462.757 1643C454.655 1635.15 443.669 1630.73 432.21 1630.72Z" fill="#CFCCE0"/>
<path d="M554.667 1815.71C544.694 1815.71 534.945 1812.85 526.652 1807.48C518.36 1802.11 511.897 1794.48 508.08 1785.55C504.264 1776.62 503.265 1766.79 505.211 1757.32C507.157 1747.84 511.959 1739.13 519.011 1732.29C526.063 1725.46 535.048 1720.81 544.829 1718.92C554.611 1717.04 564.749 1718 573.963 1721.7C583.177 1725.4 591.052 1731.66 596.593 1739.7C602.134 1747.74 605.091 1757.18 605.091 1766.85C605.076 1779.8 599.759 1792.23 590.305 1801.39C580.852 1810.55 568.035 1815.7 554.667 1815.71V1815.71ZM554.667 1724.96C546.118 1724.96 537.762 1727.42 530.654 1732.02C523.547 1736.62 518.007 1743.17 514.736 1750.82C511.464 1758.47 510.609 1766.89 512.276 1775.02C513.944 1783.14 518.06 1790.61 524.105 1796.47C530.149 1802.32 537.851 1806.31 546.235 1807.93C554.619 1809.55 563.309 1808.72 571.207 1805.55C579.104 1802.38 585.854 1797.01 590.603 1790.12C595.353 1783.23 597.888 1775.13 597.888 1766.85C597.875 1755.74 593.317 1745.1 585.214 1737.24C577.112 1729.39 566.126 1724.98 554.667 1724.96V1724.96Z" fill="#CFCCE0"/>
<path d="M2323.12 2182.21C2348.98 2182.21 2369.95 2161.9 2369.95 2136.84C2369.95 2111.78 2348.98 2091.46 2323.12 2091.46C2297.26 2091.46 2276.3 2111.78 2276.3 2136.84C2276.3 2161.9 2297.26 2182.21 2323.12 2182.21Z" fill="#00B9DA"/>
<path d="M2308.72 2161.27C2298.74 2161.27 2289 2158.4 2280.7 2153.03C2272.41 2147.67 2265.95 2140.03 2262.13 2131.1C2258.31 2122.18 2257.32 2112.35 2259.26 2102.87C2261.21 2093.39 2266.01 2084.68 2273.06 2077.85C2280.11 2071.02 2289.1 2066.36 2298.88 2064.48C2308.66 2062.59 2318.8 2063.56 2328.01 2067.26C2337.23 2070.96 2345.1 2077.22 2350.64 2085.26C2356.18 2093.29 2359.14 2102.74 2359.14 2112.4C2359.13 2125.36 2353.81 2137.78 2344.36 2146.94C2334.9 2156.1 2322.09 2161.26 2308.72 2161.27V2161.27ZM2308.72 2070.52C2300.17 2070.52 2291.81 2072.98 2284.71 2077.58C2277.6 2082.18 2272.06 2088.72 2268.79 2096.38C2265.52 2104.03 2264.66 2112.45 2266.33 2120.58C2267.99 2128.7 2272.11 2136.16 2278.16 2142.02C2284.2 2147.88 2291.9 2151.87 2300.29 2153.48C2308.67 2155.1 2317.36 2154.27 2325.26 2151.1C2333.16 2147.93 2339.91 2142.56 2344.65 2135.67C2349.4 2128.79 2351.94 2120.69 2351.94 2112.4C2351.93 2101.3 2347.37 2090.65 2339.27 2082.8C2331.16 2074.95 2320.18 2070.53 2308.72 2070.52Z" fill="#CFCCE0"/>
<path d="M986.877 2437.02C1012.74 2437.02 1033.7 2416.7 1033.7 2391.64C1033.7 2366.58 1012.74 2346.26 986.877 2346.26C961.018 2346.26 940.055 2366.58 940.055 2391.64C940.055 2416.7 961.018 2437.02 986.877 2437.02Z" fill="#00B9DA"/>
<path d="M972.471 2416.07C962.498 2416.07 952.749 2413.21 944.457 2407.84C936.165 2402.47 929.702 2394.84 925.885 2385.91C922.069 2376.98 921.07 2367.15 923.016 2357.67C924.961 2348.19 929.764 2339.49 936.816 2332.65C943.868 2325.82 952.853 2321.16 962.634 2319.28C972.415 2317.39 982.554 2318.36 991.768 2322.06C1000.98 2325.76 1008.86 2332.02 1014.4 2340.06C1019.94 2348.09 1022.9 2357.54 1022.9 2367.21C1022.88 2380.16 1017.56 2392.58 1008.11 2401.74C998.657 2410.91 985.84 2416.06 972.471 2416.07V2416.07ZM972.471 2325.32C963.923 2325.32 955.567 2327.78 948.459 2332.38C941.351 2336.98 935.812 2343.52 932.54 2351.18C929.269 2358.83 928.413 2367.25 930.081 2375.38C931.749 2383.5 935.865 2390.97 941.909 2396.82C947.954 2402.68 955.655 2406.67 964.039 2408.29C972.423 2409.9 981.114 2409.07 989.011 2405.9C996.909 2402.73 1003.66 2397.37 1008.41 2390.48C1013.16 2383.59 1015.69 2375.49 1015.69 2367.21C1015.68 2356.1 1011.12 2345.46 1003.02 2337.6C994.916 2329.75 983.93 2325.33 972.471 2325.32Z" fill="#CFCCE0"/>
<path d="M396.19 1958.82C422.049 1958.82 443.013 1938.51 443.013 1913.45C443.013 1888.39 422.049 1868.07 396.19 1868.07C370.33 1868.07 349.367 1888.39 349.367 1913.45C349.367 1938.51 370.33 1958.82 396.19 1958.82Z" fill="#CFCCE0"/>
<path d="M453.824 2342.77C453.824 2342.77 407.001 2231.08 547.469 2147.31L453.824 2342.77Z" fill="#CFCCE0"/>
<path d="M396.237 2340.75C396.237 2340.75 374.927 2221.97 209.996 2222.99L396.237 2340.75Z" fill="#CFCCE0"/>
<path d="M756.366 2335.79H0V2342.77H756.366V2335.79Z" fill="#CFCCE0"/>
</svg>
