<svg width="33" height="33" viewBox="0 0 33 33" fill="none" xmlns="http://www.w3.org/2000/svg">
<g clip-path="url(#clip0)">
<path d="M32.6279 32.1709V32.1695H32.6359V20.4335C32.6359 14.6922 31.3999 10.2695 24.6879 10.2695C21.4613 10.2695 19.2959 12.0402 18.4119 13.7189H18.3186V10.8055H11.9546V32.1695H18.5813V21.5909C18.5813 18.8055 19.1093 16.1122 22.5586 16.1122C25.9573 16.1122 26.0079 19.2909 26.0079 21.7695V32.1709H32.6279Z" fill="#00B9DA"/>
<path d="M1.16357 10.8066H7.79824V32.1706H1.16357V10.8066Z" fill="#00B9DA"/>
<path d="M4.47841 0.170898C2.35708 0.170898 0.635742 1.89223 0.635742 4.01356C0.635742 6.1349 2.35708 7.89223 4.47841 7.89223C6.59974 7.89223 8.32108 6.1349 8.32108 4.01356C8.31974 1.89223 6.59841 0.170898 4.47841 0.170898V0.170898Z" fill="#00B9DA"/>
</g>
<defs>
<clipPath id="clip0">
<rect width="32" height="32" fill="white" transform="translate(0.635742 0.170898)"/>
</clipPath>
</defs>
</svg>
