<svg width="995" height="740" viewBox="0 0 995 740" fill="none" xmlns="http://www.w3.org/2000/svg">
<g clip-path="url(#clip0)">
<path d="M995 274.008H576.765V286.392H995V274.008Z" fill="#E6E6E6"/>
<path d="M717.292 170.441H611.339V277.392H717.292V170.441Z" fill="#E6E6E6"/>
<path d="M696.102 191.83H632.53V256.001H696.102V191.83Z" fill="#CCCCCC"/>
<path d="M875.664 170.441H848.896V277.392H875.664V170.441Z" fill="#E6E6E6"/>
<path d="M875.664 187.324H848.896V199.708H875.664V187.324Z" fill="#CCCCCC"/>
<path d="M875.664 241.367H848.896V253.751H875.664V241.367Z" fill="#CCCCCC"/>
<path d="M834.397 170.441H807.63V277.392H834.397V170.441Z" fill="#E6E6E6"/>
<path d="M834.397 187.324H807.63V199.708H834.397V187.324Z" fill="#CCCCCC"/>
<path d="M834.397 241.367H807.63V253.751H834.397V241.367Z" fill="#CCCCCC"/>
<path d="M898.727 170L874.738 181.988L921.749 277.835L945.737 265.847L898.727 170Z" fill="#E6E6E6"/>
<path d="M906.15 185.127L882.161 197.115L887.605 208.213L911.593 196.225L906.15 185.127Z" fill="#CCCCCC"/>
<path d="M929.902 233.559L905.914 245.547L911.357 256.645L935.345 244.657L929.902 233.559Z" fill="#CCCCCC"/>
<path d="M650.932 213.373L664.412 236.94L677.891 260.507H650.932H623.973L637.452 236.94L650.932 213.373Z" fill="#E6E6E6"/>
<path d="M674.353 217.865L687.832 241.432L701.313 264.999H674.353H647.394L660.874 241.432L674.353 217.865Z" fill="#E6E6E6"/>
<path d="M683.833 210.964C688.145 210.964 691.64 207.436 691.64 203.084C691.64 198.731 688.145 195.203 683.833 195.203C679.521 195.203 676.026 198.731 676.026 203.084C676.026 207.436 679.521 210.964 683.833 210.964Z" fill="#E6E6E6"/>
<path d="M576.765 116.398L995 116.398V104.015L576.765 104.015V116.398Z" fill="#E6E6E6"/>
<path d="M854.473 107.398L960.426 107.398V0.447517L854.473 0.447517V107.398Z" fill="#E6E6E6"/>
<path d="M875.664 85.9961L939.236 85.9961V21.8255L875.664 21.8255V85.9961Z" fill="#CCCCCC"/>
<path d="M696.101 107.398H722.868V0.447517H696.101V107.398Z" fill="#E6E6E6"/>
<path d="M696.101 29.7148L722.868 29.7148V17.3311L696.101 17.3311V29.7148Z" fill="#CCCCCC"/>
<path d="M696.101 83.7578H722.868V71.374H696.101V83.7578Z" fill="#CCCCCC"/>
<path d="M737.367 107.398H764.134V0.447517H737.367V107.398Z" fill="#E6E6E6"/>
<path d="M737.367 29.7148L764.134 29.7148V17.3311L737.367 17.3311V29.7148Z" fill="#CCCCCC"/>
<path d="M737.367 83.7578H764.134V71.374H737.367V83.7578Z" fill="#CCCCCC"/>
<path d="M626.028 95.8439L650.016 107.832L697.026 11.9848L673.038 -0.00334179L626.028 95.8439Z" fill="#E6E6E6"/>
<path d="M660.172 26.2267L684.16 38.2148L689.604 27.1167L665.616 15.1286L660.172 26.2267Z" fill="#CCCCCC"/>
<path d="M636.42 74.6603L660.408 86.6484L665.851 75.5503L641.863 63.5622L636.42 74.6603Z" fill="#CCCCCC"/>
<path d="M920.833 43.375L907.354 66.9419L893.875 90.5088H920.833H947.793L934.312 66.9419L920.833 43.375Z" fill="#E6E6E6"/>
<path d="M897.411 47.8691L883.932 71.436L870.453 95.0029H897.411H924.371L910.892 71.436L897.411 47.8691Z" fill="#E6E6E6"/>
<path d="M887.932 40.9682C892.243 40.9682 895.739 37.4399 895.739 33.0876C895.739 28.7353 892.243 25.207 887.932 25.207C883.62 25.207 880.125 28.7353 880.125 33.0876C880.125 37.4399 883.62 40.9682 887.932 40.9682Z" fill="#E6E6E6"/>
<path d="M576.765 456.393L995 456.393V444.009L576.765 444.009V456.393Z" fill="#E6E6E6"/>
<path d="M854.473 447.377H960.426V340.426H854.473V447.377Z" fill="#E6E6E6"/>
<path d="M875.664 425.99H939.236V361.82H875.664V425.99Z" fill="#CCCCCC"/>
<path d="M696.101 447.377H722.868V340.426H696.101V447.377Z" fill="#E6E6E6"/>
<path d="M696.101 369.707H722.868V357.323H696.101V369.707Z" fill="#CCCCCC"/>
<path d="M696.101 423.75H722.868V411.366H696.101V423.75Z" fill="#CCCCCC"/>
<path d="M737.367 447.377H764.134V340.426H737.367V447.377Z" fill="#E6E6E6"/>
<path d="M737.367 369.707H764.134V357.323H737.367V369.707Z" fill="#CCCCCC"/>
<path d="M737.367 423.75H764.134V411.366H737.367V423.75Z" fill="#CCCCCC"/>
<path d="M626.028 435.836L650.016 447.824L697.026 351.977L673.038 339.989L626.028 435.836Z" fill="#E6E6E6"/>
<path d="M660.172 366.221L684.16 378.209L689.604 367.111L665.616 355.123L660.172 366.221Z" fill="#CCCCCC"/>
<path d="M636.42 414.654L660.408 426.643L665.851 415.544L641.863 403.556L636.42 414.654Z" fill="#CCCCCC"/>
<path d="M920.833 383.369L907.354 406.936L893.875 430.504H920.833H947.793L934.312 406.936L920.833 383.369Z" fill="#E6E6E6"/>
<path d="M897.411 387.861L883.932 411.428L870.453 434.996H897.411H924.371L910.892 411.428L897.411 387.861Z" fill="#E6E6E6"/>
<path d="M887.932 380.96C892.243 380.96 895.739 377.432 895.739 373.08C895.739 368.727 892.243 365.199 887.932 365.199C883.62 365.199 880.125 368.727 880.125 373.08C880.125 377.432 883.62 380.96 887.932 380.96Z" fill="#E6E6E6"/>
<path d="M492.681 739.996C764.782 739.996 985.363 724.182 985.363 704.675C985.363 685.167 764.782 669.354 492.681 669.354C220.581 669.354 0 685.167 0 704.675C0 724.182 220.581 739.996 492.681 739.996Z" fill="#E6E6E6"/>
<path d="M877.589 724.456C797.253 710.023 709.403 712.423 617.252 724.456C659.253 688.664 695.503 652.872 653.501 617.08C735.43 634.141 746.906 632.414 838.044 617.08C816.905 652.872 856.45 688.664 877.589 724.456Z" fill="#6C63FF"/>
<path opacity="0.2" d="M877.589 724.456C797.253 710.023 709.403 712.423 617.252 724.456C659.253 688.664 695.503 652.872 653.501 617.08C735.43 634.141 746.906 632.414 838.044 617.08C816.905 652.872 856.45 688.664 877.589 724.456Z" fill="#5F2AA2"/>
<path d="M857.994 709.19C789.751 697.67 715.126 699.585 636.847 709.19C672.525 680.62 703.318 652.05 667.639 623.48C737.235 637.099 746.983 635.721 824.402 623.48C806.445 652.05 840.037 680.62 857.994 709.19Z" fill="#5F2AA2"/>
<path d="M832.001 663.161C852.083 663.161 868.362 646.728 868.362 626.458C868.362 606.187 852.083 589.754 832.001 589.754C811.92 589.754 795.64 606.187 795.64 626.458C795.64 646.728 811.92 663.161 832.001 663.161Z" fill="#2F2E41"/>
<path d="M666.939 583.873L692.133 588.112L704.73 624.845L668.339 647.452L626.349 583.873H665.539H666.939Z" fill="#A0616A"/>
<path d="M738.322 640.402C770.789 640.402 797.108 613.835 797.108 581.062C797.108 548.29 770.789 521.723 738.322 521.723C705.856 521.723 679.536 548.29 679.536 581.062C679.536 613.835 705.856 640.402 738.322 640.402Z" fill="#A0616A"/>
<path d="M413.6 364.891C413.6 364.891 270.835 380.432 245.641 377.606C220.447 374.781 209.249 371.955 209.249 371.955C209.249 371.955 192.453 394.56 200.851 404.45C205.555 410.149 211.246 414.937 217.647 418.579C217.647 418.579 233.044 414.34 244.241 418.579C255.438 422.817 368.811 441.184 388.406 424.23C408.002 407.276 413.6 364.891 413.6 364.891Z" fill="#2F2E41"/>
<path d="M423.399 679.951C423.399 679.951 329.621 653.107 312.825 534.428V523.125C312.825 523.125 294.271 555.983 287.631 562.685C279.933 570.455 252.64 640.391 254.039 647.455C255.439 654.52 254.039 657.345 254.039 657.345L213.449 653.107V640.391C213.449 640.391 235.144 574.694 236.544 559.152C237.943 543.611 290.431 435.528 290.431 435.528C290.431 435.528 310.026 394.556 343.618 435.528C377.21 476.501 380.009 504.758 380.009 504.758L423.399 589.529L423.399 679.951Z" fill="#2F2E41"/>
<path d="M213.449 367.713L168.659 352.172C168.659 352.172 126.669 321.089 136.467 352.172C146.265 383.255 191.054 451.071 203.651 444.007C216.248 436.943 231.398 419.408 228.022 416.873C224.646 414.337 202.251 395.97 213.449 367.713Z" fill="#2F2E41"/>
<path d="M218.863 632.049L182.707 649.873C182.707 649.873 138.983 656.663 163.367 669.394C187.752 682.126 255.019 695.706 258.382 683.823C261.745 671.94 260.411 652.22 256.874 652.744C253.337 653.268 228.953 655.814 218.863 632.049Z" fill="#2F2E41"/>
<path d="M405.202 586.711C405.202 586.711 387.006 665.831 417.799 682.785C448.592 699.739 664.14 702.565 680.936 671.482C697.732 640.399 689.334 640.4 689.334 640.4L644.545 589.537L680.936 586.711C680.936 586.711 680.936 575.409 668.339 573.996C655.742 572.583 616.551 558.454 582.959 568.344C549.367 578.234 529.772 548.564 529.772 548.564L405.202 586.711Z" fill="#5F2AA2"/>
<path d="M381.409 339.453L357.614 470.848L521.375 451.068L550.767 332.389L381.409 339.453Z" fill="#3F3D56"/>
<path d="M386.308 344.406L366.712 461.672L515.776 444.012L544.469 337.342L386.308 344.406Z" fill="white"/>
<path d="M363.212 472.258L357.613 470.846L354.815 476.496L399.604 602.24L403.816 600.614L405.202 592.351L363.212 472.258Z" fill="#B3B3B3"/>
<path d="M357.614 469.44L402.403 600.836L571.762 575.404L521.375 451.074L357.614 469.44Z" fill="#D0CDE1"/>
<path d="M380.009 465.203V472.267L504.579 458.138L503.179 451.074L380.009 465.203Z" fill="#3F3D56"/>
<path d="M382.808 479.329L402.404 534.43L529.773 518.889L507.379 466.613L382.808 479.329Z" fill="#3F3D56"/>
<path d="M542.369 557.038L538.17 545.735C538.17 545.735 505.978 489.221 489.182 500.524C472.386 511.827 524.174 566.928 524.174 566.928H540.97L542.369 557.038Z" fill="#A0616A"/>
<path d="M435.995 565.509L431.796 548.554C431.796 548.554 420.598 496.279 440.194 499.105C459.789 501.93 465.388 551.38 465.388 551.38L463.988 562.683L435.995 565.509Z" fill="#A0616A"/>
<path d="M469.587 558.447C469.587 558.447 433.195 552.796 431.796 561.273C430.396 569.75 423.398 696.906 458.389 701.145C493.381 705.383 666.939 723.75 648.743 679.952C630.548 636.154 602.555 641.805 602.555 641.805L483.583 654.521L469.587 558.447Z" fill="#5F2AA2"/>
<path d="M579.46 574.702L542.37 548.564L517.875 567.638L548.668 601.546L579.46 574.702Z" fill="#5F2AA2"/>
<path opacity="0.2" d="M480.085 600.131L485.683 653.819L582.26 648.168L498.28 646.755L480.085 600.131Z" fill="black"/>
<path d="M767.341 662.476C805.991 662.476 837.324 630.848 837.324 591.834C837.324 552.819 805.991 521.191 767.341 521.191C728.69 521.191 697.358 552.819 697.358 591.834C697.358 630.848 728.69 662.476 767.341 662.476Z" fill="#2F2E41"/>
<path d="M407.302 385.378L494.082 382.328L502.479 350.057L412.901 352.785L407.302 385.378Z" fill="#6C63FF"/>
<path d="M384.908 403.738L516.475 399.499L517.875 393.848L386.307 398.524L384.908 403.738Z" fill="#E6E6E6"/>
<path d="M382.108 417.865L513.677 413.626L515.076 407.975L383.507 412.651L382.108 417.865Z" fill="#E6E6E6"/>
<path d="M380.708 429.169L512.276 424.931L513.677 419.279L382.108 423.954L380.708 429.169Z" fill="#E6E6E6"/>
</g>
<defs>
<clipPath id="clip0">
<rect width="995" height="740" fill="white"/>
</clipPath>
</defs>
</svg>
