<svg width="455" height="225" viewBox="0 0 455 225" fill="none" xmlns="http://www.w3.org/2000/svg">
<g clip-path="url(#clip0_4871_2)">
<path d="M260.894 220.188C258.078 220.186 255.378 219.068 253.387 217.078C251.397 215.089 250.278 212.392 250.278 209.579C250.278 206.767 251.397 204.07 253.387 202.08C255.378 200.091 258.078 198.972 260.894 198.97H418.684C417.89 197.515 416.719 196.301 415.293 195.454C413.866 194.607 412.238 194.16 410.579 194.159H96.9353C92.8433 194.163 88.9205 195.79 86.0288 198.681C83.1371 201.573 81.5132 205.493 81.5137 209.579C81.5157 213.665 83.1406 217.583 86.0317 220.474C88.9228 223.365 92.8441 224.993 96.9353 225H410.579C412.238 224.999 413.866 224.551 415.293 223.704C416.719 222.858 417.89 221.643 418.684 220.188L260.894 220.188Z" fill="#CCCCCC"/>
<path d="M418.894 204.816H268.873C268.643 204.816 268.423 204.724 268.261 204.562C268.099 204.399 268.008 204.179 268.008 203.95C268.008 203.721 268.099 203.501 268.261 203.338C268.423 203.176 268.643 203.085 268.873 203.084H418.894C419.124 203.085 419.344 203.176 419.506 203.338C419.668 203.501 419.759 203.721 419.759 203.95C419.759 204.179 419.668 204.399 419.506 204.562C419.344 204.724 419.124 204.816 418.894 204.816Z" fill="#CCCCCC"/>
<path d="M418.894 210.445H268.873C268.643 210.445 268.422 210.354 268.26 210.192C268.097 210.029 268.006 209.809 268.006 209.579C268.006 209.35 268.097 209.129 268.26 208.967C268.422 208.805 268.643 208.713 268.873 208.713H418.894C419.124 208.713 419.345 208.805 419.507 208.967C419.67 209.129 419.761 209.35 419.761 209.579C419.761 209.809 419.67 210.029 419.507 210.192C419.345 210.354 419.124 210.445 418.894 210.445V210.445Z" fill="#CCCCCC"/>
<path d="M418.894 216.075H268.873C268.643 216.074 268.423 215.983 268.261 215.82C268.099 215.658 268.008 215.438 268.008 215.209C268.008 214.979 268.099 214.76 268.261 214.597C268.423 214.435 268.643 214.343 268.873 214.343H418.894C419.124 214.343 419.344 214.435 419.506 214.597C419.668 214.76 419.759 214.979 419.759 215.209C419.759 215.438 419.668 215.658 419.506 215.82C419.344 215.983 419.124 216.074 418.894 216.075Z" fill="#CCCCCC"/>
<path d="M220.138 190.31C217.322 190.308 214.622 189.19 212.631 187.2C210.641 185.211 209.523 182.514 209.523 179.701C209.523 176.889 210.641 174.192 212.631 172.202C214.622 170.213 217.322 169.094 220.138 169.092H377.928C377.134 167.637 375.963 166.423 374.537 165.576C373.111 164.729 371.483 164.282 369.824 164.281H56.1797C52.0877 164.285 48.1649 165.912 45.2732 168.804C42.3815 171.695 40.7574 175.615 40.7578 179.701C40.7599 183.787 42.3848 187.705 45.276 190.596C48.1671 193.487 52.0885 195.115 56.1797 195.122H369.824C371.483 195.121 373.111 194.673 374.537 193.827C375.963 192.98 377.134 191.765 377.928 190.31L220.138 190.31Z" fill="#2D3B5A"/>
<path d="M378.136 174.938H228.115C227.885 174.938 227.665 174.846 227.503 174.684C227.341 174.521 227.25 174.301 227.25 174.072C227.25 173.843 227.341 173.623 227.503 173.46C227.665 173.298 227.885 173.207 228.115 173.206H378.136C378.366 173.206 378.587 173.297 378.75 173.46C378.912 173.622 379.004 173.842 379.004 174.072C379.004 174.302 378.912 174.522 378.75 174.684C378.587 174.847 378.366 174.938 378.136 174.938V174.938Z" fill="#CCCCCC"/>
<path d="M378.137 180.567H228.115C227.885 180.567 227.665 180.476 227.502 180.313C227.339 180.151 227.248 179.931 227.248 179.701C227.248 179.471 227.339 179.251 227.502 179.089C227.665 178.926 227.885 178.835 228.115 178.835H378.137C378.366 178.835 378.587 178.926 378.75 179.089C378.912 179.251 379.004 179.471 379.004 179.701C379.004 179.931 378.912 180.151 378.75 180.313C378.587 180.476 378.366 180.567 378.137 180.567V180.567Z" fill="#CCCCCC"/>
<path d="M378.136 186.196H228.115C227.885 186.196 227.665 186.104 227.503 185.942C227.341 185.78 227.25 185.56 227.25 185.33C227.25 185.101 227.341 184.881 227.503 184.719C227.665 184.556 227.885 184.465 228.115 184.464H378.136C378.25 184.464 378.363 184.486 378.469 184.53C378.574 184.573 378.67 184.637 378.751 184.717C378.832 184.798 378.896 184.893 378.939 184.998C378.983 185.104 379.006 185.216 379.006 185.33C379.006 185.444 378.983 185.557 378.939 185.662C378.896 185.768 378.832 185.863 378.751 185.944C378.67 186.024 378.574 186.088 378.469 186.131C378.363 186.175 378.25 186.197 378.136 186.196V186.196Z" fill="#CCCCCC"/>
<path d="M179.38 159.435C176.564 159.433 173.864 158.314 171.874 156.325C169.883 154.336 168.765 151.638 168.765 148.826C168.765 146.013 169.883 143.316 171.874 141.327C173.864 139.337 176.564 138.219 179.38 138.217H337.17C336.376 136.762 335.205 135.547 333.779 134.701C332.353 133.854 330.725 133.407 329.066 133.405H15.4216C11.3296 133.41 7.40682 135.037 4.51515 137.928C1.62349 140.82 -0.000509123 144.739 1.19728e-07 148.826C0.00207038 152.912 1.62689 156.83 4.518 159.721C7.40911 162.612 11.3304 164.239 15.4216 164.246H329.066C330.725 164.245 332.353 163.798 333.779 162.951C335.205 162.104 336.376 160.89 337.17 159.435L179.38 159.435Z" fill="#CCCCCC"/>
<path d="M337.381 144.063H187.359C187.13 144.062 186.91 143.971 186.747 143.808C186.585 143.646 186.494 143.426 186.494 143.197C186.494 142.967 186.585 142.747 186.747 142.585C186.91 142.423 187.13 142.331 187.359 142.331H337.381C337.611 142.331 337.831 142.422 337.994 142.584C338.156 142.747 338.248 142.967 338.248 143.197C338.248 143.426 338.156 143.647 337.994 143.809C337.831 143.971 337.611 144.063 337.381 144.063Z" fill="#CCCCCC"/>
<path d="M337.379 149.692H187.357C187.244 149.692 187.131 149.67 187.026 149.626C186.92 149.583 186.825 149.519 186.744 149.438C186.664 149.358 186.6 149.262 186.556 149.157C186.513 149.052 186.49 148.94 186.49 148.826C186.49 148.712 186.513 148.6 186.556 148.495C186.6 148.389 186.664 148.294 186.744 148.214C186.825 148.133 186.92 148.069 187.026 148.026C187.131 147.982 187.244 147.96 187.357 147.96H337.379C337.493 147.96 337.605 147.982 337.711 148.026C337.816 148.069 337.911 148.133 337.992 148.214C338.072 148.294 338.136 148.389 338.18 148.495C338.223 148.6 338.246 148.712 338.246 148.826C338.246 148.94 338.223 149.052 338.18 149.157C338.136 149.262 338.072 149.358 337.992 149.438C337.911 149.519 337.816 149.583 337.711 149.626C337.605 149.67 337.493 149.692 337.379 149.692V149.692Z" fill="#CCCCCC"/>
<path d="M337.379 155.321H187.357C187.127 155.321 186.907 155.23 186.744 155.067C186.582 154.905 186.49 154.685 186.49 154.455C186.49 154.225 186.582 154.005 186.744 153.843C186.907 153.68 187.127 153.589 187.357 153.589H337.379C337.493 153.589 337.605 153.611 337.711 153.655C337.816 153.698 337.911 153.762 337.992 153.843C338.072 153.923 338.136 154.018 338.18 154.123C338.223 154.229 338.246 154.341 338.246 154.455C338.246 154.569 338.223 154.681 338.18 154.786C338.136 154.891 338.072 154.987 337.992 155.067C337.911 155.148 337.816 155.211 337.711 155.255C337.605 155.299 337.493 155.321 337.379 155.321V155.321Z" fill="#CCCCCC"/>
<path d="M340.844 93.5693C340.021 93.5681 339.229 93.2546 338.629 92.6923C338.029 92.1301 337.665 91.3611 337.611 90.5411L337.13 83.1996C337.074 82.3421 337.361 81.4975 337.928 80.8514C338.496 80.2054 339.297 79.8108 340.155 79.7547L397.748 75.9879C398.655 75.9286 399.566 76.0483 400.428 76.3404C401.289 76.6325 402.085 77.0912 402.768 77.6904C403.452 78.2895 404.012 79.0172 404.414 79.8321C404.816 80.647 405.054 81.5331 405.113 82.4398C405.173 83.3464 405.053 84.2558 404.76 85.1162C404.468 85.9765 404.009 86.7709 403.409 87.454C402.809 88.1371 402.08 88.6954 401.264 89.0973C400.448 89.4991 399.561 89.7364 398.653 89.7958L341.061 93.5623C340.988 93.5669 340.916 93.5692 340.844 93.5693Z" fill="#2D3B5A"/>
<path d="M352.2 94.5159C351.361 94.5145 350.555 94.189 349.951 93.6075C349.347 93.0261 348.992 92.2338 348.96 91.3966L348.549 80.4313C348.533 80.0061 348.601 79.582 348.75 79.1831C348.898 78.7842 349.123 78.4183 349.413 78.1064C349.703 77.7946 350.051 77.5428 350.439 77.3654C350.826 77.188 351.244 77.0886 351.67 77.0727L399.03 75.305C399.89 75.2729 400.727 75.5833 401.358 76.1678C401.989 76.7524 402.361 77.5632 402.393 78.4219L402.804 89.3871C402.819 89.8123 402.751 90.2365 402.603 90.6354C402.455 91.0343 402.229 91.4001 401.94 91.712C401.65 92.0239 401.301 92.2757 400.914 92.453C400.527 92.6304 400.108 92.7299 399.683 92.7457L352.323 94.5135C352.282 94.5152 352.241 94.5159 352.2 94.5159Z" fill="white"/>
<path d="M407.699 195.595H400.332C399.472 195.594 398.647 195.252 398.039 194.645C397.431 194.037 397.089 193.214 397.088 192.355V131.036C397.089 130.177 397.431 129.354 398.039 128.746C398.647 128.139 399.472 127.797 400.332 127.796H407.699C408.559 127.797 409.384 128.139 409.992 128.746C410.6 129.354 410.942 130.177 410.943 131.036V192.355C410.942 193.214 410.6 194.037 409.992 194.645C409.384 195.252 408.559 195.594 407.699 195.595V195.595Z" fill="#2D3B5A"/>
<path d="M375 163.183L368.7 159.369C367.965 158.923 367.437 158.204 367.232 157.369C367.027 156.535 367.162 155.654 367.607 154.919L399.433 102.481C399.88 101.747 400.6 101.22 401.435 101.015C402.271 100.811 403.153 100.945 403.889 101.39L410.189 105.203C410.924 105.649 411.452 106.369 411.657 107.203C411.862 108.037 411.727 108.918 411.282 109.654L379.456 162.091C379.009 162.825 378.289 163.353 377.454 163.557C376.618 163.762 375.736 163.627 375 163.183Z" fill="#2D3B5A"/>
<path d="M396.51 63.804C410.568 63.804 421.965 52.4223 421.965 38.3822C421.965 24.3422 410.568 12.9604 396.51 12.9604C382.451 12.9604 371.055 24.3422 371.055 38.3822C371.055 52.4223 382.451 63.804 396.51 63.804Z" fill="#2D3B5A"/>
<path d="M382.731 47.0621C381.912 46.7934 381.161 46.3528 380.526 45.7698C380.106 45.3535 379.782 44.8505 379.577 44.2961C379.372 43.7417 379.291 43.1492 379.34 42.5601C379.366 42.1405 379.49 41.7326 379.701 41.3685C379.911 41.0043 380.203 40.6938 380.554 40.4611C381.464 39.8779 382.682 39.8762 383.921 40.4217L383.874 30.4974L384.873 30.4927L384.928 42.1597L384.159 41.6766C383.267 41.1172 381.993 40.7235 381.093 41.3002C380.871 41.4526 380.686 41.6542 380.555 41.8892C380.423 42.1243 380.347 42.3865 380.334 42.6555C380.3 43.0943 380.361 43.5352 380.514 43.9481C380.666 44.3611 380.905 44.7364 381.216 45.0486C382.318 46.1002 383.926 46.429 385.76 46.7229L385.602 47.7071C384.628 47.5782 383.667 47.3623 382.731 47.0621V47.0621Z" fill="white"/>
<path d="M373.584 29.9961L373.453 30.9844L378.783 31.6874L378.914 30.6991L373.584 29.9961Z" fill="white"/>
<path d="M390.408 32.2144L390.277 33.2026L395.607 33.9056L395.738 32.9174L390.408 32.2144Z" fill="white"/>
<path d="M417.765 147.488H374.84C373.715 147.487 372.637 147.04 371.842 146.246C371.046 145.452 370.599 144.375 370.598 143.251L379.584 74.4309C379.591 73.3127 380.041 72.2428 380.836 71.4549C381.63 70.6671 382.705 70.2253 383.824 70.2261H399.058C405.142 70.2329 410.975 72.6499 415.278 76.9466C419.58 81.2434 422 87.0691 422.007 93.1456V143.251C422.006 144.375 421.559 145.452 420.763 146.246C419.968 147.04 418.889 147.487 417.765 147.488Z" fill="white"/>
<path d="M454.694 120.37C454.96 120.937 455.055 121.568 454.969 122.188C454.884 122.807 454.621 123.389 454.212 123.863L449.395 129.43C449.117 129.752 448.777 130.016 448.397 130.207C448.016 130.398 447.601 130.512 447.177 130.543C446.752 130.574 446.325 130.521 445.92 130.388C445.516 130.254 445.142 130.042 444.819 129.764L401.146 92.0809C400.457 91.487 399.893 90.7635 399.484 89.9516C399.075 89.1397 398.831 88.2554 398.765 87.3491C398.698 86.4429 398.811 85.5324 399.097 84.6698C399.383 83.8072 399.837 83.0093 400.432 82.3217C401.026 81.6341 401.751 81.0703 402.564 80.6624C403.377 80.2545 404.263 80.0106 405.17 79.9446C406.078 79.8785 406.989 79.9917 407.853 80.2775C408.717 80.5634 409.515 81.0163 410.204 81.6105L453.877 119.293C454.223 119.59 454.501 119.958 454.694 120.37V120.37Z" fill="#2D3B5A"/>
<path d="M445.056 107.935C445.321 108.501 445.416 109.132 445.331 109.752C445.245 110.372 444.982 110.953 444.573 111.427L436.347 120.936C435.784 121.586 434.986 121.985 434.128 122.048C433.27 122.11 432.422 121.83 431.771 121.27L395.909 90.3267C395.586 90.0486 395.322 89.7098 395.13 89.3295C394.939 88.9493 394.825 88.5352 394.794 88.1109C394.763 87.6865 394.816 87.2602 394.95 86.8563C395.084 86.4524 395.296 86.0788 395.575 85.7568L403.801 76.2478C404.079 75.9258 404.418 75.6618 404.799 75.4708C405.18 75.2798 405.595 75.1655 406.019 75.1346C406.444 75.1036 406.871 75.1565 407.276 75.2903C407.68 75.4241 408.054 75.6362 408.377 75.9144L444.239 106.857C444.584 107.155 444.863 107.522 445.056 107.935V107.935Z" fill="white"/>
<path d="M396.985 23.3046C393.583 20.4923 389.034 23.1522 385.186 22.7747C381.504 22.4135 378.541 19.1778 377.733 15.6958C376.791 11.6335 378.833 7.50698 381.909 4.90468C385.278 2.05453 389.802 1.16884 394.112 1.60254C399.053 2.09961 403.605 4.30875 407.702 7.00755C411.656 9.52957 415.305 12.5 418.575 15.8596C421.505 18.9707 424.008 22.6978 424.866 26.9427C425.645 30.8005 425.188 35.1005 422.959 38.4233C421.776 40.1272 420.173 41.4978 418.305 42.403C416.358 43.4039 414.275 44.1325 412.393 45.2581C409.546 46.96 406.813 50.4287 407.782 53.9661C407.99 54.7389 408.386 55.4488 408.933 56.0332C409.591 56.7351 410.734 55.7694 410.075 55.0658C408.917 53.8298 408.93 52.152 409.506 50.6393C410.192 48.934 411.438 47.5121 413.04 46.6066C415.011 45.431 417.197 44.687 419.22 43.6119C421.157 42.6281 422.827 41.1915 424.088 39.4244C426.468 35.9856 427.115 31.5567 426.483 27.4829C425.799 23.0745 423.449 19.1013 420.534 15.7897C417.363 12.1858 413.493 9.15763 409.548 6.44617C405.314 3.53673 400.651 1.09755 395.527 0.280564C391.086 -0.427637 386.297 0.151123 382.472 2.63365C378.902 4.95092 376.205 8.87174 376.011 13.1994C375.95 15.1679 376.415 17.1173 377.358 18.8468C378.301 20.5764 379.689 22.0237 381.378 23.0398C383.111 24.031 385.111 24.454 387.097 24.2491C389.222 24.0728 391.338 23.382 393.482 23.522C394.451 23.5623 395.381 23.9172 396.131 24.5329C396.874 25.1473 397.723 23.914 396.985 23.3046V23.3046Z" fill="white"/>
<path d="M367.054 155.805C367.063 155.748 367.074 155.692 367.086 155.636C367.175 155.22 367.345 154.825 367.588 154.475C367.83 154.125 368.14 153.827 368.499 153.597L374.69 149.609C375.413 149.144 376.291 148.985 377.132 149.166C377.973 149.347 378.707 149.854 379.174 150.576L398.271 180.145C398.738 180.867 398.898 181.744 398.716 182.584C398.535 183.424 398.027 184.158 397.304 184.624L391.113 188.611C390.389 189.076 389.511 189.235 388.67 189.054C387.829 188.873 387.095 188.366 386.628 187.645L367.531 158.076C367.095 157.404 366.925 156.595 367.054 155.805V155.805Z" fill="#2D3B5A"/>
</g>
<defs>
<clipPath id="clip0_4871_2">
<rect width="455" height="225" fill="white"/>
</clipPath>
</defs>
</svg>
