<svg width="37" height="37" viewBox="0 0 37 37" fill="none" xmlns="http://www.w3.org/2000/svg">
<g clip-path="url(#clip0)">
<path d="M9.29595 26.2129L9.23033 26.2089C8.71522 26.1777 8.21847 26.0831 7.74672 25.9346L4.44967 31.6433C4.1476 32.1663 4.33137 32.8352 4.85819 33.1307L8.10364 34.9509C8.62135 35.2412 9.27644 35.0614 9.57323 34.5475L14.3868 26.2129H9.29595Z" fill="#00B9DA"/>
<path d="M27.605 2.07046L17.811 8.06648V25.3336L27.6173 31.1593C28.3401 31.5887 29.2557 31.068 29.2557 30.2275V2.99489C29.2557 2.14786 28.3275 1.62813 27.605 2.07046Z" fill="#00B9DA"/>
<path d="M3.50705 20.2368V12.9552C3.50705 12.5379 3.55222 12.1314 3.63583 11.7393H2.05928C0.921965 11.7393 0 12.6609 0 13.7979V19.3941C0 20.531 0.921965 21.4527 2.05928 21.4527H3.63525C3.55193 21.0594 3.50705 20.6529 3.50705 20.2368Z" fill="#00B9DA"/>
<path d="M15.6422 24.0452H9.36176C7.32604 23.9218 5.67578 22.272 5.67578 20.2369V12.9555C5.67578 10.9204 7.32604 9.2707 9.36176 9.39421H15.6422V24.0452Z" fill="#00B9DA"/>
<path d="M34.0169 25.4581C33.7394 25.4581 33.4619 25.3523 33.2501 25.1406L31.0627 22.9539C30.6392 22.5307 30.6392 21.8443 31.0627 21.421C31.4861 20.9977 32.1728 20.9977 32.5962 21.421L34.7836 23.6076C35.2071 24.0309 35.2071 24.7173 34.7836 25.1406C34.5719 25.3523 34.2944 25.4581 34.0169 25.4581Z" fill="#00B9DA"/>
<path d="M31.8295 12.4504C31.5519 12.4504 31.2745 12.3446 31.0627 12.1329C30.6392 11.7096 30.6392 11.0232 31.0627 10.5999L33.2501 8.4132C33.6736 7.98987 34.3601 7.98987 34.7836 8.4132C35.207 8.83646 35.207 9.52284 34.7836 9.94617L32.5962 12.1329C32.3845 12.3445 32.107 12.4504 31.8295 12.4504Z" fill="#00B9DA"/>
<path d="M35.9161 17.8613H32.8226C32.2238 17.8613 31.7383 17.376 31.7383 16.7773C31.7383 16.1787 32.2238 15.6934 32.8226 15.6934H35.9161C36.515 15.6934 37.0005 16.1787 37.0005 16.7773C37.0005 17.376 36.515 17.8613 35.9161 17.8613Z" fill="#00B9DA"/>
</g>
<defs>
<clipPath id="clip0">
<rect width="37" height="37" fill="white"/>
</clipPath>
</defs>
</svg>
