<svg width="186" height="131" viewBox="0 0 186 131" fill="none" xmlns="http://www.w3.org/2000/svg">
<g clip-path="url(#clip0)">
<path d="M94.9946 130.722C100.589 130.722 105.124 126.19 105.124 120.599C105.124 115.008 100.589 110.476 94.9946 110.476C89.4003 110.476 84.8652 115.008 84.8652 120.599C84.8652 126.19 89.4003 130.722 94.9946 130.722Z" fill="#00B9DA"/>
<path d="M155.507 130.154C161.174 128.453 167.198 126.679 171.692 122.636C175.708 119.023 178.42 113.505 176.756 108.087C175.095 102.679 170.122 99.0732 164.988 97.2799C162.076 96.2627 159.029 95.6984 155.983 95.2551C152.673 94.7732 149.347 94.3784 146.024 93.9985C132.565 92.4601 119.056 91.5203 105.497 91.1791C98.8058 91.0107 92.1162 91.0148 85.4245 91.1119C79.4483 91.1986 73.1543 91.1964 67.6103 88.658C63.2991 86.684 59.3862 83.0926 58.1849 78.3733C56.7982 72.9255 59.3559 67.3777 63.0249 63.4322C64.9589 61.3525 67.2192 59.6021 69.5509 57.9926C72.0805 56.2465 74.6982 54.6241 77.3727 53.1096C82.6402 50.1283 88.1472 47.591 93.8366 45.5241C96.6432 44.5042 99.4915 43.6242 102.364 42.8125C104.79 42.127 107.224 41.4406 109.569 40.5067C114.101 38.7013 118.412 35.6431 119.565 30.6296C120.657 25.8779 118.815 20.7196 115.587 17.1897C111.851 13.1058 106.219 11.3156 100.82 11.0259C94.758 10.7007 88.8359 12.217 83.1383 14.1412C77.0614 16.1936 71.1155 18.5535 64.9103 20.2159C58.7569 21.8628 52.4844 23.028 46.1499 23.7011C43.0489 24.0311 39.8543 24.4037 36.7348 24.1511C34.1205 23.9393 31.5195 23.1709 29.5928 21.3166C27.9407 19.7267 26.9565 17.5415 27.2949 15.2355C27.3563 14.8167 27.993 14.9948 27.9319 15.411C27.52 18.2181 29.4293 20.8047 31.782 22.1297C34.5011 23.661 37.8098 23.6631 40.8371 23.488C47.4011 23.0917 53.9207 22.1498 60.3283 20.672C66.6244 19.2348 72.6957 17.1803 78.7601 14.9856C84.5197 12.9011 90.4081 10.8668 96.5613 10.4153C101.9 10.0235 107.517 10.8009 112.168 13.5894C116.256 16.0401 119.262 20.1271 120.22 24.817C121.156 29.3999 119.859 34.0127 116.388 37.2108C112.794 40.5221 107.866 41.9377 103.274 43.2416C97.4487 44.8953 91.7488 46.8283 86.2316 49.3382C80.6392 51.8752 75.2758 54.8887 70.2008 58.3453C65.3021 61.6909 60.4676 65.9005 58.9183 71.869C58.1966 74.6492 58.3299 77.5979 59.5374 80.2239C60.6112 82.5589 62.3795 84.5229 64.4395 86.0379C69.3546 89.6524 75.5493 90.3945 81.4864 90.4684C88.1544 90.5513 94.8227 90.3264 101.493 90.4358C115.087 90.6588 128.652 91.4857 142.191 92.9166C145.583 93.2754 148.971 93.6721 152.355 94.1065C155.398 94.4974 158.452 94.8857 161.444 95.5798C166.765 96.814 171.942 99.1872 175.249 103.696C176.717 105.65 177.626 107.966 177.88 110.396C178.111 112.932 177.49 115.473 176.343 117.729C173.803 122.722 169.047 125.899 163.995 127.985C161.29 129.103 158.483 129.95 155.682 130.79C155.274 130.913 155.1 130.276 155.507 130.154L155.507 130.154Z" fill="#F2F2F2"/>
<path d="M27.7224 20.5767C30.6411 20.5767 33.0072 18.212 33.0072 15.295C33.0072 12.3779 30.6411 10.0132 27.7224 10.0132C24.8036 10.0132 22.4375 12.3779 22.4375 15.295C22.4375 18.212 24.8036 20.5767 27.7224 20.5767Z" fill="#F2F2F2"/>
<path d="M64.3864 30.5899C67.3052 30.5899 69.6713 28.2252 69.6713 25.3082C69.6713 22.3912 67.3052 20.0265 64.3864 20.0265C61.4677 20.0265 59.1016 22.3912 59.1016 25.3082C59.1016 28.2252 61.4677 30.5899 64.3864 30.5899Z" fill="#F2F2F2"/>
<path d="M95.4353 10.5634C98.354 10.5634 100.72 8.19872 100.72 5.28171C100.72 2.3647 98.354 0 95.4353 0C92.5165 0 90.1504 2.3647 90.1504 5.28171C90.1504 8.19872 92.5165 10.5634 95.4353 10.5634Z" fill="#F2F2F2"/>
<path d="M114.812 33.0107C117.731 33.0107 120.097 30.646 120.097 27.729C120.097 24.812 117.731 22.4473 114.812 22.4473C111.893 22.4473 109.527 24.812 109.527 27.729C109.527 30.646 111.893 33.0107 114.812 33.0107Z" fill="#F2F2F2"/>
<path d="M88.6091 58.9791C91.5279 58.9791 93.894 56.6144 93.894 53.6974C93.894 50.7804 91.5279 48.4157 88.6091 48.4157C85.6903 48.4157 83.3242 50.7804 83.3242 53.6974C83.3242 56.6144 85.6903 58.9791 88.6091 58.9791Z" fill="#F2F2F2"/>
<path d="M55.3571 71.5232C58.2759 71.5232 60.642 69.1585 60.642 66.2415C60.642 63.3245 58.2759 60.9598 55.3571 60.9598C52.4384 60.9598 50.0723 63.3245 50.0723 66.2415C50.0723 69.1585 52.4384 71.5232 55.3571 71.5232Z" fill="#F2F2F2"/>
<path d="M90.5896 91.1095C93.5083 91.1095 95.8744 88.7448 95.8744 85.8278C95.8744 82.9108 93.5083 80.5461 90.5896 80.5461C87.6708 80.5461 85.3047 82.9108 85.3047 85.8278C85.3047 88.7448 87.6708 91.1095 90.5896 91.1095Z" fill="#F2F2F2"/>
<path d="M128.465 102.113C131.383 102.113 133.749 99.7484 133.749 96.8314C133.749 93.9144 131.383 91.5497 128.465 91.5497C125.546 91.5497 123.18 93.9144 123.18 96.8314C123.18 99.7484 125.546 102.113 128.465 102.113Z" fill="#F2F2F2"/>
<path d="M93.9094 14.9656C78.0786 15.0774 65.1165 27.9344 64.8916 43.7545C64.8895 43.9006 64.8886 44.9276 64.8887 46.2709C64.8888 48.2404 65.6717 50.1292 67.0651 51.5219C68.4586 52.9146 70.3485 53.6972 72.3192 53.6974H72.3192C73.2961 53.6972 74.2634 53.5046 75.1658 53.1306C76.0682 52.7567 76.888 52.2087 77.5784 51.5179C78.2688 50.8272 78.8163 50.0073 79.1895 49.105C79.5627 48.2027 79.7543 47.2358 79.7535 46.2595C79.7527 45.3457 79.7523 44.7133 79.7523 44.6745C79.7518 42.2295 80.3881 39.8265 81.5987 37.7018C82.8093 35.5772 84.5525 33.8041 86.6568 32.557C88.761 31.3098 91.1539 30.6316 93.6 30.589C96.046 30.5465 98.4611 31.141 100.607 32.3141C102.754 33.4873 104.558 35.1987 105.842 37.2799C107.126 39.3611 107.845 41.7405 107.93 44.184C108.015 46.6276 107.461 49.051 106.325 51.216C105.188 53.381 103.507 55.213 101.447 56.5318L101.449 56.5349C101.449 56.5349 90.8733 63.3394 87.649 72.6739L87.6517 72.6746C87.0848 74.5869 86.7975 76.571 86.7988 78.5655C86.7988 79.3853 86.847 86.5587 86.9403 92.381C86.9729 94.3899 87.7944 96.3055 89.2276 97.7145C90.6608 99.1235 92.5908 99.9128 94.6012 99.9124H94.6012C95.6113 99.9123 96.6115 99.7127 97.5442 99.3249C98.4768 98.937 99.3236 98.3688 100.036 97.6527C100.748 96.9366 101.311 96.0869 101.693 95.1524C102.076 94.2179 102.269 93.2171 102.263 92.2075C102.231 86.8754 102.213 80.6666 102.213 80.216C102.213 74.4843 107.746 68.7734 112.29 65.0492C117.524 60.7607 121.29 54.9165 122.802 48.324C123.137 46.9668 123.321 45.5769 123.352 44.1793C123.352 40.3251 122.589 36.5089 121.107 32.9507C119.625 29.3925 117.453 26.1626 114.716 23.4471C111.979 20.7316 108.732 18.5841 105.161 17.1285C101.59 15.6728 97.7658 14.9378 93.9094 14.9656Z" fill="#00B9DA"/>
<g filter="url(#filter0_d)">
<path d="M177.749 131H0.25019C0.183769 131 0.120136 130.947 0.0732368 130.853C0.0263379 130.759 0 130.632 0 130.5C0 130.368 0.0263379 130.241 0.0732368 130.147C0.120136 130.053 0.183769 130 0.25019 130H177.749C177.816 130 177.879 130.053 177.926 130.146C177.974 130.24 178 130.367 178 130.5C178 130.633 177.974 130.76 177.926 130.854C177.879 130.947 177.816 131 177.749 131Z" fill="#3F3D56"/>
</g>
<path d="M74.4178 50.1847C72.447 50.1845 70.5571 49.4019 69.1637 48.0092C67.7702 46.6165 66.9873 44.7277 66.9872 42.7582C66.9871 41.4149 66.9881 40.3879 66.9901 40.2418C67.0527 35.6409 68.2121 31.1212 70.3722 27.0576C66.8233 31.913 64.8719 37.7507 64.7881 43.763C64.786 43.909 64.7851 44.936 64.7852 46.2793C64.7853 48.2488 65.5682 50.1377 66.9616 51.5304C68.3551 52.9231 70.245 53.7056 72.2157 53.7058C73.8351 53.7052 75.41 53.1764 76.7012 52.1996C77.9924 51.2229 78.9294 49.8516 79.3696 48.2942C78.009 49.5135 76.2453 50.1869 74.4178 50.1847Z" fill="#3F3D56"/>
<path d="M94.4128 30.614C96.6911 30.7227 98.9089 31.3824 100.876 32.5365C102.843 33.6905 104.5 35.3045 105.705 37.2396C106.911 39.1748 107.628 41.3735 107.796 43.6468C107.964 45.9201 107.577 48.2002 106.669 50.2912C107.983 48.7495 108.948 46.9429 109.5 44.9945C110.051 43.0462 110.176 41.0019 109.865 39.001C109.554 37.0001 108.816 35.0897 107.699 33.4C106.583 31.7102 105.115 30.281 103.396 29.2096C101.677 28.1383 99.7465 27.45 97.737 27.1917C95.7275 26.9334 93.6859 27.1112 91.7514 27.7129C89.8169 28.3147 88.035 29.3262 86.5271 30.6786C85.0192 32.031 83.8208 33.6925 83.0137 35.5497C84.4087 33.9096 86.162 32.6116 88.1384 31.7558C90.1148 30.9001 92.2615 30.5094 94.4128 30.614Z" fill="#3F3D56"/>
<path d="M96.6977 96.3997C94.6874 96.4001 92.7574 95.6107 91.3242 94.2018C89.891 92.7928 89.0695 90.8772 89.0369 88.8683C88.9437 83.046 88.8954 75.8726 88.8954 75.0528C88.8941 73.0583 89.1814 71.0742 89.7484 69.1619L89.7457 69.1612C90.0805 68.2014 90.4848 67.2672 90.9555 66.3661C89.5106 68.2905 88.3607 70.4193 87.5436 72.6824L87.5463 72.6831C86.9794 74.5953 86.6921 76.5795 86.6934 78.5739C86.6934 79.3938 86.7416 86.5672 86.8349 92.3895C86.8675 94.3984 87.689 96.3139 89.1222 97.7229C90.5554 99.1319 92.4853 99.9213 94.4957 99.9208C96.1533 99.9205 97.7661 99.3831 99.0922 98.3892C100.418 97.3954 101.386 95.9986 101.851 94.4084C100.442 95.692 98.604 96.4024 96.6977 96.3997Z" fill="#3F3D56"/>
<path d="M27.8639 128.21L30.5634 128.21L31.8478 117.803L27.8633 117.804L27.8639 128.21Z" fill="#FFB8B8"/>
<path d="M35.7715 130.715L27.2869 130.716L27.2868 127.439L32.4932 127.439C33.3626 127.439 34.1964 127.784 34.8112 128.399C35.426 129.013 35.7714 129.846 35.7715 130.715L35.7715 130.715Z" fill="#2F2E41"/>
<path d="M18.1764 128.21L20.8759 128.21L22.1604 117.803L18.1758 117.804L18.1764 128.21Z" fill="#FFB8B8"/>
<path d="M26.082 130.715L17.5975 130.716L17.5973 127.439L22.8038 127.439C23.6732 127.439 24.507 127.784 25.1218 128.399C25.7366 129.013 26.082 129.846 26.082 130.715L26.082 130.715Z" fill="#2F2E41"/>
<path d="M20.5358 125.01L17.8989 124.871C17.7629 124.864 17.6297 124.83 17.507 124.771C17.3843 124.712 17.2745 124.629 17.184 124.528C17.0935 124.426 17.0241 124.307 16.9798 124.179C16.9355 124.05 16.9172 123.914 16.9259 123.778L20.0776 88.9041L34.5914 92.8182L35.9898 92.4369L31.6169 123.31C31.5797 123.542 31.4643 123.754 31.2898 123.912C31.1153 124.07 30.8922 124.164 30.6572 124.178L27.8147 124.31C27.6725 124.318 27.5303 124.296 27.397 124.246C27.2636 124.197 27.1421 124.12 27.04 124.02C26.938 123.921 26.8576 123.802 26.804 123.67C26.7505 123.538 26.7248 123.397 26.7287 123.255L27.2438 104.725C27.2462 104.64 27.2164 104.556 27.1603 104.491C27.1042 104.427 27.0258 104.385 26.9406 104.375C26.8554 104.365 26.7696 104.388 26.7 104.438C26.6305 104.488 26.5823 104.562 26.5649 104.646L21.5978 124.191C21.5509 124.423 21.425 124.632 21.2415 124.781C21.058 124.931 20.8283 125.012 20.5916 125.011C20.5731 125.011 20.5546 125.011 20.5358 125.01Z" fill="#2F2E41"/>
<path d="M28.3498 60.3699C31.3368 60.3699 33.7582 57.9499 33.7582 54.9647C33.7582 51.9796 31.3368 49.5596 28.3498 49.5596C25.3628 49.5596 22.9414 51.9796 22.9414 54.9647C22.9414 57.9499 25.3628 60.3699 28.3498 60.3699Z" fill="#FFB8B8"/>
<path d="M19.3454 70.8448L19.9401 83.6678L20.1551 88.333C20.1636 88.5361 20.2326 88.732 20.3532 88.8957C20.4738 89.0594 20.6405 89.1834 20.832 89.2519L34.7788 94.3011C34.8915 94.3429 35.0108 94.3639 35.131 94.3628C35.2684 94.3635 35.4045 94.3365 35.5312 94.2834C35.6579 94.2303 35.7726 94.1523 35.8685 94.0539C35.9643 93.9556 36.0394 93.8389 36.0891 93.711C36.1388 93.583 36.1623 93.4463 36.158 93.3091L35.5862 70.2528C35.5487 68.3612 34.8519 66.5419 33.6161 65.1086C32.3803 63.6754 30.6828 62.7179 28.8164 62.4013C28.6815 62.3808 28.5442 62.3602 28.407 62.3419C27.2496 62.1983 26.0748 62.3099 24.9653 62.6689C23.8557 63.0279 22.8384 63.6255 21.9847 64.4196C21.1009 65.2321 20.4063 66.2287 19.9502 67.3389C19.4942 68.4492 19.2877 69.646 19.3454 70.8448L19.3454 70.8448Z" fill="#CCCCCC"/>
<path d="M41.441 91.7424C41.1112 91.6401 40.8098 91.4622 40.561 91.2228C40.3121 90.9834 40.1227 90.6892 40.0079 90.3637C39.893 90.0381 39.8559 89.6903 39.8995 89.3479C39.9431 89.0054 40.0661 88.6779 40.2588 88.3915L35.5293 82.1063L39.6106 81.8538L43.4761 87.8611C43.89 88.1809 44.1779 88.636 44.2895 89.1468C44.4011 89.6575 44.3292 90.1912 44.0864 90.6542C43.8436 91.1173 43.4454 91.4801 42.9617 91.6791C42.478 91.8781 41.9396 91.9005 41.441 91.7424H41.441Z" fill="#FFB8B8"/>
<path d="M38.1145 87.2541C37.9892 87.2033 37.8752 87.1281 37.7792 87.033C37.6831 86.9378 37.6069 86.8246 37.5549 86.6998L30.4295 69.7336C30.2897 69.4014 30.2168 69.0449 30.2149 68.6846C30.213 68.3242 30.2822 67.967 30.4185 67.6334C30.5548 67.2997 30.7555 66.9962 31.0092 66.7401C31.263 66.4841 31.5647 66.2805 31.8972 66.141C32.2297 66.0015 32.5864 65.9289 32.947 65.9273C33.3076 65.9257 33.6649 65.9951 33.9987 66.1316C34.3324 66.268 34.636 66.4689 34.892 66.7227C35.148 66.9765 35.3515 67.2782 35.4908 67.6106L42.6161 84.577C42.7214 84.8286 42.7226 85.1116 42.6194 85.3641C42.5162 85.6165 42.317 85.8177 42.0655 85.9235L38.9022 87.2503C38.7777 87.303 38.6439 87.3304 38.5087 87.3311C38.3735 87.3317 38.2395 87.3056 38.1145 87.2541L38.1145 87.2541Z" fill="#CCCCCC"/>
<path d="M26.6098 86.6557L33.4535 73.5595C33.5855 73.3076 33.812 73.1184 34.0835 73.0332C34.3549 72.9481 34.649 72.9741 34.9013 73.1054L44.835 78.2903C45.087 78.4222 45.2764 78.6486 45.3616 78.9199C45.4468 79.1911 45.4208 79.4851 45.2894 79.7372L38.4456 92.8334C38.3137 93.0853 38.0871 93.2746 37.8157 93.3597C37.5443 93.4448 37.2501 93.4189 36.9978 93.2875L27.0641 88.1026C26.8121 87.9707 26.6228 87.7443 26.5376 87.4731C26.4524 87.2018 26.4783 86.9078 26.6098 86.6557Z" fill="#3F3D56"/>
<path d="M31.2002 80.6723C31.0785 80.3493 30.883 80.0591 30.6292 79.825C30.3754 79.5909 30.0703 79.4193 29.7384 79.324C29.4064 79.2286 29.0568 79.2121 28.7173 79.2758C28.3779 79.3395 28.058 79.4816 27.7833 79.6908L21.226 75.3434L21.2148 79.4301L27.4435 82.9318C27.7873 83.3258 28.2589 83.5862 28.7757 83.6674C29.2924 83.7486 29.8213 83.6453 30.2695 83.3758C30.7176 83.1062 31.0566 82.6875 31.2267 82.1932C31.3969 81.6989 31.3875 81.1604 31.2002 80.6723Z" fill="#FFB8B8"/>
<path d="M22.91 81.5913L17.551 77.3488C16.9712 77.1543 16.4474 76.822 16.0244 76.3806C15.6014 75.9392 15.2919 75.4018 15.1225 74.8145C14.9531 74.2273 14.9288 73.6077 15.0517 73.009C15.1747 72.4103 15.4411 71.8503 15.8282 71.3772L20.6941 65.004C21.0322 64.5911 21.5078 64.3135 22.0338 64.2221C22.5598 64.1307 23.1012 64.2316 23.559 64.5062C24.0167 64.7809 24.3603 65.211 24.5268 65.718C24.6934 66.225 24.6718 66.7749 24.4661 67.2673L20.6161 73.5613L26.274 76.2433C26.4056 76.3057 26.5224 76.3952 26.6168 76.506C26.7111 76.6169 26.7809 76.7465 26.8214 76.8862C26.862 77.026 26.8724 77.1728 26.852 77.3169C26.8315 77.461 26.7808 77.5991 26.703 77.7221L24.4191 81.3344C24.3419 81.4563 24.2399 81.5606 24.1198 81.6407C23.9997 81.7207 23.8641 81.7746 23.7218 81.7989C23.7161 81.7999 23.7104 81.8008 23.7047 81.8017C23.5649 81.8228 23.4223 81.815 23.2856 81.7788C23.1489 81.7426 23.021 81.6788 22.91 81.5913Z" fill="#CCCCCC"/>
<path d="M24.2625 58.5842C24.2393 58.5163 24.2319 58.4441 24.241 58.3729C24.25 58.3018 24.2753 58.2337 24.3147 58.1738C24.3542 58.1139 24.4068 58.0639 24.4686 58.0275C24.5304 57.991 24.5998 57.9693 24.6713 57.9638C24.8178 57.9717 24.9611 58.0093 25.0927 58.0741C25.2242 58.139 25.3413 58.2298 25.4367 58.3412C25.6325 58.5667 25.8603 58.7623 26.113 58.9215C26.3746 59.0533 26.7295 59.0345 26.8786 58.7833C27.0187 58.5473 26.9227 58.2313 26.8379 57.9572C26.6222 57.2599 26.5014 56.5367 26.479 55.8071C26.4546 54.9928 26.5695 54.143 27.0207 53.5078C27.6028 52.6881 28.6439 52.3769 29.629 52.3995C30.6142 52.422 31.5835 52.726 32.5593 52.9181C32.8962 52.9844 33.2922 53.0183 33.5175 52.7574C33.7571 52.4799 33.6691 52.0309 33.5672 51.6562C33.3028 50.6841 33.0222 49.679 32.4078 48.8938C31.7435 48.078 30.7945 47.544 29.752 47.3995C28.7511 47.2756 27.7351 47.3909 26.7875 47.7359C25.2437 48.2222 23.8851 49.168 22.8937 50.4468C21.8717 51.8068 21.4301 53.5159 21.6654 55.2004C21.8953 56.6675 22.6732 57.993 23.8423 58.9096L24.2625 58.5842Z" fill="#2F2E41"/>
<path d="M92.7626 128.253C91.3236 127.627 90.0501 126.675 89.0423 125.472C88.0346 124.27 87.3203 122.85 86.9557 121.324C86.5912 119.798 86.5865 118.209 86.9419 116.681C87.2973 115.153 88.0031 113.729 89.0036 112.521C87.8436 113.367 86.8769 114.45 86.1679 115.699C85.4588 116.947 85.0235 118.332 84.8909 119.761C84.7583 121.191 84.9314 122.632 85.3987 123.989C85.866 125.347 86.6169 126.589 87.6014 127.635C88.586 128.68 89.7817 129.504 91.1093 130.052C92.4368 130.6 93.8658 130.859 95.3014 130.813C96.7371 130.767 98.1465 130.417 99.4361 129.785C100.726 129.153 101.866 128.254 102.782 127.147C101.354 128.19 99.6774 128.841 97.9196 129.035C96.1617 129.229 94.3837 128.96 92.7626 128.253Z" fill="#3F3D56"/>
</g>
<defs>
<filter id="filter0_d" x="-10" y="124" width="198" height="21" filterUnits="userSpaceOnUse" color-interpolation-filters="sRGB">
<feFlood flood-opacity="0" result="BackgroundImageFix"/>
<feColorMatrix in="SourceAlpha" type="matrix" values="0 0 0 0 0 0 0 0 0 0 0 0 0 0 0 0 0 0 127 0" result="hardAlpha"/>
<feOffset dy="4"/>
<feGaussianBlur stdDeviation="5"/>
<feColorMatrix type="matrix" values="0 0 0 0 0 0 0 0 0 0 0 0 0 0 0 0 0 0 0.25 0"/>
<feBlend mode="normal" in2="BackgroundImageFix" result="effect1_dropShadow"/>
<feBlend mode="normal" in="SourceGraphic" in2="effect1_dropShadow" result="shape"/>
</filter>
<clipPath id="clip0">
<rect width="186" height="131" fill="white"/>
</clipPath>
</defs>
</svg>
