<svg width="375" height="277" viewBox="0 0 375 277" fill="none" xmlns="http://www.w3.org/2000/svg">
<g clip-path="url(#clip0)">
<path opacity="0.1" d="M4.125 146.927C10.0576 172.282 22.6165 194.199 42.4647 204.823C83.7125 226.901 176.737 215.515 246.165 202.431C281.245 195.846 313.088 177.648 336.568 150.767L4.125 146.927Z" fill="#1C2AB1"/>
<path d="M273.156 222.018C273.156 222.018 250.037 235.96 292.645 257.416C292.645 257.416 302.03 239.989 291.654 225.784C289.64 223.014 286.679 221.079 283.334 220.346C279.988 219.613 276.489 220.133 273.501 221.806L273.156 222.018Z" fill="#1C2AB1"/>
<path d="M273.422 221.724C273.422 221.724 293.202 236.856 292.645 257.417" stroke="#535461" stroke-miterlimit="10"/>
<path d="M6.25758 226.119C6.25758 226.119 -16.861 240.061 25.7469 261.517C25.7469 261.517 35.1311 244.089 24.7559 229.884C22.7415 227.114 19.7809 225.18 16.4352 224.447C13.0894 223.713 9.59095 224.233 6.60274 225.907L6.25758 226.119Z" fill="#1C2AB1"/>
<path d="M6.52344 225.825C6.52344 225.825 26.3033 240.956 25.7462 261.517" stroke="#535461" stroke-miterlimit="10"/>
<path d="M293.778 259.388C293.778 259.388 286.537 234.785 295.145 216.704C298.801 209.137 299.903 200.588 298.286 192.34C297.477 188.431 296.311 184.603 294.804 180.907" stroke="#535461" stroke-width="2" stroke-miterlimit="10"/>
<path d="M300.166 169.473C300.166 172.487 294.698 181.224 294.698 181.224C294.698 181.224 289.23 172.487 289.23 169.473C289.322 168.088 289.937 166.791 290.95 165.843C291.963 164.894 293.299 164.367 294.686 164.367C296.074 164.367 297.41 164.894 298.423 165.843C299.436 166.791 300.05 168.088 300.142 169.473H300.166Z" fill="#1C2AB1"/>
<path d="M309.185 186.162C307.548 188.691 298.219 193.062 298.219 193.062C298.219 193.062 298.39 182.762 300.027 180.234C300.856 179.121 302.078 178.365 303.444 178.119C304.81 177.873 306.219 178.157 307.384 178.911C308.549 179.666 309.383 180.836 309.718 182.183C310.052 183.53 309.862 184.954 309.185 186.166V186.162Z" fill="#1C2AB1"/>
<path d="M308.792 214.685C306.103 216.052 295.844 215.105 295.844 215.105C295.844 215.105 301.189 206.299 303.881 204.943C305.159 204.4 306.595 204.364 307.899 204.841C309.202 205.319 310.276 206.274 310.901 207.513C311.526 208.752 311.656 210.183 311.265 211.515C310.874 212.847 309.991 213.98 308.796 214.685H308.792Z" fill="#1C2AB1"/>
<path d="M303.632 236.199C301.209 237.99 290.939 238.8 290.939 238.8C290.939 238.8 294.719 229.232 297.142 227.424C298.31 226.669 299.721 226.387 301.089 226.635C302.458 226.884 303.68 227.644 304.507 228.762C305.334 229.88 305.705 231.27 305.543 232.651C305.381 234.033 304.699 235.3 303.635 236.196L303.632 236.199Z" fill="#1C2AB1"/>
<path d="M286.759 193.646C288.919 195.744 298.99 197.921 298.99 197.921C298.99 197.921 296.522 187.919 294.362 185.82C293.305 184.922 291.946 184.459 290.561 184.525C289.175 184.591 287.866 185.182 286.9 186.176C285.933 187.171 285.381 188.496 285.354 189.883C285.328 191.27 285.83 192.615 286.759 193.646Z" fill="#1C2AB1"/>
<path d="M281.049 218.881C283.738 220.248 293.997 219.302 293.997 219.302C293.997 219.302 288.652 210.496 285.96 209.139C285.315 208.759 284.599 208.515 283.857 208.423C283.114 208.331 282.361 208.392 281.643 208.603C280.925 208.813 280.258 209.169 279.683 209.648C279.108 210.127 278.638 210.719 278.301 211.387C277.964 212.055 277.767 212.785 277.724 213.532C277.681 214.278 277.791 215.026 278.048 215.729C278.306 216.431 278.704 217.074 279.22 217.616C279.735 218.158 280.357 218.589 281.045 218.881H281.049Z" fill="#1C2AB1"/>
<path d="M278.862 244.171C281.285 245.962 291.555 246.772 291.555 246.772C291.555 246.772 287.775 237.204 285.352 235.396C284.781 234.915 284.117 234.556 283.401 234.341C282.686 234.126 281.934 234.06 281.192 234.147C280.45 234.234 279.734 234.472 279.088 234.847C278.441 235.221 277.879 235.724 277.434 236.325C276.99 236.925 276.673 237.61 276.504 238.338C276.334 239.065 276.316 239.82 276.449 240.555C276.583 241.29 276.866 241.989 277.28 242.611C277.694 243.232 278.232 243.762 278.859 244.168L278.862 244.171Z" fill="#1C2AB1"/>
<path opacity="0.25" d="M300.166 169.473C300.166 172.487 294.698 181.224 294.698 181.224C294.698 181.224 289.23 172.487 289.23 169.473C289.322 168.088 289.937 166.791 290.95 165.843C291.963 164.894 293.299 164.367 294.686 164.367C296.074 164.367 297.41 164.894 298.423 165.843C299.436 166.791 300.05 168.088 300.142 169.473H300.166Z" fill="black"/>
<path opacity="0.25" d="M309.185 186.162C307.548 188.691 298.219 193.062 298.219 193.062C298.219 193.062 298.39 182.762 300.027 180.234C300.856 179.121 302.078 178.365 303.444 178.119C304.81 177.873 306.219 178.157 307.384 178.911C308.549 179.666 309.383 180.836 309.718 182.183C310.052 183.53 309.862 184.954 309.185 186.166V186.162Z" fill="black"/>
<path opacity="0.25" d="M308.792 214.685C306.103 216.052 295.844 215.105 295.844 215.105C295.844 215.105 301.189 206.299 303.881 204.943C305.159 204.4 306.595 204.364 307.899 204.841C309.202 205.319 310.276 206.274 310.901 207.513C311.526 208.752 311.656 210.183 311.265 211.515C310.874 212.847 309.991 213.98 308.796 214.685H308.792Z" fill="black"/>
<path opacity="0.25" d="M303.632 236.199C301.209 237.99 290.939 238.8 290.939 238.8C290.939 238.8 294.719 229.232 297.142 227.424C298.31 226.669 299.721 226.387 301.089 226.635C302.458 226.884 303.68 227.644 304.507 228.762C305.334 229.88 305.705 231.27 305.543 232.651C305.381 234.033 304.699 235.3 303.635 236.196L303.632 236.199Z" fill="black"/>
<path opacity="0.25" d="M286.759 193.646C288.919 195.744 298.99 197.921 298.99 197.921C298.99 197.921 296.522 187.919 294.362 185.82C293.305 184.922 291.946 184.459 290.561 184.525C289.175 184.591 287.866 185.182 286.9 186.176C285.933 187.171 285.381 188.496 285.354 189.883C285.328 191.27 285.83 192.615 286.759 193.646Z" fill="black"/>
<path opacity="0.25" d="M281.049 218.881C283.738 220.248 293.997 219.302 293.997 219.302C293.997 219.302 288.652 210.496 285.96 209.139C285.315 208.759 284.599 208.515 283.857 208.423C283.114 208.331 282.361 208.392 281.643 208.603C280.925 208.813 280.258 209.169 279.683 209.648C279.108 210.127 278.638 210.719 278.301 211.387C277.964 212.055 277.767 212.785 277.724 213.532C277.681 214.278 277.791 215.026 278.048 215.729C278.306 216.431 278.704 217.074 279.22 217.616C279.735 218.158 280.357 218.589 281.045 218.881H281.049Z" fill="black"/>
<path opacity="0.25" d="M278.862 244.171C281.285 245.962 291.555 246.772 291.555 246.772C291.555 246.772 287.775 237.204 285.352 235.396C284.781 234.915 284.117 234.556 283.401 234.341C282.686 234.126 281.934 234.06 281.192 234.147C280.45 234.234 279.734 234.472 279.088 234.847C278.441 235.221 277.879 235.724 277.434 236.325C276.99 236.925 276.673 237.61 276.504 238.338C276.334 239.065 276.316 239.82 276.449 240.555C276.583 241.29 276.866 241.989 277.28 242.611C277.694 243.232 278.232 243.762 278.859 244.168L278.862 244.171Z" fill="black"/>
<path d="M310.524 259.856C310.524 259.856 303.283 235.253 311.891 217.173C315.547 209.605 316.649 201.056 315.032 192.809C314.234 188.9 313.08 185.073 311.584 181.375" stroke="#535461" stroke-width="2" stroke-miterlimit="10"/>
<path d="M316.926 169.938C316.926 172.952 311.458 181.689 311.458 181.689C311.458 181.689 305.99 172.952 305.99 169.938C306.082 168.553 306.697 167.255 307.71 166.307C308.723 165.359 310.059 164.832 311.446 164.832C312.834 164.832 314.169 165.359 315.182 166.307C316.196 167.255 316.81 168.553 316.902 169.938H316.926Z" fill="#1C2AB1"/>
<path d="M325.943 186.63C324.307 189.159 314.967 193.516 314.967 193.516C314.967 193.516 315.138 183.217 316.775 180.688C317.604 179.575 318.826 178.819 320.192 178.573C321.558 178.328 322.967 178.611 324.132 179.366C325.297 180.12 326.131 181.29 326.466 182.637C326.8 183.984 326.61 185.408 325.933 186.62L325.943 186.63Z" fill="#1C2AB1"/>
<path d="M325.562 215.153C322.872 216.52 312.613 215.574 312.613 215.574C312.613 215.574 317.958 206.768 320.651 205.411C321.928 204.872 323.362 204.839 324.663 205.317C325.964 205.795 327.035 206.75 327.659 207.988C328.283 209.225 328.413 210.654 328.024 211.984C327.635 213.314 326.755 214.447 325.562 215.153Z" fill="#1C2AB1"/>
<path d="M320.389 236.667C317.966 238.458 307.697 239.268 307.697 239.268C307.697 239.268 311.477 229.7 313.9 227.892C315.067 227.137 316.479 226.855 317.847 227.103C319.215 227.352 320.437 228.112 321.265 229.23C322.092 230.348 322.462 231.739 322.3 233.12C322.138 234.501 321.456 235.768 320.393 236.664L320.389 236.667Z" fill="#1C2AB1"/>
<path d="M303.519 194.114C305.678 196.212 315.749 198.389 315.749 198.389C315.749 198.389 313.282 188.387 311.122 186.289C310.065 185.39 308.706 184.927 307.321 184.993C305.935 185.059 304.626 185.65 303.66 186.645C302.693 187.639 302.14 188.964 302.114 190.351C302.088 191.738 302.59 193.083 303.519 194.114Z" fill="#1C2AB1"/>
<path d="M297.804 219.35C300.494 220.716 310.753 219.77 310.753 219.77C310.753 219.77 305.398 210.964 302.718 209.607C301.441 209.065 300.004 209.028 298.701 209.506C297.397 209.983 296.324 210.938 295.699 212.178C295.074 213.417 294.944 214.848 295.335 216.179C295.725 217.511 296.608 218.645 297.804 219.35Z" fill="#1C2AB1"/>
<path d="M295.618 244.64C298.041 246.43 308.311 247.24 308.311 247.24C308.311 247.24 304.531 237.672 302.108 235.865C301.537 235.383 300.873 235.024 300.157 234.809C299.442 234.595 298.69 234.529 297.948 234.616C297.206 234.703 296.49 234.941 295.844 235.315C295.197 235.69 294.635 236.193 294.19 236.793C293.746 237.394 293.429 238.079 293.26 238.806C293.09 239.534 293.072 240.288 293.205 241.023C293.339 241.758 293.621 242.458 294.036 243.079C294.45 243.701 294.988 244.231 295.615 244.636L295.618 244.64Z" fill="#1C2AB1"/>
<path opacity="0.1" d="M368.199 27.5832H330.105C329.232 27.5832 328.394 27.2363 327.777 26.6189C327.159 26.0014 326.813 25.164 326.813 24.2908C326.813 23.4176 327.159 22.5801 327.777 21.9627C328.394 21.3452 329.232 20.9984 330.105 20.9984H336.691C335.817 20.9984 334.98 20.6515 334.362 20.034C333.745 19.4166 333.398 18.5791 333.398 17.7059C333.398 16.8327 333.745 15.9953 334.362 15.3779C334.98 14.7604 335.817 14.4135 336.691 14.4135H331.985C331.112 14.4135 330.274 14.0666 329.657 13.4492C329.039 12.8318 328.692 11.9943 328.692 11.1211C328.692 10.2479 329.039 9.41047 329.657 8.79303C330.274 8.17558 331.112 7.8287 331.985 7.8287H351.874C347.462 5.77842 342.305 4.3193 336.366 3.55386C282.152 -3.41026 262.796 1.19604 255.968 5.94586C247.545 11.7892 238.147 16.0879 228.103 18.1587C194.647 25.0511 132.092 33.3513 75.4075 15.4831C47.2277 6.59853 26.2825 21.6066 13.7305 46.6747H374.815C374.343 39.3894 372.932 32.6645 370.342 26.7733C369.748 27.2925 368.987 27.58 368.199 27.5832Z" fill="#1C2AB1"/>
<path opacity="0.1" d="M0.908925 94.0054C-0.553541 108.752 -0.0559701 123.628 2.38865 138.244L336.838 150.46C346.148 139.751 353.965 127.831 360.076 115.024L0.908925 94.0054ZM133.162 125.563H126.59C127.463 125.563 128.301 125.91 128.918 126.527C129.536 127.144 129.883 127.982 129.883 128.855C129.883 129.728 129.536 130.566 128.918 131.183C128.301 131.801 127.463 132.147 126.59 132.147H88.4965C87.6233 132.147 86.7858 131.801 86.1683 131.183C85.5508 130.566 85.2039 129.728 85.2039 128.855C85.2039 127.982 85.5508 127.144 86.1683 126.527C86.7858 125.91 87.6233 125.563 88.4965 125.563H95.0818C94.2086 125.563 93.3711 125.216 92.7536 124.598C92.1361 123.981 91.7892 123.143 91.7892 122.27C91.7892 121.397 92.1361 120.56 92.7536 119.942C93.3711 119.325 94.2086 118.978 95.0818 118.978H90.3761C89.5028 118.978 88.6653 118.631 88.0478 118.013C87.4303 117.396 87.0834 116.559 87.0834 115.685C87.0834 114.812 87.4303 113.975 88.0478 113.357C88.6653 112.74 89.5028 112.393 90.3761 112.393H128.47C129.343 112.393 130.18 112.74 130.798 113.357C131.415 113.975 131.762 114.812 131.762 115.685C131.762 116.559 131.415 117.396 130.798 118.013C130.18 118.631 129.343 118.978 128.47 118.978H133.162C134.035 118.978 134.873 119.325 135.49 119.942C136.108 120.56 136.454 121.397 136.454 122.27C136.454 123.143 136.108 123.981 135.49 124.598C134.873 125.216 134.035 125.563 133.162 125.563Z" fill="#1C2AB1"/>
<path opacity="0.1" d="M374.829 46.9207L9.68454 55.8053C5.24194 67.2219 2.29957 80.1319 0.939453 93.51H368.431C370.833 85.6504 372.61 77.6133 373.745 69.4738C374.829 61.6144 375.27 53.9976 374.829 46.9207ZM75.066 76.0142H68.4943C69.3676 76.0142 70.2051 76.3611 70.8226 76.9785C71.4401 77.596 71.787 78.4334 71.787 79.3066C71.787 80.1798 71.4401 81.0173 70.8226 81.6347C70.2051 82.2522 69.3676 82.599 68.4943 82.599H30.4007C29.5275 82.599 28.69 82.2522 28.0725 81.6347C27.455 81.0173 27.1081 80.1798 27.1081 79.3066C27.1081 78.4334 27.455 77.596 28.0725 76.9785C28.69 76.3611 29.5275 76.0142 30.4007 76.0142H36.986C36.1128 76.0142 35.2753 75.6673 34.6578 75.0499C34.0403 74.4324 33.6934 73.595 33.6934 72.7218C33.6934 71.8486 34.0403 71.0112 34.6578 70.3937C35.2753 69.7763 36.1128 69.4294 36.986 69.4294H32.2803C31.407 69.4294 30.5695 69.0825 29.952 68.4651C29.3346 67.8476 28.9876 67.0102 28.9876 66.137C28.9876 65.2638 29.3346 64.4263 29.952 63.8089C30.5695 63.1915 31.407 62.8446 32.2803 62.8446H70.3739C71.2472 62.8446 72.0847 63.1915 72.7021 63.8089C73.3196 64.4263 73.6665 65.2638 73.6665 66.137C73.6665 67.0102 73.3196 67.8476 72.7021 68.4651C72.0847 69.0825 71.2472 69.4294 70.3739 69.4294H75.066C75.9392 69.4294 76.7767 69.7763 77.3942 70.3937C78.0117 71.0112 78.3586 71.8486 78.3586 72.7218C78.3586 73.595 78.0117 74.4324 77.3942 75.0499C76.7767 75.6673 75.9392 76.0142 75.066 76.0142Z" fill="#1C2AB1"/>
<path d="M188.069 277C288.665 277 370.215 271.951 370.215 265.723C370.215 259.495 288.665 254.447 188.069 254.447C87.4717 254.447 5.92188 259.495 5.92188 265.723C5.92188 271.951 87.4717 277 188.069 277Z" fill="#1C2AB1"/>
<path d="M247.112 91.9585C247.112 91.9585 225.989 72.081 222.937 69.1081C221.875 68.083 220.87 67.0578 220.012 66.1933C218.362 64.5436 216.249 63.4362 213.953 63.0188C206.038 61.5186 197.943 56.6526 197.943 56.6526C197.898 56.5945 197.854 56.5433 197.813 56.4818C197.127 55.5225 196.623 54.4453 196.326 53.3038C196.282 53.1364 196.237 52.9621 196.2 52.7844C196.327 52.6204 196.452 52.453 196.572 52.2821C196.711 52.2338 196.845 52.1732 196.972 52.101C197.973 51.5303 198.537 50.4744 198.917 49.4356C199.258 48.5164 199.532 47.5015 200.345 46.9035C200.636 46.7421 200.899 46.533 201.121 46.285C201.286 45.9592 201.349 45.5913 201.302 45.2291C201.302 42.8952 200.93 41.1047 201.473 38.8288C202.341 35.1862 203.137 30.6277 200.386 27.9248C198.966 26.5527 197.156 25.6518 195.205 25.3448C193.439 25.0646 190.824 27.4703 189.034 27.3951C184.471 27.2208 180.627 23.1066 176.29 24.4359C174.403 25.0086 172.757 26.1882 171.608 27.7915C169.469 30.8396 169.674 34.783 169.982 38.4188C169.977 38.6957 170.06 38.967 170.217 39.1945C170.378 39.3824 170.634 39.4815 170.792 39.6695C170.96 39.919 171.023 40.2244 170.969 40.5203C170.919 41.1087 170.776 41.6854 170.546 42.2289C170.487 42.3195 170.45 42.4228 170.439 42.5303C170.427 42.6379 170.442 42.7465 170.481 42.8474C170.566 42.9602 170.686 43.0418 170.822 43.0798C171.006 43.1417 171.195 43.1863 171.386 43.213C171.355 43.5137 171.328 43.8144 171.318 44.1186C171.318 44.2894 171.318 44.4603 171.318 44.6346C171.326 46.8552 171.887 49.0388 172.95 50.9884C174.013 52.938 175.545 54.5922 177.408 55.8018C177.445 56.0478 177.486 56.3007 177.524 56.5638C177.64 57.3736 177.746 58.2724 177.825 59.2497C177.825 59.4273 177.852 59.5914 177.866 59.7861L177.773 59.5982L163.079 66.8015C161.993 67.0526 160.979 67.5494 160.116 68.2538L159.825 68.3973V68.4828C159.704 68.583 159.581 68.6901 159.456 68.804L146.706 54.4042L116.975 80.2104L133.323 97.8121L151.695 96.2812C150.79 102.5 150.171 107.267 150.171 107.267C150.171 107.267 146.812 121.664 163.085 118.909C162.979 127.989 159.09 143.14 159.09 143.14C159.543 143.732 160.075 144.258 160.673 144.702L160.58 145.321L159.555 152.281C159.555 152.281 153.452 169.189 152.515 184.269C151.579 199.349 150.403 207.803 150.403 207.803L148.292 237.966L145.322 251.758C140.43 257.107 134.735 261.661 128.44 265.255C128.162 265.403 127.916 265.604 127.717 265.848C127.518 266.091 127.37 266.372 127.281 266.674C127.192 266.976 127.164 267.292 127.199 267.605C127.233 267.917 127.33 268.22 127.483 268.495C128.686 270.565 132.387 272.715 143.596 269.27C161.435 263.803 159.791 264.015 159.791 264.015C159.791 264.015 160.054 256.695 159.296 252.356C159.272 252.226 159.248 252.099 159.224 251.973C163.495 247.158 161.431 239.329 161.431 239.329C161.431 239.329 169.879 222.879 165.874 212.139C165.874 212.139 164.934 202.998 169.865 198.659C169.934 198.597 170.006 198.529 170.077 198.457L170.142 198.389L170.303 198.218L170.375 198.139L170.563 197.921L170.604 197.873C170.679 197.78 170.757 197.681 170.836 197.579L170.898 197.497L171.096 197.275L171.171 197.165L171.355 196.895L171.417 196.807L171.666 196.427L171.714 196.352L171.923 196.01L172.001 195.88L172.193 195.559L172.264 195.436L172.528 194.978L172.791 194.507L172.866 194.367L173.068 193.994L173.146 193.844L173.389 193.383L173.42 193.324L173.7 192.778L173.768 192.644L173.987 192.21L174.069 192.046L174.298 191.582L174.356 191.466L174.643 190.868L174.691 190.768L174.93 190.259L175.012 190.085L175.234 189.61L175.306 189.456L175.6 188.817L175.884 188.185L175.962 188.011L176.184 187.508L176.259 187.334L176.564 186.682V186.654L176.861 185.971L176.926 185.824L177.158 185.284L177.237 185.103L177.479 184.525L177.527 184.416L177.821 183.733L177.869 183.62L178.112 183.039L178.19 182.851L178.412 182.308L178.477 182.15L178.761 181.467L178.785 181.409L179.041 180.777L179.12 180.582L179.328 180.063L179.403 179.875L179.649 179.253L179.673 179.188L179.94 178.504L180.019 178.306L180.21 177.818L180.292 177.602L180.494 177.083L180.552 176.929L180.801 176.283L180.869 176.106L181.051 175.634L181.143 175.395L181.303 174.978L181.389 174.752L181.614 174.154L181.679 173.98L181.843 173.543L181.936 173.3L182.072 172.934L182.165 172.685L182.318 172.271L182.418 172.005L182.571 171.588L182.67 171.322L182.776 171.034L182.875 170.761L182.961 170.525L183.19 169.903L183.227 169.797L183.333 169.504L183.405 169.309L183.515 169.012L183.566 168.871C184.547 166.168 185.148 164.429 185.148 164.429C185.148 164.429 189.591 179.967 188.907 184.765C188.224 189.562 193.131 207.386 193.131 207.386C193.131 207.386 190.315 225.21 191.959 229.55C193.603 233.889 189.611 250.114 189.611 250.114C189.611 250.114 189.915 250.281 190.431 250.538L190.401 250.978C190.144 254.546 189.587 261.401 188.907 264.052C187.967 267.709 188.439 271.594 195.947 271.136C203.455 270.678 203.691 266.109 203.691 266.109C203.691 266.109 201.213 258.12 200.909 253.408C200.909 253.254 200.909 253.104 200.889 252.957L201.1 252.878L201.162 252.854C201.247 252.817 201.329 252.779 201.408 252.738C201.483 252.697 201.551 252.656 201.623 252.612L201.685 252.571C201.744 252.53 201.802 252.486 201.859 252.441L201.9 252.407C201.968 252.35 202.033 252.291 202.095 252.229L202.139 252.185C202.187 252.132 202.234 252.079 202.279 252.024L202.327 251.963C202.382 251.891 202.437 251.816 202.488 251.734C205.068 247.633 205.304 238.936 205.304 238.936C205.304 238.936 210.467 209.689 208.591 205.79C206.715 201.891 207.652 192.767 207.652 192.767C207.652 192.767 205.54 179.058 207.887 172.432C209.644 167.47 210.744 150.337 210.693 142.139C210.693 141.968 210.693 141.801 210.693 141.637C210.693 141.579 210.693 141.521 210.693 141.463C212.443 139.289 213.769 135.476 212.825 128.792C212.771 128.413 212.73 128.03 212.689 127.64C215.354 125.648 217.986 123.307 217.986 123.307L218.895 122.371L219.185 122.07C219.438 122.176 219.705 122.272 219.981 122.357C221.007 122.822 221.738 123.082 221.738 123.082C221.738 123.082 235.117 112.113 245.209 106.857C255.3 101.602 247.112 91.9585 247.112 91.9585ZM231.153 101.554C231.153 101.554 217.07 110.479 214.497 115.038C214.348 115.293 214.233 115.566 214.155 115.851L213.813 115.995L213.382 116.159C215.539 103.857 221.311 91.7296 221.311 91.7296C221.311 91.7296 225.753 95.6148 228.829 97.197C231.905 98.7791 231.153 101.557 231.153 101.557V101.554Z" fill="url(#paint0_linear)"/>
<path d="M145.03 267.856C134.217 271.273 130.646 269.141 129.487 267.087C129.192 266.537 129.124 265.894 129.296 265.295C129.469 264.696 129.868 264.187 130.41 263.878C136.555 260.266 142.091 255.706 146.814 250.367C148.016 249 148.649 248.163 148.649 248.163C148.649 248.163 157.025 246.577 159.061 248.163C159.571 248.559 159.926 249.666 160.169 251.101C160.9 255.4 160.647 262.651 160.647 262.651C160.647 262.651 162.233 262.422 145.03 267.856Z" fill="#5B5877"/>
<path d="M202.979 264.685C202.979 264.685 202.754 269.212 195.509 269.663C188.264 270.114 187.813 266.267 188.718 262.648C189.375 260.024 189.911 253.234 190.157 249.697C190.249 248.354 190.301 247.483 190.301 247.483C190.301 247.483 201.619 246.352 200.488 249.533C200.265 250.375 200.2 251.251 200.297 252.116C200.59 256.774 202.979 264.685 202.979 264.685Z" fill="#5B5877"/>
<path opacity="0.1" d="M160.158 251.102L159.957 251.334C155.654 256.087 146.602 251.334 146.602 251.334L146.803 250.37C148.006 249.003 148.638 248.166 148.638 248.166C148.638 248.166 157.014 246.581 159.051 248.166C159.574 248.559 159.929 249.666 160.158 251.102Z" fill="black"/>
<path opacity="0.1" d="M200.485 249.519C200.262 250.361 200.197 251.237 200.294 252.103C197.334 253.128 192.092 250.702 190.154 249.711C190.247 248.368 190.298 247.496 190.298 247.496C190.298 247.496 201.623 246.352 200.485 249.519Z" fill="black"/>
<path d="M207.733 204.929C209.544 208.777 204.565 237.734 204.565 237.734C204.565 237.734 204.34 246.335 201.848 250.408C199.357 254.481 189.399 248.822 189.399 248.822C189.399 248.822 193.247 232.762 191.661 228.449C190.076 224.137 192.792 206.501 192.792 206.501C192.792 206.501 188.039 188.845 188.719 184.091C189.399 179.338 185.096 163.93 185.096 163.93C185.096 163.93 175.135 193.584 170.381 197.883C165.628 202.182 166.533 211.237 166.533 211.237C170.381 221.875 162.231 238.175 162.231 238.175C162.231 238.175 164.281 246.095 159.968 250.849C155.656 255.602 146.613 250.849 146.613 250.849L149.566 236.845L151.616 206.966C151.616 206.966 152.747 198.59 153.667 183.651C154.586 168.711 160.457 151.96 160.457 151.96L161.441 145.064L162.268 139.283C162.268 139.283 208.222 137.697 209.353 137.471C209.637 137.413 209.78 139.142 209.794 141.866C209.845 149.988 208.769 166.958 207.087 171.875C204.825 178.44 206.862 192.036 206.862 192.036C206.862 192.036 205.922 201.082 207.733 204.929Z" fill="#5F5D7E"/>
<g opacity="0.05">
<path opacity="0.05" d="M182.609 163.958C182.609 163.958 172.647 193.611 167.894 197.91C163.14 202.209 164.046 211.264 164.046 211.264C167.894 221.902 159.743 238.202 159.743 238.202C159.743 238.202 161.793 246.123 157.481 250.876C156.39 252.052 154.902 252.782 153.305 252.926C155.697 253.176 158.222 252.813 159.969 250.876C164.271 246.123 162.231 238.202 162.231 238.202C162.231 238.202 170.381 221.905 166.533 211.264C166.533 211.264 165.628 202.209 170.381 197.91C174.035 194.606 180.757 176.345 183.678 168.055C183.077 165.635 182.609 163.958 182.609 163.958Z" fill="black"/>
<path opacity="0.05" d="M206.828 192.026C206.828 192.026 204.778 178.446 207.053 171.865C208.762 166.948 209.808 149.978 209.76 141.856C209.76 139.122 209.603 137.413 209.319 137.461C209.179 137.489 208.335 137.54 206.971 137.605C207.163 138.069 207.259 139.628 207.272 141.859C207.323 149.982 206.247 166.951 204.566 171.868C202.303 178.433 204.34 192.029 204.34 192.029C204.34 192.029 203.434 201.085 205.246 204.933C207.057 208.78 202.078 237.737 202.078 237.737C202.078 237.737 201.852 246.338 199.361 250.411C199.132 250.774 198.828 251.083 198.469 251.318C198.111 251.554 197.707 251.711 197.283 251.778C199.221 252.065 200.984 251.826 201.849 250.411C204.34 246.338 204.566 237.737 204.566 237.737C204.566 237.737 209.545 208.763 207.734 204.933C205.922 201.102 206.828 192.026 206.828 192.026Z" fill="black"/>
</g>
<path d="M200.943 59.8375L199.357 75.4538C199.357 75.4538 174.229 80.8871 176.946 72.0572C178.231 67.878 178.313 63.3913 178.015 59.8272C177.937 58.8636 177.838 57.9683 177.725 57.1653C177.541 55.7783 177.281 54.4026 176.946 53.0442C176.946 53.0442 196.425 38.33 195.509 48.291C195.299 50.1735 195.42 52.0783 195.868 53.919C196.153 55.0459 196.639 56.1121 197.303 57.0662C198.906 59.3283 200.943 59.8375 200.943 59.8375Z" fill="#FDC2CC"/>
<path opacity="0.1" d="M195.871 53.9225C195.69 54.1685 195.498 54.4111 195.304 54.6435C193.192 57.1458 190.236 58.7857 186.995 59.2519C183.754 59.718 180.455 58.9779 177.724 57.1721C177.541 55.7852 177.28 54.4094 176.945 53.0511C176.945 53.0511 196.424 38.3369 195.509 48.2978C195.3 50.1795 195.423 52.0831 195.871 53.9225Z" fill="black"/>
<path d="M198.451 45.3489C198.451 48.8906 197.043 52.2873 194.539 54.7917C192.034 57.2961 188.637 58.7031 185.095 58.7031C181.553 58.7031 178.156 57.2961 175.652 54.7917C173.147 52.2873 171.74 48.8906 171.74 45.3489C171.74 45.178 171.74 45.0072 171.74 44.8363C171.877 41.3435 173.378 38.0435 175.921 35.645C178.464 33.2465 181.846 31.9406 185.341 32.0077C188.837 32.0747 192.166 33.5095 194.615 36.0039C197.064 38.4982 198.438 41.8533 198.44 45.3489H198.451Z" fill="#FDC2CC"/>
<path opacity="0.1" d="M209.759 141.873C208.614 143.409 206.91 144.432 205.015 144.719L194.613 148.359H194.589L191.435 149.462L190.112 146.209L188.492 142.218V149.462C188.492 149.462 168.617 150.829 161.406 145.058L162.233 139.276C162.233 139.276 208.187 137.69 209.318 137.465C209.602 137.42 209.745 139.146 209.759 141.873Z" fill="black"/>
<path opacity="0.1" d="M200.943 59.8375L199.357 75.4538C199.357 75.4538 174.229 80.8871 176.946 72.0572C178.231 67.878 178.313 63.3913 178.015 59.8272C178.449 60.7362 181.645 67.1673 185.776 68.2847C186.29 68.4287 186.826 68.4796 187.358 68.435C188.237 68.3309 189.075 68.0065 189.795 67.4919C193.513 65.0213 196.63 58.5185 197.313 57.0696C198.906 59.3283 200.943 59.8375 200.943 59.8375Z" fill="black"/>
<path d="M243.048 106.919C233.316 112.127 220.412 122.979 220.412 122.979C220.412 122.979 210.904 119.583 213.396 115.058C215.887 110.534 229.457 101.704 229.457 101.704C229.457 101.704 230.141 98.9876 227.195 97.4021C224.249 95.8165 219.95 91.9688 219.95 91.9688C219.95 91.9688 209.763 113.924 211.8 128.638C213.837 143.352 205.009 144.015 205.009 144.015L194.607 147.655H194.583L191.429 148.758L190.106 145.505L188.486 141.514V148.758C188.486 148.758 165.395 150.344 159.965 142.874C159.965 142.874 164.944 122.955 163.587 115.26C162.231 107.565 160.645 68.8587 160.645 68.8587L177.961 60.145C177.961 60.145 181.347 67.5363 185.79 68.7426C186.304 68.8866 186.84 68.9375 187.372 68.8929C188.251 68.7888 189.089 68.4644 189.809 67.9498C194.002 65.1648 197.447 57.2371 197.447 57.2371C197.447 57.2371 205.255 62.0552 212.89 63.5417C215.116 63.9612 217.157 65.0594 218.734 66.6854C219.561 67.55 220.531 68.5444 221.556 69.5729C224.499 72.5151 244.873 92.208 244.873 92.208C244.873 92.208 252.771 101.711 243.048 106.919Z" fill="#D39999"/>
<path d="M220.646 119.142L217.673 122.289L216.798 123.218C216.798 123.218 208.877 130.463 206.837 130.234C204.797 130.005 201.403 116.2 205.47 117.105C207.944 117.655 210.838 116.787 212.725 116.019C213.417 115.741 214.093 115.424 214.748 115.069L220.646 119.142Z" fill="#FDC2CC"/>
<path opacity="0.1" d="M198.451 45.3489C198.456 48.5033 197.339 51.5567 195.3 53.9635C194.951 53.9971 194.6 53.935 194.283 53.7839C193.967 53.6327 193.698 53.3983 193.506 53.1058C193.13 52.4463 193.287 51.6193 193.037 50.9086C192.788 50.1978 192.221 49.7092 191.862 49.077C190.953 47.4846 191.336 45.0721 189.671 44.2178C188.906 43.8283 187.98 43.9581 187.125 44.1016C185.447 44.3784 183.759 44.9286 182.105 45.1575C180.219 45.4241 178.52 44.1973 176.658 44.17C174.997 44.1426 173.329 45.1165 171.754 44.8363C171.891 41.3435 173.392 38.0435 175.935 35.645C178.478 33.2465 181.86 31.9406 185.355 32.0077C188.85 32.0747 192.18 33.5095 194.629 36.0039C197.078 38.4982 198.451 41.8533 198.454 45.3489H198.451Z" fill="black"/>
<path d="M187.126 43.1961C187.98 43.056 188.906 42.9227 189.672 43.3157C191.336 44.1665 190.953 46.579 191.862 48.1714C192.221 48.8036 192.802 49.3196 193.041 50.003C193.28 50.6864 193.133 51.5407 193.509 52.2002C194.053 53.1536 195.526 53.2937 196.493 52.7265C197.46 52.1592 198 51.117 198.365 50.085C198.687 49.1761 198.957 48.1714 199.732 47.5768C200.014 47.4163 200.267 47.2095 200.481 46.9652C200.641 46.6415 200.703 46.278 200.659 45.9195C200.659 43.6095 200.3 41.819 200.823 39.5807C201.66 35.9722 202.425 31.4548 199.773 28.7792C198.416 27.4263 196.669 26.5325 194.777 26.2231C193.069 25.9429 190.553 28.3281 188.824 28.2734C184.426 28.0992 180.715 24.0259 176.522 25.3415C174.688 25.9174 173.099 27.0872 172.004 28.6664C169.953 31.6871 170.138 35.5895 170.435 39.1946C170.431 39.4683 170.511 39.7368 170.664 39.9635C170.818 40.148 171.067 40.2471 171.218 40.435C171.38 40.6833 171.441 40.9839 171.389 41.2756C171.343 41.8629 171.206 42.4393 170.982 42.9842C170.926 43.0753 170.891 43.178 170.88 43.2846C170.869 43.3912 170.883 43.4988 170.92 43.5993C171.005 43.7134 171.125 43.7954 171.262 43.8317C172.971 44.4467 174.816 43.261 176.645 43.2917C178.473 43.3225 180.209 44.5458 182.095 44.2793C183.76 44.023 185.448 43.4729 187.126 43.1961Z" fill="#865A61"/>
<path opacity="0.05" d="M194.617 147.678H194.593L191.322 148.895L190.112 145.529L184.986 131.239L185.789 68.7425C186.304 68.8865 186.839 68.9374 187.372 68.8928C188.25 68.7887 189.088 68.4643 189.808 67.9497L188.838 129.458L194.617 147.678Z" fill="black"/>
<path d="M188.268 71.8349C188.644 71.8349 188.948 71.5305 188.948 71.1549C188.948 70.7793 188.644 70.4749 188.268 70.4749C187.892 70.4749 187.588 70.7793 187.588 71.1549C187.588 71.5305 187.892 71.8349 188.268 71.8349Z" fill="white"/>
<path d="M186.907 94.9213C187.282 94.9213 187.587 94.6169 187.587 94.2413C187.587 93.8657 187.282 93.5613 186.907 93.5613C186.531 93.5613 186.227 93.8657 186.227 94.2413C186.227 94.6169 186.531 94.9213 186.907 94.9213Z" fill="white"/>
<path d="M185.776 118.916C186.151 118.916 186.456 118.612 186.456 118.236C186.456 117.861 186.151 117.556 185.776 117.556C185.4 117.556 185.096 117.861 185.096 118.236C185.096 118.612 185.4 118.916 185.776 118.916Z" fill="white"/>
<path d="M187.135 130.91C187.511 130.91 187.815 130.606 187.815 130.23C187.815 129.855 187.511 129.55 187.135 129.55C186.76 129.55 186.455 129.855 186.455 130.23C186.455 130.606 186.76 130.91 187.135 130.91Z" fill="white"/>
<path opacity="0.05" d="M210.453 96.9579H195.963V82.4727L203.208 80.4326L210.453 82.4727V96.9579Z" fill="black"/>
<path d="M187.588 82.4725C187.964 82.4725 188.268 82.1681 188.268 81.7925C188.268 81.4169 187.964 81.1125 187.588 81.1125C187.213 81.1125 186.908 81.4169 186.908 81.7925C186.908 82.1681 187.213 82.4725 187.588 82.4725Z" fill="white"/>
<path d="M203.659 83.1528C204.034 83.1528 204.339 82.8483 204.339 82.4727C204.339 82.0972 204.034 81.7927 203.659 81.7927C203.283 81.7927 202.979 82.0972 202.979 82.4727C202.979 82.8483 203.283 83.1528 203.659 83.1528Z" fill="white"/>
<path d="M186.231 107.37C186.606 107.37 186.911 107.065 186.911 106.69C186.911 106.314 186.606 106.01 186.231 106.01C185.855 106.01 185.551 106.314 185.551 106.69C185.551 107.065 185.855 107.37 186.231 107.37Z" fill="white"/>
<path d="M163.819 67.3072C163.819 67.3072 157.48 68.2128 155.443 79.7558C153.406 91.2989 151.369 107.37 151.369 107.37C151.369 107.37 147.973 122.309 164.943 118.68L165.849 113.473C165.849 113.473 164.14 119.47 164.605 107.476C165.07 95.4815 165.172 87.6563 165.172 87.6563L163.819 67.3072Z" fill="#D39999"/>
<path opacity="0.05" d="M163.819 67.3072C163.819 67.3072 157.48 68.2128 155.443 79.7558C153.406 91.2989 151.369 107.37 151.369 107.37C151.369 107.37 147.973 122.309 164.943 118.68L165.849 113.473C165.849 113.473 163.245 119.244 163.699 107.247C164.154 95.2491 165.172 87.6665 165.172 87.6665L163.819 67.3072Z" fill="black"/>
<path opacity="0.1" d="M220.648 119.142L217.674 122.289C213.447 120.58 212.627 116.101 212.627 116.101L212.736 116.019C213.429 115.741 214.104 115.424 214.759 115.069L220.648 119.142Z" fill="black"/>
<path d="M216.45 113.37L213.07 115.875C213.07 115.875 214.188 121.971 220.524 122.651L223.24 117.898L216.45 113.37Z" fill="#D39999"/>
<path d="M119.352 80.5659L148.017 55.0023L161.136 70.2666L183.65 69.1048L190.474 83.2176L169.04 111.211L159 95.9601L135.119 98.0035L119.352 80.5659Z" fill="#F2F5FB"/>
<path d="M188.1 83.2518L180.558 93.0487L172.51 103.505L168.792 108.34L160.19 94.9589L151.168 95.7517L136.48 97.0399L125.538 84.9398L121.775 80.7812L137.041 67.1673L148.51 56.9432L154.418 63.8185L160.74 71.1756L167.056 70.851L181.737 70.0924L187.468 81.943L188.1 83.2518Z" fill="#DDE0ED"/>
<path d="M140.684 72.949L125.538 84.9398L121.775 80.7811L137.041 67.1672L140.684 72.949Z" fill="#ABB1D1"/>
<path d="M157.963 81.7825L156.77 74.2682L148.801 64.9155L154.419 63.8186L160.741 71.1757L167.056 70.8511L169.373 79.8006L158.12 82.7632L157.963 81.7825Z" fill="#ABB1D1"/>
<path d="M188.099 83.2519L180.557 93.0488L176.641 87.144L187.467 81.9431L188.099 83.2519Z" fill="#ABB1D1"/>
<path d="M172.51 103.505L168.792 108.34L160.19 94.9588L151.168 95.7516L149.531 84.4374L157.962 81.7823L158.973 89.5119L164.677 90.3969L172.51 103.505Z" fill="#ABB1D1"/>
<path d="M156.359 84.851C156.319 84.859 156.277 84.8559 156.239 84.8421C156.2 84.8282 156.166 84.8041 156.14 84.7724C155.091 83.4865 153.808 82.4115 152.357 81.6047C152.305 81.5757 152.266 81.527 152.249 81.4694C152.232 81.4117 152.239 81.3498 152.268 81.2972C152.297 81.2446 152.346 81.2057 152.404 81.1891C152.461 81.1724 152.523 81.1793 152.576 81.2083C154.076 82.0431 155.404 83.1552 156.489 84.4854C156.514 84.5157 156.531 84.552 156.537 84.5908C156.544 84.6296 156.541 84.6694 156.527 84.7064C156.514 84.7433 156.491 84.7761 156.461 84.8015C156.431 84.8269 156.394 84.844 156.356 84.851H156.359Z" fill="#D7666F"/>
<path d="M153.665 85.4797C153.622 85.4885 153.577 85.4845 153.536 85.468C153.495 85.4515 153.46 85.4232 153.434 85.3868C153.409 85.3504 153.395 85.3074 153.395 85.2631C153.394 85.2188 153.406 85.1753 153.43 85.1379L156.362 80.2959C156.393 80.2447 156.443 80.208 156.502 80.1939C156.56 80.1798 156.622 80.1894 156.673 80.2207C156.724 80.252 156.761 80.3023 156.775 80.3606C156.789 80.4189 156.779 80.4804 156.748 80.5316L153.816 85.3737C153.8 85.401 153.778 85.4245 153.752 85.4427C153.726 85.461 153.697 85.4736 153.665 85.4797Z" fill="#D7666F"/>
<path opacity="0.1" d="M136.486 96.7393L160.688 71.1244L181.692 70.1027L160.247 94.8701L136.486 96.7393Z" fill="white"/>
<path d="M157.48 109.167C157.48 109.167 163.14 95.2836 165.856 96.7256C168.573 98.1676 176.495 106.823 171.065 110.609C165.634 114.396 161.783 116.2 161.783 116.2L157.48 115.66V109.167Z" fill="#FDC2CC"/>
<path d="M154.426 109.294C154.426 109.294 159.617 105.22 163.81 117.556L159.856 118.123L155.328 115.407L154.426 109.294Z" fill="#D39999"/>
<path opacity="0.05" d="M154.426 109.294C154.426 109.294 159.617 105.22 163.81 117.556L159.856 118.123L155.328 115.407L154.426 109.294Z" fill="black"/>
</g>
<defs>
<linearGradient id="paint0_linear" x1="183.627" y1="271.136" x2="183.627" y2="24.1864" gradientUnits="userSpaceOnUse">
<stop stop-color="#808080" stop-opacity="0.25"/>
<stop offset="0.54" stop-color="#808080" stop-opacity="0.12"/>
<stop offset="1" stop-color="#808080" stop-opacity="0.1"/>
</linearGradient>
<clipPath id="clip0">
<rect width="375" height="277" fill="white"/>
</clipPath>
</defs>
</svg>
