<svg width="24" height="24" viewBox="0 0 24 24" fill="none" xmlns="http://www.w3.org/2000/svg">
<g clip-path="url(#clip0)">
<path d="M23.5913 5.22222L23.5325 5.16346C22.9807 4.61162 22.0814 4.6104 21.5262 5.1651L19.3664 7.34762C19.2527 7.46177 19.0706 7.46637 18.9519 7.35713L15.9239 4.56152C15.6298 4.28973 15.2471 4.14038 14.8462 4.14038H10.3417C10.2354 4.14038 10.1337 4.18092 10.0567 4.25374L6.23892 7.87875C5.67963 8.43846 5.64116 9.34068 6.15373 9.89004C6.42759 10.1838 6.79742 10.3455 7.19494 10.3455H7.20197C7.59622 10.3434 7.97514 10.1759 8.237 9.88961L10.9333 7.03609H11.8984L5.60601 14.0686H1.72496C0.804927 14.0686 0.0483504 14.7565 0.00242629 15.6348C-0.0219885 16.0935 0.138512 16.5295 0.45417 16.8621C0.765236 17.1901 1.2025 17.378 1.65466 17.378H7.44607C7.56023 17.378 7.66946 17.3308 7.74805 17.2468L10.7153 14.0793L13.2106 16.6888L12.4573 21.5031C12.2674 22.3007 12.6501 23.1131 13.367 23.4337C13.5879 23.533 13.8224 23.5826 14.0557 23.5826C14.3068 23.5826 14.5567 23.5251 14.7867 23.4113C15.231 23.1913 15.5503 22.7888 15.6665 22.2882L16.9535 15.3852C16.9783 15.2512 16.9357 15.113 16.8389 15.0167L13.4042 11.5865L16.1328 8.86209L18.0349 10.7637C18.566 11.2949 19.4918 11.2949 20.0226 10.7637L23.5914 7.19537C23.8549 6.93187 24.0001 6.58106 24.0001 6.20875C24 5.83611 23.8548 5.48572 23.5913 5.22222Z" fill="#00B9DA"/>
<path d="M19.0289 5.38135C20.3978 5.38135 21.511 4.26816 21.511 2.8993C21.511 1.53043 20.3978 0.417236 19.0289 0.417236C17.6601 0.417236 16.5469 1.53043 16.5469 2.8993C16.5469 4.26816 17.6601 5.38135 19.0289 5.38135Z" fill="#00B9DA"/>
</g>
<defs>
<clipPath id="clip0">
<rect width="24" height="24" fill="white"/>
</clipPath>
</defs>
</svg>
