<svg width="248" height="24" viewBox="0 0 248 24" fill="none" xmlns="http://www.w3.org/2000/svg">
<rect x="97" width="55" height="24" rx="12" fill="#E0EDEE"/>
<path d="M120.601 9V16H119.421L116.371 11.09V16H115.111V9H116.361L119.341 13.83V9H120.601ZM126.334 13.92H122.814C122.928 14.7333 123.371 15.14 124.144 15.14C124.438 15.14 124.698 15.0867 124.924 14.98C125.151 14.8733 125.361 14.7067 125.554 14.48L126.174 15.07C125.981 15.3833 125.694 15.6333 125.314 15.82C124.941 16.0067 124.531 16.1 124.084 16.1C123.318 16.1 122.721 15.8733 122.294 15.42C121.868 14.96 121.654 14.3233 121.654 13.51C121.654 12.6967 121.868 12.06 122.294 11.6C122.728 11.1333 123.318 10.9 124.064 10.9C124.778 10.9 125.334 11.13 125.734 11.59C126.134 12.05 126.334 12.6867 126.334 13.5V13.92ZM125.244 13.07C125.244 12.6767 125.138 12.37 124.924 12.15C124.711 11.93 124.414 11.82 124.034 11.82C123.688 11.82 123.408 11.9367 123.194 12.17C122.988 12.3967 122.858 12.7167 122.804 13.13H125.244V13.07ZM133.486 11L132.216 16H131.206L130.136 12.21L129.066 16H128.066L126.796 11H127.976L128.666 14.34L129.636 11H130.646L131.616 14.36L132.306 11H133.486Z" fill="#3C8CD7"/>
</svg>
