<svg width="144" height="108" viewBox="0 0 144 108" fill="none" xmlns="http://www.w3.org/2000/svg">
<g clip-path="url(#clip0)">
<path d="M1.2973 0C0.953355 0.000405028 0.623618 0.137379 0.380416 0.380875C0.137213 0.624371 0.000404106 0.954506 0 1.29886V106.701C0.000404106 107.045 0.137213 107.376 0.380416 107.619C0.623618 107.863 0.953355 108 1.2973 108H142.703C143.047 108 143.376 107.863 143.62 107.619C143.863 107.376 144 107.045 144 106.701V1.29886C144 0.954506 143.863 0.624371 143.62 0.380875C143.376 0.137379 143.047 0.000405028 142.703 0H1.2973Z" fill="#E6E6E6"/>
<path d="M4.15137 4.15637V103.844H139.849V4.15637H4.15137Z" fill="white"/>
<path d="M103.646 9.54669C103.571 9.54678 103.499 9.57672 103.445 9.62994C103.392 9.68317 103.362 9.75533 103.362 9.8306V32.8698C103.362 32.9451 103.392 33.0173 103.445 33.0705C103.499 33.1237 103.571 33.1536 103.646 33.1537H134.555C134.63 33.1536 134.702 33.1237 134.755 33.0705C134.808 33.0173 134.838 32.9451 134.838 32.8698V9.8306C134.838 9.75533 134.808 9.68317 134.755 9.62994C134.702 9.57672 134.63 9.54678 134.555 9.54669H103.646Z" fill="#E6E6E6"/>
<path d="M104.27 10.4552V32.2453H133.931V10.4552H104.27Z" fill="white"/>
<path d="M103.646 42.0056C103.571 42.0056 103.499 42.0356 103.445 42.0888C103.392 42.142 103.362 42.2142 103.362 42.2895V65.3287C103.362 65.404 103.392 65.4761 103.445 65.5293C103.499 65.5826 103.571 65.6125 103.646 65.6126H134.555C134.63 65.6125 134.702 65.5826 134.755 65.5293C134.808 65.4761 134.838 65.404 134.838 65.3287V42.2895C134.838 42.2142 134.808 42.142 134.755 42.0888C134.702 42.0356 134.63 42.0056 134.555 42.0056H103.646Z" fill="#E6E6E6"/>
<path d="M104.27 42.9141V64.7041H133.931V42.9141H104.27Z" fill="white"/>
<path d="M103.646 74.4644C103.571 74.4645 103.499 74.4944 103.445 74.5476C103.392 74.6009 103.362 74.673 103.362 74.7483V97.7875C103.362 97.8628 103.392 97.935 103.445 97.9882C103.499 98.0414 103.571 98.0714 103.646 98.0714H134.555C134.63 98.0714 134.702 98.0414 134.755 97.9882C134.808 97.935 134.838 97.8628 134.838 97.7875V74.7483C134.838 74.673 134.808 74.6009 134.755 74.5476C134.702 74.4944 134.63 74.4645 134.555 74.4644H103.646Z" fill="#E6E6E6"/>
<path d="M104.27 75.3729V97.163H133.931V75.3729H104.27Z" fill="white"/>
<path d="M128.366 28.0445L122.456 23.905H122.454L122.453 23.9057C122.252 23.2725 122.114 22.6211 122.04 21.9608C122.595 21.4548 122.988 20.7965 123.172 20.068C123.196 20.0821 123.219 20.0977 123.241 20.1145C123.758 20.5292 124.742 16.1233 123.085 15.2939C123.085 15.2939 121.843 12.5985 119.461 13.2205C117.08 13.8426 115.734 14.7756 115.63 15.7086C115.527 16.6416 115.682 18.0411 115.682 18.0411C115.682 18.0411 115.825 16.9829 116.578 16.6088C116.206 17.0341 115.932 17.5367 115.777 18.0805C115.622 18.6244 115.589 19.1959 115.681 19.7539C115.773 20.312 115.987 20.8427 116.309 21.3079C116.63 21.7731 117.05 22.1611 117.539 22.4442C117.36 23.0621 117.119 23.863 116.918 24.4511H116.918L115.112 25.3504L111.177 27.8382C111.177 27.8382 109.625 29.8068 109.106 32.0884C109.066 32.2679 109.024 32.4474 108.98 32.6269H129.968C129.268 30.5094 128.366 28.0445 128.366 28.0445Z" fill="#E6E6E6"/>
<path d="M127.066 94.6995C127.47 94.4412 127.898 94.2225 128.344 94.0465L123.946 88.8187L121.04 88.0741C120.53 87.7873 120.128 87.3414 119.894 86.8044L121.45 86.7891L122.043 83.4267C122.404 82.4492 122.257 81.5919 121.45 80.8854C121.595 79.9804 121.185 79.314 120.098 78.9379C119.017 77.9985 117.419 77.7732 116.459 79.2777C116.072 79.2547 115.691 79.3822 115.395 79.6337C115.1 79.8852 114.913 80.2413 114.873 80.6277C113.992 81.653 114.97 85.4163 115.26 86.8502L116.807 86.8349C116.717 87.3654 116.457 87.8521 116.067 88.2211L116.046 88.2001L112.954 89.7142L108.557 94.8045C108.991 94.9748 109.408 95.1858 109.802 95.4346L109.348 97.1625H112.495L113.332 95.9444H113.374C113.374 95.9234 113.376 95.9024 113.376 95.8814L113.963 95.026C113.976 95.7172 113.957 96.4294 113.91 97.1625H123.697C123.681 96.5535 123.678 95.9482 123.678 95.3468L124.772 96.9373C124.854 96.817 124.942 96.7043 125.03 96.5897L125.245 97.1625H127.751L127.15 94.8752C127.133 94.812 127.105 94.7524 127.066 94.6995Z" fill="#E6E6E6"/>
<path d="M124.879 58.256L120.724 56.5548C120.625 56.1615 120.541 55.7911 120.487 55.4646C120.914 55.2217 121.288 54.8957 121.587 54.5058C121.885 54.1158 122.103 53.6699 122.227 53.1944L122.665 52.7228C122.898 52.4793 123.077 52.1888 123.188 51.8707C123.3 51.5526 123.343 51.2143 123.314 50.8783C123.237 50.2327 122.911 49.6429 122.404 49.2363C122.574 48.1614 122.087 47.3709 120.798 46.9241C119.517 45.8109 117.619 45.5417 116.483 47.327C116.023 47.2995 115.57 47.4508 115.219 47.7492C114.868 48.0477 114.646 48.4703 114.598 48.9289C113.664 50.0172 114.627 52.1881 115.087 53.8512C115.122 53.9743 115.192 54.0842 115.29 54.1672C115.387 54.2501 115.507 54.3022 115.634 54.3171C115.94 54.7693 116.341 55.1482 116.811 55.4264C116.823 55.9068 116.766 56.3864 116.643 56.8508L116.647 56.7057L113.548 58.1014L113.546 58.0632L113.246 58.237L112.772 58.4508C112.775 58.4699 112.779 58.4871 112.783 58.5062L112.739 58.531C112.072 58.9181 111.56 59.5266 111.294 60.2513L109.701 64.9177H123.958C124.103 64.4312 124.282 63.9553 124.492 63.4934L124.496 63.4418L125.762 64.9177H129.63L124.879 58.256Z" fill="#E6E6E6"/>
<path d="M54.3322 96.9514C58.9426 96.9514 62.6801 93.2094 62.6801 88.5935C62.6801 83.9776 58.9426 80.2356 54.3322 80.2356C49.7218 80.2356 45.9844 83.9776 45.9844 88.5935C45.9844 93.2094 49.7218 96.9514 54.3322 96.9514Z" fill="#E6E6E6"/>
<path d="M54.3326 95.0012C57.8673 95.0012 60.7327 92.1324 60.7327 88.5935C60.7327 85.0546 57.8673 82.1858 54.3326 82.1858C50.798 82.1858 47.9326 85.0546 47.9326 88.5935C47.9326 92.1324 50.798 95.0012 54.3326 95.0012Z" fill="white"/>
<path d="M57.5383 92.0932C57.5 92.0933 57.4621 92.0857 57.4267 92.0711C57.3914 92.0564 57.3593 92.0348 57.3323 92.0077L50.9191 85.5867C50.8667 85.5315 50.8379 85.4581 50.8389 85.3819C50.8399 85.3058 50.8705 85.2331 50.9243 85.1793C50.978 85.1255 51.0506 85.0948 51.1267 85.0938C51.2027 85.0929 51.2761 85.1217 51.3312 85.1741L57.7444 91.595C57.7851 91.6358 57.8129 91.6878 57.8241 91.7444C57.8353 91.801 57.8296 91.8597 57.8075 91.913C57.7855 91.9663 57.7481 92.0119 57.7002 92.044C57.6523 92.076 57.596 92.0932 57.5383 92.0932H57.5383Z" fill="#A60F59"/>
<path d="M54.1863 89.6826L53.2428 88.7379C53.2374 88.7325 53.2304 88.729 53.2229 88.7278C53.2154 88.7265 53.2077 88.7277 53.2008 88.7311C53.194 88.7345 53.1885 88.74 53.1849 88.7467C53.1813 88.7535 53.18 88.7611 53.181 88.7687C53.2191 89.0138 53.334 89.2404 53.5092 89.4158C53.6844 89.5912 53.9107 89.7063 54.1555 89.7444C54.1631 89.7455 54.1708 89.7441 54.1775 89.7405C54.1842 89.737 54.1897 89.7314 54.1931 89.7246C54.1965 89.7177 54.1976 89.71 54.1964 89.7025C54.1952 89.695 54.1917 89.688 54.1863 89.6826L54.1863 89.6826Z" fill="#A60F59"/>
<path d="M54.4775 87.4991L55.4225 88.4449C55.4279 88.4504 55.4349 88.454 55.4424 88.4552C55.45 88.4565 55.4577 88.4553 55.4646 88.4519C55.4714 88.4485 55.4771 88.443 55.4806 88.4362C55.4842 88.4294 55.4855 88.4217 55.4844 88.4141C55.4464 88.1687 55.3314 87.9417 55.156 87.7661C54.9806 87.5905 54.7539 87.4753 54.5088 87.4373C54.5012 87.4361 54.4934 87.4374 54.4866 87.4409C54.4798 87.4444 54.4742 87.45 54.4707 87.4568C54.4673 87.4637 54.466 87.4715 54.4672 87.4791C54.4685 87.4867 54.472 87.4937 54.4775 87.4991Z" fill="#A60F59"/>
<path d="M58.6135 88.9075C58.6739 88.8127 58.7057 88.7026 58.7054 88.5902C58.7051 88.4778 58.6726 88.3679 58.6117 88.2734C58.1442 87.5417 57.5279 86.9169 56.8031 86.4396C56.0684 85.9504 55.2084 85.684 54.3262 85.6722C53.8813 85.6728 53.4394 85.7454 53.0176 85.8873C53.0058 85.8912 52.9952 85.8981 52.9869 85.9073C52.9785 85.9165 52.9726 85.9277 52.9697 85.9398C52.9669 85.9519 52.9672 85.9646 52.9706 85.9765C52.974 85.9885 52.9804 85.9994 52.9892 86.0082L53.8499 86.8699C53.8588 86.8789 53.87 86.8854 53.8822 86.8887C53.8944 86.8921 53.9072 86.8922 53.9195 86.8891C54.2112 86.8179 54.5164 86.8231 54.8055 86.9042C55.0947 86.9853 55.3581 87.1396 55.5704 87.3522C55.7827 87.5648 55.9368 87.8285 56.0178 88.118C56.0988 88.4075 56.104 88.713 56.0329 89.0051C56.0299 89.0173 56.03 89.0302 56.0333 89.0424C56.0367 89.0545 56.0431 89.0656 56.0521 89.0746L57.2901 90.315C57.303 90.3279 57.3202 90.3355 57.3384 90.3363C57.3566 90.3371 57.3745 90.3311 57.3885 90.3194C57.865 89.9127 58.278 89.4368 58.6135 88.9075Z" fill="#A60F59"/>
<path d="M54.3316 90.342C54.0668 90.342 53.8055 90.2818 53.5673 90.166C53.3292 90.0502 53.1204 89.8817 52.9567 89.6734C52.793 89.465 52.6787 89.2221 52.6224 88.9631C52.5661 88.7041 52.5693 88.4356 52.6317 88.178C52.6348 88.1658 52.6347 88.1529 52.6314 88.1407C52.628 88.1285 52.6215 88.1174 52.6126 88.1085L51.3948 86.8887C51.3819 86.8758 51.3646 86.8682 51.3464 86.8674C51.3281 86.8666 51.3102 86.8727 51.2963 86.8845C50.8283 87.2906 50.414 87.7547 50.0634 88.2657C49.9975 88.3605 49.9612 88.4727 49.9591 88.5881C49.957 88.7036 49.9892 88.817 50.0517 88.914C50.5116 89.6464 51.122 90.2722 51.8423 90.75C52.578 91.2412 53.4415 91.5052 54.3258 91.5094C54.7752 91.5082 55.2216 91.4371 55.6492 91.2987C55.6611 91.2949 55.6719 91.2881 55.6804 91.279C55.6889 91.2698 55.6949 91.2586 55.6979 91.2464C55.7008 91.2343 55.7006 91.2215 55.6972 91.2095C55.6938 91.1974 55.6874 91.1865 55.6786 91.1776L54.8137 90.3119C54.8048 90.3029 54.7937 90.2965 54.7815 90.2931C54.7693 90.2898 54.7565 90.2896 54.7443 90.2927C54.6092 90.3255 54.4706 90.342 54.3316 90.342Z" fill="#A60F59"/>
<path d="M22.6594 96.9514C27.2698 96.9514 31.0072 93.2094 31.0072 88.5935C31.0072 83.9776 27.2698 80.2356 22.6594 80.2356C18.049 80.2356 14.3115 83.9776 14.3115 88.5935C14.3115 93.2094 18.049 96.9514 22.6594 96.9514Z" fill="#E6E6E6"/>
<path d="M22.6598 95.0012C26.1944 95.0012 29.0598 92.1324 29.0598 88.5935C29.0598 85.0546 26.1944 82.1858 22.6598 82.1858C19.1252 82.1858 16.2598 85.0546 16.2598 88.5935C16.2598 92.1324 19.1252 95.0012 22.6598 95.0012Z" fill="white"/>
<path d="M25.118 92.6794C24.7624 92.6794 24.2628 92.5506 23.5147 92.1322C22.585 91.6347 21.7359 90.9988 20.9967 90.2464C20.2315 89.5167 19.5925 88.665 19.1057 87.726C18.4345 86.5038 18.5489 85.8632 18.6768 85.5894C18.8244 85.29 19.0566 85.0406 19.3445 84.8721C19.5096 84.7639 19.6843 84.671 19.8663 84.5949C19.8846 84.587 19.9015 84.5795 19.9166 84.5728C19.9769 84.5386 20.0437 84.5177 20.1127 84.5114C20.1816 84.5051 20.2511 84.5136 20.3165 84.5363C20.4619 84.6063 20.5913 84.7057 20.6966 84.8282C21.0755 85.2539 21.3952 85.729 21.6469 86.2406C21.7504 86.4175 21.814 86.6149 21.8333 86.819C21.8182 87.021 21.7365 87.2123 21.601 87.3628C21.5771 87.3954 21.5534 87.4266 21.5305 87.4569C21.3918 87.6393 21.3614 87.692 21.3815 87.7862C21.4221 87.9753 21.7251 88.5384 22.223 89.0359C22.7209 89.5333 23.2672 89.8175 23.4568 89.858C23.5548 89.879 23.6086 89.8473 23.7966 89.7035C23.8236 89.6829 23.8513 89.6616 23.8802 89.6402C24.0309 89.498 24.2252 89.4109 24.4315 89.3932H24.4326C24.6395 89.4145 24.8383 89.4844 25.0131 89.5972C25.341 89.7628 26.09 90.2099 26.4185 90.5417C26.5411 90.6467 26.6406 90.7759 26.7109 90.9213C26.7335 90.987 26.7419 91.0567 26.7356 91.1258C26.7294 91.195 26.7085 91.2621 26.6745 91.3226C26.6678 91.3377 26.6603 91.3543 26.6525 91.3728C26.5758 91.5547 26.4825 91.7292 26.3739 91.8941C26.2051 92.182 25.9556 92.414 25.6564 92.5614C25.4882 92.641 25.3041 92.6814 25.118 92.6794Z" fill="#A60F59"/>
<path d="M86.2502 96.9514C90.8606 96.9514 94.598 93.2094 94.598 88.5935C94.598 83.9776 90.8606 80.2356 86.2502 80.2356C81.6398 80.2356 77.9023 83.9776 77.9023 88.5935C77.9023 93.2094 81.6398 96.9514 86.2502 96.9514Z" fill="#E6E6E6"/>
<path d="M86.2506 95.0012C89.7852 95.0012 92.6506 92.1324 92.6506 88.5935C92.6506 85.0546 89.7852 82.1858 86.2506 82.1858C82.716 82.1858 79.8506 85.0546 79.8506 88.5935C79.8506 92.1324 82.716 95.0012 86.2506 95.0012Z" fill="white"/>
<path d="M87.4166 92.3877H85.0845C85.0072 92.3877 84.933 92.357 84.8783 92.3022C84.8237 92.2475 84.793 92.1732 84.793 92.0958C84.793 92.0184 84.8237 91.9442 84.8783 91.8895C84.933 91.8347 85.0072 91.804 85.0845 91.804H87.4166C87.4939 91.804 87.568 91.8347 87.6227 91.8895C87.6773 91.9442 87.7081 92.0184 87.7081 92.0958C87.7081 92.1732 87.6773 92.2475 87.6227 92.3022C87.568 92.357 87.4939 92.3877 87.4166 92.3877Z" fill="#A60F59"/>
<path d="M86.2505 90.9284C85.555 90.9276 84.8881 90.6506 84.3963 90.1582C83.9044 89.6657 83.6277 88.9981 83.627 88.3017V87.7179C83.627 87.6405 83.6577 87.5663 83.7123 87.5116C83.767 87.4568 83.8412 87.4261 83.9185 87.4261C83.9958 87.4261 84.0699 87.4568 84.1246 87.5116C84.1793 87.5663 84.21 87.6405 84.21 87.7179V88.3017C84.2105 88.8432 84.4257 89.3624 84.8083 89.7451C85.1909 90.1279 85.7097 90.3429 86.2505 90.3429C86.7914 90.3429 87.3102 90.1279 87.6928 89.7451C88.0754 89.3624 88.2906 88.8432 88.2911 88.3017V87.7179C88.2911 87.6405 88.3218 87.5663 88.3765 87.5116C88.4312 87.4568 88.5053 87.4261 88.5826 87.4261C88.6599 87.4261 88.7341 87.4568 88.7887 87.5116C88.8434 87.5663 88.8741 87.6405 88.8741 87.7179V88.3017C88.8733 88.9981 88.5967 89.6657 88.1048 90.1582C87.613 90.6506 86.9461 90.9276 86.2505 90.9284Z" fill="#A60F59"/>
<path d="M86.2505 92.3877C86.2122 92.3877 86.1743 92.3802 86.1389 92.3655C86.1036 92.3508 86.0714 92.3293 86.0444 92.3022C86.0173 92.2751 85.9958 92.243 85.9812 92.2075C85.9665 92.1721 85.959 92.1342 85.959 92.0958V90.6366C85.959 90.5592 85.9897 90.4849 86.0444 90.4302C86.099 90.3754 86.1732 90.3447 86.2505 90.3447C86.3278 90.3447 86.402 90.3754 86.4566 90.4302C86.5113 90.4849 86.542 90.5592 86.542 90.6366V92.0958C86.542 92.1342 86.5345 92.1721 86.5198 92.2075C86.5052 92.243 86.4837 92.2751 86.4566 92.3022C86.4296 92.3293 86.3974 92.3508 86.3621 92.3655C86.3267 92.3802 86.2888 92.3877 86.2505 92.3877Z" fill="#A60F59"/>
<path d="M86.2505 89.7609C86.0581 89.7605 85.8678 89.7213 85.6908 89.6458C85.5138 89.5703 85.3538 89.4599 85.2202 89.3213C84.9468 89.0452 84.7932 88.6722 84.793 88.2834V86.2586C84.7922 86.0677 84.8291 85.8785 84.9013 85.7019C84.9736 85.5252 85.0799 85.3646 85.2142 85.229C85.3485 85.0935 85.5082 84.9858 85.684 84.9121C85.8599 84.8384 86.0485 84.8 86.2392 84.7993C86.243 84.7993 86.2467 84.7993 86.2505 84.7993C86.4425 84.7972 86.633 84.8335 86.8107 84.9061C86.9885 84.9787 87.15 85.0861 87.2858 85.2221C87.4215 85.358 87.5288 85.5197 87.6013 85.6977C87.6739 85.8757 87.7101 86.0664 87.7081 86.2586V88.2834C87.71 88.6727 87.5576 89.0469 87.2844 89.3239C87.0112 89.6009 86.6394 89.758 86.2505 89.7609Z" fill="#A60F59"/>
<path d="M11.7229 9.59232C11.5209 9.59255 11.3272 9.67301 11.1844 9.81603C11.0415 9.95906 10.9612 10.153 10.9609 10.3552V72.2659C10.9612 72.4682 11.0415 72.6621 11.1844 72.8051C11.3272 72.9481 11.5209 73.0286 11.7229 73.0288H94.7809C94.983 73.0286 95.1766 72.9481 95.3195 72.8051C95.4623 72.6621 95.5427 72.4682 95.5429 72.2659V10.3552C95.5427 10.153 95.4623 9.95906 95.3195 9.81603C95.1766 9.67301 94.983 9.59255 94.7809 9.59232H11.7229Z" fill="#E6E6E6"/>
<path d="M13.3994 12.0335V70.5875H93.1046V12.0335H13.3994Z" fill="white"/>
<path d="M68.4356 70.5875L68.5791 70.0247L67.3332 64.8571L67.2117 64.3499L67.1201 63.9708L67.2661 63.9216L74.627 61.4659L74.7213 62.8296L75.255 70.5875H68.4356Z" fill="#FFB9B9"/>
<path d="M39.1708 64.8571L37.925 70.0247L38.0685 70.5875H31.249L31.7828 62.8296L31.877 61.4659L39.3841 63.9708L39.1708 64.8571Z" fill="#FFB9B9"/>
<path d="M59.4038 44.1365L47.5176 45.3892C48.7661 42.1712 48.5352 38.4782 47.5176 34.5326H56.0673C56.629 37.8998 57.7572 41.1471 59.4038 44.1365Z" fill="#FFB9B9"/>
<path d="M51.897 39.5434C55.4672 39.5434 58.3615 36.6457 58.3615 33.0712C58.3615 29.4967 55.4672 26.599 51.897 26.599C48.3268 26.599 45.4326 29.4967 45.4326 33.0712C45.4326 36.6457 48.3268 39.5434 51.897 39.5434Z" fill="#FFB9B9"/>
<path d="M70.4566 46.6423C69.0919 52.6807 67.9689 58.4215 67.2659 63.9217C67.2465 64.0653 67.2285 64.2076 67.2117 64.3499C67.1884 64.5362 67.1651 64.7226 67.1445 64.9089C66.9144 66.8302 66.7408 68.7231 66.6237 70.5876H40.6072C40.6343 68.8292 40.5762 67.0308 40.4457 65.2077C39.9972 58.9546 38.6804 52.4155 36.8828 46.2244L36.8957 46.2192L48.2692 42.2859L48.3519 42.2574C51.6305 43.7725 54.8948 43.8424 58.1333 41.5432C58.1436 41.5368 58.1527 41.529 58.163 41.5225L68.765 45.9384L68.7689 45.9397L70.4566 46.6423Z" fill="#A60F59"/>
<path d="M78.171 61.8828L65.2422 65.4321L68.3701 45.8067L70.3654 46.4726C71.0971 46.7168 71.7561 47.1403 72.2826 47.7046C72.8091 48.2689 73.1863 48.956 73.3799 49.7035L78.171 61.8828Z" fill="#A60F59"/>
<path d="M28.333 61.8828L41.2619 65.4321L38.1339 45.8067L36.1387 46.4726C35.407 46.7168 34.7479 47.1403 34.2214 47.7046C33.6949 48.2689 33.3177 48.956 33.1241 49.7035L28.333 61.8828Z" fill="#A60F59"/>
<path d="M51.4806 22.1227C50.381 22.1733 49.3098 22.489 48.3583 23.0431C48.1394 23.1706 48.2406 23.6304 48.0383 23.7804C47.7836 23.9693 47.2306 23.8546 47.005 24.0758C46.277 24.7874 45.7164 25.6525 45.3641 26.6082C45.0118 27.5638 44.8766 28.5861 44.9683 29.6006L45.3274 33.1755L46.1746 32.2479C47.6936 30.5616 49.8023 29.5251 52.0638 29.3532C52.1599 29.3467 52.2561 29.3415 52.3526 29.3378L51.7008 28.1959L52.8335 29.33C53.3502 29.3356 53.8659 29.3777 54.3768 29.4557L53.51 27.9371L55.1731 29.6022L55.1732 29.6022C55.8533 29.752 56.4888 30.0596 57.0285 30.5003C57.5681 30.941 57.9969 31.5024 58.2801 32.1393L58.4648 32.5492L58.6717 29.1387C58.6921 28.196 58.5187 27.2593 58.1622 26.3866C57.8056 25.5139 57.2736 24.724 56.5991 24.066C55.9247 23.4079 55.1222 22.8958 54.2417 22.5615C53.3611 22.2272 52.4213 22.0779 51.4806 22.1227Z" fill="#2F2E41"/>
<path d="M45.4984 34.1475C45.7838 34.1475 46.0153 33.5972 46.0153 32.9183C46.0153 32.2395 45.7838 31.6892 45.4984 31.6892C45.2129 31.6892 44.9814 32.2395 44.9814 32.9183C44.9814 33.5972 45.2129 34.1475 45.4984 34.1475Z" fill="#FFB9B9"/>
<path d="M58.4212 33.7593C58.7067 33.7593 58.9381 33.209 58.9381 32.5302C58.9381 31.8513 58.7067 31.301 58.4212 31.301C58.1357 31.301 57.9043 31.8513 57.9043 32.5302C57.9043 33.209 58.1357 33.7593 58.4212 33.7593Z" fill="#FFB9B9"/>
</g>
<defs>
<clipPath id="clip0">
<rect width="144" height="108" fill="white"/>
</clipPath>
</defs>
</svg>
