<svg width="398" height="275" viewBox="0 0 398 275" fill="none" xmlns="http://www.w3.org/2000/svg">
<path d="M6.48483 268.295C3.76633 265.577 2.23706 261.891 2.23242 258.047V25.8952C2.23568 23.2204 3.29966 20.656 5.19103 18.7645C7.08239 16.8731 9.64671 15.809 12.3215 15.8057H384.773C387.503 15.8091 390.12 16.8951 392.051 18.8258C393.982 20.7566 395.068 23.3746 395.071 26.1052V258.046C395.067 261.89 393.537 265.577 390.818 268.295C388.1 271.014 384.414 272.543 380.569 272.548H16.7347C12.8898 272.543 9.2036 271.014 6.48483 268.295Z" stroke="#2D3B5A" stroke-width="4"/>
<path d="M394.34 22.4502H2.5V16.5517C2.50584 12.8252 3.98932 9.25321 6.62513 6.61902C9.2611 3.98468 12.8343 2.50338 16.561 2.5H380.279C384.006 2.50335 387.579 3.98464 390.215 6.61899C392.851 9.2536 394.335 12.8263 394.34 16.5534V22.4502Z" fill="#2D3B5A" stroke="#2D3B5A" stroke-width="5"/>
<path d="M30.0959 16.7836C32.4616 16.7836 34.3793 14.8659 34.3793 12.5002C34.3793 10.1346 32.4616 8.2168 30.0959 8.2168C27.7302 8.2168 25.8125 10.1346 25.8125 12.5002C25.8125 14.8659 27.7302 16.7836 30.0959 16.7836Z" fill="white"/>
<path d="M46.3538 16.7836C48.7194 16.7836 50.6371 14.8659 50.6371 12.5002C50.6371 10.1346 48.7194 8.2168 46.3538 8.2168C43.9881 8.2168 42.0703 10.1346 42.0703 12.5002C42.0703 14.8659 43.9881 16.7836 46.3538 16.7836Z" fill="white"/>
<path d="M62.6135 16.7836C64.9792 16.7836 66.8969 14.8659 66.8969 12.5002C66.8969 10.1346 64.9792 8.2168 62.6135 8.2168C60.2479 8.2168 58.3301 10.1346 58.3301 12.5002C58.3301 14.8659 60.2479 16.7836 62.6135 16.7836Z" fill="white"/>
<path d="M161.328 252.714C160.021 251.573 158.336 250.958 156.601 250.989C154.865 251.021 153.204 251.696 151.938 252.884C151.768 253.041 151.608 253.208 151.458 253.384L151.088 253.814L151.078 253.824L147.398 258.044H167.448L161.328 252.714Z" fill="#6C63FF"/>
<path d="M197.642 205.38C227.2 205.38 251.161 181.418 251.161 151.86C251.161 122.303 227.2 98.3413 197.642 98.3413C168.084 98.3413 144.123 122.303 144.123 151.86C144.123 181.418 168.084 205.38 197.642 205.38Z" fill="#2D3B5A"/>
<path d="M247.049 255.224L245.439 253.384C245.29 253.208 245.129 253.041 244.959 252.884C243.694 251.696 242.032 251.021 240.297 250.989C238.562 250.958 236.877 251.573 235.569 252.714L229.449 258.044H249.499L247.049 255.224Z" fill="#6C63FF"/>
<path d="M200.379 174.696L200.434 172.696C196.714 172.593 193.433 172.359 190.969 170.559C190.27 170.019 189.695 169.335 189.285 168.554C188.874 167.773 188.636 166.912 188.587 166.03C188.544 165.492 188.626 164.95 188.825 164.448C189.025 163.946 189.338 163.497 189.74 163.136C191.376 161.754 194.009 162.201 195.928 163.081L197.583 163.84L194.41 140.649L192.428 140.921L195.127 160.647C192.52 159.881 190.104 160.211 188.449 161.608C187.814 162.163 187.315 162.857 186.993 163.636C186.67 164.416 186.532 165.259 186.589 166.101C186.647 167.285 186.964 168.442 187.517 169.491C188.069 170.541 188.845 171.456 189.789 172.174C192.956 174.488 197.072 174.604 200.379 174.696Z" fill="white"/>
<path d="M182.629 142.622H171.857V144.622H182.629V142.622Z" fill="white"/>
<path d="M216.629 142.622H205.857V144.622H216.629V142.622Z" fill="white"/>
<path d="M247.048 255.224C247.488 256.144 247.898 257.094 248.278 258.044H149.148C149.72 256.606 150.364 255.197 151.078 253.824L151.088 253.814C152.746 250.563 154.737 247.494 157.028 244.654C158.238 243.153 159.526 241.718 160.888 240.354C167.069 234.164 174.675 229.587 183.038 227.024C182.605 225.486 182.612 223.858 183.058 222.324C183.665 220.38 184.883 218.683 186.532 217.487C188.18 216.29 190.171 215.658 192.208 215.684H205.248C207.281 215.656 209.269 216.287 210.915 217.482C212.56 218.677 213.775 220.372 214.378 222.314C214.825 223.851 214.832 225.483 214.398 227.024C219.799 228.678 224.902 231.179 229.518 234.434C230.448 235.084 231.348 235.764 232.218 236.474C238.51 241.528 243.579 247.937 247.048 255.224H247.048Z" fill="#2D3B5A"/>
<path d="M143.719 164.183C137.102 164.183 131.719 156.108 131.719 146.183C131.719 136.257 137.102 128.183 143.719 128.183C150.336 128.183 155.719 136.257 155.719 146.183C155.719 156.108 150.336 164.183 143.719 164.183Z" fill="white"/>
<path d="M250.719 164.183C244.102 164.183 238.719 156.108 238.719 146.183C238.719 136.257 244.102 128.183 250.719 128.183C257.335 128.183 262.719 136.257 262.719 146.183C262.719 156.108 257.335 164.183 250.719 164.183Z" fill="white"/>
<path d="M254.086 161.367C253.848 161.367 253.614 161.31 253.402 161.201C253.19 161.092 253.007 160.935 252.868 160.741C252.729 160.548 252.638 160.324 252.603 160.089C252.568 159.853 252.589 159.613 252.665 159.387C255.532 150.862 256.394 141.79 255.185 132.878C253.976 123.965 250.728 115.451 245.694 107.998C240.659 100.545 233.974 94.3524 226.157 89.9028C218.341 85.4532 209.604 82.8659 200.624 82.342C191.645 81.8182 182.667 83.3718 174.386 86.8822C166.105 90.3927 158.745 95.7653 152.878 102.583C147.011 109.4 142.795 117.478 140.557 126.19C138.32 134.901 138.122 144.012 139.978 152.812C140.059 153.201 139.982 153.606 139.765 153.939C139.548 154.271 139.207 154.504 138.819 154.586C138.43 154.668 138.025 154.593 137.692 154.376C137.358 154.16 137.125 153.82 137.042 153.431C135.089 144.179 135.297 134.6 137.649 125.44C140 116.281 144.432 107.787 150.6 100.619C156.769 93.4505 164.507 87.8014 173.213 84.1104C181.92 80.4194 191.361 78.7859 200.801 79.3369C210.242 79.8879 219.428 82.6086 227.646 87.2875C235.865 91.9663 242.893 98.4774 248.185 106.314C253.478 114.151 256.892 123.103 258.162 132.474C259.431 141.845 258.523 151.383 255.508 160.346C255.407 160.643 255.216 160.902 254.961 161.085C254.706 161.268 254.4 161.367 254.086 161.367V161.367Z" fill="white"/>
<path d="M170.757 117.185C168.638 120.078 169.683 123.976 171.916 126.47C174.821 129.716 179.454 129.92 183.477 129.318C187.992 128.642 192.78 126.527 197.35 127.952C201.246 129.167 204.025 132.7 208.071 133.588C211.66 134.375 215.952 133.333 217.21 129.508C217.815 127.669 214.919 126.881 214.318 128.71C213.504 131.185 209.989 131.135 207.976 130.45C204.749 129.351 202.262 126.679 199.091 125.403C195.351 123.898 191.295 124.577 187.488 125.434C183.899 126.242 179.77 127.44 176.195 125.931C173.55 124.814 171.445 121.296 173.348 118.699C174.49 117.14 171.888 115.642 170.757 117.185V117.185Z" fill="white"/>
<path d="M236.936 197.308C236.883 205.83 240.024 214.063 245.74 220.384C251.396 226.591 259.816 230.708 268.313 229.005C276.138 227.436 282.496 220.598 281.702 212.325C281.571 210.533 281.05 208.792 280.176 207.222C279.303 205.652 278.097 204.291 276.644 203.235C275.19 202.179 273.524 201.452 271.761 201.106C269.998 200.76 268.181 200.802 266.436 201.23C259.003 203.159 256.041 213.871 262.235 218.899C263.721 220.106 265.856 217.996 264.356 216.778C260.262 213.454 261.527 206.182 266.469 204.359C272.223 202.236 278.319 206.802 278.732 212.684C279.223 219.659 273.88 224.911 267.328 226.147C260.24 227.485 253.213 223.857 248.41 218.85C242.906 213.036 239.869 205.315 239.936 197.308C239.923 196.919 239.759 196.551 239.479 196.281C239.199 196.01 238.825 195.859 238.436 195.859C238.047 195.859 237.673 196.01 237.393 196.281C237.114 196.551 236.95 196.919 236.936 197.308V197.308Z" fill="white"/>
<path d="M175 182C175 182 198.5 203 218.5 182" stroke="white"/>
</svg>
