<svg width="15" height="9" viewBox="0 0 15 9" fill="none" xmlns="http://www.w3.org/2000/svg">
<path d="M7.50019 2.7002C6.50719 2.7002 5.7002 3.50719 5.7002 4.50019C5.7002 5.4932 6.50719 6.30019 7.50019 6.30019C8.4932 6.30019 9.30019 5.4932 9.30019 4.50019C9.30019 3.50719 8.49317 2.7002 7.50019 2.7002Z" fill="#093B47"/>
<path d="M7.5004 0C4.50039 0 1.9384 1.86598 0.900391 4.5C1.9384 7.13399 4.50039 9 7.5004 9C10.5034 9 13.0624 7.13399 14.1004 4.5C13.0624 1.86598 10.5034 0 7.5004 0ZM7.5004 7.49998C5.8444 7.49998 4.50039 6.15597 4.50039 4.49997C4.50039 2.84397 5.8444 1.49999 7.5004 1.49999C9.15641 1.49999 10.5004 2.844 10.5004 4.5C10.5004 6.156 9.15641 7.49998 7.5004 7.49998Z" fill="#093B47"/>
</svg>
