<svg width="943" height="653" viewBox="0 0 943 653" fill="none" xmlns="http://www.w3.org/2000/svg">
<path d="M903.814 652.023H39.7357C29.3466 652.011 19.3864 647.879 12.0401 640.533C4.69392 633.186 0.561669 623.226 0.549927 612.837V61.4958C0.558393 53.8845 3.58561 46.5875 8.96744 41.2054C14.3493 35.8234 21.6462 32.7959 29.2574 32.7871H913.796C921.539 32.7959 928.962 35.8757 934.437 41.3508C939.912 46.8259 942.991 54.2492 943 61.9921V612.837C942.988 623.226 938.856 633.186 931.51 640.533C924.164 647.879 914.203 652.011 903.814 652.023V652.023Z" fill="#F2F2F2"/>
<path d="M865.812 96.1938H77.7273C67.6499 96.1951 57.9855 100.199 50.8597 107.325C43.7339 114.45 39.7302 124.115 39.7289 134.192V574.83C39.7302 584.908 43.734 594.572 50.8598 601.698C57.9856 608.824 67.6499 612.828 77.7273 612.829H865.812C870.803 612.83 875.745 611.848 880.355 609.939C884.966 608.03 889.156 605.231 892.684 601.702C896.213 598.174 899.012 593.984 900.921 589.373C902.83 584.763 903.812 579.821 903.811 574.83V134.192C903.812 129.202 902.83 124.26 900.921 119.649C899.012 115.038 896.213 110.849 892.684 107.32C889.156 103.792 884.966 100.993 880.355 99.0835C875.745 97.1744 870.803 96.1925 865.812 96.1938V96.1938Z" fill="white"/>
<path d="M942.455 59.2541H0V39.3041C0.0150592 28.8804 4.16419 18.8883 11.5371 11.52C18.91 4.15159 28.9046 0.00864314 39.3283 0H903.126C913.55 0.00856151 923.545 4.1515 930.918 11.5199C938.29 18.8883 942.44 28.8804 942.455 39.3041V59.2541Z" fill="#CCCCCC"/>
<path d="M71.4734 39.8595C77.0916 39.8595 81.6461 35.3051 81.6461 29.6868C81.6461 24.0686 77.0916 19.5142 71.4734 19.5142C65.8552 19.5142 61.3007 24.0686 61.3007 29.6868C61.3007 35.3051 65.8552 39.8595 71.4734 39.8595Z" fill="white"/>
<path d="M110.086 39.8595C115.705 39.8595 120.259 35.3051 120.259 29.6868C120.259 24.0686 115.705 19.5142 110.086 19.5142C104.468 19.5142 99.9136 24.0686 99.9136 29.6868C99.9136 35.3051 104.468 39.8595 110.086 39.8595Z" fill="white"/>
<path d="M148.699 39.8595C154.318 39.8595 158.872 35.3051 158.872 29.6868C158.872 24.0686 154.318 19.5142 148.699 19.5142C143.081 19.5142 138.527 24.0686 138.527 29.6868C138.527 35.3051 143.081 39.8595 148.699 39.8595Z" fill="white"/>
<path d="M569.18 378.921C566.327 545.997 317.805 545.971 314.976 378.916C317.829 211.845 566.351 211.872 569.18 378.921Z" fill="#00B9DA"/>
<path d="M437.033 430.779L436.9 426.029C469.637 430.4 476.687 389.828 443.672 404.996L451.209 349.921L455.915 350.566L449.504 397.415C484.266 392.24 471.408 435.526 437.033 430.779Z" fill="#2F2E41"/>
<path d="M504.768 354.606H479.187V359.356H504.768V354.606Z" fill="#2F2E41"/>
<path d="M424.022 354.606H398.44V359.356H424.022V354.606Z" fill="#2F2E41"/>
<path d="M541.141 594.636C525.812 576.783 505.76 563.613 483.287 556.638C488.275 522.985 448.876 529.635 428.024 529.303C424.662 529.313 421.345 530.073 418.314 531.528C415.283 532.982 412.614 535.095 410.503 537.711C408.391 540.328 406.89 543.382 406.109 546.652C405.327 549.922 405.285 553.326 405.985 556.614C382.054 564.111 360.892 578.552 345.187 598.103C341.39 602.764 337.922 607.684 334.81 612.828H554.416C550.521 606.394 546.079 600.308 541.141 594.636V594.636Z" fill="#2F2E41"/>
<path d="M382.322 318.805C405.877 305.191 434.442 315.635 458.774 321.345C504.938 335.536 569.674 317.766 575.288 262.774C581.13 211.631 511.168 183.127 488.806 234.029L495.317 233.178C422.795 125.401 296.646 129.488 297.475 277.664C297.207 282.241 304.332 282.226 304.599 277.661C301.929 190.343 359.717 130.656 441.405 186.77C460.099 200.41 475.226 218.475 489.165 236.774C497.672 246.308 499.521 205.249 540.239 216.004C585.05 233.364 570.429 297.53 530.375 311.616C480.886 336.9 427.288 287.878 378.725 312.649C377.943 313.143 377.384 313.921 377.165 314.819C376.945 315.718 377.084 316.666 377.55 317.464C378.017 318.263 378.775 318.849 379.665 319.099C380.555 319.349 381.508 319.243 382.322 318.805V318.805Z" fill="#2F2E41"/>
<path d="M389.483 446.48C389.483 446.48 445.293 496.353 492.791 446.48" stroke="#2F2E41"/>
</svg>
