<svg width="704" height="746" viewBox="0 0 704 746" fill="none" xmlns="http://www.w3.org/2000/svg">
<g clip-path="url(#clip0)">
<path d="M195.912 731.466C167.804 731.469 124.153 709.231 84.0548 672.016C79.6009 667.853 75.3676 663.46 71.3724 658.854C71.0783 658.52 70.8813 658.111 70.8027 657.673C70.724 657.235 70.7666 656.783 70.926 656.367C71.0799 655.943 71.3467 655.569 71.6978 655.285C72.0488 655.001 72.4706 654.819 72.9178 654.758L90.4569 652.228C90.8101 652.177 91.1335 652.002 91.3692 651.734C91.6048 651.466 91.7373 651.123 91.7427 650.766C91.7482 650.41 91.6263 650.063 91.3989 649.788C91.1716 649.513 90.8536 649.328 90.5022 649.266L60.5089 643.999C59.8603 643.887 59.2819 643.524 58.8993 642.988C27.2939 598.87 10.0535 544.018 5.52232 528.258C5.40251 527.845 5.39175 527.407 5.49107 526.989C5.59038 526.57 5.79638 526.184 6.08906 525.868C6.38173 525.553 6.7511 525.318 7.16123 525.188C7.57136 525.057 8.00831 525.035 8.42954 525.123C13.276 526.133 23.3555 528.378 36.4099 532.07C36.8327 532.19 37.2167 532.419 37.5235 532.733C37.8303 533.048 38.0492 533.438 38.1582 533.864L39.0937 537.553C39.1815 537.899 39.3896 538.202 39.6807 538.408C39.9719 538.614 40.327 538.71 40.6823 538.678C41.0376 538.646 41.3698 538.489 41.6195 538.234C41.8691 537.979 42.0197 537.643 42.0443 537.287L42.0708 536.902C42.0966 536.526 42.2066 536.162 42.3927 535.835C42.5787 535.507 42.836 535.226 43.1454 535.012C43.4548 534.798 43.8085 534.657 44.1802 534.598C44.5518 534.539 44.9319 534.565 45.2923 534.673C59.643 539.019 73.7575 544.11 87.5786 549.925C87.9359 550.076 88.2534 550.309 88.5064 550.603C88.7594 550.898 88.9411 551.246 89.0373 551.622L94.1035 571.6C94.1911 571.946 94.3992 572.249 94.6903 572.456C94.9815 572.662 95.3367 572.758 95.6921 572.726C96.0475 572.694 96.3798 572.536 96.6294 572.281C96.8791 572.026 97.0296 571.69 97.0541 571.334L97.9522 558.284C97.9797 557.877 98.1061 557.483 98.3204 557.137C98.5347 556.79 98.8304 556.501 99.1819 556.295C99.5333 556.089 99.9297 555.972 100.337 555.954C100.744 555.936 101.149 556.017 101.517 556.192C124.384 567.099 143.266 579.393 157.639 592.732C211.595 642.81 238.987 701.334 218.7 723.193C213.489 728.807 205.626 731.464 195.912 731.466Z" fill="#F2F2F2"/>
<path d="M202.57 731.149C174.613 731.154 138.907 682.587 120.05 616.869C118.389 611.003 117.036 605.054 115.996 599.047C115.917 598.608 115.96 598.157 116.119 597.741C116.278 597.325 116.548 596.96 116.9 596.687C117.251 596.403 117.673 596.221 118.12 596.159C118.567 596.098 119.022 596.16 119.437 596.339L135.759 603.239C136.087 603.378 136.455 603.395 136.795 603.288C137.135 603.18 137.426 602.955 137.615 602.653C137.804 602.35 137.879 601.99 137.826 601.637C137.774 601.284 137.597 600.962 137.328 600.727L114.375 580.715C113.878 580.284 113.57 579.674 113.52 579.017C109.269 524.913 122.863 469.046 127.131 453.212C127.242 452.797 127.459 452.417 127.761 452.11C128.062 451.803 128.438 451.579 128.852 451.46C129.265 451.341 129.703 451.331 130.121 451.432C130.54 451.532 130.925 451.739 131.24 452.032C134.872 455.406 142.346 462.544 151.602 472.441C151.902 472.763 152.112 473.157 152.212 473.585C152.312 474.013 152.298 474.46 152.171 474.881L151.065 478.523C150.961 478.864 150.983 479.231 151.126 479.558C151.268 479.885 151.523 480.151 151.843 480.307C152.164 480.463 152.53 480.5 152.875 480.411C153.221 480.322 153.523 480.112 153.728 479.82L153.95 479.504C154.166 479.196 154.449 478.941 154.777 478.757C155.105 478.573 155.471 478.465 155.847 478.442C156.222 478.418 156.598 478.48 156.947 478.622C157.295 478.764 157.607 478.982 157.86 479.261C167.898 490.399 177.349 502.053 186.175 514.175C186.403 514.49 186.554 514.853 186.619 515.235C186.683 515.618 186.658 516.011 186.547 516.382L180.557 536.103C180.453 536.444 180.475 536.812 180.617 537.139C180.76 537.466 181.015 537.731 181.335 537.887C181.656 538.043 182.022 538.08 182.367 537.991C182.713 537.902 183.015 537.692 183.22 537.4L190.735 526.693C190.966 526.354 191.278 526.079 191.643 525.892C192.008 525.706 192.415 525.615 192.824 525.627C193.23 525.632 193.629 525.737 193.985 525.932C194.342 526.127 194.645 526.406 194.868 526.745C208.805 547.902 218.614 568.187 224.022 587.035C244.326 657.793 237.524 722.051 208.859 730.277C206.814 730.861 204.697 731.154 202.57 731.149Z" fill="#F2F2F2"/>
<path d="M352 745.194C546.404 745.194 704 737.135 704 727.194C704 717.253 546.404 709.194 352 709.194C157.596 709.194 0 717.253 0 727.194C0 737.135 157.596 745.194 352 745.194Z" fill="#E6E6E6"/>
<path d="M557.654 172.947H553.655V63.4019C553.655 46.5867 546.975 30.4602 535.085 18.57C523.195 6.67985 507.068 2.12174e-05 490.253 1.33483e-10H258.166C241.351 -3.44781e-05 225.225 6.67975 213.334 18.5699C201.444 30.46 194.764 46.5865 194.764 63.4017V664.376C194.764 681.191 201.444 697.318 213.334 709.208C225.224 721.098 241.351 727.778 258.166 727.778H490.253C507.068 727.778 523.194 721.098 535.085 709.208C546.975 697.318 553.655 681.192 553.655 664.376V250.923H557.653L557.654 172.947Z" fill="#3F3D56"/>
<path d="M540.16 63.8444V663.934C540.16 676.492 535.171 688.536 526.291 697.416C517.411 706.295 505.368 711.284 492.81 711.284H259.61C247.052 711.284 235.009 706.295 226.129 697.416C217.249 688.536 212.26 676.492 212.26 663.934V63.8444C212.26 51.2865 217.249 39.2429 226.129 30.3631C235.009 21.4833 247.052 16.4946 259.61 16.4944H287.9C286.51 19.9104 285.981 23.6156 286.358 27.2842C286.736 30.9527 288.01 34.4722 290.067 37.5331C292.125 40.5939 294.903 43.1022 298.157 44.8375C301.411 46.5727 305.042 47.4817 308.73 47.4844H441.69C445.378 47.4816 449.009 46.5727 452.263 44.8374C455.517 43.1022 458.295 40.5938 460.353 37.533C462.41 34.4722 463.684 30.9527 464.061 27.2841C464.439 23.6156 463.91 19.9104 462.52 16.4944H492.81C505.368 16.4946 517.411 21.4833 526.291 30.3631C535.171 39.2429 540.16 51.2865 540.16 63.8444Z" fill="white"/>
<path d="M505.139 132.719H247.279C242.905 132.725 238.712 134.465 235.619 137.558C232.526 140.651 230.785 144.845 230.779 149.219V449.219C230.785 453.593 232.525 457.787 235.619 460.88C238.712 463.973 242.905 465.713 247.279 465.719H505.139C507.988 465.718 510.788 464.979 513.267 463.573C515.745 462.168 517.816 460.144 519.279 457.699C519.548 457.27 519.792 456.826 520.009 456.369C520.858 454.607 521.383 452.707 521.559 450.759C521.616 450.248 521.643 449.733 521.639 449.219V149.219C521.635 144.844 519.895 140.65 516.802 137.556C513.708 134.463 509.514 132.723 505.139 132.719Z" fill="#E6E6E6"/>
<path d="M376.21 647.219C407.69 647.219 433.21 621.699 433.21 590.219C433.21 558.739 407.69 533.219 376.21 533.219C344.73 533.219 319.21 558.739 319.21 590.219C319.21 621.699 344.73 647.219 376.21 647.219Z" fill="#00B9DA"/>
<path d="M378.267 251.33C412.504 251.33 440.259 223.576 440.259 189.339C440.259 155.102 412.504 127.348 378.267 127.348C344.031 127.348 316.276 155.102 316.276 189.339C316.276 223.576 344.031 251.33 378.267 251.33Z" fill="#2F2E41"/>
<path d="M521.559 413.229V450.759C521.383 452.707 520.858 454.607 520.009 456.369C519.792 456.826 519.548 457.27 519.279 457.699L509.189 448.409L452.839 396.459L452.829 396.449L402.959 350.469L437.649 323.589L477.579 366.249L521.559 413.229Z" fill="#FFB8B8"/>
<path d="M409.28 244.373C427.298 226.354 427.298 197.141 409.28 179.123C391.262 161.105 362.049 161.105 344.03 179.123C326.012 197.141 326.012 226.354 344.03 244.373C362.049 262.391 391.262 262.391 409.28 244.373Z" fill="#FFB8B8"/>
<path d="M408.043 466.219H282.841L283.041 465.571C289.039 446.193 292.171 415.134 292.349 373.257C292.405 360.869 292.196 347.555 291.729 333.686C290.904 308.371 289.377 285.558 288.241 270.877C288.052 268.413 288.365 265.936 289.162 263.596C289.958 261.257 291.221 259.103 292.875 257.266C294.528 255.429 296.537 253.947 298.781 252.909C301.024 251.871 303.454 251.3 305.925 251.229C314.736 251.016 323.473 252.889 331.423 256.695C342.909 262.218 355.015 266.349 367.482 268.998C390.78 273.792 412.615 284.025 431.206 298.863L432.609 299.993C453.839 317.075 469.702 339.906 478.303 365.761L478.387 366.011L455.59 396.108C455.28 396.515 454.854 396.818 454.367 396.975C453.881 397.133 453.358 397.138 452.868 396.99L452.563 396.89L430.188 390.002C413.508 423.71 427.07 443.308 429.968 446.906C430.17 447.161 430.289 447.292 430.296 447.3L430.599 447.628L430.308 447.965C423.999 455.229 416.512 461.378 408.159 466.152L408.043 466.219Z" fill="#00B9DA"/>
<path d="M521.559 450.429V450.759C521.383 452.707 520.858 454.607 520.009 456.369C519.792 456.826 519.548 457.27 519.279 457.699C517.816 460.144 515.745 462.168 513.267 463.573C510.788 464.979 507.988 465.718 505.139 465.719H331.459L424.289 447.629C424.289 447.629 426.209 447.449 429.579 447.219C442.789 446.279 478.409 444.389 509.189 448.409C513.429 448.969 517.579 449.629 521.559 450.429Z" fill="#2F2E41"/>
<path d="M422.682 182.324C404.664 193.323 384.35 200.017 363.322 201.883L369.579 194.386C364.95 195.827 360.224 197.282 355.376 197.206C350.528 197.131 345.448 195.264 342.696 191.272C340.056 187.441 340.006 182.228 341.728 177.906C343.45 173.584 346.73 170.05 350.349 167.126C356.99 161.873 364.827 158.344 373.162 156.855C381.498 155.365 390.072 155.961 398.121 158.588C403.547 160.421 408.783 163.292 412.389 167.741C415.996 172.19 417.735 178.402 415.888 183.823L422.682 182.324Z" fill="#2F2E41"/>
<path d="M372.432 134.229C386.984 119.472 404.594 108.085 424.022 100.868C436.493 96.248 450.067 93.3935 463.105 96.0172C476.143 98.641 488.473 107.66 492.11 120.453C495.084 130.913 492.013 142.175 487.397 152.022C482.782 161.869 476.619 171 472.887 181.214C469.078 191.636 467.933 202.844 469.554 213.821C471.176 224.798 475.514 235.197 482.174 244.072C488.833 252.947 497.604 260.019 507.69 264.645C517.776 269.27 528.858 271.304 539.929 270.561C527.119 272.278 515.311 278.298 502.789 281.503C490.268 284.707 475.489 284.49 466.184 275.519C456.339 266.028 456.142 250.597 456.618 236.93L458.741 175.981C459.101 165.621 459.41 154.928 455.673 145.257C451.937 135.587 443.057 127.119 432.69 127.207C424.833 127.274 417.879 132.033 411.578 136.727C405.277 141.421 398.608 146.429 390.782 147.128C382.955 147.826 374.02 142.034 374.605 134.199L372.432 134.229Z" fill="#2F2E41"/>
<path d="M306.569 336.739L301.749 377.489L291.299 465.719H257.539L262.279 358.749L263.659 327.539L292.229 333.669L306.569 336.739Z" fill="#FFB8B8"/>
<path d="M341.416 396.899L250.68 351.08C249.691 350.582 248.921 349.736 248.517 348.705C248.113 347.674 248.104 346.53 248.491 345.492L279.876 261.241C281.333 257.329 285.136 253.954 290.586 251.737C297.884 248.77 306.749 248.478 312.143 251.027L312.527 251.209L310.445 258.494L341.416 396.899Z" fill="#00B9DA"/>
</g>
<defs>
<clipPath id="clip0">
<rect width="704" height="745.194" fill="white"/>
</clipPath>
</defs>
</svg>
