<svg width="162" height="171" viewBox="0 0 162 171" fill="none" xmlns="http://www.w3.org/2000/svg">
<path d="M45.082 167.85C38.614 167.85 28.5693 162.748 19.3421 154.208C18.3172 153.252 17.3431 152.244 16.4237 151.188C16.3561 151.111 16.3107 151.017 16.2926 150.916C16.2745 150.816 16.2843 150.712 16.321 150.617C16.3564 150.519 16.4178 150.434 16.4986 150.368C16.5794 150.303 16.6764 150.262 16.7793 150.247L20.8153 149.667C20.8966 149.655 20.971 149.615 21.0253 149.554C21.0795 149.492 21.11 149.413 21.1112 149.332C21.1125 149.25 21.0844 149.17 21.0321 149.107C20.9798 149.044 20.9066 149.001 20.8258 148.987L13.9239 147.779C13.7746 147.753 13.6415 147.67 13.5535 147.547C6.28065 137.423 2.31341 124.836 1.27072 121.22C1.24316 121.125 1.24068 121.024 1.26353 120.928C1.28639 120.832 1.33379 120.744 1.40114 120.671C1.46849 120.599 1.55348 120.545 1.64786 120.515C1.74224 120.485 1.84278 120.48 1.93972 120.5C3.05495 120.732 5.37439 121.247 8.37838 122.094C8.47568 122.122 8.56404 122.174 8.63464 122.247C8.70524 122.319 8.7556 122.408 8.78068 122.506L8.99596 123.352C9.01616 123.432 9.06405 123.501 9.13104 123.549C9.19803 123.596 9.27975 123.618 9.36151 123.611C9.44327 123.603 9.51973 123.567 9.57717 123.509C9.63461 123.45 9.66927 123.373 9.67493 123.292L9.68102 123.203C9.68697 123.117 9.71229 123.033 9.7551 122.958C9.7979 122.883 9.8571 122.819 9.92831 122.769C9.99951 122.72 10.0809 122.688 10.1664 122.674C10.2519 122.661 10.3394 122.667 10.4223 122.692C13.7246 123.689 16.9726 124.857 20.153 126.191C20.2352 126.226 20.3083 126.279 20.3665 126.347C20.4247 126.415 20.4665 126.495 20.4887 126.581L21.6545 131.165C21.6746 131.245 21.7225 131.314 21.7895 131.362C21.8565 131.409 21.9382 131.431 22.02 131.424C22.1018 131.416 22.1783 131.38 22.2357 131.321C22.2932 131.263 22.3278 131.186 22.3334 131.104L22.5401 128.109C22.5464 128.016 22.5755 127.926 22.6248 127.846C22.6741 127.767 22.7422 127.701 22.8231 127.653C22.9039 127.606 22.9952 127.579 23.0888 127.575C23.1825 127.571 23.2758 127.589 23.3605 127.629C28.6224 130.132 32.9674 132.953 36.2747 136.014C48.6908 147.506 54.9941 160.935 50.3258 165.951C49.1268 167.239 47.3173 167.849 45.082 167.85Z" fill="#F2F2F2"/>
<path d="M46.6144 167.777C40.181 167.778 31.9647 156.634 27.6253 141.553C27.2431 140.207 26.9317 138.842 26.6924 137.464C26.6743 137.363 26.6841 137.259 26.7208 137.164C26.7574 137.068 26.8196 136.985 26.9004 136.922C26.9812 136.857 27.0783 136.815 27.1812 136.801C27.2841 136.787 27.3888 136.801 27.4842 136.842L31.2401 138.426C31.3157 138.457 31.4003 138.461 31.4785 138.437C31.5568 138.412 31.6237 138.36 31.6672 138.291C31.7107 138.222 31.728 138.139 31.7159 138.058C31.7038 137.977 31.6632 137.903 31.6013 137.849L26.3195 133.257C26.205 133.158 26.1343 133.018 26.1227 132.867C25.1444 120.452 28.2727 107.632 29.2548 103.999C29.2804 103.903 29.3303 103.816 29.3997 103.746C29.469 103.675 29.5555 103.624 29.6507 103.597C29.7459 103.569 29.8465 103.567 29.9428 103.59C30.0391 103.613 30.1278 103.661 30.2003 103.728C31.036 104.502 32.756 106.14 34.8858 108.411C34.9548 108.485 35.0032 108.576 35.0262 108.674C35.0492 108.772 35.046 108.875 35.0168 108.971L34.7623 109.807C34.7385 109.885 34.7434 109.969 34.7763 110.044C34.8091 110.119 34.8677 110.18 34.9414 110.216C35.0152 110.252 35.0994 110.261 35.1789 110.24C35.2584 110.22 35.3279 110.172 35.3751 110.105L35.4262 110.032C35.4759 109.961 35.541 109.903 35.6165 109.86C35.6921 109.818 35.7762 109.794 35.8626 109.788C35.949 109.783 36.0356 109.797 36.1158 109.83C36.196 109.862 36.2678 109.912 36.3259 109.976C38.6359 112.532 40.8107 115.206 42.8416 117.988C42.894 118.06 42.9289 118.143 42.9437 118.231C42.9585 118.319 42.9528 118.409 42.9271 118.494L41.5488 123.02C41.525 123.098 41.5299 123.182 41.5627 123.257C41.5955 123.332 41.6541 123.393 41.7279 123.429C41.8017 123.465 41.8859 123.474 41.9654 123.453C42.0449 123.433 42.1144 123.385 42.1616 123.318L43.8909 120.86C43.944 120.783 44.0159 120.72 44.0999 120.677C44.1839 120.634 44.2774 120.613 44.3717 120.616C44.4652 120.617 44.5569 120.641 44.6389 120.686C44.7208 120.731 44.7906 120.795 44.842 120.872C48.0491 125.727 50.3062 130.382 51.5508 134.707C56.223 150.944 54.6577 165.689 48.0614 167.577C47.5908 167.711 47.1037 167.778 46.6144 167.777Z" fill="#F2F2F2"/>
<path d="M81 171C125.735 171 162 169.151 162 166.869C162 164.588 125.735 162.739 81 162.739C36.2649 162.739 0 164.588 0 166.869C0 169.151 36.2649 171 81 171Z" fill="#E6E6E6"/>
<path d="M128.324 39.6863H127.404V14.5489C127.404 10.6903 125.867 6.98971 123.131 4.26127C120.395 1.53283 116.684 4.86877e-06 112.814 0H59.408C55.5386 -7.91169e-06 51.8277 1.5328 49.0916 4.26123C46.3555 6.98967 44.8184 10.6902 44.8184 14.5488V152.455C44.8184 156.313 46.3555 160.014 49.0916 162.742C51.8276 165.471 55.5386 167.003 59.408 167.003H112.814C116.684 167.003 120.395 165.471 123.131 162.742C125.867 160.014 127.404 156.313 127.404 152.455V57.5795H128.324L128.324 39.6863Z" fill="#3F3D56"/>
<path d="M124.298 14.6503V152.353C124.298 155.235 123.15 157.998 121.107 160.036C119.063 162.074 116.292 163.219 113.402 163.219H59.7396C56.8499 163.219 54.0785 162.074 52.0351 160.036C49.9918 157.998 48.8438 155.235 48.8438 152.353V14.6503C48.8438 11.7687 49.9918 9.00503 52.0351 6.96738C54.0785 4.92973 56.8499 3.78497 59.7396 3.78491H66.2495C65.9297 4.56878 65.8078 5.41902 65.8948 6.26085C65.9818 7.10268 66.2749 7.9103 66.7483 8.61266C67.2217 9.31503 67.861 9.89062 68.6098 10.2888C69.3587 10.687 70.1941 10.8956 71.0428 10.8962H101.639C102.487 10.8956 103.323 10.687 104.072 10.2888C104.821 9.89061 105.46 9.31501 105.933 8.61265C106.407 7.91028 106.7 7.10267 106.787 6.26084C106.874 5.41902 106.752 4.56878 106.432 3.78491H113.402C116.292 3.78497 119.063 4.92973 121.107 6.96738C123.15 9.00503 124.298 11.7687 124.298 14.6503Z" fill="white"/>
<path d="M116.239 30.4551H56.9023C55.8958 30.4564 54.9308 30.8558 54.2191 31.5656C53.5073 32.2753 53.1068 33.2376 53.1055 34.2413V103.082C53.1068 104.086 53.5073 105.048 54.2191 105.758C54.9308 106.468 55.8958 106.867 56.9023 106.869H116.239C116.895 106.869 117.539 106.699 118.11 106.376C118.68 106.054 119.157 105.589 119.493 105.028C119.555 104.93 119.611 104.828 119.661 104.723C119.857 104.319 119.977 103.883 120.018 103.436C120.031 103.318 120.037 103.2 120.036 103.082V34.2413C120.035 33.2375 119.635 32.275 118.923 31.5651C118.211 30.8553 117.246 30.4561 116.239 30.4551Z" fill="#E6E6E6"/>
<path d="M86.5716 148.518C93.8156 148.518 99.688 142.662 99.688 135.438C99.688 128.214 93.8156 122.358 86.5716 122.358C79.3275 122.358 73.4551 128.214 73.4551 135.438C73.4551 142.662 79.3275 148.518 86.5716 148.518Z" fill="#00B9DA"/>
<path d="M87.0443 57.6728C94.9226 57.6728 101.309 51.304 101.309 43.4477C101.309 35.5913 94.9226 29.2225 87.0443 29.2225C79.166 29.2225 72.7793 35.5913 72.7793 43.4477C72.7793 51.304 79.166 57.6728 87.0443 57.6728Z" fill="#2F2E41"/>
<path d="M120.018 94.8237V103.436C119.978 103.883 119.857 104.319 119.661 104.723C119.611 104.828 119.555 104.93 119.493 105.028L117.171 102.897L104.205 90.9755L104.202 90.9732L92.7266 80.4222L100.709 74.254L109.898 84.0432L120.018 94.8237Z" fill="#FFB8B8"/>
<path d="M94.1804 56.0763C98.3266 51.9416 98.3266 45.2381 94.1804 41.1034C90.0342 36.9688 83.3118 36.9688 79.1656 41.1034C75.0194 45.2381 75.0194 51.9416 79.1656 56.0763C83.3118 60.2109 90.0342 60.2109 94.1804 56.0763Z" fill="#FFB8B8"/>
<path d="M93.8967 106.984H65.0859L65.1321 106.835C66.5123 102.388 67.2329 95.261 67.2739 85.6515C67.2867 82.8088 67.2387 79.7536 67.1313 76.571C66.9414 70.7619 66.59 65.527 66.3285 62.1584C66.2851 61.5929 66.3572 61.0245 66.5405 60.4876C66.7238 59.9507 67.0145 59.4565 67.3949 59.035C67.7754 58.6134 68.2377 58.2733 68.7539 58.0351C69.2701 57.797 69.8294 57.6659 70.3979 57.6496C72.4255 57.6007 74.4359 58.0305 76.2653 58.9039C78.9085 60.1714 81.6941 61.1191 84.563 61.727C89.9242 62.8271 94.9487 65.1754 99.2268 68.5802L99.5497 68.8396C104.435 72.7592 108.085 77.9984 110.065 83.9313L110.084 83.9887L104.838 90.8952C104.767 90.9885 104.668 91.0579 104.557 91.0941C104.445 91.1302 104.324 91.1314 104.212 91.0975L104.141 91.0746L98.9925 89.4938C95.1541 97.2288 98.2751 101.726 98.942 102.552C98.9883 102.61 99.0157 102.64 99.0175 102.642L99.087 102.717L99.0201 102.795C97.5685 104.462 95.8454 105.873 93.9234 106.968L93.8967 106.984Z" fill="#00B9DA"/>
<path d="M120.018 103.36V103.436C119.978 103.883 119.857 104.319 119.661 104.723C119.611 104.828 119.555 104.93 119.493 105.028C119.157 105.589 118.68 106.054 118.11 106.376C117.539 106.699 116.895 106.869 116.239 106.869H76.2734L97.6348 102.718C97.6348 102.718 98.0767 102.676 98.8521 102.624C101.892 102.408 110.089 101.974 117.171 102.897C118.147 103.025 119.102 103.177 120.018 103.36Z" fill="#2F2E41"/>
<path d="M97.264 41.838C93.1177 44.362 88.4433 45.8979 83.6045 46.3262L85.0443 44.6058C83.979 44.9364 82.8915 45.2704 81.7759 45.253C80.6603 45.2357 79.4914 44.8073 78.8582 43.8912C78.2507 43.0122 78.2392 41.816 78.6354 40.8242C79.0316 39.8324 79.7864 39.0214 80.6192 38.3505C82.1474 37.1451 83.9508 36.3354 85.8689 35.9935C87.7869 35.6517 89.76 35.7884 91.6122 36.3914C92.8608 36.8119 94.0657 37.4707 94.8955 38.4916C95.7254 39.5124 96.1256 40.9379 95.7007 42.1819L97.264 41.838Z" fill="#2F2E41"/>
<path d="M85.7012 30.8016C89.0498 27.4154 93.102 24.8023 97.5727 23.1463C100.442 22.0861 103.566 21.4311 106.566 22.0331C109.566 22.6352 112.404 24.7049 113.241 27.6403C113.925 30.0407 113.218 32.6251 112.156 34.8846C111.094 37.1441 109.676 39.2394 108.817 41.5833C107.941 43.9748 107.677 46.5468 108.05 49.0657C108.423 51.5846 109.422 53.9707 110.954 56.0073C112.487 58.0439 114.505 59.6667 116.826 60.7281C119.147 61.7896 121.697 62.2563 124.244 62.0857C121.297 62.4798 118.579 63.8613 115.698 64.5966C112.817 65.3319 109.416 65.282 107.275 63.2235C105.009 61.0456 104.964 57.5045 105.073 54.3684L105.562 40.3825C105.645 38.005 105.716 35.5513 104.856 33.3323C103.996 31.1132 101.953 29.17 99.5672 29.1902C97.7592 29.2055 96.159 30.2977 94.7091 31.3749C93.2591 32.452 91.7245 33.6012 89.9236 33.7614C88.1226 33.9216 86.0664 32.5926 86.2012 30.7946L85.7012 30.8016Z" fill="#2F2E41"/>
<path d="M70.5461 77.2717L69.437 86.6226L67.0323 106.869H59.2637L60.3544 82.3223L60.672 75.1605L67.2463 76.5672L70.5461 77.2717Z" fill="#FFB8B8"/>
<path d="M78.5639 91.0766L57.6842 80.5624C57.4566 80.448 57.2794 80.2539 57.1865 80.0173C57.0936 79.7807 57.0915 79.5182 57.1806 79.2801L64.4026 59.9471C64.7379 59.0492 65.6132 58.2748 66.8671 57.7662C68.5465 57.0852 70.5865 57.0183 71.8277 57.6032L71.916 57.6448L71.437 59.3167L78.5639 91.0766Z" fill="#00B9DA"/>
</svg>
