<svg width="255" height="126" viewBox="0 0 255 126" fill="none" xmlns="http://www.w3.org/2000/svg">
<g clip-path="url(#clip0)">
<path d="M146.215 123.306C144.637 123.304 143.124 122.678 142.008 121.564C140.893 120.45 140.266 118.939 140.266 117.365C140.266 115.79 140.893 114.279 142.008 113.165C143.124 112.051 144.637 111.425 146.215 111.424H234.647C234.202 110.609 233.546 109.928 232.747 109.454C231.947 108.98 231.035 108.73 230.105 108.729H54.3265C52.0332 108.732 49.8347 109.643 48.2141 111.262C46.5935 112.881 45.6833 115.076 45.6836 117.365C45.6848 119.653 46.5954 121.847 48.2157 123.466C49.836 125.085 52.0336 125.996 54.3265 126H230.105C231.035 125.999 231.947 125.749 232.746 125.275C233.546 124.8 234.202 124.12 234.647 123.306L146.215 123.306Z" fill="#CCCCCC"/>
<path d="M234.764 114.697H150.686C150.557 114.697 150.434 114.645 150.343 114.555C150.252 114.464 150.201 114.34 150.201 114.212C150.201 114.084 150.252 113.96 150.343 113.87C150.434 113.779 150.557 113.727 150.686 113.727H234.764C234.893 113.727 235.016 113.779 235.107 113.87C235.198 113.96 235.249 114.084 235.249 114.212C235.249 114.34 235.198 114.464 235.107 114.555C235.016 114.645 234.893 114.697 234.764 114.697Z" fill="#CCCCCC"/>
<path d="M234.765 117.849H150.687C150.558 117.849 150.435 117.798 150.344 117.707C150.252 117.616 150.201 117.493 150.201 117.364C150.201 117.236 150.252 117.113 150.344 117.022C150.435 116.931 150.558 116.88 150.687 116.88H234.765C234.894 116.88 235.018 116.931 235.109 117.022C235.2 117.113 235.251 117.236 235.251 117.364C235.251 117.493 235.2 117.616 235.109 117.707C235.018 117.798 234.894 117.849 234.765 117.849Z" fill="#CCCCCC"/>
<path d="M234.764 121.002H150.686C150.557 121.002 150.434 120.95 150.343 120.859C150.252 120.768 150.201 120.645 150.201 120.517C150.201 120.388 150.252 120.265 150.343 120.174C150.434 120.083 150.557 120.032 150.686 120.032H234.764C234.893 120.032 235.016 120.083 235.107 120.174C235.198 120.265 235.249 120.388 235.249 120.517C235.249 120.645 235.198 120.768 235.107 120.859C235.016 120.95 234.893 121.002 234.764 121.002Z" fill="#CCCCCC"/>
<path d="M123.374 106.574C121.795 106.573 120.282 105.946 119.167 104.832C118.051 103.718 117.424 102.208 117.424 100.633C117.424 99.0576 118.051 97.5471 119.167 96.4331C120.282 95.3191 121.795 94.6927 123.374 94.6916H211.805C211.36 93.8768 210.704 93.1966 209.905 92.7225C209.106 92.2483 208.193 91.9978 207.263 91.9971H31.4848C29.1915 91.9997 26.993 92.9106 25.3724 94.5299C23.7518 96.1491 22.8416 98.3441 22.8418 100.633C22.843 102.921 23.7536 105.115 25.3739 106.734C26.9943 108.353 29.1919 109.264 31.4848 109.268H207.263C208.193 109.267 209.106 109.017 209.905 108.543C210.704 108.069 211.36 107.388 211.805 106.574L123.374 106.574Z" fill="#00B9DA"/>
<path d="M211.922 97.9652H127.844C127.716 97.9649 127.592 97.9137 127.501 97.8227C127.41 97.7318 127.359 97.6086 127.359 97.4802C127.359 97.3518 127.41 97.2286 127.501 97.1377C127.592 97.0468 127.716 96.9955 127.844 96.9952H211.922C212.051 96.9952 212.175 97.0463 212.266 97.1373C212.357 97.2282 212.408 97.3516 212.408 97.4802C212.408 97.6088 212.357 97.7322 212.266 97.8232C212.175 97.9141 212.051 97.9652 211.922 97.9652Z" fill="#CCCCCC"/>
<path d="M211.923 101.118H127.845C127.716 101.118 127.593 101.067 127.502 100.976C127.411 100.885 127.359 100.761 127.359 100.633C127.359 100.504 127.411 100.381 127.502 100.29C127.593 100.199 127.716 100.148 127.845 100.148H211.923C212.052 100.148 212.176 100.199 212.267 100.29C212.358 100.381 212.409 100.504 212.409 100.633C212.409 100.761 212.358 100.885 212.267 100.976C212.176 101.067 212.052 101.118 211.923 101.118Z" fill="#CCCCCC"/>
<path d="M211.922 104.27H127.844C127.716 104.27 127.592 104.218 127.501 104.128C127.41 104.037 127.359 103.913 127.359 103.785C127.359 103.657 127.41 103.533 127.501 103.442C127.592 103.352 127.716 103.3 127.844 103.3H211.922C211.986 103.3 212.049 103.312 212.108 103.337C212.168 103.361 212.221 103.397 212.266 103.442C212.312 103.487 212.348 103.54 212.372 103.599C212.397 103.658 212.409 103.721 212.409 103.785C212.409 103.849 212.397 103.912 212.372 103.971C212.348 104.03 212.312 104.083 212.266 104.128C212.221 104.173 212.168 104.209 212.108 104.233C212.049 104.258 211.986 104.27 211.922 104.27Z" fill="#CCCCCC"/>
<path d="M100.532 89.2835C98.9536 89.2824 97.4403 88.656 96.3247 87.5419C95.2091 86.4279 94.5824 84.9174 94.5824 83.3425C94.5824 81.7675 95.2091 80.257 96.3247 79.143C97.4403 78.0289 98.9536 77.4025 100.532 77.4014H188.963C188.519 76.5867 187.862 75.9065 187.063 75.4323C186.264 74.9582 185.351 74.7076 184.422 74.7069H8.64287C6.34956 74.7095 4.15108 75.6205 2.53047 77.2397C0.909867 78.8589 -0.000285333 81.0539 6.71002e-08 83.3424C0.00116032 85.6305 0.911776 87.8247 2.53207 89.4436C4.15236 91.0625 6.35 91.9739 8.64287 91.978H184.422C185.351 91.9773 186.264 91.7267 187.063 91.2525C187.862 90.7784 188.519 90.0982 188.963 89.2835L100.532 89.2835Z" fill="#CCCCCC"/>
<path d="M189.08 80.675H105.002C104.874 80.6747 104.75 80.6235 104.66 80.5326C104.569 80.4417 104.518 80.3185 104.518 80.1901C104.518 80.0616 104.569 79.9385 104.66 79.8475C104.75 79.7566 104.874 79.7054 105.002 79.7051H189.08C189.209 79.7051 189.333 79.7562 189.424 79.8471C189.515 79.9381 189.566 80.0614 189.566 80.1901C189.566 80.3187 189.515 80.4421 189.424 80.533C189.333 80.624 189.209 80.675 189.08 80.675Z" fill="#CCCCCC"/>
<path d="M189.081 83.8275H105.004C104.94 83.8275 104.877 83.815 104.818 83.7906C104.759 83.7662 104.705 83.7305 104.66 83.6855C104.615 83.6404 104.579 83.587 104.555 83.5281C104.53 83.4693 104.518 83.4062 104.518 83.3425C104.518 83.2788 104.53 83.2158 104.555 83.1569C104.579 83.0981 104.615 83.0446 104.66 82.9996C104.705 82.9546 104.759 82.9188 104.818 82.8945C104.877 82.8701 104.94 82.8575 105.004 82.8575H189.081C189.145 82.8575 189.208 82.8701 189.267 82.8945C189.326 82.9188 189.38 82.9546 189.425 82.9996C189.47 83.0446 189.506 83.0981 189.53 83.1569C189.555 83.2158 189.567 83.2788 189.567 83.3425C189.567 83.4062 189.555 83.4693 189.53 83.5281C189.506 83.587 189.47 83.6404 189.425 83.6855C189.38 83.7305 189.326 83.7662 189.267 83.7906C189.208 83.815 189.145 83.8275 189.081 83.8275Z" fill="#CCCCCC"/>
<path d="M189.081 86.9798H105.004C104.875 86.9798 104.751 86.9287 104.66 86.8378C104.569 86.7468 104.518 86.6235 104.518 86.4949C104.518 86.3662 104.569 86.2429 104.66 86.1519C104.751 86.061 104.875 86.0099 105.004 86.0099H189.081C189.145 86.0099 189.208 86.0224 189.267 86.0468C189.326 86.0712 189.38 86.1069 189.425 86.1519C189.47 86.197 189.506 86.2504 189.53 86.3093C189.555 86.3681 189.567 86.4312 189.567 86.4949C189.567 86.5585 189.555 86.6216 189.53 86.6805C189.506 86.7393 189.47 86.7928 189.425 86.8378C189.38 86.8828 189.326 86.9186 189.267 86.9429C189.208 86.9673 189.145 86.9798 189.081 86.9798Z" fill="#CCCCCC"/>
<path d="M191.023 52.3987C190.562 52.3979 190.118 52.2224 189.782 51.9075C189.445 51.5927 189.241 51.1621 189.211 50.7028L188.941 46.5916C188.91 46.1114 189.071 45.6384 189.389 45.2766C189.707 44.9148 190.156 44.6939 190.637 44.6625L222.914 42.5531C223.423 42.5198 223.933 42.5869 224.416 42.7505C224.899 42.9141 225.344 43.1709 225.728 43.5064C226.111 43.8419 226.424 44.2495 226.65 44.7058C226.875 45.1622 227.009 45.6584 227.042 46.1661C227.075 46.6738 227.008 47.1831 226.844 47.6649C226.68 48.1467 226.423 48.5916 226.087 48.9741C225.75 49.3566 225.342 49.6693 224.885 49.8943C224.427 50.1193 223.93 50.2522 223.421 50.2855L191.144 52.3947C191.104 52.3973 191.063 52.3986 191.023 52.3987Z" fill="#00B9DA"/>
<path d="M197.387 52.9288C196.917 52.928 196.465 52.7457 196.127 52.4201C195.788 52.0945 195.589 51.6508 195.571 51.182L195.341 45.0414C195.332 44.8033 195.37 44.5658 195.453 44.3424C195.537 44.119 195.663 43.9142 195.825 43.7395C195.988 43.5649 196.183 43.4238 196.4 43.3245C196.617 43.2252 196.852 43.1695 197.09 43.1606L223.632 42.1707C224.114 42.1527 224.584 42.3266 224.937 42.6539C225.291 42.9812 225.499 43.4353 225.517 43.9161L225.747 50.0567C225.756 50.2948 225.718 50.5323 225.635 50.7557C225.552 50.9791 225.426 51.184 225.263 51.3586C225.101 51.5333 224.905 51.6743 224.688 51.7736C224.471 51.8729 224.237 51.9286 223.998 51.9375L197.456 52.9274C197.433 52.9284 197.41 52.9288 197.387 52.9288Z" fill="#2F2E41"/>
<path d="M228.49 109.533H224.361C223.879 109.533 223.417 109.341 223.076 109.001C222.735 108.661 222.544 108.2 222.543 107.719V73.3805C222.544 72.8994 222.735 72.4382 223.076 72.0981C223.417 71.7579 223.879 71.5666 224.361 71.566H228.49C228.972 71.5666 229.434 71.7579 229.775 72.0981C230.116 72.4382 230.308 72.8994 230.308 73.3805V107.719C230.308 108.2 230.116 108.661 229.775 109.001C229.434 109.341 228.972 109.533 228.49 109.533Z" fill="#2F2E41"/>
<path d="M210.165 91.3823L206.635 89.2467C206.223 88.9969 205.927 88.5942 205.812 88.127C205.697 87.6598 205.773 87.1663 206.022 86.7546L223.859 57.3895C224.109 56.9784 224.513 56.6832 224.981 56.5686C225.449 56.4541 225.944 56.5295 226.356 56.7784L229.887 58.914C230.299 59.1638 230.595 59.5665 230.71 60.0337C230.824 60.5009 230.749 60.9945 230.499 61.4061L212.663 90.7712C212.412 91.1823 212.009 91.4775 211.541 91.5921C211.073 91.7067 210.578 91.6312 210.165 91.3823Z" fill="#2F2E41"/>
<path d="M222.219 35.7302C230.098 35.7302 236.485 29.3565 236.485 21.494C236.485 13.6316 230.098 7.25781 222.219 7.25781C214.34 7.25781 207.953 13.6316 207.953 21.494C207.953 29.3565 214.34 35.7302 222.219 35.7302Z" fill="#00B9DA"/>
<path d="M214.498 26.3548C214.039 26.2044 213.618 25.9576 213.263 25.6311C213.027 25.398 212.846 25.1163 212.731 24.8058C212.616 24.4954 212.57 24.1636 212.597 23.8337C212.612 23.5987 212.682 23.3703 212.8 23.1664C212.918 22.9625 213.081 22.7885 213.278 22.6582C213.788 22.3316 214.47 22.3307 215.165 22.6362L215.139 17.0786L215.698 17.0759L215.729 23.6095L215.298 23.3389C214.798 23.0257 214.084 22.8052 213.58 23.1282C213.455 23.2135 213.352 23.3264 213.278 23.458C213.204 23.5896 213.162 23.7365 213.154 23.8871C213.136 24.1328 213.17 24.3797 213.255 24.611C213.341 24.8422 213.475 25.0524 213.649 25.2273C214.267 25.8161 215.168 26.0003 216.196 26.1648L216.107 26.716C215.561 26.6438 215.022 26.5229 214.498 26.3548Z" fill="#2F2E41"/>
<path d="M209.372 16.7978L209.299 17.3512L212.286 17.7449L212.359 17.1915L209.372 16.7978Z" fill="#2F2E41"/>
<path d="M218.8 18.0401L218.727 18.5935L221.714 18.9872L221.787 18.4338L218.8 18.0401Z" fill="#2F2E41"/>
<path d="M234.132 82.5936H210.075C209.445 82.5929 208.84 82.3427 208.394 81.8979C207.949 81.453 207.698 80.8499 207.697 80.2209L212.734 41.6814C212.738 41.0552 212.99 40.456 213.435 40.0148C213.88 39.5736 214.483 39.3262 215.11 39.3267H223.647C227.057 39.3305 230.327 40.684 232.738 43.0902C235.149 45.4964 236.505 48.7587 236.509 52.1616V80.2209C236.508 80.8499 236.258 81.453 235.812 81.8979C235.366 82.3427 234.762 82.5929 234.132 82.5936Z" fill="#2F2E41"/>
<path d="M254.828 67.4074C254.977 67.7248 255.03 68.0783 254.982 68.4253C254.934 68.7723 254.787 69.098 254.558 69.3633L251.859 72.481C251.702 72.6613 251.512 72.8091 251.299 72.9161C251.086 73.0231 250.853 73.087 250.615 73.1044C250.377 73.1217 250.138 73.0921 249.911 73.0171C249.684 72.9422 249.475 72.8235 249.294 72.6677L224.818 51.5654C224.432 51.2328 224.115 50.8276 223.886 50.373C223.657 49.9183 223.52 49.4231 223.483 48.9156C223.446 48.4081 223.509 47.8982 223.669 47.4152C223.83 46.9321 224.084 46.4853 224.417 46.1002C224.751 45.7152 225.157 45.3994 225.612 45.171C226.068 44.9426 226.564 44.806 227.073 44.769C227.582 44.7321 228.092 44.7954 228.576 44.9555C229.061 45.1156 229.508 45.3692 229.894 45.702L254.37 66.8041C254.564 66.9707 254.72 67.1763 254.828 67.4074Z" fill="#00B9DA"/>
<path d="M249.428 60.4435C249.576 60.7608 249.63 61.1143 249.582 61.4613C249.534 61.8083 249.386 62.134 249.157 62.3993L244.547 67.7244C244.231 68.0881 243.784 68.3119 243.303 68.3469C242.822 68.3819 242.347 68.2252 241.982 67.9111L221.884 50.5831C221.703 50.4273 221.555 50.2376 221.447 50.0247C221.34 49.8118 221.276 49.5799 221.259 49.3422C221.241 49.1046 221.271 48.8658 221.346 48.6396C221.421 48.4135 221.54 48.2042 221.696 48.0239L226.307 42.6989C226.463 42.5186 226.653 42.3707 226.866 42.2638C227.08 42.1568 227.312 42.0928 227.55 42.0755C227.788 42.0582 228.027 42.0878 228.254 42.1627C228.481 42.2376 228.69 42.3564 228.871 42.5122L248.97 59.8402C249.163 60.0068 249.319 60.2124 249.428 60.4435Z" fill="#2F2E41"/>
<path d="M222.486 13.0506C220.579 11.4757 218.03 12.9652 215.873 12.7538C213.81 12.5515 212.149 10.7395 211.697 8.78964C211.169 6.51475 212.313 4.20391 214.037 2.74662C215.925 1.15054 218.46 0.65455 220.876 0.897422C223.645 1.17578 226.196 2.4129 228.493 3.92423C230.708 5.33656 232.753 7.00001 234.586 8.88138C236.228 10.6236 237.631 12.7108 238.112 15.0879C238.548 17.2483 238.292 19.6563 237.043 21.5171C236.38 22.4712 235.481 23.2388 234.435 23.7457C233.344 24.3062 232.176 24.7142 231.121 25.3445C229.526 26.2976 227.994 28.2401 228.537 30.221C228.654 30.6538 228.875 31.0513 229.182 31.3786C229.551 31.7716 230.192 31.2309 229.822 30.8368C229.173 30.1447 229.18 29.2051 229.503 28.358C229.888 27.403 230.586 26.6068 231.484 26.0997C232.588 25.4414 233.814 25.0247 234.947 24.4226C236.033 23.8717 236.969 23.0672 237.676 22.0777C239.01 20.1519 239.372 17.6717 239.018 15.3904C238.635 12.9217 237.318 10.6967 235.684 8.84225C233.907 6.82405 231.738 5.12827 229.527 3.60985C227.154 1.98057 224.541 0.614629 221.669 0.157116C219.18 -0.239477 216.496 0.0846291 214.352 1.47484C212.351 2.77251 210.84 4.96817 210.732 7.39164C210.697 8.49402 210.958 9.58567 211.486 10.5542C212.015 11.5228 212.793 12.3333 213.74 12.9023C214.71 13.4574 215.832 13.6942 216.945 13.5795C218.135 13.4808 219.321 13.0939 220.523 13.1723C221.066 13.1949 221.587 13.3936 222.007 13.7384C222.424 14.0825 222.9 13.3918 222.486 13.0506Z" fill="#2F2E41"/>
<path d="M205.711 87.2506C205.716 87.2191 205.722 87.1877 205.729 87.1563C205.779 86.9232 205.875 86.7022 206.01 86.5062C206.146 86.3101 206.32 86.1429 206.521 86.0143L209.99 83.7812C210.396 83.5209 210.888 83.4317 211.359 83.5332C211.831 83.6347 212.242 83.9185 212.504 84.3224L223.207 100.881C223.468 101.285 223.558 101.777 223.456 102.247C223.354 102.718 223.069 103.128 222.664 103.389L219.195 105.622C218.789 105.883 218.297 105.972 217.826 105.87C217.355 105.769 216.943 105.485 216.681 105.081L205.978 88.5225C205.734 88.1465 205.639 87.693 205.711 87.2506Z" fill="#2F2E41"/>
</g>
<defs>
<clipPath id="clip0">
<rect width="255" height="126" fill="white"/>
</clipPath>
</defs>
</svg>
