<svg width="163" height="111" viewBox="0 0 163 111" fill="none" xmlns="http://www.w3.org/2000/svg">
<g clip-path="url(#clip0)">
<path d="M161.936 90.855H81.2943C81.0123 90.8547 80.7419 90.7425 80.5424 90.543C80.343 90.3436 80.2308 90.0732 80.2305 89.7911V1.06388C80.2308 0.781817 80.343 0.511404 80.5424 0.311958C80.7419 0.112513 81.0123 0.000322684 81.2943 0H161.936C162.218 0.000322684 162.489 0.112513 162.688 0.311958C162.887 0.511404 163 0.781817 163 1.06388V89.7911C163 90.0732 162.887 90.3436 162.688 90.543C162.489 90.7425 162.218 90.8547 161.936 90.855ZM81.2943 0.42555C81.1251 0.425735 80.9629 0.493046 80.8432 0.612715C80.7235 0.732385 80.6562 0.894638 80.656 1.06388V89.7911C80.6562 89.9603 80.7235 90.1226 80.8432 90.2423C80.9629 90.3619 81.1251 90.4292 81.2943 90.4294H161.936C162.105 90.4292 162.268 90.3619 162.387 90.2423C162.507 90.1226 162.574 89.9603 162.574 89.7911V1.06388C162.574 0.894638 162.507 0.732385 162.387 0.612715C162.268 0.493046 162.105 0.425735 161.936 0.42555H81.2943Z" fill="#3F3D56"/>
<path d="M116.082 33.8312H96.0815C95.7994 33.8309 95.529 33.7187 95.3295 33.5193C95.1301 33.3198 95.0179 33.0494 95.0176 32.7674V12.7665C95.0179 12.4845 95.1301 12.214 95.3295 12.0146C95.529 11.8151 95.7994 11.703 96.0815 11.7026H116.082C116.364 11.703 116.635 11.8151 116.834 12.0146C117.034 12.214 117.146 12.4845 117.146 12.7665V32.7674C117.146 33.0494 117.034 33.3198 116.834 33.5193C116.635 33.7187 116.364 33.8309 116.082 33.8312ZM96.0815 12.1282C95.9122 12.1284 95.75 12.1957 95.6303 12.3154C95.5106 12.435 95.4433 12.5973 95.4431 12.7665V32.7674C95.4433 32.9366 95.5106 33.0989 95.6303 33.2185C95.75 33.3382 95.9122 33.4055 96.0815 33.4057H116.082C116.252 33.4055 116.414 33.3382 116.533 33.2185C116.653 33.0989 116.72 32.9366 116.721 32.7674V12.7665C116.72 12.5973 116.653 12.435 116.533 12.3154C116.414 12.1957 116.252 12.1284 116.082 12.1282H96.0815Z" fill="#F2F2F2"/>
<path d="M110.337 36.2781H90.3364C90.0825 36.2779 89.8392 36.1769 89.6597 35.9974C89.4802 35.8179 89.3792 35.5745 89.3789 35.3207V15.3198C89.3792 15.0659 89.4802 14.8226 89.6597 14.6431C89.8392 14.4636 90.0825 14.3626 90.3364 14.3623H110.337C110.591 14.3626 110.834 14.4636 111.014 14.6431C111.193 14.8226 111.294 15.0659 111.295 15.3198V35.3207C111.294 35.5745 111.193 35.8179 111.014 35.9974C110.834 36.1769 110.591 36.2779 110.337 36.2781Z" fill="#00B9DA"/>
<path d="M152.892 46.0659H90.3364C90.0825 46.0659 89.8389 45.965 89.6594 45.7854C89.4798 45.6059 89.3789 45.3623 89.3789 45.1084C89.3789 44.8544 89.4798 44.6109 89.6594 44.4313C89.8389 44.2518 90.0825 44.1509 90.3364 44.1509H152.892C153.146 44.1509 153.39 44.2518 153.569 44.4313C153.749 44.6109 153.85 44.8544 153.85 45.1084C153.85 45.3623 153.749 45.6059 153.569 45.7854C153.39 45.965 153.146 46.0659 152.892 46.0659Z" fill="#CCCCCC"/>
<path d="M137.785 52.6618H90.3364C90.0825 52.6618 89.8389 52.5609 89.6594 52.3814C89.4798 52.2018 89.3789 51.9583 89.3789 51.7043C89.3789 51.4504 89.4798 51.2068 89.6594 51.0273C89.8389 50.8477 90.0825 50.7468 90.3364 50.7468H137.785C138.039 50.7468 138.283 50.8477 138.462 51.0273C138.642 51.2068 138.743 51.4504 138.743 51.7043C138.743 51.9583 138.642 52.2018 138.462 52.3814C138.283 52.5609 138.039 52.6618 137.785 52.6618Z" fill="#CCCCCC"/>
<path d="M152.681 21.8095H125.02C124.766 21.8095 124.523 21.7086 124.343 21.5291C124.163 21.3495 124.062 21.106 124.062 20.852C124.062 20.5981 124.163 20.3545 124.343 20.175C124.523 19.9954 124.766 19.8945 125.02 19.8945H152.681C152.935 19.8945 153.178 19.9954 153.358 20.175C153.537 20.3545 153.638 20.5981 153.638 20.852C153.638 21.106 153.537 21.3495 153.358 21.5291C153.178 21.7086 152.935 21.8095 152.681 21.8095Z" fill="#CCCCCC"/>
<path d="M145.778 28.4055H125.02C124.766 28.4055 124.523 28.3046 124.343 28.125C124.163 27.9454 124.062 27.7019 124.062 27.448C124.062 27.194 124.163 26.9505 124.343 26.7709C124.523 26.5914 124.766 26.4905 125.02 26.4905H145.778C146.032 26.4905 146.275 26.5914 146.455 26.7709C146.634 26.9505 146.735 27.194 146.735 27.448C146.735 27.7019 146.634 27.9454 146.455 28.125C146.275 28.3046 146.032 28.4055 145.778 28.4055Z" fill="#CCCCCC"/>
<path d="M152.892 59.258H90.3364C90.0825 59.258 89.8389 59.1571 89.6594 58.9776C89.4798 58.798 89.3789 58.5545 89.3789 58.3005C89.3789 58.0466 89.4798 57.803 89.6594 57.6235C89.8389 57.4439 90.0825 57.343 90.3364 57.343H152.892C153.146 57.343 153.39 57.4439 153.569 57.6235C153.749 57.803 153.85 58.0466 153.85 58.3005C153.85 58.5545 153.749 58.798 153.569 58.9776C153.39 59.1571 153.146 59.258 152.892 59.258Z" fill="#CCCCCC"/>
<path d="M137.785 65.854H90.3364C90.0825 65.854 89.8389 65.7531 89.6594 65.5735C89.4798 65.3939 89.3789 65.1504 89.3789 64.8965C89.3789 64.6425 89.4798 64.399 89.6594 64.2194C89.8389 64.0398 90.0825 63.939 90.3364 63.939H137.785C138.039 63.939 138.283 64.0398 138.462 64.2194C138.642 64.399 138.743 64.6425 138.743 64.8965C138.743 65.1504 138.642 65.3939 138.462 65.5735C138.283 65.7531 138.039 65.854 137.785 65.854Z" fill="#CCCCCC"/>
<path d="M152.892 72.4499H90.3364C90.0825 72.4499 89.8389 72.349 89.6594 72.1694C89.4798 71.9899 89.3789 71.7463 89.3789 71.4924C89.3789 71.2385 89.4798 70.9949 89.6594 70.8153C89.8389 70.6358 90.0825 70.5349 90.3364 70.5349H152.892C153.146 70.5349 153.39 70.6358 153.569 70.8153C153.749 70.9949 153.85 71.2385 153.85 71.4924C153.85 71.7463 153.749 71.9899 153.569 72.1694C153.39 72.349 153.146 72.4499 152.892 72.4499Z" fill="#CCCCCC"/>
<path d="M152.892 79.0458H90.3364C90.0825 79.0458 89.8389 78.945 89.6594 78.7654C89.4798 78.5858 89.3789 78.3423 89.3789 78.0884C89.3789 77.8344 89.4798 77.5909 89.6594 77.4113C89.8389 77.2317 90.0825 77.1309 90.3364 77.1309H152.892C153.146 77.1309 153.39 77.2317 153.569 77.4113C153.749 77.5909 153.85 77.8344 153.85 78.0884C153.85 78.3423 153.749 78.5858 153.569 78.7654C153.39 78.945 153.146 79.0458 152.892 79.0458Z" fill="#CCCCCC"/>
<path d="M102.451 82.6229H56.7045C56.4224 82.6226 56.152 82.5104 55.9526 82.3109C55.7531 82.1115 55.6409 81.8411 55.6406 81.559V53.2599C55.6409 52.9779 55.7531 52.7074 55.9526 52.508C56.152 52.3086 56.4224 52.1964 56.7045 52.196H102.451C102.733 52.1964 103.004 52.3086 103.203 52.508C103.403 52.7074 103.515 52.9779 103.515 53.2599V81.559C103.515 81.8411 103.403 82.1115 103.203 82.3109C103.004 82.5104 102.733 82.6226 102.451 82.6229Z" fill="white"/>
<path d="M102.451 82.6229H56.7045C56.4224 82.6226 56.152 82.5104 55.9526 82.3109C55.7531 82.1115 55.6409 81.8411 55.6406 81.559V53.2599C55.6409 52.9779 55.7531 52.7074 55.9526 52.508C56.152 52.3086 56.4224 52.1964 56.7045 52.196H102.451C102.733 52.1964 103.004 52.3086 103.203 52.508C103.403 52.7074 103.515 52.9779 103.515 53.2599V81.559C103.515 81.8411 103.403 82.1115 103.203 82.3109C103.004 82.5104 102.733 82.6226 102.451 82.6229ZM56.7045 52.6216C56.5353 52.6218 56.373 52.6891 56.2533 52.8088C56.1337 52.9284 56.0664 53.0907 56.0662 53.2599V81.559C56.0664 81.7282 56.1337 81.8905 56.2533 82.0102C56.373 82.1298 56.5353 82.1971 56.7045 82.1973H102.451C102.62 82.1971 102.783 82.1298 102.902 82.0102C103.022 81.8905 103.089 81.7282 103.089 81.559V53.2599C103.089 53.0907 103.022 52.9284 102.902 52.8088C102.783 52.6891 102.62 52.6218 102.451 52.6216H56.7045Z" fill="#3F3D56"/>
<path d="M93.4073 65.069H65.7466C65.4926 65.069 65.2491 64.9681 65.0695 64.7886C64.8899 64.609 64.7891 64.3655 64.7891 64.1115C64.7891 63.8576 64.8899 63.6141 65.0695 63.4345C65.2491 63.2549 65.4926 63.1541 65.7466 63.1541H93.4073C93.6613 63.1541 93.9048 63.2549 94.0844 63.4345C94.2639 63.6141 94.3648 63.8576 94.3648 64.1115C94.3648 64.3655 94.2639 64.609 94.0844 64.7886C93.9048 64.9681 93.6613 65.069 93.4073 65.069Z" fill="#CCCCCC"/>
<path d="M93.4073 71.665H65.7466C65.4926 71.665 65.2491 71.5641 65.0695 71.3845C64.8899 71.205 64.7891 70.9614 64.7891 70.7075C64.7891 70.4535 64.8899 70.21 65.0695 70.0304C65.2491 69.8509 65.4926 69.75 65.7466 69.75H93.4073C93.6613 69.75 93.9048 69.8509 94.0844 70.0304C94.2639 70.21 94.3648 70.4535 94.3648 70.7075C94.3648 70.9614 94.2639 71.205 94.0844 71.3845C93.9048 71.5641 93.6613 71.665 93.4073 71.665Z" fill="#CCCCCC"/>
<path d="M49.0102 107.428H51.6188L52.8597 97.3665L49.0098 97.3667L49.0102 107.428Z" fill="#A0616A"/>
<path d="M48.3438 106.577L53.481 106.576H53.4812C54.3495 106.576 55.1822 106.921 55.7961 107.535C56.4101 108.149 56.755 108.982 56.7551 109.85V109.957L48.3439 109.957L48.3438 106.577Z" fill="#2F2E41"/>
<path d="M28.6992 106.299L31.2785 106.689L34.0097 96.9259L30.6284 96.3506L28.6992 106.299Z" fill="#A0616A"/>
<path d="M28.1673 105.357L33.2468 106.125L33.247 106.125C34.1055 106.255 34.8773 106.721 35.3926 107.419C35.9078 108.118 36.1244 108.993 35.9947 109.852L35.9788 109.957L27.6621 108.7L28.1673 105.357Z" fill="#2F2E41"/>
<path d="M36.7415 57.5649L39.6379 58.3238L39.4452 63.0196L39.4213 71.5693C39.7067 71.7667 39.9254 72.046 40.0486 72.3704C40.1717 72.6947 40.1935 73.0489 40.111 73.3859C40.0285 73.7229 39.8456 74.0269 39.5866 74.2577C39.3276 74.4885 39.0046 74.6353 38.6603 74.6786C38.3161 74.7218 37.9668 74.6595 37.6587 74.5C37.3506 74.3404 37.0982 74.0911 36.9349 73.7849C36.7716 73.4788 36.7051 73.1303 36.7442 72.7856C36.7832 72.4408 36.9261 72.1161 37.1537 71.8542L36.2637 63.2733L36.7415 57.5649Z" fill="#A0616A"/>
<path d="M36.2379 52.1862C36.2539 51.7324 36.4002 51.2928 36.6594 50.9199C36.9186 50.5471 37.2797 50.2567 37.6995 50.0836C38.0925 49.9078 38.5282 49.8506 38.9533 49.9189C39.3784 49.9873 39.7742 50.1783 40.0922 50.4685C40.3208 50.6727 40.5021 50.9244 40.6234 51.2059C40.7448 51.4874 40.8032 51.7919 40.7948 52.0984C40.8024 54.8493 40.1814 58.859 40.1751 58.8991L40.1652 58.9628L35.9316 60.3885L36.2379 52.1862Z" fill="#00B9DA"/>
<path d="M43.8077 59.995L50.283 58.3188L53.2762 68.3996L53.3826 105.954L48.431 105.923L46.361 75.5276L33.169 103.614L27.8496 102.976L39.4459 72.8679C39.4459 72.8679 38.8075 67.5485 40.8289 64.8888L40.4033 62.1227L43.8077 59.995Z" fill="#2F2E41"/>
<path d="M39.4408 62.5031C39.3503 62.3931 39.2846 62.2648 39.248 62.1271C39.2115 61.9894 39.2051 61.8454 39.2292 61.705L36.2756 52.844C36.1377 52.4298 36.123 51.9845 36.2334 51.5621C36.3438 51.1397 36.5744 50.7585 36.8973 50.4647L38.1795 49.2992L39.0484 45.8235L44.0426 47.0442L43.6311 48.6901L45.8913 48.2793L50.652 58.8823L40.701 62.8598L40.2109 62.8675C40.0635 62.8678 39.918 62.8352 39.7848 62.7722C39.6516 62.7091 39.5341 62.6172 39.4408 62.5031Z" fill="#00B9DA"/>
<path d="M46.373 55.0216L49.2266 54.1147L51.5738 58.1864L56.1237 65.4249C56.4703 65.4392 56.8045 65.5584 57.082 65.7667C57.3594 65.975 57.5671 66.2626 57.6775 66.5915C57.788 66.9204 57.7959 67.2751 57.7004 67.6087C57.6048 67.9422 57.4103 68.2389 57.1425 68.4595C56.8747 68.68 56.5462 68.8141 56.2005 68.844C55.8548 68.8738 55.5083 68.798 55.2066 68.6265C54.905 68.4551 54.6625 68.1961 54.5112 67.8839C54.3599 67.5716 54.307 67.2208 54.3595 66.8778L49.0205 60.1014L46.373 55.0216Z" fill="#A0616A"/>
<path d="M43.0709 50.7452C42.8418 50.3531 42.7305 49.9034 42.7503 49.4498C42.77 48.9961 42.92 48.5578 43.1823 48.1871C43.4205 47.8286 43.7582 47.5473 44.154 47.3779C44.5497 47.2085 44.9863 47.1583 45.4102 47.2334C45.7125 47.2838 46.0003 47.3996 46.2533 47.5726C46.5063 47.7457 46.7185 47.9718 46.8751 48.2353C48.352 50.5561 49.9705 54.277 49.9866 54.3142L50.0123 54.3734L47.1964 57.8412L43.0709 50.7452Z" fill="#00B9DA"/>
<path d="M42.7434 45.1768C44.9349 45.1768 46.7114 43.4002 46.7114 41.2087C46.7114 39.0173 44.9349 37.2407 42.7434 37.2407C40.5519 37.2407 38.7754 39.0173 38.7754 41.2087C38.7754 43.4002 40.5519 45.1768 42.7434 45.1768Z" fill="#A0616A"/>
<path d="M35.7304 39.5351C37.8414 39.5351 39.5526 37.8238 39.5526 35.7128C39.5526 33.6019 37.8414 31.8906 35.7304 31.8906C33.6195 31.8906 31.9082 33.6019 31.9082 35.7128C31.9082 37.8238 33.6195 39.5351 35.7304 39.5351Z" fill="#2F2E41"/>
<path d="M32.4332 38.8779C32.9279 39.2355 33.501 39.4694 34.1047 39.56C34.7083 39.6506 35.3249 39.5954 35.9028 39.3989C36.4807 39.2024 37.0031 38.8703 37.4264 38.4305C37.8497 37.9907 38.1615 37.4559 38.3357 36.8709C38.2698 37.3952 38.0959 37.9001 37.8249 38.3538C37.554 38.8074 37.192 39.2 36.7618 39.5067C36.3315 39.8134 35.8423 40.0275 35.3251 40.1356C34.8078 40.2437 34.2738 40.2434 33.7567 40.1347C33.2397 40.026 32.7507 39.8113 32.3208 39.504C31.8909 39.1968 31.5293 38.8038 31.259 38.3499C30.9886 37.8959 30.8153 37.3908 30.75 36.8664C30.6847 36.3421 30.7288 35.8099 30.8796 35.3035C30.794 35.9839 30.893 36.6747 31.1664 37.3037C31.4397 37.9326 31.8773 38.4763 32.4332 38.8779Z" fill="#2F2E41"/>
<path d="M47.5184 38.8821C46.8511 37.6875 46.5958 37.1885 45.7354 36.462C44.9746 35.8196 44.0388 35.6309 43.284 36.2397C42.3911 35.8539 41.3975 35.7664 40.4509 35.9902C39.5043 36.2141 38.6551 36.7373 38.0295 37.4822C37.4039 38.227 37.0353 39.1538 36.9784 40.1249C36.9216 41.096 37.1794 42.0595 37.7137 42.8723C38.248 43.6851 39.0303 44.3039 39.9443 44.6368C40.8583 44.9696 41.8553 44.9988 42.7871 44.7199C43.719 44.441 44.5361 43.869 45.117 43.0887C45.6979 42.3085 46.0116 41.3617 46.0115 40.389C46.0108 40.2181 46.0005 40.0475 45.9807 39.8778C46.6368 39.7857 46.8623 38.9742 47.5184 38.8821Z" fill="#2F2E41"/>
<path d="M81.2801 110.005H0.212775C0.156344 110.005 0.102223 109.982 0.0623202 109.942C0.0224172 109.902 0 109.848 0 109.792C0 109.735 0.0224172 109.681 0.0623202 109.641C0.102223 109.602 0.156344 109.579 0.212775 109.579H81.2801C81.3365 109.579 81.3906 109.602 81.4305 109.641C81.4705 109.681 81.4929 109.735 81.4929 109.792C81.4929 109.848 81.4705 109.902 81.4305 109.942C81.3906 109.982 81.3365 110.005 81.2801 110.005Z" fill="#CCCCCC"/>
</g>
<defs>
<clipPath id="clip0">
<rect width="163" height="110.005" fill="white"/>
</clipPath>
</defs>
</svg>
