<svg width="18" height="18" viewBox="0 0 18 18" fill="none" xmlns="http://www.w3.org/2000/svg">
<g clip-path="url(#clip0)">
<path d="M0.486282 7.82913C0.486694 7.82872 0.487106 7.82831 0.487518 7.8279L7.83009 0.485596C8.14307 0.172485 8.55917 0 9.00178 0C9.4444 0 9.8605 0.172348 10.1736 0.485458L17.5123 7.82405C17.5148 7.82652 17.5173 7.82913 17.5198 7.8316C18.1625 8.47801 18.1614 9.52679 17.5166 10.1716C17.222 10.4663 16.833 10.637 16.417 10.6548C16.4001 10.6565 16.3831 10.6573 16.3659 10.6573H16.0733V16.0608C16.0733 17.13 15.2033 18 14.1338 18H11.2611C10.97 18 10.7338 17.7639 10.7338 17.4727V13.2363C10.7338 12.7484 10.3369 12.3515 9.84897 12.3515H8.1546C7.66667 12.3515 7.26979 12.7484 7.26979 13.2363V17.4727C7.26979 17.7639 7.03372 18 6.74245 18H3.8698C2.80028 18 1.9303 17.13 1.9303 16.0608V10.6573H1.65894C1.21646 10.6573 0.800354 10.4849 0.487106 10.1718C-0.15834 9.52597 -0.158615 8.4754 0.486282 7.82913Z" fill="#C7C9C9"/>
</g>
<defs>
<clipPath id="clip0">
<rect width="18" height="18" fill="white" transform="matrix(-1 0 0 1 18 0)"/>
</clipPath>
</defs>
</svg>
