<svg width="18" height="18" viewBox="0 0 18 18" fill="none" xmlns="http://www.w3.org/2000/svg">
<g clip-path="url(#clip0)">
<path d="M7.39505 8.67068C8.58624 8.67068 9.61772 8.24345 10.4605 7.40053C11.3033 6.55774 11.7305 5.52654 11.7305 4.33521C11.7305 3.14429 11.3033 2.11295 10.4604 1.26988C9.61745 0.427231 8.58611 0 7.39505 0C6.20372 0 5.17252 0.427231 4.32973 1.27002C3.48694 2.11281 3.05957 3.14415 3.05957 4.33521C3.05957 5.52654 3.48694 6.55788 4.32986 7.40067C5.17279 8.24332 6.20413 8.67068 7.39505 8.67068Z" fill="#093B47"/>
<path d="M14.981 13.8407C14.9567 13.49 14.9076 13.1074 14.8352 12.7034C14.7621 12.2963 14.6681 11.9115 14.5555 11.5598C14.4391 11.1963 14.2809 10.8373 14.0854 10.4933C13.8824 10.1363 13.644 9.82537 13.3765 9.56953C13.0968 9.30188 12.7543 9.08668 12.3582 8.92972C11.9635 8.77357 11.5261 8.69447 11.0582 8.69447C10.8745 8.69447 10.6968 8.76987 10.3536 8.9933C10.1424 9.13104 9.89535 9.29034 9.61959 9.46653C9.3838 9.61677 9.06437 9.75753 8.66983 9.88497C8.28489 10.0095 7.89406 10.0727 7.5083 10.0727C7.12255 10.0727 6.73185 10.0095 6.3465 9.88497C5.95237 9.75767 5.63294 9.61691 5.39742 9.46667C5.12428 9.29213 4.87709 9.13283 4.66272 8.99316C4.31994 8.76973 4.1421 8.69434 3.95836 8.69434C3.49034 8.69434 3.05309 8.77357 2.65854 8.92985C2.26276 9.08655 1.92013 9.30174 1.64012 9.56967C1.37274 9.82565 1.1342 10.1364 0.9315 10.4933C0.736081 10.8373 0.577879 11.1962 0.461424 11.56C0.348952 11.9117 0.254882 12.2963 0.181823 12.7034C0.109451 13.1068 0.0602872 13.4896 0.0359801 13.8411C0.0120849 14.1856 0 14.543 0 14.9041C0 15.8437 0.29869 16.6043 0.887692 17.1653C1.46942 17.7189 2.23914 17.9997 3.17517 17.9997H11.8423C12.7783 17.9997 13.5477 17.719 14.1296 17.1653C14.7187 16.6047 15.0174 15.8439 15.0174 14.9039C15.0173 14.5412 15.0051 14.1835 14.981 13.8407Z" fill="#093B47"/>
</g>
<defs>
<clipPath id="clip0">
<rect width="18" height="18" fill="white"/>
</clipPath>
</defs>
</svg>
