<svg width="393" height="284" viewBox="0 0 393 284" fill="none" xmlns="http://www.w3.org/2000/svg">
<g clip-path="url(#clip0)">
<path d="M189.822 6.7384C151.434 6.7384 120.315 27.4329 120.315 52.9609C120.315 64.3593 126.523 74.792 136.808 82.8512V116.399L158.842 94.3456C168.846 97.5974 179.304 99.2305 189.822 99.1834C228.209 99.1834 259.328 78.4888 259.328 52.9609C259.328 27.4329 228.209 6.7384 189.822 6.7384Z" fill="#F2F2F2"/>
<g opacity="0.3">
<path opacity="0.3" d="M306.613 236.81C307.648 237.362 308.798 237.665 309.97 237.697C311.143 237.728 312.307 237.486 313.37 236.991C314.433 236.495 315.367 235.759 316.098 234.841C316.828 233.922 317.336 232.847 317.581 231.698C317.825 230.55 317.8 229.361 317.506 228.224C317.213 227.087 316.66 226.034 315.891 225.148C315.122 224.261 314.158 223.566 313.074 223.116C311.991 222.666 310.818 222.475 309.648 222.556L309.289 226.446L307.931 222.876C306.02 223.465 304.42 224.79 303.484 226.559C303.152 227.178 302.911 227.841 302.765 228.528C302.42 230.139 302.608 231.82 303.303 233.314C303.997 234.809 305.159 236.036 306.613 236.81Z" fill="#57B894"/>
<path opacity="0.3" d="M309.312 282.898C309.132 279.521 312.337 277.004 315.364 275.502C318.391 273.999 321.878 272.596 323.274 269.516C325.28 265.09 321.848 260.29 319.227 256.199C317.282 253.163 315.704 249.907 314.526 246.499C314.053 245.133 313.642 243.716 313.671 242.27C313.713 240.188 314.658 238.245 315.596 236.386C318.721 230.195 321.991 224.079 325.405 218.04" stroke="#3F3D56" stroke-miterlimit="10"/>
<path opacity="0.3" d="M307.062 235.859C308.098 236.411 309.247 236.714 310.419 236.746C311.592 236.777 312.756 236.536 313.819 236.04C314.883 235.545 315.816 234.809 316.547 233.89C317.278 232.972 317.785 231.896 318.03 230.748C318.274 229.599 318.249 228.41 317.956 227.273C317.663 226.137 317.11 225.083 316.341 224.197C315.571 223.311 314.607 222.615 313.524 222.165C312.44 221.716 311.267 221.524 310.097 221.605L309.738 225.495L308.38 221.926C306.469 222.515 304.869 223.839 303.933 225.608C303.602 226.227 303.36 226.89 303.214 227.577C302.869 229.189 303.058 230.869 303.752 232.363C304.446 233.858 305.609 235.085 307.062 235.859Z" stroke="#3F3D56" stroke-miterlimit="10"/>
<path opacity="0.3" d="M317.892 215.614C318.488 214.492 319.356 213.538 320.417 212.84C321.478 212.142 322.697 211.722 323.963 211.619L324.061 215.38L325.751 211.684C327.337 211.933 328.803 212.68 329.938 213.817C331.072 214.954 331.816 216.423 332.062 218.011C332.308 219.599 332.044 221.224 331.307 222.651C330.57 224.079 329.399 225.235 327.963 225.954C326.527 226.672 324.9 226.914 323.317 226.647C321.734 226.379 320.277 225.615 319.156 224.464C318.036 223.314 317.309 221.836 317.082 220.246C316.855 218.655 317.139 217.033 317.892 215.614Z" fill="#57B894"/>
<path opacity="0.3" d="M318.492 214.346C319.088 213.224 319.956 212.27 321.017 211.572C322.078 210.874 323.297 210.454 324.563 210.352L324.661 214.112L326.351 210.417C327.937 210.665 329.403 211.412 330.537 212.549C331.672 213.686 332.416 215.155 332.662 216.743C332.908 218.331 332.644 219.956 331.907 221.384C331.17 222.811 329.999 223.968 328.563 224.686C327.127 225.404 325.5 225.647 323.917 225.379C322.334 225.111 320.877 224.347 319.756 223.196C318.635 222.046 317.909 220.568 317.682 218.978C317.454 217.387 317.738 215.765 318.492 214.346Z" stroke="#3F3D56" stroke-miterlimit="10"/>
<path opacity="0.3" d="M317.9 256.087C319.542 256.961 321.448 257.199 323.255 256.757C325.061 256.314 326.642 255.222 327.695 253.688C328.749 252.154 329.202 250.286 328.967 248.439C328.733 246.593 327.828 244.897 326.425 243.675L325.126 246.515L325.028 242.711C325.022 242.707 325.016 242.703 325.01 242.701C324.132 242.232 323.17 241.941 322.179 241.845C321.188 241.748 320.188 241.848 319.236 242.139C318.284 242.43 317.399 242.905 316.631 243.539C315.862 244.172 315.227 244.951 314.759 245.831C314.292 246.711 314.003 247.674 313.908 248.666C313.813 249.657 313.914 250.658 314.206 251.611C314.497 252.563 314.974 253.449 315.608 254.217C316.242 254.985 317.021 255.62 317.9 256.087Z" fill="#57B894"/>
<path opacity="0.3" d="M318.447 254.794C320.089 255.668 321.995 255.906 323.802 255.464C325.608 255.022 327.189 253.929 328.242 252.395C329.296 250.861 329.749 248.993 329.515 247.147C329.28 245.3 328.375 243.604 326.972 242.383L325.673 245.222L325.575 241.418C325.57 241.414 325.563 241.411 325.557 241.408C324.679 240.94 323.717 240.65 322.727 240.554C321.737 240.459 320.737 240.559 319.786 240.85C318.835 241.141 317.95 241.617 317.182 242.25C316.414 242.883 315.779 243.662 315.312 244.541C314.845 245.42 314.556 246.383 314.461 247.374C314.365 248.365 314.466 249.366 314.757 250.318C315.049 251.27 315.524 252.155 316.157 252.923C316.79 253.691 317.569 254.327 318.447 254.794V254.794Z" stroke="#3F3D56" stroke-miterlimit="10"/>
<path opacity="0.3" d="M308.33 267.445C308.388 269.183 309.041 270.847 310.179 272.16C311.318 273.472 312.873 274.353 314.583 274.655C316.293 274.956 318.055 274.66 319.573 273.815C321.091 272.971 322.273 271.63 322.92 270.017C323.567 268.404 323.641 266.617 323.128 264.956C322.615 263.295 321.548 261.862 320.104 260.895C318.661 259.929 316.929 259.489 315.2 259.648C313.47 259.808 311.849 260.558 310.606 261.773L313.236 267.279L309.048 263.961C308.533 265.048 308.287 266.243 308.33 267.445Z" fill="#57B894"/>
<path opacity="0.3" d="M308.779 266.495C308.837 268.232 309.49 269.897 310.629 271.209C311.767 272.522 313.322 273.403 315.032 273.704C316.742 274.005 318.504 273.709 320.022 272.865C321.54 272.02 322.722 270.679 323.369 269.066C324.016 267.453 324.09 265.666 323.577 264.006C323.065 262.345 321.997 260.911 320.553 259.945C319.11 258.978 317.378 258.538 315.649 258.698C313.92 258.857 312.298 259.607 311.056 260.822L313.685 266.329L309.497 263.01C308.983 264.097 308.736 265.292 308.779 266.495V266.495Z" stroke="#3F3D56" stroke-miterlimit="10"/>
</g>
<g opacity="0.3">
<path opacity="0.3" d="M106.382 237.902C105.346 238.454 104.197 238.758 103.025 238.789C101.852 238.821 100.688 238.579 99.6249 238.083C98.5616 237.588 97.6277 236.852 96.8971 235.934C96.1664 235.015 95.6588 233.939 95.4144 232.791C95.1699 231.643 95.1952 230.453 95.4884 229.317C95.7815 228.18 96.3344 227.127 97.1036 226.24C97.8727 225.354 98.837 224.659 99.9205 224.209C101.004 223.759 102.177 223.567 103.347 223.649L103.706 227.539L105.064 223.969C106.975 224.558 108.575 225.882 109.511 227.651C109.842 228.27 110.084 228.933 110.23 229.621C110.575 231.232 110.386 232.912 109.692 234.407C108.998 235.901 107.836 237.128 106.382 237.902Z" fill="#FF6584"/>
<path opacity="0.3" d="M103.682 283.99C103.862 280.614 100.657 278.097 97.6299 276.594C94.603 275.092 91.116 273.688 89.7202 270.609C87.7141 266.183 91.1462 261.383 93.7672 257.292C95.7117 254.256 97.2897 251 98.4684 247.592C98.9408 246.225 99.3522 244.809 99.3229 243.363C99.2808 241.281 98.3357 239.337 97.3977 237.479C94.2729 231.287 91.0033 225.172 87.5889 219.132" stroke="#3F3D56" stroke-miterlimit="10"/>
<path opacity="0.3" d="M105.931 236.952C104.896 237.504 103.747 237.807 102.574 237.839C101.402 237.87 100.238 237.628 99.1747 237.133C98.1113 236.637 97.1775 235.901 96.4469 234.983C95.7162 234.064 95.2086 232.989 94.9642 231.84C94.7197 230.692 94.745 229.503 95.0382 228.366C95.3313 227.229 95.8842 226.176 96.6534 225.29C97.4225 224.403 98.3868 223.708 99.4703 223.258C100.554 222.808 101.727 222.617 102.897 222.698L103.256 226.588L104.614 223.018C106.525 223.607 108.125 224.932 109.061 226.701C109.392 227.32 109.634 227.983 109.779 228.67C110.125 230.281 109.936 231.962 109.242 233.456C108.547 234.951 107.385 236.178 105.931 236.952V236.952Z" stroke="#3F3D56" stroke-miterlimit="10"/>
<path opacity="0.3" d="M95.1022 216.707C94.5065 215.585 93.6382 214.63 92.5773 213.932C91.5164 213.234 90.297 212.815 89.0315 212.712L88.9335 216.472L87.2432 212.777C85.6572 213.026 84.1911 213.773 83.0568 214.91C81.9224 216.047 81.1785 217.515 80.9323 219.103C80.6862 220.691 80.9506 222.316 81.6873 223.744C82.424 225.172 83.595 226.328 85.0312 227.046C86.4674 227.764 88.0944 228.007 89.6774 227.739C91.2604 227.472 92.7174 226.707 93.8381 225.557C94.9588 224.406 95.6852 222.929 95.9124 221.338C96.1396 219.748 95.8559 218.126 95.1022 216.707Z" fill="#FF6584"/>
<path opacity="0.3" d="M94.5025 215.439C93.9069 214.317 93.0386 213.363 91.9777 212.665C90.9168 211.966 89.6974 211.547 88.4319 211.444L88.3339 215.204L86.6436 211.509C85.0575 211.758 83.5915 212.505 82.4572 213.642C81.3228 214.779 80.5789 216.248 80.3327 217.835C80.0866 219.423 80.3509 221.048 81.0877 222.476C81.8244 223.904 82.9954 225.06 84.4316 225.778C85.8678 226.496 87.4948 226.739 89.0778 226.472C90.6607 226.204 92.1178 225.44 93.2385 224.289C94.3592 223.138 95.0856 221.661 95.3128 220.07C95.54 218.48 95.2562 216.858 94.5025 215.439V215.439Z" stroke="#3F3D56" stroke-miterlimit="10"/>
<path opacity="0.3" d="M95.0944 257.18C93.4523 258.053 91.5464 258.292 89.7399 257.849C87.9335 257.407 86.3528 256.315 85.2993 254.781C84.2457 253.247 83.7929 251.379 84.0271 249.532C84.2614 247.685 85.1663 245.99 86.5694 244.768L87.8682 247.608L87.9664 243.803C87.9722 243.799 87.9782 243.796 87.9845 243.793C88.8627 243.325 89.8245 243.035 90.8148 242.939C91.8051 242.843 92.8046 242.944 93.7562 243.235C94.7077 243.526 95.5927 244.001 96.3605 244.635C97.1282 245.268 97.7638 246.047 98.2309 246.926C98.6979 247.805 98.9872 248.768 99.0824 249.759C99.1775 250.751 99.0766 251.751 98.7853 252.703C98.494 253.655 98.0181 254.541 97.3848 255.309C96.7515 256.077 95.9732 256.713 95.0944 257.18V257.18Z" fill="#FF6584"/>
<path opacity="0.3" d="M94.5476 255.887C92.9054 256.761 90.9995 256.999 89.1931 256.557C87.3866 256.114 85.806 255.022 84.7524 253.488C83.6988 251.954 83.246 250.086 83.4803 248.239C83.7145 246.393 84.6194 244.697 86.0226 243.475L87.3214 246.315L87.4196 242.51C87.4253 242.507 87.4314 242.503 87.4376 242.5C88.3158 242.033 89.2775 241.743 90.2678 241.647C91.258 241.551 92.2574 241.652 93.2088 241.943C94.1602 242.234 95.045 242.709 95.8127 243.343C96.5803 243.976 97.2158 244.755 97.6828 245.634C98.1498 246.513 98.4391 247.476 98.5343 248.467C98.6294 249.458 98.5286 250.458 98.2374 251.41C97.9463 252.363 97.4705 253.248 96.8374 254.016C96.2043 254.784 95.4262 255.42 94.5476 255.887V255.887Z" stroke="#3F3D56" stroke-miterlimit="10"/>
<path opacity="0.3" d="M104.665 268.538C104.607 270.275 103.954 271.94 102.815 273.252C101.677 274.565 100.122 275.446 98.4117 275.747C96.7014 276.049 94.9395 275.752 93.4215 274.908C91.9036 274.064 90.7219 272.722 90.0747 271.109C89.4274 269.496 89.354 267.71 89.8666 266.049C90.3793 264.388 91.4469 262.954 92.8904 261.988C94.3339 261.021 96.0655 260.581 97.7948 260.741C99.5241 260.901 101.146 261.651 102.388 262.865L99.7591 268.372L103.946 265.054C104.461 266.141 104.708 267.336 104.665 268.538Z" fill="#FF6584"/>
<path opacity="0.3" d="M104.215 267.587C104.157 269.325 103.505 270.989 102.366 272.302C101.228 273.614 99.6728 274.495 97.9625 274.797C96.2521 275.098 94.4903 274.802 92.9723 273.957C91.4544 273.113 90.2727 271.772 89.6255 270.159C88.9782 268.546 88.9048 266.759 89.4174 265.098C89.9301 263.437 90.9977 262.004 92.4412 261.037C93.8847 260.071 95.6163 259.63 97.3456 259.79C99.0749 259.95 100.697 260.7 101.939 261.915L99.3098 267.421L103.497 264.103C104.012 265.19 104.258 266.385 104.215 267.587V267.587Z" stroke="#3F3D56" stroke-miterlimit="10"/>
</g>
<g opacity="0.3">
<path opacity="0.3" d="M295.613 237.538C294.578 238.09 293.429 238.394 292.256 238.425C291.084 238.457 289.92 238.215 288.856 237.719C287.793 237.224 286.859 236.488 286.129 235.569C285.398 234.651 284.89 233.575 284.646 232.427C284.401 231.279 284.427 230.089 284.72 228.953C285.013 227.816 285.566 226.763 286.335 225.876C287.104 224.99 288.068 224.294 289.152 223.845C290.235 223.395 291.409 223.203 292.579 223.285L292.937 227.175L294.295 223.605C296.207 224.194 297.806 225.518 298.743 227.287C299.074 227.906 299.316 228.569 299.461 229.256C299.807 230.868 299.618 232.548 298.924 234.043C298.229 235.537 297.067 236.764 295.613 237.538Z" fill="#FF6584"/>
<path opacity="0.3" d="M292.915 283.626C293.094 280.249 289.889 277.732 286.862 276.23C283.835 274.728 280.348 273.324 278.953 270.245C276.947 265.819 280.379 261.019 283 256.928C284.944 253.892 286.522 250.636 287.701 247.228C288.173 245.861 288.585 244.444 288.555 242.999C288.513 240.917 287.568 238.973 286.63 237.115C283.505 230.923 280.236 224.808 276.821 218.768" stroke="#3F3D56" stroke-miterlimit="10"/>
<path opacity="0.3" d="M295.164 236.588C294.129 237.139 292.979 237.443 291.807 237.474C290.634 237.506 289.47 237.264 288.407 236.769C287.344 236.273 286.41 235.537 285.679 234.619C284.949 233.7 284.441 232.624 284.197 231.476C283.952 230.328 283.977 229.139 284.271 228.002C284.564 226.865 285.117 225.812 285.886 224.926C286.655 224.039 287.619 223.344 288.703 222.894C289.786 222.444 290.959 222.253 292.129 222.334L292.488 226.224L293.846 222.654C295.757 223.243 297.357 224.568 298.293 226.336C298.625 226.956 298.866 227.619 299.012 228.306C299.357 229.917 299.169 231.597 298.474 233.092C297.78 234.586 296.618 235.814 295.164 236.588V236.588Z" stroke="#3F3D56" stroke-miterlimit="10"/>
<path opacity="0.3" d="M284.334 216.343C283.739 215.221 282.871 214.266 281.81 213.568C280.749 212.87 279.529 212.45 278.264 212.348L278.166 216.108L276.476 212.413C274.89 212.662 273.424 213.409 272.289 214.546C271.155 215.683 270.411 217.151 270.165 218.739C269.919 220.327 270.183 221.952 270.92 223.38C271.656 224.808 272.827 225.964 274.264 226.682C275.7 227.4 277.327 227.643 278.91 227.375C280.493 227.108 281.95 226.343 283.07 225.193C284.191 224.042 284.918 222.565 285.145 220.974C285.372 219.383 285.088 217.762 284.334 216.343Z" fill="#FF6584"/>
<path opacity="0.3" d="M283.735 215.075C283.139 213.953 282.271 212.999 281.21 212.3C280.149 211.602 278.93 211.183 277.664 211.08L277.566 214.84L275.876 211.145C274.29 211.394 272.824 212.141 271.69 213.278C270.555 214.415 269.811 215.883 269.565 217.471C269.319 219.059 269.583 220.684 270.32 222.112C271.057 223.54 272.228 224.696 273.664 225.414C275.1 226.132 276.727 226.375 278.31 226.107C279.893 225.84 281.35 225.075 282.471 223.925C283.592 222.774 284.318 221.297 284.545 219.706C284.772 218.116 284.489 216.494 283.735 215.075V215.075Z" stroke="#3F3D56" stroke-miterlimit="10"/>
<path opacity="0.3" d="M284.327 256.815C282.685 257.689 280.779 257.928 278.972 257.485C277.166 257.043 275.585 255.951 274.532 254.417C273.478 252.883 273.025 251.014 273.26 249.168C273.494 247.321 274.399 245.626 275.802 244.404L277.101 247.243L277.199 243.439C277.205 243.435 277.211 243.432 277.217 243.429C278.095 242.961 279.057 242.671 280.047 242.575C281.038 242.479 282.037 242.58 282.989 242.87C283.94 243.161 284.825 243.637 285.593 244.271C286.361 244.904 286.996 245.682 287.463 246.562C287.93 247.441 288.22 248.404 288.315 249.395C288.41 250.387 288.309 251.387 288.018 252.339C287.726 253.291 287.251 254.177 286.617 254.945C285.984 255.713 285.206 256.349 284.327 256.815V256.815Z" fill="#FF6584"/>
<path opacity="0.3" d="M283.78 255.523C282.138 256.396 280.232 256.635 278.426 256.192C276.619 255.75 275.038 254.658 273.985 253.124C272.931 251.59 272.478 249.722 272.713 247.875C272.947 246.029 273.852 244.333 275.255 243.111L276.554 245.951L276.652 242.146C276.658 242.143 276.664 242.139 276.67 242.136C277.548 241.669 278.51 241.378 279.5 241.283C280.49 241.187 281.49 241.288 282.441 241.579C283.393 241.87 284.277 242.345 285.045 242.979C285.813 243.612 286.448 244.39 286.915 245.27C287.382 246.149 287.672 247.112 287.767 248.103C287.862 249.094 287.761 250.094 287.47 251.046C287.179 251.998 286.703 252.884 286.07 253.652C285.437 254.42 284.659 255.056 283.78 255.523V255.523Z" stroke="#3F3D56" stroke-miterlimit="10"/>
<path opacity="0.3" d="M293.897 268.174C293.839 269.911 293.186 271.576 292.048 272.888C290.909 274.201 289.354 275.082 287.644 275.383C285.934 275.685 284.172 275.388 282.654 274.544C281.136 273.699 279.954 272.358 279.307 270.745C278.66 269.132 278.586 267.345 279.099 265.685C279.612 264.024 280.679 262.59 282.123 261.624C283.566 260.657 285.298 260.217 287.027 260.377C288.757 260.537 290.378 261.287 291.621 262.501L288.991 268.008L293.179 264.69C293.694 265.777 293.94 266.972 293.897 268.174Z" fill="#FF6584"/>
<path opacity="0.3" d="M293.448 267.223C293.39 268.961 292.737 270.625 291.598 271.938C290.46 273.25 288.905 274.131 287.195 274.433C285.485 274.734 283.723 274.438 282.205 273.593C280.687 272.749 279.505 271.407 278.858 269.794C278.211 268.181 278.137 266.395 278.65 264.734C279.163 263.073 280.23 261.639 281.674 260.673C283.117 259.707 284.849 259.266 286.578 259.426C288.307 259.586 289.929 260.336 291.172 261.551L288.542 267.057L292.73 263.739C293.244 264.826 293.491 266.021 293.448 267.223V267.223Z" stroke="#3F3D56" stroke-miterlimit="10"/>
</g>
<g opacity="0.3">
<path opacity="0.3" d="M26.3221 237.174C25.2868 237.726 24.1376 238.029 22.965 238.061C21.7925 238.092 20.6287 237.851 19.5653 237.355C18.502 236.86 17.5682 236.124 16.8375 235.205C16.1068 234.287 15.5992 233.211 15.3548 232.063C15.1103 230.914 15.1357 229.725 15.4288 228.588C15.7219 227.452 16.2749 226.398 17.044 225.512C17.8131 224.626 18.7774 223.93 19.8609 223.48C20.9444 223.031 22.1175 222.839 23.2876 222.92L23.6463 226.81L25.0042 223.241C26.9156 223.83 28.5153 225.154 29.4516 226.923C29.7828 227.542 30.0247 228.205 30.1701 228.892C30.5155 230.504 30.3268 232.184 29.6325 233.678C28.9381 235.173 27.7759 236.4 26.3221 237.174Z" fill="#FF6584"/>
<path opacity="0.3" d="M23.6225 283.262C23.8025 279.885 20.5972 277.368 17.5703 275.866C14.5434 274.363 11.0564 272.96 9.66063 269.88C7.65458 265.454 11.0866 260.655 13.7076 256.563C15.6521 253.527 17.2302 250.271 18.4088 246.863C18.8812 245.497 19.2926 244.08 19.2633 242.635C19.2212 240.553 18.2762 238.609 17.3381 236.75C14.2133 230.559 10.9437 224.443 7.5293 218.404" stroke="#3F3D56" stroke-miterlimit="10"/>
<path opacity="0.3" d="M25.8719 236.223C24.8366 236.775 23.6874 237.079 22.5148 237.11C21.3423 237.142 20.1785 236.9 19.1151 236.404C18.0518 235.909 17.118 235.173 16.3873 234.254C15.6566 233.336 15.149 232.26 14.9046 231.112C14.6601 229.964 14.6855 228.774 14.9786 227.638C15.2718 226.501 15.8247 225.448 16.5938 224.561C17.3629 223.675 18.3273 222.979 19.4107 222.53C20.4942 222.08 21.6673 221.888 22.8374 221.97L23.1961 225.86L24.554 222.29C26.4654 222.879 28.0651 224.203 29.0014 225.972C29.3326 226.591 29.5745 227.254 29.7199 227.941C30.0654 229.553 29.8766 231.233 29.1823 232.728C28.4879 234.222 27.3257 235.449 25.8719 236.223Z" stroke="#3F3D56" stroke-miterlimit="10"/>
<path opacity="0.3" d="M15.0426 215.979C14.4469 214.856 13.5787 213.902 12.5177 213.204C11.4569 212.506 10.2375 212.086 8.97194 211.984L8.87392 215.744L7.18365 212.049C5.59759 212.297 4.13156 213.044 2.99721 214.181C1.86287 215.319 1.11892 216.787 0.872759 218.375C0.626603 219.963 0.890983 221.588 1.62773 223.016C2.36448 224.443 3.53547 225.6 4.97163 226.318C6.4078 227.036 8.03483 227.279 9.61781 227.011C11.2008 226.743 12.6578 225.979 13.7785 224.828C14.8992 223.678 15.6256 222.201 15.8528 220.61C16.08 219.019 15.7963 217.397 15.0426 215.979Z" fill="#FF6584"/>
<path opacity="0.3" d="M14.443 214.711C13.8473 213.588 12.979 212.634 11.9181 211.936C10.8572 211.238 9.63785 210.818 8.37233 210.716L8.27431 214.476L6.58405 210.781C4.99799 211.03 3.53195 211.777 2.39761 212.914C1.26326 214.051 0.519306 215.519 0.27315 217.107C0.0269931 218.695 0.291373 220.32 1.02812 221.748C1.76486 223.175 2.93585 224.332 4.37202 225.05C5.80818 225.768 7.43521 226.011 9.0182 225.743C10.6012 225.475 12.0582 224.711 13.1789 223.561C14.2996 222.41 15.026 220.933 15.2532 219.342C15.4804 217.751 15.1967 216.13 14.443 214.711V214.711Z" stroke="#3F3D56" stroke-miterlimit="10"/>
<path opacity="0.3" d="M15.0349 256.451C13.3927 257.325 11.4868 257.563 9.68036 257.121C7.87391 256.679 6.29327 255.586 5.2397 254.052C4.18613 252.519 3.73331 250.65 3.96756 248.804C4.2018 246.957 5.10672 245.261 6.50985 244.04L7.80867 246.879L7.90686 243.075C7.91261 243.071 7.91865 243.068 7.92492 243.065C8.80314 242.597 9.7649 242.307 10.7552 242.211C11.7456 242.115 12.7451 242.215 13.6966 242.506C14.6482 242.797 15.5331 243.273 16.3009 243.906C17.0687 244.54 17.7043 245.318 18.1713 246.198C18.6383 247.077 18.9277 248.04 19.0228 249.031C19.1179 250.022 19.017 251.023 18.7257 251.975C18.4344 252.927 17.9586 253.813 17.3253 254.581C16.692 255.349 15.9137 255.984 15.0349 256.451V256.451Z" fill="#FF6584"/>
<path opacity="0.3" d="M14.488 255.159C12.8459 256.032 10.9399 256.271 9.13349 255.828C7.32704 255.386 5.74639 254.294 4.69282 252.76C3.63925 251.226 3.18644 249.357 3.42068 247.511C3.65493 245.664 4.55986 243.969 5.96298 242.747L7.26181 245.586L7.35999 241.782C7.36575 241.778 7.37179 241.775 7.37806 241.772C8.25627 241.304 9.21796 241.014 10.2082 240.919C11.1984 240.823 12.1978 240.923 13.1492 241.214C14.1006 241.505 14.9854 241.981 15.7531 242.614C16.5208 243.248 17.1562 244.026 17.6232 244.905C18.0902 245.785 18.3795 246.747 18.4747 247.739C18.5699 248.73 18.469 249.73 18.1778 250.682C17.8867 251.634 17.411 252.52 16.7778 253.288C16.1447 254.056 15.3666 254.691 14.488 255.158V255.159Z" stroke="#3F3D56" stroke-miterlimit="10"/>
<path opacity="0.3" d="M24.605 267.81C24.5471 269.547 23.8942 271.211 22.7557 272.524C21.6172 273.837 20.0625 274.718 18.3521 275.019C16.6418 275.32 14.8799 275.024 13.362 274.18C11.844 273.335 10.6624 271.994 10.0151 270.381C9.36786 268.768 9.29441 266.981 9.80708 265.32C10.3197 263.66 11.3873 262.226 12.8308 261.259C14.2743 260.293 16.0059 259.853 17.7352 260.013C19.4645 260.172 21.0864 260.922 22.3287 262.137L19.6995 267.644L23.8868 264.325C24.4016 265.412 24.648 266.607 24.605 267.81Z" fill="#FF6584"/>
<path opacity="0.3" d="M24.1558 266.859C24.0979 268.596 23.445 270.261 22.3065 271.573C21.168 272.886 19.6132 273.767 17.9029 274.068C16.1926 274.37 14.4307 274.073 12.9127 273.229C11.3948 272.384 10.2131 271.043 9.56589 269.43C8.91864 267.817 8.8452 266.031 9.35786 264.37C9.87053 262.709 10.9381 261.275 12.3816 260.309C13.8251 259.342 15.5567 258.902 17.286 259.062C19.0153 259.222 20.6371 259.972 21.8795 261.186L19.2503 266.693L23.4376 263.375C23.9524 264.462 24.1987 265.657 24.1558 266.859V266.859Z" stroke="#3F3D56" stroke-miterlimit="10"/>
</g>
<g opacity="0.3">
<path opacity="0.3" d="M24.287 203.54C26.0654 204.488 28.0395 205.01 30.0536 205.064C32.0677 205.118 34.0668 204.703 35.8934 203.851C37.7199 203 39.324 201.736 40.5791 200.158C41.8342 198.581 42.7061 196.733 43.126 194.76C43.5459 192.788 43.5023 190.745 42.9988 188.792C42.4953 186.84 41.5455 185.031 40.2243 183.508C38.9032 181.985 37.2467 180.791 35.3856 180.018C33.5244 179.246 31.5095 178.916 29.4995 179.056L28.8834 185.738L26.5509 179.606C23.2675 180.618 20.5197 182.893 18.9114 185.932C18.3424 186.995 17.9269 188.134 17.6772 189.314C17.0838 192.082 17.408 194.969 18.6007 197.536C19.7934 200.103 21.7897 202.211 24.287 203.54Z" fill="#57B894"/>
<path opacity="0.3" d="M28.9226 282.707C28.6135 276.906 34.1192 272.583 39.3186 270.002C44.5181 267.422 50.5078 265.011 52.9054 259.721C56.3513 252.118 50.4559 243.873 45.9537 236.846C42.6137 231.631 39.903 226.038 37.8784 220.184C37.0669 217.837 36.3602 215.403 36.4105 212.92C36.4829 209.344 38.1062 206.005 39.7175 202.812C45.0851 192.177 50.7014 181.672 56.5665 171.298" stroke="#3F3D56" stroke-miterlimit="10"/>
<path opacity="0.3" d="M25.0585 201.907C26.8369 202.855 28.8109 203.376 30.8251 203.43C32.8392 203.484 34.8383 203.069 36.6649 202.218C38.4914 201.367 40.0954 200.103 41.3506 198.525C42.6057 196.947 43.4775 195.1 43.8975 193.127C44.3174 191.155 44.2738 189.112 43.7703 187.159C43.2668 185.206 42.317 183.397 40.9958 181.875C39.6747 180.352 38.0182 179.158 36.1571 178.385C34.2959 177.612 32.281 177.283 30.271 177.423L29.6549 184.105L27.3224 177.973C24.039 178.985 21.2912 181.26 19.6829 184.298C19.1139 185.362 18.6984 186.501 18.4487 187.681C17.8552 190.449 18.1794 193.335 19.3722 195.902C20.5649 198.47 22.5612 200.578 25.0585 201.907V201.907Z" stroke="#3F3D56" stroke-miterlimit="10"/>
<path opacity="0.3" d="M43.6624 167.132C44.6855 165.204 46.177 163.565 47.9994 162.366C49.8217 161.167 51.9163 160.446 54.0901 160.27L54.2585 166.729L57.1619 160.382C59.8864 160.809 62.4046 162.092 64.3531 164.045C66.3016 165.998 67.5795 168.521 68.0023 171.248C68.4252 173.976 67.971 176.767 66.7055 179.22C65.44 181.672 63.4285 183.658 60.9616 184.892C58.4946 186.126 55.6998 186.543 52.9807 186.083C50.2616 185.623 47.7588 184.31 45.8337 182.334C43.9086 180.357 42.6609 177.82 42.2706 175.087C41.8803 172.355 42.3677 169.569 43.6624 167.132H43.6624Z" fill="#57B894"/>
<path opacity="0.3" d="M44.6917 164.954C45.7148 163.026 47.2063 161.387 49.0287 160.188C50.851 158.989 52.9456 158.268 55.1194 158.092L55.2878 164.551L58.1912 158.204C60.9157 158.631 63.4339 159.914 65.3824 161.867C67.3309 163.82 68.6088 166.343 69.0316 169.07C69.4545 171.798 69.0003 174.589 67.7348 177.042C66.4693 179.494 64.4578 181.481 61.9909 182.714C59.5239 183.948 56.7291 184.365 54.01 183.905C51.2909 183.445 48.7881 182.132 46.863 180.156C44.9379 178.179 43.6902 175.642 43.2999 172.909C42.9096 170.177 43.397 167.391 44.6917 164.954H44.6917Z" stroke="#3F3D56" stroke-miterlimit="10"/>
<path opacity="0.3" d="M43.674 236.653C46.4947 238.154 49.7686 238.564 52.8716 237.804C55.9746 237.044 58.6897 235.168 60.4995 232.533C62.3092 229.898 63.087 226.689 62.6847 223.517C62.2823 220.345 60.7279 217.432 58.3177 215.333L56.0866 220.211L55.918 213.676C55.9081 213.67 55.8977 213.664 55.887 213.659C54.3785 212.856 52.7269 212.359 51.0264 212.195C49.3259 212.031 47.6098 212.204 45.9761 212.704C44.3424 213.205 42.8231 214.022 41.505 215.11C40.1869 216.197 39.0957 217.534 38.2938 219.044C37.4918 220.554 36.9949 222.207 36.8313 223.909C36.6677 225.611 36.8406 227.329 37.3402 228.964C37.8398 230.599 38.6563 232.12 39.743 233.439C40.8298 234.758 42.1655 235.851 43.674 236.653Z" fill="#57B894"/>
<path opacity="0.3" d="M44.6144 234.433C47.4351 235.934 50.709 236.343 53.812 235.583C56.915 234.823 59.6301 232.947 61.4399 230.312C63.2497 227.677 64.0275 224.468 63.6251 221.296C63.2227 218.124 61.6683 215.211 59.2581 213.113L57.0271 217.99L56.8584 211.456C56.8485 211.449 56.8382 211.443 56.8274 211.438C55.3189 210.636 53.6673 210.138 51.9668 209.975C50.2663 209.811 48.5502 209.984 46.9165 210.484C45.2828 210.984 43.7636 211.801 42.4454 212.889C41.1273 213.977 40.0361 215.314 39.2342 216.824C38.4323 218.333 37.9353 219.987 37.7717 221.689C37.6081 223.391 37.781 225.108 38.2806 226.743C38.7802 228.379 39.5967 229.899 40.6835 231.219C41.7702 232.538 43.106 233.63 44.6144 234.433V234.433Z" stroke="#3F3D56" stroke-miterlimit="10"/>
<path opacity="0.3" d="M27.2358 256.164C27.3352 259.149 28.4568 262.008 30.4124 264.262C32.368 266.517 35.0387 268.03 37.9766 268.548C40.9145 269.066 43.941 268.557 46.5484 267.106C49.1558 265.656 51.1856 263.352 52.2974 260.581C53.4092 257.81 53.5354 254.741 52.6548 251.889C51.7741 249.036 49.9403 246.573 47.4607 244.913C44.9812 243.253 42.0068 242.496 39.0363 242.771C36.0658 243.045 33.2799 244.334 31.1459 246.42L35.6622 255.879L28.4694 250.179C27.5851 252.046 27.162 254.099 27.2358 256.164Z" fill="#57B894"/>
<path opacity="0.3" d="M28.0082 254.531C28.1077 257.515 29.2293 260.374 31.1849 262.629C33.1405 264.884 35.8112 266.397 38.7491 266.915C41.687 267.432 44.7134 266.923 47.3209 265.473C49.9283 264.022 51.9581 261.718 53.0699 258.948C54.1817 256.177 54.3078 253.108 53.4272 250.255C52.5466 247.402 50.7127 244.94 48.2332 243.279C45.7537 241.619 42.7792 240.863 39.8088 241.138C36.8383 241.412 34.0524 242.7 31.9183 244.787L36.4347 254.246L29.2419 248.546C28.3576 250.413 27.9345 252.466 28.0082 254.531V254.531Z" stroke="#3F3D56" stroke-miterlimit="10"/>
</g>
<g opacity="0.3">
<path opacity="0.3" d="M335.764 283.477C335.364 275.968 342.491 270.371 349.222 267.03C355.953 263.69 363.707 260.569 366.811 253.721C371.271 243.879 363.64 233.206 357.811 224.108C353.488 217.357 349.979 210.117 347.358 202.539C346.307 199.5 345.392 196.35 345.457 193.135C345.551 188.506 347.653 184.184 349.738 180.051C356.687 166.283 363.957 152.684 371.55 139.255" stroke="#3F3D56" stroke-miterlimit="10"/>
<path opacity="0.3" d="M380.313 123.944L372.985 126.039L373.494 122.644C372.849 122.602 372.194 122.579 371.53 122.579C361.983 122.579 354.244 126.982 354.244 132.413C354.244 137.845 361.983 142.248 371.53 142.248C381.076 142.248 388.815 137.845 388.815 132.413C388.815 128.807 385.401 125.655 380.313 123.944Z" fill="#FF6584"/>
<path opacity="0.3" d="M380.313 122.851L372.985 124.946L373.494 121.551C372.849 121.509 372.194 121.486 371.53 121.486C361.983 121.486 354.244 125.889 354.244 131.32C354.244 136.752 361.983 141.155 371.53 141.155C381.076 141.155 388.815 136.752 388.815 131.32C388.815 127.714 385.401 124.562 380.313 122.851Z" stroke="#3F3D56" stroke-miterlimit="10"/>
<path opacity="0.3" d="M358.842 248.877L351.515 250.973L352.023 247.577C351.378 247.536 350.724 247.512 350.059 247.512C340.512 247.512 332.773 251.915 332.773 257.347C332.773 262.778 340.512 267.181 350.059 267.181C359.606 267.181 367.345 262.778 367.345 257.347C367.345 253.74 363.93 250.589 358.842 248.877Z" fill="#FF6584"/>
<path opacity="0.3" d="M358.842 247.785L351.515 249.88L352.023 246.485C351.378 246.443 350.724 246.42 350.059 246.42C340.512 246.42 332.773 250.823 332.773 256.254C332.773 261.686 340.512 266.089 350.059 266.089C359.606 266.089 367.345 261.686 367.345 256.254C367.345 252.648 363.93 249.496 358.842 247.785Z" stroke="#3F3D56" stroke-miterlimit="10"/>
<path opacity="0.3" d="M384.316 222.652L376.988 224.748L377.497 221.352C376.852 221.311 376.197 221.287 375.533 221.287C365.986 221.287 358.247 225.69 358.247 231.122C358.247 236.553 365.986 240.956 375.533 240.956C385.079 240.956 392.818 236.553 392.818 231.122C392.818 227.515 389.404 224.364 384.316 222.652Z" fill="#FF6584"/>
<path opacity="0.3" d="M384.316 221.559L376.988 223.655L377.497 220.26C376.852 220.218 376.197 220.195 375.533 220.195C365.986 220.195 358.247 224.598 358.247 230.029C358.247 235.46 365.986 239.863 375.533 239.863C385.079 239.863 392.818 235.46 392.818 230.029C392.818 226.422 389.404 223.271 384.316 221.559Z" stroke="#3F3D56" stroke-miterlimit="10"/>
<path opacity="0.3" d="M354.194 155.731L346.712 154.282L348.701 151.484C348.144 151.155 347.571 150.838 346.978 150.537C338.464 146.215 329.572 146.638 327.117 151.482C324.663 156.326 329.575 163.756 338.089 168.079C346.603 172.401 355.495 171.978 357.949 167.134C359.579 163.918 357.958 159.561 354.194 155.731Z" fill="#FF6584"/>
<path opacity="0.3" d="M354.687 154.756L347.206 153.307L349.194 150.51C348.637 150.181 348.064 149.863 347.471 149.562C338.957 145.24 330.065 145.663 327.611 150.507C325.156 155.351 330.068 162.781 338.582 167.104C347.096 171.426 355.988 171.003 358.443 166.159C360.073 162.943 358.452 158.586 354.687 154.756Z" stroke="#3F3D56" stroke-miterlimit="10"/>
<path opacity="0.3" d="M370.57 193.976L363.088 192.527L365.077 189.729C364.52 189.4 363.947 189.083 363.354 188.782C354.84 184.46 345.948 184.883 343.493 189.727C341.039 194.571 345.951 202.001 354.465 206.324C362.979 210.646 371.871 210.223 374.325 205.379C375.955 202.163 374.334 197.806 370.57 193.976Z" fill="#FF6584"/>
<path opacity="0.3" d="M371.063 193.001L363.582 191.552L365.57 188.755C365.013 188.426 364.44 188.108 363.847 187.807C355.333 183.485 346.441 183.908 343.987 188.752C341.532 193.596 346.444 201.027 354.958 205.349C363.472 209.671 372.364 209.248 374.819 204.404C376.449 201.188 374.828 196.831 371.063 193.001Z" stroke="#3F3D56" stroke-miterlimit="10"/>
</g>
<path d="M3.25488 283.39H386.086" stroke="#3F3D56" stroke-miterlimit="10"/>
<path d="M194.735 0.182129C156.348 0.182129 125.229 20.8766 125.229 46.4046C125.229 57.803 131.436 68.2357 141.722 76.2949V109.843L163.755 87.7894C173.759 91.0412 184.217 92.6743 194.735 92.6271C233.122 92.6271 264.241 71.9326 264.241 46.4046C264.241 20.8766 233.122 0.182129 194.735 0.182129Z" stroke="#3F3D56" stroke-miterlimit="10"/>
<path d="M164.535 119.785C164.535 119.785 163.136 100.939 163.795 97.4922C164.453 94.0453 165.071 84.2338 161.452 87.4591C157.833 90.6843 159.119 98.0019 159.119 98.0019C159.119 98.0019 155.684 117.919 158.861 120.621C162.037 123.323 164.535 119.785 164.535 119.785Z" fill="#A0616A"/>
<path d="M167.141 138.422C167.141 138.422 156.368 128.805 156.951 120.645C156.951 120.645 163.356 115.691 164.812 118.314C166.268 120.936 176.849 131.169 175.053 134.65C173.256 138.131 167.141 138.422 167.141 138.422Z" fill="#1B646B"/>
<path d="M205.283 121.228C205.283 121.228 211.689 103.451 211.98 99.9536C212.271 96.4565 214.309 86.8395 216.93 90.9194C219.55 94.9994 216.347 101.702 216.347 101.702C216.347 101.702 214.309 121.811 210.524 123.559C206.739 125.308 205.283 121.228 205.283 121.228Z" fill="#A0616A"/>
<path d="M187.813 210.404H204.991L205.865 219.147L201.789 220.021C201.789 220.021 192.18 217.107 186.648 217.981C181.116 218.856 187.813 210.404 187.813 210.404Z" fill="#A0616A"/>
<path d="M199.169 209.239C199.169 209.239 207.321 203.702 208.777 208.364C210.233 213.027 215.474 229.93 213.727 231.679C211.98 233.427 209.942 230.221 209.942 230.221C209.942 230.221 206.448 222.936 203.828 222.644C201.207 222.353 199.751 220.021 199.751 220.021C199.751 220.021 207.321 214.193 199.169 209.239Z" fill="#2F2E41"/>
<path d="M183.445 254.41C183.445 254.41 186.648 267.524 186.066 269.564C185.483 271.604 195.383 270.438 195.383 270.438L195.965 266.649C195.965 266.649 190.142 257.324 190.142 253.244C190.142 249.164 183.445 254.41 183.445 254.41Z" fill="#A0616A"/>
<path d="M195.384 264.027C195.384 264.027 203.245 269.855 199.169 272.769C195.093 275.684 179.952 283.261 179.952 283.261C179.952 283.261 174.42 284.135 178.496 279.181C182.573 274.227 183.737 273.352 184.029 270.729C184.282 268.983 184.893 267.308 185.824 265.809C185.824 265.809 189.852 273.935 195.384 264.027Z" fill="#2F2E41"/>
<path d="M171.508 194.084C171.508 194.084 168.306 224.393 173.255 234.01C178.205 243.627 184.028 256.741 183.737 257.324C183.446 257.907 192.181 256.45 192.181 253.827C192.181 251.204 182.573 224.976 182.573 224.976C182.573 224.976 186.649 190.879 189.852 188.547C193.054 186.216 171.508 194.084 171.508 194.084Z" fill="#2F2E41"/>
<path opacity="0.1" d="M171.508 194.084C171.508 194.084 168.306 224.393 173.255 234.01C178.205 243.627 184.028 256.741 183.737 257.324C183.446 257.907 192.181 256.45 192.181 253.827C192.181 251.204 182.573 224.976 182.573 224.976C182.573 224.976 186.649 190.879 189.852 188.547C193.054 186.216 171.508 194.084 171.508 194.084Z" fill="black"/>
<path d="M178.089 108.551C176.008 108.928 173.946 110.072 172.911 112.027C171.945 113.85 171.884 116.287 170.348 117.596C169.431 118.378 168.186 118.559 167.162 119.173C166.435 119.638 165.843 120.288 165.447 121.056C165.051 121.824 164.864 122.683 164.906 123.546C164.988 125.154 165.835 126.652 165.817 128.262C165.794 130.355 164.347 132.084 162.987 133.599L167.498 134.436C168.18 134.619 168.895 134.638 169.585 134.492C170.364 134.261 170.997 133.619 171.784 133.423C172.914 133.142 174.031 133.83 175.039 134.44C177.908 136.177 180.983 137.487 184.048 138.792C184.949 139.176 185.972 139.561 186.861 139.146C187.58 138.812 188.027 138.03 188.703 137.607C189.913 136.849 191.432 137.42 192.792 137.794C195.868 138.629 199.139 138.35 202.03 137.006C201.406 136.278 200.59 135.769 199.918 135.09C199.247 134.412 198.704 133.452 198.881 132.486C199.062 131.501 199.908 130.843 200.485 130.048C200.911 129.418 201.207 128.71 201.357 127.964C201.506 127.219 201.506 126.451 201.356 125.705C201.053 124.222 200.332 122.857 199.279 121.771C198.677 121.207 198.11 120.609 197.58 119.978C196.518 118.543 196.256 116.644 195.916 114.856C195.577 113.068 195.041 111.165 193.663 110.076C191.468 108.341 187.903 108.933 185.336 108.76C182.889 108.596 180.53 108.551 178.089 108.551Z" fill="#2F2E41"/>
<path d="M163.647 173.393L169.179 187.09C169.179 187.09 143.848 214.776 158.115 218.564C172.382 222.353 177.331 215.65 186.357 220.896C186.357 220.896 190.725 214.193 190.143 210.113C190.143 210.113 177.623 207.781 170.926 208.073C170.926 208.073 188.978 192.336 190.725 191.753C192.472 191.17 198.295 181.844 189.269 174.267C180.243 166.69 182.572 162.61 182.572 162.61L163.647 173.393Z" fill="#2F2E41"/>
<path d="M176.749 125.891C176.749 125.891 177.623 134.925 173.837 136.091C170.052 137.256 188.687 136.965 188.687 136.965C188.687 136.965 184.319 134.342 186.357 128.805C188.396 123.268 176.749 125.891 176.749 125.891Z" fill="#A0616A"/>
<path opacity="0.1" d="M176.749 125.891C176.749 125.891 177.623 134.925 173.837 136.091C170.052 137.256 188.687 136.965 188.687 136.965C188.687 136.965 184.319 134.342 186.357 128.805C188.396 123.268 176.749 125.891 176.749 125.891Z" fill="black"/>
<path d="M196.548 141.628C196.548 141.628 194.801 132.594 191.307 133.176C187.813 133.759 180.826 134.342 179.952 134.925C179.079 135.508 174.42 136.702 174.42 136.702C174.42 136.702 176.167 134.634 174.42 134.342C172.673 134.051 167.141 135.508 166.559 136.674C165.976 137.839 163.647 140.171 163.647 144.251C163.647 148.331 161.9 155.325 162.482 158.239C163.065 161.153 162.191 167.856 160.444 171.645C158.697 175.433 160.153 179.222 163.065 175.433C165.976 171.645 164.52 175.433 166.85 175.725C169.179 176.016 179.661 165.233 182.573 167.856C185.484 170.479 188.396 172.228 188.978 170.77C189.56 169.313 186.649 166.69 186.649 165.525C186.649 164.359 181.99 169.313 186.94 159.113C191.89 148.913 187.231 145.999 196.548 141.628Z" fill="#1B646B"/>
<path d="M194.219 141.045L196.548 141.628C196.548 141.628 204.992 135.508 207.321 131.136C209.65 126.765 211.397 123.268 211.397 123.268C211.397 123.268 207.612 118.605 205.283 120.354C202.954 122.102 192.472 134.051 192.472 134.051L194.219 141.045Z" fill="#1B646B"/>
<path d="M183.446 132.011C188.431 132.011 192.472 127.966 192.472 122.976C192.472 117.987 188.431 113.942 183.446 113.942C178.461 113.942 174.42 117.987 174.42 122.976C174.42 127.966 178.461 132.011 183.446 132.011Z" fill="#A0616A"/>
<path d="M175.462 120.359C177.004 119.079 178.974 118.43 180.975 118.545C184.435 118.758 187.48 121.226 190.946 121.303C190.807 120.553 190.912 119.778 191.244 119.092C191.513 118.54 191.937 118.006 191.88 117.395C191.785 116.911 191.519 116.476 191.132 116.17C189.129 114.269 186.359 113.289 183.601 113.168C181.752 113.087 178.223 113.131 176.789 114.533C175.562 115.732 175.705 118.805 175.462 120.359Z" fill="#2F2E41"/>
<path d="M194.735 73.9527C205.186 73.9527 213.658 65.4728 213.658 55.0123C213.658 44.5518 205.186 36.0719 194.735 36.0719C184.284 36.0719 175.812 44.5518 175.812 55.0123C175.812 65.4728 184.284 73.9527 194.735 73.9527Z" fill="#1B646B"/>
<path d="M190.111 50.2547C191.113 50.2547 191.926 49.1897 191.926 47.8759C191.926 46.5621 191.113 45.4971 190.111 45.4971C189.108 45.4971 188.296 46.5621 188.296 47.8759C188.296 49.1897 189.108 50.2547 190.111 50.2547Z" fill="#444053"/>
<path d="M199.489 50.2547C200.491 50.2547 201.304 49.1897 201.304 47.8759C201.304 46.5621 200.491 45.4971 199.489 45.4971C198.486 45.4971 197.674 46.5621 197.674 47.8759C197.674 49.1897 198.486 50.2547 199.489 50.2547Z" fill="#444053"/>
<path d="M206.078 55.3582C206.078 58.7741 200.378 64.5276 194.627 64.5276C188.875 64.5276 183.392 58.6443 183.392 55.2285C183.392 51.8126 188.756 54.9365 194.508 54.9365C200.26 54.9365 206.078 51.9424 206.078 55.3582Z" fill="#3F3D56"/>
<path d="M185.204 55.9423C185.204 55.9423 195.542 58.2454 204.228 56.0071C204.228 56.0071 205.291 56.0071 204.565 57.2372C204.375 57.5562 204.099 57.8147 203.768 57.9827C202.094 58.8388 195.897 61.3693 185.988 58.142C185.681 58.0452 185.404 57.8742 185.179 57.6441C184.955 57.4139 184.791 57.1319 184.701 56.8229C184.585 56.4006 184.635 56.0006 185.204 55.9423Z" fill="#F6F8FB"/>
</g>
<defs>
<clipPath id="clip0">
<rect width="393" height="284" fill="white"/>
</clipPath>
</defs>
</svg>
