<svg width="505" height="356" viewBox="0 0 505 356" fill="none" xmlns="http://www.w3.org/2000/svg">
<g clip-path="url(#clip0_4871_28)">
<path d="M257.914 355.245C273.103 355.245 285.415 342.928 285.415 327.735C285.415 312.541 273.103 300.224 257.914 300.224C242.725 300.224 230.412 312.541 230.412 327.735C230.412 342.928 242.725 355.245 257.914 355.245Z" fill="#2D3B5A"/>
<path d="M311.722 89.7087C319.646 89.7087 326.07 83.2824 326.07 75.3553C326.07 67.4282 319.646 61.002 311.722 61.002C303.797 61.002 297.373 67.4282 297.373 75.3553C297.373 83.2824 303.797 89.7087 311.722 89.7087Z" fill="#F2F2F2"/>
<path d="M348.788 277.498C356.713 277.498 363.137 271.072 363.137 263.145C363.137 255.218 356.713 248.792 348.788 248.792C340.864 248.792 334.439 255.218 334.439 263.145C334.439 271.072 340.864 277.498 348.788 277.498Z" fill="#F2F2F2"/>
<path d="M254.969 40.67C211.987 40.9737 176.794 75.9134 176.184 118.906C176.178 119.303 176.175 122.094 176.176 125.744C176.176 131.096 178.302 136.229 182.085 140.014C185.868 143.799 190.999 145.925 196.35 145.926H196.35C199.002 145.925 201.629 145.402 204.079 144.386C206.529 143.369 208.755 141.88 210.629 140.003C212.504 138.126 213.99 135.898 215.003 133.446C216.017 130.994 216.537 128.366 216.535 125.713C216.533 123.23 216.531 121.511 216.531 121.406C216.53 114.761 218.258 108.231 221.544 102.457C224.831 96.6832 229.564 91.8647 235.277 88.4756C240.991 85.0864 247.487 83.2433 254.128 83.1276C260.77 83.0119 267.327 84.6276 273.154 87.8157C278.982 91.0038 283.88 95.6545 287.365 101.31C290.851 106.966 292.805 113.432 293.035 120.073C293.265 126.713 291.763 133.299 288.677 139.183C285.59 145.066 281.026 150.045 275.433 153.629L275.44 153.637C275.44 153.637 246.726 172.129 237.971 197.496L237.979 197.498C236.439 202.694 235.659 208.086 235.663 213.506C235.663 215.734 235.794 235.229 236.047 251.051C236.136 256.51 238.366 261.716 242.257 265.545C246.149 269.374 251.389 271.519 256.847 271.518H256.847C259.59 271.518 262.305 270.975 264.837 269.921C267.369 268.867 269.668 267.323 271.602 265.377C273.535 263.431 275.065 261.122 276.102 258.582C277.14 256.043 277.666 253.323 277.649 250.579C277.561 236.089 277.513 219.216 277.513 217.992C277.513 202.415 292.535 186.896 304.874 176.775C319.082 165.121 329.307 149.239 333.414 131.323C334.323 127.635 334.824 123.858 334.908 120.06C334.908 109.586 332.836 99.2152 328.812 89.5456C324.787 79.8759 318.89 71.0985 311.459 63.7189C304.029 56.3394 295.212 50.5036 285.516 46.5478C275.821 42.592 265.439 40.5944 254.969 40.67V40.67Z" fill="#2D3B5A"/>
<path d="M504.288 356H0.71176C0.523319 355.999 0.342786 355.924 0.209731 355.791C0.0766754 355.657 0.00195312 355.476 0.00195312 355.288C0.00195312 355.099 0.0766754 354.918 0.209731 354.785C0.342786 354.652 0.523319 354.576 0.71176 354.576H504.288C504.477 354.576 504.658 354.651 504.791 354.784C504.925 354.918 505 355.099 505 355.288C505 355.477 504.925 355.658 504.791 355.791C504.658 355.925 504.477 356 504.288 356V356Z" fill="#3F3D56"/>
<path d="M375.725 163.267C385.631 163.267 393.661 155.234 393.661 145.325C393.661 135.417 385.631 127.384 375.725 127.384C365.819 127.384 357.789 135.417 357.789 145.325C357.789 155.234 365.819 163.267 375.725 163.267Z" fill="#2F2E41"/>
<path d="M342.582 348.146H335.253L331.766 319.865H342.584L342.582 348.146Z" fill="#A0616A"/>
<path d="M330.017 346.051H344.153V354.954H321.117C321.117 353.785 321.347 352.627 321.795 351.547C322.242 350.467 322.898 349.485 323.724 348.658C324.55 347.832 325.532 347.176 326.611 346.728C327.691 346.281 328.849 346.051 330.017 346.051Z" fill="#2D3B5A"/>
<path d="M399.379 348.146H392.05L388.562 319.865H399.381L399.379 348.146Z" fill="#A0616A"/>
<path d="M386.814 346.051H400.95V354.954H377.914C377.914 353.785 378.144 352.627 378.592 351.547C379.039 350.467 379.694 349.485 380.521 348.658C381.347 347.832 382.329 347.176 383.408 346.728C384.488 346.281 385.646 346.051 386.814 346.051V346.051Z" fill="#2D3B5A"/>
<path d="M372.999 163.372C381.108 163.372 387.683 156.795 387.683 148.683C387.683 140.571 381.108 133.994 372.999 133.994C364.889 133.994 358.314 140.571 358.314 148.683C358.314 156.795 364.889 163.372 372.999 163.372Z" fill="#A0616A"/>
<path d="M381.751 210.759L388.322 195.658C389.918 192.115 390.375 188.165 389.631 184.351C388.886 180.537 386.977 177.049 384.167 174.367C383.59 173.796 382.976 173.263 382.331 172.77C379.089 170.233 375.094 168.85 370.978 168.841C368.21 168.852 365.478 169.459 362.967 170.623C362.751 170.719 362.542 170.82 362.327 170.922C361.914 171.119 361.508 171.335 361.113 171.556C358.539 173.034 356.349 175.097 354.718 177.578C353.088 180.059 352.063 182.888 351.727 185.838L348.827 210.143C348.098 212.05 322.079 280.946 331.178 333.546C331.275 334.107 331.549 334.623 331.96 335.018C332.371 335.413 332.897 335.666 333.462 335.74L342.687 336.996C343.361 337.089 344.044 336.922 344.6 336.53C345.156 336.139 345.543 335.551 345.682 334.885L361.161 261.079C361.258 260.62 361.505 260.207 361.864 259.906C362.222 259.605 362.672 259.432 363.14 259.416C363.608 259.401 364.068 259.542 364.446 259.819C364.825 260.095 365.099 260.491 365.226 260.942L387.096 338.557C387.252 339.121 387.589 339.618 388.054 339.973C388.519 340.327 389.088 340.519 389.673 340.519C389.848 340.518 390.022 340.502 390.193 340.471L401.463 338.3C402.118 338.178 402.704 337.815 403.105 337.283C403.507 336.75 403.695 336.087 403.633 335.423C401.977 316.95 393.177 224.412 381.751 210.759Z" fill="#2D3B5A"/>
<path d="M315.933 160.907C315.831 161.78 315.922 162.665 316.199 163.499C316.476 164.334 316.932 165.097 317.536 165.736C318.14 166.375 318.877 166.874 319.694 167.197C320.511 167.52 321.39 167.66 322.267 167.607L330.475 187.338L336.684 178.132L327.938 160.806C327.751 159.338 327.032 157.989 325.918 157.015C324.803 156.041 323.37 155.51 321.891 155.523C320.411 155.535 318.987 156.09 317.889 157.082C316.791 158.075 316.095 159.435 315.933 160.907L315.933 160.907Z" fill="#A0616A"/>
<path d="M372.186 230.626C373.058 230.522 373.897 230.228 374.644 229.764C375.391 229.3 376.027 228.678 376.507 227.942C376.987 227.205 377.3 226.373 377.424 225.502C377.548 224.632 377.479 223.745 377.223 222.904L394.493 210.321L384.096 206.427L369.29 218.972C367.906 219.496 366.763 220.509 366.076 221.82C365.389 223.131 365.206 224.649 365.563 226.086C365.92 227.522 366.791 228.778 368.012 229.615C369.232 230.452 370.717 230.812 372.186 230.626V230.626Z" fill="#A0616A"/>
<path d="M344.033 200.493C343.371 200.492 342.711 200.427 342.061 200.298C340.49 199.999 339.017 199.318 337.772 198.315C336.526 197.313 335.546 196.019 334.918 194.547L323.419 180.521C323.176 180.225 322.999 179.879 322.9 179.509C322.801 179.138 322.782 178.751 322.845 178.373C322.908 177.994 323.051 177.634 323.264 177.315C323.478 176.997 323.757 176.728 324.083 176.526L332.264 171.46C332.566 171.273 332.903 171.147 333.253 171.091C333.604 171.034 333.963 171.048 334.308 171.131C334.653 171.214 334.979 171.364 335.266 171.574C335.553 171.783 335.796 172.047 335.98 172.351L344.085 185.708L359.607 174.233C360.842 173.585 362.27 173.403 363.629 173.721C364.988 174.039 366.187 174.835 367.007 175.964C367.827 177.094 368.214 178.48 368.097 179.871C367.98 181.262 367.366 182.564 366.368 183.54L350.876 197.676C349.056 199.481 346.596 200.494 344.033 200.493Z" fill="#2D3B5A"/>
<path d="M385.974 221.588C385.953 221.588 385.932 221.588 385.911 221.587C385.533 221.578 385.162 221.49 384.821 221.328C384.48 221.166 384.177 220.935 383.931 220.648L376.658 212.16C376.41 211.871 376.226 211.532 376.119 211.167C376.012 210.802 375.983 210.418 376.035 210.04C376.087 209.663 376.218 209.301 376.421 208.979C376.623 208.656 376.891 208.38 377.208 208.169L390.828 199.086L378.489 184.247C377.771 183.05 377.508 181.634 377.747 180.259C377.987 178.884 378.712 177.641 379.792 176.757C380.872 175.873 382.234 175.407 383.629 175.444C385.024 175.482 386.359 176.02 387.39 176.961L402.386 191.621C403.566 192.699 404.467 194.048 405.012 195.552C405.556 197.055 405.728 198.669 405.512 200.253C405.296 201.838 404.698 203.346 403.771 204.649C402.844 205.952 401.615 207.01 400.189 207.733L387.932 220.743C387.68 221.009 387.377 221.222 387.04 221.367C386.703 221.513 386.341 221.588 385.974 221.588Z" fill="#2D3B5A"/>
<path d="M369.265 190.31C369.149 190.31 369.032 190.303 368.916 190.288C368.41 190.226 367.931 190.021 367.538 189.695C367.145 189.37 366.853 188.939 366.698 188.453L361.232 171.69C361.095 171.266 361.116 170.807 361.291 170.397C361.466 169.988 361.784 169.655 362.185 169.462L362.362 169.378C362.523 169.302 362.682 169.226 362.845 169.154C365.394 167.971 368.168 167.354 370.978 167.346C374.625 167.352 378.191 168.424 381.238 170.43C381.646 170.702 381.932 171.123 382.033 171.604C382.133 172.084 382.041 172.585 381.777 172.998L371.523 189.066C371.283 189.448 370.95 189.762 370.555 189.98C370.16 190.197 369.716 190.311 369.265 190.31V190.31Z" fill="#E6E6E6"/>
<path d="M389.867 137.316C393.108 137.316 395.736 134.687 395.736 131.445C395.736 128.202 393.108 125.574 389.867 125.574C386.626 125.574 383.998 128.202 383.998 131.445C383.998 134.687 386.626 137.316 389.867 137.316Z" fill="#2F2E41"/>
<path d="M369.748 124.991C365.625 124.991 361.671 126.629 358.756 129.546C355.841 132.462 354.203 136.417 354.203 140.541V147.119H362.292L366.16 140.541L367.321 147.119H391.868L385.292 140.541C385.292 136.417 383.654 132.462 380.739 129.546C377.824 126.629 373.87 124.991 369.748 124.991V124.991Z" fill="#2F2E41"/>
<path d="M392.883 127.423C393.532 125.393 394.876 123.657 396.678 122.52C398.48 121.383 400.625 120.917 402.736 121.206C406.476 121.831 409.434 124.839 411.196 128.198C412.957 131.557 413.771 135.316 414.956 138.92C416.14 142.523 417.82 146.146 420.811 148.479C423.801 150.812 428.39 151.445 431.327 149.045C430.991 151.546 429.878 153.878 428.145 155.711C426.412 157.545 424.147 158.786 421.669 159.261C419.192 159.736 416.628 159.42 414.34 158.357C412.052 157.295 410.157 155.539 408.921 153.34C407.371 150.582 406.971 147.349 406.511 144.219C406.052 141.088 405.455 137.85 403.604 135.284C401.754 132.718 398.291 131.042 395.352 132.21L392.883 127.423Z" fill="#2F2E41"/>
<path d="M202.046 136.38C196.695 136.379 191.564 134.253 187.78 130.468C183.997 126.683 181.872 121.55 181.871 116.198C181.871 112.547 181.874 109.757 181.879 109.36C182.049 96.8562 185.197 84.5737 191.062 73.5308C181.426 86.7256 176.128 102.59 175.9 118.928C175.895 119.325 175.892 122.116 175.893 125.767C175.893 131.119 178.018 136.252 181.802 140.037C185.585 143.822 190.716 145.948 196.067 145.949V145.949C200.464 145.947 204.74 144.51 208.245 141.856C211.751 139.201 214.295 135.475 215.49 131.242C211.796 134.556 207.007 136.386 202.046 136.38V136.38Z" fill="#3F3D56"/>
<path d="M256.336 83.1954C262.522 83.4909 268.543 85.2838 273.884 88.42C279.224 91.5562 283.724 95.9421 286.996 101.201C290.269 106.46 292.217 112.435 292.672 118.613C293.128 124.791 292.078 130.987 289.613 136.669C293.179 132.48 295.8 127.57 297.297 122.275C298.795 116.981 299.133 111.425 298.29 105.988C297.446 100.55 295.441 95.3584 292.41 90.7665C289.379 86.1746 285.393 82.2906 280.726 79.3791C276.058 76.4676 270.817 74.5971 265.361 73.8952C259.906 73.1933 254.363 73.6764 249.11 75.3117C243.858 76.947 239.02 79.6959 234.926 83.3711C230.832 87.0464 227.578 91.5614 225.387 96.6085C229.174 92.1514 233.935 88.624 239.301 86.2985C244.667 83.9729 250.495 82.9113 256.336 83.1954V83.1954Z" fill="#3F3D56"/>
<path d="M262.541 261.972C257.083 261.973 251.843 259.828 247.952 255.999C244.061 252.17 241.83 246.964 241.742 241.505C241.489 225.683 241.358 206.188 241.358 203.96C241.354 198.54 242.134 193.148 243.673 187.952L243.666 187.95C244.575 185.341 245.673 182.803 246.951 180.354C243.028 185.584 239.906 191.369 237.687 197.519L237.695 197.521C236.155 202.717 235.375 208.109 235.379 213.529C235.379 215.757 235.51 235.251 235.763 251.074C235.852 256.533 238.082 261.739 241.973 265.568C245.865 269.397 251.104 271.542 256.563 271.541V271.541C261.063 271.54 265.442 270.08 269.043 267.379C272.643 264.678 275.271 260.882 276.532 256.56C272.708 260.049 267.717 261.979 262.541 261.972V261.972Z" fill="white"/>
<path d="M75.6541 348.419L82.9833 348.418L86.4707 320.137L75.6523 320.138L75.6541 348.419Z" fill="#FFB8B8"/>
<path d="M97.1191 355.226L74.0831 355.227L74.0827 346.324L88.2184 346.323C90.5789 346.323 92.8428 347.261 94.512 348.931C96.1812 350.6 97.119 352.865 97.1191 355.226V355.226L97.1191 355.226Z" fill="#2D3B5A"/>
<path d="M49.3475 348.419L56.6767 348.418L60.164 320.137L49.3457 320.138L49.3475 348.419Z" fill="#FFB8B8"/>
<path d="M70.8145 355.226L47.7784 355.227L47.778 346.324L61.9138 346.323C64.2743 346.323 66.5381 347.261 68.2073 348.931C69.8765 350.6 70.8143 352.865 70.8145 355.226V355.226L70.8145 355.226Z" fill="#2D3B5A"/>
<path d="M55.7541 339.721L48.5947 339.344C48.2255 339.325 47.8639 339.232 47.5307 339.072C47.1975 338.912 46.8994 338.687 46.6537 338.411C46.408 338.134 46.2196 337.812 46.0993 337.462C45.979 337.113 45.9293 336.743 45.953 336.374L54.51 241.602L93.9158 252.239L97.7123 251.203L85.8398 335.101C85.7387 335.732 85.4254 336.31 84.9516 336.739C84.4779 337.168 83.8721 337.422 83.2342 337.46L75.5165 337.82C75.1306 337.841 74.7444 337.782 74.3824 337.647C74.0204 337.511 73.6904 337.302 73.4133 337.033C73.1363 336.763 72.9181 336.439 72.7726 336.081C72.6271 335.723 72.5575 335.338 72.5681 334.952L73.9665 284.598C73.973 284.365 73.8922 284.138 73.7398 283.962C73.5875 283.786 73.3747 283.673 73.1434 283.646C72.9121 283.619 72.6791 283.679 72.4902 283.816C72.3014 283.952 72.1705 284.154 72.1232 284.382L58.6372 337.497C58.5099 338.127 58.1681 338.694 57.6699 339.1C57.1718 339.506 56.5482 339.727 55.9055 339.725C55.8554 339.725 55.8049 339.724 55.7541 339.721Z" fill="#2D3B5A"/>
<path d="M76.9693 164.059C85.0791 164.059 91.6534 157.482 91.6534 149.37C91.6534 141.258 85.0791 134.681 76.9693 134.681C68.8595 134.681 62.2852 141.258 62.2852 149.37C62.2852 157.482 68.8595 164.059 76.9693 164.059Z" fill="#FFB8B8"/>
<path d="M52.5218 192.525L54.1364 227.372L54.7201 240.05C54.7433 240.602 54.9306 241.134 55.2581 241.579C55.5855 242.024 56.0381 242.361 56.5581 242.547L94.4243 256.269C94.7302 256.382 95.0543 256.439 95.3806 256.436C95.7536 256.438 96.1231 256.365 96.4671 256.22C96.8111 256.076 97.1225 255.864 97.3828 255.597C97.643 255.33 97.8467 255.013 97.9818 254.665C98.1169 254.317 98.1805 253.946 98.1689 253.573L96.6165 190.916C96.5145 185.775 94.6228 180.831 91.2675 176.936C87.9122 173.041 83.3035 170.439 78.236 169.579C77.8697 169.523 77.497 169.467 77.1244 169.418C73.9821 169.027 70.7925 169.331 67.78 170.306C64.7675 171.282 62.0053 172.906 59.6877 175.064C57.2879 177.272 55.4022 179.98 54.164 182.997C52.9257 186.015 52.3651 189.267 52.5218 192.525L52.5218 192.525Z" fill="white"/>
<path d="M112.514 249.315C111.618 249.037 110.8 248.554 110.124 247.903C109.449 247.253 108.934 246.453 108.623 245.568C108.311 244.684 108.21 243.738 108.328 242.808C108.446 241.877 108.781 240.987 109.304 240.209L96.4629 223.128L107.544 222.442L118.039 238.767C119.163 239.636 119.944 240.873 120.247 242.261C120.55 243.649 120.355 245.1 119.696 246.358C119.037 247.616 117.956 248.602 116.642 249.143C115.329 249.684 113.867 249.745 112.514 249.315H112.514Z" fill="#FFB8B8"/>
<path d="M103.485 237.118C103.145 236.98 102.835 236.776 102.575 236.517C102.314 236.259 102.107 235.951 101.966 235.612L82.62 189.505C82.2404 188.602 82.0424 187.634 82.0372 186.654C82.0321 185.675 82.2199 184.704 82.5899 183.797C82.96 182.891 83.505 182.066 84.1939 181.37C84.8828 180.674 85.702 180.121 86.6047 179.742C87.5075 179.363 88.476 179.166 89.455 179.161C90.434 179.157 91.4043 179.345 92.3104 179.716C93.2165 180.087 94.0407 180.633 94.7358 181.323C95.4309 182.012 95.9833 182.832 96.3615 183.736L115.707 229.843C115.993 230.527 115.996 231.296 115.716 231.982C115.436 232.668 114.895 233.214 114.212 233.502L105.624 237.108C105.286 237.251 104.923 237.325 104.555 237.327C104.188 237.329 103.824 237.258 103.485 237.118L103.485 237.118Z" fill="white"/>
<path d="M72.2497 235.491L90.8309 199.902C91.1892 199.217 91.8043 198.703 92.5412 198.472C93.2782 198.24 94.0767 198.311 94.7618 198.668L121.732 212.758C122.417 213.117 122.931 213.732 123.162 214.469C123.393 215.206 123.323 216.005 122.966 216.69L104.385 252.28C104.026 252.964 103.411 253.479 102.674 253.71C101.937 253.941 101.139 253.871 100.454 253.514L73.4834 239.424C72.7992 239.065 72.285 238.45 72.0537 237.713C71.8225 236.976 71.893 236.177 72.2497 235.491Z" fill="#3F3D56"/>
<path d="M84.7103 219.232C84.38 218.354 83.8491 217.565 83.16 216.929C82.4709 216.293 81.6427 215.826 80.7415 215.567C79.8402 215.308 78.8909 215.263 77.9693 215.436C77.0477 215.609 76.1792 215.996 75.4333 216.564L57.6299 204.75L57.5996 215.856L74.5107 225.372C75.4442 226.443 76.7247 227.15 78.1277 227.371C79.5307 227.591 80.9665 227.311 82.1834 226.578C83.4002 225.846 84.3204 224.708 84.7824 223.365C85.2445 222.021 85.219 220.558 84.7103 219.232V219.232Z" fill="#FFB8B8"/>
<path d="M62.2013 221.729L47.6512 210.2C46.0772 209.671 44.6549 208.768 43.5065 207.569C42.3581 206.369 41.5178 204.909 41.0579 203.313C40.5979 201.717 40.5319 200.033 40.8657 198.406C41.1994 196.779 41.9228 195.257 42.9739 193.972L56.185 176.652C57.103 175.53 58.3941 174.776 59.8223 174.527C61.2505 174.279 62.7204 174.553 63.9632 175.299C65.206 176.046 66.1388 177.215 66.591 178.592C67.0433 179.97 66.9847 181.465 66.4261 182.803L55.9732 199.907L71.3346 207.196C71.6919 207.365 72.0091 207.608 72.2653 207.91C72.5215 208.211 72.7109 208.563 72.821 208.943C72.9311 209.323 72.9594 209.721 72.9039 210.113C72.8485 210.505 72.7106 210.88 72.4994 211.214L66.2985 221.031C66.0889 221.362 65.812 221.646 65.4859 221.863C65.1598 222.081 64.7916 222.227 64.4052 222.293C64.3899 222.296 64.3745 222.298 64.359 222.301C63.9794 222.358 63.5921 222.337 63.2209 222.239C62.8498 222.14 62.5027 221.967 62.2013 221.729V221.729Z" fill="white"/>
<path d="M65.8736 159.206C65.8106 159.022 65.7906 158.825 65.8152 158.632C65.8398 158.439 65.9082 158.253 66.0154 158.091C66.1225 157.928 66.2654 157.792 66.4332 157.693C66.601 157.594 66.7892 157.535 66.9835 157.52C67.3812 157.542 67.7704 157.644 68.1276 157.82C68.4848 157.996 68.8025 158.243 69.0617 158.546C69.5931 159.158 70.2118 159.69 70.8978 160.123C71.6082 160.481 72.5716 160.43 72.9765 159.747C73.3568 159.106 73.0962 158.247 72.866 157.502C72.2802 155.607 71.9524 153.642 71.8915 151.659C71.8252 149.446 72.1373 147.137 73.3621 145.411C74.9428 143.183 77.7692 142.337 80.4441 142.399C83.1189 142.46 85.7504 143.286 88.3999 143.808C89.3146 143.988 90.3897 144.08 91.0015 143.371C91.652 142.617 91.4131 141.397 91.1364 140.379C90.4184 137.737 89.6567 135.006 87.9885 132.872C86.1848 130.655 83.6082 129.204 80.7778 128.811C78.0604 128.474 75.3019 128.788 72.7292 129.725C68.5375 131.047 64.8491 133.617 62.1572 137.092C59.3824 140.788 58.1833 145.433 58.8223 150.01C59.4465 153.997 61.5586 157.599 64.7327 160.09L65.8736 159.206Z" fill="#2F2E41"/>
<path d="M251.855 348.535C247.948 346.833 244.49 344.246 241.754 340.978C239.018 337.71 237.078 333.851 236.089 329.705C235.099 325.559 235.086 321.239 236.051 317.088C237.016 312.936 238.932 309.065 241.649 305.781C238.499 308.081 235.875 311.025 233.95 314.418C232.025 317.81 230.843 321.574 230.483 325.458C230.123 329.343 230.593 333.259 231.861 336.948C233.13 340.637 235.169 344.013 237.842 346.854C240.515 349.694 243.761 351.934 247.366 353.423C250.97 354.912 254.85 355.618 258.748 355.493C262.646 355.367 266.472 354.414 269.974 352.697C273.475 350.979 276.571 348.536 279.057 345.53C275.18 348.364 270.629 350.133 265.856 350.66C261.084 351.188 256.256 350.455 251.855 348.535V348.535Z" fill="white"/>
</g>
<defs>
<clipPath id="clip0_4871_28">
<rect width="505" height="356" fill="white"/>
</clipPath>
</defs>
</svg>
