<svg width="845" height="652" viewBox="0 0 845 652" fill="none" xmlns="http://www.w3.org/2000/svg">
<g clip-path="url(#clip0_1105_312)">
<path d="M612.047 424.273L502.71 367.902C501.061 367.049 499.818 365.578 499.253 363.81C498.688 362.043 498.847 360.123 499.695 358.472L506.459 345.354C507.311 343.706 508.783 342.462 510.55 341.897C512.318 341.332 514.238 341.491 515.888 342.34L625.226 398.712C626.874 399.564 628.117 401.035 628.683 402.803C629.248 404.571 629.088 406.49 628.24 408.141L621.476 421.259C621.057 422.077 620.479 422.804 619.777 423.397C619.074 423.991 618.261 424.439 617.385 424.716C616.692 424.938 615.968 425.052 615.241 425.053C614.129 425.052 613.034 424.785 612.047 424.273Z" fill="#00B9DA"/>
<path d="M578.713 371.54C579.576 371.203 580.498 371.042 581.424 371.067C582.35 371.091 583.262 371.3 584.107 371.681L619.938 391.493C623.859 393.659 626.798 397.248 628.148 401.52C629.498 405.791 629.156 410.418 627.191 414.444L626.742 414.226L627.192 414.445C625.315 418.292 622.092 421.317 618.134 422.947C614.175 424.577 609.757 424.698 605.715 423.287L566.856 409.705C566.015 409.333 565.255 408.799 564.62 408.134C563.985 407.469 563.487 406.685 563.155 405.827C562.823 404.969 562.664 404.054 562.686 403.134C562.708 402.215 562.911 401.309 563.283 400.468L574.837 375.237C575.038 374.78 575.287 374.346 575.58 373.942C576.37 372.856 577.458 372.021 578.713 371.54Z" fill="#2F2E41"/>
<path d="M661.154 365.487C690.712 365.487 714.673 341.526 714.673 311.968C714.673 282.41 690.712 258.449 661.154 258.449C631.596 258.449 607.635 282.41 607.635 311.968C607.635 341.526 631.596 365.487 661.154 365.487Z" fill="#00B9DA"/>
<path d="M654.588 644.814V521.8C654.59 519.944 655.328 518.165 656.64 516.852C657.953 515.54 659.732 514.802 661.588 514.8H676.347C678.203 514.802 679.982 515.54 681.295 516.852C682.607 518.165 683.345 519.944 683.347 521.8V644.814C683.345 646.669 682.607 648.449 681.295 649.761C679.982 651.073 678.203 651.812 676.347 651.814H661.588C659.732 651.812 657.953 651.073 656.64 649.761C655.328 648.449 654.59 646.669 654.588 644.814Z" fill="#00B9DA"/>
<path d="M622.588 644.814V521.8C622.59 519.944 623.328 518.165 624.64 516.852C625.953 515.54 627.732 514.802 629.588 514.8H644.347C646.203 514.802 647.982 515.54 649.295 516.852C650.607 518.165 651.345 519.944 651.347 521.8V644.814C651.345 646.669 650.607 648.449 649.295 649.761C647.982 651.073 646.203 651.812 644.347 651.814H629.588C627.732 651.812 625.953 651.073 624.64 649.761C623.328 648.449 622.59 646.669 622.588 644.814Z" fill="#00B9DA"/>
<path d="M662.279 331.804L662.335 329.804C658.614 329.7 655.334 329.467 652.869 327.666C652.17 327.127 651.596 326.443 651.185 325.661C650.774 324.88 650.536 324.019 650.488 323.138C650.444 322.599 650.526 322.058 650.726 321.556C650.926 321.054 651.239 320.605 651.641 320.243C653.277 318.861 655.909 319.309 657.828 320.189L659.483 320.947L656.31 297.757L654.328 298.028L657.028 317.755C654.42 316.988 652.004 317.319 650.349 318.716C649.714 319.271 649.216 319.965 648.893 320.744C648.57 321.523 648.432 322.367 648.489 323.208C648.548 324.393 648.864 325.55 649.417 326.599C649.97 327.648 650.745 328.564 651.689 329.281C654.856 331.596 658.972 331.711 662.279 331.804Z" fill="#2F2E41"/>
<path d="M644.529 299.73H633.758V301.73H644.529V299.73Z" fill="#2F2E41"/>
<path d="M678.529 299.73H667.758V301.73H678.529V299.73Z" fill="#2F2E41"/>
<path d="M712.369 542.155L693.858 420.542C693.581 418.707 694.043 416.837 695.143 415.342C696.243 413.847 697.891 412.85 699.725 412.569L714.316 410.348C716.151 410.071 718.021 410.533 719.516 411.633C721.011 412.733 722.008 414.381 722.29 416.215L740.8 537.828C741.077 539.663 740.615 541.533 739.516 543.028C738.416 544.523 736.768 545.52 734.933 545.801L720.342 548.022C719.433 548.161 718.506 548.12 717.613 547.9C716.72 547.681 715.879 547.287 715.139 546.742C714.398 546.197 713.772 545.512 713.297 544.725C712.822 543.938 712.506 543.065 712.369 542.155V542.155Z" fill="#00B9DA"/>
<path d="M698.064 464.098C697.285 463.597 696.613 462.946 696.089 462.182C695.564 461.418 695.197 460.557 695.009 459.65L689.99 419.015C689.439 414.57 690.617 410.082 693.281 406.48C695.944 402.878 699.889 400.437 704.301 399.661L704.388 400.153L704.301 399.661C708.517 398.919 712.859 399.75 716.503 401.995C720.148 404.241 722.842 407.746 724.074 411.845L735.914 451.27C736.108 452.169 736.122 453.097 735.957 454.002C735.792 454.907 735.45 455.771 734.95 456.543C734.451 457.316 733.805 457.982 733.048 458.505C732.291 459.027 731.438 459.395 730.539 459.588L703.334 465.062C702.846 465.168 702.348 465.221 701.849 465.221C700.506 465.22 699.191 464.83 698.064 464.098Z" fill="#2F2E41"/>
<path d="M699.499 552H556.477C555.026 552 553.6 551.629 552.333 550.922C551.067 550.215 550.002 549.195 549.241 547.96C548.48 546.726 548.047 545.317 547.985 543.867C547.922 542.418 548.231 540.977 548.883 539.681L618.032 402.169C622.836 392.615 630.724 384.96 640.418 380.444C650.112 375.928 661.047 374.815 671.453 377.284C681.858 379.753 691.127 385.66 697.759 394.05C704.391 402.44 707.999 412.821 707.999 423.516V543.5C707.997 545.754 707.1 547.914 705.507 549.508C703.913 551.101 701.753 551.998 699.499 552Z" fill="#2F2E41"/>
<path d="M663.051 267.813C652.095 270.26 642.855 277.4 631.839 279.621C626.819 280.632 621.291 280.591 616.68 278.12C613.266 276.266 610.655 273.219 609.346 269.561C608.051 265.819 607.718 261.813 608.376 257.909C609.034 254.005 610.663 250.329 613.113 247.219C619.297 239.65 629.156 236.162 638.615 235.179C657.545 233.211 676.99 239.449 692.398 250.316C708.307 261.536 720.511 278.383 724.605 297.557C726.794 307.806 726.578 318.71 722.841 328.58C719.248 338.024 712.174 345.734 703.073 350.124C700.901 351.173 698.636 352.016 696.307 352.644C695.936 352.76 695.624 353.016 695.438 353.358C695.251 353.699 695.205 354.1 695.309 354.475C695.412 354.85 695.657 355.171 695.992 355.369C696.327 355.567 696.726 355.627 697.104 355.536C707.338 352.742 716.166 346.241 721.872 337.298C727.733 327.923 729.699 316.446 728.796 305.538C727.05 284.439 715.447 265.046 699.227 251.77C683.645 239.016 663.488 231.256 643.22 231.872C633.056 232.182 622.505 234.762 614.601 241.46C611.195 244.34 608.558 248.022 606.927 252.174C605.297 256.326 604.724 260.818 605.259 265.247C605.714 269.39 607.358 273.312 609.995 276.54C613.219 280.183 617.687 282.491 622.523 283.011C634.507 284.571 644.899 277.778 655.489 273.411C658.193 272.272 660.99 271.367 663.849 270.706C665.732 270.286 664.935 267.393 663.051 267.813Z" fill="#2F2E41"/>
<path d="M693.153 246.612C688.85 230.504 700.079 213.74 715.336 208.71C724.092 205.984 733.484 206.089 742.176 209.009C750.651 211.877 758.261 216.845 764.295 223.45C777.669 237.678 783.594 256.882 786.366 275.816C789.228 295.365 787.613 316.776 797.616 334.541C801.764 341.906 807.92 348.355 815.873 351.527C823.294 354.485 832.183 354.499 839.292 350.654C841.003 349.717 842.585 348.562 843.998 347.217C845.405 345.889 843.281 343.77 841.876 345.095C835.924 350.712 827.051 351.772 819.4 349.568C811.054 347.163 804.631 340.75 800.398 333.364C795.503 324.824 793.465 315.061 792.354 305.375C791.14 294.802 790.673 284.171 789.052 273.64C786.129 254.647 779.814 235.582 766.416 221.329C760.288 214.672 752.648 209.589 744.141 206.508C735.383 203.372 725.893 202.893 716.864 205.131C708.657 207.256 701.422 212.122 696.357 218.921C691.435 225.374 688.933 233.348 689.285 241.456C689.413 243.468 689.74 245.462 690.26 247.409C690.376 247.78 690.632 248.092 690.974 248.278C691.316 248.465 691.716 248.511 692.092 248.407C692.467 248.304 692.787 248.059 692.985 247.724C693.183 247.389 693.243 246.99 693.153 246.611L693.153 246.612Z" fill="#2F2E41"/>
<path d="M104.26 383H17C12.4929 382.995 8.17181 381.202 4.98479 378.015C1.79777 374.828 0.00507387 370.507 0 366V17C0.00507387 12.4929 1.79777 8.17181 4.98479 4.98479C8.17181 1.79778 12.4929 0.00507387 17 0H253.681L297 38.6782V109H295V39.5737L252.918 2H17C13.0231 2.0045 9.21043 3.5863 6.39836 6.39837C3.58629 9.21044 2.0045 13.0231 2 17V366C2.0045 369.977 3.58629 373.79 6.39836 376.602C9.21043 379.414 13.0231 380.996 17 381H104.26V383Z" fill="#CCCCCC"/>
<path d="M296 40H269C264.493 39.9949 260.172 38.2022 256.985 35.0152C253.798 31.8282 252.005 27.5071 252 23V1C252 0.734784 252.105 0.480429 252.293 0.292892C252.48 0.105356 252.735 0 253 0C253.265 0 253.52 0.105356 253.707 0.292892C253.895 0.480429 254 0.734784 254 1V23C254.004 26.9769 255.586 30.7896 258.398 33.6016C261.21 36.4137 265.023 37.9955 269 38H296C296.265 38 296.52 38.1054 296.707 38.2929C296.895 38.4804 297 38.7348 297 39C297 39.2652 296.895 39.5196 296.707 39.7071C296.52 39.8947 296.265 40 296 40Z" fill="#CCCCCC"/>
<path d="M262.541 90.5H34.541C32.4193 90.5 30.3844 91.3428 28.8842 92.8431C27.3839 94.3434 26.541 96.3783 26.541 98.5C26.541 100.622 27.3839 102.657 28.8842 104.157C30.3844 105.657 32.4193 106.5 34.541 106.5H262.541C264.663 106.5 266.698 105.657 268.198 104.157C269.698 102.657 270.541 100.622 270.541 98.5C270.541 96.3783 269.698 94.3434 268.198 92.8431C266.698 91.3428 264.663 90.5 262.541 90.5Z" fill="#E6E6E6"/>
<path d="M147.541 56.5H34.541C32.4193 56.5 30.3844 57.3428 28.8842 58.8431C27.3839 60.3434 26.541 62.3783 26.541 64.5C26.541 66.6217 27.3839 68.6566 28.8842 70.1568C30.3844 71.6571 32.4193 72.5 34.541 72.5H147.541C149.663 72.5 151.698 71.6571 153.198 70.1568C154.698 68.6566 155.541 66.6217 155.541 64.5C155.541 62.3783 154.698 60.3434 153.198 58.8431C151.698 57.3428 149.663 56.5 147.541 56.5Z" fill="#E6E6E6"/>
<path d="M34.541 157.5C32.4193 157.5 30.3844 158.343 28.8842 159.843C27.3839 161.343 26.541 163.378 26.541 165.5C26.541 167.622 27.3839 169.657 28.8842 171.157C30.3844 172.657 32.4193 173.5 34.541 173.5H106.001V157.5H34.541Z" fill="#E6E6E6"/>
<path d="M34.541 123.5C33.4904 123.5 32.4502 123.707 31.4796 124.109C30.5089 124.511 29.627 125.1 28.8842 125.843C28.1413 126.586 27.552 127.468 27.15 128.439C26.7479 129.409 26.541 130.449 26.541 131.5C26.541 132.551 26.7479 133.591 27.15 134.561C27.552 135.532 28.1413 136.414 28.8842 137.157C29.627 137.9 30.5089 138.489 31.4796 138.891C32.4502 139.293 33.4904 139.5 34.541 139.5H106.001V123.5H34.541Z" fill="#E6E6E6"/>
<path d="M106.501 327H42.4609C38.0864 326.995 33.8924 325.255 30.7991 322.162C27.7059 319.069 25.9659 314.875 25.9609 310.5V226.5C25.9659 222.125 27.7059 217.931 30.7991 214.838C33.8924 211.745 38.0864 210.005 42.4609 210H106.501V327Z" fill="#E6E6E6"/>
<path d="M209.76 490.5H122.5C117.993 490.495 113.672 488.702 110.485 485.515C107.298 482.328 105.505 478.007 105.5 473.5V124.5C105.505 119.993 107.298 115.672 110.485 112.485C113.672 109.298 117.993 107.505 122.5 107.5H359.181L402.5 146.178V212.5H400.5V147.074L358.418 109.5H122.5C118.523 109.504 114.71 111.086 111.898 113.898C109.086 116.71 107.504 120.523 107.5 124.5V473.5C107.504 477.477 109.086 481.29 111.898 484.102C114.71 486.914 118.523 488.496 122.5 488.5H209.76V490.5Z" fill="#CCCCCC"/>
<path d="M401.5 147.5H374.5C369.993 147.495 365.672 145.702 362.485 142.515C359.298 139.328 357.505 135.007 357.5 130.5V108.5C357.5 108.235 357.605 107.98 357.793 107.793C357.98 107.605 358.235 107.5 358.5 107.5C358.765 107.5 359.02 107.605 359.207 107.793C359.395 107.98 359.5 108.235 359.5 108.5V130.5C359.504 134.477 361.086 138.29 363.898 141.102C366.71 143.914 370.523 145.495 374.5 145.5H401.5C401.765 145.5 402.02 145.605 402.207 145.793C402.395 145.98 402.5 146.235 402.5 146.5C402.5 146.765 402.395 147.02 402.207 147.207C402.02 147.395 401.765 147.5 401.5 147.5Z" fill="#CCCCCC"/>
<path d="M368.039 198H140.039C137.917 198 135.882 198.843 134.382 200.343C132.882 201.843 132.039 203.878 132.039 206C132.039 208.122 132.882 210.157 134.382 211.657C135.882 213.157 137.917 214 140.039 214H368.039C370.161 214 372.196 213.157 373.696 211.657C375.196 210.157 376.039 208.122 376.039 206C376.039 203.878 375.196 201.843 373.696 200.343C372.196 198.843 370.161 198 368.039 198Z" fill="#E6E6E6"/>
<path d="M253.039 164H140.039C137.917 164 135.882 164.843 134.382 166.343C132.882 167.843 132.039 169.878 132.039 172C132.039 174.122 132.882 176.157 134.382 177.657C135.882 179.157 137.917 180 140.039 180H253.039C255.161 180 257.196 179.157 258.696 177.657C260.196 176.157 261.039 174.122 261.039 172C261.039 169.878 260.196 167.843 258.696 166.343C257.196 164.843 255.161 164 253.039 164Z" fill="#E6E6E6"/>
<path d="M368.039 198H140.039C137.917 198 135.882 198.843 134.382 200.343C132.882 201.843 132.039 203.878 132.039 206C132.039 208.122 132.882 210.157 134.382 211.657C135.882 213.157 137.917 214 140.039 214H368.039C370.161 214 372.196 213.157 373.696 211.657C375.196 210.157 376.039 208.122 376.039 206C376.039 203.878 375.196 201.843 373.696 200.343C372.196 198.843 370.161 198 368.039 198Z" fill="#E6E6E6"/>
<path d="M253.039 164H140.039C137.917 164 135.882 164.843 134.382 166.343C132.882 167.843 132.039 169.878 132.039 172C132.039 174.122 132.882 176.157 134.382 177.657C135.882 179.157 137.917 180 140.039 180H253.039C255.161 180 257.196 179.157 258.696 177.657C260.196 176.157 261.039 174.122 261.039 172C261.039 169.878 260.196 167.843 258.696 166.343C257.196 164.843 255.161 164 253.039 164Z" fill="#E6E6E6"/>
<path d="M140.039 265C137.917 265 135.882 265.843 134.382 267.343C132.882 268.843 132.039 270.878 132.039 273C132.039 275.122 132.882 277.157 134.382 278.657C135.882 280.157 137.917 281 140.039 281H211.499V265H140.039Z" fill="#E6E6E6"/>
<path d="M140.039 231C137.917 231 135.882 231.843 134.382 233.343C132.882 234.843 132.039 236.878 132.039 239C132.039 241.122 132.882 243.157 134.382 244.657C135.882 246.157 137.917 247 140.039 247H211.499V231H140.039Z" fill="#E6E6E6"/>
<path d="M140.039 265C137.917 265 135.882 265.843 134.382 267.343C132.882 268.843 132.039 270.878 132.039 273C132.039 275.122 132.882 277.157 134.382 278.657C135.882 280.157 137.917 281 140.039 281H211.499V265H140.039Z" fill="#E6E6E6"/>
<path d="M140.039 231C137.917 231 135.882 231.843 134.382 233.343C132.882 234.843 132.039 236.878 132.039 239C132.039 241.122 132.882 243.157 134.382 244.657C135.882 246.157 137.917 247 140.039 247H211.499V231H140.039Z" fill="#E6E6E6"/>
<path d="M212.001 434.5H147.961C143.586 434.495 139.392 432.755 136.299 429.662C133.206 426.569 131.466 422.375 131.461 418V334C131.466 329.625 133.206 325.431 136.299 322.338C139.392 319.245 143.586 317.505 147.961 317.5H212.001V434.5Z" fill="#E6E6E6"/>
<path d="M217.64 216C215.155 217.517 213.101 219.647 211.675 222.186C210.25 224.725 209.501 227.588 209.5 230.5V233H211.5V230.5C211.504 227.193 212.599 223.98 214.615 221.358C216.631 218.737 219.455 216.853 222.65 216H217.64ZM463.18 213.5H226.5C221.993 213.505 217.672 215.298 214.485 218.485C211.298 221.672 209.505 225.993 209.5 230.5V579.5C209.506 584.007 211.3 588.327 214.486 591.514C217.673 594.701 221.993 596.494 226.5 596.5H489.5C494.007 596.494 498.327 594.701 501.514 591.514C504.701 588.327 506.494 584.007 506.5 579.5V252.18L463.18 213.5ZM504.5 579.5C504.495 583.477 502.913 587.289 500.101 590.101C497.289 592.913 493.477 594.495 489.5 594.5H226.5C222.523 594.495 218.711 592.913 215.899 590.101C213.087 587.289 211.505 583.477 211.5 579.5V230.5C211.504 227.193 212.599 223.98 214.615 221.358C216.631 218.737 219.455 216.853 222.65 216C223.906 215.665 225.2 215.497 226.5 215.5H462.42L504.5 253.07V579.5ZM217.64 216C215.155 217.517 213.101 219.647 211.675 222.186C210.25 224.725 209.501 227.588 209.5 230.5V233H211.5V230.5C211.504 227.193 212.599 223.98 214.615 221.358C216.631 218.737 219.455 216.853 222.65 216H217.64Z" fill="#3F3D56"/>
<path d="M505.5 253.5H478.5C473.993 253.495 469.672 251.702 466.485 248.515C463.298 245.328 461.505 241.007 461.5 236.5V214.5C461.5 214.235 461.605 213.98 461.793 213.793C461.98 213.605 462.235 213.5 462.5 213.5C462.765 213.5 463.02 213.605 463.207 213.793C463.395 213.98 463.5 214.235 463.5 214.5V236.5C463.504 240.477 465.086 244.29 467.898 247.102C470.71 249.914 474.523 251.495 478.5 251.5H505.5C505.765 251.5 506.02 251.605 506.207 251.793C506.395 251.98 506.5 252.235 506.5 252.5C506.5 252.765 506.395 253.02 506.207 253.207C506.02 253.395 505.765 253.5 505.5 253.5Z" fill="#3F3D56"/>
<path d="M472.041 320H244.041C241.919 320 239.884 319.157 238.384 317.657C236.884 316.157 236.041 314.122 236.041 312C236.041 309.878 236.884 307.843 238.384 306.343C239.884 304.843 241.919 304 244.041 304H472.041C474.163 304 476.198 304.843 477.698 306.343C479.198 307.843 480.041 309.878 480.041 312C480.041 314.122 479.198 316.157 477.698 317.657C476.198 319.157 474.163 320 472.041 320Z" fill="#CCCCCC"/>
<path d="M357.041 286H244.041C241.919 286 239.884 285.157 238.384 283.657C236.884 282.157 236.041 280.122 236.041 278C236.041 275.878 236.884 273.843 238.384 272.343C239.884 270.843 241.919 270 244.041 270H357.041C359.163 270 361.198 270.843 362.698 272.343C364.198 273.843 365.041 275.878 365.041 278C365.041 280.122 364.198 282.157 362.698 283.657C361.198 285.157 359.163 286 357.041 286Z" fill="#CCCCCC"/>
<path d="M472.041 387H244.041C241.919 387 239.884 386.157 238.384 384.657C236.884 383.157 236.041 381.122 236.041 379C236.041 376.878 236.884 374.843 238.384 373.343C239.884 371.843 241.919 371 244.041 371H472.041C474.163 371 476.198 371.843 477.698 373.343C479.198 374.843 480.041 376.878 480.041 379C480.041 381.122 479.198 383.157 477.698 384.657C476.198 386.157 474.163 387 472.041 387Z" fill="#CCCCCC"/>
<path d="M357.041 353H244.041C241.919 353 239.884 352.157 238.384 350.657C236.884 349.157 236.041 347.122 236.041 345C236.041 342.878 236.884 340.843 238.384 339.343C239.884 337.843 241.919 337 244.041 337H357.041C359.163 337 361.198 337.843 362.698 339.343C364.198 340.843 365.041 342.878 365.041 345C365.041 347.122 364.198 349.157 362.698 350.657C361.198 352.157 359.163 353 357.041 353Z" fill="#CCCCCC"/>
<path d="M463.959 540.5H251.959C247.584 540.495 243.39 538.755 240.297 535.662C237.204 532.569 235.464 528.375 235.459 524V440C235.464 435.625 237.204 431.431 240.297 428.338C243.39 425.245 247.584 423.505 251.959 423.5H463.959C468.334 423.505 472.527 425.245 475.621 428.338C478.714 431.431 480.454 435.625 480.459 440V524C480.454 528.375 478.714 532.569 475.621 535.662C472.528 538.755 468.334 540.495 463.959 540.5Z" fill="#00B9DA"/>
</g>
<defs>
<clipPath id="clip0_1105_312">
<rect width="844.46" height="651.814" fill="white"/>
</clipPath>
</defs>
</svg>
