<svg width="227" height="160" viewBox="0 0 227 160" fill="none" xmlns="http://www.w3.org/2000/svg">
<g clip-path="url(#clip0_5299_1020)">
<path d="M115.933 159.661C122.761 159.661 128.296 154.126 128.296 147.297C128.296 140.468 122.761 134.933 115.933 134.933C109.106 134.933 103.571 140.468 103.571 147.297C103.571 154.126 109.106 159.661 115.933 159.661Z" fill="#2E3A59"/>
<path d="M140.121 40.3189C143.683 40.3189 146.571 37.4307 146.571 33.8679C146.571 30.3052 143.683 27.417 140.121 27.417C136.559 27.417 133.671 30.3052 133.671 33.8679C133.671 37.4307 136.559 40.3189 140.121 40.3189Z" fill="#F2F2F2"/>
<path d="M156.782 124.718C160.344 124.718 163.232 121.83 163.232 118.267C163.232 114.705 160.344 111.816 156.782 111.816C153.22 111.816 150.332 114.705 150.332 118.267C150.332 121.83 153.22 124.718 156.782 124.718Z" fill="#F2F2F2"/>
<path d="M114.609 18.2783C95.2887 18.4148 79.4694 34.118 79.195 53.4403C79.1924 53.6187 79.1913 54.8731 79.1914 56.5137C79.1915 58.9192 80.147 61.2262 81.8476 62.9272C83.5482 64.6283 85.8547 65.584 88.2598 65.5843H88.2598C89.4521 65.584 90.6326 65.3488 91.7339 64.8921C92.8352 64.4353 93.8358 63.766 94.6784 62.9223C95.5209 62.0787 96.1891 61.0772 96.6445 59.9752C97.1 58.8732 97.3339 57.6923 97.3329 56.4998C97.332 55.3838 97.3314 54.6113 97.3314 54.5639C97.3308 51.5777 98.1074 48.6427 99.5849 46.0477C101.062 43.4527 103.19 41.2871 105.758 39.7639C108.326 38.2407 111.246 37.4123 114.232 37.3603C117.217 37.3083 120.164 38.0345 122.784 39.4673C125.403 40.9002 127.605 42.9904 129.172 45.5324C130.739 48.0743 131.617 50.9805 131.72 53.9649C131.824 56.9494 131.148 59.9093 129.761 62.5536C128.374 65.1979 126.322 67.4354 123.808 69.0461L123.811 69.05C123.811 69.05 110.904 77.3608 106.969 88.7617L106.972 88.7626C106.28 91.0981 105.93 93.5215 105.931 95.9575C105.931 96.9588 105.99 105.72 106.104 112.831C106.144 115.285 107.146 117.625 108.895 119.346C110.645 121.066 113 122.031 115.453 122.03H115.453C116.686 122.03 117.907 121.786 119.045 121.312C120.183 120.839 121.217 120.145 122.086 119.27C122.955 118.396 123.642 117.358 124.109 116.216C124.575 115.075 124.812 113.853 124.804 112.62C124.765 106.107 124.743 98.5238 124.743 97.9734C124.743 90.9729 131.495 83.9978 137.042 79.4491C143.429 74.2113 148.025 67.0733 149.871 59.0214C150.279 57.3637 150.504 55.6661 150.542 53.9591C150.542 49.2517 149.611 44.5907 147.802 40.2448C145.993 35.8989 143.342 31.954 140.002 28.6373C136.662 25.3207 132.699 22.6979 128.341 20.92C123.982 19.1421 119.316 18.2443 114.609 18.2783Z" fill="#2E3A59"/>
<path d="M226.68 160H0.320038C0.235333 160 0.154183 159.966 0.0943737 159.906C0.0345646 159.846 0.000976562 159.765 0.000976562 159.68C0.000976562 159.596 0.0345646 159.514 0.0943737 159.454C0.154183 159.394 0.235333 159.361 0.320038 159.36H226.68C226.765 159.36 226.846 159.394 226.906 159.454C226.966 159.514 227 159.596 227 159.68C227 159.765 226.966 159.847 226.906 159.907C226.846 159.967 226.765 160 226.68 160Z" fill="#3F3D56"/>
<path d="M168.891 73.3783C173.344 73.3783 176.954 69.7681 176.954 65.3147C176.954 60.8612 173.344 57.251 168.891 57.251C164.439 57.251 160.829 60.8612 160.829 65.3147C160.829 69.7681 164.439 73.3783 168.891 73.3783Z" fill="#2F2E41"/>
<path d="M153.993 156.47H150.698L149.131 143.76H153.994L153.993 156.47Z" fill="#A0616A"/>
<path d="M148.345 155.529H154.7V159.531H144.345C144.345 159.005 144.448 158.485 144.649 157.999C144.85 157.514 145.145 157.073 145.517 156.701C145.888 156.33 146.329 156.035 146.814 155.834C147.3 155.633 147.82 155.529 148.345 155.529Z" fill="#2E3A59"/>
<path d="M179.523 156.47H176.229L174.661 143.76H179.524L179.523 156.47Z" fill="#A0616A"/>
<path d="M173.876 155.529H180.23V159.531H169.875C169.875 159.005 169.978 158.485 170.18 157.999C170.381 157.514 170.675 157.073 171.047 156.701C171.418 156.33 171.859 156.035 172.345 155.834C172.83 155.633 173.35 155.529 173.876 155.529Z" fill="#2E3A59"/>
<path d="M167.666 73.4262C171.311 73.4262 174.267 70.4704 174.267 66.8244C174.267 63.1784 171.311 60.2227 167.666 60.2227C164.021 60.2227 161.065 63.1784 161.065 66.8244C161.065 70.4704 164.021 73.4262 167.666 73.4262Z" fill="#A0616A"/>
<path d="M171.6 94.7232L174.553 87.9363C175.27 86.3442 175.476 84.5686 175.141 82.8547C174.807 81.1407 173.949 79.5728 172.685 78.3674C172.426 78.1109 172.15 77.8711 171.86 77.6497C170.403 76.5095 168.607 75.8881 166.757 75.8838C165.513 75.8886 164.285 76.1618 163.156 76.6848C163.059 76.7278 162.965 76.7735 162.868 76.8192C162.683 76.9079 162.5 77.0046 162.323 77.1041C161.166 77.7685 160.181 78.6956 159.448 79.8105C158.715 80.9255 158.255 82.1971 158.103 83.5228L156.8 94.4464C156.472 95.3038 144.776 126.268 148.867 149.908C148.91 150.161 149.033 150.393 149.218 150.57C149.403 150.748 149.639 150.861 149.893 150.895L154.04 151.459C154.343 151.501 154.65 151.426 154.9 151.25C155.15 151.074 155.324 150.81 155.386 150.51L162.344 117.339C162.388 117.133 162.499 116.947 162.66 116.812C162.821 116.677 163.023 116.599 163.234 116.592C163.444 116.585 163.651 116.648 163.821 116.773C163.991 116.897 164.114 117.075 164.172 117.277L174.002 152.161C174.072 152.414 174.223 152.638 174.433 152.797C174.642 152.956 174.898 153.043 175.161 153.042C175.239 153.042 175.317 153.035 175.394 153.021L180.46 152.045C180.755 151.99 181.018 151.827 181.198 151.588C181.379 151.349 181.463 151.051 181.436 150.752C180.691 142.449 176.735 100.86 171.6 94.7232Z" fill="#2E3A59"/>
<path d="M142.014 72.3184C141.969 72.7108 142.009 73.1086 142.134 73.4836C142.258 73.8586 142.464 74.2018 142.735 74.4889C143.006 74.776 143.338 75.0001 143.705 75.1453C144.072 75.2906 144.467 75.3536 144.861 75.3297L148.551 84.1977L151.342 80.0599L147.41 72.2731C147.326 71.6131 147.003 71.0069 146.502 70.5692C146.001 70.1316 145.357 69.8929 144.692 69.8985C144.027 69.9041 143.387 70.1535 142.894 70.5995C142.4 71.0455 142.087 71.6571 142.014 72.3184L142.014 72.3184Z" fill="#A0616A"/>
<path d="M167.3 103.653C167.692 103.606 168.07 103.473 168.405 103.265C168.741 103.056 169.027 102.777 169.243 102.446C169.459 102.115 169.599 101.741 169.655 101.35C169.711 100.958 169.68 100.56 169.565 100.182L177.327 94.5268L172.654 92.7764L165.999 98.4147C165.377 98.6501 164.862 99.1056 164.554 99.6949C164.245 100.284 164.163 100.966 164.323 101.612C164.484 102.257 164.875 102.822 165.424 103.198C165.973 103.574 166.64 103.736 167.3 103.653Z" fill="#A0616A"/>
<path d="M154.646 90.1097C154.348 90.1094 154.052 90.0801 153.76 90.0223C153.054 89.8879 152.391 89.5818 151.831 89.131C151.271 88.6803 150.831 88.0987 150.549 87.4375L145.38 81.1336C145.27 81.0003 145.191 80.8452 145.146 80.6787C145.102 80.5121 145.094 80.338 145.122 80.168C145.15 79.998 145.214 79.836 145.31 79.6928C145.406 79.5496 145.532 79.4286 145.678 79.3379L149.356 77.0611C149.492 76.977 149.643 76.9206 149.8 76.8952C149.958 76.8699 150.119 76.876 150.274 76.9132C150.43 76.9505 150.576 77.0181 150.705 77.1122C150.834 77.2063 150.943 77.3251 151.026 77.4616L154.669 83.4648L161.646 78.3076C162.202 78.0163 162.844 77.9346 163.454 78.0774C164.065 78.2203 164.604 78.5781 164.973 79.0856C165.342 79.5931 165.516 80.2163 165.463 80.8414C165.41 81.4666 165.134 82.0519 164.686 82.4904L157.722 88.8437C156.904 89.655 155.798 90.11 154.646 90.1097Z" fill="#2E3A59"/>
<path d="M173.497 99.5901C173.488 99.5901 173.479 99.5901 173.469 99.5899C173.299 99.5857 173.133 99.546 172.979 99.4733C172.826 99.4006 172.69 99.2965 172.579 99.1678L169.31 95.3527C169.198 95.2228 169.116 95.0707 169.068 94.9065C169.019 94.7424 169.007 94.5698 169.03 94.4003C169.053 94.2307 169.112 94.0681 169.203 93.9231C169.294 93.7781 169.415 93.6541 169.557 93.5591L175.679 89.4769L170.133 82.8076C169.81 82.2696 169.692 81.6335 169.8 81.0154C169.907 80.3974 170.233 79.8387 170.719 79.4414C171.204 79.0441 171.816 78.8347 172.443 78.8515C173.07 78.8684 173.67 79.1103 174.134 79.533L180.875 86.1218C181.405 86.6065 181.81 87.2128 182.055 87.8886C182.3 88.5643 182.377 89.2894 182.28 90.0015C182.183 90.7136 181.914 91.3915 181.497 91.977C181.081 92.5626 180.528 93.0382 179.887 93.3631L174.378 99.2103C174.264 99.3302 174.128 99.4257 173.977 99.491C173.825 99.5563 173.662 99.59 173.497 99.5901Z" fill="#2E3A59"/>
<path d="M165.988 85.533C165.936 85.533 165.883 85.5297 165.831 85.523C165.603 85.4954 165.389 85.4029 165.212 85.2567C165.035 85.1105 164.904 84.9167 164.834 84.6982L162.377 77.1642C162.316 76.9737 162.325 76.7674 162.404 76.5834C162.482 76.3993 162.625 76.25 162.805 76.1631L162.885 76.1254C162.957 76.091 163.029 76.057 163.102 76.0245C164.248 75.493 165.495 75.2159 166.758 75.2119C168.397 75.2149 170 75.6967 171.37 76.598C171.553 76.7202 171.682 76.9097 171.727 77.1256C171.772 77.3415 171.731 77.5665 171.612 77.7523L167.003 84.9741C166.895 85.1455 166.745 85.2868 166.568 85.3845C166.39 85.4823 166.191 85.5334 165.988 85.533Z" fill="#E6E6E6"/>
<path d="M175.248 61.7147C176.705 61.7147 177.886 60.5334 177.886 59.0761C177.886 57.6189 176.705 56.4375 175.248 56.4375C173.791 56.4375 172.609 57.6189 172.609 59.0761C172.609 60.5334 173.791 61.7147 175.248 61.7147Z" fill="#2F2E41"/>
<path d="M166.204 56.1768C164.351 56.1768 162.574 56.913 161.263 58.2236C159.953 59.5342 159.217 61.3118 159.217 63.1653V66.122H162.853L164.592 63.1653L165.113 66.122H176.148L173.191 63.1653C173.191 61.3118 172.455 59.5342 171.145 58.2236C169.834 56.913 168.057 56.1768 166.204 56.1768Z" fill="#2F2E41"/>
<path d="M176.604 57.2692C176.895 56.3568 177.499 55.5765 178.309 55.0654C179.119 54.5544 180.084 54.3453 181.033 54.475C182.714 54.7561 184.043 56.1078 184.835 57.6174C185.627 59.1271 185.993 60.8167 186.525 62.4363C187.058 64.0558 187.813 65.6842 189.157 66.7326C190.501 67.781 192.564 68.0654 193.884 66.9869C193.733 68.1108 193.233 69.1589 192.454 69.9829C191.675 70.8069 190.657 71.3651 189.543 71.5785C188.43 71.7919 187.277 71.6498 186.249 71.1722C185.22 70.6946 184.368 69.9057 183.813 68.9171C183.116 67.6775 182.936 66.2247 182.73 64.8178C182.523 63.4109 182.255 61.9553 181.423 60.802C180.591 59.6487 179.034 58.8955 177.713 59.4208L176.604 57.2692Z" fill="#2F2E41"/>
<path d="M90.8204 61.2947C88.4153 61.2944 86.1087 60.3386 84.4081 58.6376C82.7075 56.9366 81.752 54.6296 81.7519 52.2241C81.7518 50.5835 81.7529 49.3291 81.7554 49.1507C81.8318 43.5312 83.2468 38.011 85.883 33.0479C81.5518 38.9781 79.1704 46.1081 79.068 53.4513C79.0655 53.6297 79.0643 54.8841 79.0645 56.5247C79.0646 58.9302 80.0201 61.2372 81.7207 62.9382C83.4213 64.6393 85.7278 65.595 88.1329 65.5953C90.1093 65.5945 92.0314 64.9486 93.6072 63.7556C95.183 62.5626 96.3265 60.8878 96.8638 58.9856C95.2033 60.4749 93.0507 61.2973 90.8204 61.2947Z" fill="#3F3D56"/>
<path d="M115.224 37.3907C118.005 37.5235 120.712 38.3293 123.112 39.7388C125.513 41.1484 127.535 43.1196 129.006 45.4831C130.477 47.8467 131.353 50.5321 131.558 53.3087C131.763 56.0852 131.291 58.87 130.182 61.424C131.785 59.541 132.964 57.3345 133.637 54.9548C134.31 52.5751 134.462 50.0782 134.083 47.6344C133.704 45.1906 132.802 42.8572 131.44 40.7935C130.077 38.7297 128.286 36.984 126.188 35.6755C124.089 34.367 121.734 33.5263 119.281 33.2108C116.829 32.8954 114.337 33.1125 111.976 33.8475C109.615 34.5824 107.441 35.8179 105.6 37.4697C103.76 39.1215 102.298 41.1507 101.312 43.4191C103.015 41.4159 105.155 39.8306 107.567 38.7854C109.979 37.7402 112.599 37.263 115.224 37.3907Z" fill="#3F3D56"/>
<path d="M118.014 117.74C115.561 117.74 113.205 116.776 111.456 115.055C109.707 113.334 108.705 110.995 108.665 108.541C108.551 101.43 108.492 92.6686 108.492 91.6672C108.491 89.2313 108.841 86.8079 109.533 84.4723L109.53 84.4715C109.938 83.2992 110.432 82.1582 111.006 81.0576C109.243 83.408 107.84 86.008 106.842 88.7721L106.846 88.7729C106.154 91.1085 105.803 93.5319 105.805 95.9679C105.805 96.9692 105.864 105.731 105.977 112.842C106.017 115.295 107.02 117.635 108.769 119.356C110.518 121.077 112.873 122.041 115.327 122.04C117.35 122.04 119.318 121.384 120.937 120.17C122.555 118.956 123.736 117.25 124.303 115.308C122.584 116.875 120.341 117.743 118.014 117.74Z" fill="white"/>
<path d="M34.0067 156.593L37.3012 156.592L38.8687 143.882L34.0059 143.882L34.0067 156.593Z" fill="#FFB8B8"/>
<path d="M43.6553 159.652L33.3004 159.653L33.3003 155.651L39.6544 155.651C40.7154 155.651 41.733 156.073 42.4834 156.823C43.2337 157.573 43.6552 158.591 43.6553 159.652L43.6553 159.652Z" fill="#2E3A59"/>
<path d="M22.1824 156.593L25.477 156.592L27.0445 143.882L22.1816 143.882L22.1824 156.593Z" fill="#FFB8B8"/>
<path d="M31.8311 159.652L21.4762 159.653L21.476 155.651L27.8301 155.651C28.8912 155.651 29.9088 156.073 30.6591 156.823C31.4095 157.573 31.831 158.591 31.8311 159.652L31.8311 159.652Z" fill="#2E3A59"/>
<path d="M25.0615 152.683L21.8433 152.514C21.6774 152.505 21.5148 152.464 21.3651 152.392C21.2153 152.32 21.0813 152.219 20.9709 152.094C20.8604 151.97 20.7757 151.825 20.7217 151.668C20.6676 151.511 20.6452 151.345 20.6559 151.179L24.5023 108.585L42.2154 113.366L43.922 112.9L38.5852 150.607C38.5397 150.891 38.3989 151.15 38.186 151.343C37.973 151.536 37.7007 151.65 37.414 151.667L33.9448 151.829C33.7714 151.839 33.5978 151.812 33.4351 151.751C33.2723 151.69 33.124 151.596 32.9995 151.475C32.8749 151.354 32.7768 151.208 32.7114 151.047C32.646 150.886 32.6147 150.714 32.6195 150.54L33.2481 127.909C33.251 127.804 33.2147 127.702 33.1462 127.623C33.0777 127.544 32.9821 127.493 32.8781 127.481C32.7741 127.469 32.6694 127.496 32.5845 127.557C32.4996 127.619 32.4408 127.709 32.4195 127.812L26.3575 151.684C26.3003 151.967 26.1466 152.222 25.9227 152.404C25.6988 152.587 25.4185 152.686 25.1296 152.685C25.1071 152.685 25.0844 152.685 25.0615 152.683Z" fill="#2E3A59"/>
<path d="M34.5986 73.7347C38.244 73.7347 41.1992 70.779 41.1992 67.133C41.1992 63.487 38.244 60.5312 34.5986 60.5312C30.9532 60.5312 27.998 63.487 27.998 67.133C27.998 70.779 30.9532 73.7347 34.5986 73.7347Z" fill="#FFB8B8"/>
<path d="M23.6092 86.5279L24.335 102.19L24.5973 107.887C24.6078 108.136 24.692 108.375 24.8392 108.575C24.9864 108.775 25.1898 108.926 25.4235 109.01L42.4446 115.177C42.5821 115.228 42.7278 115.253 42.8745 115.252C43.0421 115.253 43.2082 115.22 43.3628 115.155C43.5175 115.09 43.6575 114.995 43.7744 114.875C43.8914 114.755 43.983 114.612 44.0437 114.456C44.1044 114.3 44.133 114.133 44.1278 113.965L43.43 85.8048C43.3841 83.4944 42.5338 81.2724 41.0256 79.5218C39.5174 77.7712 37.4457 76.6018 35.1679 76.2152C35.0032 76.19 34.8357 76.1649 34.6682 76.1426C33.2557 75.9672 31.822 76.1035 30.4679 76.542C29.1137 76.9804 27.8721 77.7103 26.8303 78.6803C25.7516 79.6726 24.904 80.8898 24.3474 82.2459C23.7908 83.6019 23.5388 85.0637 23.6092 86.5278L23.6092 86.5279Z" fill="white"/>
<path d="M50.5752 112.052C50.1726 111.927 49.8048 111.71 49.5011 111.418C49.1975 111.125 48.9663 110.766 48.8262 110.368C48.686 109.971 48.6407 109.546 48.6939 109.128C48.747 108.709 48.8972 108.309 49.1324 107.96L43.3604 100.283L48.3413 99.9746L53.0589 107.312C53.5639 107.702 53.9154 108.258 54.0516 108.882C54.1878 109.506 54.1 110.158 53.8037 110.723C53.5074 111.289 53.0215 111.732 52.4311 111.975C51.8408 112.218 51.1837 112.245 50.5752 112.052H50.5752Z" fill="#FFB8B8"/>
<path d="M46.5169 106.569C46.364 106.507 46.2249 106.416 46.1077 106.299C45.9905 106.183 45.8974 106.045 45.834 105.893L37.138 85.1704C36.9674 84.7647 36.8783 84.3293 36.876 83.8892C36.8737 83.449 36.9581 83.0127 37.1245 82.6052C37.2908 82.1977 37.5358 81.827 37.8455 81.5143C38.1551 81.2015 38.5234 80.9529 38.9292 80.7825C39.3349 80.6122 39.7703 80.5235 40.2104 80.5215C40.6504 80.5195 41.0866 80.6043 41.4939 80.771C41.9012 80.9377 42.2716 81.183 42.5841 81.493C42.8965 81.8029 43.1449 82.1714 43.3149 82.5774L52.0109 103.3C52.1394 103.607 52.1408 103.953 52.0149 104.261C51.8889 104.569 51.6458 104.815 51.3389 104.944L47.4783 106.565C47.3263 106.629 47.1631 106.663 46.9981 106.664C46.833 106.664 46.6695 106.632 46.5169 106.57L46.5169 106.569Z" fill="white"/>
<path d="M32.4764 105.839L40.8287 89.8435C40.9898 89.5359 41.2662 89.3048 41.5975 89.2008C41.9288 89.0968 42.2877 89.1285 42.5956 89.2889L54.719 95.6216C55.0266 95.7827 55.2577 96.0593 55.3617 96.3906C55.4656 96.7219 55.4339 97.0809 55.2736 97.3889L46.9212 113.384C46.7602 113.692 46.4837 113.923 46.1524 114.027C45.8212 114.131 45.4622 114.099 45.1543 113.939L33.0309 107.606C32.7234 107.445 32.4922 107.169 32.3883 106.837C32.2843 106.506 32.316 106.147 32.4764 105.839Z" fill="#3F3D56"/>
<path d="M38.078 98.531C37.9295 98.1365 37.6909 97.7821 37.3811 97.4961C37.0714 97.2102 36.6991 97.0006 36.294 96.8842C35.8889 96.7677 35.4622 96.7476 35.0479 96.8253C34.6336 96.9031 34.2432 97.0767 33.9079 97.3322L25.9052 92.0225L25.8916 97.0138L33.4932 101.291C33.9128 101.772 34.4884 102.09 35.1191 102.189C35.7497 102.288 36.3952 102.162 36.9421 101.833C37.4891 101.504 37.9027 100.992 38.1104 100.389C38.3181 99.7848 38.3066 99.1272 38.078 98.531Z" fill="#FFB8B8"/>
<path d="M27.959 99.6538L21.4187 94.4722C20.7112 94.2346 20.0718 93.8288 19.5556 93.2896C19.0394 92.7505 18.6617 92.0941 18.4549 91.3768C18.2482 90.6596 18.2185 89.9028 18.3685 89.1716C18.5186 88.4403 18.8438 87.7564 19.3162 87.1785L25.2546 79.3945C25.6673 78.8901 26.2477 78.5512 26.8897 78.4395C27.5316 78.3279 28.1923 78.4511 28.751 78.7865C29.3097 79.122 29.729 79.6474 29.9322 80.2666C30.1355 80.8858 30.1092 81.5574 29.8581 82.1588L25.1594 89.8462L32.0645 93.1219C32.2251 93.1981 32.3677 93.3075 32.4828 93.4428C32.598 93.5782 32.6831 93.7365 32.7326 93.9072C32.7821 94.0779 32.7948 94.2572 32.7699 94.4331C32.745 94.6091 32.683 94.7778 32.5881 94.9281L29.8007 99.34C29.7065 99.4889 29.5821 99.6164 29.4355 99.7141C29.2889 99.8119 29.1234 99.8777 28.9497 99.9074C28.9428 99.9086 28.9359 99.9097 28.9289 99.9107C28.7583 99.9365 28.5842 99.927 28.4173 99.8828C28.2505 99.8386 28.0945 99.7607 27.959 99.6538Z" fill="white"/>
<path d="M29.6113 71.5536C29.583 71.4708 29.574 71.3825 29.5851 71.2956C29.5961 71.2088 29.6269 71.1256 29.675 71.0524C29.7232 70.9793 29.7874 70.9181 29.8629 70.8737C29.9383 70.8292 30.0229 70.8026 30.1102 70.7959C30.289 70.8056 30.4639 70.8515 30.6245 70.9307C30.785 71.0099 30.9279 71.1209 31.0444 71.2569C31.2833 71.5323 31.5614 71.7712 31.8697 71.9657C32.189 72.1267 32.6221 72.1037 32.8041 71.7968C32.975 71.5086 32.8579 71.1227 32.7544 70.7879C32.4911 69.9362 32.3438 69.0529 32.3164 68.1619C32.2866 67.1672 32.4269 66.1293 32.9774 65.3535C33.688 64.3523 34.9585 63.9723 36.1608 63.9998C37.3632 64.0274 38.546 64.3986 39.737 64.6333C40.1482 64.7143 40.6314 64.7557 40.9064 64.437C41.1988 64.0981 41.0915 63.5496 40.9671 63.092C40.6443 61.9047 40.3019 60.677 39.5521 59.7181C38.7413 58.7217 37.5831 58.0695 36.3108 57.893C35.0894 57.7417 33.8494 57.8824 32.6929 58.3038C30.8087 58.8978 29.1508 60.053 27.9408 61.6149C26.6935 63.276 26.1545 65.3634 26.4417 67.4208C26.7223 69.2127 27.6717 70.8316 29.0985 71.9512L29.6113 71.5536Z" fill="#2F2E41"/>
<path d="M113.209 156.645C111.453 155.88 109.899 154.717 108.669 153.249C107.439 151.78 106.567 150.046 106.123 148.182C105.678 146.319 105.672 144.377 106.106 142.511C106.539 140.645 107.401 138.906 108.622 137.43C107.206 138.464 106.026 139.787 105.161 141.312C104.296 142.836 103.764 144.528 103.603 146.273C103.441 148.019 103.652 149.78 104.222 151.437C104.793 153.095 105.709 154.613 106.911 155.89C108.112 157.166 109.571 158.173 111.192 158.842C112.812 159.511 114.556 159.828 116.308 159.772C118.06 159.716 119.78 159.288 121.354 158.516C122.928 157.744 124.32 156.646 125.437 155.295C123.694 156.568 121.648 157.363 119.503 157.6C117.358 157.837 115.188 157.508 113.209 156.645Z" fill="white"/>
</g>
<defs>
<clipPath id="clip0_5299_1020">
<rect width="227" height="160" fill="white"/>
</clipPath>
</defs>
</svg>
