<svg width="198" height="128" viewBox="0 0 198 128" fill="none" xmlns="http://www.w3.org/2000/svg">
<g clip-path="url(#clip0)">
<path d="M151.694 121.241L162.002 105.97L151.715 122.883L151.736 124.602C150.984 124.607 150.239 124.595 149.501 124.564L150.012 102.477L149.998 102.306L150.017 102.273L150.066 100.186L138.777 83.8594L150.052 98.624L150.092 99.0652L150.479 82.3772L140.728 65.4501L150.506 79.4456L150.404 44.8724L150.404 44.7573L150.408 44.8705L151.055 72.1189L159.942 61.0506L151.084 74.4662L151.278 89.3933L159.455 74.825L151.308 91.5878L151.416 99.888L163.308 79.5946L151.452 102.784L151.694 121.241Z" fill="#E6E6E6"/>
<path d="M186.386 121.721L196.694 106.451L186.407 123.364L186.428 125.083C185.676 125.088 184.93 125.076 184.193 125.045L184.704 102.958L184.69 102.787L184.709 102.754L184.758 100.667L173.469 84.3403L184.744 99.105L184.784 99.5461L185.17 82.8582L175.42 65.931L185.198 79.9266L185.096 45.3534L185.096 45.2383L185.1 45.3515L185.747 72.5998L194.633 61.5315L185.776 74.9472L185.97 89.8742L194.147 75.306L186 92.0687L186.108 100.369L198 80.0756L186.144 103.264L186.386 121.721Z" fill="#E6E6E6"/>
<path d="M112.272 59.8783C112.272 59.8783 110.877 49.6904 108.553 52.4689C106.228 55.2474 108.553 59.4153 108.553 59.4153L110.412 61.7307L112.272 60.3414V59.8783Z" fill="#9F616A"/>
<path d="M117.85 63.12C117.85 63.12 113.201 58.026 112.272 58.9522C111.342 59.8783 108.553 60.3414 109.017 62.1938C109.482 64.0462 119.245 70.0663 119.245 70.0663L117.85 63.12Z" fill="#218FF4"/>
<path opacity="0.1" d="M117.85 63.12C117.85 63.12 113.201 58.026 112.272 58.9522C111.342 59.8783 108.553 60.3414 109.017 62.1938C109.482 64.0462 119.245 70.0663 119.245 70.0663L117.85 63.12Z" fill="black"/>
<path d="M144.349 62.657V66.3617C144.349 66.3617 144.814 74.6973 142.024 74.2343C139.235 73.7712 140.63 66.8248 140.63 66.8248L141.095 62.657L144.349 62.657Z" fill="#9F616A"/>
<path d="M142.954 89.5161C142.954 89.5161 147.138 95.9994 148.533 96.4625C149.927 96.9256 157.366 101.093 158.295 105.261L164.804 113.597L161.55 117.765C161.55 117.765 146.673 102.02 142.489 100.63C138.305 99.241 134.121 92.2947 134.121 92.2947L142.954 89.5161Z" fill="#9F616A"/>
<path d="M109.947 78.865C109.947 78.865 101.114 80.2543 102.509 85.8113C103.904 91.3684 117.385 102.946 117.385 102.946L117.85 105.724L122.964 106.65L125.288 104.335L124.824 102.946C124.824 102.946 119.245 97.8517 118.78 95.9994C118.315 94.147 113.201 86.7375 110.877 86.2744L114.131 84.4221L109.947 78.865Z" fill="#9F616A"/>
<path d="M163.409 113.597C163.409 113.597 161.55 110.818 164.339 111.282C167.128 111.745 168.988 112.208 168.988 114.06C168.988 115.912 166.663 128.879 163.874 127.953C161.085 127.027 163.409 122.859 163.409 122.859C163.409 122.859 162.015 119.154 161.085 118.691C160.155 118.228 160.155 115.912 161.085 115.912C162.015 115.912 163.874 114.523 163.409 113.597Z" fill="#2F2E41"/>
<path d="M123.894 103.409C123.894 103.409 123.894 101.094 125.753 103.409C127.613 105.724 128.543 107.577 126.683 108.966C124.824 110.355 118.315 113.597 118.315 113.597C118.315 113.597 111.342 114.986 112.272 111.745C112.272 111.745 116.92 109.429 116.92 107.577C116.92 105.724 116.92 102.483 118.315 103.409C119.71 104.335 123.894 104.798 123.894 103.409Z" fill="#2F2E41"/>
<path d="M132.727 68.677C132.727 68.677 139.235 69.6032 138.77 78.865C138.77 78.865 147.138 87.2006 144.814 89.9792C142.489 92.7577 137.376 97.8517 135.516 96.4624C133.656 95.0732 128.078 84.4221 128.078 84.4221C128.078 84.4221 115.061 89.053 112.737 86.7375C110.412 84.4221 108.088 78.865 108.088 78.865L119.71 72.8448L132.727 68.677Z" fill="#2F2E41"/>
<path d="M114.596 42.2809C117.677 42.2809 120.175 39.7929 120.175 36.7238C120.175 33.6547 117.677 31.1667 114.596 31.1667C111.515 31.1667 109.018 33.6547 109.018 36.7238C109.018 39.7929 111.515 42.2809 114.596 42.2809Z" fill="#9F616A"/>
<path d="M118.78 37.187C118.78 37.187 122.034 42.281 122.964 42.7441C123.894 43.2072 116.456 47.8381 116.456 47.8381C116.456 47.8381 116.456 41.8179 114.131 40.4286L118.78 37.187Z" fill="#9F616A"/>
<path d="M119.245 42.2811C119.245 42.2811 126.683 39.9656 128.078 43.6703C129.472 47.3751 132.727 54.3214 132.262 58.9523C131.797 63.5832 130.867 62.657 132.262 64.0463C133.656 65.4356 134.586 64.5094 134.121 66.3618C133.656 68.2141 133.191 68.2141 133.656 69.1403C134.121 70.0665 128.078 73.3081 122.964 73.7712L117.85 74.2343C117.85 74.2343 117.85 65.8987 116.92 64.0463C115.991 62.194 114.131 58.4892 114.131 57.0999V53.4241C114.131 50.9774 114.772 48.5731 115.991 46.4489C115.991 46.4489 118.78 42.2811 119.245 42.2811Z" fill="#218FF4"/>
<path d="M124.824 44.1333C124.824 44.1333 142.025 45.5226 143.884 50.1535C145.744 54.7844 146.673 64.0462 144.814 64.0462C142.954 64.0462 140.63 64.9724 140.165 64.0462C139.7 63.12 137.841 53.8582 137.376 53.8582C136.911 53.8582 122.964 52.4689 122.964 52.4689C122.964 52.4689 116.921 45.0595 124.824 44.1333Z" fill="#218FF4"/>
<path d="M114.372 35.3462C114.372 35.3462 112.892 32.7835 111.041 35.0095C109.191 37.2355 106.18 33.1448 106.642 32.272C107.104 31.3991 108.736 32.3112 111.533 31.4005C114.33 30.4898 119.717 28.6344 120.62 34.6866C121.522 40.7387 119.373 40.1043 119.373 40.1043C119.373 40.1043 118.388 34.7414 117.498 36.2819L116.608 37.8223L115.835 38.0116L114.372 35.3462Z" fill="#2F2E41"/>
<path d="M64 128H197.5" stroke="black" stroke-width="0.5"/>
</g>
<defs>
<clipPath id="clip0">
<rect width="198" height="128" fill="white"/>
</clipPath>
</defs>
</svg>
