<svg width="1068" height="752" viewBox="0 0 1068 752" fill="none" xmlns="http://www.w3.org/2000/svg">
<g clip-path="url(#clip0)">
<path d="M545.45 750.41C577.572 750.41 603.612 724.392 603.612 692.298C603.612 660.203 577.572 634.186 545.45 634.186C513.328 634.186 487.288 660.203 487.288 692.298C487.288 724.392 513.328 750.41 545.45 750.41Z" fill="#00B9DA"/>
<path d="M892.912 747.141C925.45 737.378 960.043 727.196 985.848 703.985C1008.91 683.244 1024.48 651.572 1014.92 620.466C1005.39 589.424 976.834 568.726 947.352 558.431C930.63 552.592 913.136 549.353 895.649 546.808C876.639 544.042 857.545 541.775 838.46 539.594C761.183 530.763 683.615 525.368 605.757 523.41C567.339 522.443 528.928 522.467 490.504 523.024C456.19 523.522 420.05 523.509 388.216 508.937C363.462 497.606 340.994 476.99 334.096 449.898C326.134 418.626 340.82 386.779 361.888 364.13C372.992 352.191 385.971 342.143 399.359 332.904C413.884 322.881 428.915 313.567 444.272 304.873C474.517 287.759 506.138 273.194 538.806 261.329C554.921 255.474 571.276 250.423 587.773 245.763C601.702 241.828 615.676 237.888 629.138 232.527C655.164 222.163 679.918 204.608 686.535 175.828C692.807 148.551 682.232 118.94 663.694 98.6766C642.246 75.2334 609.907 64.9566 578.904 63.2938C544.097 61.4271 510.092 70.1309 477.377 81.1771C442.484 92.9587 408.343 106.505 372.713 116.048C337.381 125.502 301.365 132.191 264.992 136.055C247.187 137.949 228.843 140.088 210.932 138.638C195.92 137.423 180.985 133.012 169.922 122.367C160.436 113.24 154.785 100.696 156.728 87.4589C157.081 85.0546 160.736 86.0767 160.386 88.4664C158.021 104.58 168.983 119.428 182.492 127.034C198.105 135.825 217.104 135.837 234.486 134.832C272.177 132.557 309.612 127.15 346.403 118.667C382.555 110.417 417.416 98.6226 452.238 86.0239C485.309 74.0584 519.12 62.3801 554.451 59.7884C585.108 57.5396 617.357 62.002 644.064 78.0093C667.536 92.0775 684.796 115.539 690.296 142.461C695.67 168.769 688.227 195.248 668.296 213.607C647.659 232.615 619.363 240.742 592.993 248.226C559.547 257.719 526.818 268.816 495.138 283.224C463.027 297.787 432.231 315.086 403.091 334.929C374.963 354.134 347.204 378.299 338.308 412.561C334.164 428.52 334.929 445.447 341.863 460.522C348.028 473.926 358.181 485.2 370.01 493.897C398.232 514.646 433.802 518.906 467.892 519.33C506.179 519.806 544.468 518.515 582.768 519.143C660.822 520.423 738.717 525.17 816.451 533.384C835.93 535.444 855.383 537.721 874.812 540.215C892.288 542.458 909.823 544.687 927.005 548.672C957.555 555.757 987.283 569.38 1006.27 595.26C1014.7 606.478 1019.92 619.772 1021.38 633.723C1022.71 648.281 1019.14 662.867 1012.55 675.818C997.97 704.483 970.658 722.715 941.653 734.694C926.118 741.11 910.003 745.97 893.92 750.796C891.577 751.499 890.576 747.842 892.912 747.141L892.912 747.141Z" fill="#F2F2F2"/>
<path d="M159.177 118.121C175.937 118.121 189.523 104.547 189.523 87.8019C189.523 71.0569 175.937 57.4824 159.177 57.4824C142.418 57.4824 128.832 71.0569 128.832 87.8019C128.832 104.547 142.418 118.121 159.177 118.121Z" fill="#F2F2F2"/>
<path d="M369.698 175.604C386.458 175.604 400.044 162.029 400.044 145.284C400.044 128.539 386.458 114.965 369.698 114.965C352.939 114.965 339.353 128.539 339.353 145.284C339.353 162.029 352.939 175.604 369.698 175.604Z" fill="#F2F2F2"/>
<path d="M547.979 60.6389C564.738 60.6389 578.324 47.0644 578.324 30.3194C578.324 13.5745 564.738 0 547.979 0C531.22 0 517.634 13.5745 517.634 30.3194C517.634 47.0644 531.22 60.6389 547.979 60.6389Z" fill="#F2F2F2"/>
<path d="M659.245 189.496C676.004 189.496 689.59 175.922 689.59 159.177C689.59 142.432 676.004 128.857 659.245 128.857C642.485 128.857 628.899 142.432 628.899 159.177C628.899 175.922 642.485 189.496 659.245 189.496Z" fill="#F2F2F2"/>
<path d="M508.782 338.569C525.542 338.569 539.128 324.994 539.128 308.249C539.128 291.504 525.542 277.93 508.782 277.93C492.023 277.93 478.437 291.504 478.437 308.249C478.437 324.994 492.023 338.569 508.782 338.569Z" fill="#F2F2F2"/>
<path d="M317.859 410.572C334.618 410.572 348.205 396.998 348.205 380.253C348.205 363.508 334.618 349.934 317.859 349.934C301.1 349.934 287.514 363.508 287.514 380.253C287.514 396.998 301.1 410.572 317.859 410.572Z" fill="#F2F2F2"/>
<path d="M520.163 523.014C536.922 523.014 550.508 509.439 550.508 492.694C550.508 475.949 536.922 462.375 520.163 462.375C503.403 462.375 489.817 475.949 489.817 492.694C489.817 509.439 503.403 523.014 520.163 523.014Z" fill="#F2F2F2"/>
<path d="M737.638 586.172C754.397 586.172 767.983 572.598 767.983 555.853C767.983 539.108 754.397 525.533 737.638 525.533C720.878 525.533 707.292 539.108 707.292 555.853C707.292 572.598 720.878 586.172 737.638 586.172Z" fill="#F2F2F2"/>
<path d="M539.218 85.9087C448.319 86.5502 373.891 160.355 372.6 251.17C372.588 252.009 372.583 257.904 372.583 265.615C372.584 276.921 377.079 287.764 385.08 295.759C393.081 303.754 403.933 308.246 415.249 308.247H415.249C420.858 308.246 426.412 307.14 431.594 304.993C436.775 302.847 441.483 299.701 445.447 295.736C449.411 291.771 452.555 287.064 454.698 281.884C456.841 276.705 457.941 271.154 457.936 265.55C457.932 260.304 457.929 256.674 457.929 256.451C457.926 242.416 461.58 228.622 468.531 216.425C475.483 204.229 485.492 194.05 497.574 186.891C509.657 179.732 523.397 175.839 537.442 175.594C551.487 175.35 565.354 178.763 577.679 185.497C590.003 192.232 600.361 202.056 607.733 214.003C615.105 225.95 619.238 239.609 619.724 253.636C620.21 267.663 617.033 281.575 610.506 294.003C603.979 306.431 594.326 316.947 582.497 324.518L582.512 324.536C582.512 324.536 521.786 363.597 503.272 417.181L503.287 417.185C500.032 428.162 498.382 439.552 498.39 451.001C498.39 455.707 498.667 496.886 499.202 530.309C499.39 541.841 504.107 552.837 512.336 560.925C520.565 569.013 531.647 573.545 543.191 573.542H543.191C548.991 573.542 554.734 572.396 560.089 570.169C565.445 567.943 570.306 564.681 574.395 560.57C578.484 556.46 581.718 551.582 583.913 546.217C586.108 540.853 587.22 535.108 587.184 529.313C586.998 498.704 586.897 463.063 586.897 460.476C586.897 427.573 618.665 394.79 644.76 373.412C674.81 348.794 696.433 315.245 705.119 277.401C707.041 269.61 708.1 261.631 708.279 253.609C708.279 231.484 703.897 209.577 695.386 189.151C686.875 168.726 674.402 150.185 658.688 134.596C642.973 119.008 624.326 106.681 603.822 98.3246C583.318 89.9685 561.362 85.7488 539.218 85.9087V85.9087Z" fill="#00B9DA"/>
<g filter="url(#filter0_d)">
<path d="M1020.62 752H1.43658C1.05519 751.998 0.689812 751.695 0.420521 751.157C0.15123 750.619 0 749.89 0 749.13C0 748.37 0.15123 747.641 0.420521 747.103C0.689812 746.565 1.05519 746.262 1.43658 746.26H1020.62C1021.01 746.26 1021.37 746.562 1021.64 747.1C1021.91 747.639 1022.06 748.369 1022.06 749.13C1022.06 749.891 1021.91 750.621 1021.64 751.16C1021.37 751.698 1021.01 752 1020.62 752V752Z" fill="#3F3D56"/>
</g>
<path d="M427.297 288.088C415.982 288.087 405.13 283.595 397.129 275.6C389.128 267.605 384.632 256.762 384.632 245.456C384.631 237.745 384.637 231.85 384.648 231.011C385.008 204.6 391.665 178.655 404.068 155.328C383.69 183.2 372.486 216.711 372.004 251.224C371.993 252.063 371.987 257.958 371.988 265.669C371.988 276.975 376.484 287.818 384.485 295.813C392.486 303.808 403.338 308.3 414.653 308.301V308.301C423.952 308.298 432.995 305.262 440.409 299.655C447.823 294.048 453.203 286.176 455.731 277.236C447.918 284.235 437.791 288.101 427.297 288.088V288.088Z" fill="#3F3D56"/>
<path d="M542.112 175.736C555.193 176.36 567.928 180.147 579.222 186.772C590.516 193.397 600.032 202.661 606.953 213.77C613.874 224.879 617.994 237.5 618.957 250.55C619.921 263.6 617.701 276.688 612.487 288.692C620.028 279.842 625.572 269.471 628.739 258.287C631.906 247.102 632.622 235.367 630.838 223.881C629.054 212.395 624.812 201.428 618.402 191.728C611.992 182.029 603.563 173.824 593.692 167.674C583.82 161.524 572.737 157.573 561.199 156.09C549.661 154.607 537.938 155.628 526.83 159.082C515.722 162.537 505.49 168.343 496.832 176.107C488.174 183.87 481.293 193.408 476.658 204.069C484.669 194.654 494.736 187.203 506.084 182.29C517.433 177.378 529.759 175.135 542.112 175.736V175.736Z" fill="#3F3D56"/>
<path d="M555.237 553.375C543.694 553.378 532.612 548.846 524.383 540.758C516.153 532.67 511.436 521.674 511.249 510.141C510.714 476.719 510.437 435.54 510.437 430.834C510.429 419.385 512.079 407.995 515.334 397.018L515.319 397.014C517.241 391.504 519.563 386.141 522.265 380.969C513.969 392.015 507.366 404.236 502.675 417.227L502.69 417.231C499.435 428.208 497.785 439.598 497.793 451.047C497.793 455.753 498.07 496.932 498.605 530.354C498.792 541.886 503.51 552.883 511.739 560.971C519.968 569.059 531.05 573.59 542.593 573.588V573.588C552.111 573.586 561.372 570.501 568.986 564.796C576.601 559.091 582.159 551.072 584.826 541.944C576.738 549.313 566.183 553.39 555.237 553.375V553.375Z" fill="#3F3D56"/>
<path d="M159.997 735.983L175.497 735.981L182.873 676.242L159.993 676.243L159.997 735.983Z" fill="#FFB8B8"/>
<path d="M205.394 750.363L156.676 750.366L156.675 731.559L186.57 731.557C191.562 731.557 196.35 733.538 199.88 737.065C203.41 740.592 205.393 745.375 205.394 750.363V750.363L205.394 750.363Z" fill="#2F2E41"/>
<path d="M104.364 735.983L119.864 735.981L127.24 676.242L104.36 676.243L104.364 735.983Z" fill="#FFB8B8"/>
<path d="M149.761 750.363L101.043 750.366L101.042 731.559L130.937 731.557C135.929 731.557 140.717 733.538 144.247 737.065C147.777 740.592 149.761 745.375 149.761 750.363V750.363L149.761 750.363Z" fill="#2F2E41"/>
<path d="M117.911 717.614L102.77 716.818C101.989 716.777 101.224 716.582 100.519 716.243C99.8147 715.905 99.1844 715.43 98.6647 714.846C98.1451 714.263 97.7466 713.582 97.4922 712.843C97.2378 712.105 97.1327 711.323 97.1828 710.543L115.28 510.352L198.617 532.82L206.646 530.632L181.537 707.855C181.324 709.188 180.661 710.409 179.659 711.315C178.657 712.221 177.376 712.758 176.027 712.838L159.705 713.598C158.889 713.643 158.072 713.519 157.307 713.233C156.541 712.947 155.843 712.505 155.257 711.936C154.671 711.366 154.21 710.682 153.902 709.925C153.595 709.168 153.447 708.356 153.47 707.54L156.427 601.174C156.441 600.682 156.27 600.203 155.948 599.83C155.626 599.458 155.176 599.22 154.686 599.163C154.197 599.106 153.704 599.234 153.305 599.522C152.906 599.81 152.629 600.237 152.529 600.719L124.008 712.916C123.739 714.248 123.016 715.444 121.962 716.303C120.909 717.161 119.59 717.627 118.231 717.623C118.125 717.623 118.018 717.62 117.911 717.614Z" fill="#2F2E41"/>
<path d="M162.78 346.556C179.931 346.556 193.835 332.665 193.835 315.528C193.835 298.392 179.931 284.5 162.78 284.5C145.629 284.5 131.725 298.392 131.725 315.528C131.725 332.665 145.629 346.556 162.78 346.556Z" fill="#FFB8B8"/>
<path d="M111.076 406.683L114.491 480.293L115.725 507.073C115.774 508.239 116.17 509.364 116.863 510.303C117.555 511.243 118.513 511.955 119.612 512.348L199.694 541.333C200.341 541.573 201.026 541.693 201.716 541.687C202.505 541.691 203.286 541.536 204.014 541.231C204.741 540.926 205.4 540.479 205.95 539.914C206.501 539.349 206.932 538.68 207.217 537.945C207.503 537.21 207.637 536.426 207.613 535.638L204.33 403.285C204.114 392.426 200.113 381.982 193.017 373.755C185.921 365.527 176.175 360.031 165.458 358.213C164.683 358.095 163.895 357.977 163.107 357.872C156.462 357.048 149.716 357.689 143.345 359.749C136.974 361.81 131.132 365.241 126.231 369.799C121.156 374.463 117.168 380.184 114.549 386.558C111.93 392.931 110.745 399.801 111.076 406.683L111.076 406.683Z" fill="#CCCCCC"/>
<path d="M237.948 526.642C236.054 526.055 234.324 525.033 232.895 523.659C231.466 522.285 230.378 520.596 229.719 518.727C229.06 516.859 228.846 514.862 229.097 512.896C229.347 510.931 230.053 509.051 231.16 507.406L204.003 471.326L227.438 469.877L249.633 504.361C252.01 506.197 253.663 508.81 254.304 511.742C254.945 514.674 254.532 517.737 253.138 520.395C251.744 523.054 249.457 525.136 246.68 526.279C243.902 527.421 240.811 527.55 237.948 526.642H237.948Z" fill="#FFB8B8"/>
<path d="M218.854 500.881C218.135 500.589 217.48 500.157 216.929 499.611C216.377 499.065 215.94 498.415 215.641 497.699L174.728 400.305C173.925 398.398 173.506 396.352 173.495 394.283C173.484 392.215 173.882 390.164 174.664 388.249C175.447 386.334 176.6 384.591 178.057 383.121C179.513 381.651 181.246 380.483 183.155 379.682C185.064 378.881 187.113 378.465 189.183 378.455C191.253 378.446 193.305 378.844 195.222 379.628C197.138 380.411 198.881 381.564 200.351 383.021C201.821 384.478 202.989 386.21 203.789 388.118L244.703 485.513C245.307 486.957 245.314 488.582 244.721 490.031C244.129 491.48 242.985 492.635 241.541 493.242L223.377 500.859C222.662 501.161 221.894 501.319 221.118 501.323C220.342 501.326 219.572 501.176 218.854 500.881L218.854 500.881Z" fill="#CCCCCC"/>
<path d="M152.796 497.445L192.092 422.267C192.85 420.821 194.151 419.734 195.71 419.246C197.268 418.757 198.957 418.906 200.406 419.66L257.444 449.424C258.891 450.181 259.979 451.48 260.468 453.038C260.957 454.595 260.808 456.282 260.053 457.73L220.757 532.908C219.999 534.354 218.698 535.44 217.14 535.929C215.581 536.417 213.892 536.268 212.444 535.515L155.405 505.751C153.958 504.994 152.871 503.694 152.382 502.137C151.892 500.58 152.041 498.892 152.796 497.445Z" fill="#3F3D56"/>
<path d="M179.149 463.098C178.451 461.244 177.328 459.578 175.87 458.234C174.413 456.89 172.662 455.905 170.756 455.358C168.85 454.81 166.842 454.716 164.893 455.081C162.944 455.447 161.107 456.263 159.53 457.463L121.878 432.508L121.814 455.967L157.578 476.069C159.553 478.33 162.261 479.825 165.228 480.291C168.195 480.757 171.232 480.164 173.805 478.617C176.378 477.07 178.324 474.666 179.302 471.829C180.279 468.991 180.225 465.9 179.149 463.098V463.098Z" fill="#FFB8B8"/>
<path d="M131.545 468.372L100.774 444.018C97.4453 442.902 94.4374 440.994 92.0087 438.461C89.58 435.927 87.803 432.842 86.8302 429.47C85.8574 426.099 85.7179 422.543 86.4237 419.106C87.1295 415.669 88.6595 412.454 90.8823 409.738L118.822 373.154C120.763 370.783 123.494 369.19 126.514 368.665C129.535 368.14 132.643 368.719 135.272 370.296C137.9 371.873 139.873 374.342 140.829 377.252C141.785 380.162 141.662 383.319 140.48 386.146L118.374 422.276L150.861 437.672C151.617 438.03 152.287 438.544 152.829 439.18C153.371 439.817 153.772 440.561 154.005 441.363C154.237 442.165 154.297 443.008 154.18 443.835C154.063 444.662 153.771 445.455 153.324 446.161L140.21 466.897C139.767 467.597 139.182 468.196 138.492 468.656C137.802 469.115 137.024 469.424 136.206 469.564C136.174 469.57 136.141 469.575 136.109 469.58C135.306 469.701 134.487 469.656 133.702 469.449C132.917 469.241 132.183 468.875 131.545 468.372V468.372Z" fill="#CCCCCC"/>
<path d="M139.314 336.301C139.181 335.911 139.138 335.496 139.19 335.088C139.242 334.68 139.387 334.289 139.614 333.945C139.84 333.601 140.143 333.314 140.497 333.105C140.852 332.896 141.25 332.771 141.661 332.739C142.502 332.785 143.325 333.001 144.081 333.373C144.836 333.745 145.508 334.267 146.056 334.906C147.18 336.201 148.489 337.323 149.939 338.237C151.442 338.994 153.479 338.886 154.335 337.444C155.14 336.089 154.589 334.275 154.102 332.702C152.863 328.699 152.17 324.547 152.041 320.359C151.901 315.685 152.561 310.806 155.151 307.16C158.494 302.455 164.471 300.668 170.128 300.798C175.785 300.927 181.35 302.672 186.954 303.775C188.888 304.156 191.162 304.35 192.456 302.852C193.831 301.26 193.326 298.682 192.741 296.531C191.223 290.951 189.612 285.181 186.084 280.674C182.269 275.991 176.82 272.925 170.834 272.096C165.087 271.384 159.253 272.046 153.812 274.026C144.948 276.818 137.147 282.248 131.454 289.589C125.586 297.396 123.05 307.207 124.401 316.876C125.722 325.298 130.188 332.907 136.901 338.169L139.314 336.301Z" fill="#2F2E41"/>
<path d="M532.635 736.236C524.373 732.641 517.06 727.176 511.274 720.273C505.487 713.37 501.386 705.218 499.293 696.46C497.2 687.702 497.173 678.578 499.213 669.808C501.254 661.038 505.307 652.861 511.052 645.924C504.391 650.783 498.84 657.002 494.769 664.169C490.698 671.335 488.198 679.284 487.437 687.49C486.675 695.695 487.669 703.968 490.353 711.76C493.036 719.552 497.347 726.685 503 732.685C508.654 738.685 515.519 743.415 523.142 746.561C530.765 749.707 538.97 751.198 547.213 750.933C555.457 750.669 563.549 748.656 570.954 745.027C578.359 741.399 584.907 736.239 590.163 729.889C581.965 735.876 572.34 739.612 562.246 740.726C552.153 741.839 541.944 740.292 532.635 736.236V736.236Z" fill="#3F3D56"/>
</g>
<defs>
<filter id="filter0_d" x="-10" y="740.26" width="1042.06" height="25.7404" filterUnits="userSpaceOnUse" color-interpolation-filters="sRGB">
<feFlood flood-opacity="0" result="BackgroundImageFix"/>
<feColorMatrix in="SourceAlpha" type="matrix" values="0 0 0 0 0 0 0 0 0 0 0 0 0 0 0 0 0 0 127 0"/>
<feOffset dy="4"/>
<feGaussianBlur stdDeviation="5"/>
<feColorMatrix type="matrix" values="0 0 0 0 0 0 0 0 0 0 0 0 0 0 0 0 0 0 0.25 0"/>
<feBlend mode="normal" in2="BackgroundImageFix" result="effect1_dropShadow"/>
<feBlend mode="normal" in="SourceGraphic" in2="effect1_dropShadow" result="shape"/>
</filter>
<clipPath id="clip0">
<rect width="1068" height="752" fill="white"/>
</clipPath>
</defs>
</svg>
