<svg width="397" height="261" viewBox="0 0 397 261" fill="none" xmlns="http://www.w3.org/2000/svg">
<g clip-path="url(#clip0_4871_258)">
<path d="M297.449 81.4884C297.449 88.4583 295.024 94.409 290.41 98.8374C287.136 101.981 282.093 106.388 282.093 111.047V114.902H266.738V111.047C266.738 106.339 261.675 101.924 258.421 98.8374C253.912 94.5642 251.383 88.2094 251.383 81.4884V81.3459C251.403 75.2111 253.848 69.3355 258.181 65.0112C262.513 60.687 268.379 58.2683 274.487 58.2872C280.595 58.3061 286.445 60.761 290.751 65.112C295.058 69.4629 297.467 75.3536 297.449 81.4884Z" fill="#00B9DA"/>
<path d="M282.093 115.443C281.95 115.443 281.813 115.386 281.712 115.285C281.611 115.183 281.555 115.046 281.555 114.902V111.047C281.555 106.515 286.005 102.284 289.254 99.1946C289.524 98.9381 289.786 98.6895 290.038 98.4469C294.533 94.1307 296.909 88.2668 296.909 81.4886C296.909 68.8207 287.029 58.8973 274.416 58.8973H274.353C268.417 58.904 262.725 61.2709 258.522 65.4804C254.319 69.69 251.947 75.3998 251.923 81.3615V81.4877C251.923 88.1257 254.427 94.3061 258.792 98.4447C259.013 98.6545 259.243 98.8704 259.478 99.0921C262.77 102.187 267.278 106.426 267.278 111.047V114.902C267.278 115.046 267.221 115.183 267.12 115.285C267.019 115.386 266.882 115.443 266.739 115.443C266.596 115.443 266.459 115.386 266.358 115.285C266.257 115.183 266.2 115.046 266.2 114.902V111.047C266.2 106.895 261.89 102.842 258.742 99.8811C258.505 99.6585 258.275 99.4417 258.052 99.2308C253.472 94.8887 250.846 88.4217 250.846 81.4879V81.358C250.882 68.3625 261.421 57.8143 274.351 57.8143H274.418C280.636 57.7818 286.613 60.2318 291.033 64.6252C295.453 69.0186 297.954 74.9957 297.987 81.2414C297.987 81.3238 297.987 81.4062 297.987 81.4886C297.987 88.5694 295.495 94.704 290.783 99.2292C290.53 99.4722 290.266 99.7227 289.995 99.9805C286.888 102.935 282.632 106.98 282.632 111.047V114.902C282.632 115.046 282.575 115.183 282.474 115.285C282.373 115.386 282.236 115.443 282.093 115.443H282.093Z" fill="#3F3D56"/>
<path d="M279.535 122.387H269.298C269.06 122.387 268.832 122.292 268.663 122.123C268.495 121.954 268.4 121.725 268.4 121.485C268.4 121.246 268.495 121.017 268.663 120.848C268.832 120.679 269.06 120.583 269.298 120.583H279.535C279.773 120.583 280.002 120.679 280.17 120.848C280.339 121.017 280.433 121.246 280.433 121.485C280.433 121.725 280.339 121.954 280.17 122.123C280.002 122.292 279.773 122.387 279.535 122.387Z" fill="#2D3B5A"/>
<path d="M275.517 128.43H273.313C272.548 128.43 271.797 128.222 271.141 127.826C271.044 127.769 270.969 127.68 270.928 127.575C270.886 127.47 270.881 127.354 270.914 127.246C270.943 127.135 271.009 127.036 271.1 126.966C271.191 126.897 271.302 126.859 271.417 126.859H277.413C277.528 126.859 277.639 126.897 277.73 126.966C277.822 127.036 277.887 127.135 277.916 127.246C277.949 127.354 277.944 127.47 277.903 127.575C277.861 127.68 277.786 127.769 277.689 127.826C277.033 128.222 276.282 128.43 275.517 128.43Z" fill="#3F3D56"/>
<path d="M279.537 125.236L269.239 125.235L269.207 125.166C269.177 125.04 269.176 124.908 269.204 124.781C269.232 124.654 269.288 124.536 269.369 124.434C269.451 124.33 269.555 124.246 269.674 124.188C269.793 124.13 269.923 124.1 270.056 124.101H278.776C278.908 124.1 279.039 124.13 279.158 124.188C279.277 124.246 279.381 124.33 279.463 124.434C279.543 124.534 279.599 124.651 279.628 124.777C279.656 124.902 279.655 125.032 279.626 125.157L279.61 125.227L279.537 125.236Z" fill="#3F3D56"/>
<path d="M250.602 60.2295C250.385 60.2297 250.176 60.1507 250.012 60.0071L242.301 53.2462C242.124 53.0882 242.017 52.8665 242.002 52.6293C241.987 52.3921 242.066 52.1587 242.222 51.9797C242.377 51.8007 242.597 51.6906 242.833 51.6733C243.069 51.656 243.302 51.733 243.482 51.8874L251.193 58.6483C251.331 58.769 251.429 58.9291 251.474 59.1071C251.518 59.2852 251.508 59.4727 251.444 59.6446C251.379 59.8165 251.264 59.9647 251.114 60.0692C250.964 60.1738 250.785 60.2297 250.602 60.2296V60.2295Z" fill="#E4E4E4"/>
<path d="M296.951 60.2292C296.768 60.2293 296.59 60.1733 296.439 60.0688C296.289 59.9642 296.174 59.8161 296.11 59.6442C296.046 59.4723 296.035 59.2848 296.08 59.1067C296.125 58.9287 296.222 58.7686 296.36 58.6478L304.072 51.8865C304.251 51.732 304.485 51.655 304.721 51.6723C304.957 51.6896 305.176 51.7997 305.332 51.9787C305.487 52.1577 305.566 52.3912 305.552 52.6283C305.537 52.8655 305.429 53.0872 305.253 53.2453L297.541 60.0061C297.378 60.1499 297.168 60.2292 296.951 60.2292Z" fill="#E4E4E4"/>
<path d="M282.093 119.186H266.738C266.5 119.186 266.271 119.091 266.103 118.922C265.934 118.753 265.84 118.523 265.84 118.284C265.84 118.045 265.934 117.816 266.103 117.646C266.271 117.477 266.5 117.382 266.738 117.382H282.093C282.331 117.382 282.56 117.477 282.728 117.646C282.897 117.816 282.991 118.045 282.991 118.284C282.991 118.523 282.897 118.753 282.728 118.922C282.56 119.091 282.331 119.186 282.093 119.186Z" fill="#2D3B5A"/>
<path d="M274.04 95.625L270.846 114.902H269.023L272.267 95.3292C272.306 95.0931 272.437 94.8823 272.631 94.7431C272.824 94.6039 273.065 94.5477 273.3 94.5869C273.536 94.6261 273.745 94.7575 273.884 94.9522C274.023 95.1469 274.079 95.3889 274.04 95.625Z" fill="#E6E6E6"/>
<path d="M280.177 114.902H278.354L275.161 95.625C275.122 95.3889 275.177 95.1469 275.316 94.9522C275.455 94.7575 275.665 94.6261 275.9 94.5869C276.135 94.5477 276.376 94.6039 276.569 94.7431C276.763 94.8823 276.894 95.0931 276.933 95.3292L280.177 114.902Z" fill="#E6E6E6"/>
<path d="M268.58 94.981C268.58 94.7418 268.675 94.5124 268.843 94.3433C269.011 94.1741 269.24 94.0791 269.478 94.0791H279.354C279.593 94.0791 279.821 94.1741 279.989 94.3433C280.158 94.5124 280.252 94.7418 280.252 94.981C280.252 95.2202 280.158 95.4496 279.989 95.6187C279.821 95.7879 279.593 95.8829 279.354 95.8829H269.478C269.24 95.8829 269.011 95.7879 268.843 95.6187C268.675 95.4496 268.58 95.2202 268.58 94.981Z" fill="#E6E6E6"/>
<path d="M274.418 51.2263C274.179 51.2263 273.951 51.1313 273.783 50.9621C273.614 50.793 273.52 50.5636 273.52 50.3244V34.9019C273.52 34.6627 273.614 34.4333 273.783 34.2642C273.951 34.095 274.179 34 274.418 34C274.656 34 274.884 34.095 275.052 34.2642C275.221 34.4333 275.315 34.6627 275.315 34.9019V50.3244C275.315 50.5636 275.221 50.793 275.052 50.9621C274.884 51.1313 274.656 51.2263 274.418 51.2263Z" fill="#E4E4E4"/>
<line x1="305.155" y1="77.4179" x2="329.236" y2="66.1886" stroke="#00B9DA" stroke-width="4"/>
<line x1="299.663" y1="54.2752" x2="319.425" y2="36.514" stroke="#00B9DA" stroke-width="4"/>
</g>
<path d="M239.435 145.747C238.233 216.098 133.588 216.087 132.396 145.745C133.598 75.3962 238.243 75.4072 239.435 145.747Z" fill="#00B9DA"/>
<path d="M183.79 167.583L183.734 165.583C197.519 167.423 200.488 150.34 186.586 156.727L189.759 133.536L191.741 133.808L189.042 153.534C203.679 151.355 198.265 169.582 183.79 167.583Z" fill="#2D3B5A"/>
<path d="M212.312 135.509H201.541V137.509H212.312V135.509Z" fill="#2D3B5A"/>
<path d="M178.312 135.509H167.541V137.509H178.312V135.509Z" fill="#2D3B5A"/>
<path d="M227.628 236.578C221.173 229.061 212.73 223.515 203.268 220.578C205.368 206.408 188.778 209.208 179.998 209.068C178.582 209.073 177.185 209.393 175.909 210.005C174.633 210.618 173.509 211.507 172.62 212.609C171.731 213.711 171.099 214.997 170.77 216.374C170.441 217.751 170.423 219.184 170.718 220.568C160.641 223.725 151.731 229.806 145.118 238.038C143.519 240.001 142.059 242.073 140.748 244.238H233.218C231.578 241.529 229.707 238.967 227.628 236.578V236.578Z" fill="#2D3B5A"/>
<path d="M168.674 115.589C176.634 111.036 186.288 114.529 194.51 116.438C210.11 121.184 231.986 115.241 233.883 96.8498C235.858 79.7455 212.215 70.2126 204.659 87.2364L206.859 86.9518C182.352 50.9065 139.722 52.2735 140.003 101.829C139.912 103.36 142.32 103.355 142.41 101.828C141.507 72.626 161.036 52.664 188.64 71.4308C194.958 75.9926 200.07 82.0344 204.78 88.1544C207.655 91.343 208.28 77.6111 222.039 81.2078C237.183 87.0139 232.241 108.474 218.706 113.185C201.982 121.64 183.87 105.246 167.459 113.53C167.195 113.695 167.006 113.955 166.932 114.256C166.858 114.556 166.904 114.873 167.062 115.14C167.22 115.407 167.476 115.603 167.777 115.687C168.078 115.771 168.399 115.735 168.674 115.589V115.589Z" fill="#2D3B5A"/>
<path d="M163.768 174.194C163.768 174.194 187.268 195.194 207.268 174.194" stroke="#2D3B5A" stroke-width="4"/>
<line x1="276" y1="47.5723" x2="276" y2="21.0016" stroke="#00B9DA" stroke-width="4"/>
<line x1="218.845" y1="64.1874" x2="242.926" y2="75.4166" stroke="#00B9DA" stroke-width="4"/>
<line x1="233.337" y1="36.5135" x2="253.098" y2="54.2755" stroke="#00B9DA" stroke-width="4"/>
<defs>
<clipPath id="clip0_4871_258">
<rect width="118" height="140" fill="white" transform="translate(242 34)"/>
</clipPath>
</defs>
</svg>
