<svg width="199" height="98" viewBox="0 0 199 98" fill="none" xmlns="http://www.w3.org/2000/svg">
<g clip-path="url(#clip0)">
<path d="M67.0985 84.1416L64.8252 83.1864L63.2658 71.8136H42.4991L40.8088 83.1399L38.775 84.1547C38.6777 84.2033 38.5997 84.2832 38.5536 84.3815C38.5075 84.4799 38.496 84.5909 38.521 84.6965C38.546 84.8022 38.606 84.8964 38.6913 84.9637C38.7766 85.0311 38.8822 85.0678 38.991 85.0678H66.9111C67.0226 85.0678 67.1307 85.0293 67.2169 84.9588C67.3032 84.8884 67.3624 84.7903 67.3845 84.6812C67.4066 84.5721 67.3901 84.4588 67.338 84.3605C67.2859 84.2621 67.2012 84.1848 67.0985 84.1416Z" fill="#E6E6E6"/>
<path d="M98.056 72.8981H7.95073C5.87244 72.8934 3.88089 72.0661 2.41299 70.5978C0.945087 69.1296 0.120718 67.1401 0.120728 65.0661V56.993H105.886V65.0661C105.886 67.1401 105.062 69.1296 103.594 70.5978C102.126 72.0661 100.134 72.8934 98.056 72.8981Z" fill="#CCCCCC"/>
<path d="M106.007 63.6201H0V7.83202C0.00235991 5.75556 0.829944 3.76482 2.30119 2.29655C3.77245 0.828267 5.76721 0.00235514 7.84787 0H98.1588C100.239 0.00235013 102.234 0.828262 103.706 2.29654C105.177 3.76482 106.004 5.75556 106.007 7.83202V63.6201Z" fill="#E6E6E6"/>
<path d="M97.5552 59.1619H8.45159C7.39525 59.1607 6.38252 58.7414 5.63558 57.996C4.88863 57.2505 4.46848 56.2399 4.46729 55.1857V8.43451C4.46848 7.3803 4.88863 6.36962 5.63558 5.62418C6.38252 4.87875 7.39525 4.45944 8.45159 4.45825H97.5552C98.6115 4.45944 99.6242 4.87875 100.371 5.62418C101.118 6.36962 101.538 7.3803 101.539 8.43451V55.1857C101.538 56.2399 101.118 57.2505 100.371 57.996C99.6242 58.7414 98.6115 59.1607 97.5552 59.1619Z" fill="white"/>
<path d="M58.3905 28.3246C58.3905 28.3322 58.3908 28.3397 58.3912 28.3473C58.6372 32.2091 60.3478 35.8326 63.1752 38.4806C66.0027 41.1287 69.7346 42.6026 73.6121 42.6026C77.4896 42.6026 81.2215 41.1287 84.0489 38.4806C86.8764 35.8325 88.587 32.2091 88.8329 28.3473C88.8361 28.2995 88.8294 28.2516 88.8132 28.2066C88.797 28.1615 88.7716 28.1203 88.7387 28.0855C88.7063 28.0508 88.6671 28.0232 88.6235 28.0043C88.5799 27.9855 88.5329 27.9759 88.4853 27.9761L58.7389 27.9761C58.6464 27.9763 58.5578 28.0131 58.4925 28.0785C58.4272 28.1438 58.3905 28.2323 58.3905 28.3246Z" fill="#3F3D56"/>
<path d="M83.7765 16.103C83.7764 16.2215 83.7293 16.3352 83.6454 16.4191L73.2889 26.7547C73.2474 26.7963 73.1982 26.8293 73.1439 26.8517C73.0896 26.8742 73.0314 26.8856 72.9727 26.8855H58.7388C58.6778 26.8857 58.6173 26.8733 58.5613 26.8491C58.5052 26.8249 58.4548 26.7894 58.4132 26.7448C58.371 26.7 58.3385 26.6471 58.3177 26.5894C58.2969 26.5316 58.2881 26.4702 58.292 26.4089C58.4732 23.5654 59.4453 20.8286 61.0992 18.5061C62.7531 16.1836 65.0233 14.3674 67.6545 13.2615C70.2858 12.1557 73.1739 11.8041 75.9944 12.2462C78.8149 12.6883 81.4559 13.9066 83.6208 15.7643C83.6674 15.8045 83.7053 15.8538 83.732 15.9092C83.7588 15.9646 83.7738 16.025 83.7762 16.0864C83.7764 16.092 83.7765 16.0975 83.7765 16.103Z" fill="#E6E6E6"/>
<path d="M127.721 57.3639C127.643 57.4469 127.535 57.4971 127.421 57.5043C127.36 57.5084 127.299 57.4997 127.242 57.479C127.184 57.4583 127.131 57.426 127.087 57.384L117.734 48.6015C117.669 48.541 117.624 48.4628 117.604 48.3768C117.584 48.2908 117.591 48.2009 117.622 48.1184C117.653 48.0358 117.708 47.9644 117.78 47.9132C117.852 47.862 117.938 47.8332 118.026 47.8305L130.801 47.4419C130.862 47.4401 130.922 47.4506 130.979 47.4729C131.035 47.4951 131.087 47.5286 131.13 47.5712C131.173 47.6139 131.207 47.6649 131.23 47.7211C131.253 47.7773 131.264 47.8375 131.263 47.8981C131.187 51.3524 129.945 54.6801 127.739 57.3431C127.733 57.3502 127.727 57.3572 127.721 57.3639Z" fill="#D7AB25"/>
<path d="M68.3048 48.6935C68.2993 49.2342 68.1332 49.7611 67.8276 50.2075C67.522 50.654 67.0906 51 66.5879 51.2018C66.0853 51.4036 65.5339 51.4521 65.0037 51.3412C64.4734 51.2302 63.988 50.9649 63.6089 50.5787C63.2297 50.1924 62.9738 49.7027 62.8736 49.1713C62.7733 48.6399 62.8332 48.0908 63.0457 47.5935C63.2582 47.0961 63.6136 46.6727 64.0672 46.377C64.5207 46.0812 65.052 45.9263 65.5937 45.9318C66.32 45.9401 67.0132 46.2355 67.5215 46.7532C68.0297 47.271 68.3115 47.9688 68.3048 48.6935Z" fill="#D7AB25"/>
<path d="M76.1311 48.7734C76.1255 49.3141 75.9595 49.841 75.6539 50.2875C75.3483 50.7339 74.9168 51.0799 74.4142 51.2817C73.9115 51.4835 73.3602 51.532 72.83 51.4211C72.2997 51.3101 71.8143 51.0448 71.4351 50.6586C71.056 50.2723 70.8001 49.7826 70.6999 49.2512C70.5996 48.7198 70.6595 48.1707 70.872 47.6734C71.0845 47.176 71.4399 46.7526 71.8935 46.4569C72.347 46.1611 72.8783 46.0062 73.42 46.0117C74.1462 46.02 74.8395 46.3154 75.3478 46.8331C75.856 47.3509 76.1377 48.0487 76.1311 48.7734Z" fill="#3F3D56"/>
<path d="M83.9573 48.8536C83.9517 49.3942 83.7856 49.9211 83.48 50.3676C83.1744 50.8141 82.743 51.1601 82.2404 51.3618C81.7377 51.5636 81.1864 51.6121 80.6562 51.5012C80.1259 51.3903 79.6405 51.1249 79.2613 50.7387C78.8822 50.3525 78.6263 49.8627 78.5261 49.3313C78.4258 48.8 78.4857 48.2509 78.6982 47.7535C78.9106 47.2561 79.2661 46.8328 79.7196 46.537C80.1732 46.2412 80.7044 46.0863 81.2462 46.0919C81.9724 46.1001 82.6657 46.3955 83.174 46.9133C83.6822 47.431 83.9639 48.1288 83.9573 48.8536Z" fill="#E6E6E6"/>
<path d="M44.301 19.3183L19.1682 19.061C18.9233 19.0583 18.6803 19.1038 18.453 19.1949C18.2257 19.286 18.0187 19.4209 17.8437 19.5918C17.6686 19.7628 17.5291 19.9665 17.433 20.1914C17.3369 20.4162 17.2862 20.6577 17.2837 20.9021C17.2812 21.1465 17.3269 21.389 17.4184 21.6158C17.5098 21.8425 17.6451 22.0491 17.8166 22.2236C17.9881 22.3981 18.1923 22.5372 18.4177 22.6329C18.643 22.7286 18.8851 22.7791 19.13 22.7814L44.2627 23.0387C44.5076 23.0414 44.7507 22.9959 44.9779 22.9049C45.2052 22.8138 45.4123 22.6789 45.5873 22.5079C45.7623 22.3369 45.9019 22.1332 45.9979 21.9084C46.094 21.6836 46.1448 21.442 46.1473 21.1976C46.1498 20.9532 46.104 20.7107 46.0126 20.484C45.9211 20.2572 45.7858 20.0507 45.6144 19.8762C45.4429 19.7016 45.2386 19.5625 45.0133 19.4668C44.7879 19.3711 44.5459 19.3207 44.301 19.3183Z" fill="#E6E6E6"/>
<path d="M44.1962 29.4835L19.0634 29.2262C18.6368 29.221 18.2213 29.3622 17.8865 29.626C17.5516 29.8899 17.3177 30.2605 17.2238 30.6758C17.1299 31.0912 17.1817 31.5261 17.3706 31.9079C17.5594 32.2897 17.8739 32.5952 18.2614 32.7734C18.5006 32.8852 18.7611 32.9442 19.0252 32.9466L44.1579 33.2039C44.4029 33.2067 44.6461 33.1614 44.8735 33.0704C45.1009 32.9793 45.3081 32.8445 45.4832 32.6735C45.6583 32.5025 45.798 32.2987 45.8941 32.0738C45.9903 31.8489 46.0411 31.6073 46.0436 31.3628C46.0461 31.1183 46.0003 30.8757 45.9088 30.6489C45.8173 30.4221 45.6818 30.2155 45.5103 30.041C45.3387 29.8664 45.1343 29.7273 44.9088 29.6317C44.6833 29.536 44.4412 29.4857 44.1962 29.4835V29.4835Z" fill="#E6E6E6"/>
<path d="M44.0919 39.6485L18.9591 39.3912C18.7142 39.3885 18.4712 39.434 18.2439 39.5251C18.0166 39.6162 17.8096 39.7511 17.6346 39.922C17.4595 40.093 17.32 40.2967 17.2239 40.5216C17.1278 40.7464 17.0771 40.9879 17.0746 41.2323C17.072 41.4767 17.1178 41.7192 17.2093 41.946C17.3007 42.1727 17.436 42.3793 17.6075 42.5538C17.779 42.7283 17.9832 42.8674 18.2086 42.9631C18.4339 43.0588 18.676 43.1093 18.9209 43.1116L44.0536 43.3689C44.2986 43.3718 44.5418 43.3264 44.7692 43.2354C44.9966 43.1444 45.2038 43.0095 45.3789 42.8385C45.554 42.6675 45.6937 42.4637 45.7898 42.2388C45.886 42.014 45.9368 41.7723 45.9393 41.5278C45.9418 41.2834 45.896 41.0408 45.8045 40.8139C45.713 40.5871 45.5775 40.3805 45.406 40.206C45.2344 40.0314 45.03 39.8924 44.8045 39.7967C44.579 39.7011 44.3369 39.6507 44.0919 39.6485Z" fill="#E6E6E6"/>
<path d="M37.1488 19.2451L19.1682 19.061C18.9233 19.0583 18.6803 19.1038 18.453 19.1949C18.2257 19.286 18.0187 19.4209 17.8437 19.5918C17.6686 19.7628 17.5291 19.9665 17.433 20.1914C17.3369 20.4162 17.2862 20.6577 17.2837 20.9021C17.2812 21.1465 17.3269 21.389 17.4184 21.6158C17.5098 21.8425 17.6451 22.0491 17.8166 22.2236C17.9881 22.3981 18.1923 22.5372 18.4177 22.6329C18.643 22.7286 18.8851 22.7791 19.13 22.7814L36.7359 22.9617C37.0936 22.8197 37.4059 22.5832 37.6392 22.2777C37.8726 21.9721 38.0183 21.609 38.0607 21.2271C38.1032 20.8453 38.0407 20.4591 37.8801 20.11C37.7194 19.7608 37.4666 19.4619 37.1488 19.2451Z" fill="#D7AB25"/>
<path d="M28.7401 29.3253L19.0634 29.2262C18.6368 29.221 18.2213 29.3622 17.8865 29.626C17.5516 29.8899 17.3177 30.2605 17.2238 30.6758C17.1299 31.0912 17.1817 31.5261 17.3706 31.9079C17.5594 32.2897 17.8739 32.5952 18.2614 32.7734L27.1493 32.8644C27.7121 32.87 28.2541 32.6523 28.6562 32.2592C29.0582 31.8661 29.2874 31.3297 29.2934 30.7681C29.3019 30.234 29.1037 29.7172 28.7401 29.3253Z" fill="#D7AB25"/>
<path d="M42.214 39.6293L18.9591 39.3912C18.7142 39.3885 18.4712 39.434 18.2439 39.5251C18.0166 39.6162 17.8096 39.7511 17.6346 39.922C17.4595 40.093 17.32 40.2967 17.2239 40.5216C17.1278 40.7464 17.0771 40.9879 17.0746 41.2323C17.072 41.4767 17.1178 41.7192 17.2093 41.946C17.3007 42.1727 17.436 42.3793 17.6075 42.5538C17.779 42.7283 17.9832 42.8674 18.2086 42.9631C18.4339 43.0588 18.676 43.1093 18.9209 43.1116L42.3256 43.3512C42.6572 43.1605 42.9309 42.8837 43.1174 42.5501C43.304 42.2166 43.3964 41.8388 43.385 41.457C43.3735 41.0752 43.2586 40.7036 43.0524 40.3818C42.8462 40.0599 42.5565 39.7999 42.214 39.6293H42.214Z" fill="#D7AB25"/>
<path d="M139.368 95.2074L136.649 95.2072L135.357 84.7437L139.369 84.744L139.368 95.2074Z" fill="#A0616A"/>
<path d="M134.708 94.4319H139.95V97.726H131.407C131.407 97.2934 131.492 96.8651 131.658 96.4654C131.824 96.0658 132.067 95.7026 132.374 95.3967C132.68 95.0909 133.044 94.8482 133.445 94.6827C133.845 94.5171 134.274 94.4319 134.708 94.4319Z" fill="#2F2E41"/>
<path d="M168.086 93.179L165.458 93.8756L161.515 84.0949L165.393 83.0665L168.086 93.179Z" fill="#A0616A"/>
<path d="M163.382 93.6243L168.449 92.2806L169.297 95.4641L161.04 97.6538C160.815 96.8095 160.936 95.9107 161.375 95.155C161.814 94.3993 162.536 93.8487 163.382 93.6243Z" fill="#2F2E41"/>
<path d="M150.975 19.0224C154.2 19.0224 156.814 16.4131 156.814 13.1944C156.814 9.97564 154.2 7.36633 150.975 7.36633C147.749 7.36633 145.135 9.97564 145.135 13.1944C145.135 16.4131 147.749 19.0224 150.975 19.0224Z" fill="#A0616A"/>
<path d="M162.317 90.7659L153.791 73.8651L145.798 55.5721L141.97 71.2094L141.384 89.8003C141.378 90.0567 141.278 90.3019 141.105 90.4907C140.931 90.6796 140.694 90.7992 140.439 90.8276C138.442 91.0605 135.066 91.2637 134.885 90.0087C132.393 72.7744 132.759 62.9758 133.505 57.7905C134.318 52.1436 135.713 50.6063 135.772 50.5436L135.812 50.5015L156.602 52.3987L156.681 52.406L162.268 70.4813L168.941 88.723C168.992 88.8631 169.013 89.0123 169.003 89.161C168.993 89.3097 168.952 89.4547 168.883 89.5866C168.813 89.7185 168.717 89.8344 168.599 89.9268C168.482 90.0193 168.347 90.0862 168.202 90.1234L163.539 91.32C163.453 91.342 163.365 91.3532 163.276 91.3531C163.078 91.353 162.883 91.2981 162.714 91.1944C162.544 91.0908 162.407 90.9425 162.317 90.7659Z" fill="#2F2E41"/>
<path d="M163.622 50.935L161.081 35.7192L161.707 31.952C162.24 28.747 161.761 25.456 160.338 22.5343L156.828 39.139L161.315 51.612C160.958 51.9914 160.735 52.4778 160.682 52.996C160.629 53.5141 160.749 54.0353 161.022 54.479C161.295 54.9227 161.707 55.2644 162.194 55.4512C162.681 55.638 163.217 55.6596 163.717 55.5127C164.218 55.3658 164.656 55.0585 164.965 54.6383C165.273 54.218 165.434 53.7082 165.423 53.1875C165.413 52.6667 165.23 52.164 164.905 51.757C164.579 51.3499 164.128 51.061 163.622 50.935Z" fill="#A0616A"/>
<path d="M138.184 35.821L130.58 49.2509C130.061 49.1961 129.537 49.3135 129.091 49.5849C128.645 49.8564 128.301 50.2668 128.112 50.7528C127.923 51.2389 127.9 51.7735 128.046 52.2741C128.191 52.7748 128.498 53.2136 128.919 53.523C129.339 53.8323 129.85 53.9948 130.372 53.9856C130.895 53.9763 131.399 53.7957 131.809 53.4716C132.218 53.1476 132.509 52.6981 132.637 52.1926C132.765 51.6871 132.722 51.1537 132.516 50.6747L141.008 40.4864L143.403 23.6855C141.064 25.9449 139.486 28.8738 138.887 32.0673L138.184 35.821Z" fill="#A0616A"/>
<path d="M155.326 54.001L136.361 51.9342C136.099 51.9056 135.847 51.8159 135.626 51.6723C135.405 51.5287 135.221 51.3352 135.088 51.1074C134.956 50.8797 134.879 50.6241 134.864 50.3612C134.849 50.0984 134.896 49.8357 135.002 49.5945L138.228 42.2156C139.126 40.1598 139.772 38.0028 140.15 35.7919L140.488 33.8107C140.752 32.1817 140.784 30.5236 140.583 28.8856C140.5 28.0478 140.538 27.2025 140.693 26.3751C140.84 25.5484 141.222 24.7811 141.793 24.165C142.364 23.5488 143.102 23.1098 143.916 22.9002L147.37 22.0088L147.464 21.7518C147.547 21.5238 147.697 21.3259 147.894 21.1835C148.091 21.0412 148.326 20.961 148.569 20.9533C148.742 20.9458 148.915 20.9768 149.075 21.044L150.697 21.7086L154.24 19.9883C154.353 19.9332 154.474 19.8944 154.598 19.8732C154.909 19.8194 155.228 19.8773 155.5 20.0365C155.772 20.1957 155.978 20.446 156.083 20.7428L156.119 20.8449L159.293 20.882C160.016 20.8911 160.71 21.1635 161.246 21.6478C161.781 22.1321 162.121 22.7951 162.201 23.5119L162.434 25.6233L158.197 39.2575C157.037 43.0088 156.749 46.9749 157.357 50.8539L157.495 51.7309C157.539 52.0123 157.522 52.3 157.445 52.5742C157.367 52.8483 157.231 53.1026 157.046 53.3193C156.861 53.5361 156.631 53.7104 156.372 53.8301C156.113 53.9498 155.831 54.0122 155.545 54.0129C155.472 54.0129 155.399 54.0089 155.326 54.001Z" fill="#1A1187"/>
<path d="M159.204 24.3103L161.328 24L161.976 24.7593C162.32 25.163 162.519 25.6695 162.542 26.1987L162.845 33.4898C162.862 33.8867 162.778 34.2815 162.601 34.6372C162.424 34.993 162.159 35.298 161.832 35.5238L155.642 39.8137L159.204 24.3103Z" fill="#1A1187"/>
<path d="M138.35 35.2448C138.106 34.9303 137.947 34.5593 137.887 34.1666C137.826 33.7739 137.867 33.3724 138.005 32.9996L140.515 26.1457C140.698 25.6485 141.041 25.2264 141.492 24.946L142.34 24.4194L144.27 25.3597L142.939 41.2099L138.35 35.2448Z" fill="#1A1187"/>
<path d="M153.149 10.7989C151.518 12.2721 149.192 13.1214 147.07 12.5433C144.948 11.9652 143.281 9.70451 143.79 7.56868C144.299 5.43286 147.308 4.22557 148.938 5.69907C151.885 3.37333 156.623 3.77514 159.134 6.56374C161.645 9.35233 161.541 14.0968 158.91 16.7732C157.356 18.3544 154.442 18.2693 152.983 16.6C151.524 14.9307 151.835 12.0379 153.149 10.7989Z" fill="#2F2E41"/>
<path d="M198.762 98H108.173C108.11 98 108.049 97.975 108.004 97.9305C107.96 97.886 107.935 97.8256 107.935 97.7627C107.935 97.6997 107.96 97.6394 108.004 97.5949C108.049 97.5504 108.11 97.5254 108.173 97.5254H198.762C198.825 97.5254 198.886 97.5504 198.931 97.5949C198.975 97.6394 199 97.6997 199 97.7627C199 97.8256 198.975 97.886 198.931 97.9305C198.886 97.975 198.825 98 198.762 98Z" fill="#CCCCCC"/>
<path d="M98.8994 85.1865H8.30955C8.24649 85.1865 8.18601 85.1615 8.14142 85.117C8.09683 85.0725 8.07178 85.0121 8.07178 84.9492C8.07178 84.8863 8.09683 84.8259 8.14142 84.7814C8.18601 84.7369 8.24649 84.7119 8.30955 84.7119H98.8994C98.9624 84.7119 99.0229 84.7369 99.0675 84.7814C99.1121 84.8259 99.1371 84.8863 99.1371 84.9492C99.1371 85.0121 99.1121 85.0725 99.0675 85.117C99.0229 85.1615 98.9624 85.1865 98.8994 85.1865Z" fill="#CCCCCC"/>
</g>
<defs>
<clipPath id="clip0">
<rect width="199" height="98" fill="white"/>
</clipPath>
</defs>
</svg>
