<svg width="535" height="241" viewBox="0 0 535 241" fill="none" xmlns="http://www.w3.org/2000/svg">
<g clip-path="url(#clip0)">
<path d="M44.0193 220.148C46.0909 220.877 48.315 221.06 50.4775 220.678C52.64 220.297 54.6679 219.365 56.366 217.971C60.6904 214.338 62.0479 208.353 63.1494 202.811L66.4123 186.418L59.581 191.127C54.6681 194.513 49.645 198.007 46.2432 202.912C42.8413 207.816 41.3567 214.511 44.0897 219.818" fill="#E6E6E6"/>
<path d="M44.6034 239.995C43.912 234.953 43.2009 229.848 43.6858 224.753C44.1168 220.228 45.4956 215.808 48.3039 212.184C49.7945 210.264 51.6082 208.619 53.6635 207.323C54.1996 206.985 54.6924 207.835 54.1591 208.171C50.603 210.421 47.8524 213.743 46.304 217.658C44.5938 222.011 44.3193 226.758 44.6163 231.382C44.7947 234.179 45.1721 236.957 45.553 239.733C45.5837 239.858 45.5652 239.991 45.5014 240.103C45.4376 240.216 45.3333 240.3 45.2098 240.338C45.0842 240.372 44.9503 240.354 44.8372 240.29C44.7241 240.226 44.6408 240.119 44.6056 239.994L44.6034 239.995Z" fill="#F2F2F2"/>
<path d="M507.616 213.734C505.409 214.51 503.04 214.705 500.736 214.299C498.432 213.893 496.271 212.899 494.462 211.415C489.855 207.544 488.41 201.169 487.235 195.264L483.759 177.799L491.037 182.816C496.271 186.423 501.623 190.146 505.247 195.371C508.871 200.596 510.452 207.729 507.541 213.383" fill="#E6E6E6"/>
<path d="M506.493 236.094C507.409 229.414 508.351 222.648 507.707 215.896C507.136 209.899 505.308 204.043 501.587 199.24C499.612 196.696 497.209 194.516 494.485 192.798C493.775 192.35 493.121 193.476 493.828 193.923C498.541 196.904 502.186 201.306 504.238 206.494C506.505 212.263 506.869 218.553 506.478 224.682C506.242 228.388 505.741 232.07 505.237 235.748C505.198 235.914 505.222 236.089 505.307 236.238C505.391 236.387 505.529 236.498 505.692 236.549C505.858 236.593 506.036 236.571 506.185 236.486C506.335 236.4 506.445 236.26 506.492 236.094L506.493 236.094Z" fill="#F2F2F2"/>
<path d="M499.899 225.375C498.952 226.816 497.651 227.988 496.121 228.778C494.591 229.569 492.882 229.952 491.161 229.89C486.737 229.68 483.05 226.591 479.732 223.657L469.914 214.981L476.411 214.669C481.084 214.445 485.877 214.235 490.328 215.679C494.779 217.123 498.883 220.593 499.697 225.204" fill="#E6E6E6"/>
<path d="M509.082 239.935C504.672 232.124 499.556 223.443 490.416 220.668C487.874 219.9 485.209 219.624 482.565 219.857C481.731 219.929 481.939 221.215 482.771 221.143C487.205 220.775 491.629 221.947 495.301 224.461C498.833 226.868 501.584 230.214 503.912 233.763C505.338 235.936 506.616 238.202 507.893 240.465C508.301 241.188 509.495 240.666 509.082 239.935Z" fill="#F2F2F2"/>
<path d="M383.896 145.426H162.807V98.1274H383.896V145.426Z" fill="white"/>
<path d="M191.456 133.792C198.085 133.792 203.46 128.413 203.46 121.777C203.46 115.141 198.085 109.762 191.456 109.762C184.826 109.762 179.451 115.141 179.451 121.777C179.451 128.413 184.826 133.792 191.456 133.792Z" fill="#D7AB25"/>
<path d="M219.18 113.767C218.649 113.767 218.14 113.978 217.765 114.353C217.39 114.729 217.179 115.238 217.179 115.769C217.179 116.3 217.39 116.81 217.765 117.185C218.14 117.561 218.649 117.772 219.18 117.772H365.255C365.785 117.771 366.293 117.559 366.667 117.184C367.041 116.808 367.251 116.3 367.251 115.769C367.251 115.239 367.041 114.73 366.667 114.355C366.293 113.98 365.785 113.768 365.255 113.767H219.18Z" fill="#D7AB25"/>
<path d="M219.18 125.782C218.649 125.781 218.14 125.991 217.764 126.366C217.388 126.74 217.176 127.249 217.175 127.78C217.174 128.312 217.384 128.821 217.758 129.198C218.132 129.574 218.641 129.786 219.171 129.787H311.522C311.785 129.788 312.045 129.736 312.289 129.636C312.532 129.535 312.753 129.388 312.939 129.202C313.125 129.016 313.273 128.795 313.373 128.552C313.474 128.309 313.526 128.048 313.526 127.785C313.526 127.521 313.474 127.261 313.373 127.018C313.273 126.774 313.125 126.553 312.939 126.367C312.753 126.181 312.532 126.034 312.289 125.934C312.045 125.833 311.785 125.782 311.522 125.782H219.18Z" fill="#D7AB25"/>
<path d="M383.896 145.426H162.807V98.1274H383.896V145.426ZM166.183 142.048H380.52V101.506H166.183V142.048Z" fill="#CCCCCC"/>
<path d="M446.156 133.678C445.941 133.045 445.868 132.373 445.941 131.709C446.013 131.046 446.231 130.406 446.577 129.835C446.924 129.264 447.391 128.776 447.947 128.406C448.502 128.036 449.132 127.792 449.791 127.691L452.294 117.556L458.819 117.575L455.084 131.839C455.179 132.96 454.86 134.076 454.188 134.977C453.515 135.878 452.536 136.501 451.436 136.727C450.335 136.954 449.19 136.769 448.217 136.207C447.244 135.645 446.51 134.745 446.156 133.678Z" fill="#FFB7B7"/>
<path d="M457.172 127.119L447.179 126.426L452.019 97.5576L448.939 65.7708L459.04 61.6252L465.777 96.9247L465.758 96.989L457.172 127.119Z" fill="#3F3D56"/>
<path d="M379.905 123.735C379.893 123.067 380.028 122.405 380.3 121.795C380.572 121.185 380.974 120.642 381.478 120.204C381.982 119.767 382.576 119.445 383.218 119.262C383.859 119.079 384.533 119.039 385.192 119.145L390.666 110.257L396.873 112.269L388.967 124.711C388.716 125.808 388.072 126.773 387.157 127.426C386.242 128.079 385.12 128.373 384.003 128.252C382.886 128.132 381.852 127.606 381.096 126.773C380.341 125.941 379.917 124.86 379.905 123.735Z" fill="#FFB7B7"/>
<path d="M410.721 234.865H405.406L402.877 214.342L410.723 214.342L410.721 234.865Z" fill="#FFB7B7"/>
<path d="M412.077 240.022L394.937 240.021V239.805C394.937 238.034 395.64 236.335 396.891 235.083C398.142 233.831 399.839 233.127 401.608 233.127H401.609L412.077 233.127L412.077 240.022Z" fill="#2F2E41"/>
<path d="M447.806 234.865H442.49L439.961 214.342L447.807 214.342L447.806 234.865Z" fill="#FFB7B7"/>
<path d="M449.161 240.022L432.021 240.021V239.805C432.021 238.034 432.724 236.335 433.975 235.083C435.226 233.831 436.923 233.127 438.693 233.127H438.693L449.162 233.127L449.161 240.022Z" fill="#2F2E41"/>
<path d="M442.751 42.1487C449.725 42.1487 455.379 36.4894 455.379 29.5084C455.379 22.5274 449.725 16.8681 442.751 16.8681C435.776 16.8681 430.122 22.5274 430.122 29.5084C430.122 36.4894 435.776 42.1487 442.751 42.1487Z" fill="#FFB8B8"/>
<path d="M438.485 28.8151C436.598 29.6052 434.485 29.6638 432.557 28.9794C430.629 28.2951 429.025 26.9169 428.057 25.1134C427.089 23.3099 426.827 21.2102 427.321 19.2236C427.815 17.2369 429.031 15.5056 430.731 14.367C434.092 12.1155 439.112 12.8607 442.37 15.4719C444.567 14.4717 447.025 14.1971 449.388 14.688C451.751 15.1788 453.897 16.4096 455.515 18.2022C458.661 21.8444 459.004 27.6258 456.712 31.8717C455.71 34.0851 455.265 36.5109 455.416 38.9365C455.568 41.362 456.312 43.7132 457.583 45.7842C456.596 45.7439 454.426 45.5611 451.709 45.3265C450.923 45.2586 450.583 42.9476 449.721 42.8732C448.961 42.8077 447.686 44.9793 446.889 44.9119C440.99 44.413 434.385 43.9061 431.392 44.0053C433.648 38.7206 435.903 33.4358 438.485 28.8151Z" fill="#2F2E41"/>
<path d="M452.435 118.557C452.435 118.557 456.54 122.793 454.034 144.663L452.302 191.103L449.239 232.223L439.383 231.567L430.726 136.923L418.606 171.556L412.08 228.812L402.623 228.156L401.009 171.219L405.154 127.216L452.435 118.557Z" fill="#2F2E41"/>
<path d="M411.814 129.865C406.771 129.865 404.74 129.258 404.592 129.211L404.358 129.138L404.399 128.896C404.433 128.697 407.821 108.926 412.469 98.5465L415.738 56.4529C415.831 55.2023 416.345 54.0203 417.196 53.0995C418.047 52.1787 419.184 51.5734 420.422 51.3822L420.466 51.6604L420.422 51.3822L428.737 50.0756L433.823 45.593L446.007 46.2674L447.082 51.4262C448.539 51.8339 458.155 54.7838 459.107 61.8476L459.119 61.9361L459.078 62.0151L441.46 95.9376C442.949 97.4083 454.715 109.506 455.513 124.971L455.532 125.343L455.17 125.26C455.136 125.253 451.371 124.537 431.572 127.887C422.415 129.436 416.051 129.865 411.814 129.865Z" fill="#3F3D56"/>
<path d="M392.283 123.53L385.102 117.995L401.13 85.8989L416.037 54.4415C416.245 54.002 416.583 53.6367 417.004 53.3947C417.426 53.1528 417.912 53.0457 418.396 53.088C418.88 53.1303 419.34 53.3198 419.713 53.6311C420.087 53.9425 420.356 54.3607 420.485 54.8298L424.175 68.2278L412.636 98.2752L392.283 123.53Z" fill="#3F3D56"/>
<path d="M534.437 241H320.1C319.951 241 319.808 240.941 319.702 240.835C319.597 240.729 319.537 240.586 319.537 240.437C319.537 240.288 319.597 240.144 319.702 240.039C319.808 239.933 319.951 239.874 320.1 239.874H534.437C534.587 239.874 534.73 239.933 534.835 240.039C534.941 240.144 535 240.288 535 240.437C535 240.586 534.941 240.729 534.835 240.835C534.73 240.941 534.587 241 534.437 241Z" fill="#CBCBCB"/>
<path d="M287.382 70.9486H257.004V40.5421H272.193V41.6682H258.129V69.8224H286.257V55.7453H287.382V70.9486Z" fill="#3F3D56"/>
<path d="M271.623 61.9663L264.243 53.4846L265.516 52.3753L271.638 59.411L288.44 40.5432L289.699 41.6671L271.623 61.9663Z" fill="#D7AB25"/>
<path d="M98.8441 37.8616L99.5544 34.3071C99.5544 34.3071 110.001 30.7526 111.17 37.8616H98.8441Z" fill="#E6E6E6"/>
<path d="M118.894 233.58H125.743L129.001 207.138H118.893L118.894 233.58Z" fill="#9F616A"/>
<path d="M117.147 231.342L130.635 231.341H130.635C132.915 231.341 135.101 232.248 136.713 233.861C138.325 235.474 139.231 237.663 139.231 239.944V240.224L117.147 240.225L117.147 231.342Z" fill="#2F2E41"/>
<path d="M85.878 233.58H92.7266L95.985 207.138H85.8768L85.878 233.58Z" fill="#9F616A"/>
<path d="M84.1307 231.342L97.6186 231.341H97.6192C99.8988 231.341 102.085 232.248 103.697 233.861C105.309 235.474 106.215 237.663 106.215 239.944V240.224L84.1312 240.225L84.1307 231.342Z" fill="#2F2E41"/>
<path d="M88.9006 52.7908L81.0877 52.0796L76.1163 75.5394L76.8263 96.8667L84.6392 125.303L95.2931 118.905L89.6112 89.7578L88.9006 52.7908Z" fill="#3F3D56"/>
<path d="M83.9556 122.815L85.7046 137.744L87.3467 172.579L83.5736 224.488L97.0684 223.763L103.683 169.734L107.722 144.853L113.404 173.289L116.956 226.607L130.806 225.496V173.102L131.16 134.9L126.189 119.971L83.9556 122.815Z" fill="#2F2E41"/>
<path d="M113.049 38.5727C113.049 38.5727 108.077 31.4636 98.8442 36.4399L94.5827 42.1272L81.0879 52.0799L83.929 85.4924L80.3777 127.436L130.806 126.725L122.283 84.7815V39.9945L113.049 38.5727Z" fill="#3F3D56"/>
<path opacity="0.25" d="M85.7046 63.8796L81.6322 112.617L86.7701 86.2031L85.7046 63.8796Z" fill="black"/>
<path d="M170.473 104.744C169.748 104.99 168.978 105.075 168.216 104.991C167.455 104.907 166.722 104.658 166.067 104.259C165.413 103.861 164.853 103.324 164.429 102.687C164.004 102.049 163.724 101.325 163.609 100.568L151.988 97.6929L152.011 90.1983L168.365 94.4886C169.65 94.3792 170.93 94.7454 171.963 95.5177C172.996 96.29 173.71 97.4148 173.97 98.6789C174.23 99.943 174.017 101.259 173.373 102.376C172.728 103.494 171.697 104.336 170.473 104.744H170.473Z" fill="#9F616A"/>
<path d="M158.321 90.1086L156.367 101.314L161.265 102.169L163.219 90.9643L158.321 90.1086Z" fill="#E6E6E6"/>
<path d="M105.145 30.3611C113.022 30.3611 119.407 23.9697 119.407 16.0855C119.407 8.20128 113.022 1.80988 105.145 1.80988C97.2681 1.80988 90.8826 8.20128 90.8826 16.0855C90.8826 23.9697 97.2681 30.3611 105.145 30.3611Z" fill="#9F616A"/>
<path d="M106.21 28.6782C102.721 29.5167 99.0448 29.0273 95.8958 27.3049C92.7467 25.5826 90.3495 22.7503 89.1698 19.3581C87.9901 15.9659 88.1121 12.2559 89.512 8.94866C90.9119 5.64141 93.4899 2.97295 96.7452 1.46151C99.2521 0.341616 101.994 -0.150818 104.733 0.0267158C108.999 0.251184 113.145 1.82917 117.414 1.71289L118.033 2.70861L120.366 2.14243L120.865 3.99589L121.48 3.97461C122.58 6.02161 120.81 8.95223 118.487 8.92743C117.574 8.82205 116.674 8.62573 115.799 8.34138C114.9 8.14855 113.842 8.19661 113.222 8.87627C112.416 9.75953 112.767 11.1379 112.935 12.322C113.103 13.5062 112.683 15.1012 111.489 15.1399C110.879 15.1596 110.298 14.7217 109.699 14.8368C109.001 14.9709 108.648 15.8148 108.75 16.5191C108.923 17.2102 109.205 17.8692 109.585 18.4712C110.393 20.2336 110.521 22.2325 109.946 24.084C109.371 25.9355 108.132 27.509 106.469 28.5023" fill="#2F2E41"/>
<path d="M118.893 42.7411L122.283 39.9943C122.283 39.9943 129.124 39.5182 129.001 46.7779L139.948 81.0537L160.95 88.5003L158.12 103.135L128.406 91.8049L113.313 66.7655L118.893 42.7411Z" fill="#3F3D56"/>
<path d="M214.9 241H0.562566C0.413364 241 0.270273 240.941 0.164771 240.835C0.0592697 240.729 0 240.586 0 240.437C0 240.288 0.0592697 240.144 0.164771 240.039C0.270273 239.933 0.413364 239.874 0.562566 239.874H214.9C215.049 239.874 215.192 239.933 215.298 240.039C215.403 240.144 215.463 240.288 215.463 240.437C215.463 240.586 215.403 240.729 215.298 240.835C215.192 240.941 215.049 241 214.9 241Z" fill="#CBCBCB"/>
</g>
<defs>
<clipPath id="clip0">
<rect width="535" height="241" fill="white"/>
</clipPath>
</defs>
</svg>
