<svg width="496" height="358" viewBox="0 0 496 358" fill="none" xmlns="http://www.w3.org/2000/svg">
<g clip-path="url(#clip0_4871_114)">
<path d="M495.283 355.255H0.716763C0.526666 355.255 0.344354 355.179 0.209934 355.045C0.0755153 354.911 0 354.728 0 354.538C0 354.349 0.0755153 354.166 0.209934 354.032C0.344354 353.898 0.526666 353.822 0.716763 353.822H495.283C495.473 353.822 495.656 353.898 495.79 354.032C495.924 354.166 496 354.349 496 354.538C496 354.728 495.924 354.911 495.79 355.045C495.656 355.179 495.473 355.255 495.283 355.255Z" fill="#CCCCCC"/>
<path d="M446.331 230.352H155.325C154.089 230.352 152.904 230.843 152.031 231.716C151.157 232.589 150.666 233.773 150.666 235.007C150.666 236.242 151.157 237.426 152.031 238.299C152.904 239.172 154.089 239.662 155.325 239.662H163.568V351.028C163.568 352.262 164.059 353.446 164.932 354.319C165.806 355.192 166.991 355.683 168.227 355.683C169.462 355.683 170.647 355.192 171.521 354.319C172.395 353.446 172.886 352.262 172.886 351.028L172.956 239.662H428.053V351.028C428.053 352.262 428.544 353.446 429.418 354.319C430.292 355.192 431.477 355.683 432.712 355.683C433.948 355.683 435.133 355.192 436.007 354.319C436.88 353.446 437.371 352.262 437.371 351.028V242.117L438.727 239.662H446.331C447.566 239.662 448.751 239.172 449.625 238.299C450.499 237.426 450.99 236.242 450.99 235.007C450.99 233.773 450.499 232.589 449.625 231.716C448.751 230.843 447.566 230.352 446.331 230.352V230.352Z" fill="#2D3B5A"/>
<path d="M316.661 232.788H228.512C226.805 232.787 225.169 232.108 223.962 230.902C222.755 229.696 222.076 228.061 222.074 226.356V177.864C222.076 176.159 222.755 174.524 223.962 173.318C225.169 172.112 226.805 171.434 228.512 171.432H316.661C318.368 171.434 320.004 172.112 321.211 173.318C322.418 174.524 323.097 176.159 323.099 177.864V226.356C323.097 228.061 322.418 229.696 321.211 230.902C320.004 232.108 318.368 232.787 316.661 232.788V232.788Z" fill="#3F3D56"/>
<path d="M316.661 176.382H228.513C228.12 176.383 227.743 176.54 227.465 176.817C227.187 177.095 227.03 177.472 227.029 177.865V226.357C227.03 226.75 227.187 227.127 227.465 227.404C227.743 227.682 228.12 227.839 228.513 227.84H316.661C317.054 227.839 317.431 227.682 317.709 227.404C317.987 227.127 318.143 226.75 318.144 226.357V177.865C318.143 177.472 317.987 177.095 317.709 176.817C317.431 176.54 317.054 176.383 316.661 176.382V176.382Z" fill="#2D3B5A"/>
<path d="M280.105 210.714C280.105 210.714 269.553 208.284 263.749 212.739C257.945 217.193 271.136 227.316 271.136 227.316L280.105 210.714Z" fill="white"/>
<path d="M273.104 206.124C278.601 206.124 283.058 201.671 283.058 196.178C283.058 190.685 278.601 186.232 273.104 186.232C267.607 186.232 263.15 190.685 263.15 196.178C263.15 201.671 267.607 206.124 273.104 206.124Z" fill="#A0616A"/>
<path d="M265.408 182.217C266.071 181.091 267.034 180.171 268.188 179.557C269.342 178.944 270.644 178.661 271.949 178.74C273.314 178.911 274.647 179.283 275.902 179.845L282.409 182.381C284.093 183.038 285.937 183.842 286.668 185.493C287.346 187.026 286.84 188.797 286.328 190.393L283.893 197.979C283.624 196.262 283.161 194.581 282.514 192.968C281.856 191.344 280.668 189.99 279.142 189.126C277.452 188.26 275.46 188.278 273.562 188.369C270.875 188.498 267.953 188.84 266.044 190.734C265.03 191.809 264.343 193.15 264.062 194.601C263.786 196.043 263.647 197.509 263.647 198.978C262.545 197.085 261.617 195.097 260.873 193.037C260.262 191.503 259.914 189.877 259.843 188.228C259.779 186.564 260.331 184.936 261.394 183.654C261.934 183.027 262.638 182.564 263.427 182.316C264.216 182.067 265.059 182.044 265.86 182.249L265.408 182.217Z" fill="white"/>
<path d="M296.871 219.338C296.778 219.002 296.587 218.702 296.323 218.473C296.059 218.245 295.734 218.1 295.388 218.056C295.365 218.04 295.341 218.026 295.316 218.013L280.456 209.693C280.032 209.455 279.533 209.39 279.062 209.511C278.59 209.632 278.184 209.93 277.928 210.343L273.864 216.918L267.742 210.801L267.645 210.704C267.331 210.39 266.916 210.197 266.474 210.158C266.031 210.12 265.589 210.238 265.225 210.493L253.013 219.038C252.991 219.038 252.97 219.045 252.948 219.045C252.364 219.142 251.83 219.436 251.435 219.877C251.04 220.319 250.808 220.881 250.776 221.473L250.461 227.839H299.23L296.871 219.338Z" fill="white"/>
<path d="M324.089 226.85H314.68C314.68 226.588 314.576 226.336 314.39 226.151C314.204 225.965 313.952 225.861 313.69 225.861H310.718C310.456 225.861 310.204 225.965 310.018 226.151C309.832 226.336 309.728 226.588 309.728 226.85H306.757C306.757 226.588 306.652 226.336 306.467 226.151C306.281 225.965 306.029 225.861 305.766 225.861H302.795C302.532 225.861 302.28 225.965 302.095 226.151C301.909 226.336 301.804 226.588 301.804 226.85H298.833C298.833 226.588 298.729 226.336 298.543 226.151C298.357 225.965 298.105 225.861 297.843 225.861H294.871C294.609 225.861 294.357 225.965 294.171 226.151C293.985 226.336 293.881 226.588 293.881 226.85H290.91C290.91 226.588 290.805 226.336 290.62 226.151C290.434 225.965 290.182 225.861 289.919 225.861H286.948C286.685 225.861 286.433 225.965 286.248 226.151C286.062 226.336 285.957 226.588 285.957 226.85H282.986C282.986 226.588 282.882 226.336 282.696 226.151C282.51 225.965 282.258 225.861 281.996 225.861H279.024C278.762 225.861 278.51 225.965 278.324 226.151C278.138 226.336 278.034 226.588 278.034 226.85H275.063C275.063 226.588 274.958 226.336 274.773 226.151C274.587 225.965 274.335 225.861 274.072 225.861H271.101C270.838 225.861 270.586 225.965 270.401 226.151C270.215 226.336 270.11 226.588 270.11 226.85H267.139C267.139 226.588 267.035 226.336 266.849 226.151C266.663 225.965 266.411 225.861 266.149 225.861H263.177C262.915 225.861 262.663 225.965 262.477 226.151C262.291 226.336 262.187 226.588 262.187 226.85H259.216C259.216 226.588 259.111 226.336 258.926 226.151C258.74 225.965 258.488 225.861 258.225 225.861H255.254C254.991 225.861 254.739 225.965 254.554 226.151C254.368 226.336 254.264 226.588 254.263 226.85H251.292C251.292 226.588 251.188 226.336 251.002 226.151C250.816 225.965 250.564 225.861 250.302 225.861H247.33C247.068 225.861 246.816 225.965 246.63 226.151C246.444 226.336 246.34 226.588 246.34 226.85H243.369C243.369 226.588 243.264 226.336 243.079 226.151C242.893 225.965 242.641 225.861 242.378 225.861H239.407C239.144 225.861 238.892 225.965 238.707 226.151C238.521 226.336 238.417 226.588 238.417 226.85H235.445C235.445 226.588 235.341 226.336 235.155 226.151C234.969 225.965 234.718 225.861 234.455 225.861H231.483C231.221 225.861 230.969 225.965 230.783 226.151C230.597 226.336 230.493 226.588 230.493 226.85H221.084C220.297 226.852 219.542 227.165 218.986 227.722C218.43 228.278 218.117 229.033 218.117 229.819C218.117 230.606 218.43 231.36 218.986 231.917C219.542 232.474 220.297 232.787 221.084 232.788H324.089C324.877 232.788 325.633 232.475 326.19 231.919C326.748 231.362 327.061 230.607 327.061 229.819C327.061 229.032 326.748 228.277 326.19 227.72C325.633 227.163 324.877 226.85 324.089 226.85V226.85Z" fill="#3F3D56"/>
<path d="M205.769 209.609V229.323H156.339C155.015 229.369 153.695 229.148 152.458 228.673C151.22 228.199 150.092 227.48 149.138 226.56C148.185 225.64 147.427 224.538 146.91 223.319C146.392 222.101 146.125 220.79 146.125 219.466C146.125 218.142 146.392 216.832 146.91 215.613C147.427 214.394 148.185 213.292 149.138 212.372C150.092 211.452 151.22 210.734 152.458 210.259C153.695 209.784 155.015 209.563 156.339 209.609H205.769Z" fill="#F2F2F2"/>
<path d="M206.983 229.171C206.982 229.372 206.902 229.565 206.76 229.707C206.618 229.849 206.425 229.929 206.224 229.929H155.458C152.701 229.929 150.057 228.835 148.107 226.887C146.158 224.939 145.062 222.297 145.062 219.542C145.062 216.787 146.158 214.145 148.107 212.197C150.057 210.249 152.701 209.154 155.458 209.154H206.224C206.425 209.154 206.618 209.234 206.76 209.376C206.903 209.519 206.983 209.711 206.983 209.913C206.983 210.114 206.903 210.306 206.76 210.449C206.618 210.591 206.425 210.671 206.224 210.671H155.458C153.105 210.673 150.849 211.608 149.186 213.272C147.522 214.935 146.588 217.19 146.588 219.542C146.588 221.893 147.522 224.148 149.186 225.812C150.849 227.475 153.105 228.411 155.458 228.413H206.224C206.425 228.413 206.618 228.493 206.76 228.635C206.902 228.777 206.982 228.97 206.983 229.171V229.171Z" fill="#2D3B5A"/>
<path d="M205.769 214.159H152.651C152.631 214.159 152.611 214.155 152.592 214.148C152.574 214.14 152.557 214.129 152.543 214.115C152.529 214.101 152.517 214.084 152.51 214.065C152.502 214.047 152.498 214.027 152.498 214.007C152.498 213.987 152.502 213.967 152.51 213.949C152.517 213.93 152.529 213.914 152.543 213.9C152.557 213.885 152.574 213.874 152.592 213.867C152.611 213.859 152.631 213.855 152.651 213.855H205.769C205.809 213.856 205.847 213.872 205.875 213.9C205.903 213.929 205.919 213.967 205.919 214.007C205.919 214.047 205.903 214.086 205.875 214.114C205.847 214.142 205.809 214.158 205.769 214.159V214.159Z" fill="#CCCCCC"/>
<path d="M205.769 217.798H152.651C152.631 217.798 152.611 217.794 152.592 217.787C152.574 217.779 152.557 217.768 152.543 217.754C152.529 217.74 152.517 217.723 152.51 217.705C152.502 217.686 152.498 217.666 152.498 217.646C152.498 217.626 152.502 217.606 152.51 217.588C152.517 217.57 152.529 217.553 152.543 217.539C152.557 217.525 152.574 217.513 152.592 217.506C152.611 217.498 152.631 217.494 152.651 217.495H205.769C205.809 217.495 205.847 217.511 205.875 217.539C205.903 217.568 205.919 217.606 205.919 217.646C205.919 217.686 205.903 217.725 205.875 217.753C205.847 217.782 205.809 217.798 205.769 217.798V217.798Z" fill="#CCCCCC"/>
<path d="M205.769 221.437H152.651C152.631 221.437 152.611 221.433 152.592 221.426C152.574 221.418 152.557 221.407 152.543 221.393C152.529 221.379 152.517 221.362 152.51 221.344C152.502 221.325 152.498 221.305 152.498 221.285C152.498 221.265 152.502 221.246 152.51 221.227C152.517 221.209 152.529 221.192 152.543 221.178C152.557 221.164 152.574 221.153 152.592 221.145C152.611 221.137 152.631 221.134 152.651 221.134H205.769C205.809 221.134 205.847 221.15 205.875 221.179C205.903 221.207 205.919 221.245 205.919 221.285C205.919 221.325 205.903 221.364 205.875 221.392C205.847 221.421 205.809 221.437 205.769 221.437V221.437Z" fill="#CCCCCC"/>
<path d="M205.769 225.077H152.651C152.631 225.077 152.611 225.073 152.592 225.065C152.574 225.058 152.557 225.047 152.543 225.033C152.529 225.019 152.517 225.002 152.51 224.983C152.502 224.965 152.498 224.945 152.498 224.925C152.498 224.905 152.502 224.885 152.51 224.867C152.517 224.848 152.529 224.832 152.543 224.818C152.557 224.803 152.574 224.792 152.592 224.785C152.611 224.777 152.631 224.773 152.651 224.773H205.769C205.809 224.774 205.847 224.79 205.875 224.818C205.903 224.847 205.919 224.885 205.919 224.925C205.919 224.965 205.903 225.004 205.875 225.032C205.847 225.06 205.809 225.076 205.769 225.077Z" fill="#CCCCCC"/>
<path d="M196.45 188.84V208.554H147.021C145.696 208.6 144.376 208.379 143.139 207.904C141.902 207.43 140.773 206.711 139.82 205.791C138.867 204.871 138.109 203.769 137.591 202.55C137.073 201.332 136.807 200.021 136.807 198.697C136.807 197.373 137.073 196.063 137.591 194.844C138.109 193.625 138.867 192.523 139.82 191.603C140.773 190.683 141.902 189.964 143.139 189.49C144.376 189.015 145.696 188.794 147.021 188.84H196.45Z" fill="#F2F2F2"/>
<path d="M197.664 208.402C197.664 208.603 197.584 208.796 197.442 208.938C197.3 209.08 197.107 209.16 196.905 209.16H146.14C144.775 209.16 143.423 208.891 142.162 208.369C140.9 207.847 139.754 207.082 138.789 206.118C137.824 205.153 137.058 204.008 136.535 202.748C136.013 201.487 135.744 200.137 135.744 198.773C135.744 197.409 136.013 196.058 136.535 194.798C137.058 193.537 137.824 192.392 138.789 191.428C139.754 190.463 140.9 189.698 142.162 189.176C143.423 188.654 144.775 188.385 146.14 188.385H196.905C197.107 188.385 197.3 188.465 197.442 188.607C197.584 188.75 197.664 188.942 197.664 189.143C197.664 189.345 197.584 189.537 197.442 189.68C197.3 189.822 197.107 189.902 196.905 189.902H146.14C143.787 189.904 141.531 190.839 139.867 192.503C138.204 194.166 137.27 196.421 137.27 198.773C137.27 201.124 138.204 203.379 139.867 205.043C141.531 206.706 143.787 207.641 146.14 207.644H196.905C197.107 207.644 197.3 207.724 197.442 207.866C197.584 208.008 197.664 208.201 197.664 208.402V208.402Z" fill="#2D3B5A"/>
<path d="M196.45 193.389H143.332C143.312 193.389 143.293 193.386 143.274 193.378C143.256 193.37 143.239 193.359 143.225 193.345C143.21 193.331 143.199 193.314 143.191 193.296C143.184 193.277 143.18 193.258 143.18 193.238C143.18 193.218 143.184 193.198 143.191 193.179C143.199 193.161 143.21 193.144 143.225 193.13C143.239 193.116 143.256 193.105 143.274 193.097C143.293 193.09 143.312 193.086 143.332 193.086H196.45C196.49 193.086 196.529 193.102 196.557 193.131C196.585 193.159 196.601 193.198 196.601 193.238C196.601 193.278 196.585 193.316 196.557 193.344C196.529 193.373 196.49 193.389 196.45 193.389V193.389Z" fill="#CCCCCC"/>
<path d="M196.45 197.029H143.332C143.312 197.029 143.293 197.025 143.274 197.018C143.256 197.01 143.239 196.999 143.225 196.985C143.21 196.971 143.199 196.954 143.191 196.935C143.184 196.917 143.18 196.897 143.18 196.877C143.18 196.857 143.184 196.837 143.191 196.819C143.199 196.8 143.21 196.784 143.225 196.77C143.239 196.756 143.256 196.744 143.274 196.737C143.293 196.729 143.312 196.725 143.332 196.726H196.45C196.49 196.726 196.529 196.742 196.557 196.77C196.585 196.799 196.601 196.837 196.601 196.877C196.601 196.917 196.585 196.956 196.557 196.984C196.529 197.012 196.49 197.029 196.45 197.029V197.029Z" fill="#CCCCCC"/>
<path d="M196.45 200.668H143.332C143.312 200.668 143.293 200.664 143.274 200.657C143.256 200.649 143.239 200.638 143.225 200.624C143.21 200.61 143.199 200.593 143.191 200.575C143.184 200.556 143.18 200.536 143.18 200.516C143.18 200.496 143.184 200.477 143.191 200.458C143.199 200.44 143.21 200.423 143.225 200.409C143.239 200.395 143.256 200.384 143.274 200.376C143.293 200.368 143.312 200.365 143.332 200.365H196.45C196.49 200.365 196.529 200.381 196.557 200.41C196.585 200.438 196.601 200.476 196.601 200.516C196.601 200.556 196.585 200.595 196.557 200.623C196.529 200.652 196.49 200.668 196.45 200.668V200.668Z" fill="#CCCCCC"/>
<path d="M196.45 204.308H143.332C143.312 204.308 143.293 204.304 143.274 204.296C143.256 204.289 143.239 204.278 143.225 204.264C143.21 204.25 143.199 204.233 143.191 204.214C143.184 204.196 143.18 204.176 143.18 204.156C143.18 204.136 143.184 204.116 143.191 204.098C143.199 204.079 143.21 204.063 143.225 204.048C143.239 204.034 143.256 204.023 143.274 204.016C143.293 204.008 143.312 204.004 143.332 204.004H196.45C196.49 204.005 196.529 204.021 196.557 204.049C196.585 204.078 196.601 204.116 196.601 204.156C196.601 204.196 196.585 204.234 196.557 204.263C196.529 204.291 196.49 204.307 196.45 204.308Z" fill="#CCCCCC"/>
<path d="M253.952 299.393V282.205C253.952 281.445 253.65 280.716 253.112 280.179C252.574 279.642 251.845 279.34 251.085 279.34H185.859C185.099 279.34 184.37 279.642 183.832 280.179C183.294 280.716 182.992 281.445 182.992 282.205V299.393H253.952Z" fill="#CCCCCC"/>
<path d="M253.952 305.838H182.992V328.04H253.952V305.838Z" fill="#CCCCCC"/>
<path d="M182.992 334.485V351.674C182.992 352.433 183.294 353.162 183.832 353.699C184.37 354.236 185.099 354.538 185.859 354.538H251.085C251.845 354.538 252.574 354.236 253.112 353.699C253.65 353.162 253.952 352.433 253.952 351.674V334.485H182.992Z" fill="#CCCCCC"/>
<path d="M218.113 292.231C219.301 292.231 220.263 291.269 220.263 290.082C220.263 288.896 219.301 287.934 218.113 287.934C216.926 287.934 215.963 288.896 215.963 290.082C215.963 291.269 216.926 292.231 218.113 292.231Z" fill="white"/>
<path d="M218.113 320.878C219.301 320.878 220.263 319.916 220.263 318.73C220.263 317.543 219.301 316.581 218.113 316.581C216.926 316.581 215.963 317.543 215.963 318.73C215.963 319.916 216.926 320.878 218.113 320.878Z" fill="white"/>
<path d="M218.228 348.919C219.416 348.919 220.379 347.957 220.379 346.77C220.379 345.584 219.416 344.622 218.228 344.622C217.041 344.622 216.078 345.584 216.078 346.77C216.078 347.957 217.041 348.919 218.228 348.919Z" fill="white"/>
<path d="M245.907 259.742V279.455H196.478C195.153 279.501 193.833 279.28 192.596 278.806C191.359 278.331 190.23 277.612 189.277 276.693C188.324 275.773 187.566 274.671 187.048 273.452C186.531 272.233 186.264 270.923 186.264 269.598C186.264 268.274 186.531 266.964 187.048 265.745C187.566 264.526 188.324 263.424 189.277 262.504C190.23 261.584 191.359 260.866 192.596 260.391C193.833 259.917 195.153 259.696 196.478 259.742H245.907Z" fill="#F2F2F2"/>
<path d="M247.12 279.303C247.12 279.504 247.04 279.697 246.898 279.839C246.755 279.981 246.562 280.061 246.361 280.061H195.596C194.23 280.063 192.877 279.795 191.615 279.273C190.353 278.752 189.206 277.987 188.239 277.022C187.273 276.057 186.507 274.912 185.984 273.651C185.461 272.39 185.191 271.039 185.191 269.674C185.191 268.309 185.461 266.958 185.984 265.697C186.507 264.436 187.273 263.291 188.239 262.326C189.206 261.361 190.353 260.596 191.615 260.075C192.877 259.553 194.23 259.285 195.596 259.287H246.361C246.562 259.287 246.755 259.366 246.898 259.509C247.04 259.651 247.12 259.844 247.12 260.045C247.12 260.246 247.04 260.439 246.898 260.581C246.755 260.723 246.562 260.803 246.361 260.803H195.596C193.243 260.805 190.986 261.741 189.323 263.404C187.66 265.067 186.726 267.323 186.726 269.674C186.726 272.025 187.66 274.28 189.323 275.944C190.986 277.607 193.243 278.543 195.596 278.545H246.361C246.562 278.545 246.755 278.625 246.898 278.767C247.04 278.909 247.12 279.102 247.12 279.303V279.303Z" fill="#3F3D56"/>
<path d="M245.907 264.291H192.79C192.77 264.291 192.75 264.287 192.731 264.28C192.713 264.272 192.696 264.261 192.682 264.247C192.667 264.233 192.656 264.216 192.648 264.198C192.641 264.179 192.637 264.159 192.637 264.139C192.637 264.119 192.641 264.1 192.648 264.081C192.656 264.063 192.667 264.046 192.682 264.032C192.696 264.018 192.713 264.007 192.731 263.999C192.75 263.991 192.77 263.988 192.79 263.988H245.907C245.947 263.988 245.986 264.004 246.014 264.033C246.042 264.061 246.058 264.099 246.058 264.139C246.058 264.179 246.042 264.218 246.014 264.246C245.986 264.275 245.947 264.291 245.907 264.291V264.291Z" fill="#CCCCCC"/>
<path d="M245.907 267.93H192.79C192.77 267.93 192.75 267.927 192.731 267.919C192.713 267.911 192.696 267.9 192.682 267.886C192.667 267.872 192.656 267.855 192.648 267.837C192.641 267.818 192.637 267.799 192.637 267.779C192.637 267.759 192.641 267.739 192.648 267.72C192.656 267.702 192.667 267.685 192.682 267.671C192.696 267.657 192.713 267.646 192.731 267.638C192.75 267.631 192.77 267.627 192.79 267.627H245.907C245.947 267.627 245.986 267.643 246.014 267.672C246.042 267.7 246.058 267.739 246.058 267.779C246.058 267.819 246.042 267.857 246.014 267.885C245.986 267.914 245.947 267.93 245.907 267.93V267.93Z" fill="#CCCCCC"/>
<path d="M245.907 271.57H192.79C192.77 271.57 192.75 271.566 192.731 271.559C192.713 271.551 192.696 271.54 192.682 271.526C192.667 271.512 192.656 271.495 192.648 271.477C192.641 271.458 192.637 271.438 192.637 271.418C192.637 271.398 192.641 271.378 192.648 271.36C192.656 271.342 192.667 271.325 192.682 271.311C192.696 271.297 192.713 271.285 192.731 271.278C192.75 271.27 192.77 271.266 192.79 271.267H245.907C245.947 271.267 245.986 271.283 246.014 271.311C246.042 271.34 246.058 271.378 246.058 271.418C246.058 271.458 246.042 271.497 246.014 271.525C245.986 271.554 245.947 271.57 245.907 271.57V271.57Z" fill="#CCCCCC"/>
<path d="M245.907 275.209H192.79C192.77 275.209 192.75 275.205 192.731 275.198C192.713 275.19 192.696 275.179 192.682 275.165C192.667 275.151 192.656 275.134 192.648 275.116C192.641 275.097 192.637 275.077 192.637 275.057C192.637 275.037 192.641 275.018 192.648 274.999C192.656 274.981 192.667 274.964 192.682 274.95C192.696 274.936 192.713 274.925 192.731 274.917C192.75 274.909 192.77 274.906 192.79 274.906H245.907C245.947 274.906 245.986 274.922 246.014 274.951C246.042 274.979 246.058 275.017 246.058 275.057C246.058 275.097 246.042 275.136 246.014 275.164C245.986 275.193 245.947 275.209 245.907 275.209V275.209Z" fill="#CCCCCC"/>
<path d="M179.27 131.076V5.38668C179.271 3.95854 179.84 2.58937 180.85 1.57952C181.861 0.569675 183.231 0.00162446 184.661 0H284.096C285.525 0.00163392 286.896 0.569688 287.906 1.57953C288.917 2.58937 289.486 3.95855 289.487 5.38668V131.076C289.486 132.504 288.917 133.873 287.906 134.883C286.896 135.893 285.525 136.461 284.096 136.462H184.661C183.231 136.461 181.861 135.893 180.85 134.883C179.84 133.873 179.271 132.504 179.27 131.076V131.076ZM184.661 1.19704C183.549 1.19828 182.483 1.64009 181.697 2.42553C180.911 3.21097 180.469 4.2759 180.468 5.38668V131.076C180.469 132.186 180.911 133.251 181.697 134.037C182.483 134.822 183.549 135.264 184.661 135.265H284.096C285.208 135.264 286.274 134.822 287.06 134.037C287.846 133.251 288.288 132.186 288.289 131.076V5.38668C288.288 4.2759 287.846 3.21097 287.06 2.42553C286.274 1.64009 285.208 1.19829 284.096 1.19704H184.661Z" fill="#E6E6E6"/>
<path d="M239.955 57.722V31.914C239.956 31.2 240.24 30.5154 240.745 30.0104C241.251 29.5055 241.936 29.2215 242.651 29.2207H264.538C265.253 29.2215 265.938 29.5055 266.444 30.0104C266.949 30.5154 267.233 31.2 267.234 31.914V57.722C267.233 58.436 266.949 59.1206 266.444 59.6256C265.938 60.1305 265.253 60.4145 264.538 60.4153H242.651C241.936 60.4145 241.251 60.1305 240.745 59.6256C240.24 59.1206 239.956 58.436 239.955 57.722V57.722Z" fill="#2D3B5A"/>
<path d="M197.426 69.6926V43.8847C197.427 43.1707 197.711 42.4861 198.216 41.9811C198.722 41.4762 199.407 41.1922 200.121 41.1914H222.009C222.724 41.1922 223.409 41.4762 223.914 41.9811C224.42 42.4861 224.704 43.1707 224.705 43.8847V69.6926C224.704 70.4067 224.42 71.0913 223.914 71.5963C223.409 72.1012 222.724 72.3852 222.009 72.386H200.121C199.407 72.3852 198.722 72.1012 198.216 71.5962C197.711 71.0913 197.427 70.4067 197.426 69.6926V69.6926Z" fill="#2D3B5A"/>
<path d="M231.568 106.202V80.3945C231.569 79.6804 231.853 78.9958 232.359 78.4909C232.864 77.986 233.549 77.702 234.264 77.7012H256.152C256.866 77.702 257.551 77.986 258.057 78.4909C258.562 78.9958 258.846 79.6804 258.847 80.3945V106.202C258.846 106.916 258.562 107.601 258.057 108.106C257.551 108.611 256.866 108.895 256.152 108.896H234.264C233.549 108.895 232.864 108.611 232.359 108.106C231.853 107.601 231.569 106.916 231.568 106.202V106.202Z" fill="white"/>
<path d="M362.37 224.194H339.849C339.635 224.194 339.424 224.243 339.233 224.338L333.549 227.181C333.362 227.26 333.202 227.393 333.09 227.562C332.978 227.732 332.918 227.93 332.918 228.133C332.918 228.336 332.978 228.535 333.09 228.704C333.202 228.874 333.362 229.006 333.549 229.086L339.233 231.929C339.424 232.023 339.635 232.072 339.849 232.072H362.37C362.68 232.09 362.985 231.985 363.218 231.78C363.452 231.575 363.595 231.286 363.617 230.977V225.29C363.595 224.98 363.452 224.692 363.218 224.486C362.985 224.281 362.68 224.176 362.37 224.194Z" fill="#3F3D56"/>
<path d="M363.617 225.29V230.976C363.595 231.286 363.452 231.575 363.218 231.78C362.985 231.985 362.68 232.09 362.37 232.072H357.883V224.194H362.37C362.68 224.176 362.985 224.281 363.218 224.486C363.452 224.691 363.595 224.98 363.617 225.29V225.29Z" fill="white"/>
<path d="M362.2 181.653C363.22 181.213 364.322 180.994 365.433 181.009C366.544 181.024 367.639 181.274 368.647 181.741C369.654 182.209 370.552 182.884 371.28 183.722C372.008 184.56 372.551 185.543 372.873 186.605C372.973 186.942 373.05 187.286 373.103 187.633L404.596 203.237L411.884 198.411L420.952 208.843L409.824 217.873C408.486 218.951 406.835 219.569 405.118 219.635C403.401 219.701 401.708 219.212 400.29 218.241L368.338 196.162C368.1 196.263 367.857 196.352 367.61 196.427C366.547 196.749 365.427 196.842 364.325 196.701C363.223 196.56 362.163 196.188 361.215 195.609C360.267 195.03 359.452 194.258 358.823 193.342C358.195 192.427 357.767 191.389 357.568 190.296C357.509 189.979 357.47 189.659 357.451 189.337C357.363 187.725 357.77 186.124 358.619 184.751C359.468 183.377 360.718 182.296 362.2 181.653V181.653Z" fill="#FFB8B8"/>
<path d="M427.794 277.728H393.383C393.383 278.716 357.917 279.518 357.917 279.518C357.361 279.937 356.853 280.417 356.405 280.95C355.058 282.556 354.322 284.585 354.326 286.68V288.112C354.327 290.486 355.271 292.763 356.951 294.441C358.631 296.12 360.91 297.063 363.286 297.064H427.794C430.17 297.062 432.448 296.118 434.127 294.44C435.807 292.762 436.752 290.486 436.754 288.112V286.68C436.751 284.306 435.806 282.031 434.126 280.353C432.447 278.675 430.17 277.731 427.794 277.728V277.728Z" fill="#2D3B5A"/>
<path d="M390.362 356.867H399.68V296.708H390.362V356.867Z" fill="#2D3B5A"/>
<path d="M363.842 356.54C363.842 357.546 377.962 356.929 395.379 356.929C412.797 356.929 426.917 357.546 426.917 356.54C426.917 355.534 412.797 347.557 395.379 347.557C377.962 347.557 363.842 355.534 363.842 356.54Z" fill="#2D3B5A"/>
<path d="M372.253 349.489L363.466 349.489L359.285 326.716L372.254 326.717L372.253 349.489Z" fill="#FFB8B8"/>
<path d="M374.494 358L346.16 357.999V357.641C346.16 356.194 346.445 354.761 347 353.424C347.554 352.087 348.366 350.872 349.39 349.849C350.414 348.826 351.63 348.014 352.968 347.46C354.306 346.907 355.74 346.622 357.189 346.622H357.189L374.495 346.622L374.494 358Z" fill="#2F2E41"/>
<path d="M359.109 335.368L341.591 296.116C340.128 292.808 339.967 289.07 341.138 285.648C342.309 282.226 344.728 279.37 347.912 277.65L385.91 257.291L403.249 255.817L419.244 254.364L419.359 254.559C419.506 254.808 422.945 260.743 420.621 267.251C418.857 272.188 414.271 276.043 406.989 278.711C389.991 284.939 370.356 290.261 362.703 292.26C362.364 292.347 362.048 292.503 361.775 292.721C361.502 292.938 361.278 293.21 361.118 293.52C360.957 293.827 360.862 294.163 360.837 294.508C360.813 294.853 360.861 295.199 360.977 295.525L377.252 332.06C377.422 332.524 377.483 333.02 377.431 333.511C377.379 334.001 377.214 334.474 376.951 334.891C376.687 335.308 376.331 335.659 375.909 335.917C375.488 336.175 375.014 336.333 374.522 336.378L362.361 337.263C362.258 337.273 362.155 337.278 362.052 337.278C361.43 337.278 360.82 337.097 360.298 336.758C359.776 336.419 359.363 335.936 359.109 335.368V335.368Z" fill="#2D3B5A"/>
<path d="M376.554 349.489L367.767 349.489L363.586 326.716L376.555 326.717L376.554 349.489Z" fill="#FFB8B8"/>
<path d="M378.795 358L350.461 357.999V357.641C350.461 356.194 350.746 354.761 351.3 353.424C351.855 352.087 352.667 350.872 353.691 349.849C354.715 348.826 355.931 348.014 357.269 347.46C358.607 346.907 360.041 346.622 361.489 346.622H361.49L378.796 346.622L378.795 358Z" fill="#2F2E41"/>
<path d="M364.127 337.516L346.609 298.264C345.146 294.956 344.984 291.219 346.156 287.796C347.327 284.374 349.745 281.519 352.929 279.798L390.927 259.439L408.267 257.965L424.261 256.513L424.376 256.708C424.524 256.957 427.963 262.892 425.638 269.4C423.875 274.336 419.289 278.192 412.006 280.86C395.009 287.087 375.373 292.41 367.72 294.409C367.382 294.495 367.066 294.652 366.793 294.869C366.52 295.086 366.295 295.359 366.135 295.669C365.975 295.975 365.879 296.311 365.855 296.656C365.831 297.001 365.878 297.348 365.995 297.673L382.27 334.209C382.44 334.672 382.501 335.168 382.449 335.659C382.396 336.15 382.232 336.622 381.968 337.039C381.704 337.456 381.348 337.808 380.927 338.065C380.506 338.323 380.031 338.481 379.539 338.527L367.378 339.412C367.275 339.421 367.172 339.426 367.07 339.426C366.447 339.426 365.838 339.246 365.316 338.907C364.793 338.568 364.38 338.085 364.127 337.516V337.516Z" fill="#2D3B5A"/>
<path d="M355.397 217.606C348.035 207.822 342.216 196.97 338.14 185.427C337.904 184.736 337.921 183.985 338.188 183.305C338.454 182.626 338.954 182.064 339.597 181.718L364.787 168.231C365.195 168.011 365.647 167.887 366.11 167.868C366.573 167.849 367.034 167.936 367.458 168.123C367.89 168.31 368.273 168.594 368.579 168.952C368.884 169.309 369.104 169.732 369.222 170.188C372.154 181.311 377.665 191.589 385.31 200.189C385.625 200.539 385.855 200.956 385.984 201.409C386.113 201.862 386.137 202.338 386.054 202.801C385.974 203.257 385.792 203.688 385.52 204.063C385.248 204.437 384.894 204.745 384.485 204.962L359.294 218.449C358.65 218.792 357.904 218.896 357.191 218.742C356.477 218.587 355.841 218.185 355.397 217.606V217.606Z" fill="#CCCCCC"/>
<path d="M357.115 216.315C357.25 216.484 357.44 216.601 357.653 216.645C357.865 216.688 358.086 216.657 358.277 216.555L383.468 203.068C383.591 203.005 383.697 202.913 383.778 202.802C383.859 202.691 383.913 202.562 383.936 202.426C383.962 202.282 383.955 202.135 383.915 201.995C383.874 201.854 383.802 201.726 383.703 201.618C375.833 192.764 370.159 182.184 367.141 170.733C367.106 170.591 367.039 170.46 366.944 170.349C366.85 170.238 366.731 170.15 366.598 170.092C366.471 170.036 366.334 170.009 366.196 170.015C366.058 170.021 365.923 170.058 365.802 170.125L340.611 183.612C340.42 183.715 340.272 183.881 340.191 184.082C340.109 184.283 340.101 184.506 340.167 184.712C344.17 196.049 349.885 206.707 357.115 216.315V216.315Z" fill="white"/>
<path d="M439.083 214.008L419.354 221.499L414.538 208.131C413.898 206.355 413.907 204.411 414.563 202.642C415.219 200.873 416.48 199.393 418.123 198.462V198.462C419.785 197.522 421.729 197.205 423.603 197.571C425.478 197.937 427.16 198.96 428.346 200.457L439.083 214.008Z" fill="#6C63FF"/>
<path d="M388.903 266.977C388.488 266.684 388.14 266.305 387.882 265.867C387.625 265.429 387.464 264.941 387.409 264.435C384.883 240.866 386.643 222.422 392.789 208.047C393.872 205.568 395.503 203.366 397.56 201.607C399.616 199.849 402.045 198.578 404.664 197.892L420.612 197.088L420.694 197.128C424.293 198.889 427.228 201.762 429.064 205.321C430.899 208.88 431.538 212.935 430.886 216.886C425.757 230.395 421.462 244.461 424.737 255.807C424.875 256.282 424.915 256.779 424.855 257.269C424.795 257.759 424.637 258.233 424.39 258.66C424.151 259.074 423.829 259.434 423.445 259.718C423.061 260.002 422.623 260.205 422.157 260.314L391.782 267.534C391.29 267.651 390.779 267.661 390.282 267.565C389.786 267.469 389.316 267.269 388.903 266.977Z" fill="white"/>
<path d="M415.29 191.136C425.013 191.136 432.894 183.261 432.894 173.546C432.894 163.831 425.013 155.956 415.29 155.956C405.567 155.956 397.686 163.831 397.686 173.546C397.686 183.261 405.567 191.136 415.29 191.136Z" fill="#FFB8B8"/>
<path d="M366.441 187.478L352.721 193.529C352.199 193.759 351.607 193.772 351.076 193.566C350.544 193.361 350.116 192.952 349.885 192.432L349.546 191.663C349.316 191.142 349.303 190.551 349.509 190.02C349.715 189.489 350.123 189.061 350.644 188.83L364.364 182.779C364.886 182.549 365.478 182.536 366.009 182.742C366.541 182.948 366.969 183.356 367.2 183.877L367.539 184.645C367.769 185.166 367.782 185.757 367.576 186.289C367.37 186.82 366.962 187.247 366.441 187.478V187.478Z" fill="#CCCCCC"/>
<path d="M371.458 196.788L357.738 202.84C357.216 203.069 356.625 203.082 356.093 202.876C355.562 202.671 355.133 202.263 354.903 201.742L354.563 200.974C354.334 200.452 354.32 199.861 354.526 199.33C354.732 198.799 355.141 198.371 355.662 198.14L369.382 192.089C369.904 191.86 370.495 191.846 371.027 192.052C371.559 192.258 371.987 192.666 372.218 193.187L372.557 193.955C372.787 194.476 372.8 195.067 372.594 195.599C372.388 196.13 371.979 196.558 371.458 196.788V196.788Z" fill="#CCCCCC"/>
<path d="M382.039 233.154L351.451 209.043C351.208 209.129 350.96 209.202 350.709 209.262C349.629 209.514 348.508 209.537 347.419 209.328C346.33 209.119 345.298 208.684 344.388 208.051C343.473 207.417 342.703 206.594 342.131 205.639C341.559 204.684 341.198 203.618 341.072 202.512C340.867 200.744 341.266 198.959 342.204 197.446C343.142 195.933 344.564 194.781 346.239 194.177C347.285 193.802 348.398 193.652 349.506 193.737C350.614 193.822 351.691 194.14 352.667 194.67C353.643 195.2 354.497 195.93 355.171 196.813C355.845 197.695 356.325 198.71 356.579 199.79C356.658 200.133 356.713 200.48 356.744 200.83L387.193 218.382L394.77 214.023L403.164 225.003L391.399 233.382C390.022 234.355 388.367 234.858 386.681 234.817C384.995 234.776 383.367 234.193 382.039 233.154V233.154Z" fill="#FFB8B8"/>
<path d="M406.896 228.422L389.443 216.564L397.645 204.957C398.734 203.416 400.334 202.309 402.16 201.832C403.987 201.355 405.924 201.539 407.629 202.35V202.35C409.353 203.172 410.727 204.582 411.501 206.326C412.276 208.071 412.401 210.035 411.854 211.863L406.896 228.422Z" fill="white"/>
<path d="M408.836 170.927C404.311 174.021 398.37 177.201 393.749 173.906C390.714 171.743 389.758 167.736 390.989 164.22C393.201 157.897 399.281 155.114 405.095 152.98C412.653 150.206 420.882 148 428.684 149.986C436.487 151.973 443.382 159.52 441.974 167.441C440.841 173.811 434.827 179.111 435.681 185.525C436.54 191.979 443.805 195.376 450.218 196.53C456.631 197.683 463.808 198.054 468.417 202.657C474.297 208.529 472.829 219.024 467.296 225.223C461.764 231.423 453.415 234.233 445.325 236.143C434.606 238.674 423.012 240.004 412.832 235.804C402.652 231.603 394.73 220.295 397.679 209.692C398.925 205.213 401.859 201.428 404.695 197.743C407.531 194.058 410.403 190.205 411.485 185.684C412.386 181.916 411.719 177.542 409.218 174.715C408.763 174.221 408.477 173.595 408.401 172.927C408.324 172.26 408.461 171.586 408.792 171.001L408.836 170.927Z" fill="#2D3B5A"/>
<path d="M78.1781 256.39C73.6418 257.983 68.7713 258.382 64.0358 257.549C59.3003 256.715 54.8594 254.677 51.141 251.631C41.6711 243.689 38.702 230.605 36.2862 218.49C33.9043 206.545 31.5225 194.601 29.1406 182.656L44.1006 192.948C54.859 200.35 65.8597 207.989 73.3088 218.71C80.7578 229.431 84.0093 244.066 78.0243 255.667" fill="#E6E6E6"/>
<path d="M76.9006 299.775C78.4147 288.755 79.9717 277.593 78.9096 266.455C77.9663 256.563 74.946 246.901 68.7969 238.979C65.533 234.782 61.5614 231.186 57.0607 228.353C55.8871 227.613 54.8069 229.471 55.9754 230.208C63.7629 235.126 69.7862 242.388 73.1769 250.946C76.9219 260.464 77.5233 270.839 76.878 280.949C76.4877 287.063 75.6606 293.137 74.8271 299.204C74.7614 299.478 74.8024 299.767 74.9418 300.012C75.0811 300.258 75.3085 300.441 75.578 300.525C75.8529 300.599 76.1459 300.562 76.3935 300.422C76.6411 300.281 76.8233 300.049 76.9006 299.775H76.9006Z" fill="#F2F2F2"/>
<path d="M62.3171 280.275C60.3715 283.229 57.6972 285.633 54.5519 287.255C51.4065 288.877 47.8961 289.663 44.3587 289.536C35.2679 289.105 27.6891 282.765 20.8667 276.746L0.6875 258.944L14.0428 258.305C23.6472 257.846 33.4993 257.418 42.6471 260.377C51.7949 263.337 60.2315 270.459 61.9042 279.92" fill="#E6E6E6"/>
<path d="M81.1796 306.11C73.8917 293.225 65.4385 278.905 50.3339 274.328C46.134 273.06 41.7303 272.606 37.3597 272.99C35.9822 273.108 36.3262 275.23 37.7012 275.112C45.0272 274.504 52.3391 276.437 58.4059 280.585C64.2439 284.555 68.7894 290.075 72.6366 295.929C74.9932 299.515 77.1041 303.252 79.2153 306.985C79.89 308.178 81.8622 307.317 81.1796 306.11V306.11Z" fill="#F2F2F2"/>
<path d="M92.8571 319.672C92.6115 316.829 91.59 314.108 89.9037 311.805C88.2174 309.502 85.931 307.706 83.2935 306.612V299.163H70.7896V306.846C68.282 307.994 66.1238 309.786 64.5353 312.04C62.9467 314.293 61.9845 316.926 61.7468 319.672L58.8066 353.822H95.7973L92.8571 319.672Z" fill="#F2F2F2"/>
</g>
<defs>
<clipPath id="clip0_4871_114">
<rect width="496" height="358" fill="white"/>
</clipPath>
</defs>
</svg>
