<svg width="280" height="195" viewBox="0 0 280 195" fill="none" xmlns="http://www.w3.org/2000/svg">
<path opacity="0.1" d="M71.2285 78.1338H41.5725C40.5223 78.1338 39.6709 78.9873 39.6709 80.0402V86.3674C39.6709 87.4203 40.5223 88.2738 41.5725 88.2738H71.2285C72.2787 88.2738 73.1301 87.4203 73.1301 86.3674V80.0402C73.1301 78.9873 72.2787 78.1338 71.2285 78.1338Z" fill="#820E96"/>
<path opacity="0.1" d="M106.244 88.2764H76.5882C75.5379 88.2764 74.6865 89.1299 74.6865 90.1828V96.51C74.6865 97.5629 75.5379 98.4164 76.5882 98.4164H106.244C107.294 98.4164 108.146 97.5629 108.146 96.51V90.1828C108.146 89.1299 107.294 88.2764 106.244 88.2764Z" fill="#820E96"/>
<path opacity="0.1" d="M141.262 98.416H111.606C110.556 98.416 109.704 99.2695 109.704 100.322V106.65C109.704 107.702 110.556 108.556 111.606 108.556H141.262C142.312 108.556 143.164 107.702 143.164 106.65V100.322C143.164 99.2695 142.312 98.416 141.262 98.416Z" fill="#820E96"/>
<path opacity="0.1" d="M71.2285 62.9229H41.5725C40.5223 62.9229 39.6709 63.7764 39.6709 64.8292V71.1565C39.6709 72.2093 40.5223 73.0629 41.5725 73.0629H71.2285C72.2787 73.0629 73.1301 72.2093 73.1301 71.1565V64.8292C73.1301 63.7764 72.2787 62.9229 71.2285 62.9229Z" fill="#820E96"/>
<path opacity="0.1" d="M106.244 73.0635H76.5882C75.5379 73.0635 74.6865 73.917 74.6865 74.9699V81.2971C74.6865 82.35 75.5379 83.2035 76.5882 83.2035H106.244C107.294 83.2035 108.146 82.35 108.146 81.2971V74.9699C108.146 73.917 107.294 73.0635 106.244 73.0635Z" fill="#820E96"/>
<path opacity="0.1" d="M141.262 83.2061H111.606C110.556 83.2061 109.704 84.0596 109.704 85.1124V91.4397C109.704 92.4925 110.556 93.346 111.606 93.346H141.262C142.312 93.346 143.164 92.4925 143.164 91.4397V85.1124C143.164 84.0596 142.312 83.2061 141.262 83.2061Z" fill="#820E96"/>
<path opacity="0.1" d="M180.168 78.1338H150.512C149.462 78.1338 148.61 78.9873 148.61 80.0402V86.3674C148.61 87.4203 149.462 88.2738 150.512 88.2738H180.168C181.218 88.2738 182.069 87.4203 182.069 86.3674V80.0402C182.069 78.9873 181.218 78.1338 180.168 78.1338Z" fill="#820E96"/>
<path opacity="0.1" d="M180.168 62.9229H150.512C149.462 62.9229 148.61 63.7764 148.61 64.8292V71.1565C148.61 72.2093 149.462 73.0629 150.512 73.0629H180.168C181.218 73.0629 182.069 72.2093 182.069 71.1565V64.8292C182.069 63.7764 181.218 62.9229 180.168 62.9229Z" fill="#820E96"/>
<path opacity="0.1" d="M71.2285 42.6406H41.5725C40.5223 42.6406 39.6709 43.4941 39.6709 44.547V50.8742C39.6709 51.9271 40.5223 52.7806 41.5725 52.7806H71.2285C72.2787 52.7806 73.1301 51.9271 73.1301 50.8742V44.547C73.1301 43.4941 72.2787 42.6406 71.2285 42.6406Z" fill="#820E96"/>
<path opacity="0.1" d="M106.244 52.7812H76.5882C75.5379 52.7812 74.6865 53.6348 74.6865 54.6876V61.0149C74.6865 62.0677 75.5379 62.9212 76.5882 62.9212H106.244C107.294 62.9212 108.146 62.0677 108.146 61.0149V54.6876C108.146 53.6348 107.294 52.7812 106.244 52.7812Z" fill="#820E96"/>
<path opacity="0.1" d="M141.262 62.9229H111.606C110.556 62.9229 109.704 63.7764 109.704 64.8292V71.1565C109.704 72.2093 110.556 73.0629 111.606 73.0629H141.262C142.312 73.0629 143.164 72.2093 143.164 71.1565V64.8292C143.164 63.7764 142.312 62.9229 141.262 62.9229Z" fill="#820E96"/>
<path opacity="0.1" d="M71.2285 27.4277H41.5725C40.5223 27.4277 39.6709 28.2813 39.6709 29.3341V35.6614C39.6709 36.7142 40.5223 37.5677 41.5725 37.5677H71.2285C72.2787 37.5677 73.1301 36.7142 73.1301 35.6614V29.3341C73.1301 28.2813 72.2787 27.4277 71.2285 27.4277Z" fill="#820E96"/>
<path opacity="0.1" d="M106.244 37.5713H76.5882C75.5379 37.5713 74.6865 38.4248 74.6865 39.4777V45.8049C74.6865 46.8578 75.5379 47.7113 76.5882 47.7113H106.244C107.294 47.7113 108.146 46.8578 108.146 45.8049V39.4777C108.146 38.4248 107.294 37.5713 106.244 37.5713Z" fill="#820E96"/>
<path opacity="0.1" d="M141.262 47.7109H111.606C110.556 47.7109 109.704 48.5645 109.704 49.6173V55.9446C109.704 56.9974 110.556 57.8509 111.606 57.8509H141.262C142.312 57.8509 143.164 56.9974 143.164 55.9446V49.6173C143.164 48.5645 142.312 47.7109 141.262 47.7109Z" fill="#820E96"/>
<path opacity="0.1" d="M180.168 42.6406H150.512C149.462 42.6406 148.61 43.4941 148.61 44.547V50.8742C148.61 51.9271 149.462 52.7806 150.512 52.7806H180.168C181.218 52.7806 182.069 51.9271 182.069 50.8742V44.547C182.069 43.4941 181.218 42.6406 180.168 42.6406Z" fill="#820E96"/>
<path opacity="0.1" d="M180.168 27.4277H150.512C149.462 27.4277 148.61 28.2813 148.61 29.3341V35.6614C148.61 36.7142 149.462 37.5677 150.512 37.5677H180.168C181.218 37.5677 182.069 36.7142 182.069 35.6614V29.3341C182.069 28.2813 181.218 27.4277 180.168 27.4277Z" fill="#820E96"/>
<path opacity="0.1" d="M110.164 189.264C171.006 189.264 220.328 180.277 220.328 169.191C220.328 158.104 171.006 149.117 110.164 149.117C49.3221 149.117 0 158.104 0 169.191C0 180.277 49.3221 189.264 110.164 189.264Z" fill="#820E96"/>
<path d="M61.4259 82.3617L49.6526 154.717L102.888 149.072L100.585 142.914L58.9945 146.378L68.7202 82.2334L61.4259 82.3617Z" fill="#3F3D56"/>
<path d="M47.605 0.256579L119.269 0L140 157.283L68.0803 167.033L47.605 0.256579Z" fill="#3F3D56"/>
<path d="M55.4114 6.28613H113.254L133.474 152.536L73.8392 160.747L55.4114 6.28613Z" fill="white"/>
<path d="M109.963 145.958C110.326 146.655 110.598 147.41 111.071 148.038C112.453 149.891 115.077 150.181 117.045 151.389C117.143 151.439 117.224 151.518 117.278 151.615C117.367 151.828 117.168 152.051 116.976 152.185C115.484 153.234 113.526 153.257 111.701 153.244C111.087 153.266 110.474 153.208 109.876 153.07C108.911 152.813 108.084 152.139 107.132 151.864C106.639 151.74 106.133 151.669 105.625 151.651L103.626 151.515C103.094 151.507 102.567 151.409 102.067 151.225C101.818 151.13 101.598 150.972 101.426 150.768C101.254 150.564 101.136 150.32 101.084 150.058C101.028 149.632 101.21 149.219 101.317 148.803C101.573 147.818 101.494 146.627 102.259 145.955C102.574 145.713 102.936 145.538 103.321 145.442C104.712 144.972 106.132 144.593 107.572 144.308C108.757 144.074 109.438 144.947 109.963 145.958Z" fill="#3F3D56"/>
<path d="M87.3531 151.507C87.4043 152.054 87.4196 152.68 87.0255 153.062C86.78 153.266 86.4835 153.4 86.1681 153.447C84.2766 153.888 82.1677 153.919 80.522 152.888C80.3507 152.79 80.1996 152.66 80.0766 152.505C79.9394 152.295 79.8616 152.051 79.8514 151.8C79.7925 151.074 80.0152 150.358 80.2174 149.657C80.6959 147.995 81.0593 146.302 81.3052 144.59C81.3256 144.449 86.1348 145.36 86.4547 145.837C86.8565 146.427 86.8591 147.843 86.9666 148.546C87.1287 149.528 87.2575 150.515 87.3531 151.507Z" fill="#3F3D56"/>
<path d="M105.254 84.7404L106.533 96.6688C106.789 99.1063 107.058 101.557 106.881 104.002C106.677 106.824 105.888 109.647 106.221 112.443C106.352 113.531 106.648 114.598 106.692 115.694C106.7 116.423 106.663 117.151 106.582 117.875C106.003 125.113 107.833 132.295 108.857 139.482C109.022 140.368 109.058 141.274 108.965 142.17C108.832 143.081 108.565 144.277 109.374 144.708L101.778 147.469C100.808 146.25 101.45 144.354 101.266 142.807C101.097 141.414 100.334 140.172 99.9274 138.83C99.5588 137.624 99.482 136.354 99.3618 135.102C98.6989 128.284 96.6641 121.644 96.1881 114.811C96.1728 114.152 96.087 113.495 95.9321 112.854C95.6762 112.004 95.1643 111.263 94.7906 110.465C94.2173 109.267 93.9358 107.953 93.6594 106.655L92.0342 99.0216C90.391 101.474 90.4576 104.666 90.1325 107.607C89.6769 111.712 88.6583 115.748 87.829 119.802C87.6364 120.674 87.492 121.556 87.3965 122.445C87.1815 124.823 87.6089 127.225 87.3811 129.601C87.1252 132.354 85.9709 135.04 86.2499 137.793C86.4034 139.317 86.987 140.759 87.3811 142.237C87.7753 143.715 87.9698 145.337 87.3683 146.745C85.2662 145.972 83.008 145.721 80.7881 146.017C78.349 143.515 77.9164 140.025 77.7501 136.523C77.5837 133.021 77.9855 129.513 77.5504 126.044C77.4225 125.018 77.2228 124.018 77.1896 122.994C77.0821 119.712 78.6561 116.641 79.4393 113.452C80.1441 110.581 80.2114 107.589 79.6364 104.689C79.2524 102.773 78.5921 100.913 78.3567 98.9703C78.0367 96.248 78.5793 93.5051 79.1245 90.8162C79.4905 89.0022 79.8539 87.1882 80.2685 85.3844C80.7139 83.4473 81.2437 81.469 82.4338 79.8834C84.338 77.3458 87.719 76.2194 90.8799 76.4657C94.0407 76.7121 96.9917 78.154 99.6023 79.9501C101.66 81.3286 103.556 82.9355 105.254 84.7404Z" fill="#192534"/>
<path d="M96.7611 39.0646C96.6176 39.2957 96.5178 39.5515 96.4668 39.8189C96.4028 40.3449 96.7227 40.8273 96.9787 41.2866C97.3066 41.8766 97.5586 42.506 97.7286 43.1596C97.8504 43.5641 97.8879 43.9894 97.8386 44.4091C97.7762 44.7243 97.6639 45.0275 97.5059 45.3071C97.0119 46.2616 96.28 47.1442 95.2843 47.5419C94.5133 47.8266 93.6725 47.8607 92.881 47.6394C92.0949 47.4164 91.3517 47.0625 90.6825 46.5926C90.1184 46.2342 89.6112 45.7932 89.1776 45.2841C88.7636 44.7273 88.4149 44.1247 88.1384 43.488C87.6061 42.3719 87.066 41.1788 87.1633 39.9549C87.1684 39.8439 87.189 39.7342 87.2247 39.629C87.3078 39.439 87.424 39.2652 87.5677 39.1159C88.6597 37.8187 89.2195 36.1542 89.134 34.459L92.8631 35.3083C93.6847 35.4956 94.5063 35.6829 95.3176 35.9164C95.9831 36.1088 97.0068 36.3756 97.4394 36.9709C97.8719 37.5662 97.0555 38.5206 96.7611 39.0646Z" fill="#FBBEBE"/>
<path d="M94.7649 38.4283C98.5079 38.4283 101.542 35.3864 101.542 31.6341C101.542 27.8817 98.5079 24.8398 94.7649 24.8398C91.0219 24.8398 87.9875 27.8817 87.9875 31.6341C87.9875 35.3864 91.0219 38.4283 94.7649 38.4283Z" fill="#FBBEBE"/>
<path d="M93.6744 45.3404C93.961 44.7118 94.5804 44.3141 95.146 43.9189C95.7117 43.5238 96.285 43.0183 96.395 42.3333C96.4018 42.1783 96.4401 42.0264 96.5076 41.8868C96.7252 41.5584 97.2422 41.7226 97.5519 41.9638C98.3043 42.5514 98.8162 43.3852 99.3153 44.1986C99.961 45.1877 100.514 46.2348 100.966 47.3263C101.685 49.2275 101.772 51.3033 101.852 53.3328C101.923 55.1802 101.992 57.0558 101.545 58.8467C101.263 59.9808 100.777 61.0815 100.749 62.2489C100.664 66.4902 99.195 70.5441 99.0926 74.7854C99.085 76.0118 99.1465 77.2376 99.2769 78.457L99.5175 81.2101C95.7961 80.9963 92.085 80.6687 88.384 80.2274C88.2766 78.9599 87.9157 77.7309 87.5855 76.5045C86.2336 71.4904 85.3671 66.3573 84.998 61.1764C84.8009 58.4259 84.5987 55.6856 84.2941 52.9454C84.0203 50.454 83.4828 47.9472 83.8053 45.461C83.974 44.3309 84.3286 43.2367 84.8546 42.2229C85.0209 41.8191 85.3067 41.4761 85.6736 41.2402C85.8569 41.1514 86.0516 41.0884 86.2521 41.0529C86.8323 40.9351 87.4213 40.8656 88.0129 40.8451C88.1576 40.8329 88.3032 40.8468 88.4429 40.8862C88.6923 41.0108 88.897 41.2098 89.029 41.4558C90.1694 43.1745 91.7832 44.524 93.6744 45.3404Z" fill="#F2F2F2"/>
<path d="M90.5317 44.7968C91.0078 45.4793 92.0162 45.6409 92.4564 46.3362C92.6047 46.6269 92.7173 46.9344 92.7917 47.2522C93.0604 48.1118 93.603 48.8584 93.9332 49.6974C94.4092 50.9034 94.422 52.2376 94.4271 53.5333C94.4739 54.5654 94.3949 55.5994 94.1917 56.6122C94.0381 57.246 93.7873 57.8489 93.603 58.475C93.2901 59.5396 93.1738 60.6527 93.2601 61.7592C93.2601 61.9982 93.3237 62.2329 93.4443 62.4391C93.6179 62.6452 93.8445 62.7996 94.0995 62.8856C94.8494 63.2166 95.6352 63.5553 96.4542 63.4783C96.6222 63.473 96.785 63.4186 96.9226 63.3218C97.0175 63.2351 97.0956 63.1316 97.1529 63.0164L97.6648 62.1492C98.128 61.3564 98.6118 60.4686 98.4326 59.5629C98.3025 59.0954 98.1069 58.6488 97.8516 58.2364C97.5245 57.5671 97.2457 56.8751 97.0173 56.1658C96.2008 53.813 95.3741 51.4268 95.1899 48.9431C95.0815 47.9979 95.1864 47.0403 95.497 46.1413C95.7374 45.5879 96.0396 45.0637 96.3979 44.5787C96.3169 44.4697 96.2047 44.388 96.0762 44.3444C95.9477 44.3009 95.8091 44.2976 95.6787 44.3349C95.4212 44.4147 95.1719 44.5186 94.9339 44.6454C94.1814 44.9636 93.3471 44.8481 92.5869 44.63C92.29 44.5428 91.8191 44.2451 91.512 44.2657C91.4071 44.2785 90.5497 44.8276 90.5317 44.7968Z" fill="#820E96"/>
<path d="M96.5231 44.7676C96.3695 44.6444 96.1315 44.5315 95.9958 44.6752C95.9503 44.7375 95.9172 44.8081 95.8986 44.883C95.7655 45.2423 95.3739 45.4193 95.0181 45.5578C94.6624 45.6964 94.2784 45.7734 94.0634 45.5091C93.9956 45.4062 93.9622 45.2843 93.9682 45.1611C93.9742 45.0379 94.0192 44.9198 94.0967 44.824C94.2541 44.6339 94.4439 44.4732 94.6572 44.3494C95.8345 43.5163 96.6365 42.2513 96.8891 40.8291C97.2192 41.0922 97.4378 41.4707 97.5008 41.8888C97.5852 42.2967 97.5955 42.7175 97.6799 43.1255C97.8053 43.7105 98.0843 44.257 98.1483 44.8497C98.1816 45.1653 98.1483 45.4834 98.1483 45.799C98.1598 46.1076 98.1957 46.4147 98.2558 46.7176C97.6569 46.0813 97.2346 45.3346 96.5231 44.7676Z" fill="#F2F2F2"/>
<path d="M91.343 43.0263C91.0871 42.7826 90.8311 42.5516 90.5752 42.3027C89.4521 41.2038 88.604 39.8543 88.1002 38.3643C87.7726 38.6208 87.4117 38.9595 87.4041 39.3906C87.4332 39.6956 87.5507 39.9854 87.7419 40.2245C88.7097 41.7525 89.3487 43.4662 89.6179 45.256C89.7562 45.0394 89.9477 44.8622 90.1741 44.7413C90.4005 44.6204 90.654 44.56 90.9105 44.5658C91.3148 44.5658 93.1295 45.6434 93.26 45.3714C93.4519 44.9455 91.6501 43.3162 91.343 43.0263Z" fill="#F2F2F2"/>
<path d="M97.0583 40.9834C99.4659 43.3861 102.413 45.1749 105.653 46.1997C105.975 46.2701 106.274 46.422 106.52 46.641C106.705 46.8719 106.829 47.1453 106.881 47.4364C107.506 49.8842 107.716 52.4166 107.923 54.9336C107.977 55.3499 107.969 55.772 107.897 56.1857C107.746 56.858 107.27 57.4019 106.802 57.9074C105.333 59.4853 103.656 61.1352 103.408 63.2802C103.389 63.6937 103.341 64.1053 103.262 64.5117C103.134 64.989 102.85 65.4098 102.676 65.8742C101.821 68.1603 103.754 70.9288 102.576 73.0584C103.214 74.2859 103.651 75.6077 103.871 76.9738C103.911 77.4916 104.029 78.0004 104.222 78.4825C104.573 79.2163 105.295 79.6832 105.863 80.2785C107.595 82.0592 107.808 84.784 107.91 87.2703C107.974 88.6712 107.954 90.2799 106.886 91.1985C106.27 91.7348 105.428 91.9092 104.621 92.0426C103.549 92.2223 102.382 92.3505 101.432 91.8194C100.752 91.4397 100.288 90.7751 99.8455 90.1337C99.006 88.9098 98.164 87.6885 97.368 86.4338C96.1088 84.4556 94.9212 82.1951 95.2846 79.8757C95.1823 82.249 94.6832 84.6403 93.5212 86.7084C92.3592 88.7764 90.4883 90.5032 88.2181 91.1857C85.9479 91.8682 83.2938 91.3858 81.602 89.7232C81.0497 89.1532 80.5755 88.5121 80.1918 87.8168C79.2288 86.1635 78.526 84.3712 78.1084 82.503C77.9983 82.0181 77.9164 81.4767 78.1596 81.0431C78.2748 80.8378 78.4514 80.6762 78.5717 80.4735C78.976 79.7833 78.587 78.9135 78.1954 78.2105C77.5991 78.2669 77.1717 77.5639 77.2254 76.9635C77.2792 76.3631 77.6375 75.8423 77.8909 75.2957C78.6331 73.6844 78.4693 71.8088 78.111 70.0718C77.7526 68.3348 77.2177 66.608 77.2587 64.835C77.3022 62.9594 75.9559 61.2711 74.9296 59.7034C74.3563 58.8208 73.6883 57.9998 73.1892 57.0735C72.1487 55.1243 71.9081 52.845 72.5186 50.7206C72.877 49.6298 73.3471 48.5791 73.9212 47.5852L74.7658 45.997C74.9231 45.6175 75.1672 45.2804 75.4784 45.013C75.7896 44.7456 76.1593 44.5553 76.5574 44.4575L82.4005 42.1483C83.1477 41.8925 83.8571 41.5369 84.5095 41.0912C85.2236 40.5524 85.7559 39.8083 86.4367 39.2336C86.5359 39.1291 86.655 39.0456 86.7868 38.9878C86.9187 38.9301 87.0607 38.8994 87.2046 38.8975C87.7523 38.9462 87.9468 39.639 88.0031 40.1804C88.1311 41.3914 89.0269 42.4177 89.3314 43.5954C90.9797 50.0997 94.4682 56.0985 95.4254 62.7388C96.5004 60.1499 97.5753 57.5559 98.9523 55.1184C99.1695 54.7684 99.3521 54.3981 99.4974 54.0125C99.6627 53.4564 99.7243 52.8745 99.6792 52.296C99.6101 50.6257 99.1673 48.9938 98.7296 47.38C98.1614 45.1836 97.6495 43.1592 97.0583 40.9834Z" fill="#3F3D56"/>
<path d="M108.194 60.8582C108.307 61.9512 108.417 63.0468 108.619 64.127C108.855 65.3765 109.213 66.5978 109.569 67.8191C109.742 68.5057 109.991 69.1708 110.311 69.8025C110.427 69.9859 110.519 70.1833 110.585 70.3901C110.71 70.9032 110.423 71.4164 110.301 71.9295C109.932 73.469 111.038 75.1804 110.342 76.5993C110.132 77.0303 109.766 77.387 109.628 77.8488C109.466 78.3799 109.628 78.947 109.712 79.496C109.93 81.0355 109.405 82.6007 108.888 84.0811L108.007 86.5802C107.204 85.0818 106.392 83.568 105.282 82.2825C104.885 81.8207 104.452 81.3922 104.086 80.9047C103.541 80.1386 103.11 79.2967 102.807 78.4056C102.025 76.2884 101.579 74.0618 101.483 71.8064C101.42 71.1652 101.494 70.5178 101.701 69.9077C101.87 69.5548 102.06 69.2121 102.269 68.8814C102.955 67.6421 103.096 66.1745 103.083 64.7582C103.07 63.3418 102.919 61.9204 103.083 60.5118C103.217 59.3357 103.564 58.1939 104.107 57.1429C104.427 56.4623 104.903 55.8671 105.497 55.4059C105.939 55.0736 106.479 54.8977 107.032 54.9055C107.869 54.9543 107.677 55.6753 107.749 56.3706L108.194 60.8582Z" fill="#3F3D56"/>
<path d="M70.5477 57.3665C70.0256 58.9059 69.5546 60.4591 69.1349 62.0259C68.7254 63.5654 68.3594 65.1134 68.0369 66.67C67.8713 67.3544 67.7786 68.0545 67.7605 68.7586C67.7932 69.5782 67.9335 70.39 68.1777 71.173C69.8259 77.1282 72.8307 82.6215 76.2142 87.7865C77.1811 86.5776 78.3295 85.5268 79.6182 84.6716C79.7237 84.609 79.8117 84.5207 79.8742 84.415C79.9066 84.3152 79.9161 84.2094 79.9019 84.1054C79.8877 84.0014 79.8503 83.902 79.7923 83.8146C78.8581 81.8954 77.3788 80.2045 76.913 78.1186C76.7184 77.2513 76.7108 76.3482 76.4906 75.4861C76.2066 74.3699 75.5718 73.3488 75.4259 72.2044C75.2698 70.9574 75.6819 69.5976 75.0983 68.4917C76.2885 68.0273 76.9769 66.7983 77.4811 65.6206C78.0199 64.4158 78.4051 63.1477 78.6278 61.8463C78.9782 59.3514 78.4911 56.8106 77.2431 54.6236C76.6336 53.5327 75.8513 52.5483 74.9268 51.7089C74.6223 51.4343 73.9031 50.6467 73.4603 50.6544C72.8691 50.6672 72.6797 51.6268 72.5108 52.0578C71.8274 53.818 71.1517 55.5807 70.5477 57.3665Z" fill="#3F3D56"/>
<path d="M81.1489 86.0848C81.2256 86.1412 81.3127 86.2182 81.2922 86.3105C81.2717 86.4029 81.1975 86.426 81.1309 86.4645C80.7849 86.7106 80.5266 87.0612 80.3938 87.4652C79.9685 88.4261 79.5977 89.4104 79.283 90.4132C78.7103 89.553 78.0366 88.7648 77.2765 88.0655C76.6929 87.5267 76.0403 87.0161 75.728 86.2874C75.728 86.2669 77.0692 85.274 77.192 85.1662C77.5682 84.8301 78.0417 83.8987 78.4308 83.6934C78.871 83.4625 79.2907 84.3682 79.626 84.7326C80.0872 85.2332 80.5974 85.6862 81.1489 86.0848Z" fill="#FBBEBE"/>
<path d="M101.962 30.5715C101.944 30.2354 101.9 29.8634 101.644 29.6453C101.42 29.4895 101.149 29.4144 100.876 29.4323C99.3843 29.3836 97.841 29.635 96.4333 29.1321C95.5068 28.8011 94.716 28.1648 93.8125 27.7697C92.909 27.3746 91.7522 27.2694 91.0227 27.9339C90.4699 28.4471 90.3189 29.2348 90.1269 29.9609C89.7043 31.5635 88.9519 33.0598 87.9182 34.3535C87.2246 34.138 86.728 33.5171 86.4081 32.8654C85.3203 30.6434 85.8553 27.9904 86.6282 25.635C86.8841 24.8447 87.1682 24.0621 87.4523 23.2821L88.0768 21.5579C88.8965 21.4772 89.658 21.0974 90.2165 20.4906L90.4852 21.1448C91.1793 21.1198 91.8491 20.8826 92.4048 20.4649C92.6198 20.8703 93.1726 20.9781 93.6205 20.8472C94.0684 20.7164 94.4549 20.4649 94.9002 20.3341C96.0904 19.9492 97.3598 20.5419 98.6088 20.6086C99.1374 20.5957 99.6662 20.6111 100.193 20.6548C101.667 20.8934 102.709 22.2841 103.159 23.7106C103.459 24.66 103.707 25.8274 104.641 26.1635C104.662 26.5227 104.027 26.592 103.973 26.9333C103.967 27.047 103.994 27.1602 104.05 27.2591L104.908 29.1039C104.498 29.2071 104.066 29.1856 103.669 29.0423C103.282 29.9532 102 31.2669 101.962 30.5715Z" fill="#192534"/>
<path d="M145.41 34.5869C145.845 35.9938 146.187 37.4278 146.434 38.8795C146.619 39.9674 146.726 41.1759 146.104 42.0842C148.474 38.51 150.949 34.8281 154.55 32.5215C153.817 31.7244 153.259 30.7816 152.913 29.7543C152.567 28.727 152.44 27.6382 152.541 26.5586C152.561 26.343 149.585 27.4694 149.357 27.5977C148.313 28.1802 147.356 28.9037 146.337 29.5272C145.81 29.8479 143.614 30.6074 143.593 31.0667C143.593 31.3617 144.466 32.2649 144.63 32.5754C144.951 33.2204 145.213 33.8938 145.41 34.5869Z" fill="#FBBEBE"/>
<path d="M156.424 169.388C155.839 168.975 155.153 168.728 154.439 168.674C153.726 168.62 153.011 168.76 152.37 169.08C151.211 169.68 150.43 170.817 149.375 171.587C147.563 172.906 145.17 173.011 143.049 173.724C142.485 173.914 141.887 174.196 141.649 174.75C141.569 174.983 141.537 175.23 141.555 175.476C141.573 175.721 141.641 175.961 141.753 176.18C142.108 176.972 142.73 177.614 143.509 177.994C144.461 178.45 145.557 178.471 146.611 178.484L155.774 178.591C158.589 178.625 161.423 178.658 164.22 179.01C164.873 179.092 165.579 179.182 166.155 178.861C167.092 178.348 167.199 177.049 167.128 175.979C166.939 173.269 166.335 170.603 165.336 168.077C165.226 167.797 165.08 167.479 164.77 167.428C164.551 167.418 164.334 167.487 164.161 167.623C161.576 169.162 158.303 170.032 155.554 168.8" fill="white"/>
<path d="M161.01 110.786C159.986 116.746 160.654 122.871 161.806 128.805C162.018 129.987 162.298 131.155 162.643 132.305C163.055 133.614 163.61 134.871 163.997 136.187C164.98 139.523 164.842 143.089 164.696 146.571L164.025 162.415C163.969 163.744 163.918 165.104 164.317 166.371C164.478 166.884 164.675 167.526 164.268 167.872C164.109 167.987 163.923 168.058 163.728 168.08C161.897 168.418 160.005 168.134 158.353 167.272L158.172 151.266C158.115 146.332 158.057 141.378 157.299 136.505C156.698 132.631 155.653 128.808 155.584 124.887C155.513 120.782 156.516 116.731 157.54 112.751C157.76 111.899 158.563 111.276 159.224 110.699C159.454 110.471 159.735 110.3 160.043 110.201C160.35 110.116 160.821 110.527 161.01 110.786Z" fill="#3F3D56"/>
<path opacity="0.1" d="M161.01 110.786C159.986 116.746 160.654 122.871 161.806 128.805C162.018 129.987 162.298 131.155 162.643 132.305C163.055 133.614 163.61 134.871 163.997 136.187C164.98 139.523 164.842 143.089 164.696 146.571L164.025 162.415C163.969 163.744 163.918 165.104 164.317 166.371C164.478 166.884 164.675 167.526 164.268 167.872C164.109 167.987 163.923 168.058 163.728 168.08C161.897 168.418 160.005 168.134 158.353 167.272L158.172 151.266C158.115 146.332 158.057 141.378 157.299 136.505C156.698 132.631 155.653 128.808 155.584 124.887C155.513 120.782 156.516 116.731 157.54 112.751C157.76 111.899 158.563 111.276 159.224 110.699C159.454 110.471 159.735 110.3 160.043 110.201C160.35 110.116 160.821 110.527 161.01 110.786Z" fill="black"/>
<path d="M141.791 92.1583C141.412 93.7208 142.216 95.3398 142.126 96.946C142.075 97.9185 141.694 98.8883 141.87 99.8428C142.047 100.797 142.728 101.516 143.091 102.391C143.356 103.121 143.496 103.892 143.506 104.669C143.611 106.588 143.526 108.518 143.455 110.429C143.334 113.636 143.245 116.862 143.667 120.041C144.035 122.795 144.782 125.485 145.886 128.033C146.221 128.726 146.497 129.446 146.713 130.186C146.854 130.875 146.948 131.573 146.994 132.274C147.238 134.557 147.849 136.785 148.804 138.871C149.457 140.3 150.595 141.437 150.956 142.953C151.299 144.405 151.069 145.937 151.317 147.407C151.499 148.498 151.942 149.529 152.187 150.607C152.507 152 152.5 153.445 152.661 154.866C153.122 158.971 154.982 163.077 153.872 167.059C153.649 167.859 153.303 168.673 153.459 169.489C153.536 169.889 153.731 170.284 153.644 170.682C153.572 171.02 153.311 171.282 153.178 171.603C152.922 172.203 153.193 172.916 153.649 173.381C154.135 173.814 154.7 174.148 155.312 174.366C157.199 175.174 159.152 175.995 161.199 175.977C161.448 175.991 161.696 175.945 161.923 175.844C162.292 175.652 162.474 175.233 162.63 174.849L163.679 172.247C163.807 171.931 163.935 171.562 163.759 171.269C163.636 171.109 163.487 170.97 163.318 170.859C162.471 170.143 162.663 168.806 162.888 167.731C163.464 164.97 163.782 162.161 163.84 159.341C163.953 153.717 163.029 148.126 162.108 142.576C161.788 140.649 161.465 138.709 160.828 136.862C160.191 135.015 159.251 133.237 159.405 131.317C159.569 129.244 159.031 127.071 159.405 125.026C159.779 122.981 160.37 120.98 160.751 118.937C161.245 116.287 161.368 113.585 161.519 110.896C161.583 109.798 161.665 108.664 162.177 107.689C162.476 107.119 162.911 106.632 163.247 106.08C164.112 104.646 164.25 102.868 165.077 101.41C165.468 100.72 166.008 100.112 166.295 99.3733C166.496 98.7904 166.602 98.1786 166.607 97.5618C166.688 96.0133 166.602 94.4606 166.351 92.9306C161.994 90.708 157.162 89.5842 152.274 89.6566C150.404 89.6874 148.512 89.8773 146.756 90.5264C145.082 91.1499 143.557 92.0248 141.791 92.1583Z" fill="#3F3D56"/>
<path d="M152.285 173.448C151.533 174.387 151.584 175.729 151.103 176.835C150.519 178.177 149.219 179.036 147.985 179.819L140.307 184.694C139.887 184.95 139.437 185.266 139.283 185.743C139.211 186.048 139.224 186.367 139.322 186.664C139.505 187.308 139.847 187.895 140.315 188.372C140.784 188.849 141.365 189.201 142.004 189.394C142.684 189.556 143.382 189.628 144.08 189.607L147.532 189.653C148.584 189.695 149.638 189.653 150.683 189.53C151.64 189.392 152.572 189.117 153.524 188.943C155.257 188.627 157.038 188.655 158.773 188.35C159.836 188.14 160.885 187.869 161.916 187.537C163.17 187.159 164.448 186.767 165.523 186.02C165.818 185.84 166.059 185.58 166.216 185.271C166.398 184.848 166.298 184.363 166.196 183.914L164.547 176.652C164.454 176.048 164.235 175.47 163.902 174.956C163.536 174.469 162.879 174.146 162.308 174.353C162.072 174.461 161.85 174.595 161.645 174.754C160.8 175.311 159.718 175.403 158.72 175.228C158.075 175.113 157.222 174.936 156.703 174.507C156.309 174.182 156.191 173.676 155.856 173.307C155.621 173.065 155.337 172.875 155.024 172.75C154.712 172.625 154.376 172.567 154.039 172.58C153.702 172.593 153.372 172.677 153.07 172.827C152.768 172.976 152.501 173.188 152.285 173.448Z" fill="white"/>
<path d="M147.307 33.5863C152.414 33.5863 156.554 29.4359 156.554 24.3161C156.554 19.1963 152.414 15.0459 147.307 15.0459C142.2 15.0459 138.06 19.1963 138.06 24.3161C138.06 29.4359 142.2 33.5863 147.307 33.5863Z" fill="#FBBEBE"/>
<path d="M140.174 24.8599C141.06 24.3622 141.06 22.9279 141.966 22.4506C142.872 21.9734 143.901 22.8022 144.482 23.6386C145.329 24.8636 145.916 26.2493 146.209 27.7105C146.291 28.1262 146.368 28.5803 146.68 28.8702C146.992 29.1602 147.402 29.1961 147.801 29.2372C148.97 29.3535 150.141 29.4595 151.313 29.5553C152.618 29.6605 153.995 29.7452 155.18 29.1833C155.648 28.9737 156.049 28.6401 156.342 28.2185C156.577 27.8137 156.744 27.3736 156.839 26.9151C157.45 24.5828 158.067 22.2223 158.118 19.8104C158.139 18.8149 158.052 17.7835 157.573 16.9111C157.294 16.3979 156.885 15.9515 156.769 15.387C156.654 14.8225 157.025 14.1041 157.609 14.1657C157.081 14.1875 156.556 14.0874 156.073 13.8732C155.61 13.6166 155.267 13.065 155.431 12.5621C154.131 12.7289 153.184 11.4408 152.17 10.607C152.005 10.4432 151.783 10.351 151.551 10.3504C151.373 10.3949 151.201 10.4613 151.039 10.5479C150.527 10.7275 149.992 10.3863 149.467 10.2375C148.06 9.84235 146.271 10.7968 145.226 9.77051C145.326 10.4248 144.525 10.8635 143.865 10.8507C143.205 10.8379 142.524 10.5941 141.899 10.8148C141.99 10.9806 142.042 11.1644 142.054 11.3531C142.065 11.5418 142.035 11.7306 141.965 11.9062C141.895 12.0817 141.787 12.2396 141.649 12.3685C141.511 12.4974 141.347 12.5942 141.167 12.6519L141.477 13.3293C141.158 13.3932 140.863 13.5453 140.625 13.7684C140.388 13.9914 140.218 14.2766 140.133 14.5916C139.793 15.9387 139.877 17.8527 139.959 19.2383C140 19.8464 140.591 24.6316 140.174 24.8599Z" fill="#192534"/>
<path d="M148.065 36.265C143.419 41.5018 142.237 48.8733 141.246 55.8138L139.788 66.0616C139.409 68.7197 139.02 71.3779 138.69 74.0437C138.459 75.868 138.244 77.7205 138.495 79.5422C138.692 80.9791 139.171 82.3646 139.57 83.7476C140.609 87.3749 141.126 91.1323 141.106 94.9062C141.415 93.9928 142.488 93.6233 143.43 93.418C151.333 91.6991 159.578 92.5818 166.94 95.9351C168.233 92.3045 167.99 88.3326 168.351 84.4942C168.863 79.0214 170.626 73.7179 171.148 68.2553C171.34 66.2206 171.363 64.1757 171.384 62.1308C171.399 60.6298 171.414 59.1134 171.102 57.6432C170.754 56.0165 170.019 54.5001 169.259 53.0248C167.158 48.9237 164.823 44.947 162.267 41.1144C160.98 39.1849 159.638 37.2939 158.241 35.4414C157.533 34.5024 156.81 33.5735 156.073 32.655C155.359 31.7647 155.049 30.9924 153.916 31.526C151.773 32.5318 149.623 34.5075 148.065 36.265Z" fill="#820E96"/>
<path d="M150.727 79.8521C149.593 79.8931 148.459 79.8571 147.33 79.7443C146.493 79.6622 145.638 79.539 144.822 79.7443C144.467 79.8339 144.135 79.9974 143.847 80.2241C143.74 80.3193 143.664 80.4436 143.626 80.5818C143.589 80.7201 143.593 80.8662 143.637 81.0023C143.681 81.1385 143.764 81.2587 143.876 81.3483C143.987 81.438 144.122 81.4931 144.264 81.507L145.139 81.584C145.695 81.6327 146.273 81.6892 146.706 82.0971C146.883 82.2574 146.996 82.4774 147.023 82.7155C147.077 83.3133 146.56 83.6392 146.097 83.888C145.438 84.1981 144.829 84.6045 144.29 85.094C143.867 85.503 143.602 86.048 143.54 86.6334C143.538 86.6856 143.55 86.7374 143.574 86.7836C143.598 86.8298 143.634 86.8687 143.678 86.8966C143.722 86.9244 143.773 86.9401 143.825 86.9421C143.877 86.9441 143.929 86.9323 143.975 86.908C144.999 86.3948 145.667 84.8733 146.79 85.1273C145.768 85.4517 144.893 86.1267 144.318 87.0337C144.176 87.2503 144.111 87.5085 144.134 87.7666C144.157 88.0246 144.266 88.2674 144.444 88.4554C144.622 88.6434 144.858 88.7657 145.114 88.8025C145.369 88.8392 145.63 88.7883 145.853 88.6578C146.02 88.5602 146.18 88.4531 146.335 88.3371C147.096 87.7193 147.778 87.0092 148.364 86.2229C147.545 87.9548 146.716 89.9818 147.658 91.7034C147.705 91.7981 147.778 91.8771 147.869 91.9309C147.96 91.9846 148.064 92.0108 148.17 92.0062C148.467 91.9754 148.554 91.6957 148.602 91.4494C148.756 90.6566 148.794 89.8201 149.183 89.1145C150.084 87.4776 152.306 87.3185 153.998 86.5205C156.027 85.5763 157.417 83.5442 157.977 81.3736C158.174 80.7405 158.208 80.0682 158.077 79.4184C157.701 77.9585 155.904 77.6224 154.75 78.328C153.335 79.2286 152.513 79.7956 150.727 79.8521Z" fill="#FBBEBE"/>
<path opacity="0.1" d="M148.93 51.1337C150.721 53.9073 153.831 55.4699 156.498 57.4173C157.149 57.8421 157.716 58.3831 158.172 59.0132C158.845 60.0549 158.94 61.3789 158.801 62.6053C158.627 64.2244 158.108 65.7818 157.593 67.3264L156.475 70.6748C155.766 72.7992 155.034 74.9673 153.685 76.7531C153.34 77.2072 152.938 77.6922 152.953 78.2618C152.983 78.5908 153.096 78.9069 153.281 79.1803C153.712 79.8865 154.281 80.4984 154.954 80.9797C155.626 81.461 156.388 81.8019 157.194 81.9822C157.677 82.1053 158.183 82.1053 158.666 81.9822C159.357 81.7769 159.876 81.2124 160.357 80.6788C162.661 78.1309 164.964 75.5472 166.628 72.558C168.253 69.6407 169.226 66.4001 170.122 63.1903C170.491 62.0087 170.748 60.7949 170.889 59.5649C171.079 57.2557 170.475 54.9465 169.487 52.8605C168.499 50.7745 167.14 48.8861 165.74 47.0515C164.419 45.2496 162.95 43.5606 161.351 42.0021C158.566 39.3926 155.159 37.8583 151.433 39.3388C148.802 40.3856 147.816 42.5691 147.581 45.3658C147.382 47.3851 147.856 49.4136 148.93 51.1337Z" fill="black"/>
<path d="M149.862 50.4308C151.653 53.2045 154.765 54.767 157.43 56.7145C158.078 57.1434 158.643 57.6878 159.096 58.3207C159.769 59.3624 159.864 60.6837 159.726 61.9128C159.549 63.5318 159.032 65.0892 158.515 66.6338L157.396 69.9693C156.688 72.0938 155.956 74.2593 154.607 76.0477C154.264 76.5018 153.862 76.9842 153.877 77.5564C153.905 77.885 154.018 78.2006 154.205 78.4724C154.636 79.1788 155.204 79.7911 155.876 80.2729C156.548 80.7546 157.31 81.096 158.116 81.2768C158.599 81.3999 159.106 81.3999 159.59 81.2768C160.281 81.0741 160.798 80.507 161.282 79.9759C163.585 77.4255 165.889 74.8443 167.552 71.8552C169.177 68.9379 170.15 65.6973 171.046 62.4849C171.416 61.3044 171.673 60.0913 171.814 58.862C172.003 56.5528 171.399 54.2436 170.414 52.1551C169.428 50.0665 168.067 48.1807 166.667 46.3461C165.341 44.5536 163.869 42.8741 162.267 41.3249C159.485 38.718 156.078 37.1811 152.352 38.6641C149.718 39.711 148.735 41.8919 148.497 44.6912C148.31 46.7028 148.789 48.7203 149.862 50.4308Z" fill="#820E96"/>
</svg>
