<svg width="192" height="124" viewBox="0 0 192 124" fill="none" xmlns="http://www.w3.org/2000/svg">
<g clip-path="url(#clip0)">
<path d="M139.309 116.334L138.312 103.897L135.461 117.048C135.461 117.048 135.499 120.366 135.593 124H139.245C139.368 119.846 139.309 116.334 139.309 116.334Z" fill="#F2F2F2"/>
<path d="M88.015 120.756C87.7343 119.593 87.5361 118.412 87.4219 117.221L87.0229 112.919C86.8551 111.74 86.6827 110.702 86.5094 109.786C85.2388 103.253 83.927 103.017 83.927 103.017C83.8706 103.06 83.8158 103.108 83.7595 103.157C83.6053 103.298 83.4618 103.45 83.33 103.612C81.2408 106.275 79.8235 113.182 79.0789 117.765C78.6677 120.296 78.4629 122.117 78.4629 122.117C78.4629 122.117 78.6491 122.893 78.903 124H88.4364C88.4003 122.907 88.2591 121.821 88.015 120.756Z" fill="#F2F2F2"/>
<path d="M162.979 0H29.021C13.0594 0 0 13.0982 0 29.1071V94.8929C0 110.902 13.0594 124 29.021 124H71.4784L70.9305 121.413C70.9305 121.413 69.5213 112.292 70.9305 105.181C71.3856 102.95 71.6978 100.692 71.8653 98.4208C72.0416 95.8569 72.4595 93.3154 73.1133 90.8304C73.1505 90.687 73.1924 90.5448 73.2313 90.4018C72.8876 90.308 72.7297 90.2331 72.8095 90.1858C73.0297 90.0554 73.1508 89.6559 73.2112 89.1491C73.5865 85.7935 74.3023 82.4851 75.3475 79.2753C73.9236 80.1719 72.9781 80.2671 72.3592 79.9197C70.1842 79.324 71.0871 74.4177 71.0871 74.4177C71.0871 74.4177 72.4388 63.8059 72.8878 59.9635C73.1459 57.7549 76.4534 56.5034 79.3813 55.8239C79.6898 55.1601 79.912 54.4915 79.7709 53.7898C79.7614 53.7426 79.7477 53.6969 79.7352 53.6507C79.363 52.8214 78.6062 52.1391 78.3223 51.2803C78.1964 51.0492 78.1077 50.7995 78.0596 50.5406C77.8081 49.0682 79.1808 47.7963 79.5766 46.3802C79.1728 45.9891 78.8714 45.5043 78.6988 44.9685C78.0957 43.7278 78.3897 42.2386 80.3266 41.0888C80.7132 40.8593 81.1229 40.6567 81.5391 40.4623C81.6915 40.3635 81.8573 40.2872 82.0315 40.2359C83.4173 39.6072 84.8102 38.9989 85.6395 37.7748C85.8531 37.4596 86.0404 37.0939 86.386 36.9281C86.5488 36.8583 86.723 36.8192 86.9 36.8127C89.5703 36.6071 91.9881 38.9038 94.6456 38.5746C95.4507 38.4749 96.2726 38.1355 97.0453 38.3798C97.5531 38.5403 97.9494 38.9316 98.2906 39.336C99.2194 40.4481 99.892 41.752 100.26 43.1548C100.629 44.5577 100.684 46.0247 100.422 47.4513C100.085 49.2072 99.2652 51.0171 99.8556 52.7064C100.29 53.9478 101.451 54.9552 101.459 56.2683C101.466 57.3488 100.701 58.211 99.9625 59.0517C100.059 59.1503 100.152 59.2515 100.243 59.3554C102.049 61.4187 101.708 63.1796 101.453 63.8847L101.453 63.8851L100.525 72.8718L99.7418 78.9008C99.7418 78.9008 99.5481 81.375 97.7247 81.9177C97.1934 82.1641 96.4976 82.2291 95.5829 81.9498C94.9893 81.7687 94.4892 81.5876 94.0647 81.4116C94.4659 82.6967 95.1564 85.3205 95.0443 87.867C94.8877 91.4225 95.3574 91.7317 95.3574 91.7317C95.328 91.7682 95.2946 91.8013 95.2578 91.8305C97.1178 95.952 97.1349 100.181 95.2009 104.408C93.0087 109.2 95.3574 120.331 95.3574 120.331C95.3574 120.331 95.5246 122.067 95.5998 124H129.228C128.693 118.883 128.051 113.761 127.765 113.189C127.295 112.245 127.892 96.6939 128.115 91.2923C128.016 91.2672 127.919 91.2416 127.828 91.2153C127.669 91.1696 127.526 91.1219 127.394 91.0732C127.387 91.3481 127.416 91.6227 127.48 91.89C127.678 92.3533 127.203 92.6937 126.397 92.926C126.866 95.2225 127.445 99.4957 125.485 100.324C123.468 101.175 123.428 96.0018 123.538 93.3051C123.284 93.3145 123.029 93.3195 122.777 93.3195C120.354 93.3195 123.49 65.1597 123.347 63.3014C123.205 61.4431 124.487 53.8671 124.487 53.8671C124.487 53.8671 124.915 52.2948 126.197 52.0089C127.48 51.723 133.609 48.1494 133.609 48.1494C133.953 47.6638 134.389 47.2501 134.891 46.9315V46.72C135.051 46.5707 135.221 46.4327 135.4 46.3071C135.325 45.0581 135.157 43.4468 135.034 42.3582C134.345 41.6542 133.88 40.7611 133.697 39.7919C133.434 39.5864 133.185 39.3642 132.95 39.1269C132.362 38.4502 132.024 37.5905 131.995 36.693C131.968 35.8016 132.097 34.9124 132.375 34.0652C132.447 33.7837 132.558 33.5137 132.705 33.2628C132.906 32.9719 133.159 32.7205 133.451 32.5209C133.537 32.4565 133.627 32.3962 133.716 32.3355C133.905 31.9673 134.182 31.6519 134.522 31.4175C135.25 30.9385 136.186 30.9776 137.056 30.9994C137.069 30.9997 137.082 30.9996 137.095 30.9997C137.256 30.9736 137.418 30.9521 137.581 30.9351C137.676 30.9162 137.763 30.8699 137.833 30.8019C137.902 30.7339 137.95 30.6471 137.97 30.5522C138.088 30.6657 138.206 30.7791 138.324 30.8926C138.5 30.89 138.677 30.8931 138.853 30.9017C138.932 30.7223 139.023 30.5493 139.128 30.3841C139.193 30.5688 139.257 30.7534 139.322 30.9381C139.499 30.957 139.676 30.9808 139.851 31.0115C139.99 30.901 140.128 30.7906 140.267 30.6802C140.298 30.6557 140.408 31.0175 140.464 31.1417C140.559 31.1662 140.654 31.1923 140.748 31.2216C140.895 31.2148 141.059 31.1872 141.15 31.1887C141.651 31.1717 142.147 31.2957 142.582 31.5469C142.962 31.8238 143.273 32.1843 143.493 32.6007C144.052 33.4892 144.4 34.4954 144.509 35.5409C144.781 35.9189 144.973 36.349 145.072 36.8044C145.308 38.2393 143.948 39.4384 143.679 40.8673C143.535 41.6296 143.699 42.4738 143.312 43.1455C143.142 43.416 142.92 43.6495 142.659 43.832C142.504 43.9476 142.343 44.054 142.176 44.1507C142.185 45.0151 142.284 45.8762 142.471 46.72L142.655 47.4252C142.94 47.6314 143.247 47.8697 143.585 48.1494C143.585 48.1494 147.576 49.8647 149.001 50.7224C150.254 51.4764 151.616 51.5684 152.024 52.5506L152.136 52.5807C152.136 52.5807 153.561 68.4474 153.704 71.1633C153.846 73.8792 155.557 90.6035 155.272 91.3183C155.166 91.5828 154.494 91.8863 153.683 92.1277C154.156 94.2986 154.921 99.0199 152.849 99.8949C150.748 100.782 150.792 95.1334 150.917 92.5542C150.637 92.5288 150.453 92.4553 150.426 92.3189C150.403 92.2027 150.328 91.6778 150.221 90.8776C150.044 90.9054 149.859 90.9339 149.663 90.9638C149.624 90.9697 149.583 90.9759 149.543 90.9819C151.35 96.6827 147.348 111.802 146.578 114.761C146.176 116.307 145.742 120.131 145.351 124H162.979C178.941 124 192 110.902 192 94.8929V29.1071C192 13.0982 178.941 0 162.979 0Z" fill="#F2F2F2"/>
<path d="M42.9852 52.4423C53.7247 52.4423 62.4308 44.4962 62.4308 34.6943C62.4308 24.8923 53.7247 16.9463 42.9852 16.9463C32.2457 16.9463 23.5396 24.8923 23.5396 34.6943C23.5396 44.4962 32.2457 52.4423 42.9852 52.4423Z" fill="#3F3D56"/>
<path d="M75.0191 92.692C75.0191 92.692 81.5692 88.1754 81.5692 86.1224C81.5692 84.0695 86.0724 70.7251 88.5287 76.6787C90.985 82.6324 85.049 91.0496 85.049 91.0496C85.049 91.0496 78.4989 102.957 74.6097 105.01C70.7206 107.063 67.4456 105.831 67.4456 105.831V100.288L71.1877 94.7333C71.6111 94.1047 72.1819 93.5898 72.8499 93.234C73.5179 92.8781 74.2627 92.692 75.0191 92.692Z" fill="#FFB9B9"/>
<path d="M56.4011 61.248C56.4011 61.248 66.2173 64.3611 67.2408 65.7982C68.2642 67.2353 68.6736 64.7717 71.5393 74.2154C74.405 83.6592 75.1214 92.7949 75.1214 92.7949C75.1214 92.7949 68.0596 95.1558 68.8783 104.394C69.6971 113.633 67.6502 123.692 67.6502 123.692H65.0948L59.4625 106.242L66.2173 79.7585C66.2173 79.7585 56.6148 63.4727 56.4011 61.248Z" fill="#575A89"/>
<path d="M53.1174 52.6592C59.9002 52.6592 65.3988 47.1443 65.3988 40.3413C65.3988 33.5383 59.9002 28.0234 53.1174 28.0234C46.3345 28.0234 40.8359 33.5383 40.8359 40.3413C40.8359 47.1443 46.3345 52.6592 53.1174 52.6592Z" fill="#FFB9B9"/>
<path d="M57.8252 49.5801C57.8252 49.5801 54.3454 61.0768 57.4158 62.7192C60.4862 64.3615 63.9659 71.7523 63.9659 71.7523L58.6439 77.7059H46.3625L40.8358 71.547L38.5842 61.0768L41.6546 58.6132C41.6546 58.6132 44.9296 50.4013 44.9296 46.09C44.9296 41.7788 57.8252 49.5801 57.8252 49.5801Z" fill="#FFB9B9"/>
<path d="M58.8486 62.308C58.8486 62.308 56.3923 61.6921 57.8251 64.1557C59.258 66.6193 60.6908 71.1358 55.5736 71.3411C50.4563 71.5464 45.339 68.8775 43.7015 63.3345C42.064 57.7915 41.4499 58.202 40.8358 58.4073C40.2217 58.6126 33.6716 65.3875 33.6716 65.3875L35.9232 78.116L36.742 123.692H66.6269C66.6269 123.692 67.855 110.553 65.8081 107.474C63.7612 104.394 67.6503 96.5928 67.6503 96.5928C67.6503 96.5928 71.1301 91.255 68.4691 80.9901C65.8081 70.7252 59.8721 62.308 58.8486 62.308Z" fill="#CEA30F"/>
<path d="M42.2686 58.4069C42.2686 58.4069 39.1982 56.9698 36.5372 59.4334C33.8763 61.897 27.9402 63.95 27.9402 65.1817C27.9402 66.4135 33.0575 101.52 29.5778 107.678C26.098 113.837 22.4136 123.692 22.4136 123.692H39.4875C39.4875 123.692 42.2686 113.427 45.1343 107.884C47.9999 102.341 47.7952 86.738 46.9765 82.0162C46.1577 77.2943 42.2686 58.4069 42.2686 58.4069Z" fill="#575A89"/>
<path d="M24.2559 112.811L25.2527 123.692H36.3156L35.3092 110.143L24.2559 112.811Z" fill="#FFB9B9"/>
<path d="M74.6099 107.063L77.2708 123.692H136.426L141.544 90.2285L74.6099 107.063Z" fill="#3F3D56"/>
<path d="M143.795 87.9697L144.409 91.0492L67.855 109.526V106.857L143.795 87.9697Z" fill="#3F3D56"/>
<path d="M111.454 93.5133L111.045 97.0034L115.548 96.3875L113.706 92.8975L111.454 93.5133Z" fill="#3F3D56"/>
<path d="M86.6865 58.2023C86.6865 58.2023 95.6929 57.5864 98.1492 64.5666C100.605 71.5467 106.337 84.0699 108.588 85.9176C110.84 87.7653 113.296 92.6924 112.887 94.3348" stroke="#3F3D56" stroke-width="5" stroke-miterlimit="10"/>
<path d="M88.0172 58.0995C88.0172 59.0633 86.9954 59.8446 85.3562 59.8446C83.717 59.8446 82.8999 59.0633 82.8999 58.0995C82.8999 57.1358 83.717 56.3545 85.3562 56.3545C86.9954 56.3545 88.0172 57.1358 88.0172 58.0995Z" fill="#CEA30F"/>
<path d="M72.8698 90.126C72.8698 90.126 74.4049 83.6592 71.5393 74.2154C68.6736 64.7717 68.2642 67.2353 67.2408 65.7982C66.2173 64.3611 56.4011 61.248 56.4011 61.248C56.4713 61.9791 57.5553 64.2284 58.9792 66.9191C58.7229 65.9492 58.3345 65.0194 57.825 64.1558C56.3922 61.6923 58.8485 62.3082 58.8485 62.3082C59.8719 62.3082 65.8079 70.7254 68.4689 80.9903C71.1299 91.2552 67.6502 96.5929 67.6502 96.5929L72.8698 90.126Z" fill="#575A89"/>
<path d="M56.4946 61.1787C56.4946 61.1787 57.7064 65.7892 58.7381 66.4608C59.7697 67.1324 65.8878 73.5076 65.8878 73.5076L65.0916 68.3641L61.8166 63.437L60.9455 62.803L56.4946 61.1787Z" fill="#575A89"/>
<path opacity="0.1" d="M29.2708 75.3443L29.5562 64.7715C29.5562 64.7715 22.823 67.6457 22.209 79.9635C21.5949 92.2814 23.2324 115.48 25.484 115.685C27.7356 115.891 38.3795 113.427 38.3795 113.427C38.3795 113.427 40.0171 83.6589 39.403 79.7582C38.7889 75.8576 29.2708 75.3443 29.2708 75.3443Z" fill="black"/>
<path d="M29.7827 64.7715H28.1236C28.1236 64.7715 21.3904 67.6457 20.7763 79.9635C20.1623 92.2814 21.7998 115.48 24.0514 115.685C26.303 115.891 36.9469 113.427 36.9469 113.427C36.9469 113.427 38.5844 83.6589 37.9704 79.7582C37.3563 75.8576 29.7827 64.7715 29.7827 64.7715Z" fill="#575A89"/>
<path d="M38.4819 51.3245C45.4908 51.3245 51.1727 44.9364 51.1727 37.0563C51.1727 29.1762 45.4908 22.7881 38.4819 22.7881C31.4729 22.7881 25.791 29.1762 25.791 37.0563C25.791 44.9364 31.4729 51.3245 38.4819 51.3245Z" fill="#3F3D56"/>
<path d="M47.5906 48.6556C49.0037 48.6556 50.1493 46.9552 50.1493 44.8576C50.1493 42.76 49.0037 41.0596 47.5906 41.0596C46.1775 41.0596 45.032 42.76 45.032 44.8576C45.032 46.9552 46.1775 48.6556 47.5906 48.6556Z" fill="#FFB9B9"/>
<path d="M25.791 33.2578C31.5565 33.2578 36.2303 28.5701 36.2303 22.7876C36.2303 17.0051 31.5565 12.3174 25.791 12.3174C20.0256 12.3174 15.3518 17.0051 15.3518 22.7876C15.3518 28.5701 20.0256 33.2578 25.791 33.2578Z" fill="#3F3D56"/>
<path d="M27.1401 31.1757C25.6235 31.9496 23.9413 32.34 22.24 32.3128C20.5386 32.2856 18.8697 31.8416 17.3785 31.0196C15.8873 30.1976 14.6191 29.0224 13.6843 27.5964C12.7495 26.1704 12.1764 24.5368 12.015 22.8379C11.7921 24.3044 11.8824 25.8017 12.2801 27.2305C12.6778 28.6594 13.3737 29.9871 14.3217 31.1258C15.2697 32.2645 16.4482 33.1881 17.779 33.8355C19.1098 34.4828 20.5626 34.8391 22.0411 34.8807C23.5196 34.9223 24.99 34.6483 26.355 34.0768C27.7199 33.5053 28.9481 32.6494 29.9583 31.5659C30.9685 30.4823 31.7375 29.1957 32.2144 27.7915C32.6914 26.3873 32.8653 24.8974 32.7247 23.4207C32.4763 25.0658 31.84 26.6276 30.8687 27.9764C29.8974 29.3253 28.6191 30.4221 27.1401 31.1757Z" fill="#3F3D56"/>
<path d="M20.0638 24.519C19.0156 23.1747 18.3108 21.5938 18.0111 19.9138C17.7113 18.2339 17.8255 16.506 18.3437 14.8804C18.862 13.2549 19.7687 11.7811 20.9847 10.5873C22.2007 9.39359 23.6893 8.51609 25.3207 8.03125C23.8429 8.09318 22.3951 8.4694 21.0733 9.13497C19.7514 9.80055 18.5857 10.7403 17.6533 11.8919C16.721 13.0435 16.0433 14.3807 15.6652 15.8149C15.2871 17.2491 15.2172 18.7475 15.4601 20.2108C15.7031 21.6741 16.2533 23.0689 17.0744 24.3028C17.8955 25.5367 18.9686 26.5815 20.2227 27.368C21.4768 28.1544 22.8833 28.6646 24.3489 28.8646C25.8144 29.0647 27.3056 28.95 28.7237 28.5283C27.0663 28.5995 25.4159 28.2728 23.9097 27.5755C22.4035 26.8781 21.085 25.8303 20.0638 24.519Z" fill="#3F3D56"/>
<path d="M53.8337 36.1325C57.9034 36.1325 61.2026 33.7427 61.2026 30.7948C61.2026 27.8468 57.9034 25.457 53.8337 25.457C49.764 25.457 46.4648 27.8468 46.4648 30.7948C46.4648 33.7427 49.764 36.1325 53.8337 36.1325Z" fill="#3F3D56"/>
</g>
<defs>
<clipPath id="clip0">
<rect width="192" height="124" fill="white"/>
</clipPath>
</defs>
</svg>
