<svg width="199" height="237" viewBox="0 0 199 237" fill="none" xmlns="http://www.w3.org/2000/svg">
<g clip-path="url(#clip0)">
<path d="M198.884 235.19H120.826V234.552H199L198.884 235.19Z" fill="#3F3D56"/>
<path d="M152.589 222.685H148.349V231.775H152.589V222.685Z" fill="#FBBEBE"/>
<path d="M185.601 222.988H181.361V232.079H185.601V222.988Z" fill="#FBBEBE"/>
<path d="M186.055 227.381L180.907 226.775L167.581 165.261L153.044 227.078L147.895 226.472C147.046 198.501 149.528 170.518 151.681 147.231L182.421 144.655C188.213 167.603 188.45 196.162 186.055 227.381Z" fill="#2F2E41"/>
<path d="M182.858 148.296C182.858 148.296 175.698 155.771 179.745 157.64C183.791 159.509 186.282 149.23 186.282 149.23L182.858 148.296Z" fill="#FBBEBE"/>
<path d="M146.212 148.901C146.212 148.901 139.052 156.377 143.099 158.245C147.146 160.114 149.636 149.836 149.636 149.836L146.212 148.901Z" fill="#FBBEBE"/>
<path d="M168.035 94.8074C172.719 94.8074 176.515 91.0086 176.515 86.3226C176.515 81.6366 172.719 77.8379 168.035 77.8379C163.352 77.8379 159.555 81.6366 159.555 86.3226C159.555 91.0086 163.352 94.8074 168.035 94.8074Z" fill="#FBBEBE"/>
<path d="M177.878 104.05L162.735 105.565C164.135 99.261 164.474 93.3709 162.735 88.293H173.335C172.759 92.5242 174.912 98.0884 177.878 104.05Z" fill="#FBBEBE"/>
<path d="M182.118 147.989C176.46 154.799 164.569 152.522 150.924 147.686C154.796 135.04 154.195 121.698 150.716 107.908C150.526 107.167 150.604 106.382 150.937 105.693C151.269 105.004 151.835 104.455 152.533 104.143L163.644 99.202L167.884 100.111L175.152 98.293L185.47 100.405C186.309 100.576 187.058 101.043 187.583 101.721C188.107 102.398 188.372 103.241 188.329 104.097C187.466 121.023 185.939 136.687 182.118 147.989Z" fill="#E6E6E6"/>
<path d="M185.147 153.444L182.421 148.898L187.569 129.505L184.844 100.414C186.602 100.59 188.259 101.321 189.575 102.501C190.891 103.681 191.797 105.249 192.164 106.978L196.299 126.483C196.922 129.423 196.548 132.488 195.236 135.191L185.147 153.444Z" fill="#E6E6E6"/>
<path d="M149.712 150.11L143.504 151.171L147.463 112.395C147.501 110.46 148.108 108.579 149.209 106.987C150.309 105.395 151.853 104.163 153.649 103.444L155.618 129.05L149.712 150.11Z" fill="#E6E6E6"/>
<path d="M150.977 234.952L139.549 236.96C139.03 237.052 138.496 236.98 138.02 236.755C137.643 236.577 137.315 236.309 137.066 235.974C136.817 235.64 136.653 235.249 136.59 234.837C136.526 234.425 136.565 234.003 136.702 233.609C136.84 233.215 137.072 232.861 137.378 232.578L142.273 228.046L143.549 225.814C143.908 225.168 144.421 224.62 145.041 224.219C145.661 223.817 146.371 223.574 147.107 223.511C149.29 223.36 150.01 225.022 149.554 228.142C151.211 229.362 151.473 229.175 152.589 227.533L153.096 232.677C153.038 233.235 152.8 233.759 152.417 234.17C152.035 234.581 151.529 234.855 150.977 234.952Z" fill="#2F2E41"/>
<path d="M183.988 234.952L172.56 236.96C172.042 237.052 171.508 236.98 171.031 236.755C170.654 236.577 170.327 236.309 170.078 235.974C169.828 235.64 169.665 235.249 169.601 234.837C169.538 234.425 169.576 234.003 169.714 233.609C169.851 233.215 170.083 232.861 170.389 232.578L175.285 228.046L176.561 225.814C176.92 225.168 177.432 224.62 178.052 224.219C178.673 223.817 179.382 223.574 180.119 223.511C182.301 223.36 183.021 225.022 182.565 228.142C184.223 229.362 184.485 229.175 185.601 227.533L186.107 232.677C186.049 233.235 185.811 233.759 185.429 234.17C185.046 234.581 184.541 234.855 183.988 234.952Z" fill="#2F2E41"/>
<path d="M161.302 81.489C165.124 79.301 168.951 80.6989 172.785 86.6691L173.569 93.0287C179.324 87.5743 179.033 80.1306 172.58 77.1031C171.945 76.8054 171.33 76.4669 170.64 76.5866C169.276 75.8538 167.683 75.6696 166.187 76.0716C164.692 76.4736 163.406 77.4315 162.592 78.7498C161.4 78.9564 159.691 81.3264 159.752 82.5355L161.302 81.489Z" fill="#2F2E41"/>
<path d="M172.426 88.1413C173.012 88.1413 173.486 87.5308 173.486 86.7777C173.486 86.0246 173.012 85.4141 172.426 85.4141C171.841 85.4141 171.366 86.0246 171.366 86.7777C171.366 87.5308 171.841 88.1413 172.426 88.1413Z" fill="#FBBEBE"/>
<path d="M45.8538 151.514H63.5003C63.5003 153.362 62.7664 155.135 61.46 156.442C60.1537 157.749 58.382 158.483 56.5345 158.483H52.8195C50.9721 158.483 49.2003 157.749 47.894 156.442C46.5876 155.135 45.8538 153.362 45.8538 151.514H45.8538Z" fill="#3F3D56"/>
<path d="M67.6241 135.909V129.432C67.6241 121.606 76.1309 114.204 81.6493 108.922C89.4279 101.482 93.5168 91.4864 93.5168 79.7769C93.5167 69.489 89.4395 59.621 82.1791 52.3363C74.9186 45.0516 65.0675 40.9448 54.7854 40.9162C44.5034 40.8875 34.6295 44.9395 27.3287 52.1837C20.0278 59.4278 15.8958 69.273 15.8385 79.5607C15.8383 79.6327 15.8383 79.7048 15.8385 79.7769C15.8385 91.0681 20.1027 101.741 27.706 108.922C33.1948 114.107 41.7313 121.525 41.7313 129.432V135.909" fill="#A8149E"/>
<path d="M67.6237 136.818C67.5043 136.818 67.3862 136.794 67.276 136.748C67.1657 136.703 67.0656 136.636 66.9812 136.551C66.8968 136.467 66.8299 136.367 66.7842 136.256C66.7386 136.146 66.7151 136.028 66.7151 135.909V129.432C66.7151 121.818 74.2197 114.711 79.6993 109.521C80.1541 109.09 80.5962 108.671 81.0208 108.265C88.6011 101.014 92.6077 91.1633 92.6077 79.7764C92.6077 58.495 75.9468 41.8246 54.6772 41.8246C54.6416 41.8244 54.6058 41.8244 54.5702 41.8244C44.5606 41.8357 34.9626 45.8119 27.8748 52.8837C20.787 59.9555 16.786 69.5476 16.7466 79.5627V79.7745C16.7466 90.9264 20.9683 101.309 28.3293 108.261C28.7022 108.613 29.0895 108.976 29.4872 109.349C35.0377 114.548 42.6394 121.669 42.6394 129.432V135.909C42.6394 136.15 42.5437 136.381 42.3733 136.551C42.2029 136.722 41.9718 136.818 41.7308 136.818C41.4899 136.818 41.2588 136.722 41.0884 136.551C40.918 136.381 40.8223 136.15 40.8223 135.909V129.432C40.8223 122.458 33.553 115.648 28.2453 110.676C27.8457 110.302 27.4566 109.937 27.0819 109.583C19.3589 102.289 14.9294 91.4245 14.9294 79.7764V79.5583C14.9904 57.7268 32.7631 40.0062 54.5675 40.0062C54.6063 40.0062 54.6412 40.0062 54.6798 40.0064C59.907 39.9792 65.0877 40.9894 69.9223 42.9784C74.7568 44.9674 79.1492 47.8959 82.8453 51.5943C86.5415 55.2928 89.468 59.6878 91.4556 64.5252C93.4432 69.3625 94.4524 74.5462 94.4249 79.7764C94.4249 91.6716 90.2241 101.977 82.2767 109.579C81.8501 109.987 81.4056 110.409 80.9485 110.841C75.7085 115.804 68.5322 122.601 68.5322 129.432V135.909C68.5322 136.028 68.5087 136.146 68.4631 136.256C68.4174 136.367 68.3505 136.467 68.2661 136.551C68.1818 136.636 68.0816 136.703 67.9714 136.748C67.8611 136.794 67.743 136.818 67.6237 136.818Z" fill="#3F3D56"/>
<path d="M63.3081 148.482H46.0463C45.6447 148.482 45.2595 148.323 44.9755 148.039C44.6915 147.755 44.532 147.369 44.532 146.967C44.532 146.565 44.6915 146.18 44.9755 145.896C45.2595 145.612 45.6447 145.452 46.0463 145.452H63.3081C63.7097 145.452 64.0949 145.612 64.3789 145.896C64.6629 146.18 64.8224 146.565 64.8224 146.967C64.8224 147.369 64.6629 147.755 64.3789 148.039C64.0949 148.323 63.7097 148.482 63.3081 148.482Z" fill="#A8149E"/>
<path d="M14.5184 44.0609C14.1523 44.0613 13.7986 43.9284 13.5231 43.6871L0.518757 32.3293C0.368742 32.1985 0.245956 32.0394 0.157423 31.8611C0.0688898 31.6828 0.0163443 31.4888 0.00278709 31.2902C-0.0107702 31.0916 0.0149241 30.8922 0.078409 30.7036C0.141894 30.5149 0.241922 30.3406 0.372772 30.1906C0.503623 30.0406 0.662733 29.9179 0.841005 29.8295C1.01928 29.7411 1.21321 29.6887 1.41174 29.6753C1.61026 29.6619 1.80947 29.6878 1.99799 29.7515C2.1865 29.8152 2.36062 29.9155 2.51039 30.0465L15.5148 41.4044C15.747 41.6072 15.9118 41.8762 15.9872 42.1753C16.0626 42.4743 16.045 42.7893 15.9366 43.0781C15.8283 43.3669 15.6345 43.6157 15.3811 43.7913C15.1276 43.967 14.8267 44.061 14.5184 44.0609H14.5184Z" fill="#E6E6E6"/>
<path d="M92.6791 44.061C92.3708 44.0611 92.0699 43.9671 91.8164 43.7914C91.563 43.6158 91.3692 43.367 91.2609 43.0782C91.1525 42.7894 91.1349 42.4745 91.2103 42.1754C91.2857 41.8763 91.4505 41.6073 91.6827 41.4045L104.687 30.0466C104.99 29.7828 105.384 29.65 105.785 29.6774C106.185 29.7047 106.558 29.89 106.822 30.1926C107.086 30.4951 107.22 30.8901 107.193 31.2908C107.166 31.6914 106.981 32.065 106.679 32.3294L93.6743 43.6872C93.3989 43.9285 93.0452 44.0614 92.6791 44.061Z" fill="#E6E6E6"/>
<path d="M67.6236 143.104H41.7308C41.3292 143.104 40.9441 142.945 40.6601 142.661C40.3761 142.377 40.2166 141.991 40.2166 141.589C40.2166 141.188 40.3761 140.802 40.6601 140.518C40.9441 140.234 41.3292 140.074 41.7308 140.074H67.6236C68.0253 140.074 68.4104 140.234 68.6944 140.518C68.9784 140.802 69.1379 141.188 69.1379 141.589C69.1379 141.991 68.9784 142.377 68.6944 142.661C68.4104 142.945 68.0253 143.104 67.6236 143.104Z" fill="#A8149E"/>
<path d="M54.6776 137.424C54.4788 137.424 54.2818 137.385 54.0981 137.308C53.9144 137.232 53.7475 137.121 53.6068 136.98C53.4662 136.839 53.3547 136.672 53.2786 136.488C53.2025 136.305 53.1633 136.108 53.1633 135.909V101.366C53.1633 100.964 53.3229 100.578 53.6068 100.294C53.8908 100.01 54.276 99.8506 54.6776 99.8506C55.0792 99.8506 55.4644 100.01 55.7484 100.294C56.0324 100.578 56.1919 100.964 56.1919 101.366V135.909C56.1919 136.108 56.1527 136.305 56.0766 136.488C56.0005 136.672 55.889 136.839 55.7484 136.98C55.6078 137.121 55.4408 137.232 55.2571 137.308C55.0734 137.385 54.8765 137.424 54.6776 137.424Z" fill="white"/>
<path d="M54.6778 102.881C49.7851 102.881 43.7781 98.4518 43.5248 98.2633C43.3652 98.1446 43.2306 97.9955 43.1286 97.8247C43.0266 97.6539 42.9593 97.4647 42.9304 97.2678C42.9015 97.071 42.9116 96.8703 42.9602 96.6774C43.0088 96.4844 43.0949 96.303 43.2136 96.1433C43.3323 95.9837 43.4813 95.849 43.652 95.747C43.8227 95.6449 44.0118 95.5775 44.2086 95.5486C44.4053 95.5197 44.6059 95.5299 44.7987 95.5785C44.9915 95.6271 45.1729 95.7133 45.3324 95.832C46.8374 96.9493 51.4517 99.8504 54.6778 99.8504C57.904 99.8504 62.5183 96.9493 64.024 95.8314C64.1836 95.7127 64.365 95.6266 64.5578 95.5781C64.7506 95.5295 64.9512 95.5194 65.1479 95.5484C65.3447 95.5773 65.5338 95.6448 65.7045 95.7469C65.8751 95.849 66.0241 95.9837 66.1427 96.1434C66.2614 96.3031 66.3474 96.4846 66.3959 96.6775C66.4445 96.8705 66.4546 97.0711 66.4256 97.268C66.3967 97.4648 66.3292 97.6541 66.2272 97.8248C66.1252 97.9956 65.9905 98.1446 65.8309 98.2633C65.5776 98.4518 59.5706 102.881 54.6778 102.881Z" fill="white"/>
<path d="M54.6771 28.9375C54.2755 28.9375 53.8904 28.7779 53.6064 28.4937C53.3224 28.2096 53.1629 27.8242 53.1628 27.4224V1.51513C53.1628 1.11329 53.3224 0.727914 53.6064 0.443772C53.8903 0.159629 54.2755 0 54.6771 0C55.0787 0 55.4639 0.159629 55.7479 0.443772C56.0319 0.727914 56.1914 1.11329 56.1914 1.51513V27.4224C56.1914 27.8242 56.0318 28.2096 55.7479 28.4937C55.4639 28.7779 55.0787 28.9375 54.6771 28.9375Z" fill="#E6E6E6"/>
</g>
<defs>
<clipPath id="clip0">
<rect width="199" height="237" fill="white"/>
</clipPath>
</defs>
</svg>
