<svg width="289" height="170" viewBox="0 0 289 170" fill="none" xmlns="http://www.w3.org/2000/svg">
<g clip-path="url(#clip0)">
<path d="M257.349 63.5777C251.089 63.5777 244.97 61.7133 239.765 58.2203C234.56 54.7273 230.503 49.7626 228.108 43.9539C225.712 38.1453 225.085 31.7536 226.306 25.5872C227.528 19.4207 230.542 13.7565 234.969 9.31075C239.395 4.865 245.035 1.83741 251.174 0.610828C257.314 -0.615752 263.678 0.0137735 269.462 2.4198C275.245 4.82582 280.188 8.90028 283.666 14.1279C287.144 19.3556 289 25.5016 289 31.7889C288.991 40.2169 285.653 48.297 279.719 54.2565C273.786 60.216 265.741 63.5682 257.349 63.5777ZM257.349 0.496714C251.187 0.496714 245.163 2.33197 240.04 5.77039C234.916 9.20882 230.923 14.096 228.564 19.8139C226.206 25.5318 225.589 31.8236 226.791 37.8937C227.994 43.9638 230.961 49.5395 235.318 53.9158C239.676 58.2921 245.227 61.2723 251.271 62.4798C257.315 63.6872 263.579 63.0675 269.272 60.6991C274.965 58.3306 279.831 54.3198 283.255 49.1739C286.678 44.0279 288.506 37.9779 288.506 31.7889C288.496 23.4926 285.211 15.5387 279.37 9.67234C273.529 3.80596 265.61 0.506101 257.349 0.496714Z" fill="#3F3D56"/>
<path d="M257.455 47.8424C266.233 47.8424 273.348 40.6959 273.348 31.8802C273.348 23.0645 266.233 15.918 257.455 15.918C248.678 15.918 241.562 23.0645 241.562 31.8802C241.562 40.6959 248.678 47.8424 257.455 47.8424Z" fill="#F2F2F2"/>
<path d="M258.504 31.918H15.8857V154.336H258.504V31.918Z" fill="#3F3D56"/>
<path opacity="0.1" d="M175.032 67.3076H84.0503V129.967H175.032V67.3076Z" fill="black"/>
<path d="M279.208 15.8815C282.747 15.8815 285.616 12.9999 285.616 9.44517C285.616 5.89045 282.747 3.00879 279.208 3.00879C275.668 3.00879 272.799 5.89045 272.799 9.44517C272.799 12.9999 275.668 15.8815 279.208 15.8815Z" fill="#0E9259"/>
<path d="M23.1066 39.459C24.7017 39.459 25.9949 38.1602 25.9949 36.5581C25.9949 34.956 24.7017 33.6572 23.1066 33.6572C21.5114 33.6572 20.2183 34.956 20.2183 36.5581C20.2183 38.1602 21.5114 39.459 23.1066 39.459Z" fill="#0E9259"/>
<path d="M32.0604 39.459C33.6556 39.459 34.9487 38.1602 34.9487 36.5581C34.9487 34.956 33.6556 33.6572 32.0604 33.6572C30.4653 33.6572 29.1721 34.956 29.1721 36.5581C29.1721 38.1602 30.4653 39.459 32.0604 39.459Z" fill="#0E9259"/>
<path d="M41.0138 39.459C42.609 39.459 43.9021 38.1602 43.9021 36.5581C43.9021 34.956 42.609 33.6572 41.0138 33.6572C39.4186 33.6572 38.1255 34.956 38.1255 36.5581C38.1255 38.1602 39.4186 39.459 41.0138 39.459Z" fill="#0E9259"/>
<path d="M49.6787 77.4619H43.9021V83.2637H49.6787V77.4619Z" fill="#0E9259"/>
<path d="M225.577 127.938H219.8V133.739H225.577V127.938Z" fill="white"/>
<path d="M205.21 87.5967L200.719 91.2461L204.353 95.7564L208.844 92.107L205.21 87.5967Z" fill="#0E9259"/>
<path d="M184.852 166.518H3.46606V68.4678H4.04369V165.938H184.852V166.518Z" fill="#3F3D56"/>
<path d="M188.318 170C187.576 170 186.85 169.779 186.232 169.365C185.615 168.95 185.133 168.361 184.849 167.672C184.565 166.983 184.491 166.225 184.636 165.493C184.781 164.762 185.138 164.09 185.663 163.563C186.188 163.035 186.857 162.676 187.586 162.53C188.314 162.385 189.069 162.46 189.755 162.745C190.441 163.03 191.028 163.514 191.44 164.134C191.853 164.754 192.073 165.483 192.073 166.229C192.072 167.229 191.676 168.188 190.972 168.894C190.268 169.601 189.314 169.999 188.318 170ZM188.318 163.038C187.69 163.038 187.076 163.225 186.553 163.576C186.031 163.927 185.623 164.425 185.383 165.008C185.143 165.591 185.08 166.233 185.202 166.852C185.325 167.471 185.627 168.039 186.072 168.486C186.516 168.932 187.082 169.236 187.698 169.359C188.315 169.482 188.954 169.419 189.534 169.177C190.115 168.936 190.611 168.527 190.96 168.002C191.309 167.477 191.495 166.86 191.495 166.229C191.495 165.383 191.159 164.572 190.564 163.974C189.968 163.376 189.161 163.039 188.318 163.038Z" fill="#3F3D56"/>
<path d="M3.75481 68.7582C3.01218 68.7582 2.28622 68.537 1.66875 68.1226C1.05127 67.7082 0.570012 67.1193 0.285819 66.4302C0.00162694 65.7411 -0.0727308 64.9828 0.0721493 64.2513C0.217029 63.5197 0.57464 62.8478 1.09976 62.3204C1.62488 61.793 2.29392 61.4338 3.02228 61.2883C3.75064 61.1428 4.50561 61.2175 5.19171 61.5029C5.87781 61.7883 6.46423 62.2717 6.87682 62.8918C7.2894 63.512 7.50962 64.2411 7.50962 64.987C7.50851 65.9868 7.11257 66.9454 6.40864 67.6524C5.70472 68.3594 4.75031 68.7571 3.75481 68.7582ZM3.75481 61.796C3.12643 61.796 2.51216 61.9832 1.98968 62.3338C1.4672 62.6844 1.05998 63.1828 0.819511 63.7659C0.579041 64.3489 0.516123 64.9905 0.638714 65.6095C0.761304 66.2285 1.0639 66.7971 1.50823 67.2434C1.95256 67.6896 2.51867 67.9936 3.13498 68.1167C3.75128 68.2398 4.3901 68.1766 4.97065 67.9351C5.5512 67.6936 6.0474 67.2846 6.39651 66.7598C6.74562 66.2351 6.93195 65.6181 6.93195 64.987C6.931 64.141 6.59596 63.3299 6.00034 62.7317C5.40471 62.1335 4.59715 61.797 3.75481 61.796Z" fill="#3F3D56"/>
<path d="M58.0548 147.083L55.4756 154.335H49.6787V146.938C50.1062 137.658 55.2907 133.295 55.4524 133.161C51.5561 136.935 51.9894 149.983 51.9894 149.983C54.5888 138.67 56.8995 138.38 56.8995 138.38C55.5015 140.489 54.7795 150.082 54.7361 150.68C54.9094 148.664 58.0548 147.083 58.0548 147.083Z" fill="#F2F2F2"/>
<path d="M237.419 148.069V154.335H232.962L230.776 148.182C230.776 148.182 233.268 149.436 233.407 151.034C233.372 150.541 232.8 142.952 231.691 141.281C231.691 141.281 233.525 141.51 235.588 150.483C235.588 150.483 235.928 140.135 232.841 137.142C232.971 137.249 237.081 140.707 237.419 148.069Z" fill="#F2F2F2"/>
<path d="M159.421 129.966H152.396L152.349 129.388L151.837 122.938V122.936L151.305 116.23L154.547 102.399L157.302 105.166V118.346C157.302 118.346 158.921 120.787 158.598 121.438C158.274 122.089 157.95 122.089 158.274 122.575C158.598 123.065 158.921 123.39 158.598 123.715C158.44 123.927 158.355 124.184 158.355 124.448C158.355 124.712 158.44 124.969 158.598 125.181C158.921 125.506 159.569 125.993 159.082 126.482C158.597 126.969 157.95 126.643 158.598 128.434C158.716 128.765 158.865 129.084 159.043 129.388C159.158 129.587 159.284 129.78 159.421 129.966Z" fill="#D0CDE1"/>
<path d="M137.778 85.3936L136.806 95.1567L146.688 96.6212L147.417 91.0075L148.147 85.3936H137.778Z" fill="#FFB9B9"/>
<path opacity="0.1" d="M137.778 85.3936L136.806 95.1567L146.688 96.6212L147.417 91.0075L148.147 85.3936H137.778Z" fill="black"/>
<path d="M143.205 88.5674C147.5 88.5674 150.982 85.0705 150.982 80.7568C150.982 76.4432 147.5 72.9463 143.205 72.9463C138.91 72.9463 135.428 76.4432 135.428 80.7568C135.428 85.0705 138.91 88.5674 143.205 88.5674Z" fill="#FFB9B9"/>
<path d="M123.554 129.967C123.526 129.909 123.497 129.85 123.467 129.785C123.41 129.664 123.348 129.532 123.282 129.388C122.851 128.424 122.325 127.053 122.629 126.644C123.116 125.993 123.277 125.342 122.953 125.017C122.629 124.692 121.657 125.342 122.629 124.528C123.6 123.716 123.924 124.202 123.6 123.226C123.277 122.25 122.629 122.74 123.277 122.25C123.924 121.763 124.412 121.925 124.088 121.438C123.764 120.949 123.116 120.949 123.764 120.624C124.412 120.298 124.899 120.624 124.735 119.809C124.572 118.997 124.412 119.322 124.735 118.997C124.82 118.912 125.114 118.093 125.507 116.923C126.607 113.618 128.462 107.521 128.462 107.28C128.462 106.954 125.87 96.7049 125.87 96.7049L124.735 96.0518C124.735 96.0518 119.713 99.4691 118.094 107.118C116.472 114.765 115.339 116.719 115.339 116.719C115.339 116.719 113.719 117.045 114.852 118.182C115.987 119.322 115.987 119.158 115.015 119.809C114.043 120.46 113.396 119.158 114.043 120.46C114.691 121.764 115.5 121.438 114.852 122.25C114.204 123.065 113.072 123.065 113.719 123.716C114.367 124.366 113.072 125.831 113.88 126.482C114.691 127.133 115.015 127.294 115.015 128.434C115.016 128.754 115.041 129.073 115.092 129.388C115.12 129.583 115.159 129.776 115.211 129.967C115.248 130.118 115.285 130.232 115.309 130.304L123.554 129.967Z" fill="#D0CDE1"/>
<path d="M123.553 129.965H124.214L124.248 129.734L123.467 129.784L120.626 129.965L115.309 130.303L123.553 129.965Z" fill="#3F3D56"/>
<path d="M127.003 123.064L125.546 118.02L125.507 116.922L124.735 96.0506L134.295 92.6357L135.915 91.3319C135.915 91.3319 136.238 87.5893 136.726 87.2639C136.901 87.1472 137.183 87.2838 137.556 87.6017C138.212 88.1605 139.151 89.2756 140.289 90.5198C142.072 92.4718 145.798 92.1465 146.931 91.4958C147.076 91.4105 147.227 91.335 147.383 91.2698C148.197 90.9321 148.55 91.1705 148.55 91.1705C149.361 91.8212 147.418 93.9371 147.418 93.9371C147.418 93.9371 148.066 95.3999 152.277 96.8652C156.49 98.3304 157.301 105.165 157.301 105.165C157.301 105.165 152.277 118.832 152.44 119.808C152.578 120.645 152.005 122.438 151.836 122.935V122.937C151.809 123.016 151.792 123.064 151.792 123.064L152.16 129.387L152.195 129.965H127.688C127.615 129.764 127.523 129.57 127.413 129.387C127.386 129.342 127.356 129.295 127.327 129.248C125.87 126.968 127.003 123.064 127.003 123.064Z" fill="#D0CDE1"/>
<path d="M135.375 81.7583C135.375 81.7583 134.567 80.5417 134.878 79.2314C135.063 78.4876 135.137 77.7199 135.095 76.9542C135.095 76.9542 135.747 74.8329 136.4 73.6474C137.052 72.462 136.741 71.9629 138.791 71.5885C140.841 71.2142 140.003 68.5314 145.407 71.4326C145.589 71.6883 145.843 71.884 146.136 71.995C146.429 72.1061 146.748 72.1274 147.053 72.0565C148.172 71.8381 148.575 73.3979 148.575 73.3979C148.575 73.3979 149.321 72.9611 149.6 73.5851C149.88 74.209 151.873 73.2106 151.873 77.422C151.873 81.6334 149.605 85.3952 149.605 85.3952C149.605 85.3952 149.771 78.3112 146.075 77.5937C142.379 76.8762 138.403 74.7861 137.44 77.4689C136.92 78.9746 136.227 80.4142 135.375 81.7583Z" fill="#2F2E41"/>
<path d="M149.686 83.4419C150.088 83.4419 150.415 83.0048 150.415 82.4656C150.415 81.9264 150.088 81.4893 149.686 81.4893C149.283 81.4893 148.957 81.9264 148.957 82.4656C148.957 83.0048 149.283 83.4419 149.686 83.4419Z" fill="#FFB9B9"/>
<path d="M84.0491 62.666V129.967H190.339V62.666H84.0491ZM189.763 129.388H84.6277V63.2472H189.763V129.388Z" fill="white"/>
</g>
<defs>
<clipPath id="clip0">
<rect width="289" height="170" fill="white"/>
</clipPath>
</defs>
</svg>
