<svg width="279" height="181" viewBox="0 0 279 181" fill="none" xmlns="http://www.w3.org/2000/svg">
<g clip-path="url(#clip0)">
<path opacity="0.1" d="M134.004 181C205.404 181 263.286 177.677 263.286 173.578C263.286 169.479 205.404 166.156 134.004 166.156C62.6036 166.156 4.72217 169.479 4.72217 173.578C4.72217 177.677 62.6036 181 134.004 181Z" fill="#123BA0"/>
<g opacity="0.2">
<path opacity="0.2" d="M240.703 173.91C240.584 174.136 240.446 174.349 240.289 174.55C238.913 173.578 237.513 172.626 236.091 171.694C236.119 171.634 236.151 171.571 236.184 171.512C236.514 170.872 237.009 170.333 237.618 169.951C238.404 169.472 239.291 169.357 240.008 169.745C240.724 170.133 241.145 170.927 241.188 171.847C241.213 172.566 241.045 173.278 240.703 173.91Z" fill="#3F3D56"/>
<path opacity="0.2" d="M242.627 170.307C243.492 168.67 243.182 166.806 241.934 166.144C240.686 165.482 238.973 166.272 238.108 167.909C237.242 169.546 237.552 171.41 238.8 172.072C240.048 172.734 241.761 171.944 242.627 170.307Z" fill="#3F3D56"/>
<path opacity="0.2" d="M244.541 166.684C245.407 165.047 245.097 163.183 243.849 162.521C242.601 161.859 240.888 162.649 240.022 164.286C239.157 165.923 239.467 167.787 240.715 168.449C241.963 169.111 243.676 168.321 244.541 166.684Z" fill="#3F3D56"/>
<path opacity="0.2" d="M246.458 163.059C247.324 161.422 247.014 159.558 245.766 158.896C244.518 158.234 242.805 159.024 241.939 160.661C241.074 162.298 241.384 164.162 242.632 164.824C243.88 165.486 245.593 164.696 246.458 163.059Z" fill="#3F3D56"/>
<path opacity="0.2" d="M248.374 159.432C249.24 157.795 248.93 155.931 247.682 155.269C246.434 154.607 244.72 155.397 243.855 157.034C242.989 158.671 243.299 160.535 244.547 161.197C245.795 161.859 247.509 161.069 248.374 159.432Z" fill="#3F3D56"/>
<path opacity="0.2" d="M250.752 128.927C250.652 128.373 250.589 127.813 250.565 127.251L257.017 129.425L250.565 126.073C250.659 124.398 251.094 122.76 251.843 121.259C252.592 119.758 253.64 118.427 254.922 117.347L261.161 126.411L256.308 116.339C257.734 115.447 259.328 114.858 260.991 114.609C262.654 114.36 264.35 114.457 265.974 114.894C267.598 115.33 269.115 116.097 270.431 117.146C271.746 118.195 272.832 119.504 273.621 120.992C274.41 122.479 274.885 124.114 275.016 125.793C275.148 127.472 274.933 129.161 274.384 130.753C273.836 132.346 272.967 133.808 271.83 135.05C270.694 136.291 269.314 137.285 267.778 137.97C267.936 138.838 268 139.721 267.969 140.603L258.136 140.526L267.819 142.123C267.492 144.139 266.668 146.041 265.423 147.658C264.178 149.275 262.551 150.555 260.688 151.384C261.099 153.651 260.865 155.988 260.012 158.128C259.16 160.268 257.723 162.124 255.867 163.485C254.011 164.846 251.81 165.655 249.517 165.822C247.223 165.989 244.928 165.505 242.896 164.427C240.863 163.349 239.175 161.719 238.023 159.725C236.872 157.73 236.304 155.451 236.384 153.148C236.464 150.846 237.19 148.612 238.478 146.703C239.765 144.794 241.563 143.287 243.666 142.353C243.178 139.646 243.611 136.852 244.897 134.421C246.183 131.99 248.246 130.062 250.756 128.946L250.752 128.927Z" fill="#123BA0"/>
<path opacity="0.1" d="M266.545 145.895C265.264 148.331 263.198 150.261 260.683 151.373C261.094 153.64 260.86 155.977 260.008 158.117C259.155 160.257 257.719 162.113 255.863 163.474C254.007 164.835 251.806 165.645 249.512 165.811C247.218 165.978 244.924 165.494 242.892 164.416C240.859 163.338 239.17 161.708 238.019 159.714C236.867 157.719 236.299 155.44 236.38 153.137C236.46 150.835 237.185 148.601 238.473 146.692C239.761 144.783 241.559 143.276 243.662 142.342C243.186 139.725 267.191 144.679 266.545 145.895Z" fill="black"/>
</g>
<g opacity="0.2">
<path opacity="0.2" d="M233.025 101.499C232.876 101.883 232.696 102.255 232.487 102.61C230.08 101.323 227.641 100.073 225.172 98.8605C225.206 98.7575 225.244 98.6498 225.284 98.5469C225.685 97.4557 226.37 96.4918 227.268 95.7554C228.432 94.8217 229.834 94.4697 231.091 94.9462C232.348 95.4226 233.151 96.622 233.402 98.0848C233.584 99.2361 233.453 100.415 233.025 101.499Z" fill="#3F3D56"/>
<path opacity="0.2" d="M235.387 95.301C236.453 92.4972 235.583 89.5634 233.446 88.7482C231.308 87.9331 228.712 89.5452 227.647 92.349C226.581 95.1528 227.45 98.0866 229.588 98.9018C231.725 99.717 234.322 98.1049 235.387 95.301Z" fill="#3F3D56"/>
<path opacity="0.2" d="M237.746 89.0979C238.812 86.2941 237.943 83.3603 235.805 82.5451C233.667 81.7299 231.071 83.342 230.006 86.1459C228.94 88.9497 229.809 91.8835 231.947 92.6987C234.085 93.5139 236.681 91.9018 237.746 89.0979Z" fill="#3F3D56"/>
<path opacity="0.2" d="M240.102 82.8909C241.167 80.0871 240.298 77.1533 238.16 76.3381C236.023 75.5229 233.426 77.135 232.361 79.9388C231.296 82.7427 232.165 85.6765 234.302 86.4917C236.44 87.3068 239.036 85.6947 240.102 82.8909Z" fill="#3F3D56"/>
<path opacity="0.2" d="M242.461 76.6897C243.526 73.8859 242.657 70.9521 240.52 70.1369C238.382 69.3217 235.786 70.9338 234.72 73.7377C233.655 76.5415 234.524 79.4753 236.662 80.2905C238.799 81.1057 241.396 79.4936 242.461 76.6897Z" fill="#3F3D56"/>
<path opacity="0.2" d="M240.223 27.2214C239.95 26.3448 239.739 25.4505 239.589 24.5448L250.396 26.7497L239.365 22.6367C239.184 19.9358 239.555 17.2264 240.455 14.6742C241.355 12.1219 242.766 9.78057 244.601 7.79335L256.444 21.0709L246.646 5.86133C248.761 4.15049 251.203 2.89326 253.823 2.16769C256.443 1.44211 259.183 1.26367 261.875 1.64343C264.566 2.02318 267.151 2.95304 269.468 4.37529C271.786 5.79755 273.787 7.68184 275.348 9.91122C276.908 12.1406 277.995 14.6675 278.54 17.3351C279.085 20.0027 279.077 22.7541 278.516 25.4185C277.956 28.0828 276.854 30.6033 275.281 32.8236C273.708 35.0438 271.695 36.9164 269.37 38.3251C269.794 39.6888 270.071 41.0942 270.196 42.5172L254.384 44.3558L270.259 44.9902C270.134 48.2943 269.19 51.5151 267.51 54.3614C265.831 57.2077 263.47 59.5896 260.64 61.2916C261.748 64.8506 261.835 68.6501 260.889 72.256C259.944 75.8618 258.005 79.1285 255.295 81.6828C252.584 84.2371 249.211 85.9759 245.56 86.7005C241.91 87.4251 238.13 87.1062 234.652 85.7804C231.174 84.4547 228.138 82.1754 225.892 79.203C223.646 76.2307 222.28 72.6852 221.949 68.9718C221.619 65.2584 222.338 61.5268 224.025 58.2035C225.711 54.8801 228.297 52.0991 231.486 50.1782C230.159 45.9242 230.298 41.3467 231.881 37.1814C233.464 33.0161 236.398 29.5048 240.213 27.2118L240.223 27.2214Z" fill="#123BA0"/>
<path opacity="0.1" d="M268.97 51.3306C267.393 55.4967 264.458 59.007 260.64 61.2924C261.748 64.8514 261.834 68.651 260.889 72.2568C259.944 75.8627 258.005 79.1294 255.295 81.6837C252.584 84.2379 249.211 85.9767 245.56 86.7013C241.91 87.4259 238.13 87.1071 234.652 85.7813C231.174 84.4555 228.138 82.1762 225.892 79.2039C223.646 76.2316 222.28 72.6861 221.949 68.9727C221.619 65.2592 222.338 61.5277 224.025 58.2043C225.711 54.881 228.297 52.1 231.486 50.1791C230.212 46.0804 269.764 49.2478 268.97 51.3306Z" fill="black"/>
</g>
<g opacity="0.2">
<path opacity="0.2" d="M42.6271 122.136C42.7481 122.611 42.9079 123.076 43.105 123.525C46.132 122.363 49.1932 121.246 52.2886 120.173C52.2623 120.046 52.236 119.914 52.2026 119.785C51.8908 118.437 51.225 117.197 50.2741 116.194C49.0362 114.92 47.4328 114.298 45.8914 114.676C44.3501 115.054 43.215 116.352 42.7012 118.028C42.3094 119.366 42.2838 120.785 42.6271 122.136Z" fill="#3F3D56"/>
<path opacity="0.2" d="M47.0841 119.563C49.7266 118.917 51.1841 115.584 50.3396 112.118C49.495 108.652 46.6683 106.367 44.0258 107.013C41.3833 107.66 39.9258 110.993 40.7704 114.459C41.6149 117.924 44.4417 120.21 47.0841 119.563Z" fill="#3F3D56"/>
<path opacity="0.2" d="M45.2145 111.897C47.857 111.251 49.3145 107.918 48.47 104.452C47.6254 100.986 44.7986 98.701 42.1562 99.3473C39.5137 99.9936 38.0562 103.327 38.9007 106.793C39.7453 110.258 42.5721 112.544 45.2145 111.897Z" fill="#3F3D56"/>
<path opacity="0.2" d="M43.3473 104.229C45.9898 103.583 47.4473 100.25 46.6028 96.784C45.7582 93.3184 42.9315 91.033 40.289 91.6793C37.6465 92.3257 36.189 95.659 37.0336 99.1245C37.8781 102.59 40.7049 104.876 43.3473 104.229Z" fill="#3F3D56"/>
<path opacity="0.2" d="M41.4772 96.5593C44.1197 95.913 45.5772 92.5796 44.7326 89.1141C43.8881 85.6485 41.0613 83.3631 38.4189 84.0094C35.7764 84.6557 34.3189 87.9891 35.1634 91.4546C36.008 94.9202 38.8347 97.2056 41.4772 96.5593Z" fill="#3F3D56"/>
<path opacity="0.2" d="M45.0651 33.4287C45.5167 32.4351 45.8984 31.4112 46.2074 30.3643L33.1335 31.365L46.7546 28.1426C47.3674 24.9809 47.3293 21.7272 46.6427 18.5808C45.9561 15.4344 44.6354 12.4616 42.7615 9.84457L26.8271 23.7877L40.6323 7.28768C38.3904 4.94884 35.6922 3.09718 32.7054 1.84791C29.7186 0.598628 26.5072 -0.0215432 23.2708 0.0259756C20.0345 0.0734945 16.8426 0.787686 13.8936 2.12412C10.9447 3.46055 8.30175 5.39064 6.12929 7.79429C3.95683 10.198 2.30132 13.0238 1.26574 16.0959C0.230158 19.1681 -0.163329 22.4209 0.109755 25.6519C0.38284 28.883 1.31665 32.0232 2.8531 34.8772C4.38955 37.7311 6.49576 40.2378 9.04071 42.2413C8.33877 43.7885 7.80441 45.4065 7.44679 47.0678L25.8354 51.5711L7.00948 49.9742C6.67018 53.8903 7.3103 57.8294 8.87198 61.4355C10.4337 65.0416 12.8677 68.2009 15.9541 70.628C14.121 74.6646 13.4587 79.1364 14.0428 83.5323C14.6269 87.9282 16.4338 92.0707 19.257 95.4863C22.0802 98.9019 25.8057 101.453 30.0077 102.847C34.2097 104.242 38.7185 104.424 43.0187 103.372C47.319 102.32 51.2371 100.078 54.3252 96.9005C57.4133 93.7233 59.5467 89.7396 60.4815 85.405C61.4164 81.0704 61.115 76.5597 59.6118 72.3885C58.1085 68.2174 55.4641 64.5543 51.9809 61.8178C54.171 56.9927 54.6784 51.5701 53.4215 46.4213C52.1646 41.2725 49.2165 36.6965 45.0508 33.4287H45.0651Z" fill="#123BA0"/>
<path opacity="0.1" d="M7.58963 57.6302C8.83641 62.7829 11.7836 67.3629 15.9535 70.6276C14.1205 74.6642 13.4582 79.1361 14.0423 83.5319C14.6264 87.9278 16.4333 92.0704 19.2565 95.486C22.0797 98.9016 25.8052 101.452 30.0072 102.847C34.2091 104.241 38.718 104.423 43.0182 103.372C47.3184 102.32 51.2366 100.077 54.3246 96.9001C57.4127 93.7229 59.5461 89.7393 60.481 85.4046C61.4159 81.07 61.1145 76.5593 59.6112 72.3882C58.108 68.2171 55.4636 64.5539 51.9803 61.8174C54.1024 57.1609 6.96593 55.0661 7.58963 57.6302Z" fill="black"/>
</g>
<path d="M252.422 27.2227H20.9239C20.6525 27.223 20.3839 27.2769 20.1334 27.3813C19.8828 27.4856 19.6553 27.6385 19.4638 27.831C19.2722 28.0236 19.1205 28.2521 19.0171 28.5034C18.9138 28.7548 18.861 29.0241 18.8616 29.2959V171.236C18.8606 171.784 18.9674 172.327 19.1759 172.834C19.3843 173.341 19.6904 173.801 20.0765 174.189C20.4626 174.577 20.9212 174.886 21.4262 175.096C21.9312 175.307 22.4726 175.416 23.0196 175.417H250.326C250.873 175.416 251.414 175.307 251.919 175.096C252.424 174.886 252.883 174.577 253.269 174.189C253.655 173.801 253.961 173.341 254.17 172.834C254.378 172.327 254.485 171.784 254.484 171.236V29.2959C254.485 28.7471 254.268 28.2205 253.881 27.8317C253.495 27.443 252.97 27.2239 252.422 27.2227Z" fill="url(#paint0_linear)"/>
<path d="M253.548 36.0352V170.401C253.547 171.496 253.113 172.546 252.34 173.32C251.567 174.095 250.519 174.53 249.426 174.531H23.9615C22.8676 174.531 21.8185 174.095 21.045 173.32C20.2715 172.545 19.8369 171.494 19.8369 170.398V36.0352H253.548Z" fill="white"/>
<path d="M253.548 30.065V36.0358H19.8369V30.065C19.8369 29.5214 20.0524 29.0002 20.436 28.6159C20.8197 28.2315 21.34 28.0156 21.8825 28.0156H251.502C252.045 28.0156 252.565 28.2315 252.949 28.6159C253.332 29.0002 253.548 29.5214 253.548 30.065Z" fill="#EDEDF4"/>
<path opacity="0.8" d="M23.5408 32.9231C24.0687 32.9231 24.4967 32.4943 24.4967 31.9654C24.4967 31.4366 24.0687 31.0078 23.5408 31.0078C23.0129 31.0078 22.585 31.4366 22.585 31.9654C22.585 32.4943 23.0129 32.9231 23.5408 32.9231Z" fill="#FA5959"/>
<path opacity="0.8" d="M26.1695 32.9231C26.6974 32.9231 27.1254 32.4943 27.1254 31.9654C27.1254 31.4366 26.6974 31.0078 26.1695 31.0078C25.6416 31.0078 25.2136 31.4366 25.2136 31.9654C25.2136 32.4943 25.6416 32.9231 26.1695 32.9231Z" fill="#FED253"/>
<path opacity="0.8" d="M28.7982 32.9231C29.3261 32.9231 29.754 32.4943 29.754 31.9654C29.754 31.4366 29.3261 31.0078 28.7982 31.0078C28.2702 31.0078 27.8423 31.4366 27.8423 31.9654C27.8423 32.4943 28.2702 32.9231 28.7982 32.9231Z" fill="#8CCF4D"/>
<path d="M150.294 24.5924V23.6348H148.861V24.5924H150.294Z" fill="url(#paint1_linear)"/>
<path d="M96.0487 47.8125H73.5857V50.2066H96.0487V47.8125Z" fill="#EDEDF4"/>
<path d="M199.761 54.7539H73.5857V57.148H199.761V54.7539Z" fill="#EDEDF4"/>
<path d="M199.761 61.6973H73.5857V64.0913H199.761V61.6973Z" fill="#EDEDF4"/>
<path d="M199.761 68.6406H73.5857V71.0347H199.761V68.6406Z" fill="#EDEDF4"/>
<path d="M199.761 75.582H73.5857V77.9761H199.761V75.582Z" fill="#EDEDF4"/>
<path d="M175.584 88.8281H97.6807V149.159H175.584V88.8281Z" fill="#EDEDF4"/>
<path d="M150.301 107.518C150.201 107.518 150.101 107.532 149.998 107.535C150.032 107.395 150.043 107.251 150.031 107.108C150.002 106.505 149.839 105.915 149.553 105.382C149.378 105.068 149.18 104.768 148.961 104.482C148.311 103.582 147.708 102.663 146.994 101.813C146.684 101.482 146.428 101.105 146.236 100.695C146.164 100.473 146.078 100.256 145.978 100.046C145.84 99.8307 145.646 99.6577 145.416 99.5458C145.186 99.4339 144.93 99.3874 144.676 99.4115C144.165 99.4718 143.694 99.7211 143.357 100.111C143.156 100.326 142.991 100.659 143.158 100.903C143.326 101.147 143.689 101.178 143.711 101.446C143.711 101.59 143.711 101.825 143.565 101.87C143.306 101.939 143.059 102.047 142.834 102.191C142.722 102.265 142.629 102.364 142.562 102.481C142.495 102.597 142.457 102.727 142.449 102.861C142.862 102.924 143.209 102.576 143.584 102.383C144.06 102.179 144.595 102.159 145.085 102.327C145.273 102.378 145.449 102.467 145.601 102.588C145.735 102.72 145.848 102.872 145.935 103.038C146.396 103.705 146.68 104.478 146.762 105.284L146.972 106.63C146.661 106.654 146.352 106.696 146.045 106.754C145.22 106.876 144.378 106.819 143.577 106.587C142.74 106.347 141.904 105.911 141.041 106.108C140.637 106.196 140.269 106.421 139.861 106.486C139.541 106.517 139.219 106.5 138.905 106.436L138.248 106.33C138.226 106.275 138.209 106.218 138.193 106.16C138.057 105.68 137.994 105.182 138.006 104.683C138.435 104.66 138.851 104.532 139.219 104.311C139.587 104.09 139.895 103.781 140.117 103.413C140.338 103.045 140.466 102.628 140.49 102.199C140.514 101.77 140.432 101.341 140.253 100.951C140.607 100.752 140.9 100.46 141.101 100.106L140.934 100.075L141.091 99.8352C141.054 99.8125 141.023 99.7815 141 99.7446C140.977 99.7078 140.962 99.666 140.958 99.6226C140.953 99.5793 140.959 99.5355 140.974 99.4947C140.99 99.4539 141.014 99.4172 141.046 99.3875C140.907 99.3152 140.751 99.2805 140.594 99.287C140.645 99.1936 140.563 99.0787 140.465 99.0476C140.363 99.0268 140.259 99.0203 140.155 99.0284C140.002 99.0166 139.852 98.9819 139.71 98.9255C138.69 98.5735 137.583 98.2647 136.544 98.5592C136.086 98.7024 135.657 98.9279 135.28 99.2247C134.912 99.4318 134.637 99.7722 134.511 100.176C134.386 100.58 134.42 101.016 134.606 101.396C134.764 101.788 134.877 102.197 134.943 102.615C134.957 103.005 134.913 103.394 134.811 103.771C135.039 103.84 135.271 103.893 135.507 103.927C135.374 104.441 135.139 104.923 134.816 105.344C134.668 105.53 134.509 105.707 134.338 105.873H134.31C133.836 105.962 133.357 106.021 132.876 106.05C132.369 106.05 131.872 105.859 131.368 105.895C131.069 105.928 130.775 105.995 130.491 106.093C129.179 106.479 127.816 106.661 126.45 106.634L126.285 106.651L126.438 105.674C126.52 104.868 126.804 104.095 127.265 103.429C127.352 103.262 127.465 103.11 127.599 102.979C127.752 102.857 127.929 102.768 128.118 102.718C128.607 102.55 129.141 102.569 129.616 102.773C129.991 102.957 130.333 103.304 130.754 103.252C130.745 103.117 130.706 102.987 130.639 102.871C130.571 102.755 130.478 102.656 130.367 102.581C130.141 102.437 129.894 102.329 129.635 102.26C129.497 102.215 129.478 101.98 129.49 101.837C129.511 101.569 129.891 101.511 130.042 101.291C130.192 101.071 130.042 100.716 129.843 100.498C129.505 100.11 129.035 99.8616 128.524 99.8017C128.27 99.7776 128.014 99.8241 127.785 99.936C127.556 100.048 127.362 100.221 127.224 100.436C127.123 100.646 127.036 100.863 126.964 101.085C126.772 101.495 126.516 101.873 126.206 102.203C125.489 103.053 124.889 103.972 124.239 104.872C124.022 105.158 123.824 105.458 123.647 105.77C123.363 106.304 123.2 106.894 123.169 107.499C123.157 107.642 123.168 107.787 123.202 107.927C123.186 107.961 123.177 107.998 123.176 108.035C123.183 108.1 123.204 108.164 123.236 108.221C123.268 108.279 123.311 108.329 123.362 108.37C123.728 108.739 124.113 109.119 124.605 109.277C124.911 109.35 125.222 109.404 125.535 109.438C126.29 109.574 126.985 110.012 127.752 110.01C128.28 110.01 128.801 109.799 129.322 109.874C130.039 109.972 130.555 110.556 130.995 111.123C131.368 111.566 131.649 112.08 131.819 112.634C131.989 113.302 131.884 114.054 132.24 114.643C132.33 114.763 132.399 114.897 132.446 115.04C132.453 115.266 132.403 115.49 132.3 115.691C131.999 116.618 132.658 117.606 132.589 118.564C132.555 119.031 132.35 119.471 132.328 119.938C132.293 120.539 132.536 121.212 132.202 121.712C132.405 121.607 132.61 121.514 132.821 121.43C131.817 124.377 130.909 127.415 130.978 130.513C131.031 132.522 131.456 134.734 130.304 136.383C130.141 136.58 130.011 136.802 129.92 137.042C129.829 137.365 129.92 137.707 129.979 138.038C130.192 139.474 129.418 140.889 129.365 142.347C129.359 142.796 129.388 143.245 129.451 143.69L129.733 146.118C129.449 146.18 129.185 146.311 128.964 146.501C128.667 146.74 128.407 147.133 128.546 147.492C128.658 147.782 128.988 147.92 129.291 147.992C129.602 148.027 129.9 148.14 130.156 148.32C130.238 148.411 130.325 148.497 130.417 148.579C130.593 148.675 130.796 148.712 130.995 148.686C131.361 148.672 131.712 148.641 132.085 148.591C132.162 148.588 132.237 148.564 132.302 148.521C132.346 148.473 132.379 148.416 132.4 148.354C132.421 148.293 132.429 148.227 132.424 148.162C132.451 147.798 132.436 147.431 132.379 147.07C132.364 147.001 132.345 146.934 132.326 146.865C132.452 146.557 132.541 146.235 132.591 145.907C132.665 145.428 132.677 144.928 132.708 144.437C132.78 143.187 132.947 141.947 133.139 140.707L133.378 139.113C133.452 138.588 133.528 138.064 133.617 137.54C134.06 134.7 134.749 131.904 135.676 129.184C135.88 128.603 136.226 127.92 136.84 127.903L137.206 128.622C137.684 129.522 137.975 130.52 138.339 131.466C138.816 132.708 138.654 134.159 139.294 135.328C139.4 135.521 139.533 135.706 139.612 135.909C139.725 136.223 139.792 136.551 139.808 136.884L140.231 141.193C140.422 143.13 140.628 145.119 141.495 146.86C141.55 146.972 141.614 147.079 141.686 147.181C141.66 147.47 141.656 147.762 141.674 148.052C141.661 148.103 141.66 148.157 141.671 148.209C141.682 148.261 141.705 148.31 141.737 148.351C141.77 148.393 141.812 148.426 141.86 148.448C141.908 148.471 141.961 148.482 142.014 148.481C142.375 148.528 142.731 148.56 143.101 148.574C143.3 148.6 143.503 148.562 143.679 148.466C143.773 148.386 143.861 148.3 143.942 148.208C144.198 148.027 144.494 147.915 144.805 147.88C145.108 147.81 145.438 147.671 145.551 147.379C145.692 147.02 145.429 146.63 145.132 146.388C144.892 146.178 144.597 146.041 144.282 145.993C144.152 146.001 144.022 145.99 143.895 145.962C143.924 145.804 143.934 145.643 143.923 145.483C143.893 145.295 143.885 145.104 143.899 144.913C143.948 144.721 144.014 144.534 144.095 144.353C144.37 143.506 143.785 142.644 143.579 141.777C143.304 140.623 143.713 139.414 143.639 138.229C143.524 136.369 142.229 134.624 142.573 132.792C142.848 131.327 142.614 129.821 142.353 128.354L141.397 122.893C141.33 122.449 141.214 122.015 141.051 121.597C141.228 121.567 141.403 121.52 141.572 121.459C141.811 120.874 141.77 120.23 141.698 119.603C141.627 118.976 141.459 118.363 141.376 117.741C141.303 117.24 141.262 116.736 141.252 116.23C141.225 115.731 141.261 115.231 141.357 114.741C141.467 114.31 141.616 113.891 141.804 113.489C142.266 112.326 142.826 111.205 143.476 110.137C144.458 110.06 145.41 109.977 146.389 109.898C146.624 109.887 146.858 109.856 147.087 109.804C147.38 109.703 147.677 109.618 147.978 109.548C148.091 109.542 148.202 109.52 148.308 109.483C148.523 109.385 148.655 109.11 148.891 109.1C148.98 109.112 149.07 109.112 149.159 109.1C149.264 109.067 149.317 108.952 149.398 108.861C149.546 108.696 149.787 108.662 149.981 108.554C150.147 108.446 150.27 108.284 150.328 108.094C150.387 107.905 150.377 107.701 150.301 107.518Z" fill="url(#paint2_linear)"/>
<path d="M137.87 104.9C139.322 104.9 140.499 103.721 140.499 102.266C140.499 100.812 139.322 99.6328 137.87 99.6328C136.418 99.6328 135.241 100.812 135.241 102.266C135.241 103.721 136.418 104.9 137.87 104.9Z" fill="#A1616A"/>
<path d="M134.835 105.542C134.567 105.873 134.267 106.177 133.939 106.45C135.484 107.372 137.319 107.675 139.077 107.297C139.012 107.118 138.778 107.091 138.613 107C138.399 106.848 138.253 106.618 138.207 106.359C138.03 105.728 137.978 105.068 138.054 104.417C138.086 104.259 138.086 104.096 138.054 103.938C137.962 103.701 137.786 103.507 137.56 103.392C137.187 103.16 136.785 102.979 136.365 102.854C135.93 102.724 135.681 102.665 135.665 103.172C135.647 104.03 135.356 104.861 134.835 105.542Z" fill="#A1616A"/>
<path d="M147.033 107.201L146.765 105.501C146.722 105.159 146.651 104.821 146.552 104.491C146.392 104.062 146.187 103.651 145.94 103.265C145.853 103.099 145.74 102.948 145.606 102.817C145.454 102.695 145.278 102.606 145.09 102.556C144.601 102.389 144.068 102.409 143.594 102.614C143.219 102.796 142.877 103.14 142.459 103.081C142.467 102.947 142.506 102.816 142.573 102.7C142.64 102.584 142.734 102.486 142.846 102.413C143.067 102.269 143.309 102.161 143.563 102.092C143.699 102.049 143.72 101.814 143.709 101.67C143.687 101.405 143.307 101.347 143.157 101.129C143.006 100.912 143.157 100.557 143.352 100.339C143.69 99.9524 144.16 99.7056 144.669 99.6475C144.923 99.6221 145.178 99.6675 145.408 99.7786C145.637 99.8897 145.832 100.062 145.969 100.277C146.071 100.486 146.158 100.702 146.23 100.924C146.422 101.332 146.676 101.708 146.985 102.037C147.702 102.882 148.301 103.796 148.949 104.692C149.166 104.977 149.364 105.276 149.542 105.587C149.827 106.117 149.99 106.705 150.02 107.306C150.041 107.491 150.014 107.678 149.941 107.85C149.867 107.974 149.762 108.078 149.636 108.15C149.511 108.222 149.369 108.26 149.224 108.261C148.93 108.254 148.64 108.196 148.366 108.089L147.324 107.737C147.197 107.709 147.081 107.645 146.99 107.553C146.952 107.499 146.935 107.434 146.943 107.368C146.951 107.303 146.983 107.244 147.033 107.201Z" fill="#A1616A"/>
<path d="M126.206 107.576L126.471 105.876C126.516 105.534 126.588 105.196 126.686 104.866C126.846 104.436 127.051 104.025 127.298 103.64C127.384 103.474 127.496 103.324 127.63 103.195C127.781 103.071 127.958 102.982 128.146 102.934C128.635 102.766 129.169 102.785 129.645 102.989C130.02 103.171 130.362 103.515 130.78 103.455C130.772 103.322 130.732 103.192 130.665 103.076C130.598 102.96 130.505 102.861 130.393 102.788C130.172 102.644 129.93 102.536 129.676 102.467C129.54 102.424 129.518 102.189 129.53 102.045C129.552 101.78 129.929 101.722 130.082 101.504C130.235 101.286 130.082 100.932 129.884 100.717C129.547 100.329 129.077 100.081 128.567 100.022C128.313 99.9972 128.058 100.043 127.828 100.154C127.599 100.265 127.405 100.437 127.267 100.652C127.166 100.861 127.08 101.077 127.009 101.298C126.816 101.706 126.561 102.082 126.254 102.412C125.537 103.257 124.937 104.171 124.287 105.067C124.071 105.352 123.874 105.651 123.697 105.962C123.413 106.493 123.25 107.08 123.219 107.681C123.199 107.867 123.226 108.055 123.3 108.227C123.376 108.353 123.483 108.457 123.61 108.528C123.738 108.6 123.882 108.637 124.029 108.636C124.322 108.63 124.612 108.572 124.884 108.464L125.929 108.122C126.055 108.094 126.171 108.03 126.261 107.937C126.3 107.882 126.317 107.813 126.306 107.745C126.296 107.678 126.26 107.617 126.206 107.576Z" fill="#A1616A"/>
<path d="M145.133 146.378C145.429 146.617 145.69 147.007 145.551 147.364C145.436 147.654 145.109 147.79 144.805 147.862C144.495 147.897 144.199 148.009 143.943 148.188C143.862 148.276 143.775 148.358 143.682 148.434C143.506 148.531 143.303 148.569 143.104 148.542C142.741 148.528 142.387 148.496 142.017 148.449C141.939 148.445 141.864 148.421 141.799 148.379C141.755 148.331 141.722 148.275 141.702 148.213C141.681 148.152 141.674 148.087 141.68 148.022C141.651 147.66 141.665 147.295 141.723 146.935C141.783 146.575 141.968 146.247 142.246 146.009C142.523 145.794 143.364 145.154 143.68 145.564C143.763 145.674 143.73 145.825 143.847 145.916C143.964 146.007 144.148 145.956 144.282 145.973C144.598 146.024 144.894 146.164 145.133 146.378Z" fill="#3F3D56"/>
<path d="M128.986 146.505C128.689 146.744 128.429 147.134 128.567 147.491C128.68 147.781 129.007 147.92 129.311 147.989C129.621 148.024 129.917 148.136 130.173 148.315C130.255 148.407 130.343 148.493 130.436 148.573C130.612 148.669 130.813 148.706 131.012 148.681C131.375 148.667 131.729 148.636 132.099 148.585C132.177 148.582 132.252 148.558 132.317 148.516C132.361 148.468 132.395 148.412 132.416 148.351C132.437 148.289 132.444 148.224 132.439 148.159C132.465 147.797 132.45 147.433 132.393 147.075C132.334 146.713 132.149 146.383 131.87 146.146C131.595 145.93 130.754 145.291 130.436 145.7C130.352 145.811 130.386 145.964 130.266 146.052C130.147 146.141 129.968 146.093 129.831 146.11C129.518 146.159 129.225 146.296 128.986 146.505Z" fill="#3F3D56"/>
<path d="M133.048 120.959C131.97 124.071 130.923 127.291 131.005 130.593C131.057 132.592 131.483 134.794 130.333 136.434C130.169 136.63 130.039 136.852 129.948 137.09C129.858 137.411 129.948 137.751 130.006 138.081C130.221 139.518 129.449 140.921 129.394 142.372C129.388 142.818 129.417 143.265 129.48 143.707L129.779 146.264C129.879 147.141 131.007 147.5 131.877 147.622C132.286 147.133 132.543 146.534 132.615 145.9C132.689 145.422 132.701 144.926 132.73 144.44C132.804 143.195 132.983 141.96 133.16 140.727L133.399 139.14C133.476 138.618 133.55 138.096 133.638 137.574C134.084 134.756 134.774 131.982 135.7 129.283C135.904 128.701 136.25 128.024 136.862 128.007L137.227 128.711C137.705 129.604 137.995 130.6 138.358 131.541C138.836 132.778 138.671 134.22 139.314 135.386C139.419 135.577 139.553 135.762 139.629 135.963C139.741 136.27 139.807 136.593 139.825 136.92L140.248 141.201C140.439 143.128 140.642 145.108 141.51 146.839C141.596 147.046 141.733 147.227 141.909 147.366C142.262 147.605 142.757 147.483 143.104 147.234C143.378 147.032 143.597 146.764 143.741 146.456C143.886 146.147 143.951 145.807 143.93 145.467C143.902 145.279 143.894 145.089 143.907 144.9C143.957 144.709 144.023 144.522 144.103 144.342C144.38 143.499 143.794 142.642 143.586 141.78C143.312 140.631 143.72 139.429 143.648 138.249C143.534 136.396 142.241 134.658 142.583 132.836C142.858 131.378 142.623 129.879 142.365 128.419L141.397 122.984C141.244 122.127 141.015 121.16 140.253 120.741C139.816 120.545 139.337 120.463 138.86 120.502C136.883 120.502 134.995 120.777 133.048 120.959Z" fill="#3F3D56"/>
<path d="M150.302 107.714C149.606 107.784 148.905 107.639 148.294 107.297C148.062 107.143 147.815 107.013 147.556 106.909C147.078 106.754 146.552 106.89 146.05 106.964C145.226 107.084 144.387 107.027 143.587 106.797C142.75 106.557 141.914 106.124 141.053 106.318C140.65 106.407 140.284 106.629 139.875 106.694C139.556 106.726 139.234 106.709 138.919 106.644L136.195 106.217C135.58 106.094 134.953 106.049 134.326 106.083C133.853 106.172 133.374 106.232 132.893 106.263C132.388 106.263 131.891 106.071 131.387 106.105C131.089 106.139 130.796 106.206 130.513 106.304C129.204 106.687 127.844 106.868 126.481 106.842C125.394 106.914 124.346 107.278 123.449 107.896C123.387 107.93 123.333 107.978 123.292 108.035C123.251 108.093 123.222 108.159 123.21 108.228C123.218 108.293 123.238 108.356 123.271 108.413C123.303 108.469 123.347 108.519 123.398 108.559C123.762 108.928 124.146 109.306 124.639 109.464C124.944 109.536 125.254 109.589 125.566 109.622C126.319 109.761 127.014 110.194 127.779 110.194C128.307 110.194 128.825 109.983 129.346 110.058C130.063 110.156 130.577 110.735 131.019 111.3C131.391 111.741 131.671 112.253 131.844 112.804C132.011 113.469 131.906 114.216 132.262 114.803C132.351 114.922 132.421 115.056 132.467 115.198C132.475 115.423 132.425 115.646 132.322 115.846C132.02 116.768 132.68 117.743 132.611 118.719C132.577 119.181 132.372 119.622 132.35 120.084C132.317 120.685 132.558 121.353 132.224 121.851C133.515 121.199 134.949 120.885 136.394 120.939C136.634 120.945 136.873 120.967 137.11 121.006C137.571 121.1 138.025 121.226 138.468 121.384C139.467 121.702 140.566 121.93 141.551 121.566C141.789 120.984 141.749 120.343 141.675 119.72C141.601 119.098 141.448 118.485 141.355 117.865C141.282 117.367 141.241 116.864 141.23 116.361C141.204 115.865 141.24 115.367 141.335 114.879C141.445 114.451 141.595 114.034 141.782 113.634C142.243 112.471 142.803 111.35 143.455 110.283C144.435 110.204 145.384 110.12 146.363 110.043C146.597 110.03 146.83 109.999 147.059 109.95C147.35 109.85 147.647 109.765 147.948 109.696C148.06 109.69 148.171 109.667 148.277 109.629C148.493 109.531 148.626 109.258 148.861 109.251C148.949 109.261 149.039 109.261 149.128 109.251C149.233 109.22 149.283 109.102 149.367 109.011C149.515 108.846 149.757 108.813 149.95 108.707C150.113 108.606 150.236 108.453 150.3 108.272C150.364 108.092 150.364 107.895 150.302 107.714Z" fill="#123BA0"/>
<path d="M138.327 103.216C138.403 103.276 138.496 103.312 138.593 103.318C138.69 103.324 138.786 103.3 138.869 103.25C138.974 103.151 139.044 103.022 139.07 102.881C139.156 102.582 139.225 102.278 139.278 101.971C139.292 101.838 139.333 101.708 139.398 101.591C139.572 101.323 139.95 101.308 140.243 101.186C140.607 100.989 140.907 100.694 141.111 100.334L140.946 100.3L141.101 100.061C141.064 100.039 141.033 100.008 141.01 99.9713C140.987 99.9347 140.973 99.8933 140.969 99.8503C140.965 99.8073 140.971 99.7639 140.986 99.7236C141.002 99.6833 141.026 99.6471 141.058 99.618C140.919 99.5436 140.762 99.508 140.604 99.5151C140.654 99.4241 140.573 99.3092 140.475 99.2757C140.374 99.2545 140.27 99.2488 140.167 99.2589C140.014 99.2464 139.865 99.2109 139.722 99.1536C138.704 98.804 137.6 98.4952 136.563 98.7897C136.105 98.9316 135.677 99.1563 135.299 99.4528C134.934 99.6584 134.661 99.996 134.536 100.397C134.411 100.797 134.444 101.23 134.628 101.608C134.784 101.997 134.897 102.402 134.962 102.817C134.978 103.206 134.934 103.595 134.833 103.97C135.116 104.062 135.409 104.119 135.705 104.14C136.004 104.163 136.301 104.078 136.542 103.901C136.781 103.695 136.915 103.377 137.111 103.118C137.186 103.004 137.289 102.911 137.409 102.847C137.53 102.784 137.665 102.752 137.801 102.754C138.066 102.795 138.114 103.066 138.327 103.216Z" fill="#3F3D56"/>
<path d="M131.416 148.436H128.618C128.535 148.452 128.46 148.497 128.407 148.563C128.353 148.628 128.324 148.71 128.324 148.795C128.324 148.879 128.353 148.961 128.407 149.027C128.46 149.092 128.535 149.137 128.618 149.154H129.177V153.911H119.601C119.579 153.873 119.548 153.842 119.511 153.82C119.474 153.797 119.432 153.784 119.389 153.782H116.593C116.51 153.798 116.435 153.843 116.382 153.909C116.328 153.974 116.299 154.056 116.299 154.141C116.299 154.225 116.328 154.307 116.382 154.373C116.435 154.438 116.51 154.483 116.593 154.5H117.152V159.386H107.906C107.898 159.32 107.868 159.258 107.82 159.211C107.772 159.164 107.71 159.135 107.643 159.128H104.85C104.765 159.141 104.688 159.185 104.632 159.251C104.576 159.317 104.545 159.4 104.545 159.487C104.545 159.573 104.576 159.656 104.632 159.722C104.688 159.788 104.765 159.832 104.85 159.846H105.129V164.873H95.7308C95.6958 164.853 95.6563 164.843 95.6161 164.842H92.8202C92.7374 164.859 92.6629 164.904 92.6094 164.969C92.5559 165.035 92.5266 165.117 92.5266 165.201C92.5266 165.286 92.5559 165.368 92.6094 165.433C92.6629 165.499 92.7374 165.544 92.8202 165.56H93.0998V170.349H83.8207C83.8005 170.301 83.7673 170.261 83.725 170.232C83.6826 170.203 83.6329 170.187 83.5817 170.186H80.7858C80.7029 170.202 80.6285 170.247 80.5749 170.313C80.5214 170.378 80.4922 170.46 80.4922 170.545C80.4922 170.63 80.5214 170.712 80.5749 170.777C80.6285 170.842 80.7029 170.887 80.7858 170.904H81.0654V176.207H144.28V148.436H131.416Z" fill="#3F3D56"/>
<path opacity="0.1" d="M41.3462 56.5742C41.0701 56.2092 40.7569 55.8738 40.4118 55.5734C40.3181 55.4918 40.2445 55.3895 40.197 55.2745C40.1494 55.1596 40.1291 55.0351 40.1377 54.911C40.1463 54.7868 40.1835 54.6664 40.2464 54.5591C40.3093 54.4518 40.3962 54.3606 40.5002 54.2926C40.6149 54.2184 40.7272 54.1394 40.8396 54.0532C42.1443 53.0597 42.8039 51.7262 42.3092 51.0726C41.8145 50.419 40.3545 50.6967 39.0497 51.6902C38.8989 51.8025 38.7545 51.9232 38.6172 52.0518C38.5254 52.1344 38.4158 52.1947 38.2969 52.228C38.178 52.2612 38.053 52.2664 37.9318 52.2432C37.8105 52.22 37.6963 52.1691 37.598 52.0943C37.4996 52.0196 37.4199 51.9231 37.365 51.8123C37.1816 51.4522 36.9665 51.1093 36.7221 50.7877C35.5608 49.2555 34.0027 48.4822 33.2404 49.0615C32.4781 49.6409 32.7983 51.3551 33.9573 52.8921C34.1839 53.1924 34.4357 53.4727 34.71 53.73C34.8007 53.8184 34.8693 53.9269 34.9105 54.0467C34.9516 54.1666 34.9641 54.2944 34.9469 54.4199C34.9297 54.5455 34.8833 54.6652 34.8114 54.7695C34.7396 54.8738 34.6443 54.9598 34.5332 55.0204C33.0994 55.8416 32.2893 57.0793 32.6955 57.7904C33.1018 58.5014 34.5882 58.4128 36.01 57.5941C36.2303 57.4659 36.4426 57.3244 36.6457 57.1703C36.7413 57.0974 36.852 57.0468 36.9696 57.0222C37.0872 56.9976 37.2088 56.9995 37.3256 57.028C37.4424 57.0564 37.5513 57.1106 37.6445 57.1866C37.7377 57.2626 37.8129 57.3584 37.8644 57.4672C38.0583 57.8916 38.2987 58.2931 38.5813 58.6642C39.7403 60.1964 41.3008 60.9697 42.0631 60.3903C42.8254 59.811 42.5052 58.1088 41.3462 56.5742Z" fill="#123BA0"/>
<path opacity="0.1" d="M210.612 97.9459C210.882 97.5761 211.111 97.1789 211.298 96.7609C211.348 96.6473 211.424 96.5469 211.52 96.4678C211.615 96.3887 211.728 96.333 211.849 96.3052C211.969 96.2773 212.095 96.278 212.216 96.3072C212.336 96.3364 212.448 96.3934 212.543 96.4736C212.648 96.5598 212.758 96.6435 212.87 96.7273C214.199 97.685 215.666 97.9244 216.144 97.266C216.622 96.6076 215.934 95.2837 214.605 94.3213C214.446 94.208 214.287 94.105 214.127 94.0124C214.022 93.9482 213.932 93.8603 213.866 93.7557C213.8 93.6511 213.759 93.5326 213.746 93.4095C213.734 93.2864 213.75 93.162 213.793 93.046C213.836 92.9301 213.906 92.8257 213.996 92.7412C214.286 92.4615 214.55 92.1553 214.784 91.8266C215.91 90.2681 216.192 88.5491 215.418 87.9961C214.643 87.4431 213.1 88.2355 211.974 89.8036C211.754 90.1062 211.56 90.4265 211.393 90.7613C211.336 90.874 211.252 90.9715 211.15 91.0459C211.048 91.1204 210.929 91.1698 210.804 91.19C210.679 91.2103 210.552 91.2009 210.431 91.1626C210.31 91.1243 210.201 91.0582 210.11 90.9696C208.915 89.8467 207.482 89.4206 206.93 90.0119C206.378 90.6033 206.889 92.0062 208.086 93.1242C208.272 93.2967 208.469 93.4566 208.676 93.6031C208.774 93.6736 208.854 93.7651 208.912 93.8708C208.969 93.9764 209.003 94.0936 209.009 94.2138C209.016 94.334 208.996 94.4541 208.95 94.5655C208.904 94.6769 208.835 94.7766 208.746 94.8576C208.395 95.1723 208.08 95.5248 207.807 95.9086C206.681 97.4671 206.399 99.1861 207.176 99.7391C207.952 100.292 209.486 99.5069 210.612 97.9459Z" fill="#123BA0"/>
<path d="M211.835 178.765C216.296 178.765 219.913 178.068 219.913 177.208C219.913 176.349 216.296 175.652 211.835 175.652C207.375 175.652 203.758 176.349 203.758 177.208C203.758 178.068 207.375 178.765 211.835 178.765Z" fill="#123BA0"/>
<path d="M211.702 177.78C212.222 177.78 212.643 177.228 212.643 176.547C212.643 175.866 212.222 175.314 211.702 175.314C211.182 175.314 210.76 175.866 210.76 176.547C210.76 177.228 211.182 177.78 211.702 177.78Z" fill="#3F3D56"/>
<path d="M211.702 176.271C212.222 176.271 212.643 175.719 212.643 175.038C212.643 174.357 212.222 173.805 211.702 173.805C211.182 173.805 210.76 174.357 210.76 175.038C210.76 175.719 211.182 176.271 211.702 176.271Z" fill="#3F3D56"/>
<path d="M211.702 174.767C212.222 174.767 212.643 174.215 212.643 173.534C212.643 172.853 212.222 172.301 211.702 172.301C211.182 172.301 210.76 172.853 210.76 173.534C210.76 174.215 211.182 174.767 211.702 174.767Z" fill="#3F3D56"/>
<path d="M211.702 173.257C212.222 173.257 212.643 172.705 212.643 172.024C212.643 171.343 212.222 170.791 211.702 170.791C211.182 170.791 210.76 171.343 210.76 172.024C210.76 172.705 211.182 173.257 211.702 173.257Z" fill="#3F3D56"/>
<path d="M211.702 171.749C212.222 171.749 212.643 171.197 212.643 170.516C212.643 169.835 212.222 169.283 211.702 169.283C211.182 169.283 210.76 169.835 210.76 170.516C210.76 171.197 211.182 171.749 211.702 171.749Z" fill="#3F3D56"/>
<path d="M211.702 170.243C212.222 170.243 212.643 169.691 212.643 169.01C212.643 168.329 212.222 167.777 211.702 167.777C211.182 167.777 210.76 168.329 210.76 169.01C210.76 169.691 211.182 170.243 211.702 170.243Z" fill="#3F3D56"/>
<path d="M211.702 168.735C212.222 168.735 212.643 168.183 212.643 167.502C212.643 166.822 212.222 166.27 211.702 166.27C211.182 166.27 210.76 166.822 210.76 167.502C210.76 168.183 211.182 168.735 211.702 168.735Z" fill="#3F3D56"/>
<path d="M215.222 157.185C215.349 157.021 215.466 156.848 215.571 156.668L213.102 156.261L215.774 156.283C216.031 155.724 216.171 155.118 216.186 154.503C216.201 153.888 216.09 153.277 215.86 152.706L212.275 154.569L215.583 152.134C215.272 151.6 214.854 151.136 214.357 150.77C213.859 150.405 213.292 150.146 212.691 150.009C212.089 149.872 211.466 149.86 210.859 149.974C210.253 150.089 209.677 150.327 209.166 150.673C208.655 151.02 208.221 151.468 207.89 151.99C207.559 152.512 207.339 153.096 207.243 153.707C207.147 154.317 207.177 154.941 207.332 155.539C207.486 156.138 207.762 156.698 208.141 157.185C207.942 157.441 207.769 157.717 207.628 158.009L210.837 159.685L207.415 158.536C207.174 159.246 207.114 160.005 207.239 160.745C207.364 161.485 207.671 162.182 208.132 162.773C207.609 163.439 207.285 164.239 207.194 165.08C207.104 165.922 207.252 166.773 207.622 167.534C207.991 168.296 208.567 168.938 209.283 169.387C210 169.837 210.828 170.075 211.673 170.075C212.518 170.075 213.347 169.837 214.063 169.387C214.78 168.938 215.355 168.296 215.725 167.534C216.094 166.773 216.242 165.922 216.152 165.08C216.062 164.239 215.737 163.439 215.215 162.773C215.839 161.977 216.178 160.995 216.178 159.983C216.178 158.971 215.839 157.988 215.215 157.193L215.222 157.185Z" fill="#123BA0"/>
<path opacity="0.1" d="M207.176 159.974C207.173 160.986 207.51 161.969 208.132 162.766C207.609 163.432 207.285 164.231 207.194 165.073C207.104 165.915 207.252 166.765 207.622 167.527C207.991 168.289 208.567 168.931 209.283 169.38C210 169.829 210.828 170.067 211.673 170.067C212.518 170.067 213.347 169.829 214.063 169.38C214.78 168.931 215.355 168.289 215.725 167.527C216.094 166.765 216.242 165.915 216.152 165.073C216.062 164.231 215.737 163.432 215.215 162.766C215.824 161.997 207.176 159.469 207.176 159.974Z" fill="black"/>
<path d="M64.6311 178.283C66.6503 178.283 68.2873 177.968 68.2873 177.579C68.2873 177.19 66.6503 176.875 64.6311 176.875C62.6118 176.875 60.9749 177.19 60.9749 177.579C60.9749 177.968 62.6118 178.283 64.6311 178.283Z" fill="#123BA0"/>
<path d="M64.5718 177.836C64.8068 177.836 64.9972 177.587 64.9972 177.279C64.9972 176.97 64.8068 176.721 64.5718 176.721C64.3369 176.721 64.1465 176.97 64.1465 177.279C64.1465 177.587 64.3369 177.836 64.5718 177.836Z" fill="#3F3D56"/>
<path d="M64.5718 177.155C64.8068 177.155 64.9972 176.905 64.9972 176.597C64.9972 176.289 64.8068 176.039 64.5718 176.039C64.3369 176.039 64.1465 176.289 64.1465 176.597C64.1465 176.905 64.3369 177.155 64.5718 177.155Z" fill="#3F3D56"/>
<path d="M64.5718 176.473C64.8068 176.473 64.9972 176.223 64.9972 175.915C64.9972 175.607 64.8068 175.357 64.5718 175.357C64.3369 175.357 64.1465 175.607 64.1465 175.915C64.1465 176.223 64.3369 176.473 64.5718 176.473Z" fill="#3F3D56"/>
<path d="M64.5718 175.791C64.8068 175.791 64.9972 175.542 64.9972 175.234C64.9972 174.926 64.8068 174.676 64.5718 174.676C64.3369 174.676 64.1465 174.926 64.1465 175.234C64.1465 175.542 64.3369 175.791 64.5718 175.791Z" fill="#3F3D56"/>
<path d="M64.5718 175.108C64.8068 175.108 64.9972 174.858 64.9972 174.55C64.9972 174.242 64.8068 173.992 64.5718 173.992C64.3369 173.992 64.1465 174.242 64.1465 174.55C64.1465 174.858 64.3369 175.108 64.5718 175.108Z" fill="#3F3D56"/>
<path d="M64.5718 174.426C64.8068 174.426 64.9972 174.176 64.9972 173.868C64.9972 173.56 64.8068 173.311 64.5718 173.311C64.3369 173.311 64.1465 173.56 64.1465 173.868C64.1465 174.176 64.3369 174.426 64.5718 174.426Z" fill="#3F3D56"/>
<path d="M64.5718 173.743C64.8068 173.743 64.9972 173.493 64.9972 173.185C64.9972 172.877 64.8068 172.627 64.5718 172.627C64.3369 172.627 64.1465 172.877 64.1465 173.185C64.1465 173.493 64.3369 173.743 64.5718 173.743Z" fill="#3F3D56"/>
<path d="M66.1629 168.514C66.2222 168.439 66.2757 168.359 66.323 168.275L65.2047 168.091H66.4138C66.5368 167.823 66.6004 167.531 66.6002 167.236C66.6008 166.974 66.5504 166.715 66.4521 166.472L64.8295 167.315L66.3254 166.214C66.1846 165.972 65.9958 165.762 65.7707 165.597C65.5455 165.431 65.2889 165.314 65.0166 165.252C64.7443 165.19 64.4622 165.185 64.1878 165.236C63.9134 165.288 63.6526 165.396 63.4214 165.553C63.1903 165.71 62.9938 165.913 62.8442 166.149C62.6945 166.385 62.5949 166.649 62.5515 166.926C62.5081 167.202 62.5218 167.484 62.5918 167.755C62.6618 168.026 62.7865 168.28 62.9584 168.5C62.8656 168.615 62.7855 168.739 62.7194 168.871L64.1699 169.628L62.6214 169.106C62.5135 169.427 62.4871 169.771 62.5446 170.105C62.6022 170.44 62.7419 170.754 62.9512 171.021C62.7139 171.322 62.566 171.685 62.5246 172.066C62.4832 172.448 62.55 172.834 62.7172 173.179C62.8843 173.525 63.1453 173.816 63.47 174.02C63.7948 174.224 64.1703 174.332 64.5535 174.332C64.9367 174.332 65.3122 174.224 65.6369 174.02C65.9617 173.816 66.2226 173.525 66.3898 173.179C66.557 172.834 66.6237 172.448 66.5823 172.066C66.5409 171.685 66.3931 171.322 66.1558 171.021C66.4389 170.661 66.5929 170.216 66.5929 169.758C66.5929 169.3 66.4389 168.855 66.1558 168.495L66.1629 168.514Z" fill="#123BA0"/>
<path opacity="0.1" d="M62.5212 169.776C62.5212 170.235 62.6752 170.68 62.9585 171.04C62.7212 171.342 62.5734 171.704 62.532 172.086C62.4906 172.467 62.5573 172.853 62.7245 173.198C62.8917 173.544 63.1526 173.835 63.4773 174.039C63.8021 174.243 64.1776 174.351 64.5608 174.351C64.944 174.351 65.3195 174.243 65.6443 174.039C65.9691 173.835 66.23 173.544 66.3972 173.198C66.5643 172.853 66.6311 172.467 66.5897 172.086C66.5483 171.704 66.4004 171.342 66.1631 171.04C66.4379 170.7 62.5212 169.546 62.5212 169.776Z" fill="black"/>
</g>
<defs>
<linearGradient id="paint0_linear" x1="136.673" y1="175.417" x2="136.673" y2="27.2227" gradientUnits="userSpaceOnUse">
<stop stop-color="#808080" stop-opacity="0.25"/>
<stop offset="0.54" stop-color="#808080" stop-opacity="0.12"/>
<stop offset="1" stop-color="#808080" stop-opacity="0.1"/>
</linearGradient>
<linearGradient id="paint1_linear" x1="-1301.43" y1="585.11" x2="-1292.83" y2="585.11" gradientUnits="userSpaceOnUse">
<stop stop-color="#808080" stop-opacity="0.25"/>
<stop offset="0.54" stop-color="#808080" stop-opacity="0.12"/>
<stop offset="1" stop-color="#808080" stop-opacity="0.1"/>
</linearGradient>
<linearGradient id="paint2_linear" x1="16132.1" y1="34925.3" x2="16132.1" y2="24378.7" gradientUnits="userSpaceOnUse">
<stop stop-color="#808080" stop-opacity="0.25"/>
<stop offset="0.54" stop-color="#808080" stop-opacity="0.12"/>
<stop offset="1" stop-color="#808080" stop-opacity="0.1"/>
</linearGradient>
<clipPath id="clip0">
<rect width="279" height="181" fill="white"/>
</clipPath>
</defs>
</svg>
