<svg width="217" height="218" viewBox="0 0 217 218" fill="none" xmlns="http://www.w3.org/2000/svg">
<path d="M32.2109 30C32.2109 13.4315 45.6424 0 62.2109 0H149.789C169.119 0 184.789 15.67 184.789 35V183C184.789 202.33 169.119 218 149.789 218H65.2109C46.9855 218 32.2109 203.225 32.2109 185V30Z" fill="white"/>
<path d="M159.359 0C154.593 0 60.8859 0 57.6406 0C43.6187 0 32.2109 11.4603 32.2109 25.5469V192.453C32.2109 206.54 43.6187 218 57.6406 218H159.359C173.381 218 184.789 206.54 184.789 192.453V25.5469C184.789 11.4603 173.381 0 159.359 0ZM167.836 192.453C167.836 197.149 164.033 200.969 159.359 200.969H57.6406C52.9666 200.969 49.1641 197.149 49.1641 192.453V25.5469C49.1641 20.8514 52.9666 17.0312 57.6406 17.0312H72.7412L74.5069 22.302C75.6673 25.7674 78.9011 28.1016 82.5405 28.1016H134.459C138.099 28.1016 141.333 25.7674 142.493 22.302L144.259 17.0312H159.359C164.033 17.0312 167.836 20.8514 167.836 25.5469V192.453Z" fill="#093B47"/>
<path fill-rule="evenodd" clip-rule="evenodd" d="M134.367 110.749C129.878 101.23 120.251 94.6108 109.062 94.4688V101.239C117.53 101.381 124.812 106.395 128.225 113.6L134.367 110.749Z" fill="#018BA4"/>
<path d="M88.0836 114.568L82.1218 111.546C80.3534 115.246 79.3633 119.389 79.3633 123.764C79.3633 129.151 80.8653 134.188 83.4734 138.479L89.0928 135.231C87.2172 132.022 86.0432 127.749 86.0432 123.764C86.0432 120.476 86.7746 117.36 88.0836 114.568Z" fill="#00B9DA"/>
<path d="M128.86 114.604L134.878 111.992C136.646 115.692 137.637 119.835 137.637 124.209C137.637 129.597 136.135 134.634 133.526 138.924L128.006 135.138C129.882 131.929 130.957 128.195 130.957 124.209C130.957 120.922 130.169 117.396 128.86 114.604Z" fill="#017287"/>
<path d="M82.5056 110.749C86.9943 101.231 96.621 94.6114 107.809 94.4688V101.149C99.3055 101.291 91.9083 106.407 88.4815 113.642L82.5056 110.749Z" fill="#02A3BF"/>
<path fill-rule="evenodd" clip-rule="evenodd" d="M122.546 131.877C124.177 129.28 125.12 126.208 125.12 122.916C125.12 113.6 117.568 106.048 108.252 106.048C98.9365 106.048 91.3845 113.6 91.3845 122.916C91.3845 126.595 92.5622 129.999 94.561 132.771L91.5982 134.349C89.3622 131.098 88.0535 127.16 88.0535 122.916C88.0535 111.761 97.0969 102.717 108.252 102.717C119.408 102.717 128.451 111.761 128.451 122.916C128.451 126.856 127.323 130.533 125.372 133.641L122.546 131.877Z" fill="#093B47"/>
<path fill-rule="evenodd" clip-rule="evenodd" d="M98.4955 105.27L97.9266 99.1982L102.403 103.661C101.046 104.06 99.736 104.601 98.4955 105.27Z" fill="#093B47"/>
</svg>
