<svg width="259" height="161" viewBox="0 0 259 161" fill="none" xmlns="http://www.w3.org/2000/svg">
<g clip-path="url(#clip0)">
<path d="M232.459 31.4556H179.376V128.152H232.459V31.4556Z" fill="#E6E6E6"/>
<path d="M184.334 123.201H227.5V36.4067H184.334V123.201Z" fill="white"/>
<path d="M213.527 55.022H200.92V56.191H213.527V55.022Z" fill="#E6E6E6"/>
<path d="M222.893 59.0664H200.92V60.2355H222.893V59.0664Z" fill="#E6E6E6"/>
<path d="M222.871 63.1104H200.92V64.2794H222.871V63.1104Z" fill="#E6E6E6"/>
<path d="M198.307 55.0391H188.942V64.3916H198.307V55.0391Z" fill="#E6E6E6"/>
<path d="M213.527 75.1187H200.92V76.2877H213.527V75.1187Z" fill="#E6E6E6"/>
<path d="M222.893 79.1631H200.92V80.3322H222.893V79.1631Z" fill="#E6E6E6"/>
<path d="M222.871 83.207H200.92V84.3761H222.871V83.207Z" fill="#E6E6E6"/>
<path d="M198.307 75.1357H188.942V84.4883H198.307V75.1357Z" fill="#E6E6E6"/>
<path d="M213.527 95.2148H200.92V96.3839H213.527V95.2148Z" fill="#E6E6E6"/>
<path d="M222.893 99.2598H200.92V100.429H222.893V99.2598Z" fill="#E6E6E6"/>
<path d="M222.871 103.304H200.92V104.473H222.871V103.304Z" fill="#E6E6E6"/>
<path d="M198.307 95.2324H188.942V104.585H198.307V95.2324Z" fill="#E6E6E6"/>
<path d="M84.2932 31.4556H31.2102V128.152H84.2932V31.4556Z" fill="#E6E6E6"/>
<path d="M36.1685 123.201H79.3348V36.4067H36.1685V123.201Z" fill="white"/>
<path d="M65.3611 55.022H52.7544V56.191H65.3611V55.022Z" fill="#E6E6E6"/>
<path d="M74.7268 59.0664H52.7544V60.2355H74.7268V59.0664Z" fill="#E6E6E6"/>
<path d="M74.7053 63.1104H52.7544V64.2794H74.7053V63.1104Z" fill="#E6E6E6"/>
<path d="M50.1416 55.0391H40.7759V64.3916H50.1416V55.0391Z" fill="#E6E6E6"/>
<path d="M65.3611 75.1187H52.7544V76.2877H65.3611V75.1187Z" fill="#E6E6E6"/>
<path d="M74.7268 79.1631H52.7544V80.3322H74.7268V79.1631Z" fill="#E6E6E6"/>
<path d="M74.7053 83.207H52.7544V84.3761H74.7053V83.207Z" fill="#E6E6E6"/>
<path d="M50.1416 75.1357H40.7759V84.4883H50.1416V75.1357Z" fill="#E6E6E6"/>
<path d="M65.3611 95.2148H52.7544V96.3839H65.3611V95.2148Z" fill="#E6E6E6"/>
<path d="M74.7268 99.2598H52.7544V100.429H74.7268V99.2598Z" fill="#E6E6E6"/>
<path d="M74.7053 103.304H52.7544V104.473H74.7053V103.304Z" fill="#E6E6E6"/>
<path d="M50.1416 95.2324H40.7759V104.585H50.1416V95.2324Z" fill="#E6E6E6"/>
<path d="M129.5 136.016C201.021 136.016 259 133.669 259 130.773C259 127.878 201.021 125.531 129.5 125.531C57.9791 125.531 0 127.878 0 130.773C0 133.669 57.9791 136.016 129.5 136.016Z" fill="#E6E6E6"/>
<path d="M167.969 0H95.6997V131.647H167.969V0Z" fill="#3F3D56"/>
<path d="M98.8225 128.298H164.846V3.34961H98.8225V128.298Z" fill="white"/>
<path d="M142.194 32.0845H125.031V33.6761H142.194V32.0845Z" fill="#820E96"/>
<path d="M154.945 37.5903H125.031V39.182H154.945V37.5903Z" fill="#E6E6E6"/>
<path d="M154.916 43.0972H125.031V44.6888H154.916V43.0972Z" fill="#E6E6E6"/>
<path d="M121.474 32.1084H108.723V44.8414H121.474V32.1084Z" fill="#820E96"/>
<path d="M142.194 59.4453H125.031V61.0369H142.194V59.4453Z" fill="#820E96"/>
<path d="M154.945 64.9512H125.031V66.5428H154.945V64.9512Z" fill="#E6E6E6"/>
<path d="M154.916 70.457H125.031V72.0486H154.916V70.457Z" fill="#E6E6E6"/>
<path d="M121.474 59.4688H108.723V72.2017H121.474V59.4688Z" fill="#820E96"/>
<path d="M142.194 86.8057H125.031V88.3973H142.194V86.8057Z" fill="#820E96"/>
<path d="M154.945 92.3115H125.031V93.9031H154.945V92.3115Z" fill="#E6E6E6"/>
<path d="M154.916 97.8174H125.031V99.409H154.916V97.8174Z" fill="#E6E6E6"/>
<path d="M121.474 86.8296H108.723V99.5626H121.474V86.8296Z" fill="#820E96"/>
<path d="M105.439 93.3472L104.564 97.1335C104.564 97.1335 104.856 105.871 102.522 104.997C100.189 104.124 100.772 96.551 100.772 96.551L102.814 92.7646L105.439 93.3472Z" fill="#FFB8B8"/>
<path d="M92.4598 51.8435C95.6814 51.8435 98.293 49.2356 98.293 46.0185C98.293 42.8013 95.6814 40.1934 92.4598 40.1934C89.2381 40.1934 86.6265 42.8013 86.6265 46.0185C86.6265 49.2356 89.2381 51.8435 92.4598 51.8435Z" fill="#FFB8B8"/>
<path d="M87.939 47.6201L87.3557 56.0665L94.6473 56.9403C94.6473 56.9403 94.6473 49.9502 95.2307 49.0764C95.814 48.2026 87.939 47.6201 87.939 47.6201Z" fill="#FFB8B8"/>
<path d="M104.126 58.5421L94.6813 54.548C94.6813 54.548 90.1695 51.0715 87.5229 53.6418L86.3346 55.3383C86.3346 55.3383 75.8347 59.4158 75.8347 62.6196L79.918 78.6386C79.918 78.6386 77.5847 87.6675 81.0847 88.25L100.043 89.9975C100.043 89.9975 102.668 86.7937 100.335 82.7162L101.21 73.1048L104.126 58.5421Z" fill="#575A89"/>
<path d="M97.7097 58.8332L104.126 58.542C104.126 58.542 106.168 59.1245 107.626 64.6583C109.085 70.1922 109.376 79.2211 109.376 79.2211L105.876 95.5313L101.501 94.9488L103.251 79.2211L100.335 68.7359L97.7097 58.8332Z" fill="#575A89"/>
<path d="M79.3347 60.5811L76.1711 61.5649C76.1711 61.5649 73.5014 65.5324 73.5014 67.5712C73.5014 69.6099 72.3347 85.0464 72.3347 85.0464L79.918 97.5704L82.2513 91.4541L77.5847 83.5902L81.3763 73.9788L79.3347 60.5811Z" fill="#575A89"/>
<path d="M100.918 89.4157L79.9483 87.5732C79.9483 87.5732 77.8765 100.775 78.1682 106.017C78.4599 111.26 78.7515 119.415 78.7515 119.415L76.4182 154.948L85.4598 153.783L86.6265 124.366L90.4181 108.347L94.7931 128.735L97.7097 154.948L105.585 154.074L102.96 122.327C102.96 122.327 105.293 93.7845 100.918 89.4157Z" fill="#2F2E41"/>
<path d="M103.835 152.618L106.46 153.491C106.46 153.491 112.001 152.035 110.543 155.821C109.085 159.608 105.001 159.025 105.001 159.025C105.001 159.025 100.043 162.812 98.0015 159.899L99.1681 153.783L103.835 152.618Z" fill="#2F2E41"/>
<path d="M82.5432 152.618L85.1682 153.491C85.1682 153.491 90.7098 152.035 89.2515 155.821C87.7932 159.608 83.7099 159.025 83.7099 159.025C83.7099 159.025 78.7516 162.812 76.71 159.899L77.8766 153.783L82.5432 152.618Z" fill="#2F2E41"/>
<path d="M87.9389 51.1154C87.9389 51.1154 81.8139 46.7466 85.0222 41.504C87.248 37.867 91.8601 38.1549 94.4762 38.6724C95.1811 38.8023 95.8437 39.1014 96.407 39.544C96.9703 39.9865 97.4173 40.5593 97.7096 41.2128C98.1471 42.2322 98.1471 43.2516 96.3971 43.2516C92.8972 43.2516 94.6472 45.8728 94.6472 45.8728C94.6472 45.8728 92.3138 46.4554 92.8972 48.4941C93.4805 50.5329 87.9389 51.1154 87.9389 51.1154Z" fill="#2F2E41"/>
</g>
<defs>
<clipPath id="clip0">
<rect width="259" height="161" fill="white"/>
</clipPath>
</defs>
</svg>
