<svg width="28" height="28" viewBox="0 0 28 28" fill="none" xmlns="http://www.w3.org/2000/svg">
<path d="M16.2717 1.02557C15.9469 0.870637 15.5643 0.911704 15.2843 1.13757L6.2048 8.40077H1.86667C0.838133 8.40077 0 9.2389 0 10.2674V17.7341C0 18.7645 0.838133 19.6008 1.86667 19.6008H6.2048L15.2824 26.864C15.4523 26.9984 15.6595 27.0674 15.8667 27.0674C16.0048 27.0674 16.1429 27.0357 16.2717 26.9741C16.5947 26.8192 16.8 26.4925 16.8 26.1341V1.86744C16.8 1.50904 16.5947 1.18237 16.2717 1.02557Z" fill="white"/>
<path d="M21.5226 7.39991C21.1549 7.03777 20.565 7.04337 20.2029 7.40737C19.8407 7.77511 19.8445 8.36497 20.2103 8.72897C21.6215 10.1215 22.3981 11.9938 22.3981 14.0004C22.3981 16.0071 21.6215 17.8794 20.2103 19.2719C19.8445 19.6322 19.8407 20.2239 20.2029 20.5916C20.3858 20.7764 20.6266 20.8679 20.8655 20.8679C21.1026 20.8679 21.3397 20.7783 21.5226 20.5972C23.2922 18.8556 24.2647 16.5111 24.2647 14.0004C24.2647 11.4898 23.2922 9.14524 21.5226 7.39991Z" fill="white"/>
<path d="M24.1575 4.76972C23.7898 4.40572 23.1999 4.40945 22.8359 4.77532C22.4738 5.14119 22.4775 5.73292 22.8415 6.09505C24.9639 8.19879 26.1324 11.0063 26.1324 14.0004C26.1324 16.9945 24.9639 19.8001 22.8415 21.9039C22.4775 22.2679 22.4738 22.8596 22.8359 23.2255C23.0207 23.4084 23.2596 23.4999 23.4986 23.4999C23.7356 23.4999 23.9746 23.4103 24.1575 23.2292C26.6364 20.7745 27.9991 17.4967 27.9991 14.0004C27.9991 10.5041 26.6364 7.22625 24.1575 4.76972Z" fill="white"/>
</svg>
