<svg width="300" height="298" viewBox="0 0 300 298" fill="none" xmlns="http://www.w3.org/2000/svg">
<g clip-path="url(#clip0)">
<path d="M203.487 80.1082C207.087 82.0066 210.606 83.9494 214.045 85.9363" stroke="#2F2E41" stroke-miterlimit="10"/>
<path d="M136.487 68.3447C152.191 71.7369 169.336 77.5929 186.608 85.8575C199.118 91.8038 211.088 98.8222 222.385 106.834" stroke="#2F2E41" stroke-miterlimit="10"/>
<path d="M84.2151 297.26H245.237" stroke="#3F3D56" stroke-miterlimit="10"/>
<path d="M121.792 65.8339C126.512 66.4135 131.424 67.251 136.487 68.3446" stroke="#2F2E41" stroke-miterlimit="10"/>
<path d="M75.6105 115.021C66.892 102.275 63.897 90.233 68.3764 80.8907C73.3309 70.5578 86.5929 65.2721 104.57 64.8828" stroke="#2F2E41" stroke-miterlimit="10"/>
<path d="M259.208 143.49C266.475 155.177 268.73 166.133 264.585 174.777C260.937 182.384 252.787 187.256 241.568 189.452" stroke="#2F2E41" stroke-miterlimit="10"/>
<path d="M222.385 106.834C229.667 111.994 236.551 117.693 242.978 123.885" stroke="#2F2E41" stroke-miterlimit="10"/>
<path d="M70.7832 49.9454C85.2552 46.8396 103.983 47.3917 124.928 51.5161" stroke="#2F2E41" stroke-miterlimit="10"/>
<path d="M281.415 143.489C287.894 152.943 291.879 162.092 292.92 170.424" stroke="#2F2E41" stroke-miterlimit="10"/>
<path d="M214.045 85.9363C220.543 89.6898 226.726 93.5719 232.594 97.5827" stroke="#2F2E41" stroke-miterlimit="10"/>
<path d="M223.358 225.189C221.696 225.283 220.093 225.837 218.729 226.79C217.364 227.743 216.293 229.056 215.634 230.584C213.703 235.247 216.189 240.725 219.922 244.126C223.655 247.527 228.451 249.471 232.807 252.026C238.659 255.458 243.918 260.222 246.846 266.337C249.774 272.452 250.086 280.027 246.644 285.87C243.449 291.292 237.64 294.538 232.1 297.531" stroke="#3F3D56" stroke-miterlimit="10"/>
<path d="M228.277 228.905C232.046 228.905 235.1 227.423 235.1 225.595C235.1 223.766 232.046 222.284 228.277 222.284C224.509 222.284 221.454 223.766 221.454 225.595C221.454 227.423 224.509 228.905 228.277 228.905Z" fill="#57B894"/>
<path d="M233.736 250.717C237.504 250.717 240.559 249.234 240.559 247.406C240.559 245.578 237.504 244.095 233.736 244.095C229.967 244.095 226.913 245.578 226.913 247.406C226.913 249.234 229.967 250.717 233.736 250.717Z" fill="#57B894"/>
<path d="M221.259 254.222C225.028 254.222 228.082 252.74 228.082 250.911C228.082 249.083 225.028 247.601 221.259 247.601C217.491 247.601 214.437 249.083 214.437 250.911C214.437 252.74 217.491 254.222 221.259 254.222Z" fill="#57B894"/>
<path d="M240.754 272.528C244.522 272.528 247.577 271.046 247.577 269.217C247.577 267.389 244.522 265.907 240.754 265.907C236.985 265.907 233.931 267.389 233.931 269.217C233.931 271.046 236.985 272.528 240.754 272.528Z" fill="#57B894"/>
<path d="M254.4 272.528C258.168 272.528 261.223 271.046 261.223 269.217C261.223 267.389 258.168 265.907 254.4 265.907C250.631 265.907 247.577 267.389 247.577 269.217C247.577 271.046 250.631 272.528 254.4 272.528Z" fill="#57B894"/>
<path d="M186.794 96.6313H190.638C190.638 96.6313 194.161 123.83 191.599 126.39C189.036 128.949 181.99 130.549 181.029 126.39C180.068 122.23 181.029 106.871 181.029 106.871L186.794 96.6313Z" fill="#218FF4"/>
<path d="M161.65 100.311C174.564 100.311 185.033 88.0624 185.033 72.9527C185.033 57.8431 174.564 45.5943 161.65 45.5943C148.736 45.5943 138.267 57.8431 138.267 72.9527C138.267 88.0624 148.736 100.311 161.65 100.311Z" fill="#2F2E41"/>
<path d="M156.365 78.0723C156.365 78.0723 157.646 88.6317 153.802 90.8716C149.958 93.1114 158.286 105.911 158.286 105.911L168.216 108.471L174.943 99.1911L173.661 89.5916C173.661 89.5916 165.974 81.9121 169.497 74.8725L156.365 78.0723Z" fill="#FFC1C7"/>
<path opacity="0.1" d="M156.365 78.0723C156.365 78.0723 157.646 88.6317 153.802 90.8716C149.958 93.1114 158.286 105.911 158.286 105.911L168.216 108.471L174.943 99.1911L173.661 89.5916C173.661 89.5916 165.974 81.9121 169.497 74.8725L156.365 78.0723Z" fill="black"/>
<path d="M141.951 192.696C141.951 192.696 138.107 227.574 141.951 235.894C145.794 244.214 156.044 267.572 156.044 267.572L152.841 274.292L161.489 272.372L165.013 265.652C165.013 265.652 160.849 249.333 160.208 243.574C159.568 237.814 154.763 227.254 154.763 227.254L163.732 189.177L141.951 192.696Z" fill="#FFC1C7"/>
<path d="M172.38 186.866C172.38 186.866 172.7 222.064 174.942 227.524L173.661 275.201L180.708 276.141C180.708 276.141 190.958 236.143 189.356 226.544C187.755 216.944 189.677 182.386 189.677 182.386L172.38 186.866Z" fill="#FFC1C7"/>
<path d="M161.65 82.3921C168.372 82.3921 173.822 76.9482 173.822 70.2328C173.822 63.5174 168.372 58.0735 161.65 58.0735C154.928 58.0735 149.478 63.5174 149.478 70.2328C149.478 76.9482 154.928 82.3921 161.65 82.3921Z" fill="#FFC1C7"/>
<path d="M203.13 191.346C203.13 191.346 194.481 197.105 190.958 192.946C187.434 188.786 144.193 195.506 138.747 194.226C133.302 192.946 141.63 172.467 141.63 161.907C141.63 154.007 144.5 141.989 145.945 136.434C146.432 134.565 146.755 133.429 146.755 133.429C146.755 133.429 150.041 124.089 149.426 120.207C149.385 119.913 149.304 119.626 149.186 119.353C149.135 119.239 149.072 119.131 148.997 119.03C147.463 116.985 143.065 102.074 141.358 95.6712C141.079 94.7237 140.849 93.7625 140.669 92.7914C140.669 91.8315 152.521 88.9516 155.483 88.814C158.45 88.6765 159.247 92.7914 159.247 92.7914C160.208 93.4314 164.692 104.631 164.692 104.631L168.856 94.0714C168.856 94.0714 168.536 91.8315 168.216 91.8315C167.895 91.8315 172.953 88.8109 172.953 88.8109C172.953 88.8109 178.145 92.4714 181.028 91.8315C183.911 91.1915 190.637 96.9512 190.637 96.9512C190.637 96.9512 178.786 126.709 183.591 133.109C188.395 139.509 203.13 191.346 203.13 191.346Z" fill="#218FF4"/>
<path d="M164.052 264.372C164.052 264.372 158.607 269.812 158.607 270.452L154.122 268.532C154.122 268.532 152.201 275.572 151.88 276.532C151.56 277.492 146.115 286.131 140.669 289.971C135.224 293.811 140.669 298.61 145.474 297.65C150.279 296.691 162.45 285.811 162.45 285.811C162.45 285.811 170.779 285.811 173.661 279.411C173.661 279.411 165.974 263.732 164.052 264.372Z" fill="#2F2E41"/>
<path d="M180.067 273.601C180.067 273.601 171.839 267.629 171.309 273.175C170.778 278.721 170.778 290.88 170.778 290.88C170.778 290.88 168.216 298.88 176.224 297.92C184.231 296.96 184.872 294.72 184.872 294.72L181.028 279.361V272.641L180.067 273.601Z" fill="#2F2E41"/>
<path opacity="0.1" d="M148.998 119.03C147.463 116.985 143.065 102.074 141.358 95.6715H142.912C142.912 95.6715 146.813 110.925 149.187 119.353C149.135 119.239 149.072 119.131 148.998 119.03Z" fill="black"/>
<path opacity="0.1" d="M170.138 140.149C170.138 140.149 165.654 140.469 149.318 137.269C148.18 137.051 147.054 136.772 145.945 136.434C146.432 134.565 146.755 133.429 146.755 133.429C146.755 133.429 150.042 124.089 149.427 120.208C150.192 122.896 150.763 124.71 150.919 124.79C151.56 125.11 172.06 128.63 174.943 129.91C177.826 131.189 170.138 140.149 170.138 140.149Z" fill="black"/>
<path opacity="0.1" d="M175.904 98.2701C175.904 98.2701 184.739 97.1811 185.286 98.6121C185.833 100.043 188.076 113.873 189.037 115.646C189.997 117.419 190.318 128.412 186.474 128.767C182.63 129.122 177.505 125.221 178.466 122.029C179.427 118.838 175.904 98.2701 175.904 98.2701Z" fill="black"/>
<path d="M171.419 127.67C171.419 127.67 184.872 129.27 187.114 127.67C189.357 126.07 198.646 126.07 196.724 130.549C194.802 135.029 178.146 135.349 178.146 135.349H168.536L171.419 127.67Z" fill="#FFC1C7"/>
<path d="M142.912 93.4316H140.67C140.67 93.4316 136.185 94.3916 136.826 108.471C137.466 122.55 132.982 131.829 149.318 135.029C165.654 138.229 170.138 137.909 170.138 137.909C170.138 137.909 177.825 128.95 174.943 127.67C172.06 126.39 151.56 122.87 150.919 122.55C150.279 122.23 142.912 93.4316 142.912 93.4316Z" fill="#218FF4"/>
<path d="M185.04 99.7472C185.04 99.7472 179.427 78.7123 174.943 78.7123C170.458 78.7123 165.333 79.6723 169.177 83.832C173.021 87.9918 177.826 92.4715 178.146 94.7114C178.466 96.9513 179.747 100.151 179.747 100.151L185.04 99.7472Z" fill="#FFC1C7"/>
<path d="M177.185 98.2701C177.185 98.2701 186.02 97.1811 186.567 98.6121C187.115 100.043 189.357 113.873 190.318 115.646C191.279 117.419 191.599 128.412 187.755 128.767C183.912 129.122 178.787 125.221 179.748 122.029C180.708 118.838 177.185 98.2701 177.185 98.2701Z" fill="#218FF4"/>
<path d="M158.446 70.2328C164.815 70.2328 169.978 65.0754 169.978 58.7135C169.978 52.3515 164.815 47.1941 158.446 47.1941C152.078 47.1941 146.915 52.3515 146.915 58.7135C146.915 65.0754 152.078 70.2328 158.446 70.2328Z" fill="#2F2E41"/>
<path d="M204.913 188.933C187.019 185.987 166.775 179.582 146.354 169.811C123.102 158.685 103.4 145.002 89.3604 131.173" stroke="#2F2E41" stroke-miterlimit="10"/>
<path d="M132.36 175.829C116.351 167.543 101.858 158.332 89.3596 148.741" stroke="#2F2E41" stroke-miterlimit="10"/>
<path d="M19.1927 46.3357C29.7925 46.3357 38.3853 37.7517 38.3853 27.1627C38.3853 16.5738 29.7925 7.98972 19.1927 7.98972C8.59285 7.98972 0 16.5738 0 27.1627C0 37.7517 8.59285 46.3357 19.1927 46.3357Z" fill="#218FF4"/>
<path d="M23.6949 38.5245C34.2947 38.5245 42.8875 29.9405 42.8875 19.3515C42.8875 8.76258 34.2947 0.178528 23.6949 0.178528C13.095 0.178528 4.5022 8.76258 4.5022 19.3515C4.5022 29.9405 13.095 38.5245 23.6949 38.5245Z" stroke="#2F2E41" stroke-miterlimit="10"/>
<path d="M286.035 107.571C292.202 107.571 297.202 102.577 297.202 96.416C297.202 90.2551 292.202 85.2607 286.035 85.2607C279.868 85.2607 274.869 90.2551 274.869 96.416C274.869 102.577 279.868 107.571 286.035 107.571Z" fill="#F2F2F2"/>
<path d="M288.654 103.026C294.822 103.026 299.821 98.0319 299.821 91.871C299.821 85.7102 294.822 80.7158 288.654 80.7158C282.487 80.7158 277.488 85.7102 277.488 91.871C277.488 98.0319 282.487 103.026 288.654 103.026Z" stroke="#2F2E41" stroke-miterlimit="10"/>
<path d="M82.3323 228.733C91.1976 228.733 98.3844 221.554 98.3844 212.698C98.3844 203.841 91.1976 196.662 82.3323 196.662C73.467 196.662 66.2803 203.841 66.2803 212.698C66.2803 221.554 73.467 228.733 82.3323 228.733Z" fill="#F2F2F2"/>
<path d="M86.0977 222.2C94.963 222.2 102.15 215.021 102.15 206.165C102.15 197.308 94.963 190.129 86.0977 190.129C77.2324 190.129 70.0457 197.308 70.0457 206.165C70.0457 215.021 77.2324 222.2 86.0977 222.2Z" stroke="#2F2E41" stroke-miterlimit="10"/>
</g>
<defs>
<clipPath id="clip0">
<rect width="300" height="298" fill="white"/>
</clipPath>
</defs>
</svg>
