<svg width="433" height="363" viewBox="0 0 433 363" fill="none" xmlns="http://www.w3.org/2000/svg">
<g clip-path="url(#clip0_4871_180)">
<path d="M203.382 362.023C297.826 362.023 374.387 358.108 374.387 353.278C374.387 348.449 297.826 344.534 203.382 344.534C108.939 344.534 32.377 348.449 32.377 353.278C32.377 358.108 108.939 362.023 203.382 362.023Z" fill="#F2F2F2"/>
<path d="M303.289 84.0195H301.347V30.8013C301.347 22.6323 298.102 14.7979 292.325 9.0215C286.549 3.24514 278.715 9.01919e-06 270.546 0H157.795C149.626 -1.54613e-05 141.792 3.24509 136.016 9.02143C130.239 14.7978 126.994 22.6322 126.994 30.8012V322.761C126.994 330.93 130.239 338.764 136.016 344.54C141.792 350.317 149.626 353.562 157.795 353.562H270.545C278.714 353.562 286.549 350.317 292.325 344.54C298.102 338.764 301.347 330.93 301.347 322.761V121.901H303.289L303.289 84.0195Z" fill="#2D3B5A"/>
<path d="M294.791 31.0163V322.546C294.791 328.647 292.368 334.498 288.054 338.812C283.74 343.125 277.889 345.549 271.788 345.549H158.497C152.396 345.549 146.546 343.125 142.232 338.812C137.918 334.498 135.494 328.647 135.494 322.546V31.0163C135.494 24.9155 137.918 19.0647 142.232 14.7508C146.546 10.4369 152.396 8.0133 158.497 8.01318H172.241C171.565 9.6727 171.308 11.4727 171.492 13.255C171.675 15.0372 172.294 16.747 173.294 18.234C174.293 19.721 175.643 20.9395 177.224 21.7825C178.805 22.6255 180.569 23.0671 182.36 23.0684H246.954C248.745 23.0671 250.509 22.6255 252.09 21.7825C253.671 20.9395 255.021 19.7209 256.02 18.234C257.019 16.747 257.638 15.0372 257.822 13.255C258.005 11.4727 257.748 9.6727 257.073 8.01318H271.788C277.889 8.0133 283.74 10.4369 288.054 14.7508C292.368 19.0647 294.791 24.9155 294.791 31.0163V31.0163Z" fill="white"/>
<path d="M258.294 156.723C257.54 157.116 256.774 157.489 255.995 157.84C255.286 158.161 254.566 158.462 253.834 158.744C253.566 158.846 253.295 158.948 253.022 159.05C250.871 159.83 248.662 160.439 246.415 160.871C245.303 161.09 244.176 161.262 243.034 161.386C242.092 161.493 241.14 161.569 240.178 161.615C239.493 161.649 238.807 161.663 238.118 161.663C235.386 161.664 232.66 161.409 229.976 160.901C229.276 160.774 228.591 160.624 227.906 160.458C224.593 159.664 221.385 158.48 218.35 156.931C218.078 156.795 217.806 156.65 217.534 156.509C217.131 156.295 216.737 156.072 216.344 155.838C216.533 155.576 216.737 155.319 216.946 155.066C219.219 152.249 222.061 149.942 225.285 148.297C228.509 146.651 232.044 145.704 235.659 145.516C239.274 145.328 242.888 145.904 246.266 147.206C249.644 148.508 252.709 150.508 255.262 153.074C256.148 153.963 256.97 154.915 257.72 155.921C257.919 156.183 258.109 156.451 258.294 156.723Z" fill="#2D3B5A"/>
<path d="M239.088 135.382C250.869 135.382 260.419 125.832 260.419 114.051C260.419 102.269 250.869 92.7188 239.088 92.7188C227.306 92.7188 217.756 102.269 217.756 114.051C217.756 125.832 227.306 135.382 239.088 135.382Z" fill="#2F2E41"/>
<path d="M244.761 135.412C252.455 131.206 255.283 121.56 251.077 113.866C246.871 106.172 237.225 103.344 229.531 107.55C221.837 111.756 219.009 121.403 223.215 129.097C227.421 136.791 237.068 139.618 244.761 135.412Z" fill="#A0616A"/>
<path d="M253.829 111.495C250.201 113.996 245.895 115.326 241.489 115.309C243.06 116.399 244.85 117.135 246.733 117.467C240.875 118.723 234.82 118.757 228.948 117.567C227.643 117.357 226.383 116.925 225.225 116.288C224.647 115.965 224.144 115.525 223.748 114.996C223.353 114.466 223.072 113.859 222.926 113.214C222.536 110.985 224.273 108.96 226.078 107.595C228.842 105.537 232.029 104.119 235.408 103.444C238.787 102.769 242.274 102.853 245.616 103.691C247.799 104.255 249.985 105.208 251.402 106.961C252.82 108.713 253.24 111.415 251.889 113.22L253.829 111.495Z" fill="#2F2E41"/>
<path d="M238.119 74.2173C228.584 74.2159 219.31 77.3322 211.71 83.0912C204.11 88.8503 198.601 96.9362 196.024 106.117C193.446 115.297 193.941 125.069 197.433 133.942C200.924 142.815 207.221 150.303 215.364 155.265L215.646 155.43C215.879 155.571 216.112 155.707 216.345 155.838C216.739 156.071 217.132 156.295 217.536 156.509C217.808 156.65 218.08 156.795 218.352 156.931C221.387 158.48 224.594 159.664 227.908 160.458C228.593 160.623 229.278 160.774 229.977 160.9C232.661 161.409 235.387 161.664 238.119 161.663C238.809 161.663 239.494 161.648 240.179 161.614C241.141 161.571 242.093 161.495 243.036 161.386C244.178 161.26 245.305 161.088 246.417 160.871C248.664 160.439 250.873 159.83 253.024 159.049C253.296 158.947 253.568 158.845 253.835 158.743C254.569 158.462 255.289 158.16 255.997 157.84C256.774 157.49 257.541 157.118 258.295 156.722C265.858 152.762 272.109 146.691 276.289 139.248C276.309 139.209 276.333 139.17 276.353 139.131C278.583 135.129 280.165 130.798 281.041 126.301C282.27 119.97 282.084 113.445 280.496 107.194C278.908 100.943 275.957 95.1203 271.856 90.1431C267.754 85.1658 262.603 81.1571 256.77 78.4038C250.938 75.6506 244.569 74.2209 238.119 74.2173H238.119ZM275.556 138.563C275.517 138.631 275.483 138.699 275.444 138.762C271.347 146.096 265.184 152.063 257.722 155.921C256.978 156.309 256.222 156.674 255.453 157.014C254.817 157.3 254.166 157.573 253.51 157.825C253.233 157.932 252.951 158.039 252.669 158.136C250.811 158.815 248.907 159.36 246.971 159.768C245.535 160.074 244.083 160.303 242.623 160.453C241.724 160.551 240.811 160.619 239.893 160.653C239.305 160.677 238.712 160.691 238.119 160.691C235.476 160.695 232.837 160.449 230.24 159.958C228.659 159.666 227.097 159.284 225.561 158.811C223.221 158.089 220.948 157.167 218.765 156.057C218.512 155.926 218.26 155.794 218.012 155.658C217.657 155.469 217.298 155.275 216.948 155.066C216.685 154.92 216.423 154.765 216.166 154.609C216.015 154.522 215.864 154.429 215.714 154.337C208.575 149.953 202.88 143.569 199.336 135.978C195.792 128.386 194.554 119.921 195.777 111.633C197 103.345 200.63 95.5981 206.215 89.3539C211.801 83.1096 219.097 78.6427 227.198 76.5072C235.299 74.3718 243.849 74.6618 251.787 77.3413C259.725 80.0208 266.702 84.9718 271.851 91.5802C277.001 98.1885 280.097 106.163 280.756 114.515C281.414 122.867 279.606 131.229 275.556 138.563H275.556Z" fill="#3F3D56"/>
<path d="M228.286 93.0132C228.057 90.5997 225.1 89.1139 222.788 89.8429C220.476 90.5719 218.958 92.9001 218.499 95.2806C218.278 96.2832 218.257 97.3195 218.438 98.33C218.618 99.3406 218.997 100.306 219.551 101.17C220.72 102.852 222.867 103.901 224.871 103.474C227.157 102.987 228.742 100.754 229.195 98.4604C229.648 96.1667 229.198 93.8018 228.749 91.5073L228.286 93.0132Z" fill="#2F2E41"/>
<path d="M260.825 96.461C260.596 94.0475 257.639 92.5616 255.327 93.2907C253.015 94.0197 251.497 96.3478 251.038 98.7284C250.817 99.7309 250.796 100.767 250.977 101.778C251.158 102.788 251.536 103.753 252.09 104.618C253.259 106.3 255.406 107.349 257.41 106.922C259.696 106.435 261.281 104.202 261.734 101.908C262.187 99.6144 261.737 97.2496 261.288 94.9551L260.825 96.461Z" fill="#2F2E41"/>
<path d="M162.544 135.414C162.242 135.414 161.943 135.35 161.666 135.228C161.389 135.105 161.141 134.927 160.938 134.703L136.831 108.404C136.557 108.106 136.225 107.869 135.855 107.706C135.485 107.543 135.085 107.459 134.681 107.458H7.29166C5.35846 107.456 3.50505 106.687 2.13807 105.32C0.771091 103.953 0.00217049 102.1 0 100.167V54.2272C0.00216921 52.294 0.771091 50.4406 2.13807 49.0736C3.50505 47.7066 5.35845 46.9377 7.29166 46.9355H172.334C174.267 46.9377 176.12 47.7066 177.487 49.0736C178.854 50.4406 179.623 52.294 179.625 54.2272V100.167C179.623 102.1 178.854 103.953 177.487 105.32C176.12 106.687 174.267 107.456 172.334 107.458H167.655C166.881 107.459 166.14 107.767 165.593 108.314C165.046 108.861 164.738 109.602 164.737 110.375V133.225C164.739 133.666 164.607 134.097 164.358 134.461C164.109 134.825 163.755 135.105 163.343 135.263C163.089 135.363 162.818 135.414 162.544 135.414V135.414Z" fill="#2D3B5A"/>
<path d="M162.544 135.414C162.242 135.414 161.943 135.35 161.666 135.228C161.389 135.105 161.141 134.927 160.938 134.703L136.831 108.404C136.557 108.106 136.225 107.869 135.855 107.706C135.485 107.543 135.085 107.459 134.681 107.458H7.29166C5.35846 107.456 3.50505 106.687 2.13807 105.32C0.771091 103.953 0.00217049 102.1 0 100.167V54.2272C0.00216921 52.294 0.771091 50.4406 2.13807 49.0736C3.50505 47.7066 5.35845 46.9377 7.29166 46.9355H172.334C174.267 46.9377 176.12 47.7066 177.487 49.0736C178.854 50.4406 179.623 52.294 179.625 54.2272V100.167C179.623 102.1 178.854 103.953 177.487 105.32C176.12 106.687 174.267 107.456 172.334 107.458H167.655C166.881 107.459 166.14 107.767 165.593 108.314C165.046 108.861 164.738 109.602 164.737 110.375V133.225C164.739 133.666 164.607 134.097 164.358 134.461C164.109 134.825 163.755 135.105 163.343 135.263C163.089 135.363 162.818 135.414 162.544 135.414V135.414ZM7.29166 47.9072C5.61606 47.9091 4.00963 48.5755 2.8248 49.7604C1.63997 50.9452 0.973511 52.5516 0.97162 54.2272V100.167C0.973514 101.842 1.63998 103.449 2.82481 104.633C4.00964 105.818 5.61606 106.485 7.29166 106.487H134.681C135.22 106.487 135.753 106.6 136.246 106.817C136.739 107.034 137.182 107.351 137.547 107.748L161.654 134.046C161.819 134.227 162.036 134.353 162.274 134.409C162.513 134.464 162.763 134.446 162.991 134.358C163.219 134.269 163.415 134.113 163.553 133.911C163.692 133.709 163.766 133.47 163.766 133.225V110.375C163.767 109.344 164.177 108.356 164.906 107.627C165.635 106.898 166.624 106.488 167.655 106.487H172.334C174.009 106.485 175.616 105.818 176.8 104.633C177.985 103.449 178.652 101.842 178.654 100.167V54.2272C178.652 52.5516 177.985 50.9452 176.8 49.7604C175.616 48.5755 174.009 47.9091 172.334 47.9072H7.29166Z" fill="#3F3D56"/>
<path d="M17.8863 67.2009C21.4102 67.2009 24.2668 64.3443 24.2668 60.8204C24.2668 57.2966 21.4102 54.4399 17.8863 54.4399C14.3625 54.4399 11.5059 57.2966 11.5059 60.8204C11.5059 64.3443 14.3625 67.2009 17.8863 67.2009Z" fill="white"/>
<path d="M164.889 96.1257H14.7351C14.2879 96.1262 13.845 96.0386 13.4316 95.8678C13.0183 95.697 12.6427 95.4465 12.3263 95.1304C12.0098 94.8144 11.7588 94.4391 11.5875 94.0259C11.4163 93.6128 11.3281 93.17 11.3281 92.7227C11.3281 92.2755 11.4163 91.8327 11.5875 91.4196C11.7588 91.0064 12.0098 90.6311 12.3263 90.3151C12.6427 89.999 13.0183 89.7485 13.4316 89.5777C13.845 89.4069 14.2879 89.3193 14.7351 89.3198H164.889C165.791 89.3209 166.656 89.6799 167.293 90.318C167.93 90.956 168.288 91.8209 168.288 92.7227C168.288 93.6246 167.93 94.4895 167.293 95.1275C166.656 95.7656 165.791 96.1246 164.889 96.1257V96.1257Z" fill="white"/>
<path d="M115.972 81.6633H14.7351C14.2879 81.6638 13.845 81.5762 13.4316 81.4054C13.0183 81.2346 12.6427 80.9841 12.3263 80.668C12.0098 80.352 11.7588 79.9767 11.5875 79.5635C11.4163 79.1504 11.3281 78.7076 11.3281 78.2604C11.3281 77.8131 11.4163 77.3703 11.5875 76.9572C11.7588 76.544 12.0098 76.1687 12.3263 75.8527C12.6427 75.5366 13.0183 75.2861 13.4316 75.1153C13.845 74.9445 14.2879 74.8569 14.7351 74.8574H115.972C116.875 74.8574 117.74 75.2159 118.378 75.8541C119.017 76.4923 119.375 77.3578 119.375 78.2604C119.375 79.1629 119.017 80.0284 118.378 80.6666C117.74 81.3048 116.875 81.6633 115.972 81.6633Z" fill="white"/>
<path d="M268.763 289.172V289.169L268.763 266.32L268.763 266.32C268.762 265.414 268.401 264.546 267.761 263.905C267.12 263.264 266.252 262.904 265.346 262.903H265.346H260.667C258.866 262.901 257.14 262.185 255.867 260.911C254.593 259.638 253.877 257.912 253.875 256.111V210.172C253.877 208.372 254.593 206.645 255.867 205.372C257.14 204.099 258.866 203.382 260.667 203.38H425.708C427.509 203.382 429.235 204.099 430.509 205.372C431.782 206.645 432.498 208.372 432.5 210.173V256.111C432.498 257.912 431.782 259.638 430.509 260.911C429.235 262.185 427.509 262.901 425.708 262.903H298.32H298.319C297.846 262.904 297.377 263.002 296.944 263.193C296.511 263.384 296.121 263.662 295.801 264.011L295.801 264.011L271.694 290.31L271.692 290.311C271.536 290.484 271.345 290.621 271.132 290.716C270.919 290.81 270.689 290.859 270.456 290.859C270.245 290.859 270.036 290.819 269.839 290.742L269.657 291.208L269.836 290.741C269.519 290.619 269.247 290.404 269.055 290.124C268.863 289.843 268.761 289.511 268.763 289.172Z" fill="#2D3B5A" stroke="black"/>
<path d="M269.657 291.208C269.245 291.05 268.891 290.77 268.642 290.406C268.393 290.042 268.261 289.611 268.263 289.169V266.32C268.262 265.547 267.954 264.805 267.407 264.259C266.861 263.712 266.119 263.404 265.346 263.403H260.667C258.733 263.401 256.88 262.632 255.513 261.265C254.146 259.898 253.377 258.045 253.375 256.111V210.172C253.377 208.239 254.146 206.385 255.513 205.018C256.88 203.651 258.733 202.883 260.667 202.88H425.709C427.642 202.883 429.495 203.651 430.862 205.018C432.229 206.385 432.998 208.239 433 210.172V256.111C432.998 258.045 432.229 259.898 430.862 261.265C429.495 262.632 427.642 263.401 425.709 263.403H298.32C297.915 263.404 297.515 263.488 297.145 263.651C296.775 263.814 296.443 264.051 296.169 264.349L272.062 290.648C271.859 290.871 271.611 291.05 271.334 291.173C271.058 291.295 270.759 291.359 270.456 291.359C270.183 291.359 269.912 291.307 269.657 291.208V291.208ZM260.667 203.852C258.991 203.854 257.385 204.52 256.2 205.705C255.015 206.89 254.348 208.496 254.347 210.172V256.111C254.348 257.787 255.015 259.393 256.2 260.578C257.385 261.763 258.991 262.43 260.667 262.431H265.346C266.377 262.433 267.365 262.843 268.094 263.572C268.823 264.301 269.233 265.289 269.234 266.32V289.169C269.234 289.414 269.308 289.654 269.447 289.856C269.585 290.058 269.781 290.214 270.009 290.302C270.238 290.391 270.487 290.409 270.726 290.353C270.965 290.298 271.181 290.172 271.346 289.991L295.453 263.692C295.818 263.296 296.261 262.979 296.754 262.761C297.248 262.544 297.781 262.432 298.32 262.431H425.709C427.384 262.43 428.991 261.763 430.175 260.578C431.36 259.393 432.027 257.787 432.029 256.111V210.172C432.027 208.496 431.36 206.89 430.175 205.705C428.991 204.52 427.384 203.854 425.709 203.852H260.667Z" fill="#3F3D56"/>
<path d="M218.215 305.434C211.447 309.767 203.606 312.131 195.57 312.259C187.534 312.386 179.621 310.274 172.719 306.157C173.933 303.897 175.472 301.827 177.286 300.012C180.084 297.2 183.491 295.067 187.242 293.776C190.994 292.486 194.992 292.073 198.929 292.569C202.865 293.065 206.636 294.456 209.95 296.637C213.265 298.817 216.036 301.728 218.05 305.147C218.103 305.239 218.161 305.336 218.215 305.434Z" fill="#2D3B5A"/>
<path d="M193.567 282.202C205.427 282.202 215.041 272.588 215.041 260.728C215.041 248.869 205.427 239.255 193.567 239.255C181.708 239.255 172.094 248.869 172.094 260.728C172.094 272.588 181.708 282.202 193.567 282.202Z" fill="#2F2E41"/>
<path d="M209.545 275.875C213.779 268.13 210.933 258.419 203.188 254.185C195.443 249.951 185.732 252.798 181.498 260.543C177.264 268.288 180.111 277.999 187.856 282.232C195.601 286.466 205.312 283.62 209.545 275.875Z" fill="#FFB8B8"/>
<path d="M178.729 258.156C182.381 260.673 186.716 262.013 191.151 261.995C189.569 263.092 187.768 263.833 185.871 264.167C191.769 265.432 197.864 265.467 203.775 264.268C205.089 264.057 206.357 263.622 207.523 262.981C208.104 262.656 208.611 262.213 209.009 261.68C209.408 261.147 209.69 260.536 209.837 259.887C210.229 257.643 208.481 255.604 206.664 254.23C203.882 252.158 200.674 250.731 197.272 250.051C193.871 249.372 190.361 249.457 186.996 250.3C184.799 250.868 182.598 251.827 181.171 253.592C179.744 255.356 179.322 258.076 180.681 259.893L178.729 258.156Z" fill="#2F2E41"/>
<path d="M194.881 312.75C184.365 312.747 174.202 308.952 166.257 302.062C158.312 295.171 153.118 285.647 151.627 275.237C150.136 264.827 152.449 254.228 158.141 245.385C163.832 236.541 172.522 230.047 182.615 227.092C192.708 224.137 203.528 224.921 213.09 229.299C222.652 233.676 230.315 241.355 234.674 250.926C239.032 260.497 239.794 271.318 236.819 281.405C233.844 291.492 227.332 300.169 218.478 305.843C211.436 310.358 203.246 312.755 194.881 312.75V312.75ZM194.881 226.276C186.425 226.275 178.158 228.782 171.126 233.48C164.095 238.178 158.614 244.855 155.377 252.668C152.141 260.48 151.294 269.077 152.943 277.372C154.593 285.666 158.665 293.284 164.645 299.264C170.624 305.244 178.243 309.316 186.537 310.965C194.831 312.615 203.428 311.768 211.241 308.531C219.054 305.295 225.731 299.814 230.429 292.782C235.126 285.751 237.633 277.484 237.633 269.027C237.62 257.693 233.112 246.826 225.097 238.812C217.082 230.797 206.216 226.289 194.881 226.276V226.276Z" fill="#3F3D56"/>
<path d="M273.908 222.66C277.432 222.66 280.288 219.803 280.288 216.279C280.288 212.756 277.432 209.899 273.908 209.899C270.384 209.899 267.527 212.756 267.527 216.279C267.527 219.803 270.384 222.66 273.908 222.66Z" fill="white"/>
<path d="M420.911 251.585H270.757C270.309 251.585 269.866 251.498 269.453 251.327C269.04 251.156 268.664 250.905 268.348 250.589C268.031 250.273 267.78 249.898 267.609 249.485C267.438 249.072 267.35 248.629 267.35 248.182C267.35 247.735 267.438 247.292 267.609 246.879C267.78 246.465 268.031 246.09 268.348 245.774C268.664 245.458 269.04 245.207 269.453 245.037C269.866 244.866 270.309 244.778 270.757 244.779H420.911C421.813 244.779 422.679 245.137 423.317 245.775C423.955 246.414 424.314 247.279 424.314 248.182C424.314 249.084 423.955 249.95 423.317 250.588C422.679 251.226 421.813 251.585 420.911 251.585Z" fill="white"/>
<path d="M371.994 237.122H270.757C270.309 237.123 269.866 237.035 269.453 236.864C269.04 236.694 268.664 236.443 268.348 236.127C268.031 235.811 267.78 235.436 267.609 235.023C267.438 234.609 267.35 234.167 267.35 233.719C267.35 233.272 267.438 232.829 267.609 232.416C267.78 232.003 268.031 231.628 268.348 231.312C268.664 230.996 269.04 230.745 269.453 230.574C269.866 230.404 270.309 230.316 270.757 230.316H371.994C372.895 230.317 373.76 230.676 374.397 231.315C375.035 231.953 375.393 232.818 375.393 233.719C375.393 234.621 375.035 235.486 374.397 236.124C373.76 236.762 372.895 237.121 371.994 237.122V237.122Z" fill="white"/>
<path d="M269.451 295.557C276.026 295.557 281.355 294.966 281.355 294.236C281.355 293.507 276.026 292.915 269.451 292.915C262.877 292.915 257.547 293.507 257.547 294.236C257.547 294.966 262.877 295.557 269.451 295.557Z" fill="#F2F2F2"/>
<path d="M163.059 140.098C169.633 140.098 174.963 139.506 174.963 138.777C174.963 138.047 169.633 137.456 163.059 137.456C156.484 137.456 151.154 138.047 151.154 138.777C151.154 139.506 156.484 140.098 163.059 140.098Z" fill="#F2F2F2"/>
</g>
<defs>
<clipPath id="clip0_4871_180">
<rect width="433" height="362.023" fill="white"/>
</clipPath>
</defs>
</svg>
