<svg width="36" height="37" viewBox="0 0 36 37" fill="none" xmlns="http://www.w3.org/2000/svg">
<path d="M32.7656 2.88965H3.23438C1.45097 2.88965 0 4.38092 0 6.21387V25.0029C0 26.8359 1.45097 28.3271 3.23438 28.3271H4.5V31.3519C4.5 32.4401 5.09759 33.3987 6.05953 33.8534C6.42375 34.0256 6.80723 34.11 7.18692 34.11C7.8101 34.11 8.42288 33.8826 8.92245 33.4425C8.94263 33.4247 8.96217 33.4062 8.98116 33.387L13.9622 28.3271H32.7656C34.549 28.3271 36 26.8359 36 25.0029V6.21387C36 4.38092 34.549 2.88965 32.7656 2.88965ZM26.0831 14.4563L22.9939 17.5851C22.9121 17.668 22.8748 17.7866 22.894 17.903L23.6241 22.326C23.6835 22.6861 23.589 23.0611 23.3474 23.329C23.1247 23.5759 22.8228 23.7021 22.5192 23.7021C22.3384 23.7021 22.1571 23.6574 21.9913 23.5669L18.165 21.4766C18.0618 21.4202 17.9381 21.4202 17.835 21.4766L14.0321 23.5541C13.7154 23.7271 13.3352 23.7518 13.0099 23.5964C12.5396 23.3717 12.2879 22.8594 12.3715 22.3526L13.1059 17.903C13.1251 17.7867 13.0878 17.6681 13.0061 17.5852L9.91687 14.4563C9.66284 14.199 9.52587 13.8362 9.57059 13.4725C9.63527 12.9456 10.0309 12.5439 10.524 12.4695L14.8062 11.8229C14.921 11.8056 15.0201 11.7311 15.071 11.6239L16.9773 7.61025C17.1352 7.27783 17.4301 7.02772 17.7836 6.95784C18.2941 6.85696 18.7911 7.12253 19.011 7.58561L20.9289 11.6239C20.9798 11.7311 21.0789 11.8056 21.1937 11.8229L25.476 12.4695C25.969 12.5439 26.3646 12.9457 26.4293 13.4725C26.4741 13.8362 26.3372 14.1989 26.0831 14.4563Z" fill="#00B9DA"/>
</svg>
