<svg width="120" height="96" viewBox="0 0 120 96" fill="none" xmlns="http://www.w3.org/2000/svg">
<g clip-path="url(#clip0)">
<path d="M115.278 83.9651H0V85.2319H115.278V83.9651Z" fill="#3F3D56"/>
<path d="M115.278 94.7332H0V96H115.278V94.7332Z" fill="#3F3D56"/>
<path d="M105.334 85.1303C105.265 85.0181 103.64 82.3148 103.077 76.7012C102.561 71.551 102.893 62.8699 107.41 50.7606C115.968 27.8202 105.438 9.31068 105.33 9.1263L105.85 8.82593C105.877 8.87268 108.594 13.5919 110.199 21.1065C112.32 31.0693 111.548 41.4282 107.973 50.9692C99.4297 73.8704 105.781 84.7116 105.846 84.8186L105.334 85.1303Z" fill="#3F3D56"/>
<path d="M101.987 7.77935C104.143 7.77935 105.89 6.03788 105.89 3.88967C105.89 1.74147 104.143 0 101.987 0C99.832 0 98.0847 1.74147 98.0847 3.88967C98.0847 6.03788 99.832 7.77935 101.987 7.77935Z" fill="#3F3D56"/>
<path d="M114.296 22.1412C116.451 22.1412 118.199 20.3997 118.199 18.2515C118.199 16.1033 116.451 14.3618 114.296 14.3618C112.141 14.3618 110.393 16.1033 110.393 18.2515C110.393 20.3997 112.141 22.1412 114.296 22.1412Z" fill="#3F3D56"/>
<path d="M105.89 31.7159C108.045 31.7159 109.793 29.9744 109.793 27.8262C109.793 25.678 108.045 23.9365 105.89 23.9365C103.735 23.9365 101.987 25.678 101.987 27.8262C101.987 29.9744 103.735 31.7159 105.89 31.7159Z" fill="#218FF4"/>
<path d="M116.097 39.7942C118.253 39.7942 120 38.0528 120 35.9046C120 33.7564 118.253 32.0149 116.097 32.0149C113.942 32.0149 112.195 33.7564 112.195 35.9046C112.195 38.0528 113.942 39.7942 116.097 39.7942Z" fill="#218FF4"/>
<path d="M102.888 52.3609C105.044 52.3609 106.791 50.6194 106.791 48.4712C106.791 46.323 105.044 44.5815 102.888 44.5815C100.733 44.5815 98.9854 46.323 98.9854 48.4712C98.9854 50.6194 100.733 52.3609 102.888 52.3609Z" fill="#3F3D56"/>
<path d="M107.691 85.2736C107.691 85.2736 103.789 75.699 115.497 68.5181L107.691 85.2736Z" fill="#3F3D56"/>
<path d="M102.892 85.1C102.892 85.1 101.115 74.9182 87.3682 75.0054L102.892 85.1Z" fill="#3F3D56"/>
<path d="M19.1663 59.965C22.3457 59.965 24.9232 57.3962 24.9232 54.2274C24.9232 51.0586 22.3457 48.4897 19.1663 48.4897C15.9869 48.4897 13.4094 51.0586 13.4094 54.2274C13.4094 57.3962 15.9869 59.965 19.1663 59.965Z" fill="#A0616A"/>
<path d="M20.2093 47.0908C19.1084 46.8214 17.9245 46.7764 16.8579 47.1593C15.7594 47.5536 14.8552 48.378 14.1901 49.3344C13.525 50.2908 13.0784 51.3793 12.6783 52.4725C12.4449 53.0686 12.2643 53.6839 12.1385 54.3113C11.995 55.1477 12.0226 56.0044 12.2197 56.8298C12.4167 57.6553 12.7791 58.4325 13.2852 59.1149C13.1166 58.6719 13.541 58.1889 14.0066 58.093C14.4721 57.997 14.9464 58.1593 15.4055 58.2822C16.2145 58.4985 17.0507 58.5965 17.888 58.5731C18.2087 58.564 18.5449 58.5318 18.8116 58.3541C19.6473 57.7971 19.205 56.358 19.9004 55.6344C20.1485 55.3762 20.5027 55.2555 20.8225 55.0935C21.9739 54.5104 22.7327 53.3336 23.0909 52.0969C23.3154 51.3218 23.8726 49.0953 23.3977 48.3748C22.9685 47.7237 20.9382 47.2692 20.2093 47.0908Z" fill="#2F2E41"/>
<path d="M34.8314 47.9007C34.4061 47.7518 33.9555 47.6881 33.5055 47.7131C33.0555 47.7381 32.6149 47.8513 32.2088 48.0464C30.7072 48.7483 28.0515 50.4488 28.1525 53.6675C28.2929 58.1456 29.8374 61.0844 29.8374 61.0844L29.5566 70.1806L28.1525 86.6937C28.1525 86.6937 21.2723 92.2914 23.9401 93.6908C26.6079 95.0902 31.1011 86.9736 31.1011 86.9736L34.6114 77.5975L35.8751 68.5013C35.8751 68.5013 37.9813 58.9853 35.8751 54.787C35.8751 54.787 38.3082 49.1655 34.8314 47.9007Z" fill="#A0616A"/>
<path d="M51.6013 62.344C51.6013 62.344 49.2144 72.4198 57.639 75.2186C66.0637 78.0175 77.1563 82.7755 77.1563 82.7755L78.5604 85.1545L81.7899 80.8163L81.2282 77.4577L75.7522 75.9183C75.7522 75.9183 65.5021 68.0816 61.0089 67.5218L61.5706 62.344H51.6013Z" fill="#A0616A"/>
<path d="M74.0402 54.2578L77.0159 59.1254C77.0159 59.1254 86.8447 64.7231 89.3721 68.5015C91.8995 72.2799 97.9372 76.3382 97.9372 76.3382L95.2694 82.6356C95.2694 82.6356 87.6872 73.8193 84.4577 72.9796C81.2282 72.14 66.9062 60.6648 66.9062 60.6648L74.0402 54.2578Z" fill="#A0616A"/>
<path d="M47.5389 37.1992C46.4429 37.3708 45.3461 37.5426 44.2632 37.7832C41.7473 38.3424 39.328 39.2689 36.9665 40.2987C33.6615 41.7399 30.4515 43.3883 27.3557 45.234C26.5208 45.7092 25.7242 46.2483 24.9731 46.8464C24.4732 47.2613 24.0027 47.7369 23.7346 48.3276C23.5643 48.74 23.4542 49.1746 23.4075 49.6181C23.1898 51.1742 23.1999 52.78 23.6229 54.2935C24.046 55.8071 24.904 57.226 26.1669 58.1663C26.5012 58.4231 26.8723 58.6282 27.2679 58.7747C27.8001 58.9364 28.3511 59.0285 28.9071 59.0486C30.6788 59.189 32.5295 59.3177 34.1689 58.6339C35.2107 58.1993 36.0927 57.4647 37.0513 56.8696C41.111 54.3495 46.2688 54.4568 50.7078 52.6825C51.1394 52.51 51.5789 52.3088 51.8807 51.9564C52.1092 51.6541 52.2813 51.3134 52.389 50.9505C52.9502 49.4024 53.5114 47.8543 54.0726 46.3062C54.4282 45.3253 54.7841 44.3437 55.0825 43.344C55.3947 42.2984 55.6435 41.2352 55.8922 40.1728C56.1061 39.2585 56.3264 38.3009 56.2442 37.3558C56.1228 35.9616 55.7996 35.905 54.5149 36.1068C52.1897 36.4721 49.8644 36.8362 47.5389 37.1992Z" fill="#218FF4"/>
<path d="M30.619 47.9007C30.1937 47.7518 29.7431 47.6881 29.2931 47.7131C28.8431 47.7381 28.4024 47.8513 27.9964 48.0464C26.4948 48.7483 23.8391 50.4488 23.9401 53.6675C24.0805 58.1456 25.625 61.0844 25.625 61.0844L25.3442 70.1806L23.9401 86.6937C23.9401 86.6937 17.0599 92.2914 19.7277 93.6908C22.3955 95.0902 26.8887 86.9736 26.8887 86.9736L30.399 77.5975L31.6627 68.5013C31.6627 68.5013 33.7689 58.9853 31.6627 54.787C31.6627 54.787 34.0958 49.1655 30.619 47.9007Z" fill="#A0616A"/>
<path d="M54.9935 36.041C54.9935 36.041 67.4677 34.9154 66.906 42.6122C66.3444 50.309 62.132 63.6035 62.132 63.6035L51.3203 64.1632C51.3203 64.1632 49.9162 55.067 51.882 51.9883L54.9935 36.041Z" fill="#2F2E41"/>
<path d="M63.6767 38.554C63.6767 38.554 66.7657 40.5131 68.4507 44.4315C70.1356 48.3499 75.1904 56.0467 75.1904 56.0467L66.9061 61.9242L60.728 55.6268L63.6767 38.554Z" fill="#2F2E41"/>
<path d="M78.5602 82.2157C78.5602 82.2157 75.8924 83.1953 77.7177 85.1545C78.839 86.3702 79.7842 87.7362 80.526 89.2128C80.526 89.2128 79.9643 92.8512 82.3513 92.7113C84.7383 92.5714 85.7212 87.6734 85.1595 85.9941C84.5979 84.3148 83.8958 76.3381 83.8958 76.3381C83.8958 76.3381 78.9814 76.758 79.1218 77.4577C79.2623 78.1574 79.9643 81.6559 78.5602 82.2157Z" fill="#2F2E41"/>
<path d="M95.2694 79.4169C95.2694 79.4169 92.7419 80.6764 93.444 81.7959C94.1461 82.9154 96.3926 86.1341 96.3926 86.1341C96.3926 86.1341 95.5502 90.3324 97.9372 90.7522C100.324 91.172 101.728 85.7143 101.307 84.5947C100.886 83.4752 100.886 79.137 100.886 79.137C100.886 79.137 101.026 74.7988 99.6221 74.7988C98.218 74.7988 95.831 75.3586 95.831 75.3586C95.831 75.3586 96.3926 79.277 95.2694 79.4169Z" fill="#2F2E41"/>
<path d="M17.5514 86.4658H13.4795V93.5486H17.5514V86.4658Z" fill="#218FF4"/>
</g>
<defs>
<clipPath id="clip0">
<rect width="120" height="96" fill="white"/>
</clipPath>
</defs>
</svg>
