<svg width="277" height="114" viewBox="0 0 277 114" fill="none" xmlns="http://www.w3.org/2000/svg">
<g clip-path="url(#clip0_3501_298)">
<path d="M168.467 58.1403L184.682 41.9496L168.467 25.759L173.41 20.8242L194.569 41.9496L173.41 63.0751L168.467 58.1403Z" fill="#E6E6E6"/>
<path d="M128.753 35.4541H122.161V42.0558H128.753V35.4541Z" fill="#E6E6E6"/>
<path d="M155.251 35.4541H148.659V42.0558H155.251V35.4541Z" fill="#E6E6E6"/>
<path d="M142.002 35.4541H135.41V42.0558H142.002V35.4541Z" fill="#E6E6E6"/>
<path d="M113.23 57.9753L96.9986 41.7846L113.214 25.5939L108.27 20.6592L87.1279 41.7846L108.287 62.91L113.23 57.9753Z" fill="#E6E6E6"/>
<path d="M168.467 55.0048L184.682 38.8142L168.467 22.6232L173.41 17.6885L194.569 38.8142L173.41 59.9396L168.467 55.0048Z" fill="#00B9DA"/>
<path d="M122.161 39.9689H128.753V33.3672H122.161L122.161 39.9689ZM155.25 33.3672H148.659V39.9689H155.25V33.3672ZM135.41 39.9689H142.001V33.3672H135.41V39.9689Z" fill="#00B9DA"/>
<path d="M113.23 54.8395L96.9986 38.6489L113.214 22.4582L108.27 17.5234L87.1279 38.6489L108.287 59.7743L113.23 54.8395Z" fill="#00B9DA"/>
<path d="M33.8535 107.629L37.5435 108.522L42.7403 94.6927L37.2943 93.374L33.8535 107.629Z" fill="#A0616A"/>
<path d="M32.1064 110.947L33.2396 106.253L40.4589 108.001C41.6739 108.297 42.7221 109.063 43.3737 110.132C44.0253 111.2 44.227 112.484 43.9346 113.702L43.9096 113.805L32.1064 110.947Z" fill="#2F2E41"/>
<path d="M50.189 110.146L53.9853 110.146L55.7911 95.4805L50.1885 95.4807L50.189 110.146Z" fill="#A0616A"/>
<path d="M49.2695 108.953L56.6969 108.953H56.6971C57.9478 108.953 59.1473 109.451 60.0317 110.336C60.916 111.222 61.4129 112.423 61.4129 113.676V113.782L49.2698 113.783L49.2695 108.953Z" fill="#2F2E41"/>
<path d="M49.2978 105.071L49.922 82.2561L49.0812 73.0046L47.4408 80.1242L40.2725 103.537L34.0928 101.908L41.2497 76.6638L39.6953 60.472L44.1612 57.5967L44.2215 57.6076L59.4797 60.4245L55.7938 104.421L49.2978 105.071Z" fill="#093B47"/>
<path d="M55.3365 63.6014C54.1077 63.6014 52.6707 63.205 51.0711 62.0741C45.9523 58.4558 39.849 62.3482 39.7878 62.3875L39.54 62.549L39.5487 62.2531C39.5549 62.0423 40.1679 41.0887 40.1679 34.3461C40.1679 27.3801 44.7057 22.2939 46.0966 20.901C47.4616 19.5336 48.6103 19.5639 50.0643 19.6017C50.3148 19.6081 50.576 19.6151 50.8507 19.6151C52.7509 19.6151 54.5982 21.4434 54.6759 21.5213L54.713 21.5585L54.7199 21.6106L59.9925 61.3717L59.9521 61.4229C59.9277 61.4541 58.1963 63.6014 55.3365 63.6014Z" fill="#CCCCCC"/>
<path d="M58.3313 13.3042C60.346 9.61298 58.9915 4.98485 55.306 2.96703C51.6204 0.949203 46.9995 2.30579 44.9848 5.99705C42.9701 9.6883 44.3246 14.3164 48.0101 16.3343C51.6957 18.3521 56.3166 16.9955 58.3313 13.3042Z" fill="#A0616A"/>
<path d="M63.3004 69.9682C62.9406 69.6889 62.6463 69.334 62.4382 68.9285C62.2302 68.523 62.1134 68.0767 62.0962 67.6211C62.079 67.1656 62.1617 66.7117 62.3386 66.2916C62.5154 65.8715 62.782 65.4954 63.1197 65.1896L58.8008 54.9863L64.4558 56.0287L67.6902 65.5582C68.1654 66.1604 68.4035 66.9163 68.3594 67.6826C68.3154 68.4489 67.9921 69.1724 67.451 69.716C66.9099 70.2596 66.1886 70.5855 65.4236 70.632C64.6586 70.6785 63.9031 70.4423 63.3004 69.9682V69.9682Z" fill="#A0616A"/>
<path d="M62.0765 64.1599L54.2725 48.215L50.8506 36.2142L50.8533 25.7889C50.861 25.7477 51.6655 21.6924 54.6471 21.9729C57.3507 22.2352 58.8069 23.5593 59.516 26.4004C60.1185 28.8139 59.2945 35.9741 59.2148 36.6497C59.7379 37.8921 67.5866 56.6218 66.2872 58.8772C66.2386 58.965 66.1677 59.0386 66.0818 59.0904L67.4726 62.0311L62.0765 64.1599Z" fill="#CCCCCC"/>
<path d="M50.6854 12.5204C51.5971 12.6392 52.2848 11.7049 52.6037 10.8413C52.9227 9.97774 53.1657 8.97233 53.9584 8.50583C55.0413 7.8685 56.4268 8.63504 57.6652 8.42476C59.0637 8.1873 59.9729 6.70286 60.0442 5.28399C60.1155 3.86512 59.5517 2.50047 58.9986 1.19228L58.8054 2.81806C58.8313 2.26705 58.7155 1.71861 58.4692 1.22521C58.2229 0.731817 57.8543 0.309962 57.3988 0L57.6477 2.38557C57.5947 2.05645 57.4774 1.74104 57.3024 1.45745C57.1274 1.17386 56.8982 0.927662 56.628 0.733003C56.3578 0.538344 56.0518 0.39905 55.7277 0.323113C55.4036 0.247175 55.0677 0.23609 54.7393 0.290495L54.7785 1.71191C53.1633 1.51954 51.5339 1.3269 49.9138 1.47346C48.2938 1.62002 46.6624 2.13338 45.4346 3.20197C43.5979 4.80041 42.9271 7.43243 43.1523 9.85897C43.3775 12.2855 44.3776 14.5651 45.4199 16.7671C45.6822 17.3212 46.0449 17.9464 46.6531 18.0169C47.1995 18.0803 47.6994 17.6229 47.8693 17.0989C48.0002 16.5612 47.9951 15.9994 47.8546 15.4642C47.7009 14.6463 47.5072 13.8103 47.6516 12.9907C47.7961 12.1711 48.3848 11.3613 49.2097 11.2608C50.0346 11.1604 50.8787 12.1047 50.4821 12.8361L50.6854 12.5204Z" fill="#2F2E41"/>
<path d="M238.929 68.9522C238.676 68.6624 238.488 68.3204 238.381 67.9503C238.273 67.5801 238.248 67.1909 238.307 66.8099C238.366 66.429 238.507 66.0656 238.721 65.7454C238.936 65.4251 239.218 65.1558 239.547 64.9565L237.601 55.791L242.127 57.5674L243.282 65.9987C243.579 66.5752 243.656 67.241 243.496 67.87C243.336 68.499 242.952 69.0475 242.415 69.4116C241.879 69.7756 241.228 69.93 240.585 69.8453C239.943 69.7606 239.354 69.4428 238.929 68.9522V68.9522Z" fill="#FFB8B8"/>
<path d="M238.416 61.8006L238.392 61.7105C235.945 52.6452 233.415 43.2742 230.327 33.0707L230.307 33.0039L230.375 32.9641C232.096 31.9581 234.683 32.0251 236.393 33.1198C237.167 33.619 237.769 34.3443 238.117 35.1975C238.466 36.0507 238.544 36.9906 238.342 37.8899L240.594 49.6525C241.51 53.4975 242.458 57.4774 243.363 61.4016L243.389 61.5129L243.249 61.5219C241.6 61.6269 239.896 61.7355 238.531 61.7955L238.416 61.8006Z" fill="#CCCCCC"/>
<path d="M217.619 110.591H214.409L212.882 98.1914H217.619V110.591Z" fill="#FFB8B8"/>
<path d="M218.438 113.707H208.088V113.576C208.089 112.506 208.514 111.48 209.269 110.724C210.024 109.968 211.048 109.542 212.116 109.541H218.438L218.438 113.707Z" fill="#2F2E41"/>
<path d="M247.865 107.939L244.806 108.915L239.592 97.5647L244.106 96.124L247.865 107.939Z" fill="#FFB8B8"/>
<path d="M239.729 113.806L239.689 113.681C239.366 112.661 239.46 111.555 239.95 110.605C240.44 109.654 241.287 108.937 242.304 108.612L248.327 106.689L249.59 110.659L239.729 113.806Z" fill="#2F2E41"/>
<path d="M231.619 24.7637C235.17 24.7637 238.049 21.8802 238.049 18.3233C238.049 14.7663 235.17 11.8828 231.619 11.8828C228.067 11.8828 225.188 14.7663 225.188 18.3233C225.188 21.8802 228.067 24.7637 231.619 24.7637Z" fill="#FFB8B8"/>
<path d="M234.506 17.1292C234.543 14.5316 233.457 11.9589 231.779 10.6655C230.988 10.0378 230.004 9.7045 228.995 9.72236C227.986 9.74022 227.014 10.1082 226.246 10.7634C224.594 12.1158 223.559 14.726 223.647 17.3214C227.349 17.332 231.051 17.3425 234.506 17.1292Z" fill="#2F2E41"/>
<path d="M219.452 106.6L219.323 106.587C216.531 106.313 213.643 106.029 210.914 105.997L210.766 105.995L210.786 105.848C211.432 101.158 211.707 96.2819 211.972 91.5665C212.233 86.9105 212.504 82.0962 213.134 77.5237C213.401 76.2992 213.661 75.0894 213.92 73.8839C216.063 63.9082 218.087 54.4856 222.266 45.1584L222.305 45.0703L222.401 45.0818C226.321 45.557 230.089 46.9896 233.008 49.1157L233.065 49.1568L233.062 49.2268C233.006 50.6756 232.948 52.1732 233.034 53.5375C234.359 55.3817 235.237 57.5097 235.599 59.7528C235.96 61.9959 235.795 64.2926 235.116 66.4607C236.266 70.3089 237.455 74.2867 238.667 78.2107C241.612 86.2972 244.66 94.6656 247.784 103.148L247.835 103.287L247.691 103.321C245.443 103.85 243.125 104.395 240.837 104.606L240.751 104.614L240.71 104.538C234.877 93.6658 230.133 82.2422 226.549 70.4339C225.768 72.8181 224.644 74.9702 223.554 77.0548C222.512 78.9508 221.596 80.9131 220.81 82.9291C220.328 86.8942 220.2 91.1901 220.076 95.3444C219.959 99.2724 219.849 102.982 219.466 106.471L219.452 106.6Z" fill="#093B47"/>
<path d="M229.424 10.7846C232.211 10.1831 235.294 10.7553 237.483 12.6388C239.672 14.5224 240.784 17.7808 239.885 20.5753C238.985 23.3698 235.932 25.336 233.172 24.6144C233.962 22.3822 233.072 19.6417 231.139 18.356C228.847 16.8312 228.216 13.191 229.424 10.7846Z" fill="#2F2E41"/>
<path d="M232.807 49.3956L232.705 49.3492C229.15 47.7244 225.663 46.4776 222.396 45.3402L222.296 45.3185L222.296 45.0276L222.361 45.0503C222.375 45.0201 222.39 44.9857 222.405 44.9516C222.45 44.8527 222.48 44.7854 222.506 44.7408L222.506 44.7404C222.778 44.1846 222.995 43.6475 223.204 43.128C223.42 42.5919 223.643 42.0384 223.931 41.4528C223.233 40.7512 222.754 39.8602 222.555 38.8897C222.356 37.9192 222.445 36.9115 222.811 35.9911C223.533 34.278 225.373 32.9439 227.306 32.7225C228.015 30.7693 229.593 26.6651 229.593 26.6651C229.593 26.6651 232.913 26.5738 234.248 26.4042L234.27 26.4014L234.292 26.4062C237.206 27.0458 239.639 29.8077 240.209 33.1227C240.689 35.9206 239.959 39.1209 238.154 42.1342C237.228 43.6078 236.204 45.0172 235.088 46.3531C234.275 47.3715 233.507 48.3333 232.869 49.302L232.807 49.3956Z" fill="#CCCCCC"/>
<path d="M239.244 14.6019C237.292 14.3102 235.761 12.3125 235.982 10.3492C236.204 8.38587 238.143 6.78156 240.11 6.93385C242.077 7.08614 243.746 8.96984 243.664 10.944C243.582 12.9181 241.735 14.9743 239.244 14.6019Z" fill="#2F2E41"/>
<path d="M238.939 13.3287C236.988 13.037 235.456 11.0394 235.678 9.07604C235.775 8.40825 236.039 7.77585 236.445 7.23781C236.852 6.69976 237.388 6.27359 238.003 5.99902C236.43 6.34396 235.076 7.71724 234.892 9.33827C234.671 11.3016 236.203 13.2992 238.154 13.5909C238.881 13.7052 239.625 13.6009 240.293 13.2912C239.848 13.3849 239.389 13.3976 238.939 13.3287V13.3287Z" fill="#2F2E41"/>
<path d="M201.092 47.9359C201.28 47.5996 201.54 47.3088 201.852 47.0839C202.165 46.859 202.523 46.7055 202.901 46.6341C203.279 46.5628 203.668 46.5754 204.041 46.6711C204.414 46.7667 204.762 46.943 205.059 47.1877L213.039 42.2959L212.875 47.1625L205.322 51.0618C204.879 51.535 204.277 51.8288 203.632 51.8876C202.987 51.9464 202.342 51.7661 201.821 51.3808C201.299 50.9955 200.937 50.432 200.803 49.7971C200.668 49.1622 200.771 48.4999 201.092 47.9359V47.9359Z" fill="#FFB8B8"/>
<path d="M207.652 45.0681L207.729 45.0152C215.448 39.6839 223.427 34.1728 232.003 27.8568L232.059 27.8154L232.12 27.8665C233.64 29.1568 234.439 31.6224 233.978 33.6014C233.766 34.4985 233.284 35.3086 232.597 35.9221C231.91 36.5356 231.051 36.9227 230.137 37.0311L219.814 43.0773C216.5 45.2232 213.069 47.4442 209.676 49.6071L209.58 49.6684L209.525 49.5389C208.877 48.0165 208.207 46.4436 207.695 45.1745L207.652 45.0681Z" fill="#CCCCCC"/>
<path d="M100.013 114H0.261815C0.192377 114 0.125783 113.972 0.0766836 113.923C0.0275838 113.874 0 113.807 0 113.738C0 113.668 0.0275838 113.602 0.0766836 113.552C0.125783 113.503 0.192377 113.476 0.261815 113.476H100.013C100.083 113.476 100.149 113.503 100.198 113.552C100.247 113.602 100.275 113.668 100.275 113.738C100.275 113.807 100.247 113.874 100.198 113.923C100.149 113.972 100.083 114 100.013 114Z" fill="#3F3D56"/>
<path d="M276.738 114H176.986C176.917 114 176.85 113.972 176.801 113.923C176.752 113.874 176.725 113.807 176.725 113.738C176.725 113.668 176.752 113.602 176.801 113.552C176.85 113.503 176.917 113.476 176.986 113.476H276.738C276.807 113.476 276.874 113.503 276.923 113.552C276.972 113.602 277 113.668 277 113.738C277 113.807 276.972 113.874 276.923 113.923C276.874 113.972 276.807 114 276.738 114Z" fill="#3F3D56"/>
</g>
<defs>
<clipPath id="clip0_3501_298">
<rect width="277" height="114" fill="white"/>
</clipPath>
</defs>
</svg>
