<svg width="29" height="29" viewBox="0 0 29 29" fill="none" xmlns="http://www.w3.org/2000/svg">
<g clip-path="url(#clip0)">
<path d="M0.00441742 14.4259C0.0631847 12.4478 0.852436 10.82 2.38125 9.56719C3.79956 8.40562 5.47141 7.78149 7.23183 7.3728C9.61669 6.81888 12.0429 6.67133 14.4825 6.67794C15.2102 6.69741 15.9376 6.69494 16.6661 6.728C18.0819 6.79217 19.4872 6.92366 20.8783 7.1889C22.7434 7.54422 24.5351 8.09715 26.1162 9.19728C27.6124 10.2386 28.5731 11.6288 28.8856 13.4429C29.143 14.9366 28.9538 16.388 28.4407 17.7995C27.7564 19.6821 26.4546 20.9645 24.5858 21.6749C23.313 22.1588 21.989 22.3045 20.6348 22.3192C19.2534 22.3344 18.04 21.9218 16.9643 21.0615C16.4195 20.626 15.9411 20.113 15.3719 19.7078C14.7764 19.2831 14.2777 19.275 13.668 19.6782C13.2493 19.9548 12.8918 20.3056 12.5213 20.6398C11.6159 21.4567 10.6161 22.1027 9.37554 22.2465C7.77327 22.4318 6.19723 22.2812 4.66401 21.7669C2.84089 21.1558 1.50432 19.9952 0.718952 18.2286C0.181189 17.0193 -0.0345154 15.7452 0.00441742 14.4259ZM21.1695 17.2034C23.2171 17.2034 24.8764 15.2458 24.8764 15.2458C24.8764 15.2458 23.2171 13.2881 21.1695 13.2881C19.1222 13.2881 17.4629 15.2458 17.4629 15.2458C17.4629 15.2458 19.1222 17.2034 21.1695 17.2034ZM7.175 17.2034C9.22222 17.2034 10.8818 15.2458 10.8818 15.2458C10.8818 15.2458 9.22222 13.2881 7.175 13.2881C5.12779 13.2881 3.46801 15.2458 3.46801 15.2458C3.46801 15.2458 5.12779 17.2034 7.175 17.2034Z" fill="#00B9DA"/>
</g>
<defs>
<clipPath id="clip0">
<rect width="29" height="29" fill="white" transform="matrix(-1 0 0 1 29 0)"/>
</clipPath>
</defs>
</svg>
