<svg width="31" height="26" viewBox="0 0 31 26" fill="none" xmlns="http://www.w3.org/2000/svg">
<circle cx="15.2393" cy="11.461" r="11.2296" fill="#00B9DA"/>
<path d="M15.1384 15.8254C14.3484 15.8254 13.6484 15.6854 13.0384 15.4054C12.4284 15.1154 11.9684 14.7104 11.6584 14.1904L12.7084 13.0204C12.9884 13.3504 13.3434 13.6154 13.7734 13.8154C14.2034 14.0154 14.6284 14.1154 15.0484 14.1154C15.5484 14.1154 15.9484 13.9754 16.2484 13.6954C16.5584 13.4054 16.7134 13.0254 16.7134 12.5554C16.7134 12.0554 16.5284 11.6654 16.1584 11.3854C15.7884 11.1054 15.2784 10.9654 14.6284 10.9654H13.7284V9.43543H14.6134C15.1334 9.43543 15.5534 9.29543 15.8734 9.01543C16.1934 8.72543 16.3534 8.36043 16.3534 7.92043C16.3534 7.55043 16.2334 7.26543 15.9934 7.06543C15.7534 6.86543 15.4034 6.76543 14.9434 6.76543C14.4934 6.76543 14.0734 6.86043 13.6834 7.05043C13.2934 7.24043 12.9484 7.51043 12.6484 7.86043L11.6434 6.67543C12.0034 6.17543 12.5034 5.78043 13.1434 5.49043C13.7834 5.20043 14.4734 5.05543 15.2134 5.05543C15.8634 5.05543 16.4384 5.16543 16.9384 5.38543C17.4384 5.60543 17.8234 5.91543 18.0934 6.31543C18.3634 6.70543 18.4984 7.16043 18.4984 7.68043C18.4984 8.21043 18.3584 8.68543 18.0784 9.10543C17.7984 9.52543 17.3884 9.86043 16.8484 10.1104C17.5284 10.3504 18.0334 10.6854 18.3634 11.1154C18.7034 11.5454 18.8734 12.0754 18.8734 12.7054C18.8734 13.3254 18.7184 13.8704 18.4084 14.3404C18.0984 14.8104 17.6584 15.1754 17.0884 15.4354C16.5284 15.6954 15.8784 15.8254 15.1384 15.8254Z" fill="white"/>
</svg>
