<svg width="35" height="35" viewBox="0 0 35 35" fill="none" xmlns="http://www.w3.org/2000/svg">
<g clip-path="url(#clip0)">
<path d="M34.6357 6.62877C33.3714 7.1834 32.0241 7.55102 30.6195 7.72952C32.0645 6.86677 33.1674 5.51102 33.6859 3.8769C32.3386 4.68015 30.8511 5.24752 29.2659 5.56415C27.9866 4.20202 26.1634 3.3584 24.1744 3.3584C20.3154 3.3584 17.2086 6.49065 17.2086 10.3305C17.2086 10.883 17.2554 11.4143 17.3701 11.92C11.5752 11.6374 6.44762 8.86002 3.00299 4.62915C2.40162 5.67252 2.04887 6.86677 2.04887 8.1524C2.04887 10.5664 3.29199 12.7063 5.14499 13.9451C4.02512 13.9239 2.92649 13.5988 1.99574 13.0866C1.99574 13.1079 1.99574 13.1355 1.99574 13.1631C1.99574 16.5504 4.41187 19.3639 7.58024 20.012C7.01287 20.1671 6.39449 20.2415 5.75274 20.2415C5.30649 20.2415 4.85599 20.216 4.43312 20.1225C5.33624 22.8829 7.89899 24.9123 10.9462 24.9781C8.57474 26.8333 5.56362 27.951 2.30387 27.951C1.73224 27.951 1.18399 27.9255 0.635742 27.8554C3.72337 29.8465 7.38262 30.9834 11.3287 30.9834C24.1552 30.9834 31.1677 20.3584 31.1677 11.1486C31.1677 10.8405 31.1571 10.543 31.1422 10.2476C32.5256 9.2659 33.688 8.03977 34.6357 6.62877Z" fill="#00B9DA"/>
</g>
<defs>
<clipPath id="clip0">
<rect width="34" height="34" fill="white" transform="translate(0.635742 0.170898)"/>
</clipPath>
</defs>
</svg>
