<svg width="31" height="26" viewBox="0 0 31 26" fill="none" xmlns="http://www.w3.org/2000/svg">
<circle cx="15.2393" cy="11.502" r="11.2296" fill="#00B9DA"/>
<path d="M11.8384 14.1714C12.5084 13.7014 13.1884 13.1414 13.8784 12.4914C14.5684 11.8314 15.1584 11.1214 15.6484 10.3614C16.1384 9.60145 16.3834 8.87645 16.3834 8.18644C16.3834 7.75645 16.2634 7.41645 16.0234 7.16644C15.7834 6.91644 15.4534 6.79145 15.0334 6.79145C14.5734 6.79145 14.1334 6.91644 13.7134 7.16644C13.3034 7.40644 12.9684 7.73144 12.7084 8.14144L11.5534 6.94144C11.9034 6.35144 12.3834 5.89644 12.9934 5.57644C13.6134 5.24644 14.2984 5.08144 15.0484 5.08144C16.1384 5.08144 16.9934 5.35144 17.6134 5.89145C18.2434 6.42144 18.5584 7.16144 18.5584 8.11145C18.5584 8.99145 18.2134 9.93645 17.5234 10.9464C16.8334 11.9564 15.8934 13.0164 14.7034 14.1264H18.9184V15.7314H11.8384V14.1714Z" fill="white"/>
</svg>
