<svg width="35" height="35" viewBox="0 0 35 35" fill="none" xmlns="http://www.w3.org/2000/svg">
<g clip-path="url(#clip0)">
<path d="M17.404 16.9863C15.154 16.9863 13.2056 16.1793 11.6137 14.5871C10.0218 12.9952 9.21478 11.0474 9.21478 8.79709C9.21478 6.54758 10.0218 4.5995 11.614 3.00706C13.2062 1.41539 15.1543 0.608398 17.404 0.608398C19.6543 0.608398 21.6021 1.41539 23.1941 3.00731C24.786 4.59924 25.5933 6.54732 25.5933 8.79709C25.5933 11.0474 24.786 12.9955 23.1938 14.5874C21.6016 16.179 19.6535 16.9863 17.404 16.9863Z" fill="#00B9DA"/>
<path d="M3.07494 26.7522C3.12085 26.0897 3.21371 25.367 3.35042 24.6039C3.48842 23.835 3.66611 23.1082 3.87881 22.4439C4.09853 21.7572 4.39735 21.0792 4.76674 20.4294C5.15013 19.7549 5.60045 19.1677 6.10576 18.6844C6.63416 18.1788 7.2811 17.7724 8.02921 17.4759C8.77472 17.1809 9.60091 17.0315 10.4847 17.0315C10.8318 17.0315 11.1674 17.1739 11.8157 17.596C12.2146 17.8561 12.6813 18.157 13.2021 18.4898C13.6475 18.7736 14.2509 19.0395 14.9962 19.2802C15.7233 19.5155 16.4615 19.6348 17.1902 19.6348C17.9188 19.6348 18.6568 19.5155 19.3847 19.2802C20.1292 19.0398 20.7325 18.7739 21.1774 18.4901C21.6933 18.1604 22.1602 17.8595 22.5652 17.5957C23.2126 17.1737 23.5486 17.0312 23.8956 17.0312C24.7797 17.0312 25.6056 17.1809 26.3508 17.4761C27.0984 17.7721 27.7456 18.1786 28.2746 18.6847C28.7796 19.1682 29.2302 19.7552 29.6131 20.4294C29.9822 21.0792 30.281 21.757 30.501 22.4441C30.7134 23.1084 30.8911 23.835 31.0291 24.6039C31.1658 25.366 31.2587 26.0889 31.3046 26.753C31.3497 27.4036 31.3726 28.0788 31.3726 28.7607C31.3726 30.5355 30.8084 31.9723 29.6958 33.032C28.597 34.0776 27.1431 34.6081 25.375 34.6081H9.00377C7.2357 34.6081 5.78229 34.0779 4.68321 33.032C3.57039 31.9731 3.0062 30.536 3.0062 28.7605C3.00645 28.0754 3.02954 27.3997 3.07494 26.7522Z" fill="#00B9DA"/>
</g>
<defs>
<clipPath id="clip0">
<rect width="34" height="34" fill="white" transform="matrix(-1 0 0 1 34.1616 0.608398)"/>
</clipPath>
</defs>
</svg>
