<svg width="397" height="262" viewBox="0 0 397 262" fill="none" xmlns="http://www.w3.org/2000/svg">
<g clip-path="url(#clip0_4871_257)">
<path d="M297.449 82.487C297.449 89.4568 295.024 95.4076 290.41 99.8359C287.136 102.98 282.093 107.387 282.093 112.046V115.901H266.738V112.046C266.738 107.338 261.675 102.922 258.421 99.8359C253.912 95.5627 251.383 89.2079 251.383 82.487V82.3445C251.403 76.2097 253.848 70.334 258.181 66.0098C262.513 61.6855 268.379 59.2669 274.487 59.2858C280.595 59.3046 286.445 61.7595 290.751 66.1105C295.058 70.4615 297.467 76.3522 297.449 82.487Z" fill="#2D3B5A"/>
<path d="M282.093 116.442C281.95 116.442 281.813 116.385 281.712 116.283C281.611 116.182 281.555 116.044 281.555 115.901V112.045C281.555 107.513 286.005 103.282 289.254 100.193C289.524 99.9366 289.786 99.688 290.038 99.4454C294.533 95.1293 296.909 89.2653 296.909 82.4872C296.909 69.8193 287.029 59.8958 274.416 59.8958H274.353C268.417 59.9025 262.725 62.2694 258.522 66.479C254.319 70.6886 251.947 76.3984 251.923 82.36V82.4863C251.923 89.1243 254.427 95.3046 258.792 99.4433C259.013 99.653 259.243 99.8689 259.478 100.091C262.77 103.186 267.278 107.425 267.278 112.045V115.901C267.278 116.044 267.221 116.182 267.12 116.283C267.019 116.385 266.882 116.442 266.739 116.442C266.596 116.442 266.459 116.385 266.358 116.283C266.257 116.182 266.2 116.044 266.2 115.901V112.045C266.2 107.894 261.89 103.84 258.742 100.88C258.505 100.657 258.275 100.44 258.052 100.229C253.472 95.8872 250.846 89.4203 250.846 82.4864V82.3566C250.882 69.3611 261.421 58.8128 274.351 58.8128H274.418C280.636 58.7803 286.613 61.2303 291.033 65.6237C295.453 70.0172 297.954 75.9942 297.987 82.2399C297.987 82.3223 297.987 82.4047 297.987 82.4872C297.987 89.568 295.495 95.7025 290.783 100.228C290.53 100.471 290.266 100.721 289.995 100.979C286.888 103.933 282.632 107.979 282.632 112.045V115.901C282.632 116.044 282.575 116.182 282.474 116.283C282.373 116.385 282.236 116.442 282.093 116.442H282.093Z" fill="#3F3D56"/>
<path d="M279.535 123.386H269.298C269.06 123.386 268.832 123.291 268.663 123.122C268.495 122.953 268.4 122.723 268.4 122.484C268.4 122.245 268.495 122.015 268.663 121.846C268.832 121.677 269.06 121.582 269.298 121.582H279.535C279.773 121.582 280.002 121.677 280.17 121.846C280.339 122.015 280.433 122.245 280.433 122.484C280.433 122.723 280.339 122.953 280.17 123.122C280.002 123.291 279.773 123.386 279.535 123.386Z" fill="#2D3B5A"/>
<path d="M275.517 129.428H273.313C272.548 129.429 271.797 129.22 271.141 128.824C271.044 128.767 270.969 128.679 270.928 128.574C270.886 128.469 270.881 128.353 270.914 128.244C270.943 128.133 271.009 128.035 271.1 127.965C271.191 127.895 271.302 127.857 271.417 127.858H277.413C277.528 127.857 277.639 127.895 277.73 127.965C277.822 128.035 277.887 128.133 277.916 128.244C277.949 128.353 277.944 128.469 277.903 128.574C277.861 128.679 277.786 128.767 277.689 128.824C277.033 129.22 276.282 129.429 275.517 129.428Z" fill="#3F3D56"/>
<path d="M279.537 126.234L269.239 126.233L269.207 126.165C269.177 126.038 269.176 125.907 269.204 125.78C269.232 125.653 269.288 125.534 269.369 125.433C269.451 125.328 269.555 125.244 269.674 125.186C269.793 125.129 269.923 125.099 270.056 125.099H278.776C278.908 125.099 279.039 125.129 279.158 125.186C279.277 125.244 279.381 125.328 279.463 125.433C279.543 125.533 279.599 125.65 279.628 125.775C279.656 125.9 279.655 126.03 279.626 126.156L279.61 126.225L279.537 126.234Z" fill="#3F3D56"/>
<path d="M250.602 61.228C250.385 61.2282 250.176 61.1492 250.012 61.0056L242.301 54.2448C242.124 54.0867 242.017 53.865 242.002 53.6278C241.987 53.3907 242.066 53.1572 242.222 52.9782C242.377 52.7992 242.597 52.6891 242.833 52.6718C243.069 52.6545 243.302 52.7315 243.482 52.886L251.193 59.6468C251.331 59.7675 251.429 59.9276 251.474 60.1057C251.518 60.2837 251.508 60.4712 251.444 60.6432C251.379 60.8151 251.264 60.9632 251.114 61.0677C250.964 61.1723 250.785 61.2283 250.602 61.2282V61.228Z" fill="#E4E4E4"/>
<path d="M296.951 61.2277C296.768 61.2278 296.59 61.1719 296.439 61.0673C296.289 60.9628 296.174 60.8146 296.11 60.6427C296.046 60.4708 296.035 60.2833 296.08 60.1052C296.125 59.9272 296.222 59.7671 296.36 59.6464L304.072 52.885C304.251 52.7305 304.485 52.6536 304.721 52.6708C304.957 52.6881 305.176 52.7982 305.332 52.9772C305.487 53.1563 305.566 53.3897 305.552 53.6269C305.537 53.864 305.429 54.0857 305.253 54.2438L297.541 61.0046C297.378 61.1484 297.168 61.2277 296.951 61.2277Z" fill="#E4E4E4"/>
<path d="M282.093 120.185H266.738C266.5 120.185 266.271 120.09 266.103 119.921C265.934 119.751 265.84 119.522 265.84 119.283C265.84 119.044 265.934 118.814 266.103 118.645C266.271 118.476 266.5 118.381 266.738 118.381H282.093C282.331 118.381 282.56 118.476 282.728 118.645C282.897 118.814 282.991 119.044 282.991 119.283C282.991 119.522 282.897 119.751 282.728 119.921C282.56 120.09 282.331 120.185 282.093 120.185Z" fill="#2D3B5A"/>
<path d="M274.04 96.6235L270.846 115.901H269.023L272.267 96.3277C272.306 96.0916 272.437 95.8808 272.631 95.7416C272.824 95.6024 273.065 95.5462 273.3 95.5855C273.536 95.6247 273.745 95.7561 273.884 95.9508C274.023 96.1454 274.079 96.3874 274.04 96.6235Z" fill="#E6E6E6"/>
<path d="M280.177 115.901H278.354L275.161 96.6235C275.122 96.3874 275.177 96.1454 275.316 95.9508C275.455 95.7561 275.665 95.6247 275.9 95.5855C276.135 95.5462 276.376 95.6024 276.569 95.7416C276.763 95.8808 276.894 96.0916 276.933 96.3277L280.177 115.901Z" fill="#E6E6E6"/>
<path d="M268.58 95.9795C268.58 95.7403 268.675 95.5109 268.843 95.3418C269.011 95.1727 269.24 95.0776 269.478 95.0776H279.354C279.593 95.0776 279.821 95.1727 279.989 95.3418C280.158 95.5109 280.252 95.7403 280.252 95.9795C280.252 96.2187 280.158 96.4481 279.989 96.6173C279.821 96.7864 279.593 96.8814 279.354 96.8814H269.478C269.24 96.8814 269.011 96.7864 268.843 96.6173C268.675 96.4481 268.58 96.2187 268.58 95.9795Z" fill="#E6E6E6"/>
<path d="M274.418 52.2248C274.179 52.2248 273.951 52.1298 273.783 51.9607C273.614 51.7915 273.52 51.5621 273.52 51.3229V35.9004C273.52 35.6612 273.614 35.4318 273.783 35.2627C273.951 35.0936 274.179 34.9985 274.418 34.9985C274.656 34.9985 274.884 35.0936 275.052 35.2627C275.221 35.4318 275.315 35.6612 275.315 35.9004V51.3229C275.315 51.5621 275.221 51.7915 275.052 51.9607C274.884 52.1298 274.656 52.2248 274.418 52.2248Z" fill="#E4E4E4"/>
<line x1="305.155" y1="78.4164" x2="329.236" y2="67.1871" stroke="#2D3B5A" stroke-width="4"/>
<line x1="299.663" y1="55.2737" x2="319.425" y2="37.5125" stroke="#2D3B5A" stroke-width="4"/>
</g>
<path d="M239.435 146.746C238.233 217.097 133.588 217.085 132.396 146.743C133.598 76.3948 238.243 76.4058 239.435 146.746Z" fill="#2D3B5A"/>
<path d="M183.79 168.582L183.734 166.582C197.519 168.422 200.488 151.338 186.586 157.725L189.759 134.535L191.741 134.806L189.042 154.533C203.679 152.354 198.265 170.58 183.79 168.582Z" fill="white"/>
<path d="M212.312 136.507H201.541V138.507H212.312V136.507Z" fill="white"/>
<path d="M178.312 136.507H167.541V138.507H178.312V136.507Z" fill="white"/>
<path d="M227.628 237.577C221.173 230.06 212.73 224.515 203.268 221.577C205.368 207.407 188.778 210.207 179.998 210.067C178.582 210.072 177.185 210.392 175.909 211.004C174.633 211.617 173.509 212.506 172.62 213.608C171.731 214.71 171.099 215.996 170.77 217.373C170.441 218.75 170.423 220.183 170.718 221.567C160.641 224.724 151.731 230.805 145.118 239.037C143.519 241 142.059 243.072 140.748 245.237H233.218C231.578 242.528 229.707 239.966 227.628 237.577V237.577Z" fill="white"/>
<path d="M168.674 116.587C176.634 112.034 186.288 115.527 194.51 117.437C210.11 122.183 231.986 116.24 233.883 97.8484C235.858 80.744 212.215 71.2112 204.659 88.2349L206.859 87.9503C182.352 51.9051 139.722 53.2721 140.003 102.828C139.912 104.359 142.32 104.354 142.41 102.827C141.507 73.6245 161.036 53.6625 188.64 72.4294C194.958 76.9911 200.07 83.033 204.78 89.153C207.655 92.3415 208.28 78.6096 222.039 82.2064C237.183 88.0124 232.241 109.472 218.706 114.183C201.982 122.639 183.87 106.244 167.459 114.529C167.195 114.694 167.006 114.954 166.932 115.254C166.858 115.555 166.904 115.872 167.062 116.139C167.22 116.406 167.476 116.602 167.777 116.686C168.078 116.769 168.399 116.734 168.674 116.587V116.587Z" fill="white"/>
<path d="M163.768 175.193C163.768 175.193 187.268 196.193 207.268 175.193" stroke="white" stroke-width="4"/>
<line x1="276" y1="48.5708" x2="276" y2="22.0001" stroke="#2D3B5A" stroke-width="4"/>
<line x1="218.845" y1="65.1859" x2="242.926" y2="76.4152" stroke="#2D3B5A" stroke-width="4"/>
<line x1="233.337" y1="37.5121" x2="253.098" y2="55.2741" stroke="#2D3B5A" stroke-width="4"/>
<defs>
<clipPath id="clip0_4871_257">
<rect width="118" height="140" fill="white" transform="translate(242 34.9985)"/>
</clipPath>
</defs>
</svg>
